<svg width="45" height="45" viewBox="0 0 45 45" fill="none" xmlns="http://www.w3.org/2000/svg">
<g clip-path="url(#clip0_384_20035)">
<rect width="45" height="45" rx="10" fill="#6F93FF"/>
<path d="M34.1999 46.4884V16.1997H9.8999V46.5079C13.4961 48.4082 17.641 49.4997 22.0397 49.4997C26.4487 49.49 30.5935 48.3985 34.1999 46.4884Z" fill="#CCD9FF"/>
<path d="M30.2641 10.7998H13.8359C10.6349 10.7998 9 12.3897 9 15.5311V46.0964C9.39396 46.3373 9.79777 46.5782 10.2114 46.7998V16.8319H33.7704V46.7805C34.2234 46.5396 34.6666 46.2698 35.1 46V15.5311C35.1 12.3897 33.4749 10.7998 30.2641 10.7998Z" fill="#202121"/>
<path d="M25.1218 14.3618C25.1218 14.6715 24.8701 14.9135 24.5701 14.9135H19.6626C19.3528 14.9135 19.1108 14.6619 19.1108 14.3618C19.1108 14.052 19.3625 13.8101 19.6626 13.8101H24.5701C24.8701 13.8101 25.1218 14.052 25.1218 14.3618Z" fill="white"/>
<path d="M42.2184 33.3238C42.2184 34.5627 41.2118 35.5694 39.9728 35.5694H22.9175C21.6785 35.5694 20.6719 34.5627 20.6719 33.3238V23.3926C20.6719 22.1536 21.6785 21.147 22.9175 21.147H39.9728C41.2118 21.147 42.2184 22.1536 42.2184 23.3926V33.3238Z" fill="white"/>
<path d="M26.1785 38.5991C26.0043 38.7733 25.7139 38.7733 25.5397 38.5991L23.3812 35.5597C23.2069 35.3855 23.2069 35.0951 23.3812 34.9209H28.3371C28.5113 35.0951 28.5113 35.3855 28.3371 35.5597L26.1785 38.5991Z" fill="white"/>
<path d="M28.2434 29.5004C28.2434 29.8488 28.1563 30.1586 27.982 30.4296C27.8078 30.7006 27.5465 30.9232 27.198 31.0781C26.8592 31.233 26.4527 31.3104 25.9784 31.3104C25.417 31.3104 24.9524 31.2039 24.5845 30.991C24.3232 30.8361 24.1102 30.6329 23.9554 30.3812C23.7908 30.1295 23.7134 29.8779 23.7134 29.6359C23.7134 29.5004 23.7618 29.3745 23.8586 29.2777C23.9554 29.1809 24.0812 29.1325 24.2264 29.1325C24.3522 29.1325 24.449 29.1713 24.5361 29.2487C24.6233 29.3261 24.691 29.4423 24.7491 29.5972C24.8168 29.7811 24.904 29.9263 24.9814 30.0521C25.0685 30.1779 25.1847 30.2747 25.3395 30.3522C25.4944 30.4296 25.6977 30.4683 25.9397 30.4683C26.2784 30.4683 26.5591 30.3909 26.7721 30.2263C26.985 30.0714 27.0915 29.8682 27.0915 29.6262C27.0915 29.4326 27.0334 29.2874 26.9173 29.1616C26.8011 29.0454 26.6559 28.9486 26.472 28.8905C26.2881 28.8325 26.0461 28.7647 25.7364 28.697C25.3299 28.6002 24.9814 28.484 24.7104 28.3582C24.4297 28.2323 24.2167 28.0581 24.0522 27.8355C23.8876 27.6129 23.8102 27.3418 23.8102 27.0127C23.8102 26.703 23.8973 26.4223 24.0618 26.1803C24.2361 25.9383 24.4781 25.7447 24.8072 25.6189C25.1266 25.4834 25.5138 25.4253 25.9493 25.4253C26.2978 25.4253 26.5979 25.4737 26.8592 25.5511C27.1109 25.6382 27.3238 25.7544 27.4981 25.8996C27.6626 26.0448 27.7884 26.19 27.8659 26.3545C27.9433 26.5094 27.982 26.6643 27.982 26.8191C27.982 26.9547 27.9336 27.0805 27.8368 27.187C27.74 27.2934 27.6142 27.3515 27.469 27.3515C27.3335 27.3515 27.2367 27.3225 27.169 27.2547C27.1012 27.187 27.0238 27.0805 26.9463 26.9256C26.8399 26.7127 26.714 26.5384 26.5688 26.4223C26.4236 26.3061 26.1913 26.2384 25.8719 26.2384C25.5718 26.2384 25.3299 26.3061 25.1459 26.432C24.962 26.5675 24.8749 26.7223 24.8749 26.9063C24.8749 27.0224 24.904 27.1192 24.9717 27.1966C25.0298 27.2838 25.1169 27.3515 25.2331 27.4096C25.3395 27.4677 25.4557 27.5161 25.5622 27.5451C25.6686 27.5741 25.8622 27.6322 26.1139 27.6903C26.4333 27.7677 26.7237 27.8452 26.985 27.942C27.2464 28.0291 27.469 28.1452 27.6529 28.2711C27.8368 28.3969 27.982 28.5614 28.0788 28.7647C28.195 28.968 28.2434 29.21 28.2434 29.5004Z" fill="#6F93FF"/>
<path d="M25.9786 31.4944C25.3882 31.4944 24.8848 31.3782 24.488 31.1459C24.1976 30.9814 23.9653 30.7491 23.791 30.4684C23.6071 30.1877 23.52 29.8973 23.52 29.6262C23.52 29.4327 23.5878 29.2681 23.7233 29.1326C23.8588 28.9971 24.0234 28.9293 24.2266 28.9293C24.3912 28.9293 24.546 28.9874 24.6622 29.0939C24.7687 29.1907 24.8558 29.3359 24.9235 29.5101C24.9913 29.6746 25.0591 29.8198 25.1365 29.9263C25.2042 30.0231 25.301 30.1005 25.4269 30.1683C25.5527 30.2361 25.7269 30.2651 25.9399 30.2651C26.24 30.2651 26.4819 30.1973 26.6562 30.0618C26.8207 29.936 26.8982 29.7908 26.8982 29.6166C26.8982 29.4811 26.8594 29.3746 26.782 29.2875C26.6852 29.1907 26.5691 29.1132 26.4045 29.0648C26.2303 29.0068 25.9883 28.939 25.6882 28.8713C25.2623 28.7745 24.9042 28.6583 24.6235 28.5228C24.3234 28.3776 24.0717 28.184 23.8975 27.942C23.7136 27.6904 23.6168 27.3709 23.6168 27.0031C23.6168 26.6546 23.7136 26.3352 23.9072 26.0545C24.1008 25.7835 24.3815 25.5705 24.73 25.4254C25.0784 25.2898 25.485 25.2124 25.9399 25.2124C26.3077 25.2124 26.6368 25.2608 26.9078 25.3576C27.1885 25.4544 27.4209 25.5802 27.6048 25.7351C27.7887 25.8996 27.9339 26.0642 28.021 26.2481C28.1081 26.432 28.1565 26.6159 28.1565 26.7902C28.1565 26.9741 28.0887 27.1386 27.9629 27.2838C27.7112 27.5742 27.2466 27.5742 27.024 27.3612C26.9369 27.2838 26.8594 27.158 26.7626 26.9934C26.6659 26.7998 26.5594 26.645 26.4335 26.5482C26.3271 26.4611 26.1238 26.4127 25.8528 26.4127C25.5914 26.4127 25.3882 26.4707 25.243 26.5772C25.0687 26.703 25.0494 26.8192 25.0494 26.8966C25.0494 26.9644 25.0687 27.0321 25.1075 27.0805C25.1559 27.1386 25.2236 27.1967 25.301 27.2451C25.3978 27.2935 25.4946 27.3419 25.5914 27.3709C25.6979 27.4 25.8818 27.4484 26.1335 27.5161C26.4626 27.5936 26.7626 27.6807 27.024 27.7678C27.3047 27.8646 27.537 27.9807 27.7403 28.1259C27.9435 28.2711 28.1081 28.4647 28.2242 28.6873C28.3404 28.91 28.3985 29.181 28.3985 29.5004C28.3985 29.8779 28.3017 30.2264 28.0984 30.5361C27.9048 30.8459 27.6144 31.0782 27.2369 31.2524C26.9175 31.4073 26.4819 31.4944 25.9786 31.4944ZM24.2363 29.3068C24.1395 29.3068 24.0621 29.3359 24.004 29.4036C23.9362 29.4714 23.9072 29.5391 23.9072 29.6262C23.9072 29.8295 23.975 30.0425 24.1201 30.2651C24.2653 30.4974 24.4589 30.6813 24.6912 30.8168C25.0203 31.0104 25.4656 31.1072 25.9883 31.1072C26.4239 31.1072 26.811 31.0298 27.1305 30.8943C27.4402 30.7588 27.6725 30.5652 27.8274 30.3232C27.9823 30.0812 28.0597 29.8005 28.0597 29.5004C28.0597 29.2488 28.0113 29.0261 27.9242 28.8616C27.8371 28.6873 27.7112 28.5518 27.5564 28.4357C27.3918 28.3195 27.1789 28.213 26.9369 28.1259C26.6852 28.0388 26.3948 27.9517 26.0851 27.8839C25.8237 27.8162 25.6301 27.7678 25.5237 27.7291C25.3978 27.6904 25.272 27.642 25.1559 27.5742C25.0203 27.4968 24.9139 27.4096 24.8364 27.3032C24.7493 27.187 24.7009 27.0515 24.7009 26.8966C24.7009 26.7224 24.759 26.4804 25.0591 26.2675C25.272 26.1126 25.5527 26.0352 25.8915 26.0352C26.2593 26.0352 26.5303 26.1126 26.7143 26.2578C26.8788 26.3933 27.024 26.5772 27.1401 26.8289C27.2273 26.9837 27.2853 27.0612 27.3241 27.0999C27.3628 27.1386 27.4402 27.1483 27.4983 27.1483C27.5854 27.1483 27.6532 27.1193 27.7209 27.0515C27.7887 26.9741 27.8177 26.8966 27.8177 26.8095C27.8177 26.6934 27.7887 26.5579 27.7209 26.432C27.6532 26.2965 27.5467 26.1707 27.4015 26.0352C27.2563 25.9093 27.0627 25.8029 26.8304 25.7254C26.5981 25.648 26.3077 25.6093 25.9883 25.6093C25.5818 25.6093 25.2139 25.6673 24.9139 25.7932C24.6235 25.9093 24.4009 26.0739 24.2557 26.2868C24.1105 26.4998 24.033 26.7418 24.033 27.0128C24.033 27.3032 24.1008 27.5355 24.2363 27.7291C24.3815 27.9227 24.5751 28.0775 24.8171 28.1937C25.0784 28.3195 25.4172 28.426 25.8044 28.5131C26.1141 28.5809 26.3658 28.6486 26.5594 28.7164C26.7723 28.7841 26.9466 28.8906 27.0821 29.0358C27.2369 29.1907 27.3047 29.3939 27.3047 29.6262C27.3047 29.9263 27.1692 30.178 26.9078 30.3716C26.6659 30.5555 26.3464 30.6523 25.9592 30.6523C25.6785 30.6523 25.4462 30.6039 25.272 30.5168C25.0881 30.42 24.9526 30.3038 24.8461 30.1586C24.7493 30.0231 24.6719 29.8586 24.5944 29.665C24.546 29.5391 24.488 29.4423 24.4202 29.3843C24.3621 29.3262 24.3041 29.3068 24.2363 29.3068ZM30.9539 30.3522L30.044 26.7224V30.6523C30.044 30.8749 29.9956 31.0298 29.8988 31.1459C29.802 31.2524 29.6762 31.3105 29.5116 31.3105C29.3568 31.3105 29.2309 31.2524 29.1341 31.1459C29.0373 31.0395 28.9889 30.8749 28.9889 30.6523V26.1416C28.9889 25.89 29.0567 25.7254 29.1825 25.6383C29.3084 25.5512 29.4826 25.5028 29.7052 25.5028H30.0634C30.2763 25.5028 30.4312 25.5221 30.528 25.5609C30.6248 25.5996 30.6925 25.6673 30.7409 25.7738C30.7893 25.8706 30.8377 26.0352 30.9055 26.2675L31.7282 29.3939L32.5607 26.2675C32.6187 26.0352 32.6768 25.8803 32.7155 25.7738C32.7639 25.677 32.8317 25.5996 32.9285 25.5609C33.0253 25.5221 33.1802 25.5028 33.3931 25.5028H33.7512C33.9739 25.5028 34.1481 25.5512 34.2739 25.6383C34.3998 25.7254 34.4675 25.89 34.4675 26.1416V30.6523C34.4675 30.8749 34.4191 31.0298 34.3223 31.1459C34.2255 31.2524 34.09 31.3105 33.9351 31.3105C33.7803 31.3105 33.6544 31.2524 33.5576 31.1459C33.4609 31.0395 33.4125 30.8749 33.4125 30.6523V26.7224L32.5026 30.3522C32.4445 30.5845 32.3961 30.7587 32.3574 30.8749C32.3187 30.9814 32.2509 31.0879 32.1541 31.175C32.0573 31.2621 31.9121 31.3105 31.7379 31.3105C31.6024 31.3105 31.4862 31.2814 31.3991 31.2234C31.3023 31.1653 31.2346 31.0879 31.1862 31.0007C31.1378 30.9136 31.0894 30.8071 31.0603 30.7007C31.0119 30.5845 30.9829 30.4684 30.9539 30.3522Z" fill="#6F93FF"/>
<path d="M33.9333 31.4944C33.73 31.4944 33.5558 31.4169 33.4203 31.2717C33.2847 31.1265 33.2267 30.9233 33.2267 30.6522V28.2517L32.6846 30.4006C32.6265 30.6426 32.5685 30.8168 32.5297 30.933C32.4813 31.0781 32.3942 31.204 32.2684 31.3201C32.1329 31.446 31.949 31.504 31.7263 31.504C31.5618 31.504 31.4069 31.4653 31.2811 31.3879C31.1553 31.3105 31.0681 31.2137 31.0004 31.0975C30.9423 30.991 30.8939 30.8749 30.8649 30.749C30.8358 30.6426 30.8068 30.5264 30.7681 30.4006L30.226 28.2517V30.6522C30.226 30.9233 30.1583 31.1265 30.0324 31.2717C29.7711 31.5621 29.2581 31.5718 28.987 31.2717C28.8515 31.1265 28.7935 30.9233 28.7935 30.6522V26.1416C28.7935 25.8222 28.8903 25.5996 29.0742 25.4834C29.2387 25.3769 29.4517 25.3188 29.7033 25.3188H30.0615C30.3035 25.3188 30.4777 25.3382 30.6035 25.3866C30.7487 25.4447 30.8552 25.5512 30.9229 25.6963C30.9713 25.8028 31.0294 25.9771 31.0972 26.219L31.7457 28.6486L32.3942 26.219C32.4523 25.9771 32.5104 25.8125 32.5685 25.6963C32.6362 25.5512 32.7427 25.4447 32.8879 25.3866C33.0137 25.3382 33.1879 25.3188 33.4299 25.3188H33.7881C34.0494 25.3188 34.2527 25.3769 34.4172 25.4834C34.6011 25.6092 34.6979 25.8319 34.6979 26.1416V30.6522C34.6979 30.9136 34.6302 31.1265 34.5044 31.2717C34.3398 31.4169 34.1559 31.4944 33.9333 31.4944ZM33.2267 26.674L33.6042 26.7224V30.6522C33.6042 30.8168 33.6332 30.9426 33.701 31.0104C33.8365 31.1556 34.0688 31.1362 34.1849 31.0104C34.2527 30.933 34.2817 30.8168 34.2817 30.6426V26.1319C34.2817 26.0061 34.2624 25.8512 34.1753 25.7835C34.0785 25.7157 33.9333 25.6867 33.759 25.6867H33.4009C33.1492 25.6867 33.0428 25.7157 33.004 25.7351C32.9556 25.7544 32.9169 25.7931 32.8879 25.8512C32.8492 25.9383 32.8008 26.0932 32.7427 26.3158L31.7263 30.1296L30.7197 26.3158C30.6616 26.1029 30.6132 25.948 30.5745 25.8512C30.5454 25.7931 30.5164 25.7544 30.4583 25.7351C30.4196 25.7157 30.3131 25.6867 30.0615 25.6867H29.6936C29.5097 25.6867 29.3742 25.7157 29.2774 25.7835C29.1903 25.8415 29.171 26.0061 29.171 26.1319V30.6522C29.171 30.8265 29.2 30.9426 29.2678 31.0201C29.3936 31.1653 29.6356 31.1556 29.7517 31.0201C29.8195 30.9426 29.8485 30.8265 29.8485 30.6522V26.7224L30.226 26.674L31.1359 30.3038C31.1649 30.4199 31.194 30.5361 31.223 30.6426C31.252 30.7394 31.2811 30.8265 31.3295 30.9039C31.3682 30.9717 31.4166 31.0201 31.4844 31.0588C31.6295 31.1459 31.9006 31.1362 32.0167 31.0297C32.0942 30.962 32.1426 30.8846 32.1716 30.8071C32.2103 30.7006 32.2587 30.5361 32.3168 30.3038L33.2267 26.674Z" fill="#6F93FF"/>
<path d="M39.7902 29.5004C39.7902 29.8488 39.7031 30.1586 39.5191 30.4296C39.3449 30.7006 39.0836 30.9232 38.7351 31.0781C38.3963 31.233 37.9898 31.3104 37.5155 31.3104C36.9541 31.3104 36.4895 31.2039 36.1216 30.991C35.8603 30.8361 35.6473 30.6329 35.4925 30.3812C35.3279 30.1295 35.2505 29.8779 35.2505 29.6359C35.2505 29.5004 35.2989 29.3745 35.3957 29.2777C35.4925 29.1809 35.6183 29.1325 35.7635 29.1325C35.8893 29.1325 35.9861 29.1713 36.0732 29.2487C36.1604 29.3261 36.2281 29.4423 36.2862 29.5972C36.354 29.7811 36.4411 29.9263 36.5185 30.0521C36.6056 30.1779 36.7218 30.2747 36.8766 30.3522C37.0315 30.4296 37.2251 30.4683 37.4768 30.4683C37.8156 30.4683 38.0963 30.3909 38.3092 30.2263C38.5222 30.0714 38.6286 29.8682 38.6286 29.6262C38.6286 29.4326 38.5706 29.2874 38.4544 29.1616C38.3382 29.0454 38.1931 28.9486 38.0091 28.8905C37.8252 28.8325 37.5832 28.7647 37.2735 28.697C36.867 28.6002 36.5185 28.484 36.2475 28.3582C35.9668 28.2323 35.7538 28.0581 35.5893 27.8355C35.4247 27.6129 35.3473 27.3418 35.3473 27.0127C35.3473 26.703 35.4344 26.4223 35.6086 26.1803C35.7829 25.9383 36.0248 25.7447 36.3539 25.6189C36.6734 25.4834 37.0606 25.4253 37.4961 25.4253C37.8446 25.4253 38.1447 25.4737 38.406 25.5511C38.6577 25.6382 38.8706 25.7544 39.0448 25.8996C39.2094 26.0448 39.3352 26.19 39.4127 26.3545C39.4901 26.5094 39.5288 26.6643 39.5288 26.8191C39.5288 26.9547 39.4804 27.0805 39.3836 27.187C39.2868 27.2934 39.161 27.3515 39.0158 27.3515C38.8803 27.3515 38.7835 27.3225 38.7157 27.2547C38.648 27.187 38.5706 27.0805 38.4931 26.9256C38.3866 26.7127 38.2608 26.5384 38.1253 26.4223C37.9801 26.3061 37.7478 26.2384 37.4284 26.2384C37.1283 26.2384 36.8863 26.3061 36.7121 26.432C36.5282 26.5675 36.4411 26.7223 36.4411 26.9063C36.4411 27.0224 36.4701 27.1192 36.5379 27.1966C36.5959 27.2838 36.6831 27.3515 36.7895 27.4096C36.896 27.4677 37.0122 27.5161 37.1186 27.5451C37.2348 27.5741 37.4187 27.6322 37.6704 27.6903C37.9898 27.7677 38.2802 27.8452 38.5415 27.942C38.8029 28.0291 39.0255 28.1452 39.2094 28.2711C39.3933 28.3969 39.5385 28.5614 39.6353 28.7647C39.7418 28.968 39.7902 29.21 39.7902 29.5004Z" fill="#6F93FF"/>
<path d="M37.523 31.4944C36.9326 31.4944 36.4293 31.3782 36.0324 31.1459C35.742 30.9814 35.5097 30.7491 35.3355 30.4684C35.1516 30.1877 35.0645 29.8973 35.0645 29.6262C35.0645 29.4327 35.1322 29.2681 35.2677 29.1326C35.4032 28.9971 35.5678 28.9293 35.7711 28.9293C35.9453 28.9293 36.0905 28.9874 36.2066 29.0939C36.3131 29.1907 36.4002 29.3359 36.468 29.5101C36.5357 29.6746 36.6035 29.8198 36.6809 29.9263C36.7487 30.0231 36.8455 30.1005 36.9713 30.1683C37.0971 30.2361 37.2714 30.2651 37.4843 30.2651C37.7844 30.2651 38.0264 30.1973 38.2006 30.0618C38.3652 29.936 38.4426 29.7908 38.4426 29.6166C38.4426 29.4811 38.4039 29.3746 38.3264 29.2875C38.2296 29.1907 38.1038 29.1132 37.9489 29.0648C37.7747 29.0068 37.5327 28.939 37.2327 28.8713C36.8068 28.7745 36.4486 28.6583 36.1679 28.5228C35.8679 28.3776 35.6162 28.184 35.442 27.942C35.258 27.6904 35.1612 27.3709 35.1612 27.0031C35.1612 26.6546 35.258 26.3352 35.4516 26.0545C35.6452 25.7835 35.9162 25.5705 36.2744 25.4254C36.6229 25.2898 37.0294 25.2124 37.4843 25.2124C37.8521 25.2124 38.1812 25.2608 38.4523 25.3576C38.733 25.4544 38.9653 25.5802 39.1492 25.7351C39.3331 25.8996 39.4783 26.0739 39.5654 26.2481C39.6525 26.432 39.7009 26.6159 39.7009 26.7902C39.7009 26.9741 39.6332 27.1386 39.5073 27.2838C39.246 27.5742 38.7911 27.5742 38.5684 27.3612C38.4813 27.2838 38.4039 27.158 38.3071 26.9934C38.2103 26.7998 38.1038 26.6546 37.978 26.5482C37.8715 26.4611 37.6682 26.4127 37.3972 26.4127C37.1359 26.4127 36.9326 26.4707 36.7874 26.5772C36.6132 26.703 36.5938 26.8192 36.5938 26.8966C36.5938 26.9741 36.6132 27.0321 36.6519 27.0805C36.7003 27.1386 36.7584 27.1967 36.8455 27.2451C36.9423 27.2935 37.0391 27.3419 37.1359 27.3709C37.2423 27.4 37.4262 27.4484 37.6779 27.5161C38.007 27.5936 38.3071 27.6807 38.5684 27.7678C38.8395 27.8646 39.0814 27.9807 39.2847 28.1259C39.488 28.2711 39.6525 28.4647 39.7687 28.6873C39.8848 28.91 39.9429 29.1907 39.9429 29.5004C39.9429 29.8779 39.8461 30.2264 39.6429 30.5361C39.4493 30.8362 39.1589 31.0782 38.7814 31.2524C38.4523 31.4073 38.0167 31.4944 37.523 31.4944ZM35.7711 29.3068C35.6743 29.3068 35.5968 29.3359 35.5387 29.4036C35.471 29.4714 35.442 29.5391 35.442 29.6262C35.442 29.8295 35.5097 30.0425 35.6549 30.2651C35.8001 30.4974 35.9937 30.6813 36.226 30.8168C36.5648 31.0104 37.0004 31.1072 37.523 31.1072C37.9683 31.1072 38.3458 31.0298 38.6652 30.8943C38.975 30.7588 39.2073 30.5652 39.3621 30.3232C39.517 30.0812 39.5945 29.8005 39.5945 29.5004C39.5945 29.2488 39.5461 29.0261 39.4589 28.8616C39.3718 28.6873 39.246 28.5518 39.0911 28.4357C38.9266 28.3195 38.7136 28.213 38.4716 28.1259C38.22 28.0388 37.9393 27.9614 37.6198 27.8839C37.3585 27.8162 37.1649 27.7678 37.0584 27.7291C36.9326 27.6904 36.8164 27.642 36.6906 27.5742C36.5551 27.4968 36.4486 27.4096 36.3712 27.3032C36.2841 27.187 36.2357 27.0515 36.2357 26.8966C36.2357 26.7224 36.2937 26.4804 36.5841 26.2675C36.7971 26.1126 37.0778 26.0352 37.4166 26.0352C37.7844 26.0352 38.0554 26.1126 38.2393 26.2578C38.4039 26.3933 38.5491 26.5869 38.6652 26.8289C38.7523 26.9837 38.8104 27.0612 38.8491 27.0999C38.9169 27.1677 39.1298 27.1773 39.246 27.0418C39.3138 26.9644 39.3428 26.887 39.3428 26.7998C39.3428 26.674 39.3138 26.5482 39.246 26.4223C39.1782 26.2868 39.0718 26.1513 38.9266 26.0255C38.7814 25.8996 38.5878 25.7932 38.3555 25.7157C38.1232 25.6383 37.8328 25.5996 37.5134 25.5996C37.1068 25.5996 36.739 25.6577 36.4389 25.7835C36.1486 25.8996 35.9259 26.0642 35.7807 26.2771C35.6355 26.4901 35.5581 26.7321 35.5581 27.0031C35.5581 27.2935 35.6259 27.5258 35.7614 27.7194C35.9066 27.913 36.1002 28.0679 36.3421 28.184C36.6035 28.3098 36.9423 28.4163 37.3295 28.5034C37.6392 28.5712 37.8909 28.6389 38.0845 28.7067C38.2974 28.7745 38.4716 28.8906 38.6071 29.0261C38.762 29.181 38.8298 29.3843 38.8298 29.6166C38.8298 29.9166 38.6943 30.1683 38.4329 30.3619C38.1909 30.5458 37.8715 30.6426 37.4843 30.6426C37.2036 30.6426 36.981 30.5942 36.7971 30.5071C36.6229 30.42 36.4777 30.2941 36.3712 30.1489C36.2744 30.0134 36.197 29.8586 36.1195 29.6553C36.0711 29.5295 36.013 29.4327 35.955 29.3746C35.9066 29.3262 35.8485 29.3068 35.7711 29.3068Z" fill="#6F93FF"/>
</g>
<defs>
<clipPath id="clip0_384_20035">
<rect width="45" height="45" rx="10" fill="white"/>
</clipPath>
</defs>
</svg>
