<svg width="82" height="82" viewBox="0 0 82 82" fill="none" xmlns="http://www.w3.org/2000/svg">
<g id="icons8-goal 1">
<path id="Vector" d="M41 65.6C54.1333 65.6 64.78 54.9534 64.78 41.82C64.78 28.6867 54.1333 18.04 41 18.04C27.8666 18.04 17.22 28.6867 17.22 41.82C17.22 54.9534 27.8666 65.6 41 65.6Z" fill="#4B4DFF"/>
<path id="Vector_2" d="M41.0001 66.0099C27.6611 66.0099 16.8101 55.1588 16.8101 41.8199C16.8101 28.4809 27.6611 17.6299 41.0001 17.6299C54.339 17.6299 65.1901 28.4809 65.1901 41.8199C65.1901 55.1588 54.339 66.0099 41.0001 66.0099ZM41.0001 18.4499C28.1138 18.4499 17.6301 28.9336 17.6301 41.8199C17.6301 54.7062 28.1138 65.1899 41.0001 65.1899C53.8864 65.1899 64.3701 54.7062 64.3701 41.8199C64.3701 28.9336 53.8864 18.4499 41.0001 18.4499Z" fill="#EDF7F5"/>
<path id="Vector_3" d="M41 68.0601C26.5311 68.0601 14.76 56.289 14.76 41.8201C14.76 27.3512 26.5311 15.5801 41 15.5801C55.4689 15.5801 67.24 27.3512 67.24 41.8201C67.24 56.289 55.4689 68.0601 41 68.0601ZM41 20.5001C29.2437 20.5001 19.68 30.0637 19.68 41.8201C19.68 53.5764 29.2437 63.1401 41 63.1401C52.7563 63.1401 62.32 53.5764 62.32 41.8201C62.32 30.0637 52.7563 20.5001 41 20.5001Z" fill="#4343BF"/>
<path id="Vector_4" d="M41 71.3398C24.7222 71.3398 11.48 58.0976 11.48 41.8198C11.48 25.542 24.7222 12.2998 41 12.2998V20.4998C29.2436 20.4998 19.68 30.0635 19.68 41.8198C19.68 53.5761 29.2436 63.1398 41 63.1398C52.7563 63.1398 62.32 53.5761 62.32 41.8198H70.52C70.52 58.0976 57.2778 71.3398 41 71.3398Z" fill="#FF8405"/>
<path id="Vector_5" d="M40.18 58.2199C31.1371 58.2199 23.78 50.8629 23.78 41.8199C23.78 32.777 31.1371 25.4199 40.18 25.4199C49.223 25.4199 56.58 32.777 56.58 41.8199C56.58 50.8629 49.223 58.2199 40.18 58.2199ZM40.18 30.3399C33.8496 30.3399 28.7 35.4895 28.7 41.8199C28.7 48.1503 33.8496 53.2999 40.18 53.2999C46.5104 53.2999 51.66 48.1503 51.66 41.8199C51.66 35.4895 46.5104 30.3399 40.18 30.3399Z" fill="#4343BF"/>
<g id="Group">
<path id="Vector_6" d="M60.2774 24.0417C59.5353 23.2373 58.7423 22.4813 57.9068 21.7744L42.2973 37.3839C41.6552 37.0773 40.9393 36.9001 40.18 36.9001C37.4625 36.9001 35.26 39.1027 35.26 41.8201C35.26 44.5376 37.4625 46.7401 40.18 46.7401C42.8975 46.7401 45.1 44.5376 45.1 41.8201C45.1 41.0608 44.9229 40.345 44.6162 39.7029L60.2774 24.0417Z" fill="#EDF7F5"/>
</g>
</g>
</svg>
