<svg width="69" height="58" viewBox="0 0 69 58" fill="none" xmlns="http://www.w3.org/2000/svg">
<path d="M31.9203 0.349609C30.7457 0.349609 29.7895 1.30295 29.7895 2.47761C29.7895 2.97698 29.9615 3.43477 30.2495 3.79653L28.5011 6.33184C28.0486 6.98868 27.0996 7.44294 26.2484 7.44294H23.4111C23.0195 7.44294 22.7018 7.76214 22.7018 8.15228C22.7018 8.54383 23.0195 8.86161 23.4111 8.86161H22.7018C14.1898 8.86161 9.93375 11.6989 9.93375 18.7923V19.956C9.96213 19.8808 9.98851 19.804 10.0169 19.7288C11.2256 16.3723 11.0233 11.6989 18.4458 11.6989H49.6592C56.7653 11.6989 56.6709 15.8005 58.0853 19.7288C58.1122 19.8054 58.1415 19.8849 58.1684 19.9643V18.795C58.1684 11.7017 53.9124 8.86438 45.4004 8.86438H44.6911C45.0812 8.86438 45.4004 8.5466 45.4004 8.15505C45.4004 7.76491 45.0812 7.44571 44.6911 7.44571H41.8538C41.0011 7.44571 40.0508 6.98862 39.5983 6.33461L37.8471 3.7993C38.1365 3.43612 38.3099 2.97698 38.3099 2.47761C38.3099 1.30295 37.3537 0.349609 36.1791 0.349609C35.0054 0.349609 34.0526 1.30147 34.0511 2.47484C34.0496 1.30147 33.094 0.349609 31.9203 0.349609ZM34.0511 2.47761C34.0526 3.65097 35.0081 4.60284 36.1819 4.60284C36.3407 4.60284 36.4956 4.58701 36.6474 4.55296L38.4345 7.13538C39.1822 8.21924 40.5939 8.85884 41.8565 8.85884H26.2484C27.511 8.85884 28.92 8.22066 29.6676 7.13538L31.452 4.55296C31.6038 4.58701 31.7599 4.60284 31.9231 4.60284C33.0968 4.60284 34.0496 3.65097 34.0511 2.47761ZM18.4458 13.1148C12.5725 13.1148 12.9087 15.8841 11.3524 20.2082C9.20314 26.1708 2.84042 35.8135 2.84042 41.4882C2.84042 49.2825 3.50914 53.7302 5.76642 55.7524C3.12034 55.867 0.00585938 56.1025 0.00585938 56.3842C0.00585938 56.7786 6.17564 57.0907 8.51786 57.0907L9.93375 57.0935H9.93653H58.1629H58.1712L59.5815 57.0907C61.9238 57.0907 68.0935 56.7786 68.0935 56.3842C68.0935 56.1026 64.9812 55.8698 62.3358 55.7552C64.5942 53.7336 65.2645 49.2842 65.2645 41.4882C65.2645 35.8135 58.9018 26.1708 56.7525 20.2082C55.1962 15.8841 55.5325 13.1148 49.6592 13.1148H18.4458ZM16.8442 17.3792C17.6841 17.6898 15.444 26.2115 14.6553 29.036C14.6028 29.1949 14.5313 29.3365 14.4391 29.4628C13.0091 31.9596 7.83388 39.0697 7.16569 38.6342C6.79116 38.3874 9.6197 33.0979 12.0839 27.7254C14.4673 22.5331 16.4796 17.2444 16.8442 17.3792Z" fill="#00B2FF"/>
</svg>
