<svg width="567" height="489" viewBox="0 0 567 489" fill="none" xmlns="http://www.w3.org/2000/svg">
<g clip-path="url(#clip0_5638_4773)">
<path d="M479.932 392.625C479.748 392.625 479.569 392.559 479.429 392.439C479.006 392.075 436.54 355.664 393.383 319.593C317.565 256.223 302.422 246.364 300.144 246.126C300.043 246.116 299.945 246.086 299.856 246.037C299.767 245.989 299.688 245.924 299.624 245.845C299.56 245.766 299.513 245.676 299.484 245.578C299.455 245.481 299.445 245.379 299.456 245.278C299.5 244.854 299.882 244.543 300.304 244.59C301.896 244.756 307.024 247.372 333.06 268.089C348.391 280.287 369.02 297.217 394.374 318.409C437.539 354.486 480.011 390.903 480.435 391.266C480.555 391.369 480.64 391.506 480.68 391.659C480.719 391.811 480.711 391.973 480.656 392.121C480.601 392.269 480.503 392.396 480.373 392.486C480.244 392.577 480.089 392.625 479.932 392.625L479.932 392.625ZM264.635 276.376C263.01 276.376 262.411 275.662 262.204 275.009C261.537 272.905 264.632 269.231 267.346 266.518C270.779 263.086 274.948 259.888 278.224 258.171C278.359 258.101 278.511 258.071 278.662 258.087C278.813 258.102 278.956 258.162 279.073 258.258C279.19 258.355 279.276 258.483 279.321 258.628C279.366 258.773 279.367 258.928 279.324 259.074C279.13 259.729 274.484 275.131 265.55 276.311C265.247 276.353 264.941 276.374 264.635 276.376ZM277.186 260.55C274.383 262.297 271.176 264.874 268.438 267.611C264.258 271.789 263.496 273.972 263.676 274.543C263.761 274.81 264.418 274.903 265.348 274.779C271.557 273.959 275.667 264.647 277.186 260.55Z" fill="#3375E0"/>
</g>
<g clip-path="url(#clip1_5638_4773)">
<path d="M284.566 254.08C282.639 254.079 280.736 253.643 279.001 252.805C234.857 231.555 216.399 193.932 204.185 169.035C201.238 163.027 198.693 157.839 196.297 153.886C194.128 150.305 192.837 149.021 192.348 148.614C185.714 147.163 181.308 140.752 182.424 133.974C183.578 126.972 190.192 122.231 197.192 123.384C201.384 124.074 205.316 125.944 208.88 128.942C211.439 131.094 213.847 133.856 216.242 137.386C220.005 142.931 223.367 149.782 227.259 157.716C233.145 169.714 239.816 183.312 249.761 196.33C261.042 211.098 274.254 221.997 290.149 229.649C296.544 232.727 299.232 240.406 296.154 246.8C293.941 251.397 289.348 254.079 284.566 254.079V254.08Z" fill="white"/>
<path d="M284.565 254.851C282.514 254.851 280.529 254.396 278.666 253.5C234.283 232.135 215.754 194.367 203.493 169.376C200.552 163.381 198.014 158.209 195.637 154.286C193.697 151.084 192.507 149.796 191.987 149.323C185.02 147.694 180.495 140.937 181.663 133.849C182.884 126.439 189.905 121.403 197.317 122.623C201.648 123.337 205.705 125.264 209.375 128.352C211.989 130.551 214.444 133.364 216.879 136.953C220.673 142.543 224.045 149.416 227.949 157.375C233.821 169.343 240.475 182.905 250.372 195.862C261.579 210.532 274.699 221.356 290.483 228.954C297.25 232.212 300.106 240.368 296.848 247.135C294.591 251.822 289.77 254.851 284.565 254.851L284.565 254.851ZM195.098 123.983C189.293 123.983 184.158 128.19 183.184 134.1C182.14 140.444 186.236 146.489 192.512 147.861C192.633 147.887 192.745 147.942 192.84 148.021C193.446 148.526 194.787 149.906 196.956 153.487C199.369 157.468 201.92 162.669 204.874 168.691C217.045 193.497 235.432 230.977 279.335 252.111C280.987 252.906 282.747 253.309 284.565 253.309C289.182 253.309 293.457 250.623 295.459 246.466C298.348 240.465 295.816 233.233 289.814 230.344C273.807 222.638 260.505 211.665 249.148 196.798C239.157 183.72 232.469 170.086 226.567 158.057C222.686 150.147 219.336 143.319 215.604 137.819C213.249 134.349 210.887 131.638 208.383 129.532C204.928 126.625 201.12 124.812 197.067 124.145C196.416 124.037 195.757 123.983 195.098 123.983L195.098 123.983Z" fill="#3375E0"/>
<path d="M253.269 249.318C219.709 224.723 205.938 192.902 196.826 171.846C194.417 166.278 191.216 158.883 189.168 155.911C181.058 153.089 175.908 144.764 177.352 136.001C178.967 126.198 188.222 119.56 198.027 121.175C203.158 122.02 207.869 124.262 212.029 127.838C214.92 130.323 217.526 133.44 219.995 137.364C223.565 143.039 226.477 149.767 229.848 157.557C238.315 177.123 248.966 201.74 274.651 220.563C274.651 232.942 263.567 247.687 253.269 249.318H253.269Z" fill="#A8CFFB"/>
<path d="M253.269 250.089C253.105 250.089 252.946 250.037 252.813 249.94C219.085 225.222 205.264 193.285 196.118 172.152C193.816 166.831 190.683 159.593 188.671 156.553C180.19 153.471 175.118 144.819 176.591 135.876C178.273 125.669 187.946 118.733 198.153 120.414C203.425 121.282 208.263 123.584 212.532 127.253C215.482 129.79 218.137 132.963 220.648 136.954C224.249 142.678 227.172 149.431 230.555 157.249C239.039 176.854 249.593 201.243 275.107 219.941C275.205 220.013 275.285 220.106 275.339 220.214C275.394 220.323 275.423 220.442 275.423 220.563C275.423 233.212 264.097 248.384 253.39 250.079C253.35 250.086 253.31 250.089 253.269 250.089V250.089ZM195.094 121.705C186.82 121.705 179.501 127.702 178.113 136.127C176.748 144.413 181.504 152.428 189.422 155.183C189.577 155.237 189.71 155.339 189.803 155.474C191.894 158.506 195.153 166.037 197.532 171.536C206.589 192.465 220.261 224.058 253.461 248.502C258.039 247.651 263.152 243.94 267.204 238.51C271.351 232.953 273.77 226.578 273.877 220.951C248.258 202.038 237.662 177.556 229.143 157.869C225.781 150.102 222.881 143.4 219.342 137.775C216.915 133.916 214.358 130.857 211.527 128.423C207.475 124.94 202.891 122.757 197.902 121.935C196.973 121.782 196.034 121.705 195.094 121.705L195.094 121.705Z" fill="#3375E0"/>
<path d="M228.204 208.116C222.354 202.88 210.073 197.856 200.898 199.468C200.898 199.468 196.269 171.317 194.133 155.575C202.87 144.023 227.584 191.997 228.204 208.116Z" fill="#3375E0"/>
<path d="M228.204 208.887C228.014 208.887 227.831 208.817 227.69 208.691C221.76 203.384 209.633 198.716 201.031 200.227C200.931 200.245 200.828 200.242 200.729 200.22C200.629 200.198 200.535 200.156 200.452 200.097C200.369 200.038 200.298 199.963 200.244 199.876C200.19 199.79 200.154 199.693 200.137 199.593C200.091 199.311 195.482 171.251 193.369 155.679C193.342 155.477 193.396 155.272 193.518 155.11C194.941 153.229 196.876 152.606 199.115 153.31C204.122 154.884 211.2 163.677 218.049 176.831C224.329 188.891 228.719 201.451 228.974 208.087C228.978 208.19 228.961 208.294 228.924 208.391C228.887 208.488 228.831 208.576 228.759 208.651C228.687 208.726 228.601 208.785 228.506 208.826C228.41 208.866 228.308 208.887 228.204 208.887H228.204ZM204.617 198.39C212.564 198.39 221.688 202.05 227.279 206.351C226.425 199.594 222.33 188.392 216.682 177.543C210.117 164.935 203.209 156.213 198.653 154.782C197.126 154.302 195.939 154.624 194.942 155.799C196.873 169.963 200.79 194.034 201.535 198.589C202.534 198.454 203.566 198.39 204.617 198.39Z" fill="#3375E0"/>
<path d="M260.145 446.064L329.572 407.727L335.748 418.91L266.321 457.247L260.145 446.064Z" fill="white"/>
<path d="M266.32 458.019C266.183 458.019 266.047 457.982 265.928 457.912C265.81 457.842 265.712 457.742 265.645 457.621L259.47 446.437C259.371 446.258 259.347 446.047 259.404 445.851C259.46 445.654 259.593 445.488 259.772 445.39L329.199 407.053C329.288 407.004 329.385 406.973 329.486 406.961C329.587 406.95 329.688 406.958 329.786 406.986C329.883 407.015 329.974 407.062 330.053 407.125C330.132 407.188 330.198 407.266 330.247 407.355L336.423 418.539C336.522 418.718 336.545 418.929 336.489 419.125C336.432 419.321 336.299 419.487 336.12 419.586L266.693 457.923C266.579 457.986 266.451 458.019 266.32 458.019ZM261.192 446.367L266.623 456.201L334.7 418.609L329.27 408.775L261.192 446.367Z" fill="#3375E0"/>
<path d="M260.144 446.065L329.572 407.728C329.572 407.728 323.185 396.163 311.265 398.786C301.527 400.928 292.742 405.076 292.742 405.076C275.59 412.058 269.7 425.498 250.106 427.888L260.144 446.065Z" fill="#A8CFFB"/>
<path d="M260.145 446.836C260.007 446.836 259.871 446.799 259.753 446.729C259.634 446.659 259.536 446.558 259.469 446.437L249.431 428.26C249.37 428.15 249.337 428.026 249.335 427.9C249.333 427.774 249.362 427.649 249.419 427.537C249.477 427.424 249.561 427.328 249.664 427.255C249.768 427.183 249.888 427.137 250.013 427.122C261.326 425.743 267.999 420.601 275.064 415.157C280.087 411.286 285.28 407.284 292.433 404.369C292.911 404.146 301.612 400.12 311.1 398.032C316.214 396.907 321.153 398.168 325.381 401.68C328.543 404.306 330.179 407.232 330.247 407.355C330.346 407.534 330.369 407.745 330.313 407.941C330.256 408.137 330.124 408.303 329.945 408.402L260.517 446.739C260.403 446.802 260.275 446.835 260.145 446.835L260.145 446.836ZM251.326 428.502L260.446 445.017L328.489 407.445C327.845 406.468 326.447 404.56 324.357 402.834C320.463 399.617 316.114 398.508 311.431 399.538C301.895 401.637 293.159 405.732 293.071 405.773C293.059 405.779 293.046 405.785 293.033 405.79C286.065 408.627 280.951 412.567 276.005 416.378C269.003 421.773 262.375 426.88 251.326 428.502Z" fill="#3375E0"/>
<path d="M285.14 411.458C284.269 411.46 283.397 411.414 282.531 411.322C282.43 411.311 282.332 411.28 282.244 411.231C282.155 411.183 282.077 411.117 282.013 411.038C281.95 410.959 281.903 410.868 281.874 410.771C281.846 410.674 281.837 410.572 281.848 410.472C281.87 410.268 281.973 410.083 282.132 409.955C282.291 409.827 282.495 409.767 282.698 409.789C288.879 410.463 296.904 408.345 300.969 404.967C302.549 403.654 303.44 402.224 303.545 400.831C303.563 400.63 303.661 400.444 303.815 400.313C303.97 400.183 304.169 400.118 304.371 400.134C304.572 400.149 304.76 400.243 304.893 400.395C305.026 400.547 305.094 400.745 305.083 400.947C304.945 402.767 303.863 404.567 301.954 406.153C298.098 409.358 291.246 411.458 285.141 411.458H285.14Z" fill="#3375E0"/>
<path d="M73.1045 311.178L26.2716 375.18L15.9609 367.636L62.7939 303.634L73.1045 311.178Z" fill="white"/>
<path d="M26.2728 375.949C26.1101 375.949 25.9505 375.898 25.8176 375.801L15.507 368.257C15.342 368.136 15.2318 367.954 15.2005 367.752C15.1692 367.55 15.2195 367.344 15.3402 367.179L62.1736 303.177C62.2334 303.095 62.3086 303.026 62.3951 302.973C62.4816 302.921 62.5777 302.886 62.6777 302.87C62.7778 302.855 62.8799 302.859 62.9783 302.883C63.0766 302.907 63.1693 302.95 63.251 303.01L73.5616 310.554C73.7266 310.675 73.8368 310.856 73.8681 311.058C73.8994 311.26 73.8491 311.466 73.7284 311.631L26.895 375.634C26.8234 375.731 26.7298 375.811 26.6217 375.866C26.5137 375.921 26.3942 375.949 26.273 375.949L26.2728 375.949ZM17.0398 367.468L26.106 374.101L72.0288 311.343L62.9626 304.71L17.0398 367.468Z" fill="#3375E0"/>
<path d="M73.1059 311.176L26.2725 375.179C26.2725 375.179 36.9347 382.98 46.6424 375.583C54.5733 369.539 60.7952 362.079 60.7952 362.079C73.4135 348.525 73.0979 333.854 89.8641 323.438L73.1059 311.176Z" fill="#A8CFFB"/>
<path d="M37.3394 379.535C35.8038 379.535 34.2263 379.325 32.6202 378.9C28.6461 377.849 25.9311 375.884 25.8175 375.8C25.6526 375.68 25.5423 375.498 25.511 375.296C25.4798 375.094 25.53 374.888 25.6507 374.723L72.4841 310.721C72.6049 310.556 72.7863 310.446 72.9883 310.414C73.1903 310.383 73.3965 310.433 73.5615 310.554L90.3197 322.816C90.4215 322.89 90.5035 322.988 90.5584 323.102C90.6134 323.216 90.6396 323.341 90.6348 323.467C90.6301 323.593 90.5944 323.716 90.5311 323.825C90.4677 323.934 90.3785 324.026 90.2714 324.093C80.5912 330.107 76.7034 337.58 72.587 345.492C69.6604 351.118 66.6341 356.934 61.3737 362.59C61.0334 362.994 54.8367 370.309 47.1103 376.196C44.2038 378.411 40.8851 379.535 37.3399 379.535H37.3394ZM27.3737 374.98C28.3691 375.595 30.4406 376.736 33.0633 377.422C37.9506 378.701 42.3619 377.876 46.1753 374.97C53.9475 369.047 60.1416 361.659 60.2033 361.585C60.2123 361.574 60.2216 361.564 60.2311 361.553C65.3573 356.047 68.3371 350.319 71.2186 344.781C75.2984 336.939 79.1599 329.517 88.4991 323.394L73.2729 312.254L27.3737 374.98Z" fill="#3375E0"/>
<path d="M52.063 371.519C51.9061 371.519 51.7529 371.471 51.6239 371.382C51.4949 371.293 51.3962 371.166 51.341 371.019C50.6996 369.311 50.9229 367.222 51.9864 364.98C54.4483 359.789 61.087 354.258 67.4284 352.115C67.5249 352.08 67.6273 352.065 67.7296 352.07C67.832 352.076 67.9323 352.101 68.0246 352.146C68.1169 352.19 68.1994 352.253 68.2672 352.33C68.3351 352.407 68.3869 352.496 68.4197 352.593C68.4526 352.69 68.4657 352.793 68.4584 352.895C68.451 352.998 68.4234 353.097 68.3771 353.189C68.3307 353.28 68.2666 353.361 68.1885 353.428C68.1104 353.494 68.0199 353.544 67.9221 353.575C62.032 355.566 55.6444 360.866 53.3799 365.64C52.4996 367.496 52.2938 369.169 52.7849 370.477C52.8287 370.593 52.8436 370.719 52.8283 370.843C52.813 370.966 52.768 371.084 52.697 371.187C52.6261 371.289 52.5314 371.373 52.421 371.431C52.3106 371.489 52.1879 371.519 52.0632 371.519L52.063 371.519ZM237.198 434.828C227.512 399.125 212.594 353.062 198.981 311.506C185.16 269.319 173.624 229.794 167.328 198.269C164.548 184.35 168.439 170.814 182.358 168.034C196.278 165.255 209.814 174.285 212.594 188.203C218.349 217.023 229.665 254.327 244.458 293.245C255.001 320.984 271.461 358.207 283.257 380.021C285.409 383.999 291.507 385.318 293.463 394.93C299.045 394.397 301.471 398.22 300.371 401.985C283.996 423.815 254.501 441.852 237.198 434.828L237.198 434.828Z" fill="#3375E0"/>
<path d="M245.697 437.132C242.482 437.132 239.529 436.606 236.908 435.542C236.798 435.497 236.7 435.428 236.621 435.339C236.542 435.25 236.485 435.144 236.454 435.029C226.757 399.285 211.648 352.651 198.248 311.746C182.659 264.159 172.297 227.09 166.572 198.42C165.097 191.036 165.56 184.021 167.873 178.668C170.513 172.562 175.469 168.623 182.207 167.278C196.52 164.421 210.492 173.74 213.35 188.052C219.098 216.832 230.402 254.093 245.179 292.971C256.309 322.251 272.608 358.706 283.936 379.653C284.601 380.883 285.715 381.865 287.006 383.002C289.532 385.227 292.655 387.979 294.076 394.117C296.648 394.024 298.758 394.83 300.075 396.422C301.355 397.97 301.733 400.076 301.113 402.201C301.087 402.29 301.045 402.373 300.989 402.447C292.747 413.435 281.271 423.441 269.504 429.902C260.797 434.682 252.634 437.132 245.697 437.132L245.697 437.132ZM237.841 434.252C245.658 437.235 256.617 435.219 268.762 428.551C280.303 422.214 291.56 412.41 299.669 401.638C300.092 400.057 299.81 398.521 298.887 397.405C297.79 396.079 295.891 395.474 293.537 395.697C293.347 395.716 293.157 395.664 293.004 395.55C292.851 395.437 292.746 395.271 292.708 395.084C291.468 388.988 288.556 386.422 285.987 384.159C284.644 382.976 283.375 381.858 282.58 380.387C271.224 359.387 254.888 322.854 243.738 293.519C228.931 254.564 217.602 217.216 211.838 188.354C209.147 174.875 195.989 166.1 182.509 168.79C176.29 170.032 171.719 173.66 169.289 179.28C167.098 184.348 166.671 191.038 168.084 198.118C173.797 226.727 184.144 263.738 199.714 311.266C213.073 352.047 228.13 398.521 237.841 434.252Z" fill="#3375E0"/>
<path d="M191.8 225.995C198.269 277.896 205.969 337.339 164.197 369.341C149.689 380.921 137.036 385.318 118.474 385.271C98.6148 385.272 79.917 381.967 60.9219 372.704C61.5909 356.652 78.4516 327.43 91.9961 317.231C104.37 328.601 117.896 334.958 122.764 327.263C127.948 319.07 137.332 329.121 136.643 322.916C136.141 318.401 140.489 315.392 145.673 315.392C155.739 290.718 146.056 237.795 142.493 204.801C139.416 172.21 179.697 165.121 187.581 194.716" fill="#3375E0"/>
<path d="M118.762 386.042L118.472 386.042C96.6713 386.043 78.2762 382.025 60.5841 373.397C60.4493 373.331 60.3366 373.227 60.2598 373.099C60.1829 372.97 60.1453 372.821 60.1515 372.672C60.4713 365 64.4107 353.964 70.9597 342.393C77.3127 331.168 85.0034 321.532 91.5324 316.615C91.6764 316.506 91.8538 316.452 92.0338 316.461C92.2139 316.469 92.3851 316.541 92.5178 316.663C102.157 325.52 111.708 330.551 117.443 329.79C119.478 329.52 121.049 328.531 122.112 326.851C125.304 321.807 129.978 323.035 133.071 323.847C134.129 324.124 135.445 324.47 135.752 324.206C135.791 324.172 135.982 323.954 135.876 323.001C135.66 321.055 136.238 319.254 137.547 317.792C139.23 315.912 142.042 314.749 145.146 314.63C153.045 294.483 148.098 255.724 144.117 224.533C143.22 217.509 142.374 210.875 141.727 204.883C140.982 196.998 142.69 190.004 146.666 184.645C150.219 179.855 155.403 176.639 161.262 175.59C166.907 174.579 172.639 175.685 177.402 178.705C182.685 182.053 186.462 187.521 188.326 194.518C188.378 194.715 188.35 194.926 188.248 195.103C188.145 195.28 187.977 195.408 187.779 195.461C187.582 195.514 187.371 195.486 187.194 195.383C187.017 195.281 186.888 195.112 186.836 194.914C182.912 180.186 171.301 175.358 161.534 177.108C151.313 178.938 141.699 188.189 143.261 204.728C143.906 210.695 144.751 217.322 145.647 224.337C149.682 255.952 154.704 295.297 146.387 315.682C146.329 315.824 146.23 315.946 146.103 316.031C145.976 316.117 145.826 316.162 145.673 316.162C142.794 316.162 140.186 317.156 138.696 318.82C137.688 319.946 137.243 321.333 137.41 322.831C137.496 323.607 137.522 324.715 136.761 325.372C135.84 326.168 134.446 325.802 132.68 325.338C129.706 324.557 126.004 323.585 123.416 327.675C122.097 329.76 120.156 330.986 117.646 331.319C111.476 332.135 101.9 327.253 91.9539 318.236C78.471 328.791 62.6741 356.993 61.719 372.233C79.0529 380.601 97.1025 384.501 118.475 384.5L118.758 384.5C136.898 384.501 149.522 380.069 163.717 368.738C204.888 337.196 197.593 278.689 191.158 227.069L191.036 226.09C191.011 225.888 191.067 225.683 191.193 225.522C191.318 225.36 191.503 225.255 191.706 225.23C191.909 225.205 192.113 225.261 192.275 225.387C192.436 225.512 192.541 225.697 192.566 225.9L192.688 226.878C199.175 278.909 206.527 337.883 164.666 369.953C150.181 381.515 137.285 386.042 118.762 386.042H118.762Z" fill="#3375E0"/>
<path d="M185.09 119.824C192.525 121.082 197.748 123.261 199.625 125.6C201.503 127.939 210.365 175.584 212.594 188.204C207.098 197.042 162.996 205.998 141.732 198.929C141.732 198.929 131.405 125.018 142.598 119.016C148.287 115.965 161.885 117.308 161.885 117.308L185.09 119.824V119.824Z" fill="white"/>
<path d="M161.357 202.249C153.551 202.249 146.668 201.382 141.489 199.66C141.353 199.615 141.232 199.532 141.14 199.422C141.048 199.311 140.988 199.177 140.968 199.035C140.942 198.85 138.369 180.308 137.198 161.27C135.586 135.062 137.233 121.018 142.233 118.336C148.062 115.21 161.396 116.484 161.961 116.54L185.173 119.057C185.189 119.059 185.204 119.061 185.219 119.064C192.682 120.326 198.152 122.533 200.226 125.117C202.569 128.035 213.248 187.472 213.353 188.069C213.386 188.256 213.349 188.449 213.249 188.611C210.485 193.055 198.693 197.64 183.206 200.292C175.569 201.599 168.117 202.249 161.357 202.249ZM142.431 198.345C151.898 201.34 166.984 201.504 182.946 198.772C197.494 196.281 208.978 191.993 211.781 188.034C208.865 171.564 200.674 128.353 199.021 126.079C197.212 123.825 191.964 121.772 184.985 120.588L161.802 118.074C161.676 118.061 148.378 116.79 142.962 119.695C140.513 121.009 136.706 128.144 138.737 161.168C139.8 178.447 142.022 195.322 142.431 198.345H142.431Z" fill="#3375E0"/>
<path d="M161.567 114.36C154.623 114.429 142.692 114.32 134.812 118.298C128.83 121.317 131.21 148.879 132.523 164.148C133.837 179.416 129.732 211.104 129.732 211.104C129.599 218.687 143.845 221.724 151.228 222.98C151.228 222.98 165.241 186.832 167.635 170.134C169.297 158.535 156.593 130.355 161.567 114.36Z" fill="#A8CFFB"/>
<path d="M151.228 223.751C151.185 223.751 151.142 223.747 151.099 223.74C145.336 222.76 140.844 221.578 137.365 220.126C131.725 217.773 128.897 214.732 128.962 211.09C128.962 211.061 128.964 211.033 128.968 211.004C129.009 210.688 133.046 179.224 131.755 164.214L131.749 164.149C129.865 142.245 128.523 120.609 134.464 117.609C142.106 113.752 153.154 113.66 160.465 113.599L161.559 113.589C161.811 113.596 162.038 113.702 162.185 113.9C162.333 114.098 162.376 114.354 162.303 114.589C159.454 123.753 162.575 137.183 165.329 149.033C167.356 157.757 169.108 165.291 168.398 170.243C166.019 186.837 152.087 222.897 151.947 223.259C151.89 223.404 151.792 223.528 151.663 223.616C151.535 223.704 151.383 223.751 151.228 223.751L151.228 223.751ZM130.503 211.158C130.472 214.55 133.994 219.168 150.735 222.112C152.55 217.368 164.684 185.285 166.871 170.024C167.54 165.358 165.737 157.598 163.827 149.382C161.126 137.759 158.077 124.638 160.543 115.14L160.479 115.141C153.311 115.201 142.479 115.291 135.16 118.986C133.576 119.785 131.69 123.488 131.703 136.59C131.712 145.716 132.622 156.294 133.286 164.017L133.291 164.081C134.574 178.994 130.678 209.793 130.503 211.157L130.503 211.158ZM55.0061 183.402C60.8137 197.851 93.5629 182.921 88.6656 170.688C83.7683 158.454 49.4643 169.615 55.0061 183.402Z" fill="#3375E0"/>
<path d="M65.4107 190.105C60.4361 190.105 56.1327 188.272 54.2903 183.69C53.0106 180.506 53.6035 177.206 56.005 174.147C60.8447 167.981 72.5583 163.644 81.0717 164.864C85.3003 165.47 88.1733 167.385 89.3808 170.401C90.6548 173.583 89.7442 177.08 86.7477 180.515C84.19 183.446 80.1742 186.15 75.7306 187.932C72.3461 189.289 68.7284 190.105 65.4105 190.105H65.4107ZM78.0958 166.203C70.5205 166.203 61.1868 170.043 57.2183 175.099C55.1474 177.737 54.6436 180.434 55.7213 183.115C58.3949 189.766 67.4092 189.609 75.1569 186.501C83.0969 183.316 90.2788 176.792 87.9495 170.974C86.6976 167.847 83.3994 166.755 80.8533 166.39C79.9715 166.264 79.0473 166.203 78.0958 166.203Z" fill="#3375E0"/>
<path d="M141.29 152.529C137.742 158.779 135.516 166.413 133.342 173.872C128.177 193.583 119.881 212.139 97.3388 212.213C79.622 212.346 71.453 198.057 65.7158 182.943C61.7767 173.412 57.7036 163.556 49.2869 155.451C44.1748 150.529 44.0213 142.394 48.944 137.282C53.867 132.17 62.0021 132.017 67.114 136.939C79.403 148.773 84.9839 162.277 89.4679 173.128C91.6852 178.494 93.7798 183.562 95.7759 185.831C96.3527 186.487 97.4557 186.953 98.7585 186.39C107.906 182.434 109.091 143.614 129.382 126.365" fill="white"/>
<path d="M97.088 212.984C78.7706 212.984 70.5867 197.947 64.995 183.216C61.0934 173.777 57.0519 163.998 48.7521 156.007C43.3419 150.797 43.1789 142.157 48.3887 136.747C53.5988 131.338 62.2388 131.175 67.6488 136.384C80.0543 148.329 85.6692 161.916 90.1804 172.834C92.3724 178.139 94.4429 183.149 96.3548 185.322C96.7452 185.766 97.501 186.094 98.4525 185.682C101.982 184.156 104.479 176.119 107.37 166.812C111.648 153.041 116.971 135.904 128.883 125.778C129.039 125.645 129.241 125.58 129.445 125.597C129.648 125.613 129.837 125.71 129.97 125.866C130.102 126.021 130.167 126.223 130.151 126.427C130.134 126.631 130.038 126.82 129.882 126.952C118.311 136.788 113.061 153.69 108.843 167.269C105.715 177.338 103.245 185.29 99.0649 187.098C97.3527 187.838 95.9112 187.153 95.1972 186.341C93.116 183.975 90.998 178.849 88.7556 173.423C84.2988 162.638 78.7526 149.217 66.5792 137.495C61.7816 132.875 54.1195 133.02 49.4995 137.817C44.8793 142.615 45.024 150.276 49.8218 154.896C58.3539 163.112 62.4581 173.042 66.4273 182.646C71.8409 196.907 79.7115 211.443 97.0968 211.443C97.1757 211.443 97.2535 211.443 97.3327 211.442C119.705 211.369 127.713 192.311 132.596 173.676C134.778 166.192 137.027 158.477 140.62 152.149C140.669 152.059 140.736 151.981 140.816 151.918C140.896 151.855 140.987 151.808 141.085 151.78C141.183 151.753 141.286 151.745 141.387 151.757C141.488 151.77 141.586 151.802 141.675 151.852C141.763 151.903 141.841 151.97 141.903 152.05C141.966 152.131 142.012 152.223 142.038 152.322C142.065 152.42 142.072 152.523 142.058 152.624C142.045 152.725 142.012 152.822 141.96 152.91C138.456 159.081 136.233 166.709 134.083 174.086C129.056 193.268 120.755 212.908 97.3407 212.984C97.2571 212.984 97.1705 212.985 97.0875 212.985L97.088 212.984Z" fill="#3375E0"/>
<path d="M145.091 159.145C141.195 165.779 138.821 173.034 136.497 180.138C130.432 201.459 119.379 219.394 95.3648 219.644C74.146 219.052 62.9548 204.282 55.0059 183.402C60.3588 192.417 83.6635 188.864 88.6654 170.688C92.1792 179.989 94.2558 182.662 95.2262 183.284C95.9471 183.746 97.0831 183.95 97.7889 182.67C100.052 178.566 100.49 174.15 102.3 168.951C104.873 159.122 117.771 126.151 134.812 118.298" fill="#A8CFFB"/>
<path d="M95.3647 220.415H95.3431C85.0762 220.129 76.6775 216.617 69.6668 209.68C63.7479 203.823 58.7168 195.317 54.2852 183.677C54.2162 183.497 54.2175 183.297 54.2888 183.117C54.3601 182.938 54.4962 182.792 54.6702 182.708C54.8442 182.624 55.0434 182.608 55.2283 182.664C55.4133 182.72 55.5705 182.843 55.6689 183.009C57.6715 186.382 62.5631 187.988 68.4337 187.198C75.5659 186.239 84.9495 181.286 87.9221 170.483C87.9652 170.326 88.0569 170.187 88.184 170.086C88.3111 169.984 88.4671 169.925 88.6296 169.918C88.7923 169.91 88.9533 169.954 89.0893 170.043C89.2254 170.133 89.3296 170.263 89.3867 170.415C93.184 180.468 95.135 182.31 95.6423 182.636C95.9469 182.831 96.2751 182.909 96.5208 182.848C96.7441 182.791 96.9435 182.606 97.1134 182.298C98.4714 179.835 99.1708 177.176 99.9112 174.362C100.383 172.57 100.87 170.717 101.561 168.726C104.437 157.772 117.547 125.405 134.489 117.598C134.581 117.555 134.681 117.53 134.782 117.525C134.884 117.52 134.986 117.536 135.082 117.571C135.177 117.605 135.265 117.659 135.34 117.728C135.415 117.797 135.476 117.88 135.518 117.972C135.561 118.065 135.585 118.165 135.589 118.267C135.592 118.369 135.576 118.47 135.54 118.566C135.504 118.661 135.45 118.748 135.38 118.823C135.311 118.897 135.227 118.957 135.134 118.998C126.142 123.142 118.574 134.474 113.807 143.252C107.724 154.455 104.108 165.089 103.045 169.146C103.04 169.166 103.034 169.185 103.028 169.205C102.35 171.15 101.869 172.982 101.402 174.754C100.637 177.664 99.914 180.413 98.4635 183.043C97.9849 183.91 97.3491 184.228 96.8996 184.342C96.238 184.51 95.4763 184.361 94.8096 183.934C93.2747 182.95 91.185 179.184 88.7306 172.995C84.987 183.069 75.7589 187.769 68.6385 188.726C64.0486 189.343 59.9668 188.581 57.1472 186.699C66.1936 208.424 78.0884 218.387 95.3712 218.874C115.426 218.659 128.258 206.283 135.755 179.928C135.758 179.918 135.761 179.909 135.764 179.899C138.087 172.8 140.488 165.46 144.426 158.755C144.477 158.668 144.545 158.591 144.625 158.53C144.706 158.468 144.798 158.424 144.896 158.398C144.995 158.372 145.097 158.366 145.197 158.38C145.298 158.394 145.395 158.428 145.482 158.479C145.569 158.53 145.646 158.598 145.707 158.679C145.768 158.76 145.813 158.853 145.838 158.951C145.863 159.049 145.869 159.151 145.855 159.252C145.841 159.352 145.807 159.449 145.755 159.536C141.904 166.094 139.53 173.348 137.234 180.364C133.739 192.647 129.159 201.788 123.232 208.312C116.043 216.226 106.669 220.298 95.3724 220.416H95.3645L95.3647 220.415Z" fill="#3375E0"/>
<path d="M47.5017 153.317C38.2793 138.421 47.5804 128.324 53.0251 126.295C56.8419 124.873 62.2814 125.929 65.3892 127.735C68.5478 129.572 67.8606 134.182 63.4822 134.221C61.2416 134.241 60.0568 134.346 57.5142 135.905C55.8547 136.922 55.6198 138.64 55.0999 141.459" fill="white"/>
<path d="M47.5027 154.088C47.3712 154.088 47.2419 154.054 47.127 153.99C47.0121 153.927 46.9154 153.834 46.8463 153.722C41.8776 145.697 42.4206 139.38 43.7511 135.494C45.5314 130.295 49.5564 126.765 52.7562 125.572C56.8909 124.031 62.5507 125.194 65.7772 127.069C67.5904 128.123 68.4778 130.08 67.9857 131.938C67.5991 133.398 66.2146 134.968 63.4893 134.992C61.3705 135.011 60.3322 135.082 57.9174 136.562C56.6881 137.316 56.4219 138.52 55.9364 141.173L55.8582 141.599C55.8399 141.698 55.8021 141.793 55.747 141.878C55.6919 141.963 55.6206 142.037 55.5372 142.094C55.4538 142.152 55.3599 142.192 55.2608 142.213C55.1618 142.234 55.0596 142.236 54.96 142.217C54.8604 142.199 54.7654 142.161 54.6805 142.106C54.5955 142.051 54.5222 141.98 54.4648 141.896C54.4074 141.813 54.3669 141.719 54.3458 141.62C54.3247 141.521 54.3233 141.419 54.3416 141.319L54.4193 140.896C54.8976 138.282 55.2432 136.393 57.1112 135.248C59.864 133.56 61.1865 133.471 63.4752 133.45C65.0535 133.436 66.1822 132.723 66.4948 131.543C66.7543 130.563 66.3935 129.211 65.0018 128.402C62.04 126.68 56.8513 125.692 53.2943 127.017C50.5279 128.048 46.818 131.297 45.2099 135.993C43.4564 141.114 44.4756 146.964 48.1573 152.911C48.2296 153.028 48.2694 153.162 48.2727 153.299C48.2759 153.436 48.2424 153.572 48.1756 153.692C48.1089 153.812 48.0113 153.912 47.8929 153.981C47.7746 154.051 47.6397 154.088 47.5024 154.088L47.5027 154.088Z" fill="#3375E0"/>
<path d="M50.1157 140.074C50.6868 136.063 53.3818 131.84 58.8015 130.96C63.5595 130.187 66.621 131.557 69.7606 132.496C73.2048 133.527 71.0914 138.628 67.5295 139.098C62.8874 139.71 63.3364 139.157 61.6402 140.045C59.9439 140.934 57.7152 144.568 57.7152 144.568" fill="white"/>
<path d="M57.7147 145.338C57.5777 145.338 57.4432 145.302 57.325 145.232C57.2069 145.163 57.1093 145.063 57.0425 144.944C56.9756 144.824 56.9418 144.689 56.9445 144.552C56.9472 144.415 56.9864 144.281 57.0581 144.164C57.2976 143.774 59.451 140.321 61.2827 139.362C62.4025 138.776 62.7492 138.734 63.8978 138.67C64.5763 138.632 65.6017 138.575 67.4288 138.333C69.2351 138.095 70.6201 136.355 70.7329 134.943C70.8031 134.067 70.4014 133.493 69.5394 133.235C69.0777 133.095 68.6174 132.951 68.1585 132.802C65.529 131.96 62.8107 131.089 58.9252 131.72C53.7617 132.559 51.3831 136.642 50.8791 140.182C50.8494 140.384 50.7411 140.566 50.5778 140.688C50.4144 140.81 50.2094 140.862 50.0075 140.834C49.8057 140.805 49.6234 140.697 49.5006 140.534C49.3779 140.372 49.3246 140.167 49.3525 139.965C49.9338 135.881 52.6889 131.171 58.6782 130.198C62.9284 129.507 65.9572 130.478 68.6293 131.334C69.0821 131.479 69.5311 131.623 69.9819 131.757C71.5432 132.225 72.3986 133.462 72.2703 135.066C72.1076 137.1 70.2875 139.512 67.6306 139.862C65.7462 140.111 64.686 140.17 63.9844 140.21C62.9957 140.265 62.8687 140.273 61.9982 140.728C60.7636 141.375 58.9625 144.01 58.3726 144.971C58.3036 145.084 58.2069 145.177 58.0917 145.241C57.9765 145.305 57.8467 145.339 57.7147 145.339V145.338Z" fill="#3375E0"/>
<path d="M55.9849 145.294C57.1586 142.421 59.2455 139.404 63.7452 138.394C67.9396 137.452 70.7633 138.519 72.9605 139.194C77.4062 140.559 74.8518 145.928 70.3518 146.059C65.9807 146.185 63.3538 148.095 61.7233 152.529" fill="white"/>
<path d="M61.7239 153.3C61.5997 153.3 61.4773 153.271 61.3672 153.213C61.2571 153.156 61.1625 153.072 61.0914 152.971C61.0204 152.869 60.975 152.751 60.9591 152.628C60.9432 152.505 60.9573 152.38 61.0002 152.263C62.7234 147.576 65.6009 145.425 70.33 145.288C72.5694 145.223 74.2872 143.601 74.4866 142.128C74.6257 141.101 74.0034 140.321 72.7346 139.931C72.5699 139.88 72.4018 139.828 72.2298 139.774C70.165 139.126 67.595 138.32 63.9146 139.146C60.471 139.919 58.1782 141.965 56.6989 145.586C56.6185 145.771 56.469 145.917 56.2823 145.993C56.0955 146.069 55.8865 146.069 55.6998 145.993C55.5132 145.916 55.3638 145.77 55.2837 145.585C55.2036 145.4 55.1991 145.191 55.2712 145.003C56.9351 140.931 59.6519 138.523 63.5767 137.642C67.6615 136.725 70.5685 137.637 72.6912 138.302C72.86 138.356 73.0253 138.407 73.1872 138.457C75.2024 139.076 76.2595 140.525 76.0145 142.334C75.7254 144.472 73.5365 146.738 70.3745 146.83C66.258 146.949 63.9614 148.677 62.4474 152.795C62.393 152.944 62.2944 153.072 62.165 153.162C62.0355 153.252 61.8815 153.301 61.7236 153.301L61.7239 153.3Z" fill="#3375E0"/>
<path d="M208.737 149.752C209.153 156.283 215.941 165.675 221.398 175.997C226.701 186.031 229.132 201.057 228.204 208.116C223.988 184.558 207.092 170.371 200.966 162.176C196.231 155.843 195.799 129.37 185.8 117.013C192.838 118.997 201.837 121.309 206.214 123.89" fill="#A8CFFB"/>
<path d="M228.203 208.887C228.022 208.887 227.847 208.823 227.708 208.707C227.57 208.591 227.476 208.43 227.444 208.252C224.138 189.775 212.837 177.011 205.359 168.565C203.36 166.307 201.633 164.357 200.348 162.638C198.332 159.941 197.095 153.965 195.663 147.046C193.603 137.097 191.04 124.715 185.2 117.498C185.097 117.371 185.037 117.214 185.029 117.05C185.021 116.887 185.065 116.725 185.156 116.589C185.246 116.452 185.377 116.347 185.53 116.29C185.684 116.233 185.851 116.226 186.009 116.271C186.871 116.514 187.763 116.762 188.672 117.015C195.237 118.84 202.678 120.91 206.605 123.226C206.693 123.277 206.77 123.345 206.832 123.426C206.893 123.507 206.938 123.599 206.964 123.697C206.989 123.796 206.995 123.898 206.981 123.999C206.967 124.1 206.934 124.196 206.882 124.284C206.83 124.372 206.762 124.448 206.68 124.509C206.599 124.57 206.507 124.614 206.408 124.639C206.309 124.665 206.207 124.67 206.106 124.655C206.006 124.641 205.909 124.606 205.822 124.554C202.069 122.341 194.732 120.301 188.259 118.5L187.748 118.358C192.874 125.969 195.242 137.404 197.173 146.733C198.568 153.472 199.772 159.292 201.583 161.715C202.83 163.382 204.537 165.31 206.514 167.543C213.256 175.158 223.06 186.231 227.539 201.854C227.047 194.171 224.644 183.788 220.716 176.357C219.172 173.437 217.524 170.597 215.931 167.851C211.824 160.771 208.276 154.656 207.967 149.8C207.961 149.6 208.033 149.405 208.167 149.257C208.302 149.108 208.489 149.018 208.689 149.005C208.89 148.993 209.087 149.058 209.239 149.188C209.392 149.319 209.488 149.503 209.507 149.703C209.792 154.196 213.255 160.165 217.265 167.077C218.866 169.836 220.521 172.689 222.079 175.637C227.352 185.611 229.941 200.812 228.968 208.216C228.944 208.399 228.855 208.567 228.719 208.69C228.582 208.813 228.405 208.882 228.221 208.887H228.203L228.203 208.887Z" fill="#3375E0"/>
<path d="M185.28 115.3C188.661 116.021 197.573 119.727 202.896 126.234C202.896 126.234 199.916 129.023 198.132 131.606C198.132 131.606 207.794 136.063 208.166 138.294C208.538 140.526 199.505 151.411 200.966 162.177C192.208 150.055 195.503 137.703 184.746 119.592L185.28 115.3V115.3Z" fill="#A8CFFB"/>
<path d="M200.966 162.947C200.844 162.947 200.724 162.919 200.615 162.863C200.506 162.807 200.412 162.727 200.341 162.628C195.976 156.587 194.516 150.374 192.97 143.797C191.357 136.934 189.529 129.155 184.083 119.985C183.996 119.838 183.96 119.666 183.981 119.497L184.515 115.205C184.528 115.099 184.563 114.997 184.618 114.905C184.672 114.813 184.746 114.734 184.833 114.672C184.92 114.61 185.019 114.567 185.123 114.545C185.228 114.523 185.336 114.524 185.441 114.546C188.954 115.295 197.99 119.019 203.493 125.746C203.617 125.898 203.678 126.09 203.665 126.285C203.652 126.481 203.566 126.663 203.423 126.797C203.396 126.822 201.028 129.048 199.305 131.304C202.272 132.721 208.559 135.966 208.926 138.167C209.081 139.091 208.407 140.427 206.992 143.121C204.513 147.84 200.767 154.972 201.73 162.073C201.745 162.182 201.736 162.293 201.705 162.398C201.673 162.503 201.619 162.601 201.547 162.683C201.475 162.766 201.385 162.833 201.285 162.878C201.185 162.924 201.077 162.947 200.967 162.947H200.966ZM185.544 119.425C191.006 128.699 192.846 136.529 194.472 143.444C195.834 149.24 197.035 154.352 200.041 159.374C200.178 152.777 203.521 146.412 205.627 142.403C206.49 140.76 207.469 138.896 207.405 138.42C207.223 137.327 202.296 134.376 197.809 132.305C197.707 132.258 197.617 132.189 197.544 132.103C197.472 132.018 197.419 131.917 197.389 131.809C197.359 131.7 197.354 131.587 197.372 131.476C197.391 131.365 197.434 131.26 197.498 131.167C198.87 129.18 200.89 127.114 201.841 126.18C197.012 120.634 189.517 117.27 185.937 116.259L185.543 119.425L185.544 119.425Z" fill="#3375E0"/>
<path d="M162.389 112.062C155.764 112.062 150.826 115.3 146.413 123.211L156.099 130.723C156.099 130.723 147.033 139.3 146.413 141.16C145.793 143.02 166.907 163.583 167.635 170.133C169.106 154.117 157.821 132.804 162.389 112.062Z" fill="#A8CFFB"/>
<path d="M167.634 170.904C167.445 170.904 167.262 170.834 167.12 170.708C166.979 170.581 166.889 170.407 166.868 170.218C166.459 166.539 158.609 157.467 152.878 150.844C146.731 143.74 145.33 141.973 145.682 140.916C146.264 139.171 152.53 133.065 154.918 130.782L145.941 123.82C145.795 123.707 145.695 123.546 145.658 123.365C145.621 123.185 145.65 122.997 145.74 122.836C150.193 114.851 155.328 111.291 162.388 111.291C162.504 111.291 162.618 111.316 162.722 111.366C162.826 111.416 162.917 111.489 162.99 111.579C163.062 111.668 163.113 111.773 163.139 111.886C163.166 111.998 163.166 112.115 163.141 112.228C160.55 123.996 163.092 135.766 165.551 147.147C167.345 155.446 169.038 163.284 168.402 170.204C168.385 170.394 168.297 170.571 168.157 170.701C168.016 170.83 167.833 170.903 167.642 170.905H167.634L167.634 170.904ZM147.191 141.293C147.54 142.319 150.99 146.306 154.044 149.835C158.781 155.309 164.404 161.806 166.991 166.419C166.887 160.629 165.499 154.205 164.045 147.473C161.73 136.758 159.114 124.652 161.435 112.856C155.579 113.153 151.32 116.246 147.413 123.011L156.571 130.113C156.659 130.182 156.731 130.268 156.783 130.367C156.834 130.465 156.863 130.574 156.869 130.685C156.874 130.796 156.856 130.907 156.814 131.01C156.773 131.113 156.709 131.206 156.629 131.283C153.03 134.688 147.84 139.934 147.191 141.293Z" fill="#3375E0"/>
<path d="M289.347 247.97C292.928 250.46 295.28 255.435 294.093 258.462C292.905 261.488 287.524 265.275 284.159 263.882C280.793 262.489 279.155 259.848 276.794 255.786C274.664 252.121 281.971 250.835 284.407 253.618C286.843 256.401 287.461 257.144 287.461 257.144L286 255.444" fill="white"/>
<path d="M285.755 264.951C285.074 264.951 284.439 264.833 283.863 264.594C280.302 263.12 278.604 260.434 276.127 256.174C275.275 254.708 275.547 253.271 276.857 252.331C278.872 250.883 283.104 250.96 284.987 253.11C287.401 255.869 288.028 256.621 288.053 256.652C288.183 256.808 288.245 257.009 288.227 257.212C288.208 257.414 288.111 257.6 287.956 257.731C287.801 257.862 287.601 257.927 287.399 257.911C287.197 257.895 287.009 257.801 286.876 257.647L285.414 255.947L285.412 255.945C284.998 255.468 284.477 254.87 283.826 254.126C282.519 252.633 279.192 252.552 277.756 253.583C277.096 254.057 277.005 254.616 277.46 255.398C279.843 259.5 281.344 261.883 284.452 263.169C285.434 263.575 286.785 263.455 288.256 262.829C290.51 261.87 292.71 259.871 293.375 258.179C294.4 255.567 292.228 250.913 288.906 248.602C288.738 248.486 288.623 248.307 288.587 248.106C288.551 247.905 288.596 247.697 288.713 247.529C288.83 247.361 289.009 247.247 289.21 247.211C289.411 247.174 289.619 247.22 289.786 247.337C293.762 250.101 296.11 255.431 294.81 258.743C293.998 260.811 291.496 263.126 288.86 264.247C287.76 264.715 286.712 264.951 285.754 264.951L285.755 264.951Z" fill="#3375E0"/>
<path d="M297.439 247.027C299.66 249.073 301.095 251.795 300.737 253.979C300.211 257.186 296.603 261.655 293.02 261C289.437 260.344 287.003 258.297 283.262 254.993C280.085 252.188 287.285 249.067 290.251 251.276C293.217 253.486 293.977 254.083 293.977 254.083L292.191 252.727" fill="white"/>
<path d="M293.735 261.835C293.448 261.835 293.163 261.809 292.881 261.758C289.132 261.072 286.59 258.961 282.752 255.572C281.509 254.474 281.349 253.101 282.324 251.9C283.944 249.905 288.386 248.926 290.711 250.658C293.651 252.848 294.422 253.452 294.453 253.476C294.611 253.603 294.713 253.786 294.737 253.987C294.761 254.188 294.706 254.39 294.582 254.55C294.458 254.71 294.277 254.815 294.076 254.843C293.876 254.87 293.673 254.818 293.511 254.697L291.731 253.346C291.085 252.861 290.438 252.377 289.79 251.894C288.175 250.691 284.675 251.45 283.521 252.872C283.212 253.252 283 253.734 283.772 254.416C287.521 257.725 289.805 259.627 293.159 260.241C294.429 260.473 295.607 259.879 296.373 259.339C298.144 258.092 299.66 255.785 299.976 253.854C300.274 252.038 299.073 249.58 296.916 247.594C296.767 247.455 296.679 247.262 296.671 247.059C296.664 246.855 296.737 246.657 296.875 246.507C297.013 246.357 297.204 246.268 297.408 246.259C297.611 246.25 297.81 246.322 297.961 246.459C300.528 248.824 301.883 251.753 301.498 254.103C301.115 256.441 299.372 259.113 297.261 260.6C296.102 261.416 294.899 261.835 293.735 261.835Z" fill="#3375E0"/>
<path d="M297.879 239.572C302.11 240.632 306.072 244.452 306.033 247.702C305.994 250.953 303.098 255.912 299.457 255.801C295.816 255.691 293.103 254.032 288.908 251.327C285.345 249.03 291.996 244.864 295.26 246.603C298.523 248.343 299.365 248.82 299.365 248.82L296.941 246.593" fill="white"/>
<path d="M299.576 256.574C299.528 256.574 299.481 256.574 299.434 256.572C295.624 256.457 292.794 254.75 288.49 251.976C287.097 251.077 286.733 249.744 287.517 248.41C288.818 246.194 293.064 244.56 295.623 245.923L296.248 246.257C296.3 246.148 296.377 246.054 296.473 245.981C296.568 245.908 296.679 245.858 296.797 245.835C296.916 245.813 297.037 245.818 297.153 245.851C297.269 245.884 297.375 245.944 297.464 246.025L299.887 248.252C300.026 248.38 300.114 248.555 300.132 248.743C300.151 248.932 300.1 249.12 299.989 249.273C299.877 249.426 299.713 249.533 299.529 249.573C299.344 249.613 299.15 249.584 298.986 249.491C298.977 249.486 298.105 248.994 294.898 247.284C293.121 246.337 289.774 247.612 288.847 249.191C288.598 249.614 288.461 250.121 289.327 250.68C293.529 253.389 296.073 254.928 299.481 255.031C300.772 255.067 301.847 254.306 302.523 253.657C304.087 252.158 305.24 249.65 305.263 247.693C305.296 244.887 301.617 241.304 297.692 240.32C297.497 240.267 297.33 240.14 297.227 239.966C297.125 239.792 297.095 239.584 297.144 239.388C297.194 239.192 297.318 239.023 297.49 238.917C297.663 238.812 297.87 238.778 298.067 238.824C302.764 240.001 306.847 244.154 306.805 247.712C306.777 250.081 305.455 252.983 303.59 254.771C302.357 255.953 300.972 256.575 299.576 256.575L299.576 256.574Z" fill="#3375E0"/>
<path d="M290.149 229.649C299.758 234.038 300.102 244.32 300.645 248.118C301.201 252.009 294.403 252.799 292.143 247.195C290.963 244.269 289.424 243.006 289.424 243.006C284.615 244.279 280.859 241.445 280.859 238.572" fill="white"/>
<path d="M297.5 251.987C295.256 251.987 292.675 250.573 291.429 247.484C290.63 245.503 289.655 244.334 289.195 243.855C286.604 244.428 284.09 243.954 282.242 242.532C280.873 241.478 280.088 240.035 280.088 238.572C280.088 238.368 280.17 238.172 280.314 238.027C280.459 237.883 280.655 237.801 280.859 237.801C281.064 237.801 281.26 237.883 281.405 238.027C281.549 238.172 281.63 238.368 281.63 238.572C281.63 239.553 282.196 240.551 283.183 241.31C284.75 242.516 286.953 242.863 289.227 242.261C289.345 242.229 289.469 242.226 289.589 242.252C289.708 242.278 289.819 242.332 289.914 242.41C289.983 242.467 291.62 243.834 292.859 246.907C294.02 249.785 296.571 250.82 298.381 250.333C298.903 250.193 300.093 249.707 299.882 248.228C299.828 247.835 299.778 247.442 299.733 247.049C299.193 242.547 298.188 234.168 289.829 230.35C289.643 230.265 289.498 230.11 289.427 229.918C289.355 229.726 289.363 229.514 289.448 229.328C289.533 229.142 289.688 228.998 289.88 228.926C290.072 228.855 290.284 228.862 290.47 228.947C299.616 233.125 300.729 242.405 301.264 246.865C301.315 247.291 301.361 247.676 301.409 248.009C301.668 249.827 300.637 251.324 298.781 251.822C298.364 251.933 297.933 251.988 297.501 251.987L297.5 251.987Z" fill="#3375E0"/>
<path d="M196.173 305.027C196.066 305.027 195.96 305.004 195.861 304.961C195.763 304.918 195.675 304.855 195.603 304.775C195.53 304.696 195.475 304.602 195.441 304.501C195.407 304.399 195.395 304.291 195.405 304.184C197.691 279.473 194.369 252.832 191.157 227.068L191.035 226.091C191.01 225.888 191.066 225.683 191.192 225.522C191.318 225.36 191.502 225.255 191.705 225.23C191.908 225.205 192.113 225.261 192.274 225.387C192.435 225.512 192.54 225.697 192.566 225.9L192.687 226.877C195.91 252.723 199.242 279.449 196.94 304.326C196.922 304.518 196.834 304.695 196.692 304.825C196.55 304.954 196.365 305.026 196.173 305.027ZM184.506 121.522C179.758 126.4 165.729 125.54 161.567 118.67L163.726 101.303L186.665 104.155L184.506 121.522Z" fill="white"/>
<path d="M174.993 125.382C174.154 125.382 173.298 125.334 172.435 125.236C167.194 124.638 162.885 122.333 160.907 119.07C160.817 118.921 160.78 118.747 160.802 118.575L162.961 101.208C162.974 101.107 163.006 101.01 163.056 100.922C163.106 100.834 163.172 100.757 163.252 100.695C163.332 100.632 163.424 100.587 163.521 100.56C163.619 100.533 163.721 100.525 163.821 100.538L186.76 103.39C186.963 103.415 187.148 103.52 187.273 103.681C187.399 103.843 187.455 104.047 187.43 104.25L185.271 121.617C185.25 121.784 185.175 121.939 185.058 122.06C183.009 124.165 179.22 125.382 174.993 125.382ZM162.366 118.492C164.161 121.233 167.964 123.174 172.61 123.704C177.235 124.231 181.575 123.236 183.774 121.161L185.805 104.825L164.396 102.163L162.366 118.492V118.492ZM181.235 49.3262C183.449 26.6437 161.417 28.1353 152.925 39.2656C145.665 48.7814 145.696 57.8544 136.286 54.8709C136.286 54.8709 137.548 61.4115 144.319 60.8376C137.663 67.7223 129.286 71.0499 119.074 67.7223C119.074 67.7223 122.057 78.3591 131.811 79.3115C131.811 79.3115 129.401 82.5507 123.893 82.0655C127.565 87.1152 145.81 92.2328 159.007 83.213C169.912 75.7596 180.226 59.6637 181.235 49.3262Z" fill="#3375E0"/>
<path d="M142.015 88.9268C140.389 88.9268 138.953 88.8184 137.789 88.6814C131.327 87.9227 125.356 85.3887 123.27 82.5191C123.183 82.3994 123.132 82.2572 123.124 82.1095C123.115 81.9618 123.15 81.8148 123.222 81.6859C123.296 81.5574 123.404 81.4525 123.535 81.3836C123.666 81.3148 123.814 81.285 123.961 81.2976C127.02 81.5672 129.019 80.6227 130.126 79.8284C121.232 77.9076 118.361 68.0358 118.332 67.9305C118.294 67.7961 118.293 67.6539 118.33 67.5192C118.367 67.3845 118.439 67.2622 118.54 67.1656C118.641 67.0689 118.766 67.0014 118.902 66.9703C119.038 66.9393 119.18 66.9457 119.313 66.9891C127.839 69.7672 135.617 67.9497 142.454 61.5881C136.745 60.9489 135.542 55.0819 135.529 55.0167C135.504 54.8854 135.513 54.7498 135.556 54.6233C135.599 54.4967 135.674 54.3834 135.774 54.2945C135.874 54.2057 135.995 54.1443 136.126 54.1164C136.256 54.0885 136.392 54.0951 136.519 54.1354C142.426 56.0084 144.097 52.8846 147.131 47.2142C148.496 44.6633 150.043 41.7718 152.312 38.7974C157.39 32.1412 167.086 28.9125 173.927 31.6009C177.456 32.988 183.198 37.1451 182.002 49.4005C181.505 54.4944 178.762 61.1902 174.478 67.7711C170.153 74.4135 164.673 80.2735 159.442 83.8491C153.438 87.953 146.88 88.926 142.015 88.926L142.015 88.9268ZM125.772 82.8638C128.075 84.6787 132.482 86.5056 137.968 87.1499C142.403 87.6704 150.976 87.7688 158.572 82.5769C169.027 75.4312 179.463 59.5472 180.468 49.2515C181.281 40.9158 178.758 35.1573 173.363 33.0368C167.12 30.5835 158.227 33.5875 153.538 39.7336C151.344 42.6096 149.828 45.4428 148.491 47.9426C145.727 53.1085 143.504 57.2636 137.448 55.9778C138.159 57.6717 139.984 60.4308 144.254 60.0697C144.41 60.0565 144.567 60.0913 144.703 60.1695C144.839 60.2476 144.948 60.3655 145.015 60.5072C145.083 60.6489 145.105 60.8078 145.08 60.9626C145.054 61.1175 144.982 61.2609 144.873 61.3737C137.672 68.8233 129.419 71.3503 120.325 68.8996C121.5 71.7068 124.854 77.858 131.886 78.5447C132.022 78.5581 132.152 78.6073 132.262 78.6873C132.373 78.7673 132.46 78.8751 132.516 78.9999C132.571 79.1247 132.592 79.2619 132.577 79.3976C132.562 79.5332 132.511 79.6625 132.43 79.7721C132.334 79.9011 130.28 82.5854 125.772 82.8638Z" fill="#3375E0"/>
<path d="M170.384 113.461C172.117 113.949 173.888 114.288 175.679 114.472C186.876 115.605 194.222 110.672 197.556 105.619C200.43 101.262 201.673 97.3099 202.407 90.2968C203.963 75.437 201.734 61.8383 181.412 59.7111C161.089 57.5837 156.093 70.4258 154.537 85.2856C153.826 92.0762 154.257 97.8306 156.152 102.155C157.623 105.509 160.075 107.881 162.68 109.713L162.593 110.419" fill="white"/>
<path d="M178.948 115.412C177.882 115.412 176.768 115.358 175.601 115.239C173.814 115.058 171.938 114.7 170.176 114.203C170.078 114.175 169.987 114.129 169.908 114.066C169.828 114.004 169.762 113.926 169.712 113.838C169.663 113.749 169.631 113.652 169.619 113.551C169.607 113.451 169.615 113.349 169.643 113.251C169.67 113.154 169.717 113.063 169.78 112.983C169.842 112.904 169.92 112.838 170.008 112.788C170.097 112.739 170.194 112.707 170.294 112.695C170.395 112.683 170.497 112.691 170.594 112.719C172.272 113.192 174.057 113.533 175.757 113.705C189.274 115.073 195.367 107.537 196.912 105.194C199.721 100.938 200.914 97.1584 201.64 90.2166C202.559 81.4407 201.857 75.2034 199.431 70.588C196.357 64.738 190.436 61.431 181.332 60.4781C160.917 58.3398 156.718 71.8599 155.304 85.3661C154.579 92.2929 155.102 97.8371 156.859 101.845C158.067 104.601 160.116 106.968 163.124 109.082C163.239 109.162 163.329 109.272 163.386 109.4C163.442 109.528 163.463 109.669 163.446 109.808L163.358 110.514C163.331 110.716 163.226 110.899 163.065 111.023C162.904 111.148 162.701 111.203 162.499 111.178C162.297 111.153 162.113 111.049 161.987 110.889C161.862 110.729 161.804 110.526 161.828 110.324L161.859 110.073C158.819 107.859 156.719 105.367 155.447 102.465C153.581 98.2082 153.017 92.4016 153.77 85.2055C154.722 76.1127 156.811 69.8941 160.344 65.6362C164.918 60.1226 171.836 57.9338 181.492 58.9446C191.149 59.9556 197.463 63.5294 200.796 69.871C203.371 74.7686 204.126 81.2847 203.174 90.3775C202.428 97.5092 201.126 101.609 198.2 106.044C196.669 108.364 191.011 115.413 178.948 115.413L178.948 115.412Z" fill="#3375E0"/>
<path d="M193.957 83.4569C192.129 82.3894 190.206 81.8633 187.857 81.3352C186.351 80.9965 186.455 79.2736 188.664 78.5481C190.741 77.8662 194.603 79.1093 195.702 81.0736C196.85 83.1229 195.449 84.3284 193.957 83.4569Z" fill="#3375E0"/>
<path d="M194.927 84.5148C194.486 84.5148 194.018 84.385 193.568 84.1226C191.908 83.1532 190.155 82.6423 187.688 82.0874C186.735 81.8734 186.118 81.2178 186.077 80.3769C186.036 79.5247 186.631 78.4042 188.424 77.8156C190.762 77.048 195.037 78.3078 196.375 80.6971C197.228 82.2208 196.898 83.3868 196.304 83.9699C195.935 84.3318 195.451 84.515 194.927 84.515L194.927 84.5148ZM190.005 79.125C189.603 79.125 189.229 79.1741 188.905 79.2803C187.946 79.5951 187.606 80.0741 187.617 80.3026C187.624 80.4429 187.833 80.5393 188.026 80.5827C190.641 81.1707 192.514 81.7205 194.346 82.7908C194.705 83.0003 195.058 83.0319 195.224 82.8692C195.41 82.686 195.429 82.1635 195.03 81.4501C194.316 80.1746 191.866 79.125 190.005 79.125ZM173.556 80.9636C171.44 81.0435 169.535 81.6315 167.269 82.4462C165.817 82.9684 164.98 81.4588 166.455 79.6609C167.842 77.9711 171.767 76.9485 173.749 78.0158C175.817 79.1294 175.282 80.8983 173.556 80.9636Z" fill="#3375E0"/>
<path d="M166.708 83.3226C166.113 83.3226 165.59 83.0697 165.253 82.5925C164.761 81.8953 164.662 80.6306 165.859 79.1719C167.42 77.2698 171.704 76.0381 174.115 77.3372C175.653 78.1655 175.999 79.3266 175.811 80.1371C175.596 81.0641 174.722 81.6909 173.585 81.7339C171.663 81.8063 169.91 82.316 167.53 83.1718C167.248 83.273 166.971 83.3226 166.708 83.3226ZM171.718 78.3554C170.03 78.3554 167.931 79.0786 167.051 80.1503C166.411 80.9302 166.382 81.517 166.513 81.7038C166.594 81.8182 166.822 81.7878 167.008 81.721C169.53 80.8141 171.405 80.2734 173.527 80.1932C173.942 80.1775 174.256 80.0151 174.309 79.7887C174.368 79.5337 174.104 79.0827 173.384 78.6949C172.95 78.4615 172.364 78.3554 171.718 78.3554Z" fill="#3375E0"/>
<path d="M191.419 86.9728C191.514 86.0719 190.976 85.2773 190.22 85.1981C189.463 85.1189 188.773 85.785 188.679 86.6859C188.584 87.5868 189.121 88.3814 189.878 88.4606C190.635 88.5398 191.325 87.8737 191.419 86.9728Z" fill="#3375E0"/>
<path d="M173.343 85.4974C173.437 84.5965 172.9 83.802 172.143 83.7228C171.386 83.6435 170.696 84.3096 170.602 85.2106C170.508 86.1115 171.045 86.906 171.801 86.9852C172.558 87.0645 173.248 86.3983 173.343 85.4974Z" fill="#3375E0"/>
<path d="M174.476 100.407C173.947 100.407 173.423 100.335 172.928 100.201C170.749 99.613 168.524 97.6906 168.79 94.8601C168.8 94.7477 168.835 94.6391 168.892 94.5418C168.949 94.4444 169.027 94.3608 169.12 94.2969C169.213 94.2329 169.319 94.1902 169.43 94.1716C169.542 94.1531 169.656 94.1592 169.764 94.1896L178.417 96.6015C178.525 96.6315 178.625 96.6845 178.71 96.7569C178.795 96.8293 178.863 96.9194 178.91 97.0209C178.957 97.1224 178.981 97.2329 178.981 97.3447C178.981 97.4564 178.957 97.5669 178.91 97.6683C178.005 99.6225 176.219 100.407 174.476 100.407L174.476 100.407ZM170.384 95.9623C170.704 97.3851 172.029 98.3612 173.33 98.712C174.492 99.026 176.03 98.9258 177.005 97.8078L170.384 95.9623ZM155.375 83.7437C157.515 79.8857 159.184 57.7221 178.506 59.4797C204.792 61.8708 199.284 82.5513 201.58 89.2324C202.078 90.6782 205.944 90.1961 206.585 87.5303C208.38 80.0656 208.378 65.2513 198.251 56.9367C185.23 46.2454 164.974 46.6095 157.171 54.5271C149.693 62.1141 146.819 73.1321 150.492 82.5513C152.81 88.4948 155.375 83.7437 155.375 83.7437Z" fill="#3375E0"/>
<path d="M203.156 90.8035C202.009 90.8035 201.135 90.3075 200.851 89.4828C200.337 87.986 200.195 85.9234 200.031 83.5351C199.733 79.1975 199.363 73.7993 196.563 69.2975C193.28 64.0186 187.35 61.0582 178.436 60.2474C163.374 58.874 159.481 72.7043 157.39 80.1328C156.89 81.9089 156.495 83.3123 156.051 84.1144C155.911 84.3714 154.741 86.4181 152.986 86.3086C151.706 86.2297 150.656 85.0923 149.774 82.8312C146.057 73.3002 148.745 61.9778 156.622 53.9857C160.59 49.9593 167.751 47.7147 175.78 47.983C184.247 48.2655 192.616 51.3116 198.741 56.3408C203.329 60.1079 206.408 65.6657 207.647 72.4131C208.56 77.3839 208.443 83.1026 207.335 87.7108C206.85 89.7254 204.93 90.7241 203.352 90.7991C203.287 90.8022 203.222 90.8037 203.157 90.8038L203.156 90.8035ZM176.394 58.6103C177.105 58.6103 177.832 58.644 178.576 58.7118C188.004 59.5694 194.316 62.7657 197.872 68.4834C200.875 73.311 201.26 78.9215 201.569 83.4298C201.726 85.7091 201.861 87.6776 202.309 88.9819C202.353 89.1099 202.692 89.2867 203.278 89.2589C204.333 89.2088 205.55 88.537 205.835 87.3502C207.446 80.6524 207.832 65.8008 197.762 57.5328C191.894 52.7146 183.863 49.7956 175.728 49.5242C168.122 49.2695 161.391 51.3433 157.719 55.0684C150.269 62.6282 147.714 73.3059 151.21 82.2715C152.07 84.4755 152.804 84.753 153.08 84.77C153.715 84.8065 154.452 83.8302 154.696 83.3778L154.7 83.3701C155.058 82.7256 155.451 81.3306 155.905 79.7154C156.954 75.9889 158.539 70.3576 161.863 65.8918C165.462 61.0539 170.344 58.6106 176.393 58.6106L176.394 58.6103Z" fill="#3375E0"/>
<path d="M158.61 60.8853C152.528 70.5425 160.384 82.0659 160.384 82.0659C161.694 67.4834 172.847 71.6242 178.506 59.4798C179.531 66.2684 190.457 74.2633 190.457 74.2633C187.941 71.7388 188.038 64.3951 188.038 64.3951C196.76 77.58 214.202 79.4268 214.202 79.4268C205.94 71.1652 212.595 62.215 203.874 51.6584C194.973 40.8838 180.358 45.7426 176.457 48.7834" fill="#3375E0"/>
<path d="M160.384 82.8369C160.258 82.8369 160.135 82.8062 160.024 82.7475C159.913 82.6888 159.818 82.604 159.747 82.5002C159.414 82.0127 151.679 70.4445 157.958 60.4744C158.068 60.3035 158.241 60.1828 158.439 60.1388C158.637 60.0947 158.845 60.1307 159.017 60.239C159.189 60.3473 159.311 60.519 159.357 60.717C159.403 60.9149 159.369 61.123 159.263 61.296C154.949 68.1447 158.074 76.129 159.922 79.7162C161.155 73.0104 164.826 70.7699 168.691 68.412C171.99 66.3994 175.401 64.3183 177.807 59.1542C177.877 59.004 177.994 58.8804 178.139 58.8016C178.285 58.7228 178.452 58.6929 178.616 58.7166C178.78 58.7402 178.932 58.816 179.05 58.9327C179.167 59.0494 179.244 59.2009 179.269 59.3647C179.917 63.6586 184.902 68.5913 188.135 71.3903C187.232 68.2701 187.265 64.6035 187.268 64.3848C187.27 64.2198 187.325 64.0598 187.424 63.9283C187.524 63.7968 187.663 63.7008 187.822 63.6543C187.98 63.6079 188.149 63.6135 188.304 63.6703C188.459 63.7272 188.591 63.8322 188.682 63.97C195.329 74.0186 207.348 77.3475 212.185 78.3115C209.249 74.5393 208.861 70.6604 208.453 66.5847C207.997 62.0138 207.524 57.2871 203.28 52.1498C195.056 42.1947 181.099 46.1437 176.931 49.3919C176.77 49.5143 176.567 49.5681 176.366 49.5418C176.165 49.5155 175.982 49.4111 175.858 49.2513C175.733 49.0915 175.676 48.889 175.7 48.6877C175.723 48.4865 175.825 48.3026 175.983 48.1758C178.171 46.4706 182.944 44.5211 188.255 44.2705C192.871 44.0513 199.433 45.0721 204.469 51.1678C209.012 56.667 209.531 61.8544 209.988 66.4315C210.447 71.0171 210.842 74.9772 214.747 78.8823C214.86 78.995 214.935 79.1399 214.962 79.297C214.989 79.4541 214.967 79.6158 214.898 79.7597C214.829 79.9035 214.718 80.0226 214.579 80.1004C214.439 80.1782 214.28 80.211 214.121 80.1942C213.939 80.1749 209.596 79.6972 204.113 77.5749C199.566 75.815 193.46 72.5776 188.917 66.9073C189.127 69.3094 189.689 72.4011 191.003 73.7197C191.141 73.8572 191.221 74.0414 191.228 74.2355C191.236 74.4296 191.169 74.6194 191.043 74.7668C190.916 74.9141 190.739 75.0083 190.546 75.0305C190.353 75.0526 190.159 75.0011 190.002 74.8862C189.588 74.5832 180.722 68.0367 178.278 61.5815C175.753 65.9106 172.449 67.9265 169.494 69.7291C165.391 72.2325 161.847 74.3946 161.152 82.1358C161.135 82.3276 161.046 82.506 160.904 82.636C160.762 82.7659 160.576 82.8379 160.384 82.8379V82.8369Z" fill="#3375E0"/>
<path d="M201.581 89.2325C203.422 86.7003 206.85 85.7291 209.806 87.084C213.177 88.629 214.657 92.614 213.112 95.985C211.567 99.3558 207.582 100.836 204.211 99.291C203.021 98.7457 202.013 97.8773 201.344 96.8583C201.109 97.7928 200.86 98.6982 200.585 99.5537" fill="white"/>
<path d="M207.004 100.676C205.942 100.676 204.884 100.447 203.889 99.9915C203.082 99.6206 202.344 99.1151 201.707 98.4965C201.586 98.9295 201.457 99.3603 201.32 99.7887C201.289 99.8851 201.239 99.9745 201.174 100.052C201.108 100.129 201.028 100.193 200.938 100.239C200.848 100.285 200.75 100.313 200.649 100.322C200.548 100.33 200.447 100.318 200.35 100.288C200.254 100.257 200.164 100.207 200.087 100.142C200.01 100.076 199.946 99.996 199.9 99.906C199.854 99.816 199.825 99.7177 199.817 99.6168C199.809 99.5159 199.82 99.4143 199.851 99.3179C200.099 98.5464 200.343 97.6803 200.597 96.6698C200.633 96.5246 200.711 96.3932 200.821 96.2916C200.931 96.19 201.068 96.1227 201.216 96.0978C201.364 96.0729 201.515 96.0915 201.653 96.1513C201.79 96.2112 201.907 96.3097 201.989 96.4349C202.588 97.3475 203.491 98.1128 204.531 98.5898C205.24 98.917 206.007 99.1004 206.787 99.1293C207.568 99.1583 208.346 99.0322 209.077 98.7584C209.81 98.4885 210.482 98.076 211.054 97.5448C211.626 97.0135 212.087 96.374 212.411 95.6634C213.776 92.6845 212.463 89.1501 209.484 87.7846C206.921 86.6097 203.859 87.4094 202.204 89.6856C202.082 89.847 201.902 89.9541 201.702 89.9838C201.502 90.0136 201.298 89.9637 201.135 89.8448C200.972 89.726 200.861 89.5477 200.828 89.3483C200.795 89.149 200.841 88.9445 200.957 88.779C203.042 85.9114 206.899 84.9037 210.127 86.383C211.944 87.2159 213.329 88.7067 214.025 90.581C214.721 92.4553 214.646 94.4884 213.813 96.3059C212.98 98.1233 211.489 99.5078 209.614 100.204C208.779 100.515 207.896 100.675 207.004 100.676Z" fill="#3375E0"/>
<path d="M205.47 94.9909C205.296 94.9911 205.127 94.9326 204.991 94.8248C204.854 94.717 204.758 94.5662 204.718 94.397C204.678 94.2278 204.697 94.0501 204.771 93.8927C204.844 93.7353 204.969 93.6074 205.125 93.5299L209.106 91.5433C209.197 91.4981 209.295 91.4711 209.396 91.4641C209.497 91.457 209.599 91.4698 209.695 91.5019C209.791 91.534 209.88 91.5847 209.956 91.6511C210.033 91.7175 210.095 91.7983 210.14 91.8889C210.186 91.9795 210.212 92.0782 210.22 92.1792C210.227 92.2802 210.214 92.3816 210.182 92.4776C210.15 92.5736 210.099 92.6624 210.032 92.7388C209.966 92.8153 209.885 92.8779 209.795 92.9231L205.813 94.9097C205.703 94.9649 205.585 94.9909 205.47 94.9909Z" fill="#3375E0"/>
<path d="M208.381 96.3251C208.225 96.325 208.073 96.2779 207.945 96.19C207.817 96.1021 207.718 95.9775 207.662 95.8324L205.866 91.1983C205.83 91.1038 205.812 91.003 205.814 90.9017C205.816 90.8004 205.839 90.7005 205.879 90.6078C205.92 90.515 205.979 90.4313 206.052 90.3612C206.126 90.2912 206.212 90.2364 206.307 90.1997C206.401 90.1631 206.502 90.1455 206.603 90.1479C206.704 90.1503 206.804 90.1727 206.897 90.2137C206.99 90.2547 207.073 90.3136 207.143 90.387C207.213 90.4603 207.268 90.5468 207.304 90.6414L209.1 95.2755C209.145 95.3923 209.161 95.5185 209.147 95.6429C209.132 95.7674 209.088 95.8865 209.017 95.9899C208.946 96.0933 208.851 96.1779 208.74 96.2364C208.629 96.2948 208.506 96.3253 208.381 96.3253V96.3251Z" fill="#3375E0"/>
<path d="M176.458 49.2972H176.44L175.12 49.2517C175.052 49.2494 174.986 49.2338 174.925 49.2059C174.863 49.1779 174.808 49.1381 174.762 49.0887C174.716 49.0394 174.68 48.9815 174.656 48.9182C174.632 48.855 174.622 48.7877 174.624 48.7203C174.634 48.4365 174.877 48.2176 175.155 48.2243L176.475 48.2698C176.61 48.274 176.738 48.3312 176.831 48.429C176.924 48.5267 176.975 48.6572 176.973 48.7922C176.971 48.9272 176.915 49.0559 176.819 49.1505C176.722 49.245 176.593 49.2976 176.458 49.2972Z" fill="#0B122D"/>
<path d="M155.927 85.0151C154.859 81.5035 150.973 79.8767 147.803 80.5994C144.187 81.4235 141.924 85.0223 142.749 88.6377C143.573 92.2531 147.172 94.5157 150.787 93.6915C152.063 93.4006 153.352 92.8121 154.215 91.9511C154.22 92.6908 154.271 93.6036 154.353 94.6296" fill="white"/>
<path d="M154.352 95.4005C154.158 95.4003 153.972 95.3271 153.829 95.1956C153.687 95.0641 153.6 94.8838 153.584 94.6907C153.549 94.2443 153.52 93.8344 153.498 93.4574C152.761 93.8914 151.896 94.2294 150.959 94.4429C149.01 94.8873 147.004 94.5457 145.311 93.4818C143.618 92.4176 142.441 90.7579 141.997 88.8086C141.553 86.8595 141.894 84.8536 142.958 83.1611C144.023 81.4685 145.682 80.2914 147.632 79.8473C151.018 79.0753 155.435 80.7458 156.665 84.7904C156.724 84.9861 156.704 85.1973 156.607 85.3777C156.511 85.5581 156.347 85.6929 156.151 85.7524C155.956 85.8118 155.744 85.7911 155.564 85.6948C155.383 85.5985 155.249 85.4345 155.189 85.2389C154.218 82.0429 150.687 80.7312 147.974 81.3505C146.426 81.7034 145.108 82.6378 144.263 83.9816C143.418 85.3255 143.147 86.9181 143.5 88.4657C143.672 89.2274 143.992 89.9476 144.444 90.5845C144.896 91.2214 145.469 91.7624 146.131 92.1762C147.475 93.021 149.067 93.2919 150.616 92.9395C151.864 92.6548 152.978 92.0955 153.67 91.405C153.777 91.2976 153.914 91.2245 154.063 91.1947C154.212 91.1649 154.367 91.1798 154.507 91.2376C154.648 91.2953 154.768 91.3933 154.853 91.5193C154.938 91.6452 154.984 91.7935 154.985 91.9454C154.99 92.6224 155.034 93.4802 155.121 94.5678C155.129 94.674 155.116 94.7807 155.081 94.8813C155.046 94.9819 154.991 95.0742 154.918 95.1523C154.846 95.2305 154.758 95.2929 154.661 95.3355C154.563 95.3781 154.458 95.4001 154.351 95.4L154.352 95.4005Z" fill="#3375E0"/>
<path d="M150.911 89.2655C150.737 89.2657 150.569 89.2072 150.433 89.0995L146.942 86.3417C146.86 86.2796 146.792 86.202 146.741 86.1133C146.69 86.0246 146.657 85.9266 146.644 85.825C146.631 85.7234 146.638 85.6203 146.666 85.5216C146.693 85.423 146.74 85.3308 146.804 85.2504C146.867 85.1701 146.946 85.1032 147.036 85.0536C147.125 85.004 147.224 84.9728 147.326 84.9618C147.427 84.9507 147.53 84.9601 147.628 84.9892C147.727 85.0184 147.818 85.0669 147.897 85.1317L151.389 87.8896C151.515 87.9889 151.606 88.1249 151.651 88.2786C151.696 88.4324 151.692 88.5963 151.639 88.7477C151.587 88.899 151.488 89.0301 151.358 89.1229C151.227 89.2158 151.071 89.2656 150.911 89.2655Z" fill="#3375E0"/>
<path d="M147.788 89.9775C147.649 89.9773 147.513 89.9398 147.394 89.8688C147.275 89.7979 147.177 89.6961 147.111 89.5742C147.045 89.4524 147.013 89.315 147.018 89.1764C147.024 89.0379 147.066 88.9034 147.142 88.7871L149.846 84.617C149.958 84.4481 150.132 84.3303 150.331 84.2892C150.53 84.2481 150.737 84.2869 150.907 84.3973C151.077 84.5077 151.197 84.6807 151.241 84.8788C151.284 85.077 151.248 85.2843 151.139 85.4559L148.435 89.6259C148.365 89.734 148.27 89.8228 148.156 89.8842C148.043 89.9456 147.916 89.9777 147.788 89.9775Z" fill="#3375E0"/>
<path d="M149.782 81.2024C149.614 81.2023 149.451 81.1473 149.317 81.0458C149.183 80.9443 149.086 80.8018 149.04 80.6401C146.478 71.544 149.383 61.3307 156.622 53.9855C160.732 49.8152 168.163 47.5822 176.497 48.0131C176.922 48.035 177.249 48.3976 177.227 48.8229C177.205 49.2483 176.844 49.571 176.417 49.5531C168.518 49.1447 161.526 51.2066 157.72 55.0679C150.869 62.0194 148.112 71.6578 150.525 80.222C150.557 80.3366 150.562 80.4572 150.54 80.5743C150.518 80.6914 150.469 80.8017 150.397 80.8967C150.325 80.9917 150.232 81.0687 150.126 81.1217C150.019 81.1747 149.901 81.2025 149.782 81.2024ZM207.973 78.8452C207.9 78.8452 207.827 78.835 207.754 78.8134C204.726 77.9193 201.865 76.751 199.249 75.3416C199.069 75.2446 198.935 75.08 198.877 74.8842C198.818 74.6883 198.84 74.4772 198.936 74.2972C199.034 74.1174 199.198 73.9834 199.394 73.9248C199.59 73.8661 199.801 73.8874 199.981 73.9842C202.503 75.3434 205.265 76.4706 208.191 77.3349C208.369 77.3872 208.522 77.502 208.622 77.658C208.722 77.8141 208.763 78.001 208.736 78.1846C208.71 78.3682 208.618 78.536 208.478 78.6574C208.338 78.7788 208.158 78.8453 207.973 78.8452Z" fill="white"/>
<path d="M157.808 77.6417C157.651 77.6417 157.497 77.5936 157.368 77.5038C157.239 77.414 157.14 77.2869 157.085 77.1395C155.454 72.7595 154.281 66.3125 157.958 60.4741C158.068 60.3032 158.24 60.1826 158.439 60.1385C158.637 60.0944 158.845 60.1304 159.017 60.2387C159.189 60.347 159.311 60.5188 159.357 60.7167C159.403 60.9146 159.369 61.1227 159.262 61.2957C155.921 66.6009 157.02 72.547 158.53 76.6014C158.574 76.718 158.588 76.8434 158.573 76.9668C158.557 77.0902 158.512 77.2081 158.441 77.3103C158.37 77.4125 158.276 77.496 158.165 77.5536C158.055 77.6113 157.932 77.6417 157.808 77.6417Z" fill="white"/>
</g>
<g clip-path="url(#clip2_5638_4773)">
<path d="M52.3877 115.025C52.7922 114.321 53.4977 113.806 54.4089 113.648L70.7229 110.811C72.5451 110.494 74.4989 111.722 75.0869 113.553L86.4653 148.992C86.7407 149.85 86.6677 150.688 86.3249 151.369L89.0199 147.483C89.3783 146.796 89.459 145.943 89.1787 145.071L77.8006 109.632C77.2126 107.801 75.2588 106.573 73.4366 106.89L57.1226 109.727C56.2114 109.885 55.5059 110.4 55.1014 111.103L52.3877 115.025Z" fill="#A8CFFB"/>
<path d="M86.3244 152.136C86.1933 152.136 86.0644 152.102 85.95 152.038C85.8356 151.974 85.7394 151.882 85.6707 151.771C85.6019 151.66 85.5629 151.533 85.5572 151.402C85.5515 151.271 85.5795 151.141 85.6383 151.024C85.9032 150.498 85.937 149.859 85.7336 149.226L74.3552 113.787C73.8808 112.31 72.3104 111.315 70.8548 111.567L54.5409 114.404C54.0188 114.494 53.5766 114.741 53.2636 115.109L53.0199 115.461C52.9069 115.623 52.7357 115.735 52.5419 115.774C52.348 115.814 52.1465 115.777 51.9792 115.671C51.8119 115.566 51.6917 115.4 51.6437 115.209C51.5956 115.017 51.6233 114.815 51.7211 114.643C51.8156 114.478 51.9231 114.321 52.0426 114.174L54.4515 110.692C54.9912 109.773 55.8917 109.162 56.9904 108.971L73.3046 106.134C75.4862 105.755 77.8326 107.218 78.5324 109.398L89.9109 144.836C90.2439 145.874 90.1696 146.94 89.7018 147.837C89.6869 147.866 89.6703 147.893 89.6519 147.92L86.9569 151.805C86.8861 151.907 86.7916 151.99 86.6814 152.048C86.5712 152.105 86.4487 152.135 86.3244 152.135V152.136ZM71.2911 109.996C73.2544 109.996 75.1937 111.372 75.8188 113.319L87.1972 148.758L87.1984 148.762L88.3582 147.089C88.6169 146.566 88.6487 145.934 88.4468 145.305L77.0686 109.866C76.5942 108.388 75.0223 107.392 73.5685 107.646L57.2543 110.482C56.6021 110.596 56.0743 110.952 55.768 111.485C55.7574 111.503 55.7459 111.522 55.7336 111.539L54.8688 112.789L70.5912 110.055C70.8233 110.015 71.0574 109.995 71.2911 109.995V109.996Z" fill="#3375E0"/>
<path d="M84.2309 152.881L67.9169 155.718C66.0947 156.035 64.1409 154.807 63.5529 152.976L52.1743 117.538C51.5863 115.706 52.587 113.965 54.4092 113.648L70.7231 110.812C72.5453 110.495 74.4992 111.722 75.0871 113.554L86.4655 148.992C87.0534 150.823 86.0528 152.565 84.2306 152.882L84.2309 152.881Z" fill="#A8CFFB"/>
<path d="M67.3483 156.534C65.3849 156.534 63.4459 155.157 62.8209 153.21L51.4425 117.771C51.0864 116.662 51.2032 115.496 51.7632 114.572C52.306 113.676 53.1988 113.08 54.2771 112.892L70.591 110.055C72.7736 109.676 75.1192 111.14 75.8188 113.319L87.1972 148.758C87.5533 149.867 87.4365 151.033 86.8762 151.958C86.3334 152.853 85.4406 153.449 84.3624 153.637L68.0484 156.474C67.8172 156.514 67.583 156.534 67.3483 156.534V156.534ZM71.3142 111.528C71.1607 111.528 71.007 111.54 70.8549 111.567L54.5409 114.404C53.9071 114.514 53.3876 114.856 53.0784 115.366C52.7436 115.918 52.6824 116.606 52.9063 117.303L64.2847 152.742C64.7591 154.219 66.3287 155.216 67.7851 154.962L84.099 152.125C84.7328 152.015 85.2521 151.673 85.5615 151.163C85.8964 150.611 85.9576 149.923 85.7337 149.226L74.3553 113.787C73.9305 112.465 72.6274 111.528 71.3144 111.528L71.3142 111.528Z" fill="#3375E0"/>
<path d="M72.0032 117.826C71.5474 116.406 69.9765 115.465 68.4946 115.722C67.0126 115.98 66.1808 117.34 66.6365 118.759C67.0922 120.179 68.6631 121.121 70.1451 120.863C71.6271 120.605 72.4589 119.245 72.0032 117.826Z" fill="#3375E0"/>
<path d="M69.6368 121.673C67.9824 121.673 66.4161 120.587 65.9045 118.993C65.6163 118.096 65.7129 117.181 66.1766 116.416C66.6436 115.645 67.4201 115.13 68.3628 114.967C70.238 114.641 72.1578 115.794 72.735 117.592C73.0232 118.489 72.9266 119.404 72.4632 120.169C71.9962 120.94 71.2197 121.455 70.277 121.619C70.0636 121.656 69.8494 121.673 69.6368 121.673ZM68.9846 116.448C68.8647 116.448 68.7448 116.458 68.6264 116.478C68.1282 116.565 67.7252 116.825 67.4916 117.21C67.2618 117.59 67.218 118.057 67.3683 118.525C67.705 119.574 68.9151 120.298 70.0131 120.107C70.5114 120.021 70.9144 119.761 71.148 119.375C71.3778 118.996 71.4216 118.529 71.2712 118.06C70.971 117.125 69.9749 116.448 68.9846 116.448Z" fill="#3375E0"/>
</g>
<g clip-path="url(#clip3_5638_4773)">
<path d="M47.6357 153.443C38.4866 138.483 47.7137 128.343 53.1151 126.305C56.9015 124.877 62.2978 125.938 65.3808 127.752C68.5143 129.596 67.8326 134.226 63.489 134.266C61.2662 134.286 60.0909 134.391 57.5685 135.957C55.9222 136.978 55.7336 138.461 55.2178 141.292" fill="white"/>
<path d="M47.6364 154.218C47.506 154.218 47.3777 154.185 47.2637 154.12C47.1497 154.056 47.0539 153.964 46.9853 153.851C42.0558 145.791 42.5948 139.447 43.915 135.544C45.6809 130.322 49.6741 126.777 52.8481 125.58C56.9507 124.032 62.565 125.199 65.7655 127.083C67.5643 128.141 68.4447 130.106 67.9567 131.973C67.573 133.439 66.1997 135.015 63.4964 135.04C61.3945 135.059 60.3642 135.13 57.9685 136.617C56.6983 137.405 56.4943 138.533 56.0479 141.004L55.9701 141.433C55.952 141.533 55.9146 141.628 55.86 141.713C55.8054 141.799 55.7347 141.873 55.652 141.93C55.5692 141.988 55.4761 142.028 55.3778 142.05C55.2795 142.071 55.1781 142.072 55.0793 142.054C54.9805 142.035 54.8863 141.997 54.802 141.942C54.7177 141.887 54.645 141.815 54.588 141.731C54.531 141.647 54.4909 141.553 54.47 141.454C54.449 141.354 54.4476 141.252 54.4659 141.152L54.5431 140.726C55.0255 138.057 55.3164 136.446 57.169 135.296C59.9001 133.601 61.2119 133.512 63.4826 133.491C65.0486 133.477 66.1681 132.761 66.4782 131.576C66.7357 130.591 66.3775 129.234 64.9968 128.421C62.0592 126.693 56.9112 125.7 53.3825 127.031C50.6381 128.066 46.9577 131.329 45.3624 136.046C43.6228 141.189 44.634 147.064 48.2863 153.036C48.3581 153.153 48.3976 153.288 48.4008 153.426C48.404 153.563 48.3708 153.7 48.3045 153.82C48.2383 153.941 48.1415 154.041 48.0241 154.111C47.9067 154.181 47.7727 154.218 47.6364 154.218Z" fill="#3375E0"/>
<path d="M50.229 140.144C50.7955 136.115 53.4691 131.875 58.8457 130.99C63.5658 130.214 66.6029 131.59 69.7176 132.534C73.1343 133.569 71.0378 138.692 67.5042 139.164C62.8991 139.779 63.3445 139.223 61.6618 140.115C59.979 141.007 57.768 144.657 57.768 144.657" fill="white"/>
<path d="M57.7672 145.431C57.6313 145.431 57.4979 145.394 57.3807 145.325C57.2636 145.255 57.1668 145.155 57.1005 145.035C57.0342 144.915 57.0007 144.779 57.0034 144.641C57.0061 144.504 57.045 144.369 57.116 144.252C57.3539 143.86 59.4902 140.392 61.3071 139.429C62.418 138.84 62.7619 138.799 63.9014 138.734C64.5747 138.696 65.5918 138.638 67.4043 138.396C69.1964 138.157 70.5702 136.409 70.6821 134.991C70.7514 134.112 70.3532 133.534 69.498 133.276C69.0401 133.135 68.5834 132.99 68.1281 132.841C65.5196 131.995 62.8218 131.12 58.9683 131.755C53.8456 132.597 51.486 136.697 50.986 140.253C50.9722 140.354 50.9389 140.451 50.8879 140.539C50.8369 140.627 50.7692 140.704 50.6888 140.766C50.6084 140.827 50.5168 140.872 50.4192 140.897C50.3217 140.923 50.2201 140.928 50.1204 140.914C50.0207 140.899 49.9248 140.865 49.8381 140.813C49.7515 140.761 49.6758 140.692 49.6156 140.611C49.5553 140.529 49.5115 140.436 49.4868 140.337C49.4621 140.238 49.4569 140.136 49.4715 140.035C50.0482 135.934 52.7812 131.203 58.7226 130.226C62.9391 129.532 65.9436 130.507 68.5944 131.366C69.0439 131.512 69.4894 131.656 69.9366 131.792C71.4852 132.261 72.334 133.503 72.2065 135.114C72.0451 137.157 70.2395 139.579 67.6039 139.931C65.7343 140.181 64.6823 140.241 63.9865 140.28C63.0057 140.336 62.8797 140.343 62.0162 140.801C60.7913 141.45 59.0045 144.097 58.4194 145.062C58.351 145.175 58.255 145.268 58.1407 145.333C58.0264 145.398 57.8976 145.431 57.7667 145.431H57.7672Z" fill="#3375E0"/>
<path d="M56.0518 145.387C57.2162 142.501 59.2865 139.471 63.7503 138.456C67.9113 137.511 70.7126 138.582 72.8923 139.26C77.3026 140.631 74.7686 146.023 70.3044 146.154C65.968 146.282 63.362 148.199 61.7446 152.653" fill="white"/>
<path d="M61.7447 153.427C61.6215 153.427 61.5001 153.397 61.3909 153.34C61.2817 153.282 61.1878 153.198 61.1173 153.096C61.0469 152.994 61.0018 152.876 60.9861 152.752C60.9704 152.628 60.9844 152.503 61.027 152.386C62.7363 147.679 65.5908 145.518 70.2824 145.381C72.5042 145.316 74.2081 143.687 74.4062 142.206C74.5441 141.175 73.9266 140.392 72.6681 140C72.5011 139.948 72.3343 139.896 72.1676 139.842C70.119 139.192 67.5699 138.382 63.9183 139.212C60.5023 139.989 58.2278 142.044 56.7602 145.68C56.7222 145.774 56.6663 145.86 56.5956 145.932C56.5249 146.004 56.4409 146.062 56.3483 146.101C56.2557 146.14 56.1563 146.161 56.0558 146.161C55.9554 146.162 55.8558 146.142 55.7628 146.104C55.6698 146.065 55.5852 146.009 55.5138 145.937C55.4424 145.866 55.3857 145.781 55.3468 145.687C55.2682 145.497 55.2672 145.284 55.3439 145.094C56.9948 141.004 59.6897 138.586 63.583 137.701C67.6359 136.781 70.5195 137.697 72.6255 138.365C72.793 138.418 72.957 138.47 73.1173 138.52C75.1165 139.142 76.1652 140.597 75.9224 142.414C75.6354 144.561 73.4638 146.837 70.327 146.928C66.2433 147.048 63.9652 148.784 62.463 152.92C62.409 153.069 62.3113 153.197 62.1829 153.288C62.0546 153.379 61.9018 153.427 61.7452 153.427H61.7447Z" fill="#3375E0"/>
</g>
<g clip-path="url(#clip4_5638_4773)">
<path d="M396.41 416.546C390.833 419.907 374.135 420.346 365.649 407.345C365.649 407.345 351.792 416.474 348.363 411.098C348.363 411.098 357.223 400.858 365.255 395.717L370.332 399.803C370.332 399.803 376.212 388.882 385.698 384.822" fill="#A8CFFB"/>
<path d="M387.229 419.325C385.573 419.325 383.807 419.178 381.979 418.84C377.068 417.934 370.276 415.381 365.428 408.4C363.115 409.838 355.255 414.421 350.571 413.421C349.309 413.152 348.347 412.511 347.711 411.514C347.622 411.374 347.58 411.208 347.592 411.043C347.604 410.877 347.67 410.719 347.778 410.594C348.143 410.172 356.804 400.21 364.839 395.067C364.975 394.98 365.135 394.938 365.297 394.946C365.459 394.955 365.614 395.014 365.74 395.116L370.112 398.634C371.688 395.99 377.172 387.631 385.394 384.112C385.487 384.071 385.588 384.048 385.691 384.045C385.793 384.043 385.895 384.061 385.991 384.098C386.086 384.135 386.173 384.191 386.247 384.262C386.32 384.334 386.379 384.419 386.419 384.513C386.46 384.607 386.481 384.709 386.482 384.811C386.483 384.914 386.463 385.015 386.424 385.11C386.385 385.205 386.328 385.291 386.255 385.363C386.182 385.436 386.096 385.493 386.001 385.532C376.882 389.434 371.07 400.061 371.012 400.168C370.958 400.268 370.883 400.355 370.792 400.422C370.701 400.49 370.596 400.537 370.485 400.559C370.374 400.581 370.259 400.579 370.149 400.552C370.039 400.525 369.936 400.475 369.848 400.404L365.207 396.669C358.464 401.133 351.17 409.105 349.367 411.127C349.752 411.517 350.256 411.775 350.892 411.911C355.683 412.937 365.128 406.763 365.223 406.701C365.308 406.645 365.403 406.606 365.503 406.587C365.603 406.568 365.706 406.568 365.805 406.589C365.905 406.61 365.999 406.65 366.083 406.707C366.167 406.765 366.239 406.838 366.295 406.923C374.6 419.646 390.889 418.972 396.011 415.885C396.186 415.785 396.393 415.758 396.588 415.809C396.783 415.86 396.95 415.985 397.054 416.158C397.158 416.33 397.191 416.536 397.145 416.732C397.099 416.928 396.978 417.099 396.808 417.207C394.832 418.398 391.378 419.325 387.228 419.325L387.229 419.325Z" fill="#3375E0"/>
<path d="M509.654 410.307C512.75 414.633 524.099 425.827 529.041 426.815C534.087 423.349 536.954 429.292 528.006 434.344C522.617 437.386 503.758 430.427 495.819 422.246" fill="#A8CFFB"/>
<path d="M524.392 435.826C516.4 435.826 502.032 429.759 495.265 422.784C495.124 422.636 495.047 422.439 495.051 422.236C495.055 422.032 495.14 421.839 495.286 421.697C495.432 421.555 495.628 421.477 495.832 421.479C496.035 421.481 496.23 421.564 496.373 421.709C500.006 425.453 506.273 429.218 513.138 431.781C519.661 434.215 525.348 434.958 527.625 433.671C531.65 431.399 533.047 429.026 533.02 427.684C533.014 427.354 532.916 426.915 532.486 426.694C531.959 426.424 530.891 426.48 529.478 427.451C529.392 427.51 529.296 427.55 529.195 427.571C529.094 427.592 528.99 427.592 528.889 427.572C523.611 426.516 512.225 415.227 509.026 410.756C508.965 410.674 508.921 410.58 508.897 410.481C508.873 410.381 508.868 410.278 508.884 410.177C508.9 410.076 508.936 409.979 508.99 409.892C509.044 409.805 509.114 409.729 509.198 409.67C509.281 409.61 509.375 409.568 509.475 409.545C509.575 409.522 509.678 409.519 509.779 409.537C509.88 409.554 509.976 409.592 510.063 409.647C510.149 409.702 510.224 409.774 510.282 409.858C513.538 414.407 524.222 424.705 528.894 425.987C530.494 424.977 532.046 424.733 533.191 425.321C534.043 425.758 534.544 426.608 534.565 427.653C534.612 430.051 532.302 432.804 528.385 435.015C527.403 435.57 526.031 435.825 524.392 435.825L524.392 435.826Z" fill="#3375E0"/>
<path d="M503.302 368.323C492.493 372.826 485.189 373.48 475.268 370.852C460.349 366.901 458.067 384.947 472.644 386.671C487.93 388.48 499.192 382.167 506.253 378.13" fill="#A8CFFB"/>
<path d="M478.016 387.762C476.255 387.762 474.435 387.661 472.553 387.438C467.615 386.854 463.985 384.392 462.594 380.683C461.502 377.772 462.068 374.588 464.072 372.375C466.526 369.665 470.679 368.838 475.466 370.106C485.191 372.682 492.397 372.03 503.005 367.61C503.194 367.532 503.406 367.531 503.596 367.609C503.785 367.687 503.936 367.837 504.015 368.026C504.093 368.215 504.094 368.428 504.016 368.617C503.938 368.806 503.788 368.957 503.599 369.036C492.634 373.603 485.169 374.274 475.07 371.598C470.861 370.484 467.27 371.144 465.218 373.411C463.603 375.194 463.152 377.773 464.04 380.141C465.221 383.29 468.39 385.391 472.734 385.905C487.95 387.704 499.167 381.291 505.87 377.46C506.047 377.363 506.255 377.34 506.45 377.395C506.644 377.45 506.809 377.579 506.909 377.755C507.01 377.93 507.037 378.138 506.986 378.333C506.935 378.529 506.81 378.696 506.636 378.8C500.591 382.256 490.958 387.762 478.016 387.762Z" fill="#3375E0"/>
<path d="M449.505 437.707C425.815 437.66 402.714 429.813 382.774 416.091C374.591 410.43 372.548 399.21 378.211 391.029C383.873 382.849 395.098 380.806 403.282 386.467C423.24 400.273 447.566 405.158 466.769 399.215C474.683 396.766 485.058 391.383 489.545 379.643C493.098 370.351 503.514 365.696 512.809 369.247C522.105 372.798 526.762 383.21 523.21 392.502C515.673 412.219 499.413 426.824 477.427 433.628C468.662 436.341 459.223 437.707 449.505 437.707V437.707Z" fill="#A8CFFB"/>
<path d="M449.505 438.479H449.504C426.173 438.432 402.948 430.91 382.337 416.727C373.815 410.832 371.68 399.107 377.576 390.59C380.432 386.464 384.725 383.697 389.663 382.799C394.601 381.899 399.594 382.977 403.721 385.833C423.489 399.507 447.56 404.352 466.541 398.478C474.29 396.08 484.447 390.817 488.824 379.367C490.616 374.681 494.126 370.972 498.708 368.924C503.291 366.876 508.397 366.735 513.085 368.526C522.764 372.223 527.63 383.102 523.931 392.778C516.308 412.721 499.873 427.49 477.656 434.366C468.836 437.095 459.365 438.479 449.505 438.479ZM393.065 384.034C392.027 384.034 390.982 384.128 389.939 384.318C385.407 385.142 381.467 387.682 378.846 391.469C373.435 399.286 375.394 410.047 383.214 415.457C403.564 429.461 426.491 436.888 449.507 436.936C459.211 436.936 468.528 435.575 477.199 432.891C498.954 426.159 515.038 411.717 522.488 392.227C525.883 383.347 521.417 373.362 512.534 369.969C508.23 368.324 503.544 368.454 499.339 370.334C495.133 372.213 491.911 375.617 490.267 379.919C485.668 391.948 475.075 397.453 466.998 399.953C461.524 401.647 455.639 402.472 449.561 402.472C434.069 402.473 417.313 397.112 402.843 387.102C399.926 385.085 396.538 384.034 393.065 384.034L393.065 384.034Z" fill="#3375E0"/>
<path d="M522.833 378.735C523.266 379.74 523.59 380.523 523.774 381.378C523.774 381.378 550.167 389.309 551.253 390.275C549.049 400.477 528.522 400.338 520.061 399.496L519 401.447" fill="#A8CFFB"/>
<path d="M518.999 402.219C518.865 402.218 518.734 402.184 518.618 402.117C518.501 402.051 518.404 401.956 518.336 401.841C518.267 401.726 518.23 401.595 518.228 401.461C518.225 401.327 518.257 401.195 518.321 401.078L519.382 399.127C519.454 398.994 519.565 398.885 519.699 398.814C519.833 398.743 519.986 398.713 520.137 398.728C530.28 399.737 547.794 399.131 550.353 390.671C547.512 389.454 532.809 384.899 523.552 382.117C523.419 382.077 523.3 382.003 523.206 381.901C523.113 381.8 523.048 381.675 523.019 381.54C522.85 380.755 522.542 380.009 522.124 379.04C522.084 378.947 522.063 378.847 522.061 378.746C522.06 378.644 522.078 378.544 522.116 378.449C522.153 378.355 522.209 378.269 522.28 378.197C522.351 378.124 522.435 378.066 522.528 378.026C522.621 377.986 522.721 377.964 522.823 377.963C522.924 377.962 523.025 377.98 523.119 378.018C523.213 378.055 523.299 378.111 523.372 378.181C523.445 378.252 523.503 378.336 523.543 378.43C523.92 379.306 524.216 380.019 524.419 380.766C531.099 382.775 550.665 388.718 551.766 389.698C551.868 389.789 551.944 389.905 551.987 390.035C552.029 390.165 552.036 390.304 552.007 390.438C549.448 402.287 525.201 400.729 520.495 400.312L519.678 401.815C519.612 401.937 519.514 402.039 519.394 402.11C519.275 402.181 519.138 402.219 518.999 402.219Z" fill="#3375E0"/>
<path d="M546.767 388.566C545.963 389.968 545.976 393.3 548.61 394.7C548.61 394.7 551.029 392.678 551.253 390.275L546.767 388.566Z" fill="#3375E0"/>
<path d="M548.61 395.472C548.486 395.472 548.361 395.443 548.247 395.382C547.018 394.728 546.158 393.654 545.76 392.275C545.358 390.88 545.493 389.235 546.097 388.183C546.189 388.023 546.334 387.902 546.508 387.84C546.681 387.778 546.87 387.78 547.042 387.845L551.528 389.554C551.686 389.614 551.819 389.724 551.909 389.867C551.998 390.01 552.038 390.179 552.022 390.347C551.771 393.035 549.215 395.201 549.106 395.293C548.967 395.409 548.791 395.473 548.61 395.472ZM547.201 389.558C547.038 390.188 547.01 391.035 547.244 391.848C547.409 392.418 547.761 393.166 548.515 393.73C549.073 393.168 550.049 392.042 550.382 390.769L547.201 389.558Z" fill="#3375E0"/>
<path d="M494.376 423.358C494.477 428.675 497.488 444.327 501.001 447.939C507.123 447.939 506.119 454.46 495.882 453.557C489.717 453.013 478.117 436.601 476.21 425.364" fill="#A8CFFB"/>
<path d="M497.737 454.413C497.095 454.412 496.454 454.383 495.814 454.326C489.208 453.743 477.408 437.037 475.449 425.493C475.415 425.291 475.462 425.084 475.581 424.917C475.699 424.75 475.879 424.637 476.081 424.603C476.283 424.569 476.49 424.616 476.657 424.734C476.824 424.853 476.937 425.033 476.972 425.235C477.844 430.377 480.876 437.029 485.082 443.027C489.078 448.727 493.344 452.558 495.95 452.788C500.555 453.194 503.05 452.029 503.789 450.908C503.97 450.632 504.138 450.215 503.909 449.789C503.628 449.268 502.716 448.71 501.001 448.71C500.898 448.71 500.796 448.69 500.7 448.649C500.605 448.609 500.519 448.55 500.447 448.476C496.695 444.619 493.708 428.868 493.605 423.372C493.601 423.167 493.679 422.97 493.821 422.822C493.963 422.675 494.158 422.59 494.362 422.586H494.377C494.579 422.586 494.774 422.665 494.918 422.807C495.062 422.948 495.145 423.141 495.149 423.343C495.254 428.936 498.226 443.472 501.35 447.173C503.24 447.247 504.658 447.924 505.269 449.057C505.723 449.9 505.654 450.884 505.079 451.756C503.955 453.463 501.276 454.413 497.738 454.413L497.737 454.413Z" fill="#3375E0"/>
<path d="M404.443 411.642C401.798 417.591 388.334 427.251 375.007 423.358C375.007 423.358 371.93 437.642 365.648 436.541C365.648 436.541 363.334 421.227 366.971 412.413L373.473 412.854C373.473 412.854 371.746 400.282 378.211 391.03" fill="#A8CFFB"/>
<path d="M366.339 437.374C366.071 437.374 365.796 437.35 365.515 437.301C365.356 437.273 365.209 437.196 365.096 437.08C364.983 436.964 364.909 436.816 364.885 436.656C364.789 436.022 362.581 421.028 366.257 412.119C366.319 411.969 366.426 411.843 366.563 411.757C366.701 411.672 366.862 411.632 367.023 411.643L372.609 412.022C372.338 408.882 371.968 398.616 377.578 390.588C377.695 390.42 377.874 390.305 378.076 390.27C378.278 390.234 378.485 390.28 378.653 390.397C378.821 390.514 378.935 390.693 378.971 390.895C379.007 391.096 378.961 391.304 378.844 391.472C372.634 400.36 374.222 412.626 374.239 412.749C374.27 412.979 374.196 413.211 374.038 413.381C373.879 413.55 373.652 413.642 373.421 413.624L367.482 413.222C364.633 420.814 365.967 433 366.331 435.827C370.58 435.805 373.472 426.813 374.252 423.195C374.275 423.092 374.318 422.994 374.38 422.907C374.442 422.821 374.521 422.749 374.612 422.694C374.703 422.64 374.805 422.605 374.91 422.592C375.015 422.578 375.122 422.587 375.224 422.617C380.88 424.27 387.33 423.518 393.386 420.5C398.953 417.726 402.597 413.895 403.738 411.328C403.824 411.147 403.979 411.007 404.167 410.937C404.356 410.868 404.565 410.874 404.748 410.956C404.932 411.038 405.077 411.188 405.152 411.375C405.226 411.561 405.225 411.77 405.149 411.956C403.643 415.343 399.193 419.332 394.075 421.882C387.946 424.936 381.411 425.788 375.575 424.312C374.83 427.281 371.889 437.374 366.339 437.374Z" fill="#3375E0"/>
<path d="M403.282 386.467C395.194 380.977 379.58 375.7 378.339 353.748C372.864 367.181 378.463 379.173 384.683 385.29L383.653 385.892" fill="#A8CFFB"/>
<path d="M403.281 387.239C403.132 387.239 402.98 387.196 402.848 387.106C401.606 386.263 400.165 385.414 398.638 384.515C390.753 379.869 380.147 373.62 377.912 357.379C374.69 368.997 379.605 379.213 385.224 384.74C385.309 384.823 385.373 384.924 385.412 385.036C385.451 385.148 385.463 385.268 385.449 385.385C385.434 385.503 385.392 385.616 385.327 385.715C385.262 385.814 385.175 385.896 385.072 385.956L384.043 386.558C383.956 386.609 383.859 386.643 383.758 386.657C383.658 386.671 383.556 386.664 383.458 386.639C383.359 386.613 383.267 386.568 383.187 386.507C383.106 386.446 383.038 386.369 382.987 386.282C382.935 386.194 382.902 386.097 382.888 385.997C382.874 385.897 382.881 385.794 382.906 385.696C382.932 385.598 382.977 385.506 383.038 385.426C383.099 385.345 383.176 385.277 383.263 385.226L383.439 385.123C377.257 378.561 372.248 366.646 377.624 353.457C377.69 353.295 377.809 353.16 377.962 353.075C378.115 352.989 378.293 352.959 378.466 352.987C378.639 353.016 378.797 353.103 378.914 353.233C379.031 353.364 379.1 353.53 379.11 353.705C380.134 371.82 391.282 378.389 399.422 383.185C400.971 384.097 402.433 384.959 403.716 385.829C403.852 385.922 403.955 386.056 404.01 386.212C404.065 386.368 404.068 386.537 404.019 386.695C403.971 386.853 403.873 386.991 403.74 387.089C403.607 387.187 403.446 387.24 403.281 387.239Z" fill="#3375E0"/>
<path d="M517.741 383.506C518.48 383.321 518.901 382.457 518.681 381.578C518.46 380.698 517.683 380.134 516.943 380.319C516.204 380.504 515.783 381.367 516.003 382.247C516.223 383.127 517.001 383.69 517.741 383.506Z" fill="#3375E0"/>
<path d="M530.639 400.555C530.619 400.555 530.599 400.554 530.578 400.553C524.196 400.053 519.472 395.929 518.267 392.302C518.207 392.109 518.225 391.9 518.318 391.721C518.41 391.541 518.57 391.405 518.761 391.341C518.953 391.277 519.163 391.291 519.344 391.38C519.526 391.469 519.665 391.625 519.733 391.815C520.63 394.518 524.626 398.538 530.699 399.013C530.897 399.031 531.08 399.124 531.211 399.272C531.342 399.421 531.411 399.615 531.403 399.813C531.395 400.011 531.312 400.198 531.17 400.336C531.028 400.475 530.838 400.553 530.64 400.555L530.639 400.555Z" fill="#3375E0"/>
<path d="M519 401.447C507.097 407.367 490.502 400.926 482.374 390.425C480.887 391.898 479.312 393.171 477.626 394.19C486.239 405.32 506.951 412.322 515.961 406.3C517.068 404.697 518.085 403.08 519 401.447Z" fill="white"/>
<path d="M507.242 409.3C503.977 409.3 500.3 408.672 496.406 407.412C488.449 404.836 481.2 400.07 477.015 394.662C476.949 394.576 476.901 394.477 476.875 394.371C476.85 394.265 476.847 394.155 476.867 394.048C476.887 393.941 476.929 393.84 476.991 393.75C477.053 393.661 477.133 393.585 477.227 393.529C478.785 392.588 480.334 391.359 481.83 389.877C481.907 389.799 482.001 389.739 482.103 389.701C482.206 389.663 482.315 389.647 482.425 389.655C482.534 389.662 482.64 389.692 482.737 389.744C482.833 389.795 482.918 389.866 482.985 389.952C490.689 399.906 506.862 406.622 518.656 400.755C518.804 400.682 518.971 400.658 519.134 400.686C519.296 400.715 519.445 400.795 519.559 400.914C519.673 401.033 519.745 401.186 519.766 401.35C519.787 401.514 519.754 401.679 519.674 401.823C518.77 403.437 517.735 405.09 516.597 406.738C516.541 406.818 516.471 406.887 516.39 406.941C514.042 408.511 510.9 409.3 507.242 409.3ZM478.768 394.381C487.611 405.049 507.044 411.146 515.41 405.738C516.021 404.85 516.6 403.962 517.143 403.08C511.809 405.015 505.473 404.942 499.03 402.828C492.476 400.678 486.427 396.599 482.299 391.57C481.146 392.651 479.963 393.593 478.768 394.381V394.381Z" fill="#3375E0"/>
<path d="M497.247 370.544C489.479 376.207 478.879 378.845 468.628 378.348C453.212 377.599 454.753 395.724 469.368 394.366C484.695 392.941 494.547 385.738 500.609 380.316" fill="#A8CFFB"/>
<path d="M467.835 395.21C463.615 395.21 460.189 393.577 458.288 390.609C456.612 387.99 456.501 384.758 457.998 382.175C459.83 379.013 463.717 377.333 468.665 377.577C479.167 378.083 489.418 375.296 496.792 369.92C496.874 369.86 496.967 369.817 497.065 369.793C497.164 369.77 497.266 369.765 497.366 369.781C497.466 369.797 497.562 369.832 497.649 369.885C497.736 369.938 497.811 370.007 497.871 370.089C497.93 370.171 497.973 370.264 497.997 370.362C498.021 370.461 498.025 370.563 498.01 370.663C497.994 370.763 497.959 370.859 497.906 370.946C497.853 371.032 497.784 371.108 497.702 371.167C490.049 376.747 479.44 379.646 468.59 379.118C464.241 378.909 460.867 380.303 459.334 382.949C458.128 385.03 458.226 387.647 459.589 389.776C461.402 392.609 464.938 394.002 469.296 393.597C484.608 392.174 494.206 385.007 500.093 379.74C500.246 379.606 500.446 379.537 500.649 379.549C500.852 379.562 501.042 379.653 501.178 379.805C501.314 379.957 501.384 380.156 501.374 380.359C501.364 380.562 501.274 380.753 501.123 380.89C495.073 386.303 485.206 393.669 469.439 395.134C468.894 395.185 468.358 395.21 467.835 395.21V395.21Z" fill="#3375E0"/>
</g>
<defs>
<clipPath id="clip0_5638_4773">
<rect width="218.596" height="148.039" fill="white" transform="translate(262.109 244.586)"/>
</clipPath>
<clipPath id="clip1_5638_4773">
<rect width="321.328" height="427.382" fill="white" transform="translate(15.1909 30.6377)"/>
</clipPath>
<clipPath id="clip2_5638_4773">
<rect width="38.8786" height="50.4619" fill="white" transform="translate(51.2373 106.073)"/>
</clipPath>
<clipPath id="clip3_5638_4773">
<rect width="32.9567" height="29.3503" fill="white" transform="translate(42.998 124.867)"/>
</clipPath>
<clipPath id="clip4_5638_4773">
<rect width="204.435" height="101.439" fill="white" transform="translate(347.59 352.976)"/>
</clipPath>
</defs>
</svg>
