<svg width="57" height="64" viewBox="0 0 57 64" fill="none" xmlns="http://www.w3.org/2000/svg">
<path d="M14.6843 0.00213815C14.1787 0.00831716 13.6883 0.027519 13.2157 0.0603256C9.54565 0.314267 6.50438 1.40467 5.81207 3.7483C5.11976 6.09336 7.10495 8.64796 10.0487 10.8001C11.6688 11.9889 13.6895 13.1406 15.9977 14.1805L17.07 13.1054C14.6341 12.0442 12.5297 10.863 10.8855 9.65572C7.92046 7.48374 6.77533 5.49632 7.17255 4.15285C7.57262 2.80086 9.61419 1.73158 13.3155 1.47622C16.8919 1.22795 21.6119 1.78325 26.6155 3.22462C31.6163 4.66315 35.8996 6.7039 38.7767 8.81062C41.7417 10.9826 42.8868 12.97 42.4896 14.3135C42.2442 15.1377 41.3921 15.8591 39.9238 16.3528C40.0515 16.7898 40.287 17.1995 40.6331 17.5443C40.6459 17.5599 40.6591 17.5744 40.6747 17.5886C42.2863 16.9899 43.4501 16.0587 43.8473 14.718C44.5396 12.3716 42.5544 9.81838 39.6135 7.66626C36.569 5.43754 32.1261 3.33678 27.0062 1.86137C22.5274 0.571622 18.2233 -0.0411146 14.6843 0.00213815ZM42.6254 1.4402C41.3707 1.37122 40.0599 1.72795 38.6271 2.2188L35.1497 3.41858C37.167 4.38327 38.9592 5.43372 40.4503 6.52468C42.0491 7.69366 43.3957 8.97955 44.2796 10.3429C44.6356 10.8933 44.9384 11.4959 45.1413 12.1328C45.3115 12.2577 45.4743 12.398 45.6289 12.5512C47.2845 14.2082 47.2845 16.8945 45.6289 18.5501C43.9719 20.2057 41.2857 20.2057 39.6301 18.5501C37.9745 16.8959 37.9745 14.2082 39.6301 12.5512C39.823 12.3583 40.0281 12.1862 40.248 12.0386C39.7174 11.4073 38.9529 10.7025 37.9371 9.95774C35.7737 8.37593 32.7147 6.79451 29.0843 5.50778L28.713 5.63524C26.1665 6.45807 23.6597 8.52449 20.9685 11.2157L1.71955 30.4647C-0.531871 32.7133 -0.579064 36.3275 1.61703 38.525L19.6524 56.5576C21.8513 58.7537 25.4627 58.7079 27.7127 56.4579L46.9617 37.2144C49.6529 34.5232 51.7179 32.0108 52.5422 29.4672L55.9558 19.5504C56.939 16.6847 57.3871 14.3122 54.9583 11.8835L46.2939 3.21908C45.0789 2.00399 43.88 1.50918 42.6254 1.4402ZM24.119 18.4531C27.2514 18.4531 29.7964 20.9954 29.7964 24.1278C29.7964 27.2602 27.25 29.8024 24.119 29.8024C20.9866 29.8024 18.4415 27.2602 18.4415 24.1278C18.4415 20.9954 20.9866 18.4531 24.119 18.4531ZM25.5349 21.2904C25.1717 21.2904 24.8092 21.4287 24.5318 21.7061L21.6945 24.5434C21.1398 25.0981 21.1398 25.9948 21.6945 26.5495C22.2492 27.1042 23.1459 27.1042 23.7006 26.5495L26.5379 23.7122C27.0926 23.1575 27.0926 22.2608 26.5379 21.7061C26.2606 21.4287 25.898 21.2904 25.5349 21.2904ZM36.3827 28.0125L38.3029 29.8024L14.1855 38.3144L12.2653 36.5245L36.3827 28.0125ZM6.69874 29.5364C6.8009 29.5266 6.88827 29.5503 6.9592 29.6113C7.51532 30.0879 7.17657 32.066 6.00049 34.0252C7.73694 36.4767 10.4867 41.2205 9.94339 41.6007C9.26101 42.0773 4.84669 37.0072 3.12159 34.9119C2.69883 34.3444 2.7742 33.6777 3.23243 33.0748C4.56065 31.3022 5.98365 29.6054 6.69874 29.5364ZM25.5404 36.8958C28.6728 36.8958 31.2151 39.438 31.2151 42.5704C31.2151 45.7029 28.6728 48.2451 25.5404 48.2451C22.408 48.2451 19.863 45.7029 19.863 42.5704C19.863 39.438 22.408 36.8958 25.5404 36.8958ZM26.9563 39.7331C26.5931 39.7331 26.2306 39.8714 25.9533 40.1487L23.1159 42.9861C22.5612 43.5408 22.5612 44.4375 23.1159 44.9922C23.6692 45.5469 24.5673 45.5469 25.122 44.9922L27.9593 42.1548C28.514 41.6001 28.514 40.7034 27.9593 40.1487C27.682 39.8714 27.3195 39.7331 26.9563 39.7331ZM24.1162 62.4346C18.2543 62.4346 2.8362 62.7453 2.8362 63.1411C2.8362 63.5355 18.2543 63.8504 24.1162 63.8504C31.1514 63.8504 49.6522 63.5355 49.6522 63.1411C49.6522 62.7453 31.1514 62.4346 24.1162 62.4346Z" fill="#00B2FF"/>
</svg>
