<svg width="43" height="64" viewBox="0 0 43 64" fill="none" xmlns="http://www.w3.org/2000/svg">
<path fill-rule="evenodd" clip-rule="evenodd" d="M0 63.84V58.1469C0 56.5963 1.26403 55.328 2.81605 55.328H39.7425C41.296 55.328 42.5586 56.5949 42.5586 58.1469V63.84H0ZM16.519 60.1132C16.5941 59.3755 6.8777 58.2405 4.34821 58.1653C3.56369 58.1086 2.88841 58.6945 2.84017 59.4889C2.7891 60.265 3.38068 60.9261 4.16379 60.9828C6.87628 61.0396 16.4353 60.9459 16.519 60.1132ZM5.67325 53.8895C5.67325 51.5444 7.57426 49.6519 9.91364 49.6519H13.4773C13.8675 49.6519 14.1867 49.3299 14.1867 48.9327C14.1867 48.5539 13.8675 48.2332 13.4773 48.2332H11.3493V37.5833C11.3493 37.2045 11.0301 36.8839 10.64 36.8839C10.2484 36.8839 9.93067 37.206 9.93067 37.5833V40.0802C9.92641 40.0802 9.92357 40.0617 9.91932 40.0617L7.07489 37.9238C6.32016 37.3563 5.67467 36.4101 5.67467 35.4653V17.7234C5.67467 7.94453 13.6235 0 23.408 0C27.2611 0 30.829 1.22998 33.7359 3.32961C34.6424 3.95382 34.5474 5.1072 33.9927 5.65622L32.2108 7.43381L30.8603 6.09034C30.5822 5.8066 30.1339 5.8066 29.8558 6.09034C29.5792 6.37407 29.5792 6.8096 29.8558 7.09333L41.13 18.3675C44.0907 21.3183 41.8663 23.9854 39.6659 26.1418C39.063 26.6908 38.0373 27.5037 36.9662 26.4255L34.6623 24.1173H27.664C24.1414 24.1173 21.28 21.2616 21.28 17.7234C21.28 17.3446 20.9608 17.024 20.5707 17.024C20.1791 17.024 19.8613 17.346 19.8613 17.7234C19.8613 21.8092 22.9781 25.1388 26.9532 25.4977L26.9547 28.9975L31.4845 33.5188C33.0634 35.1077 34.048 36.9619 34.048 39.7227C34.048 41.8407 32.5087 43.6382 31.2107 45.3973V48.2347H29.0827C28.6911 48.2347 28.3733 48.5567 28.3733 48.9341C28.3733 49.3313 28.6911 49.6533 29.0827 49.6533H32.6449C34.9843 49.6533 36.8853 51.5444 36.8853 53.8909L5.67325 53.8895ZM15.1868 8.11477C15.7486 7.56575 15.7614 6.6578 15.2195 6.1102C14.6761 5.54273 13.7781 5.52429 13.2149 6.07189C6.53154 12.541 8.69217 18.5746 9.47669 18.5562C10.2598 18.5363 10.3889 12.7481 15.1868 8.11477Z" fill="#00B2FF"/>
</svg>
