<svg width="185" height="16" viewBox="0 0 185 16" fill="none" xmlns="http://www.w3.org/2000/svg">
<path d="M1 7C0.447715 7 -4.82823e-08 7.44772 0 8C4.82823e-08 8.55228 0.447715 9 1 9L1 7ZM184.707 8.70709C185.098 8.31657 185.098 7.6834 184.707 7.29288L178.343 0.928917C177.953 0.538392 177.319 0.538392 176.929 0.928917C176.538 1.31944 176.538 1.95261 176.929 2.34313L182.586 7.99998L176.929 13.6568C176.538 14.0474 176.538 14.6805 176.929 15.0711C177.319 15.4616 177.953 15.4616 178.343 15.0711L184.707 8.70709ZM1 9L184 8.99998L184 6.99998L1 7L1 9Z" fill="#C9D5E8"/>
</svg>
