<svg width="336" height="281" viewBox="0 0 336 281" fill="none" xmlns="http://www.w3.org/2000/svg">
<path d="M129.721 18.3701H39.3809C27.0909 18.3701 17.1279 28.7021 17.1279 41.4473V41.4473C17.1279 54.1925 27.0909 64.5245 39.3809 64.5245H129.721C142.011 64.5245 151.974 54.1925 151.974 41.4473C151.974 28.7021 142.011 18.3701 129.721 18.3701Z" fill="white"/>
<path d="M119.48 18.3701H119.48C107.19 18.3701 97.2266 28.7021 97.2266 41.4473V41.4473C97.2266 54.1925 107.19 64.5245 119.48 64.5245H119.48C131.77 64.5245 141.733 54.1925 141.733 41.4473V41.4473C141.733 28.7021 131.77 18.3701 119.48 18.3701Z" fill="#FF5A48"/>
<path d="M266.402 102.456C266.361 102.968 266.081 103.196 265.597 103.261C265.056 103.334 264.503 103.212 263.979 103.09C262.859 102.829 261.418 102.359 260.401 103.155C259.894 103.551 259.611 104.202 259.772 104.858C259.908 105.416 260.299 105.91 260.656 106.336C261.396 107.219 262.352 107.864 263.401 108.279C263.737 108.412 264.13 108.132 264.219 107.798C264.321 107.41 264.091 107.084 263.755 106.951C262.885 106.606 262.125 106.016 261.528 105.28C261.371 105.087 260.921 104.611 261.106 104.339C261.338 103.998 261.969 104.089 262.296 104.132C263.41 104.279 264.484 104.755 265.626 104.635C266.163 104.578 266.681 104.413 267.093 104.036C267.541 103.626 267.683 103.05 267.73 102.456C267.76 102.085 267.404 101.768 267.066 101.768C266.682 101.768 266.432 102.084 266.402 102.456Z" fill="#0D1339"/>
<path d="M81.6537 138.289C83.6465 139.386 85.6392 140.483 87.632 141.58C90.8063 143.328 93.9805 145.076 97.1547 146.824C97.8806 147.223 98.6065 147.623 99.3324 148.023C100.465 148.646 101.473 146.863 100.338 146.238C98.3454 145.141 96.3527 144.044 94.3599 142.947C91.1856 141.199 88.0114 139.451 84.8372 137.703C84.1113 137.304 83.3854 136.904 82.6595 136.504C81.5273 135.881 80.5193 137.664 81.6537 138.289Z" fill="#0D1339"/>
<path d="M76.6001 146.047C78.8039 147.115 81.0076 148.183 83.2113 149.251C86.7227 150.952 90.2342 152.654 93.7456 154.356C94.5501 154.746 95.3547 155.135 96.1593 155.525C96.6465 155.761 97.2335 155.667 97.5225 155.155C97.775 154.707 97.6548 153.978 97.1651 153.741C94.9613 152.673 92.7576 151.605 90.5539 150.537C87.0425 148.835 83.531 147.134 80.0196 145.432C79.2151 145.042 78.4105 144.652 77.6059 144.262C77.1187 144.026 76.5317 144.121 76.2427 144.633C75.9902 145.081 76.1104 145.81 76.6001 146.047Z" fill="#0D1339"/>
<path d="M70.3561 157.598C70.9127 156.394 71.9632 155.571 73.1094 155.408C73.8558 155.302 74.5053 155.424 75.1502 155.737C76.1616 156.229 77.1688 156.73 78.1781 157.226C81.6644 158.939 85.1506 160.653 88.6369 162.366C89.5426 162.811 90.4483 163.256 91.354 163.702C91.84 163.94 92.4292 163.842 92.7173 163.331C92.971 162.881 92.8482 162.157 92.3598 161.917C89.8361 160.677 87.3123 159.436 84.7886 158.196C81.9086 156.78 79.0328 155.355 76.1485 153.949C75.0411 153.409 73.8882 153.199 72.6738 153.403C70.9358 153.694 69.3949 154.913 68.6355 156.555C68.4029 157.058 68.502 157.671 68.9929 157.968C69.4284 158.233 70.1224 158.103 70.3561 157.598Z" fill="#0D1339"/>
<path d="M152.855 41.2406C155.447 38.755 158.323 36.5514 161.914 36.4491C164.449 36.3769 166.686 38.5944 168.498 40.2745C173.372 44.7946 178.164 49.3911 182.609 54.4125C192.67 65.7792 201.564 78.435 210.146 91.1222C214.546 97.6255 218.771 104.275 222.602 111.191C226.291 117.85 229.964 124.79 231.771 132.362C232.653 136.059 233.261 139.852 234.544 143.424C235.242 145.364 236.358 147.442 238.199 148.325C240.043 149.208 241.49 147.872 241.84 145.895C242.194 143.898 241.995 141.59 240.89 139.89C238.834 136.726 234.711 136.472 231.476 136.814C227.782 137.204 224.056 138.309 220.714 140.068C216.13 142.48 212.431 147.506 210.833 152.687C210.35 154.255 210.067 155.921 210.049 157.576C210.029 159.439 210.392 161.278 210.614 163.118C210.866 165.21 210.906 167.293 210 169.218C209.301 170.705 208.321 172.044 207.4 173.375C200.74 182.994 192.528 191.237 183.851 198.681C175.061 206.223 165.733 212.987 156.529 219.913C147.432 226.759 138.394 233.772 130.145 241.802C121.972 249.759 114.621 258.788 109.09 269.111C107.414 272.239 105.836 275.475 105.033 279.007C104.728 280.348 106.638 280.92 106.943 279.578C107.757 275.998 109.403 272.753 111.122 269.599C112.483 267.102 113.952 264.674 115.515 262.321C118.671 257.57 122.228 253.142 126.033 248.991C133.621 240.712 142.174 233.565 150.923 226.797C159.824 219.911 168.96 213.387 177.773 206.368C186.429 199.475 194.817 192.092 202.123 183.53C203.965 181.371 205.736 179.14 207.419 176.835C209.155 174.458 211.195 171.965 212.201 169.107C213.492 165.437 212.088 161.685 212.031 157.948C211.979 154.555 213.222 151.296 214.963 148.53C217.434 144.606 220.724 142.062 224.817 140.578C228.197 139.353 232.113 138.341 235.686 139.028C237.072 139.295 238.514 139.872 239.321 141.199C239.739 141.887 239.938 142.701 239.991 143.516C240.03 144.116 240.176 146.178 239.475 146.481C239.074 146.653 238.422 145.991 238.174 145.743C237.432 145.002 236.905 144.059 236.527 143.054C235.219 139.578 234.625 135.836 233.78 132.212C232.088 124.954 228.751 118.296 225.28 111.875C221.624 105.113 217.578 98.6068 213.345 92.2547C205.087 79.8629 196.451 67.5682 186.929 56.2765C182.345 50.8402 177.435 45.8776 172.307 41.0562C170.436 39.2967 168.632 37.4292 166.542 35.9665C164.234 34.3506 161.996 33.9913 159.304 34.6648C156.272 35.4234 153.741 37.5312 151.454 39.7236C150.497 40.6407 151.903 42.1533 152.855 41.2406Z" fill="#0D1339"/>
<path d="M257.116 135.007C258.537 135.7 260.696 136.74 260.96 138.575C261.179 140.094 258.839 140.886 259.225 138.975C259.413 138.049 260.519 137.158 261.034 136.365C261.524 135.611 261.923 134.793 262.214 133.934C262.721 132.443 262.782 130.834 262.465 129.292C261.669 125.418 258.63 123.005 256.859 119.688C255.133 116.454 254.632 112.618 255.344 109.006C256.737 101.934 261.839 95.8285 267.635 92.11C269.08 91.1832 270.596 90.3653 272.164 89.6859C273.872 88.9457 275.486 88.0734 277.146 87.2285C280.766 85.3865 284.78 85.7032 288.563 86.8818C292.192 88.0123 295.86 90.0375 298.237 93.174C300.631 96.3337 301.284 100.485 300.913 104.4C300.092 113.068 294.424 120.261 291.326 128.11C289.906 131.71 288.766 135.494 290.899 139.039C291.821 140.57 293.045 141.885 294.25 143.175C294.794 143.758 295.357 144.607 296.076 144.94C296.196 144.995 296.333 145.024 296.456 145.072C296.582 145.121 296.707 145.173 296.831 145.224C296.608 145.132 296.887 145.246 297.109 145.355C299.545 146.558 301.22 148.001 302.974 150.189C305.79 153.701 307.498 158.499 308.276 163.189C309.657 171.523 308.574 180.225 306.805 188.399C303.728 202.619 298.259 216.246 292.143 229.317C289.37 235.243 285.649 240.764 281.823 246.011C278.602 250.428 275.098 254.635 271.28 258.508C265.012 264.868 257.82 270.319 249.738 273.924C242.845 276.997 235.383 278.588 227.883 278.613C220.451 278.639 213.092 277.166 206.061 274.715C198.695 272.148 191.703 268.52 185.083 264.319C178.168 259.931 171.644 254.903 165.444 249.493C159.216 244.058 153.304 238.239 147.649 232.171C142.374 226.511 137.321 220.629 132.461 214.583C128.319 209.429 124.316 204.155 120.453 198.773C117.582 194.772 114.785 190.713 112.08 186.591C110.703 184.493 109.344 182.382 108.036 180.237C107.946 180.09 107.866 179.926 107.763 179.788C107.446 179.361 107.025 179.219 106.55 179.003C104.668 178.151 102.791 177.288 100.919 176.414C94.2407 173.293 87.6444 169.992 81.0285 166.733C79.32 165.891 77.6099 165.053 75.8974 164.22C74.9691 163.769 74.04 163.319 73.1102 162.871C72.3466 162.503 71.5749 162.179 71.0068 161.507C68.5873 158.647 71.3812 154.543 74.7833 155.583C75.8398 155.906 76.5945 154.196 75.5511 153.694C73.9621 152.931 72.7536 151.522 73.0052 149.586C73.2839 147.441 75.3055 146.093 77.3035 146.514C78.4246 146.75 79.0103 145.298 78.0713 144.625C75.2257 142.585 76.5856 137.818 80.1131 137.903C81.4481 137.936 82.7252 138.881 83.8689 139.512C86.6971 141.073 89.5251 142.634 92.3533 144.194C93.518 144.837 94.3527 143.199 93.3591 142.41C90.9717 140.514 88.5842 138.618 86.1969 136.722C85.2438 135.965 84.232 135.25 83.3212 134.438C81.1451 132.499 81.8408 128.642 84.7616 127.973C87.1759 127.42 89.6462 130.179 91.3997 131.572C94.4746 134.014 97.5495 136.456 100.624 138.897C102.74 140.578 104.855 142.258 106.971 143.938C107.63 144.461 108.414 143.727 108.47 143.045C108.651 140.86 108.832 138.674 109.013 136.489C109.106 135.377 109.143 134.224 109.6 133.194C110.32 131.576 112.018 130.907 113.67 131.183C115.729 131.527 116.898 133.339 116.988 135.386C117.065 137.131 117.321 138.861 117.766 140.547C118.685 144.026 120.303 147.292 122.199 150.301C130.618 163.663 143.666 172.611 154.342 183.793C166.328 196.347 177.279 210.441 191.877 219.915C204.555 228.143 221.306 233.075 235.5 226.013C248.186 219.701 254.057 205.355 253.651 191.319C253.592 189.29 253.402 187.272 253.137 185.261C252.964 183.95 251.044 184.508 251.215 185.811C253.082 199.977 249.053 215.653 236.442 223.166C222.767 231.312 205.741 226.39 193.176 218.32C178.485 208.885 167.559 194.639 155.51 182.079C144.857 170.975 131.692 162.055 123.511 148.597C121.645 145.527 120.097 142.211 119.37 138.642C119.03 136.97 119.194 135.175 118.751 133.542C118.253 131.709 116.913 130.199 115.211 129.503C111.976 128.182 108.379 129.879 107.43 133.36C106.803 135.661 106.869 138.32 106.673 140.686C106.608 141.472 106.542 142.259 106.477 143.045L107.977 142.153C102.666 137.936 97.3555 133.718 92.045 129.501C89.6271 127.581 87.145 124.946 83.7948 126.113C80.9355 127.11 79.3388 130.398 80.2891 133.371C80.8387 135.091 82.1197 136.067 83.4324 137.11C86.4061 139.471 89.3796 141.833 92.3533 144.194C92.6885 143.599 93.0238 143.005 93.3591 142.41C90.7049 140.945 88.0509 139.48 85.3967 138.016C84.417 137.475 83.4491 136.879 82.4402 136.397C80.038 135.25 77.0847 135.964 75.5242 138.213C73.6352 140.936 74.4907 144.564 77.0654 146.409C77.3213 145.78 77.5773 145.15 77.8332 144.521C74.9074 143.904 71.8768 145.582 71.1442 148.697C70.4628 151.595 72.0325 154.271 74.5453 155.479C74.8012 154.849 75.0571 154.22 75.3131 153.59C72.2045 152.64 68.8006 154.561 68.1899 157.951C67.9218 159.439 68.2455 161.022 69.0682 162.273C70.1414 163.905 71.8585 164.535 73.5188 165.338C80.5308 168.733 87.4856 172.254 94.505 175.633C96.3032 176.498 98.1058 177.354 99.9132 178.198C100.854 178.638 101.797 179.075 102.74 179.509C103.785 179.989 104.979 180.372 105.959 180.976C106.039 181.025 105.93 180.743 106.061 180.862C106.118 180.914 106.136 181.015 106.188 181.072C106.718 181.649 107.097 182.549 107.515 183.214C109.562 186.468 111.683 189.673 113.849 192.842C117.292 197.882 120.86 202.831 124.537 207.69C129.131 213.76 133.905 219.685 138.876 225.428C144.406 231.816 150.181 237.982 156.254 243.818C162.481 249.804 169.028 255.452 175.959 260.543C182.708 265.501 189.847 269.939 197.416 273.418C204.635 276.735 212.219 279.171 220.069 280.183C227.752 281.174 235.602 280.675 243.071 278.532C251.366 276.152 258.988 271.805 265.738 266.312C274.301 259.344 281.417 250.596 287.525 241.298C289.346 238.525 291.288 235.693 292.757 232.701C294.793 228.554 296.662 224.304 298.458 220.04C301.401 213.054 304.073 205.934 306.229 198.642C309.102 188.927 311.276 178.625 310.799 168.404C310.525 162.529 309.316 156.504 306.287 151.455C304.537 148.538 302.177 145.958 299.303 144.219C298.555 143.767 297.777 143.41 296.976 143.075C296.867 143.03 296.694 143.014 296.598 142.945C297.018 143.247 296.365 142.471 296.253 142.35C295.605 141.65 294.945 140.963 294.316 140.244C293.085 138.835 291.761 137.156 291.633 135.176C291.494 133.048 292.413 130.798 293.168 128.863C294.01 126.703 295.039 124.625 296.089 122.568C298.113 118.603 300.263 114.672 301.64 110.401C304.131 102.68 303.316 93.9901 296.705 88.8051C293.624 86.3892 289.837 84.7892 286.03 84.1573C284.138 83.8433 282.204 83.7243 280.3 83.9917C278.442 84.2528 276.764 85.0971 275.118 85.9862C271.843 87.7541 268.398 89.0169 265.333 91.2019C262.504 93.2192 260.01 95.6749 257.955 98.5285C253.651 104.506 251.459 112.288 254.497 119.387C256.059 123.037 259.505 125.58 260.47 129.518C260.905 131.292 260.594 133.066 259.722 134.644C258.801 136.31 256.97 137.548 257.22 139.677C257.587 142.811 261.234 142.889 262.579 140.428C264.357 137.174 260.502 134.383 258.121 133.223C256.967 132.66 255.954 134.441 257.116 135.007Z" fill="#0D1339"/>
<path d="M125.435 27.2296C124.069 28.3864 122.703 29.5431 121.337 30.6999C120.647 31.2845 120.211 31.7473 119.379 32.0018C117.941 32.4419 116.354 31.891 115.496 30.603C114.644 29.3246 114.671 27.5754 115.582 26.335C115.914 25.8836 116.091 25.767 116.503 25.4374C117.637 24.5306 118.772 23.6238 119.906 22.7169C123.444 19.8889 126.981 17.0609 130.519 14.2328C131.563 13.3982 132.607 12.5635 133.651 11.7289C134.626 10.95 135.778 10.4143 136.806 9.7133C143.669 5.03438 151.725 1.70046 160.055 2.06243C164.453 2.25353 168.724 3.56308 172.792 5.23777C174.828 6.07572 176.84 6.99983 178.811 7.9911C180.586 8.88415 182.281 10.0208 183.974 11.0711C190.782 15.2954 197.362 19.9146 203.686 24.8829C209.966 29.8169 215.986 35.1091 221.736 40.6936C227.523 46.3135 233.036 52.2366 238.259 58.4214C243.482 64.6049 248.414 71.0493 253.041 77.7232C254.17 79.3511 255.279 80.9928 256.373 82.6464C257.094 83.7365 258.821 82.7041 258.094 81.6034C253.449 74.5785 248.485 67.7789 243.211 61.2488C237.942 54.7257 232.361 48.4732 226.482 42.5367C220.607 36.6034 214.434 30.9856 207.984 25.7327C201.524 20.4714 194.798 15.564 187.815 11.0771C186.068 9.95436 184.305 8.85768 182.527 7.7879C180.634 6.64884 178.713 5.64937 176.712 4.72843C172.535 2.80597 168.211 1.10076 163.674 0.37625C154.978 -1.01261 146.309 1.57044 138.773 6.03587C137.443 6.82393 136.178 7.71603 134.864 8.52948C134.201 8.9395 133.501 9.31546 132.866 9.76858C132.019 10.3721 131.225 11.0797 130.412 11.7299C126.8 14.6175 123.188 17.505 119.576 20.3926C118.282 21.427 116.988 22.4614 115.694 23.4957C115.469 23.6752 115.244 23.8532 115.02 24.0343C113.648 25.1472 112.818 26.8883 112.882 28.7084C113.016 32.4927 116.807 35.244 120.269 33.8663C121.179 33.5043 121.879 32.8959 122.619 32.2692C123.51 31.5152 124.4 30.7612 125.29 30.0072C125.808 29.5685 126.326 29.1298 126.844 28.6911C127.838 27.8494 126.421 26.3948 125.435 27.2296Z" fill="#0D1339"/>
<path d="M257.204 122.094C257.204 122.094 262.95 129.528 273.605 129.525C271.027 132.015 261.668 131.514 261.668 131.514C261.668 131.514 261.686 128.806 260.48 126.781C259.274 124.756 257.184 122.107 257.204 122.094Z" fill="#0D1339"/>
<path d="M256.498 122.823C257.25 123.794 258.2 124.63 259.142 125.391C261.505 127.302 264.191 128.752 267.074 129.615C269.19 130.248 271.402 130.551 273.603 130.558L272.898 128.794C272.852 128.838 272.625 129.016 272.847 128.85C272.773 128.906 272.698 128.962 272.62 129.013C272.455 129.124 272.282 129.221 272.105 129.31C272.06 129.333 271.835 129.438 271.938 129.392C272.043 129.345 271.756 129.466 271.717 129.481C271.502 129.563 271.284 129.637 271.065 129.704C270.591 129.848 270.108 129.961 269.623 130.055C269.384 130.102 269.145 130.143 268.904 130.181C268.841 130.191 268.521 130.238 268.681 130.216C268.55 130.234 268.419 130.25 268.288 130.266C266.481 130.485 264.654 130.543 262.835 130.515C262.446 130.508 262.056 130.5 261.666 130.479C261.999 130.824 262.331 131.168 262.663 131.513C262.669 129.629 262.182 127.634 261.209 126.043C260.59 125.032 259.904 124.065 259.206 123.112C258.914 122.714 258.619 122.318 258.323 121.924C258.23 121.8 258.139 121.674 258.044 121.552C258.27 121.843 258.131 121.686 258.104 121.633C258.033 121.493 258.116 121.653 258.163 121.818C257.798 120.546 255.874 121.088 256.242 122.367C256.327 122.664 256.54 122.888 256.719 123.127C256.976 123.469 257.16 123.714 257.348 123.968C258.018 124.878 258.676 125.799 259.282 126.756C259.894 127.722 260.29 128.698 260.504 129.835C260.529 129.968 260.55 130.102 260.572 130.235C260.581 130.29 260.589 130.344 260.596 130.398C260.583 130.298 260.584 130.308 260.599 130.43C260.618 130.603 260.635 130.776 260.647 130.95C260.66 131.137 260.671 131.325 260.67 131.513C260.668 132.092 261.129 132.517 261.666 132.546C262.803 132.606 263.945 132.6 265.081 132.564C267.212 132.498 269.407 132.335 271.466 131.735C272.491 131.436 273.512 131.006 274.308 130.255C274.958 129.64 274.438 128.493 273.603 128.491C270.182 128.481 266.766 127.642 263.82 126.066C262.69 125.461 261.614 124.754 260.595 123.964C260.591 123.96 260.387 123.799 260.511 123.898C260.634 123.996 260.438 123.838 260.432 123.834C260.336 123.755 260.241 123.676 260.146 123.596C259.954 123.433 259.764 123.267 259.577 123.097C259.283 122.83 258.996 122.554 258.719 122.269C258.437 121.98 258.156 121.683 257.907 121.362C257.57 120.927 256.849 120.997 256.498 121.362C256.083 121.792 256.16 122.387 256.498 122.823Z" fill="#0D1339"/>
<path d="M146.601 8.84617C146.057 10.3181 145.513 11.79 144.969 13.2619C144.347 14.9442 143.404 16.7948 143.521 18.6409C143.756 22.3424 147.12 24.9796 150.617 24.2075C151.755 23.9561 153.127 23.2414 153.748 22.1784C154.123 21.5362 154.475 20.8783 154.838 20.2288C155.727 18.6394 156.616 17.05 157.505 15.4606H155.784C156.505 16.6645 157.313 17.8171 158.147 18.9381C159.747 21.0884 161.498 23.1611 163.628 24.7638C164.668 25.5465 165.881 26.2417 167.171 26.4216C167.704 26.4958 168.241 26.2891 168.397 25.6999C168.524 25.2187 168.238 24.5036 167.701 24.4288C167.464 24.3958 167.231 24.3467 167.002 24.2794C166.883 24.2446 166.765 24.2052 166.648 24.1623C166.596 24.1429 166.543 24.1217 166.491 24.1018C166.451 24.0862 166.412 24.07 166.373 24.0533C166.466 24.0946 166.479 24.1002 166.413 24.07C165.9 23.83 165.414 23.5374 164.949 23.2092C164.441 22.851 164.171 22.6258 163.669 22.1698C163.19 21.7338 162.731 21.2737 162.288 20.7984C161.436 19.8845 160.64 18.9148 159.884 17.9146C159.846 17.8638 159.807 17.8128 159.769 17.7618C159.871 17.8976 159.774 17.7689 159.756 17.7444C159.665 17.6217 159.575 17.4986 159.486 17.3751C159.334 17.1655 159.183 16.9546 159.034 16.7425C158.774 16.3711 158.518 15.9959 158.268 15.6171C158.007 15.2221 157.748 14.8244 157.505 14.4175C157.114 13.7649 156.167 13.7322 155.784 14.4175C155.079 15.6775 154.375 16.9375 153.67 18.1975C153.233 18.9796 152.795 19.7618 152.358 20.544C152.239 20.7558 152.12 20.9673 152.002 21.1796C151.986 21.2095 151.971 21.2431 151.951 21.271C152.134 21.0105 151.741 21.4195 151.682 21.4673C151.56 21.5654 151.41 21.6627 151.267 21.7492C150.201 22.3939 148.877 22.4769 147.774 21.95C146.589 21.3841 145.723 20.2059 145.537 18.9053C145.411 18.0213 145.626 17.2318 145.928 16.4141C146.203 15.6701 146.479 14.9261 146.754 14.182C147.343 12.5865 147.933 10.991 148.523 9.39548C148.716 8.87429 148.31 8.26201 147.827 8.1244C147.265 7.96433 146.795 8.32308 146.601 8.84617Z" fill="#0D1339"/>
<path d="M292.848 113.256C292.268 114.013 291.597 114.676 290.734 115.065C290.034 115.38 288.581 115.157 288.053 115.613C286.74 116.747 288.119 121.505 288.606 122.955C289.273 124.984 290.453 126.9 291.613 128.655C297.886 123.841 304.119 119.104 308.168 112.099C311.424 106.464 313.518 99.1079 311.426 92.6525C310.106 88.5822 309.421 84.4338 307.256 80.6556C305.121 76.9291 302.142 73.7126 298.593 71.415C291.626 66.9055 282.667 65.9748 274.898 68.7338C268.605 70.9684 264.328 75.2694 264.48 82.3289C264.601 87.9314 267.893 94.5476 273.345 96.2715C274.583 96.663 275.933 96.8168 277.166 96.4088C278.399 96.0008 279.484 94.9476 279.699 93.624C280.016 95.2358 279.547 96.9968 280.184 98.5035C280.714 99.7572 281.955 100.589 283.254 100.831C284.554 101.073 285.9 100.791 287.13 100.295C285.395 102.343 284.373 105.027 284.289 107.752C286.3 104.655 290.889 101.006 294.005 105.257C294.854 106.414 295.051 107.991 294.756 109.412C294.461 110.834 293.72 112.118 292.848 113.256Z" fill="#0D1339"/>
<path d="M292.145 112.526C291.675 113.13 291.161 113.689 290.487 114.048C290.323 114.135 290.063 114.19 289.925 114.205C289.592 114.24 289.256 114.252 288.923 114.292C288.209 114.378 287.555 114.56 287.1 115.178C286.748 115.656 286.612 116.223 286.546 116.81C286.409 118.029 286.638 119.3 286.895 120.487C287.119 121.52 287.401 122.547 287.755 123.541C288.477 125.569 289.583 127.4 290.755 129.176C291.034 129.598 291.661 129.898 292.118 129.547C296.032 126.544 299.99 123.544 303.435 119.957C306.905 116.344 309.719 112.135 311.499 107.367C313.266 102.633 313.941 97.2764 312.389 92.3776C311.586 89.843 310.985 87.2421 310.129 84.7253C309.279 82.2262 308.125 79.8995 306.602 77.7696C303.704 73.716 299.861 70.4991 295.375 68.5278C290.904 66.5632 285.949 65.7912 281.117 66.2976C276.833 66.7466 272.343 68.0609 268.866 70.7905C267.381 71.9563 266.085 73.3661 265.159 75.0527C264.196 76.8091 263.679 78.7695 263.527 80.7773C263.213 84.9254 264.513 89.3151 266.943 92.6163C268.166 94.2776 269.692 95.7327 271.527 96.6341C273.742 97.7222 276.651 98.2821 278.794 96.7172C279.718 96.0426 280.446 95.0675 280.662 93.8986H278.741C278.958 95.1036 278.754 96.3523 278.921 97.5678C279.085 98.7588 279.619 99.8503 280.525 100.618C282.496 102.286 285.122 102.189 287.397 101.291C287.074 100.715 286.751 100.14 286.428 99.5641C284.514 101.853 283.407 104.722 283.295 107.752C283.255 108.841 284.63 109.07 285.152 108.274C286.239 106.617 287.991 104.887 289.929 104.437C289.969 104.427 290.286 104.368 290.133 104.39C290.254 104.372 290.377 104.365 290.498 104.361C290.62 104.357 290.742 104.358 290.863 104.365C290.915 104.368 290.967 104.373 291.019 104.378C291.117 104.389 290.95 104.36 291.116 104.397C291.626 104.511 291.959 104.652 292.38 104.984C293.371 105.765 293.908 106.953 293.89 108.253C293.867 109.835 293.066 111.311 292.145 112.526C291.813 112.964 291.733 113.559 292.145 113.987C292.491 114.345 293.22 114.428 293.555 113.987C294.693 112.486 295.616 110.836 295.837 108.909C296.047 107.081 295.486 105.301 294.257 103.971C293.266 102.899 291.894 102.228 290.446 102.296C289.09 102.36 287.796 102.945 286.698 103.75C285.41 104.694 284.318 105.88 283.431 107.231C284.05 107.404 284.669 107.578 285.288 107.752C285.379 105.293 286.281 102.887 287.837 101.025C288.129 100.676 288.227 100.189 287.993 99.7732C287.785 99.4048 287.274 99.1378 286.868 99.2984C285.248 99.9372 283.149 100.319 281.742 98.9848C281.112 98.3877 280.877 97.6206 280.835 96.7421C280.78 95.6022 280.867 94.4794 280.662 93.3491C280.483 92.3612 278.922 92.3648 278.741 93.3491C278.574 94.2522 277.974 94.9526 277.134 95.327C276.146 95.7673 274.957 95.6548 273.924 95.3676C272.19 94.8853 270.688 93.8553 269.439 92.4945C267.01 89.8468 265.587 86.0246 265.482 82.4456C265.375 78.8014 266.609 75.549 269.224 73.1368C272.006 70.5706 275.93 69.1955 279.658 68.5635C284.053 67.8184 288.637 68.2409 292.85 69.7259C297.041 71.2032 300.769 73.8217 303.68 77.2751C305.19 79.0653 306.486 81.0764 307.433 83.2445C308.436 85.5405 309.039 88.0039 309.717 90.4162C310.356 92.6885 311.137 94.8565 311.249 97.2448C311.36 99.5976 311.036 101.934 310.422 104.197C309.197 108.714 306.878 112.88 303.91 116.404C300.95 119.92 297.43 122.864 293.843 125.658C292.936 126.364 292.024 127.063 291.112 127.762C291.567 127.886 292.021 128.01 292.476 128.133C291.521 126.687 290.584 125.203 289.907 123.591C289.509 122.642 289.224 121.629 288.977 120.628C288.691 119.472 288.489 118.543 288.501 117.415C288.502 117.288 288.509 117.162 288.516 117.035C288.532 116.776 288.487 117.083 288.529 116.914C288.555 116.809 288.574 116.702 288.602 116.597C288.614 116.548 288.633 116.5 288.65 116.452C288.611 116.567 288.577 116.575 288.653 116.47C288.8 116.264 288.578 116.58 288.669 116.433C288.749 116.304 288.641 116.431 288.623 116.456C288.692 116.36 288.712 116.421 288.624 116.443C288.951 116.362 289.004 116.345 289.331 116.319C290.148 116.253 290.885 116.184 291.615 115.764C292.375 115.326 293.013 114.684 293.555 113.987C293.892 113.553 293.964 112.95 293.555 112.526C293.205 112.163 292.485 112.089 292.145 112.526Z" fill="#0D1339"/>
<path d="M279.289 67.8838C275.66 68.0252 272.08 69.1592 268.964 71.0878C265.799 73.046 263.99 76.4272 260.191 77.0149C258.041 77.3474 255.844 77.1494 253.684 77.4043C251.551 77.656 249.406 78.3912 247.822 79.8949C246.238 81.3985 245.318 83.7641 245.865 85.9175C246.411 88.0709 248.641 89.7388 250.731 89.2256C251.307 89.0841 251.841 88.7986 252.347 88.48C252.534 88.3624 252.742 88.194 252.724 87.9679C252.708 87.7546 252.496 87.6201 252.299 87.5552C250.909 87.0964 249.461 88.4781 249.233 89.9719C249.005 91.4657 249.625 92.9462 250.27 94.3023C251.634 97.1664 254.276 99.1341 257.233 99.9762C257.411 100.027 257.602 100.073 257.777 100.011C257.991 99.9338 258.122 99.7157 258.239 99.5141C261.176 94.4564 265.814 90.4847 271.158 88.4515C270.819 87.0681 269.779 86.0009 269.145 84.7336C267.921 82.2846 268.305 79.3419 268.72 76.6171" fill="#0D1339"/>
<path d="M279.288 66.8506C275.838 66.9984 272.455 67.9589 269.408 69.6412C268.095 70.3659 266.922 71.2635 265.806 72.2799C264.842 73.1573 263.922 74.092 262.88 74.806C261.704 75.6108 260.504 75.992 259.082 76.1105C257.238 76.2642 255.38 76.1544 253.541 76.3886C250.388 76.79 247.122 78.1941 245.563 81.2477C244.82 82.7012 244.515 84.3705 244.856 85.9898C245.171 87.4886 246.161 88.8187 247.423 89.6014C248.775 90.4406 250.365 90.5656 251.812 89.9262C252.586 89.5844 253.661 89.0803 253.711 88.0763C253.762 87.0338 252.813 86.5212 251.94 86.4435C250.323 86.2995 248.943 87.6494 248.417 89.1306C247.779 90.9263 248.515 92.8993 249.266 94.5206C250.579 97.3566 252.92 99.4018 255.721 100.544C256.399 100.82 257.307 101.241 258.04 101.007C258.855 100.747 259.216 99.811 259.65 99.1302C260.452 97.8717 261.367 96.7005 262.377 95.615C264.427 93.4121 266.842 91.61 269.504 90.2872C270.131 89.9756 270.77 89.6982 271.422 89.4481C271.927 89.2541 272.27 88.7545 272.117 88.177C271.6 86.2209 270.007 84.8541 269.536 82.8768C269.071 80.9263 269.383 78.8445 269.68 76.892C269.763 76.3413 269.544 75.7804 268.984 75.6209C268.51 75.4859 267.842 75.788 267.758 76.3426C267.418 78.5855 267.099 80.8749 267.549 83.1278C267.761 84.1869 268.189 85.1802 268.759 86.083C269.292 86.9284 269.934 87.7373 270.196 88.7264C270.428 88.3027 270.66 87.879 270.892 87.4553C265.782 89.416 261.344 92.9697 258.238 97.6143C258.055 97.8881 257.877 98.1655 257.704 98.4465C257.618 98.587 257.533 98.7286 257.449 98.8706C257.434 98.8962 257.312 99.0861 257.318 99.0942C257.315 99.0897 257.367 99.0658 257.373 99.0691C257.369 99.0667 257.842 99.131 257.496 98.98C257.438 98.9544 257.368 98.9426 257.307 98.9241C257.16 98.8796 257.013 98.8326 256.868 98.7824C256.597 98.689 256.328 98.5885 256.066 98.4728C254.95 97.9803 253.901 97.2914 253.02 96.4266C252.109 95.5331 251.449 94.4965 250.916 93.3245C250.387 92.1602 249.79 90.5931 250.488 89.3929C250.741 88.9582 251.122 88.6218 251.558 88.5193C251.629 88.5027 251.977 88.5594 252.011 88.5439C251.864 88.6113 252.053 87.5088 251.937 87.5249C251.887 87.5319 251.766 87.636 251.716 87.6668C251.546 87.7715 251.372 87.87 251.195 87.9609C250.163 88.4903 249.161 88.3416 248.22 87.6794C246.203 86.2589 246.42 83.4222 247.745 81.516C249.325 79.2434 252.243 78.4938 254.794 78.3419C256.421 78.245 258.057 78.3099 259.679 78.1177C261.038 77.9567 262.298 77.5822 263.48 76.8543C265.532 75.5916 267.058 73.6095 269.032 72.2623C271.453 70.6097 274.298 69.573 277.153 69.1183C277.86 69.0059 278.574 68.9479 279.288 68.9173C280.566 68.8626 280.572 66.7956 279.288 66.8506Z" fill="#0D1339"/>
<path d="M265.164 95.813C265.412 95.9797 265.658 96.1497 265.896 96.332C265.922 96.3524 265.949 96.3732 265.975 96.3937C266.084 96.4776 265.868 96.3053 265.966 96.3867C266.028 96.438 266.09 96.4895 266.15 96.5426C266.259 96.6389 266.366 96.7392 266.467 96.8444C266.567 96.9478 266.66 97.0567 266.75 97.1693C266.839 97.2801 266.659 97.0368 266.739 97.1543C266.757 97.1809 266.776 97.207 266.793 97.2338C266.832 97.2924 266.87 97.3523 266.904 97.4137C266.942 97.4802 266.977 97.5484 267.01 97.6181C267.021 97.6425 267.065 97.7517 267.022 97.6414C266.979 97.5307 267.021 97.6416 267.03 97.6668C267.083 97.8145 267.12 97.9666 267.144 98.1219C267.169 98.2819 267.32 98.4553 267.45 98.5336C267.592 98.6201 267.802 98.6567 267.961 98.6031C268.334 98.4781 268.486 98.1379 268.425 97.7557C268.198 96.3082 266.939 95.3662 265.835 94.6234C265.543 94.4268 265.088 94.5521 264.926 94.8705C264.751 95.2136 264.853 95.6032 265.164 95.813Z" fill="#0D1339"/>
<path d="M273.13 101.624C273.516 101.678 273.888 101.782 274.252 101.926C274.316 101.951 274.301 101.947 274.247 101.922C274.297 101.946 274.348 101.969 274.398 101.993C274.481 102.034 274.563 102.078 274.644 102.124C274.815 102.22 274.979 102.326 275.138 102.442C275.175 102.47 275.212 102.498 275.25 102.526C275.175 102.47 275.222 102.503 275.268 102.542C275.34 102.602 275.41 102.664 275.479 102.728C275.622 102.863 275.759 103.006 275.886 103.158C275.917 103.194 275.946 103.23 275.976 103.267C276.014 103.315 276.048 103.361 275.992 103.285C276.048 103.361 276.102 103.438 276.153 103.518C276.266 103.693 276.368 103.875 276.459 104.063C276.616 104.385 277.079 104.503 277.368 104.31C277.686 104.098 277.774 103.712 277.606 103.368C276.82 101.749 275.22 100.54 273.484 100.296C273.141 100.247 272.753 100.381 272.666 100.777C272.595 101.1 272.762 101.572 273.13 101.624Z" fill="#0D1339"/>
<path d="M265.795 111.336C265.284 111.627 264.501 111.913 264.534 112.645C264.559 113.19 265.175 113.597 265.604 113.813C266.466 114.247 267.455 114.423 268.408 114.44C268.961 114.45 269.489 114.324 270.019 114.173C270.276 114.099 270.538 114.013 270.802 113.979C270.913 113.964 271.02 113.97 271.131 113.965C271.278 113.958 271.231 114.019 271.212 113.922C271.294 114.341 270.84 114.76 270.543 114.951C270.044 115.271 269.45 115.52 268.886 115.683C268.731 115.728 268.578 115.762 268.417 115.768C268.227 115.775 268.05 115.729 267.861 115.771C267.475 115.856 267.211 116.202 267.218 116.615C267.23 117.37 268.062 117.811 268.662 117.998C269.483 118.254 269.834 116.924 269.016 116.669C268.884 116.629 268.775 116.582 268.657 116.509C268.456 116.384 268.551 116.359 268.548 116.547L268.457 116.895L268.481 116.838L268.243 117.085C268.178 117.136 268.069 117.088 268.179 117.138C268.223 117.158 268.31 117.147 268.358 117.148C268.516 117.148 268.674 117.126 268.83 117.101C269.089 117.06 269.339 116.987 269.585 116.895C270.07 116.714 270.565 116.511 271.019 116.257C271.922 115.75 272.692 114.783 272.501 113.656C272.293 112.425 270.929 112.51 270.033 112.742C269.597 112.855 269.156 113.036 268.704 113.059C268.365 113.077 268.018 113.055 267.682 113.01C266.978 112.917 266.119 112.711 265.668 112.158L265.863 112.645L265.862 112.686L265.691 112.99C265.844 112.802 266.232 112.659 266.465 112.526C267.215 112.099 266.546 110.909 265.795 111.336Z" fill="#0D1339"/>
<path d="M271.461 105.168C271.311 106.298 272.826 107.043 273.503 106.085C273.808 105.653 273.771 105.047 273.577 104.552C273.071 103.264 271.605 104.08 271.461 105.168Z" fill="#0D1339"/>
<path d="M270.794 105.168C270.705 105.894 271.147 106.627 271.755 106.963C272.43 107.337 273.245 107.285 273.822 106.742C274.538 106.069 274.508 104.901 274.088 104.07C273.741 103.383 272.969 103.037 272.253 103.286C271.547 103.531 270.928 104.204 270.817 104.984C270.79 105.175 270.786 105.342 270.884 105.515C270.965 105.658 271.123 105.794 271.281 105.832C271.451 105.872 271.642 105.863 271.793 105.762C271.928 105.672 272.074 105.523 272.098 105.351C272.115 105.231 272.146 105.117 272.19 105.005L272.123 105.17C272.175 105.045 272.241 104.929 272.32 104.821L272.216 104.96C272.3 104.848 272.395 104.748 272.503 104.661L272.368 104.769C272.467 104.691 272.572 104.626 272.686 104.575L272.528 104.645C272.617 104.607 272.709 104.58 272.805 104.566L272.628 104.59C272.708 104.58 272.786 104.579 272.865 104.589L272.689 104.565C272.754 104.575 272.817 104.592 272.878 104.617L272.72 104.548C272.783 104.576 272.842 104.61 272.897 104.653L272.762 104.545C272.828 104.598 272.885 104.659 272.936 104.727L272.832 104.587C272.896 104.675 272.947 104.77 272.989 104.871L272.922 104.706C272.995 104.886 273.045 105.074 273.07 105.267L273.046 105.084C273.063 105.232 273.065 105.379 273.047 105.527L273.07 105.344C273.054 105.455 273.027 105.562 272.987 105.667L273.054 105.502C273.016 105.593 272.969 105.678 272.912 105.757L273.016 105.618C272.96 105.691 272.899 105.757 272.829 105.815L272.963 105.708C272.892 105.765 272.815 105.812 272.732 105.849L272.89 105.779C272.809 105.813 272.726 105.836 272.64 105.849L272.816 105.825C272.715 105.838 272.615 105.837 272.515 105.823L272.691 105.848C272.582 105.831 272.478 105.801 272.376 105.758L272.535 105.827C272.426 105.779 272.325 105.717 272.231 105.642L272.366 105.75C272.285 105.683 272.213 105.608 272.149 105.524L272.252 105.663C272.194 105.584 272.146 105.499 272.107 105.407L272.174 105.572C272.136 105.478 272.11 105.381 272.097 105.28L272.12 105.463C272.109 105.364 272.11 105.266 272.122 105.167C272.142 105.005 272.034 104.79 271.928 104.68C271.812 104.561 271.623 104.471 271.458 104.479C271.286 104.487 271.108 104.545 270.988 104.68C270.861 104.824 270.817 104.975 270.794 105.168Z" fill="#0D1339"/>
<path d="M262.446 99.0551C262.296 100.185 263.812 100.929 264.489 99.9713C264.794 99.54 264.756 98.9335 264.562 98.4383C264.057 97.151 262.59 97.9669 262.446 99.0551Z" fill="#0D1339"/>
<path d="M261.781 99.0552C261.692 99.7815 262.134 100.515 262.742 100.851C263.418 101.224 264.233 101.173 264.809 100.63C265.525 99.9566 265.495 98.7889 265.076 97.9581C264.729 97.2704 263.956 96.9245 263.24 97.1733C262.534 97.4189 261.915 98.0915 261.805 98.8721C261.778 99.0628 261.774 99.2296 261.872 99.4029C261.952 99.5458 262.11 99.6821 262.269 99.7195C262.439 99.7597 262.629 99.7509 262.78 99.65C262.915 99.5597 263.061 99.411 263.086 99.2383C263.103 99.119 263.134 99.0046 263.178 98.893L263.111 99.0576C263.162 98.9327 263.228 98.8165 263.307 98.7082L263.203 98.8477C263.287 98.7359 263.383 98.6361 263.49 98.5487L263.356 98.6564C263.454 98.5786 263.56 98.5133 263.674 98.463L263.515 98.5325C263.605 98.4948 263.696 98.4676 263.792 98.4533L263.616 98.4779C263.695 98.4678 263.773 98.467 263.852 98.4772L263.676 98.4526C263.741 98.4627 263.804 98.4798 263.866 98.5049L263.707 98.4355C263.77 98.4633 263.829 98.4982 263.884 98.5405L263.75 98.4328C263.815 98.4858 263.872 98.5464 263.924 98.6143L263.82 98.4749C263.883 98.5629 263.934 98.6577 263.976 98.7582L263.909 98.5937C263.982 98.7738 264.032 98.9612 264.057 99.1547L264.034 98.9716C264.05 99.1197 264.052 99.2669 264.034 99.4149L264.058 99.2318C264.041 99.343 264.015 99.4498 263.974 99.5543L264.041 99.3897C264.003 99.4809 263.957 99.5656 263.899 99.6451L264.003 99.5056C263.947 99.5788 263.886 99.6445 263.816 99.703L263.951 99.5953C263.879 99.6527 263.802 99.6996 263.719 99.7366L263.878 99.6672C263.797 99.701 263.713 99.7239 263.627 99.7369L263.803 99.7123C263.703 99.7254 263.603 99.7245 263.502 99.7111L263.678 99.7357C263.57 99.7191 263.465 99.6888 263.363 99.6456L263.522 99.715C263.413 99.6666 263.312 99.6051 263.219 99.5301L263.353 99.6378C263.272 99.5707 263.2 99.4958 263.136 99.4114L263.24 99.5508C263.182 99.4712 263.133 99.3864 263.094 99.295L263.161 99.4596C263.123 99.3654 263.098 99.2685 263.084 99.1675L263.108 99.3506C263.096 99.2518 263.097 99.1539 263.109 99.0552C263.129 98.8929 263.021 98.6781 262.915 98.5681C262.8 98.4486 262.611 98.3586 262.445 98.3663C262.273 98.3743 262.095 98.4328 261.975 98.5681C261.848 98.7119 261.804 98.8632 261.781 99.0552Z" fill="#0D1339"/>
<path d="M268.855 113.753C269.486 114.185 269.548 115.27 268.972 115.777C269.786 115.705 270.576 115.358 271.193 114.802C271.357 114.654 271.514 114.482 271.575 114.266C271.637 114.049 271.572 113.78 271.38 113.675C271.283 113.622 271.169 113.617 271.06 113.612C270.561 113.592 270.014 113.587 269.624 113.91" fill="#0D1339"/>
<path d="M268.521 114.348C268.614 114.414 268.391 114.226 268.517 114.346C268.549 114.377 268.577 114.41 268.607 114.443C268.682 114.527 268.509 114.291 268.599 114.44C268.617 114.469 268.633 114.498 268.648 114.528C268.727 114.686 268.613 114.408 268.647 114.519C268.66 114.563 268.675 114.605 268.686 114.649C268.697 114.694 268.701 114.74 268.712 114.784C268.66 114.58 268.7 114.685 268.704 114.754C268.705 114.794 268.706 114.834 268.704 114.874C268.702 114.947 268.657 115.071 268.712 114.862C268.691 114.942 268.669 115.028 268.651 115.109C268.633 115.159 268.646 115.131 268.688 115.023C268.679 115.044 268.67 115.064 268.66 115.084C268.64 115.124 268.617 115.162 268.595 115.201C268.539 115.299 268.712 115.065 268.598 115.195C268.568 115.229 268.536 115.26 268.503 115.29C268.304 115.47 268.269 115.805 268.366 116.042C268.46 116.275 268.713 116.49 268.973 116.466C269.954 116.373 270.855 115.993 271.611 115.335C272.057 114.947 272.35 114.417 272.228 113.801C272.169 113.502 271.958 113.207 271.695 113.071C271.422 112.929 271.122 112.921 270.823 112.917C270.3 112.909 269.718 112.975 269.289 113.315C269.146 113.429 269.034 113.539 268.984 113.727C268.94 113.892 268.96 114.111 269.051 114.258C269.226 114.54 269.665 114.739 269.96 114.505C270.005 114.469 270.051 114.436 270.1 114.407C270.124 114.392 270.148 114.379 270.174 114.366C270.225 114.342 270.224 114.342 270.171 114.367C270.117 114.39 270.116 114.391 270.169 114.371C270.196 114.362 270.223 114.353 270.25 114.346C270.304 114.33 270.36 114.32 270.415 114.308C270.544 114.279 270.266 114.318 270.409 114.309C270.467 114.305 270.524 114.299 270.582 114.297C270.684 114.293 270.786 114.293 270.888 114.296C270.938 114.297 270.989 114.299 271.039 114.301C271.089 114.303 271.251 114.336 271.072 114.294C271.142 114.314 271.133 114.306 271.046 114.27C271.104 114.308 271.088 114.294 270.997 114.228L270.938 114.144C270.952 114.164 270.964 114.185 270.974 114.208C270.933 114.099 270.923 114.079 270.943 114.149C270.957 114.221 270.954 114.198 270.934 114.078C270.935 114.097 270.935 114.117 270.933 114.136C270.93 114.191 270.934 114.161 270.945 114.047C270.939 114.073 270.932 114.1 270.922 114.126C270.963 114.031 270.968 114.016 270.935 114.082C270.921 114.108 270.905 114.134 270.889 114.158C270.945 114.085 270.958 114.068 270.926 114.108C270.849 114.191 270.774 114.271 270.689 114.346C270.657 114.375 270.622 114.415 270.584 114.435C270.659 114.376 270.667 114.369 270.61 114.413C270.586 114.432 270.561 114.45 270.536 114.468C270.362 114.593 270.179 114.704 269.988 114.799C269.971 114.808 269.8 114.888 269.901 114.842C270.002 114.795 269.83 114.87 269.812 114.876C269.713 114.915 269.612 114.948 269.51 114.978C269.408 115.008 269.305 115.033 269.201 115.054C269.168 115.061 269.05 115.102 269.022 115.086C269.123 115.072 269.137 115.07 269.063 115.079C269.033 115.082 269.003 115.085 268.973 115.088L269.442 116.264C269.852 115.892 270.069 115.279 270.03 114.72C269.986 114.08 269.706 113.524 269.192 113.159C268.904 112.955 268.442 113.093 268.283 113.406C268.105 113.756 268.214 114.13 268.521 114.348Z" fill="#0D1339"/>
<path d="M125.514 27.1773C123.47 28.9366 122.966 32.1514 124.397 34.483C124.51 34.6672 124.638 34.8386 124.767 35.011C124.568 34.7446 124.86 35.1347 124.929 35.2189C125.182 35.5235 125.471 35.7818 125.779 36.0228C126.277 36.4113 126.843 36.7028 127.44 36.8917C128.78 37.3162 130.188 37.1384 131.443 36.5298L130.08 35.116C129.424 36.1647 129.094 37.4592 129.22 38.7077C129.289 39.3958 129.455 40.0348 129.74 40.6612C129.856 40.9149 129.991 41.1567 130.147 41.3862C130.2 41.4648 130.506 41.8715 130.313 41.6145C130.433 41.7738 130.55 41.9303 130.682 42.0776C132.348 43.9284 135.003 44.2969 137.152 43.1967C136.697 42.7254 136.243 42.2541 135.788 41.7829C135.34 42.8728 135.174 43.9741 135.354 45.1503C135.439 45.7037 135.621 46.2309 135.859 46.733C135.962 46.9497 136.082 47.1567 136.216 47.3544C136.233 47.3802 136.57 47.8348 136.422 47.6365C136.31 47.4866 136.667 47.9516 136.707 47.9984C138.025 49.5109 140.123 50.1301 142.02 49.6498C143.728 49.2174 145.169 47.6803 146.507 46.5611C148.391 44.9858 150.274 43.4106 152.158 41.8354C153.596 40.6322 155.251 39.5439 155.971 37.6995C156.792 35.5979 156.241 33.0682 154.639 31.5261C152.932 29.8836 150.463 29.5838 148.396 30.6419L149.759 32.0557C150.688 29.7972 150.299 27.1244 148.467 25.4593C146.77 23.9171 144.43 23.6422 142.406 24.6234L143.769 26.0372C144.972 24.1152 144.947 21.5051 143.621 19.652C142.369 17.903 140.324 17.0479 138.252 17.4068C137.77 17.4903 137.316 17.6545 136.873 17.8681C136.688 17.9574 136.508 18.0574 136.335 18.1712C136.23 18.241 136.128 18.316 136.028 18.3936C135.792 18.5815 135.759 18.6088 135.927 18.4753L135.918 18.4823C135.714 18.6396 135.51 18.7957 135.306 18.9524C134.328 19.704 133.35 20.4556 132.372 21.2072C131.651 21.7611 130.93 22.315 130.209 22.8689C129.777 23.2006 129.559 23.7639 129.851 24.2827C130.1 24.7242 130.78 24.9875 131.214 24.6534C132.661 23.5419 134.108 22.4305 135.554 21.319C136.112 20.8906 136.67 20.4236 137.237 20.0264C138.494 19.1463 140.047 19.1541 141.275 20.0786C142.788 21.2174 143.046 23.4007 142.048 24.9941C141.809 25.3759 141.902 25.9332 142.204 26.2463C142.536 26.5904 143.006 26.6042 143.412 26.4078C144.576 25.8436 146.049 26.0179 147.058 26.9206C148.169 27.9147 148.621 29.5952 148.038 31.0126C147.652 31.9525 148.452 32.9125 149.402 32.4263C150.679 31.7723 152.267 32.0041 153.322 33.0787C154.373 34.1498 154.63 35.6884 154.094 37.0361C153.831 37.6986 153.295 38.2442 152.712 38.7318L151.086 40.0913C149.387 41.5129 147.687 42.9345 145.987 44.356C144.928 45.2418 143.891 46.1721 142.803 47.0192C141.669 47.9014 140.189 47.9865 139.004 47.2843C138.614 47.0536 138.41 46.7972 138.075 46.488L138.034 46.4391C138.159 46.6178 138.133 46.5842 137.953 46.3381C137.893 46.2511 137.836 46.1591 137.782 46.0677C137.671 45.8801 137.569 45.6856 137.493 45.4799C137.183 44.64 137.167 43.6588 137.509 42.8259C137.896 41.8859 137.095 40.926 136.146 41.4121C134.8 42.1011 133.155 41.7977 132.091 40.6162C132.052 40.5719 131.837 40.3471 132.034 40.5713C131.957 40.4839 131.893 40.3818 131.829 40.2845C131.701 40.0933 131.585 39.8912 131.49 39.6803C131.336 39.3364 131.232 38.9257 131.2 38.574C131.121 37.7063 131.338 36.8982 131.801 36.1589C132.04 35.7771 131.947 35.2198 131.645 34.9067C131.313 34.5626 130.843 34.5488 130.438 34.7452C129.654 35.1247 128.784 35.1567 127.969 34.8987C127.589 34.7782 127.214 34.5843 126.888 34.3177C126.685 34.1514 126.516 33.951 126.338 33.7574C126.562 34.0015 126.28 33.6867 126.258 33.6539C126.185 33.549 126.117 33.4413 126.053 33.3308C125.139 31.7508 125.533 29.8351 126.923 28.6385C127.338 28.2819 127.279 27.546 126.923 27.1771C126.513 26.7519 125.93 26.8198 125.514 27.1773Z" fill="#0D1339"/>
<path d="M136.548 31.9957C138.773 30.2172 140.998 28.4386 143.223 26.66C143.54 26.406 143.858 26.1519 144.176 25.8978C144.602 25.5577 144.83 25.0094 144.534 24.4841C144.289 24.0498 143.599 23.7705 143.17 24.1134C140.945 25.8919 138.721 27.6705 136.496 29.4491C136.178 29.7032 135.86 29.9572 135.542 30.2113C135.117 30.5514 134.889 31.0997 135.185 31.625C135.43 32.0593 136.119 32.3386 136.548 31.9957Z" fill="#0D1339"/>
<path d="M142.63 38.8623C144.706 36.897 146.781 34.9317 148.857 32.9664C149.152 32.6869 149.448 32.4074 149.743 32.1279C150.14 31.7515 150.111 31.0486 149.743 30.6666C149.347 30.2563 148.732 30.2892 148.334 30.6666C146.258 32.6319 144.182 34.5972 142.107 36.5625C141.811 36.842 141.516 37.1215 141.221 37.401C140.823 37.7774 140.853 38.4803 141.221 38.8623C141.617 39.2726 142.231 39.2397 142.63 38.8623Z" fill="#0D1339"/>
<path d="M309.347 110.662C308.504 115.249 307.74 120.333 310.099 124.311C312.364 128.132 316.883 129.816 319.815 133.113C323.37 137.111 324.106 143.523 321.556 148.275C327.796 150.127 333.417 155.171 334.759 161.757C336.101 168.342 332.109 176.016 325.735 177.285C331.389 180.977 332.98 189.938 328.966 195.476C324.952 201.014 313.067 200.245 308.077 195.64C308.077 195.64 319.148 158.441 296.341 143.974C290.806 135.937 281.949 135.019 288.37 122.16C294.791 109.301 309.347 110.662 309.347 110.662Z" fill="#0D1339"/>
<path d="M308.387 110.386C307.822 113.466 307.267 116.662 307.645 119.803C307.834 121.38 308.226 122.903 308.952 124.313C309.594 125.56 310.497 126.663 311.504 127.609C313.491 129.477 315.871 130.815 317.895 132.631C319.855 134.389 321.195 136.614 321.773 139.238C322.4 142.082 322.066 145.165 320.696 147.752C320.385 148.341 320.662 149.081 321.292 149.27C326.085 150.71 330.49 154.044 332.717 158.747C334.81 163.165 334.297 168.28 331.487 172.247C330.041 174.288 327.912 175.786 325.471 176.288C324.585 176.47 324.559 177.731 325.233 178.177C327.513 179.684 329.079 182.162 329.78 184.878C330.461 187.514 330.349 190.505 329.255 192.958C328.955 193.63 328.587 194.257 328.174 194.859C328.04 195.054 328.121 194.933 328.152 194.892C328.106 194.953 328.058 195.013 328.01 195.072C327.922 195.179 327.832 195.283 327.739 195.384C327.53 195.611 327.307 195.825 327.074 196.024C327.027 196.064 326.979 196.104 326.931 196.143C327.071 196.03 326.911 196.157 326.875 196.183C326.761 196.266 326.648 196.35 326.531 196.429C326.267 196.608 325.994 196.772 325.715 196.923C325.133 197.237 324.84 197.359 324.184 197.579C323.563 197.789 322.927 197.95 322.285 198.071C322.129 198.1 321.972 198.128 321.815 198.152C321.745 198.163 321.675 198.174 321.605 198.184C321.758 198.163 321.534 198.193 321.498 198.197C321.158 198.236 320.818 198.27 320.476 198.292C319.782 198.337 319.086 198.342 318.392 198.312C317.763 198.285 316.928 198.207 316.455 198.134C314.962 197.906 313.487 197.52 312.084 196.942C311.857 196.848 311.537 196.702 311.201 196.531C310.89 196.373 310.585 196.203 310.286 196.021C309.998 195.845 309.717 195.657 309.444 195.456C309.391 195.418 309.064 195.16 309.2 195.271C309.057 195.154 308.918 195.033 308.782 194.908L309.038 195.913C309.416 194.643 309.708 193.34 309.983 192.042C310.678 188.769 311.172 185.445 311.469 182.108C311.85 177.828 311.887 173.502 311.418 169.228C310.897 164.482 309.779 159.811 307.742 155.509C305.599 150.983 302.409 147.076 298.436 144.166C297.917 143.786 297.386 143.426 296.845 143.081L297.202 143.452C296.046 141.782 294.695 140.294 293.244 138.898C292.01 137.712 290.712 136.591 289.555 135.323C289.285 135.026 289.023 134.721 288.775 134.404C288.742 134.361 288.572 134.134 288.709 134.32C288.661 134.255 288.614 134.189 288.567 134.123C288.452 133.959 288.34 133.791 288.234 133.62C288.039 133.304 287.86 132.976 287.705 132.637C287.666 132.552 287.629 132.466 287.593 132.38C287.674 132.572 287.59 132.368 287.562 132.29C287.493 132.099 287.431 131.905 287.376 131.709C287.328 131.535 287.287 131.36 287.251 131.184C287.231 131.087 287.215 130.989 287.198 130.892C287.19 130.85 287.185 130.807 287.178 130.765C287.157 130.639 287.191 130.943 287.175 130.739C287.141 130.312 287.116 129.89 287.131 129.462C287.139 129.233 287.156 129.004 287.179 128.776C287.184 128.725 287.19 128.675 287.196 128.625C287.216 128.451 287.175 128.767 287.2 128.592C287.218 128.469 287.237 128.347 287.258 128.224C287.354 127.676 287.486 127.135 287.642 126.601C288.342 124.21 289.48 121.89 290.906 119.875C292.021 118.299 293.595 116.738 295.09 115.663C295.861 115.108 296.671 114.611 297.508 114.172C297.902 113.965 298.302 113.772 298.707 113.591C298.859 113.523 298.641 113.616 298.853 113.528C298.953 113.486 299.052 113.444 299.151 113.404C299.348 113.324 299.546 113.246 299.745 113.172C301.216 112.621 302.739 112.224 304.283 111.966C304.438 111.94 304.593 111.916 304.748 111.893C304.855 111.877 305.001 111.859 304.797 111.885C304.888 111.873 304.979 111.861 305.07 111.85C305.371 111.812 305.673 111.779 305.975 111.752C306.497 111.705 307.021 111.674 307.545 111.661C308.122 111.645 308.694 111.677 309.27 111.688C309.296 111.688 309.322 111.692 309.348 111.694C309.885 111.744 310.344 111.184 310.344 110.661C310.344 110.061 309.886 109.677 309.348 109.627C307.497 109.456 305.577 109.669 303.753 109.973C299.811 110.632 296.028 112.224 292.89 114.803C290.948 116.398 289.313 118.395 288.059 120.608C286.66 123.076 285.499 125.859 285.192 128.726C284.979 130.71 285.376 132.71 286.37 134.423C287.314 136.052 288.667 137.379 290.013 138.646C291.558 140.1 293.128 141.528 294.485 143.178C294.878 143.656 295.118 143.985 295.45 144.449C295.847 145.004 296.573 145.337 297.121 145.727C298.069 146.403 298.78 146.978 299.653 147.783C300.459 148.526 301.222 149.319 301.937 150.157C302.287 150.566 302.624 150.987 302.951 151.416C303.074 151.578 303.003 151.484 302.976 151.448C303.016 151.502 303.056 151.556 303.095 151.61C303.174 151.718 303.252 151.826 303.329 151.935C303.484 152.152 303.635 152.372 303.783 152.593C304.379 153.484 304.928 154.409 305.428 155.362C305.672 155.827 305.905 156.298 306.126 156.775C306.229 156.998 306.331 157.222 306.429 157.447C306.518 157.651 306.683 158.041 306.723 158.137C307.451 159.925 308.105 162.069 308.56 164.072C308.789 165.08 308.982 166.097 309.143 167.119C309.183 167.374 309.222 167.628 309.258 167.883C309.276 168.01 309.293 168.137 309.31 168.264C309.315 168.301 309.337 168.468 309.312 168.276C309.32 168.339 309.328 168.403 309.336 168.466C309.401 168.988 309.458 169.512 309.508 170.036C309.873 173.895 309.836 177.791 309.516 181.652C309.444 182.515 309.358 183.376 309.258 184.235C309.234 184.441 309.21 184.647 309.184 184.853C309.172 184.954 309.158 185.056 309.146 185.157C309.139 185.212 309.119 185.36 309.152 185.109C309.144 185.171 309.136 185.234 309.127 185.296C309.076 185.686 309.021 186.076 308.964 186.465C308.76 187.844 308.522 189.219 308.249 190.585C307.942 192.121 307.6 193.653 307.176 195.159C307.156 195.227 307.137 195.296 307.117 195.364C307.018 195.696 307.117 196.136 307.373 196.369C309.508 198.321 312.287 199.431 315.056 199.975C317.987 200.552 321.084 200.589 323.982 199.795C326.752 199.036 329.135 197.443 330.567 194.825C332.131 191.966 332.51 188.559 331.927 185.355C331.269 181.732 329.255 178.385 326.239 176.392C326.16 177.022 326.08 177.651 326.001 178.281C331.141 177.224 334.839 172.323 335.757 167.146C336.243 164.407 336 161.616 335 159.026C333.958 156.326 332.281 153.937 330.179 152.016C327.773 149.817 324.901 148.202 321.822 147.277C322.02 147.783 322.219 148.289 322.417 148.795C325.101 143.728 324.429 137.129 320.819 132.732C319.05 130.576 316.641 129.124 314.469 127.46C313.437 126.669 312.449 125.796 311.628 124.768C310.782 123.71 310.213 122.446 309.888 121.119C309.073 117.791 309.702 114.243 310.309 110.935C310.409 110.388 310.161 109.821 309.613 109.664C309.126 109.526 308.488 109.835 308.387 110.386Z" fill="#0D1339"/>
<path d="M167.715 98.0112C169.195 97.4997 170.675 96.9883 172.154 96.4768C172.648 96.3062 173.022 95.7563 172.85 95.2057C172.691 94.696 172.154 94.301 171.624 94.484C170.145 94.9954 168.665 95.5069 167.186 96.0184C166.692 96.189 166.318 96.7389 166.49 97.2895C166.649 97.7991 167.186 98.1942 167.715 98.0112Z" fill="white"/>
<path d="M168.428 115.554C169.167 116.066 169.907 116.577 170.647 117.089C170.855 117.232 171.18 117.26 171.415 117.193C171.646 117.127 171.896 116.941 172.01 116.718C172.132 116.478 172.194 116.188 172.111 115.922C172.028 115.657 171.877 115.459 171.653 115.304C170.913 114.793 170.173 114.281 169.433 113.77C169.226 113.626 168.9 113.599 168.666 113.666C168.435 113.732 168.184 113.917 168.07 114.14C167.948 114.38 167.887 114.671 167.97 114.937C168.052 115.201 168.203 115.399 168.428 115.554Z" fill="white"/>
<path d="M163.788 135.339C164.281 135.851 164.774 136.362 165.267 136.874C165.448 137.061 165.716 137.176 165.972 137.176C166.216 137.176 166.508 137.064 166.676 136.874C166.851 136.677 166.98 136.418 166.968 136.143C166.956 135.869 166.867 135.61 166.676 135.412C166.183 134.901 165.69 134.389 165.197 133.878C165.016 133.69 164.748 133.575 164.492 133.575C164.248 133.575 163.956 133.688 163.788 133.878C163.613 134.075 163.484 134.333 163.496 134.609C163.508 134.883 163.597 135.141 163.788 135.339Z" fill="white"/>
<path d="M3.24962 18.7239C3.74281 19.2354 4.23601 19.7469 4.72924 20.2584C4.90993 20.4458 5.17831 20.561 5.43382 20.561C5.67822 20.561 5.97012 20.4485 6.1384 20.2584C6.31272 20.0614 6.44211 19.8029 6.43023 19.5277C6.41838 19.2536 6.32911 18.9948 6.1384 18.797C5.6452 18.2856 5.15201 17.7741 4.65878 17.2626C4.47809 17.0752 4.20971 16.96 3.9542 16.96C3.7098 16.96 3.4179 17.0725 3.24962 17.2626C3.07529 17.4595 2.9459 17.7181 2.95779 17.9933C2.96964 18.2674 3.05891 18.5262 3.24962 18.7239Z" fill="white"/>
<path d="M1.49819 37.2992C2.97781 36.532 4.45739 35.7648 5.93701 34.9976C6.40422 34.7554 6.57292 34.0318 6.29448 33.5839C5.98641 33.0883 5.43094 32.954 4.93121 33.2131C3.45159 33.9804 1.97201 34.7476 0.492389 35.5147C0.025178 35.757 -0.143522 36.4806 0.134913 36.9285C0.442989 37.424 0.998452 37.5583 1.49819 37.2992Z" fill="white"/>
<path d="M18.529 9.06176C18.7756 10.0847 19.0222 11.1076 19.2688 12.1306C19.3953 12.6552 19.9909 13.0213 20.4945 12.8523C21.0183 12.6765 21.3259 12.1433 21.1904 11.5812C20.9438 10.5583 20.6972 9.5353 20.4506 8.51238C20.3242 7.98779 19.7286 7.62167 19.2249 7.79068C18.7012 7.96646 18.3935 8.49965 18.529 9.06176Z" fill="white"/>
</svg>
