<svg width="480" height="553" viewBox="0 0 480 553" fill="none" xmlns="http://www.w3.org/2000/svg">
<g clip-path="url(#clip0_5638_4337)">
<path d="M439.318 422.188C452.683 411.011 446.144 391.823 446.144 391.823L432.665 399.632C432.665 399.632 436.979 422.308 418.795 434.381L439.318 422.188Z" fill="white"/>
<path d="M418.398 435.572C418.57 435.629 418.751 435.648 418.931 435.629C419.11 435.61 419.283 435.552 419.438 435.46L439.962 423.266C440.019 423.232 440.075 423.193 440.126 423.15C445.883 418.336 448.952 411.306 449 402.822C449.037 396.49 447.404 391.624 447.335 391.42C447.275 391.244 447.177 391.084 447.047 390.95C446.917 390.817 446.76 390.714 446.586 390.649C446.227 390.523 445.838 390.549 445.513 390.739L432.033 398.548C431.571 398.815 431.33 399.344 431.429 399.867C431.47 400.084 435.353 421.88 418.098 433.337C417.902 433.467 417.746 433.65 417.649 433.864C417.552 434.078 417.517 434.315 417.548 434.548C417.58 434.781 417.676 435.001 417.826 435.182C417.976 435.363 418.175 435.498 418.398 435.572ZM438.587 421.162L427.664 427.652C430.766 423.416 432.843 418.371 433.789 412.686C434.743 406.955 434.299 402.195 434.039 400.288L445.371 393.723C446.51 398.316 448.935 412.43 438.587 421.162Z" fill="#3375E0"/>
<path d="M402.15 409.04C408.287 416.577 425.693 428.926 439.319 422.188C439.319 422.188 428.833 430.057 418.795 434.381C418.795 434.381 403.216 439.463 389.251 425.394L402.15 409.04Z" fill="white"/>
<path d="M402.057 434.991C411.286 438.049 418.733 435.721 419.186 435.573C419.222 435.562 419.258 435.548 419.293 435.533C429.353 431.199 439.641 423.516 440.074 423.19C440.325 423.002 440.495 422.728 440.553 422.421C440.611 422.113 440.552 421.796 440.388 421.53C440.223 421.264 439.965 421.068 439.664 420.982C439.363 420.896 439.041 420.925 438.76 421.063C426.064 427.342 409.287 415.815 403.127 408.248C403.008 408.102 402.857 407.984 402.687 407.904C402.516 407.824 402.329 407.783 402.141 407.784C401.952 407.786 401.766 407.83 401.597 407.912C401.427 407.995 401.279 408.115 401.162 408.263L388.263 424.618C388.073 424.859 387.978 425.16 387.995 425.465C388.013 425.771 388.142 426.06 388.358 426.277C392.956 430.909 397.705 433.549 402.058 434.991L402.057 434.991ZM418.354 433.204C417.27 433.539 403.68 437.411 390.936 425.287L402.194 411.012C407.816 417.197 420.411 426.367 432.548 425.338C428.677 427.861 423.437 431.008 418.354 433.204Z" fill="#3375E0"/>
</g>
<g clip-path="url(#clip1_5638_4337)">
<path d="M144.802 537.755L54.4077 481.27L77.2394 409.258L167.634 465.743L144.802 537.755Z" fill="white"/>
<path d="M144.801 539.359C144.499 539.359 144.203 539.274 143.948 539.114L53.5541 482.629C53.2522 482.441 53.0216 482.157 52.8987 481.824C52.7757 481.49 52.7672 481.125 52.8746 480.786L75.7063 408.774C75.7805 408.54 75.9072 408.327 76.0767 408.15C76.2462 407.973 76.4541 407.837 76.6844 407.752C76.9147 407.668 77.1613 407.637 77.4054 407.662C77.6495 407.688 77.8846 407.768 78.0927 407.898L168.487 464.383C168.789 464.571 169.019 464.855 169.142 465.189C169.265 465.522 169.274 465.887 169.166 466.226L146.335 538.238C146.232 538.564 146.027 538.847 145.752 539.049C145.476 539.25 145.143 539.359 144.801 539.359ZM56.3157 480.57L143.895 535.296L165.725 466.443L78.1457 411.717L56.3157 480.57Z" fill="#3375E0"/>
<path d="M245.099 503.192L144.802 537.755L167.633 465.743L267.931 431.18L245.099 503.192Z" fill="white"/>
<path d="M144.801 539.359C144.549 539.359 144.3 539.3 144.074 539.186C143.849 539.072 143.654 538.907 143.504 538.703C143.355 538.5 143.256 538.264 143.215 538.015C143.174 537.766 143.192 537.512 143.268 537.271L166.1 465.259C166.176 465.02 166.306 464.802 166.481 464.623C166.656 464.444 166.871 464.308 167.108 464.226L267.405 429.663C267.687 429.566 267.99 429.549 268.281 429.614C268.572 429.679 268.839 429.823 269.052 430.03C269.266 430.238 269.417 430.5 269.49 430.789C269.562 431.077 269.553 431.38 269.463 431.664L246.631 503.676C246.556 503.914 246.425 504.132 246.25 504.311C246.075 504.49 245.86 504.626 245.623 504.708L145.326 539.271C145.155 539.33 144.977 539.359 144.801 539.359ZM168.922 466.996L147.298 535.197L243.809 501.939L265.433 433.737L168.922 466.996Z" fill="#3375E0"/>
<path d="M267.931 431.18L167.633 465.743L77.2393 409.258L177.536 374.695L267.931 431.18Z" fill="white"/>
<path d="M167.633 467.347C167.332 467.347 167.036 467.262 166.78 467.102L76.3861 410.617C76.129 410.457 75.9227 410.227 75.7911 409.954C75.6594 409.681 75.6078 409.377 75.6422 409.076C75.6765 408.775 75.7955 408.491 75.9852 408.254C76.175 408.018 76.4279 407.84 76.7146 407.742L177.012 373.179C177.239 373.101 177.48 373.074 177.719 373.101C177.957 373.128 178.187 373.208 178.39 373.336L268.784 429.821C269.041 429.981 269.248 430.211 269.379 430.484C269.511 430.757 269.563 431.061 269.528 431.362C269.494 431.663 269.375 431.948 269.185 432.184C268.995 432.42 268.743 432.598 268.456 432.696L168.159 467.259C167.988 467.318 167.81 467.348 167.634 467.348L167.633 467.347ZM80.9424 409.679L167.836 463.977L264.228 430.759L177.335 376.462L80.9424 409.679ZM158.882 525.574C158.502 525.574 158.134 525.439 157.843 525.194C157.553 524.949 157.359 524.609 157.296 524.235C157.233 523.861 157.305 523.476 157.5 523.15C157.694 522.824 157.998 522.577 158.357 522.453L185.572 513.075C185.772 513.004 185.984 512.974 186.196 512.985C186.408 512.997 186.615 513.05 186.806 513.142C186.997 513.234 187.168 513.362 187.309 513.521C187.45 513.679 187.559 513.863 187.628 514.063C187.697 514.263 187.726 514.475 187.713 514.686C187.7 514.898 187.645 515.104 187.551 515.294C187.458 515.484 187.327 515.654 187.168 515.794C187.008 515.933 186.823 516.04 186.622 516.107L159.407 525.485C159.239 525.544 159.061 525.574 158.883 525.574L158.882 525.574Z" fill="#3375E0"/>
<path d="M165.869 523.166C165.616 523.166 165.367 523.107 165.141 522.993C164.916 522.879 164.721 522.714 164.571 522.51C164.422 522.307 164.322 522.071 164.282 521.822C164.241 521.573 164.259 521.318 164.335 521.078L171.569 498.263C171.705 497.867 171.991 497.54 172.366 497.351C172.741 497.163 173.175 497.128 173.575 497.254C173.975 497.381 174.31 497.658 174.508 498.027C174.706 498.396 174.752 498.828 174.635 499.231L167.401 522.045C167.298 522.37 167.094 522.654 166.819 522.855C166.543 523.057 166.211 523.165 165.869 523.166V523.166Z" fill="#3375E0"/>
<path d="M167.075 509.75C166.787 509.75 166.504 509.672 166.256 509.526C166.008 509.379 165.804 509.168 165.665 508.916C165.527 508.663 165.459 508.378 165.469 508.091C165.479 507.803 165.566 507.524 165.722 507.281L171.748 497.883C171.926 497.604 172.187 497.387 172.495 497.262C172.802 497.137 173.141 497.11 173.464 497.184C173.787 497.259 174.08 497.432 174.301 497.679C174.522 497.926 174.661 498.235 174.699 498.564L175.513 505.606C175.561 506.029 175.44 506.453 175.175 506.787C174.91 507.12 174.523 507.335 174.1 507.383C173.676 507.431 173.251 507.31 172.917 507.046C172.583 506.781 172.368 506.396 172.318 505.973L172.022 503.409L168.431 509.011C168.286 509.238 168.085 509.425 167.848 509.554C167.611 509.684 167.346 509.752 167.075 509.751L167.075 509.75ZM179.11 518.603C178.857 518.603 178.608 518.544 178.383 518.43C178.157 518.316 177.962 518.151 177.812 517.947C177.663 517.744 177.564 517.508 177.523 517.259C177.482 517.01 177.5 516.755 177.577 516.515L184.81 493.7C184.939 493.294 185.224 492.956 185.602 492.76C185.98 492.564 186.421 492.526 186.828 492.654C187.234 492.783 187.573 493.067 187.77 493.444C187.966 493.822 188.005 494.262 187.876 494.668L180.642 517.482C180.539 517.807 180.335 518.091 180.06 518.292C179.784 518.494 179.452 518.602 179.11 518.603V518.603Z" fill="#3375E0"/>
<path d="M180.316 505.187C180.028 505.187 179.745 505.11 179.497 504.963C179.249 504.816 179.045 504.605 178.907 504.353C178.768 504.101 178.701 503.816 178.71 503.528C178.72 503.241 178.808 502.961 178.963 502.719L184.989 493.32C185.168 493.041 185.429 492.824 185.736 492.699C186.043 492.574 186.382 492.547 186.706 492.621C187.029 492.696 187.321 492.869 187.542 493.116C187.764 493.363 187.903 493.672 187.94 494.001L188.753 501.043C188.792 501.461 188.665 501.877 188.401 502.202C188.136 502.528 187.754 502.737 187.336 502.785C186.919 502.833 186.499 502.716 186.167 502.459C185.835 502.202 185.616 501.826 185.559 501.411L185.263 498.847L181.672 504.448C181.527 504.676 181.326 504.862 181.089 504.992C180.852 505.121 180.586 505.189 180.316 505.189V505.187Z" fill="#3375E0"/>
<path d="M208.962 394.332L236.505 411.543L136.208 446.106L108.665 428.895L208.962 394.332Z" fill="#3375E0"/>
<path d="M136.208 447.71C135.906 447.71 135.611 447.625 135.355 447.465L107.812 430.254C107.555 430.093 107.349 429.863 107.218 429.591C107.086 429.318 107.035 429.014 107.069 428.713C107.103 428.413 107.222 428.128 107.411 427.892C107.601 427.656 107.853 427.478 108.14 427.378L208.437 392.815C208.664 392.737 208.905 392.71 209.144 392.737C209.382 392.764 209.612 392.845 209.815 392.972L237.359 410.183C237.616 410.344 237.822 410.574 237.954 410.846C238.085 411.119 238.137 411.423 238.102 411.724C238.068 412.025 237.949 412.31 237.759 412.546C237.57 412.782 237.317 412.96 237.03 413.059L136.733 447.622C136.562 447.681 136.384 447.71 136.208 447.71ZM112.368 429.316L136.41 444.339L232.802 411.121L208.761 396.098L112.368 429.316Z" fill="#3375E0"/>
<path d="M130.016 465.743L102.474 448.532L108.665 428.895L136.208 446.106L130.016 465.743Z" fill="#3375E0"/>
<path d="M130.016 467.347C129.715 467.347 129.419 467.262 129.163 467.102L101.62 449.891C101.318 449.703 101.088 449.42 100.965 449.087C100.841 448.753 100.833 448.389 100.939 448.05L107.131 428.413C107.204 428.179 107.331 427.966 107.5 427.788C107.67 427.611 107.878 427.475 108.108 427.39C108.339 427.305 108.585 427.274 108.83 427.299C109.074 427.324 109.309 427.405 109.518 427.534L137.061 444.745C137.363 444.934 137.593 445.217 137.716 445.55C137.839 445.883 137.848 446.248 137.741 446.586L131.55 466.223C131.447 466.549 131.243 466.833 130.967 467.035C130.692 467.237 130.358 467.346 130.016 467.346V467.347ZM104.38 447.83L129.107 463.282L134.301 446.807L109.574 431.356L104.38 447.83Z" fill="#3375E0"/>
</g>
<g clip-path="url(#clip2_5638_4337)">
<path d="M203.852 174.363C203.543 174.258 203.281 174.047 203.113 173.767C202.945 173.487 202.881 173.156 202.933 172.833C203.061 172.039 203.271 170.875 203.537 169.4C205.195 160.21 209.078 138.689 209.069 118.654C209.059 94.218 203.39 80.4783 192.223 77.8025C187.918 76.7723 184.305 77.402 181.181 79.7272C169.365 88.5187 167.528 119.865 166.312 140.607C165.853 148.433 165.458 155.193 164.66 159.395C164.586 159.751 164.375 160.064 164.073 160.267C163.771 160.469 163.401 160.545 163.045 160.478C162.688 160.411 162.372 160.206 162.165 159.908C161.958 159.61 161.877 159.242 161.938 158.883C162.703 154.858 163.094 148.181 163.547 140.451C164.867 117.923 166.675 87.0694 179.531 77.5039C183.303 74.6974 187.792 73.8908 192.873 75.1063C205.449 78.1133 211.828 92.7629 211.839 118.647C211.847 138.931 207.934 160.624 206.263 169.887C206 171.348 205.791 172.501 205.667 173.269C205.635 173.468 205.56 173.658 205.447 173.826C205.334 173.993 205.186 174.134 205.013 174.238C204.84 174.343 204.647 174.408 204.446 174.43C204.245 174.451 204.043 174.429 203.852 174.364L203.852 174.363Z" fill="#3375E0"/>
<path d="M196.601 264.126L117.291 234.783L133.721 150.546L213.03 179.889L196.601 264.126Z" fill="white"/>
<path d="M196.154 265.439L196.118 265.427L116.808 236.084C116.501 235.97 116.244 235.75 116.083 235.464C115.923 235.178 115.869 234.844 115.932 234.521L132.361 150.284C132.4 150.087 132.481 149.9 132.598 149.737C132.716 149.573 132.868 149.438 133.043 149.339C133.218 149.241 133.413 149.182 133.613 149.166C133.813 149.15 134.014 149.177 134.203 149.246L213.512 178.589C213.82 178.703 214.077 178.922 214.237 179.209C214.398 179.495 214.451 179.829 214.389 180.152L197.959 264.389C197.921 264.583 197.842 264.767 197.728 264.928C197.613 265.09 197.465 265.225 197.294 265.324C197.123 265.424 196.933 265.485 196.736 265.505C196.539 265.525 196.341 265.503 196.154 265.439L196.154 265.439ZM118.876 233.89L195.555 262.26L211.446 180.782L134.767 152.413L118.876 233.89Z" fill="#3375E0"/>
<path d="M223.816 171.776L213.03 179.888L196.601 264.126L217.874 247.8L223.816 171.776Z" fill="white"/>
<path d="M196.154 265.439C195.837 265.331 195.57 265.112 195.402 264.823C195.234 264.533 195.177 264.192 195.241 263.863L211.67 179.626C211.736 179.289 211.925 178.988 212.2 178.781L222.986 170.668C223.199 170.508 223.453 170.412 223.719 170.393C223.985 170.374 224.25 170.431 224.484 170.559C224.717 170.687 224.908 170.88 225.035 171.114C225.161 171.349 225.218 171.615 225.197 171.88L219.255 247.904C219.24 248.099 219.184 248.288 219.091 248.459C218.998 248.63 218.87 248.78 218.715 248.899L197.442 265.225C197.261 265.363 197.049 265.456 196.824 265.493C196.6 265.53 196.369 265.512 196.154 265.439ZM214.287 180.675L198.659 260.801L216.541 247.077L222.196 174.725L214.287 180.675L214.287 180.675Z" fill="#3375E0"/>
<path d="M133.721 150.546L144.507 142.433L223.816 171.776L213.03 179.888L133.721 150.546Z" fill="white"/>
<path d="M212.583 181.202L212.547 181.19L133.238 151.847C133.004 151.761 132.799 151.613 132.643 151.42C132.486 151.226 132.385 150.994 132.35 150.748C132.314 150.502 132.345 150.25 132.441 150.02C132.536 149.789 132.691 149.589 132.89 149.439L143.676 141.326C143.861 141.186 144.079 141.095 144.308 141.062C144.538 141.028 144.772 141.053 144.989 141.133L224.298 170.476C224.532 170.562 224.737 170.71 224.893 170.903C225.05 171.097 225.151 171.329 225.186 171.575C225.222 171.821 225.191 172.073 225.095 172.303C225 172.534 224.845 172.734 224.646 172.884L213.86 180.997C213.68 181.132 213.469 181.222 213.246 181.258C213.024 181.294 212.796 181.274 212.583 181.202ZM136.582 150.126L212.804 178.326L220.954 172.196L144.732 143.996L136.582 150.126Z" fill="#3375E0"/>
<path d="M191.464 181.504C191.155 181.399 190.893 181.188 190.725 180.907C190.557 180.627 190.493 180.296 190.546 179.973C190.803 178.374 191.589 175.233 192.676 170.886C197.791 150.436 209.769 102.544 198.736 84.3268C196.595 80.7903 193.765 78.6441 190.082 77.7625C185.984 76.7823 182.308 77.4555 178.842 79.8207C163.145 90.5313 157.223 132.445 154.041 154.961C153.372 159.696 152.794 163.785 152.272 166.535C152.198 166.891 151.987 167.204 151.685 167.407C151.383 167.61 151.014 167.685 150.657 167.618C150.3 167.551 149.984 167.347 149.777 167.048C149.57 166.75 149.489 166.382 149.551 166.024C150.061 163.338 150.634 159.279 151.298 154.58C154.54 131.638 160.574 88.9339 177.285 77.5314C181.376 74.7399 185.9 73.9104 190.731 75.0662C195.108 76.1116 198.597 78.7437 201.106 82.8862C212.736 102.091 200.562 150.768 195.363 171.554C194.332 175.673 193.519 178.927 193.28 180.409C193.248 180.609 193.172 180.799 193.059 180.966C192.946 181.133 192.798 181.274 192.625 181.379C192.452 181.483 192.259 181.548 192.058 181.57C191.858 181.592 191.655 181.569 191.464 181.504L191.464 181.504Z" fill="#3375E0"/>
<path d="M173.725 173.285C173.532 173.22 173.355 173.113 173.208 172.971C173.061 172.829 172.947 172.657 172.875 172.466C172.803 172.275 172.774 172.07 172.79 171.866C172.806 171.662 172.867 171.464 172.968 171.286C173.209 170.864 173.524 170.32 173.904 169.665C202.218 120.792 209.476 88.2353 194.342 77.9921C190.714 75.5374 187.007 74.8485 183.009 75.8883C166.619 80.1498 150.153 112.58 140.315 131.956C137.578 137.348 135.213 142.005 133.425 144.946C133.332 145.104 133.208 145.242 133.061 145.352C132.914 145.462 132.746 145.542 132.568 145.587C132.39 145.632 132.205 145.641 132.024 145.614C131.842 145.587 131.668 145.524 131.512 145.428C131.355 145.333 131.219 145.208 131.111 145.059C131.004 144.911 130.927 144.742 130.885 144.564C130.843 144.385 130.836 144.2 130.867 144.019C130.897 143.837 130.963 143.664 131.06 143.508C132.793 140.658 135.135 136.045 137.847 130.704C148.548 109.63 164.719 77.7816 182.319 73.2051C187.064 71.9714 191.633 72.8087 195.897 75.6944C212.649 87.0322 205.872 120.006 176.299 171.051C175.923 171.7 175.611 172.239 175.372 172.657C175.213 172.937 174.961 173.152 174.661 173.267C174.36 173.381 174.029 173.388 173.725 173.285Z" fill="#3375E0"/>
<path d="M130.564 297.594L38.0012 234.252L96.4289 122.426L188.992 185.769L130.564 297.594Z" fill="#A8CFFB"/>
<path d="M130.117 298.907C129.999 298.867 129.885 298.811 129.78 298.739L37.2176 235.397C36.9382 235.206 36.7388 234.919 36.657 234.59C36.5753 234.261 36.617 233.913 36.7741 233.612L95.2022 121.787C95.2928 121.613 95.4192 121.46 95.5731 121.338C95.727 121.217 95.9048 121.129 96.0949 121.081C96.2849 121.034 96.4828 121.027 96.6754 121.061C96.8681 121.096 97.0512 121.171 97.2126 121.281L189.775 184.624C190.055 184.815 190.254 185.102 190.336 185.431C190.418 185.76 190.376 186.108 190.219 186.409L131.791 298.234C131.637 298.528 131.384 298.757 131.078 298.88C130.771 299.004 130.43 299.013 130.117 298.908L130.117 298.907ZM39.7985 233.801L130.061 295.569L187.195 186.22L96.9325 124.452L39.7985 233.801Z" fill="#3375E0"/>
<path d="M188.991 185.769L203.284 181.832L158.954 287.723L130.563 297.594L188.991 185.769Z" fill="#A8CFFB"/>
<path d="M130.117 298.907C129.928 298.843 129.755 298.739 129.61 298.602C129.465 298.464 129.352 298.297 129.278 298.112C129.203 297.926 129.17 297.726 129.181 297.527C129.191 297.327 129.244 297.132 129.337 296.954L187.765 185.129C187.854 184.96 187.976 184.811 188.124 184.691C188.273 184.571 188.444 184.483 188.628 184.433L202.92 180.496C203.171 180.427 203.435 180.429 203.684 180.504C203.932 180.578 204.155 180.721 204.326 180.916C204.497 181.11 204.61 181.35 204.652 181.606C204.693 181.862 204.662 182.125 204.562 182.365L160.232 288.257C160.157 288.437 160.044 288.599 159.902 288.733C159.76 288.866 159.591 288.969 159.407 289.033L131.016 298.904C130.725 299.006 130.409 299.007 130.118 298.908L130.117 298.907ZM189.938 186.945L133.408 295.139L157.917 286.617L200.908 183.923L189.938 186.945L189.938 186.945Z" fill="#3375E0"/>
<path d="M110.721 118.489L96.4289 122.427L188.992 185.769L203.284 181.832L110.721 118.489Z" fill="#A8CFFB"/>
<path d="M188.545 187.082C188.426 187.042 188.313 186.986 188.208 186.914L95.6451 123.571C95.4275 123.422 95.2572 123.213 95.1542 122.97C95.0513 122.727 95.0199 122.459 95.0639 122.199C95.1079 121.938 95.2254 121.695 95.4025 121.499C95.5796 121.302 95.809 121.16 96.0636 121.09L110.356 117.152C110.55 117.099 110.753 117.088 110.952 117.122C111.15 117.155 111.338 117.231 111.504 117.344L204.067 180.687C204.285 180.836 204.455 181.044 204.559 181.287C204.662 181.531 204.693 181.799 204.649 182.059C204.605 182.32 204.487 182.563 204.31 182.76C204.133 182.956 203.903 183.098 203.648 183.168L189.356 187.105C189.089 187.178 188.806 187.17 188.545 187.082L188.545 187.082ZM99.6772 122.969L189.246 184.262L200.035 181.29L110.467 119.996L99.6772 122.969Z" fill="#3375E0"/>
<mask id="mask0_5638_4337" style="mask-type:luminance" maskUnits="userSpaceOnUse" x="38" y="122" width="151" height="176">
<path d="M130.564 297.594L38.0012 234.252L96.4289 122.426L188.992 185.769L130.564 297.594Z" fill="white"/>
</mask>
<g mask="url(#mask0_5638_4337)">
<path d="M77.4859 291.494C74.4971 290.482 72.1086 287.959 71.4171 284.643C70.3765 279.649 73.5793 274.747 78.5713 273.693C100.827 268.997 113.596 259.61 120.388 252.563C128.243 244.415 132.267 235 131.429 226.73C131.385 226.293 131.327 225.858 131.255 225.425C124.214 231.631 114.404 236.561 102 240.116C86.9774 244.423 73.9876 241.776 66.3611 232.857C59.9876 225.403 58.7064 214.979 63.0174 205.652C68.3616 194.089 80.7964 187.198 96.281 187.217C107.022 187.23 116.417 188.934 124.349 192.296C118.156 175.31 90.2349 158.029 61.959 160.261C56.8751 160.664 52.438 156.863 52.0488 151.775C51.6595 146.687 55.4653 142.237 60.5498 141.836C78.9447 140.383 98.0205 145.102 114.265 155.121C130.373 165.058 141.032 178.721 143.509 192.608C144.385 197.522 144.231 202.315 143.079 206.873C146.82 212.147 149.135 218.259 149.8 224.824C151.187 238.52 145.305 253.302 133.662 265.38C121.339 278.165 103.591 287.293 82.3393 291.778C80.7242 292.121 79.0476 292.023 77.4854 291.494L77.4859 291.494ZM114.676 208.381C109.523 206.636 103.314 205.708 96.2163 205.699C88.148 205.69 82.0013 208.561 79.7736 213.38C78.5325 216.065 78.7738 218.916 80.4022 220.82C83.1002 223.975 89.2882 224.546 96.9556 222.349C104.054 220.314 113.908 216.623 120.01 210.68C118.386 209.803 116.605 209.035 114.676 208.382L114.676 208.381Z" fill="white"/>
</g>
<path d="M130.117 298.907C129.999 298.867 129.885 298.811 129.78 298.739L37.2176 235.397C36.9382 235.206 36.7388 234.919 36.657 234.59C36.5753 234.261 36.617 233.913 36.7741 233.612L95.2022 121.787C95.2928 121.613 95.4192 121.46 95.5731 121.338C95.727 121.217 95.9048 121.129 96.0949 121.081C96.2849 121.034 96.4828 121.027 96.6754 121.061C96.8681 121.096 97.0512 121.171 97.2126 121.281L189.775 184.624C190.055 184.815 190.254 185.102 190.336 185.431C190.418 185.76 190.376 186.108 190.219 186.409L131.791 298.234C131.637 298.528 131.384 298.757 131.078 298.88C130.771 299.004 130.43 299.013 130.117 298.908L130.117 298.907ZM39.7985 233.801L130.061 295.569L187.195 186.22L96.9325 124.452L39.7985 233.801Z" fill="#3375E0"/>
<path d="M159.63 175.614C159.436 175.549 159.26 175.442 159.113 175.3C158.966 175.158 158.852 174.986 158.78 174.794C158.707 174.603 158.678 174.399 158.694 174.195C158.71 173.991 158.771 173.793 158.872 173.615C159.519 172.481 160.775 170.528 162.513 167.824C174.545 149.103 211.16 92.1354 189.629 77.5626C186.147 75.206 182.402 74.5373 178.179 75.518C157.982 80.2077 134.663 120.73 123.456 140.204C121.82 143.045 120.408 145.499 119.329 147.274C119.135 147.583 118.828 147.803 118.474 147.888C118.119 147.972 117.746 147.913 117.436 147.724C117.125 147.535 116.901 147.232 116.813 146.878C116.725 146.525 116.779 146.151 116.964 145.837C118.026 144.091 119.431 141.65 121.057 138.824C132.459 119.01 156.186 77.7796 177.559 72.8166C182.504 71.6687 187.088 72.4919 191.184 75.2645C201.48 82.2329 201.605 97.753 191.558 121.394C183.581 140.163 171.391 159.129 164.842 169.319C163.191 171.887 161.888 173.915 161.277 174.985C161.117 175.265 160.866 175.481 160.565 175.595C160.265 175.71 159.934 175.717 159.63 175.614Z" fill="#3375E0"/>
</g>
<g clip-path="url(#clip3_5638_4337)">
<path d="M79.9911 382.367C69.3505 365.224 83.6068 346.525 83.6068 346.525L95.6099 360.01C95.6099 360.01 82.5279 383.351 98.156 403.233L79.9911 382.367Z" fill="#A8CFFB"/>
<path d="M98.1564 404.684C97.9465 404.685 97.739 404.64 97.5481 404.553C97.3572 404.467 97.1874 404.34 97.0502 404.182L78.8858 383.317C78.8347 383.258 78.7882 383.195 78.7469 383.129C74.1639 375.745 73.3584 366.906 76.4186 357.568C78.7021 350.597 82.29 345.847 82.4411 345.648C82.5717 345.476 82.739 345.336 82.9309 345.236C83.1227 345.137 83.3344 345.081 83.5507 345.073C83.9922 345.065 84.4117 345.236 84.7012 345.562L96.7047 359.047C97.116 359.509 97.1886 360.178 96.8869 360.716C96.7617 360.94 84.4785 383.472 99.3078 402.338C99.4765 402.553 99.5811 402.81 99.6097 403.08C99.6384 403.351 99.5899 403.624 99.4699 403.869C99.3499 404.114 99.1631 404.32 98.9309 404.464C98.6986 404.608 98.4303 404.684 98.1564 404.684ZM81.1746 381.506L90.8425 392.611C88.9747 386.828 88.5352 380.53 89.578 373.94C90.6296 367.297 92.8668 362.23 93.8531 360.229L83.7626 348.893C80.8194 353.524 72.9647 368.147 81.1746 381.506Z" fill="#3375E0"/>
<path d="M125.819 381.45C116.282 387.497 92.5488 394.729 79.9912 382.367C79.9912 382.367 88.6704 394.828 98.1561 403.232C98.1561 403.232 113.477 414.485 134.045 404.112L125.819 381.45Z" fill="#A8CFFB"/>
<path d="M116.396 409.995C105.094 409.995 97.732 404.727 97.2871 404.4C97.2511 404.374 97.2164 404.346 97.1833 404.316C87.6766 395.894 79.1475 383.709 78.7894 383.194C78.5824 382.896 78.4947 382.532 78.5434 382.174C78.5922 381.815 78.7739 381.487 79.053 381.255C79.332 381.022 79.6884 380.902 80.0522 380.917C80.4161 380.932 80.7613 381.081 81.0202 381.335C92.7211 392.853 115.459 386.297 125.032 380.226C125.217 380.108 125.426 380.034 125.644 380.008C125.862 379.982 126.082 380.005 126.29 380.075C126.498 380.145 126.687 380.261 126.843 380.414C127 380.567 127.119 380.752 127.194 380.957L135.42 403.62C135.541 403.953 135.536 404.319 135.404 404.648C135.273 404.977 135.025 405.247 134.706 405.407C127.935 408.822 121.726 409.995 116.395 409.995L116.396 409.995ZM99.0745 402.1C100.147 402.862 113.718 412.062 132.226 403.381L125.046 383.602C116.575 388.351 99.3147 393.84 86.3039 388.292C89.6477 392.472 94.2732 397.837 99.0745 402.1Z" fill="#3375E0"/>
</g>
<g clip-path="url(#clip4_5638_4337)">
<path d="M152.753 32.6922C152.716 32.6041 152.68 32.5153 152.646 32.426C150.812 27.6665 153.151 22.3088 157.869 20.4593C167.426 16.7126 177.615 16.2254 187.333 19.0508C196.018 21.5761 203.968 26.5922 210.323 33.5571C222.909 47.3512 226.486 65.6925 219.435 80.2844C217.217 84.8743 211.73 86.7811 207.18 84.5437C202.63 82.3054 200.74 76.7707 202.957 72.1818C206.679 64.48 204.275 54.2325 196.836 46.079C189.994 38.5806 177.91 32.4408 164.51 37.694C159.88 39.5088 154.679 37.2724 152.753 32.6922Z" fill="#A8CFFB"/>
<path d="M211.179 86.8641C209.584 86.864 208.01 86.4966 206.577 85.7898C201.353 83.2201 199.175 76.8431 201.721 71.5738C205.194 64.3883 202.879 54.7496 195.823 47.0182C189.289 39.8567 177.763 33.986 165.007 38.9863C159.665 41.0813 153.727 38.5541 151.488 33.2352C150.921 31.8999 150.633 30.4609 150.642 29.0082C150.652 27.5555 150.958 26.1203 151.542 24.7924C152.096 23.5125 152.897 22.3563 153.898 21.3906C154.898 20.4249 156.079 19.669 157.371 19.1666C167.211 15.309 177.704 14.8084 187.713 17.7183C196.641 20.3144 204.809 25.4664 211.334 32.6181C224.307 46.8351 227.971 65.7839 220.67 80.8921C218.846 84.6661 215.085 86.8641 211.179 86.8646V86.8641ZM174.65 34.3391C184.282 34.3391 192.564 39.3501 197.846 45.14C205.673 53.7173 208.164 64.5704 204.193 72.7895C202.31 76.6841 203.921 81.3978 207.782 83.2973C211.644 85.1949 216.316 83.5719 218.198 79.6768C225 65.6017 221.511 47.8674 209.311 34.4968C203.127 27.719 195.395 22.8389 186.951 20.3838C177.526 17.6435 167.641 18.1164 158.366 21.7525C157.411 22.1238 156.539 22.6825 155.799 23.3963C155.06 24.11 154.468 24.9646 154.058 25.9106C153.626 26.8919 153.4 27.9523 153.393 29.0258C153.386 30.0992 153.599 31.1626 154.018 32.1494V32.1508C155.672 36.0828 160.061 37.9504 164.01 36.4013C167.676 34.9646 171.247 34.3391 174.649 34.3391H174.65Z" fill="#3375E0"/>
<path d="M219.435 80.2842C213.391 92.7909 203.054 99.0569 191.784 97.0456C182.218 95.3389 173.623 87.7004 169.632 78.2138C168.487 75.4924 167.723 72.6213 167.421 69.6923C166.156 57.391 173.059 46.9451 185.887 41.7488C198.496 36.6417 212.294 38.4075 224.739 46.7223C235.028 53.5958 243.986 64.815 249.324 77.5065L249.344 77.5523C251.317 82.2544 249.138 87.68 244.477 89.6706C239.818 91.6606 234.441 89.4653 232.466 84.7678C232.46 84.7525 232.454 84.7405 232.448 84.7266C228.48 75.2904 221.982 67.0588 214.617 62.138C207.134 57.139 199.759 56.0324 192.718 58.9072C186.914 61.2772 185.589 64.373 185.655 67.7832C185.761 73.267 189.924 78.6557 194.978 78.8369C197.931 78.9428 200.572 77.1168 202.957 72.1812" fill="#A8CFFB"/>
<path d="M195.935 98.8053C194.491 98.8053 193.027 98.6754 191.545 98.4105C181.753 96.6632 172.654 88.9479 168.367 78.755C167.141 75.8413 166.363 72.8398 166.054 69.8346C164.722 56.8819 171.945 45.9017 185.375 40.4613C198.416 35.1785 212.666 36.992 225.498 45.5656C236.004 52.5851 245.15 64.0295 250.59 76.9646L250.609 77.0113C252.875 82.4101 250.365 88.6618 245.013 90.9472C239.665 93.2308 233.468 90.7022 231.2 85.3085C231.193 85.2921 231.186 85.2757 231.179 85.2595C227.317 76.0766 221.002 68.0674 213.858 63.2935C206.754 58.5484 199.816 57.5046 193.234 60.1922C187.697 62.4531 186.98 65.1639 187.03 67.7558C187.125 72.6831 190.936 77.3039 195.027 77.4509C196.658 77.5087 199.117 76.9632 201.721 71.5732C201.799 71.4076 201.909 71.2592 202.044 71.1366C202.179 71.014 202.337 70.9197 202.509 70.8591C202.68 70.7984 202.862 70.7727 203.043 70.7834C203.225 70.7941 203.402 70.8409 203.566 70.9213C203.729 71.0016 203.875 71.1138 203.995 71.2514C204.115 71.389 204.207 71.5493 204.265 71.7229C204.324 71.8966 204.347 72.0801 204.335 72.263C204.322 72.4459 204.274 72.6245 204.193 72.7885C201.71 77.9256 198.676 80.359 194.929 80.2226C189.38 80.0234 184.404 74.2234 184.28 67.8099C184.189 63.1026 186.707 59.8649 192.202 57.6211C199.675 54.5701 207.472 55.7008 215.376 60.9813C222.959 66.0472 229.643 74.5049 233.714 84.1843L233.741 84.2485C235.408 88.2111 239.988 90.0805 243.941 88.3927C247.897 86.7032 249.752 82.0823 248.077 78.0921L249.324 77.5054L248.058 78.0468C242.824 65.6002 234.048 54.6038 223.98 47.8769C211.923 39.821 198.576 38.1019 186.4 43.0338C174.174 47.986 167.591 57.8975 168.789 69.5471C169.07 72.2777 169.779 75.0106 170.898 77.67C174.832 87.0212 183.124 94.0902 192.023 95.6781C202.652 97.5747 212.439 91.5925 218.198 79.6749C218.276 79.5092 218.386 79.3608 218.521 79.2383C218.656 79.1157 218.814 79.0214 218.986 78.9607C219.157 78.9001 219.339 78.8744 219.521 78.8851C219.702 78.8957 219.88 78.9426 220.043 79.0229C220.206 79.1033 220.352 79.2155 220.472 79.3531C220.592 79.4907 220.684 79.651 220.743 79.8246C220.801 79.9982 220.825 80.1818 220.812 80.3647C220.8 80.5476 220.751 80.7262 220.67 80.8902C215.129 92.3557 206.091 98.8039 195.934 98.8039L195.935 98.8053Z" fill="#3375E0"/>
</g>
<g clip-path="url(#clip5_5638_4337)">
<path d="M178.313 166.079C178.122 166.014 177.947 165.907 177.801 165.767C177.656 165.626 177.543 165.454 177.471 165.265C177.399 165.075 177.371 164.871 177.387 164.668C177.402 164.466 177.463 164.269 177.563 164.092C186.926 147.608 215.832 92.7152 194.724 78.402C194.574 78.3011 194.445 78.1713 194.346 78.0202C194.246 77.8692 194.177 77.6997 194.143 77.5215C194.109 77.3433 194.11 77.16 194.147 76.982C194.183 76.8041 194.254 76.6349 194.356 76.4843C194.458 76.3337 194.588 76.2047 194.74 76.1045C194.891 76.0043 195.06 75.9351 195.238 75.9006C195.416 75.8662 195.599 75.8673 195.776 75.9039C195.953 75.9405 196.121 76.0118 196.27 76.1138C218.7 91.3233 192.329 143.656 179.95 165.45C179.792 165.729 179.542 165.944 179.243 166.059C178.944 166.174 178.616 166.181 178.313 166.079L178.313 166.079Z" fill="#3375E0"/>
<path d="M160.174 175.589C159.982 175.524 159.806 175.417 159.661 175.277C159.515 175.136 159.402 174.964 159.331 174.774C159.259 174.584 159.23 174.38 159.246 174.177C159.263 173.974 159.323 173.777 159.424 173.6C160.067 172.471 161.316 170.525 163.044 167.833C175.005 149.191 211.403 92.4611 190.047 77.9791C189.897 77.8782 189.768 77.7485 189.668 77.5974C189.569 77.4463 189.5 77.2768 189.466 77.0987C189.432 76.9205 189.433 76.7372 189.469 76.5592C189.506 76.3812 189.577 76.2121 189.679 76.0615C189.781 75.9109 189.911 75.7818 190.062 75.6817C190.214 75.5815 190.383 75.5122 190.561 75.4778C190.739 75.4434 190.921 75.4445 191.098 75.4811C191.275 75.5177 191.443 75.589 191.593 75.691C201.805 82.6157 201.914 98.061 191.918 121.599C183.982 140.286 171.864 159.172 165.353 169.32C163.712 171.877 162.417 173.896 161.81 174.962C161.651 175.241 161.401 175.455 161.103 175.57C160.804 175.684 160.476 175.691 160.174 175.589Z" fill="#3375E0"/>
<path d="M205.412 166.34C205.105 166.236 204.845 166.026 204.679 165.748C204.512 165.469 204.449 165.14 204.501 164.818C205.969 155.73 209.408 134.447 208.931 115.231C208.382 93.1226 202.896 80.6652 192.622 78.215C192.447 78.1732 192.281 78.0971 192.135 77.991C191.989 77.8849 191.866 77.7508 191.772 77.5965C191.678 77.4422 191.615 77.2707 191.587 77.0918C191.56 76.9128 191.567 76.73 191.61 76.5537C191.653 76.3775 191.729 76.2112 191.836 76.0644C191.942 75.9176 192.076 75.7931 192.23 75.6981C192.384 75.6031 192.556 75.5394 192.734 75.5107C192.912 75.482 193.094 75.4887 193.27 75.5306C204.901 78.3127 211.096 91.6393 211.679 115.15C212.162 134.624 208.695 156.084 207.215 165.248C207.183 165.447 207.108 165.636 206.996 165.803C206.883 165.97 206.736 166.11 206.564 166.214C206.393 166.318 206.201 166.383 206.002 166.405C205.802 166.427 205.601 166.405 205.412 166.34Z" fill="#3375E0"/>
<path d="M193.478 173.951C193.153 173.841 192.881 173.611 192.717 173.309C192.552 173.006 192.507 172.652 192.59 172.317L192.994 170.691C198.051 150.343 209.892 102.694 198.966 84.6197C196.865 81.1439 194.095 79.0379 190.496 78.1771C190.141 78.0924 189.836 77.8698 189.646 77.5582C189.456 77.2466 189.398 76.8716 189.484 76.5157C189.57 76.1598 189.793 75.852 190.104 75.6602C190.415 75.4684 190.789 75.4082 191.144 75.4929C195.429 76.5154 198.853 79.1033 201.319 83.1811C212.838 102.236 200.801 150.667 195.662 171.348L195.259 172.973C195.213 173.158 195.129 173.333 195.012 173.485C194.896 173.636 194.749 173.762 194.582 173.854C194.414 173.946 194.23 174.003 194.04 174.019C193.85 174.036 193.659 174.013 193.479 173.952L193.478 173.951Z" fill="#3375E0"/>
</g>
<g clip-path="url(#clip6_5638_4337)">
<path d="M78.4274 101.139C69.5338 114.624 51.1261 110.585 51.1261 110.585L56.8986 97.3433C56.8986 97.3433 78.2893 98.9684 87.497 80.945L78.4274 101.139Z" fill="#3375E0"/>
<path d="M88.5535 80.4558C88.6243 80.6079 88.6616 80.7733 88.6628 80.9409C88.664 81.1084 88.6291 81.2741 88.5605 81.4267L79.4911 101.62C79.4654 101.677 79.4353 101.732 79.4011 101.784C75.5704 107.592 69.4089 111.152 61.5826 112.078C55.7412 112.769 51.0761 111.768 50.8804 111.725C50.7117 111.688 50.5531 111.614 50.4162 111.509C50.2793 111.403 50.1674 111.268 50.0886 111.114C49.9343 110.797 49.9171 110.435 50.0575 110.115L55.8299 96.8734C56.0272 96.4199 56.4897 96.142 56.983 96.1794C57.1883 96.1947 77.721 97.5134 86.4583 80.411C86.5576 80.2165 86.7096 80.0541 86.8969 79.9422C87.0842 79.8303 87.2993 79.7734 87.5178 79.7781C87.7362 79.7828 87.9491 79.8487 88.1323 79.9685C88.3155 80.0883 88.4612 80.2573 88.5535 80.4558ZM77.4028 100.57L82.2293 89.8229C78.6497 93.1239 74.2141 95.5631 69.0672 97.0258C63.8787 98.5001 59.4379 98.5843 57.6496 98.543L52.7969 109.675C57.1583 110.249 70.4445 111.02 77.4028 100.57Z" fill="#3375E0"/>
<path d="M62.3318 68.2249C69.9431 73.1023 83.1959 87.8733 78.4271 101.139C78.4271 101.139 84.5741 90.6514 87.4963 80.9454C87.4963 80.9454 90.5277 66.0502 76.0544 54.6312L62.3318 68.2249Z" fill="#3375E0"/>
<path d="M86.2776 65.4453C90.0826 73.6389 88.7275 80.7492 88.6391 81.1819C88.6321 81.2168 88.6234 81.2514 88.613 81.2854C85.6845 91.0127 79.6878 101.299 79.4335 101.732C79.2865 101.982 79.0513 102.168 78.774 102.253C78.4966 102.339 78.197 102.317 77.9339 102.193C77.6708 102.069 77.4631 101.852 77.3514 101.583C77.2397 101.314 77.2321 101.013 77.3301 100.74C81.7732 88.3796 69.3467 74.103 61.7055 69.2073C61.558 69.1127 61.4334 68.9862 61.3412 68.8371C61.2489 68.6881 61.1913 68.5202 61.1725 68.3461C61.1537 68.1719 61.1743 67.9959 61.2328 67.8311C61.2912 67.6663 61.386 67.5168 61.5102 67.3939L75.2331 53.8C75.4348 53.6 75.7029 53.4811 75.9868 53.4655C76.2707 53.45 76.5508 53.539 76.7743 53.7157C81.5396 57.4752 84.4827 61.5811 86.2774 65.4458L86.2776 65.4453ZM86.3633 80.6606C86.557 79.626 88.6837 66.6908 76.135 56.1964L64.1576 68.0604C70.4658 72.6029 80.2715 83.2674 80.6141 94.5674C82.5306 90.7359 84.8773 85.5766 86.3633 80.6606Z" fill="#3375E0"/>
</g>
<g clip-path="url(#clip7_5638_4337)">
<path d="M298.704 280.903C298.262 280.769 297.898 280.417 297.77 279.939C297.39 278.521 296.875 276.853 296.278 274.921C292.972 264.214 287.975 248.033 294.037 236.776C296.709 231.813 301.299 228.351 307.678 226.486C317.074 223.741 325.392 224.727 332.403 229.418C347.978 239.839 351.299 264.064 351.807 268.814C351.829 268.996 351.814 269.18 351.764 269.357C351.715 269.533 351.63 269.698 351.516 269.842C351.402 269.985 351.261 270.105 351.1 270.193C350.939 270.282 350.763 270.338 350.581 270.357C350.398 270.377 350.214 270.36 350.038 270.308C349.863 270.256 349.699 270.17 349.557 270.054C349.416 269.938 349.298 269.795 349.212 269.633C349.126 269.472 349.073 269.295 349.056 269.112C347.717 256.582 342.149 239.27 330.862 231.718C324.563 227.504 317.023 226.637 308.451 229.142C302.73 230.813 298.812 233.738 296.472 238.085C290.96 248.321 295.751 263.835 298.921 274.101C299.526 276.06 300.048 277.751 300.442 279.218C300.506 279.456 300.505 279.707 300.439 279.945C300.373 280.183 300.245 280.399 300.068 280.571C299.89 280.743 299.67 280.864 299.43 280.923C299.191 280.981 298.94 280.974 298.704 280.903Z" fill="#3375E0"/>
<path d="M400.701 362.671L293.584 392.076L273.223 282.567L362.549 258.045L400.701 362.671Z" fill="#A8CFFB"/>
<path d="M293.18 393.399C292.938 393.326 292.721 393.188 292.552 392.999C292.383 392.81 292.27 392.579 292.224 392.33L271.863 282.821C271.799 282.48 271.867 282.128 272.051 281.833C272.236 281.539 272.524 281.325 272.859 281.233L362.184 256.712C362.519 256.62 362.876 256.657 363.184 256.816C363.493 256.975 363.73 257.244 363.849 257.57L402.001 362.195C402.067 362.375 402.095 362.566 402.082 362.757C402.07 362.948 402.019 363.135 401.931 363.305C401.843 363.475 401.72 363.625 401.572 363.745C401.423 363.866 401.25 363.954 401.066 364.004L293.948 393.409C293.697 393.478 293.43 393.475 293.18 393.399ZM274.815 283.563L294.669 390.344L398.887 361.735L361.685 259.717L274.815 283.563Z" fill="#3375E0"/>
<path d="M417.157 337.213L400.701 362.671L362.549 258.046L368.472 248.813L417.157 337.213Z" fill="#A8CFFB"/>
<path d="M400.298 363.994C400.093 363.932 399.905 363.823 399.75 363.676C399.594 363.529 399.475 363.347 399.401 363.146L361.249 258.521C361.176 258.321 361.15 258.107 361.174 257.895C361.198 257.683 361.27 257.48 361.385 257.3L367.309 248.067C367.438 247.865 367.618 247.701 367.83 247.589C368.042 247.477 368.28 247.423 368.52 247.431C368.759 247.438 368.992 247.508 369.197 247.633C369.401 247.759 369.569 247.935 369.685 248.145L418.369 336.544C418.615 336.99 418.595 337.535 418.318 337.962L401.862 363.421C401.699 363.673 401.458 363.866 401.176 363.969C400.893 364.073 400.585 364.081 400.298 363.994ZM364.083 258.214L401.049 359.586L415.547 337.157L368.381 251.515L364.083 258.214Z" fill="#3375E0"/>
<path d="M273.223 282.567L279.147 273.334L368.472 248.813L362.549 258.045L273.223 282.567Z" fill="#A8CFFB"/>
<path d="M272.82 283.89C272.615 283.828 272.428 283.72 272.273 283.573C272.117 283.426 271.998 283.246 271.925 283.045C271.851 282.845 271.825 282.63 271.848 282.417C271.871 282.205 271.944 282.001 272.059 281.821L277.983 272.588C278.168 272.3 278.453 272.09 278.783 272L368.108 247.479C368.378 247.404 368.664 247.413 368.929 247.505C369.193 247.596 369.424 247.766 369.589 247.991C369.755 248.217 369.848 248.487 369.857 248.767C369.865 249.047 369.789 249.323 369.637 249.558L363.713 258.791C363.528 259.079 363.244 259.289 362.914 259.379L273.587 283.9C273.335 283.97 273.069 283.966 272.82 283.89ZM280.023 274.527L276.333 280.279L361.672 256.852L365.362 251.1L280.023 274.527Z" fill="#3375E0"/>
<mask id="mask1_5638_4337" style="mask-type:luminance" maskUnits="userSpaceOnUse" x="273" y="258" width="128" height="135">
<path d="M400.701 362.671L293.584 392.076L273.223 282.567L362.549 258.045L400.701 362.671Z" fill="white"/>
</mask>
<g mask="url(#mask1_5638_4337)">
<path d="M339.637 392.5C329.783 389.51 321.523 384.505 315.835 377.887C312.984 374.569 309.131 368.817 307.725 360.835C301.781 357.736 296.864 352.949 293.421 346.79C287.513 336.22 286.409 322.633 290.394 309.512C294.625 295.578 304.096 283.838 317.061 276.456C321.489 273.934 327.118 275.477 329.634 279.902C332.149 284.326 330.599 289.957 326.17 292.479C317.332 297.511 310.893 305.455 308.041 314.848C305.543 323.074 306.097 331.645 309.523 337.775C309.748 338.178 309.987 338.572 310.24 338.958C313.085 331.487 318.165 323.102 326.496 313.862C340.656 298.154 354.077 300.413 359.186 302.108C368.35 305.153 374.859 313.634 375.769 323.714C376.906 336.312 369.461 348.304 355.854 355.793C346.317 361.042 337.308 364.033 328.942 364.74C329.224 365.123 329.52 365.495 329.83 365.856C335.534 372.493 346.712 376.731 359.729 377.195C374.154 377.708 389.216 373.526 401.054 365.719C405.308 362.913 411.027 364.085 413.827 368.335C416.626 372.585 415.447 378.305 411.193 381.11C396.004 391.127 377.485 396.281 359.047 395.625C352.138 395.379 345.595 394.308 339.636 392.5L339.637 392.5ZM353.217 319.568C349.747 318.515 344.891 320.982 340.188 326.199C335.635 331.249 329.892 338.67 327.2 346.402C332.92 345.952 339.597 343.703 346.979 339.64C353.962 335.796 357.858 330.472 357.4 325.397C357.149 322.616 355.558 320.344 353.347 319.609C353.304 319.595 353.26 319.581 353.217 319.568Z" fill="white"/>
</g>
<path d="M293.18 393.399C292.938 393.326 292.721 393.188 292.552 392.999C292.383 392.81 292.27 392.579 292.224 392.33L271.863 282.821C271.799 282.48 271.867 282.128 272.051 281.833C272.236 281.539 272.524 281.325 272.859 281.233L362.184 256.712C362.519 256.62 362.876 256.657 363.184 256.816C363.493 256.975 363.73 257.244 363.849 257.57L402.001 362.195C402.067 362.375 402.095 362.566 402.082 362.757C402.07 362.948 402.019 363.135 401.931 363.305C401.843 363.475 401.72 363.625 401.572 363.745C401.423 363.866 401.25 363.954 401.066 364.004L293.948 393.409C293.697 393.478 293.43 393.475 293.18 393.399ZM274.815 283.563L294.669 390.344L398.887 361.735L361.685 259.717L274.815 283.563Z" fill="#3375E0"/>
<path d="M290.21 286.406C289.768 286.272 289.404 285.921 289.276 285.442C287.328 278.177 285.571 265.714 287.033 254.496C288.981 239.55 296.12 229.864 307.679 226.486C315.476 224.208 322.104 224.853 327.38 228.405C339.497 236.564 341.695 258.349 343.009 271.365C343.114 272.404 343.214 273.392 343.313 274.318C343.335 274.5 343.32 274.685 343.27 274.861C343.221 275.037 343.136 275.202 343.022 275.346C342.908 275.489 342.766 275.609 342.606 275.698C342.445 275.786 342.269 275.842 342.086 275.862C341.904 275.881 341.72 275.865 341.544 275.813C341.369 275.761 341.205 275.674 341.063 275.558C340.921 275.442 340.804 275.299 340.718 275.138C340.632 274.976 340.579 274.799 340.562 274.616C340.462 273.685 340.362 272.691 340.257 271.647C338.992 259.113 336.875 238.136 325.832 230.701C321.271 227.63 315.423 227.105 308.452 229.142C297.88 232.231 291.597 240.88 289.777 254.85C288.367 265.666 290.065 277.702 291.948 284.722C292.012 284.961 292.011 285.212 291.945 285.45C291.88 285.687 291.751 285.903 291.574 286.075C291.397 286.247 291.177 286.368 290.937 286.427C290.697 286.485 290.446 286.478 290.21 286.406ZM352.552 262.002C352.255 261.912 351.997 261.724 351.82 261.469C351.643 261.215 351.557 260.908 351.576 260.598C352.647 242.856 361.872 227.648 376.255 219.916C376.578 219.742 376.957 219.704 377.308 219.809C377.659 219.915 377.954 220.156 378.127 220.479C378.301 220.802 378.338 221.181 378.232 221.532C378.126 221.884 377.885 222.179 377.562 222.352C357.513 233.131 354.716 254.475 354.337 260.761C354.324 260.97 354.265 261.173 354.162 261.355C354.06 261.538 353.917 261.695 353.745 261.815C353.573 261.934 353.376 262.013 353.17 262.046C352.963 262.078 352.752 262.063 352.552 262.002L352.552 262.002Z" fill="#3375E0"/>
<path d="M415.252 184.446L428.503 208.794L394.941 227.09L376.908 221.134L381.689 202.742L415.252 184.446Z" fill="white"/>
<path d="M394.537 228.413L394.505 228.403L376.473 222.447C376.139 222.337 375.861 222.105 375.693 221.796C375.525 221.488 375.481 221.127 375.57 220.788L380.351 202.395C380.399 202.212 380.484 202.04 380.6 201.891C380.717 201.742 380.863 201.618 381.029 201.527L414.591 183.231C414.751 183.144 414.926 183.089 415.107 183.07C415.287 183.051 415.47 183.067 415.644 183.118C415.818 183.17 415.981 183.255 416.122 183.369C416.263 183.483 416.38 183.624 416.467 183.783L429.718 208.131C429.893 208.453 429.933 208.832 429.829 209.184C429.726 209.536 429.486 209.832 429.164 210.008L395.601 228.304C395.44 228.392 395.263 228.447 395.08 228.465C394.897 228.484 394.713 228.466 394.537 228.413ZM378.572 220.226L394.806 225.588L426.627 208.242L414.697 186.322L382.877 203.668L378.572 220.226Z" fill="#3375E0"/>
<path d="M391.759 205.795C391.43 205.694 391.15 205.473 390.975 205.177C390.8 204.881 390.742 204.53 390.812 204.193C390.882 203.856 391.075 203.557 391.353 203.354C391.632 203.151 391.976 203.059 392.318 203.096L418.342 205.982C418.707 206.022 419.04 206.206 419.269 206.492C419.498 206.779 419.603 207.144 419.562 207.509C419.522 207.874 419.337 208.207 419.051 208.437C418.764 208.666 418.398 208.772 418.033 208.732L392.01 205.846C391.925 205.837 391.841 205.82 391.759 205.795ZM400.5 218.803C399.251 218.424 398.22 217.586 397.596 216.438C397.284 215.869 397.088 215.242 397.02 214.596C396.952 213.95 397.012 213.296 397.198 212.673C397.381 212.048 397.685 211.467 398.094 210.96C398.503 210.454 399.008 210.034 399.58 209.725C400.15 209.412 400.777 209.215 401.423 209.146C402.07 209.076 402.724 209.136 403.347 209.321C404.605 209.692 405.664 210.547 406.292 211.698C406.604 212.268 406.8 212.894 406.868 213.541C406.936 214.187 406.876 214.841 406.69 215.464C406.315 216.732 405.469 217.779 404.308 218.412C403.147 219.045 401.809 219.189 400.542 218.816L400.5 218.803L400.5 218.803ZM402.58 211.981L402.562 211.975C402.287 211.893 401.999 211.867 401.714 211.898C401.429 211.928 401.152 212.015 400.901 212.153C400.389 212.433 400.016 212.894 399.851 213.453C399.686 214.012 399.748 214.602 400.027 215.113C400.299 215.617 400.759 215.992 401.307 216.156L401.326 216.162C401.6 216.244 401.889 216.27 402.174 216.239C402.459 216.209 402.735 216.122 402.986 215.984C403.499 215.705 403.872 215.243 404.037 214.684C404.202 214.125 404.14 213.535 403.861 213.024C403.589 212.521 403.129 212.146 402.581 211.981L402.58 211.981ZM407.068 202.058C405.819 201.679 404.789 200.841 404.165 199.693C403.853 199.123 403.657 198.497 403.589 197.851C403.52 197.204 403.581 196.551 403.766 195.927C403.949 195.303 404.254 194.721 404.663 194.215C405.071 193.709 405.576 193.289 406.148 192.979C408.545 191.672 411.556 192.558 412.86 194.953C413.491 196.113 413.633 197.451 413.258 198.719C412.883 199.987 412.038 201.034 410.876 201.667C409.715 202.3 408.377 202.443 407.11 202.07L407.068 202.058ZM409.148 195.236C408.607 195.072 408.004 195.116 407.47 195.408C406.958 195.687 406.585 196.149 406.42 196.708C406.254 197.267 406.317 197.856 406.595 198.368C406.874 198.88 407.322 199.244 407.894 199.417C408.168 199.498 408.457 199.524 408.742 199.494C409.027 199.463 409.303 199.376 409.555 199.238C410.067 198.959 410.44 198.497 410.605 197.938C410.77 197.379 410.708 196.79 410.429 196.278C410.156 195.775 409.696 195.401 409.148 195.236Z" fill="#3375E0"/>
</g>
<g clip-path="url(#clip8_5638_4337)">
<path d="M327.303 246.655C329.321 246.442 331.303 246.107 333.243 245.647C344.382 243.01 353.598 236.252 358.527 227.105C362.613 219.521 363.492 210.875 361.001 202.759C358.396 194.27 352.328 186.911 343.454 181.478C339.698 179.178 335.713 177.641 331.61 176.906C326.533 175.998 321.68 179.37 320.771 184.438C319.862 189.505 323.241 194.35 328.319 195.259C330.122 195.581 331.929 196.293 333.692 197.372C344.583 204.039 345.164 212.539 342.076 218.269C339.673 222.729 334.881 226.096 328.928 227.505C323.453 228.801 314.304 229.122 301.806 223.293C297.133 221.113 291.575 223.127 289.392 227.791C287.209 232.456 289.229 238.004 293.902 240.184C305.425 245.559 316.848 247.756 327.303 246.654L327.303 246.655Z" fill="white"/>
<path d="M334.849 246.684C334.425 246.798 333.997 246.906 333.566 247.008C331.551 247.483 329.509 247.829 327.45 248.045C316.774 249.17 304.968 246.89 293.309 241.452C287.943 238.949 285.616 232.555 288.122 227.2C288.716 225.922 289.557 224.774 290.598 223.824C291.639 222.873 292.859 222.138 294.186 221.661C296.882 220.687 299.799 220.814 302.398 222.027C314.529 227.685 323.344 227.389 328.603 226.145C334.168 224.828 338.628 221.716 340.842 217.607C343.627 212.439 343.018 204.722 332.959 198.564C331.347 197.577 329.702 196.928 328.072 196.636C322.242 195.593 318.348 190.01 319.392 184.191C320.435 178.372 326.027 174.488 331.856 175.53C336.133 176.296 340.281 177.896 344.186 180.287C353.356 185.901 359.634 193.53 362.341 202.35C364.942 210.826 364.026 219.852 359.76 227.768C354.834 236.911 345.802 243.751 334.849 246.684ZM327.155 245.264C329.095 245.06 331.02 244.734 332.919 244.286C343.67 241.742 352.553 235.237 357.293 226.442C361.201 219.189 362.042 210.924 359.662 203.167C357.158 195.01 351.3 187.922 342.721 182.67C339.116 180.462 335.294 178.986 331.363 178.282C327.054 177.511 322.921 180.382 322.15 184.684C321.378 188.984 324.256 193.111 328.565 193.882C330.541 194.236 332.512 195.008 334.424 196.179C346.147 203.356 346.701 212.638 343.309 218.931C340.717 223.743 335.6 227.363 329.25 228.865C323.559 230.212 314.074 230.558 301.213 224.559C300.269 224.116 299.246 223.864 298.205 223.818C297.163 223.772 296.122 223.932 295.143 224.289C294.161 224.642 293.26 225.185 292.491 225.888C291.722 226.591 291.099 227.439 290.661 228.383C288.809 232.341 290.528 237.067 294.494 238.917C305.691 244.14 316.986 246.334 327.155 245.264Z" fill="#3375E0"/>
<path d="M331.609 176.906C321.172 175.039 310.576 178.647 304.615 186.097C300.214 191.599 299.106 198.469 301.651 204.474C304.116 210.288 310.876 217.588 329.086 219.352C331.567 219.593 334.066 219.584 336.545 219.324C348.989 218.013 360.014 210.4 365.811 198.635C373.108 183.826 370.389 166.339 358.885 154.086C356.705 151.764 354.38 149.755 351.973 148.113C347.713 145.209 341.902 146.3 338.994 150.551C336.085 154.802 337.18 160.603 341.44 163.508C342.724 164.384 344.008 165.502 345.258 166.833C352.707 174.767 352.101 184.21 349.05 190.402C345.472 197.664 338.681 201.548 330.883 200.793C324 200.126 320.358 198.766 319.319 197.587C317.542 195.572 322.95 194.094 328.319 195.258" fill="white"/>
<path d="M342.527 219.634C340.631 220.142 338.682 220.505 336.693 220.715C334.12 220.984 331.527 220.994 328.951 220.744C310.056 218.915 302.975 211.183 300.362 205.019C297.613 198.534 298.794 191.134 303.521 185.224C309.798 177.379 320.919 173.573 331.856 175.53C332.038 175.561 332.213 175.628 332.369 175.726C332.525 175.825 332.66 175.954 332.767 176.105C332.873 176.256 332.948 176.426 332.988 176.607C333.028 176.787 333.032 176.973 332.999 177.155C332.967 177.337 332.899 177.51 332.799 177.665C332.699 177.82 332.569 177.954 332.416 178.059C332.264 178.164 332.093 178.238 331.912 178.276C331.731 178.314 331.544 178.317 331.363 178.283C321.423 176.505 311.355 179.916 305.711 186.971C301.635 192.065 300.6 198.406 302.942 203.931C305.258 209.395 311.698 216.264 329.221 217.96C331.608 218.192 334.013 218.184 336.398 217.934C348.513 216.658 359.039 209.213 364.555 198.018C371.591 183.736 368.966 166.867 357.864 155.042C355.754 152.795 353.507 150.853 351.184 149.269C347.569 146.804 342.62 147.733 340.151 151.341C337.683 154.949 338.616 159.889 342.23 162.355C343.599 163.287 344.961 164.473 346.28 165.879C354.218 174.333 353.565 184.409 350.307 191.02C346.462 198.825 339.15 203 330.749 202.186C324.233 201.555 319.8 200.25 318.268 198.512C317.499 197.64 317.359 196.577 317.893 195.669C319.217 193.422 324.49 192.998 328.617 193.893C328.797 193.932 328.968 194.006 329.119 194.111C329.27 194.216 329.399 194.349 329.499 194.504C329.598 194.658 329.666 194.831 329.699 195.012C329.732 195.192 329.729 195.378 329.69 195.557C329.651 195.737 329.577 195.907 329.472 196.058C329.367 196.209 329.233 196.337 329.079 196.437C328.924 196.536 328.751 196.604 328.57 196.637C328.389 196.669 328.203 196.666 328.023 196.627C324.548 195.873 321.638 196.39 320.623 196.886C321.591 197.591 324.628 198.784 331.019 199.403C338.213 200.099 344.484 196.504 347.793 189.786C350.637 184.014 351.196 175.205 344.236 167.791C343.057 166.534 341.85 165.482 340.651 164.665C335.76 161.329 334.498 154.645 337.837 149.764C341.177 144.884 347.873 143.626 352.764 146.96C355.255 148.66 357.659 150.736 359.908 153.131C371.815 165.814 374.625 183.918 367.069 199.254C362.03 209.481 353.099 216.805 342.527 219.636L342.527 219.634Z" fill="#3375E0"/>
<path d="M351.973 148.113C341.909 141.25 329.818 140.786 321.169 146.93C314.252 151.844 311.133 159.972 313.223 167.637C314.921 173.867 321.371 184.634 345.478 186.745C350.275 187.165 354.543 187.122 358.336 186.723C379.047 184.542 385.655 171.727 387.646 165.586C390.345 157.257 389.47 147.527 385.181 138.189C381.081 129.259 374.28 121.633 366.033 116.713C361.606 114.073 355.871 115.513 353.226 119.933C350.582 124.352 352.027 130.076 356.455 132.718C367.423 139.26 372.329 152.264 369.873 159.843C368.658 163.592 364.085 169.658 347.105 168.172C335.636 167.167 331.701 163.893 331.293 162.851C330.866 161.761 331.361 160.667 332.477 160.261C334.79 159.421 338.416 161.446 341.44 163.508" fill="white"/>
<path d="M365.934 186.758C363.669 187.364 361.193 187.828 358.483 188.114C354.442 188.539 350.025 188.548 345.355 188.139C320.402 185.953 313.665 174.586 311.871 168.004C309.625 159.767 312.956 151.048 320.357 145.791C329.488 139.304 342.209 139.761 352.763 146.959C353.064 147.17 353.27 147.492 353.335 147.853C353.401 148.215 353.322 148.588 353.114 148.891C352.906 149.195 352.587 149.405 352.226 149.475C351.865 149.546 351.49 149.471 351.183 149.268C341.609 142.739 330.147 142.269 321.982 148.07C315.548 152.64 312.641 160.177 314.575 167.27C316.178 173.149 322.34 183.316 345.6 185.353C350.091 185.746 354.326 185.74 358.189 185.333C377.636 183.284 384.156 171.813 386.313 165.156C388.903 157.161 388.049 147.791 383.908 138.772C379.924 130.098 373.321 122.69 365.315 117.914C361.556 115.673 356.673 116.9 354.429 120.651C352.184 124.401 353.416 129.276 357.173 131.518C368.705 138.397 373.824 152.194 371.206 160.274C369.863 164.418 364.929 171.137 346.983 169.565C335.053 168.52 330.65 165.05 329.987 163.361C329.643 162.481 329.657 161.547 330.027 160.729C330.399 159.907 331.098 159.275 331.996 158.948C334.361 158.09 337.517 159.139 342.23 162.354C342.382 162.457 342.512 162.59 342.612 162.744C342.713 162.897 342.782 163.069 342.816 163.25C342.85 163.43 342.849 163.616 342.811 163.796C342.773 163.975 342.7 164.146 342.596 164.297C342.493 164.449 342.36 164.579 342.206 164.679C342.052 164.78 341.88 164.849 341.699 164.883C341.518 164.917 341.333 164.915 341.153 164.877C340.973 164.84 340.802 164.767 340.65 164.663C335.999 161.491 333.9 161.233 332.956 161.576C332.827 161.623 332.655 161.714 332.58 161.881C332.514 162.028 332.542 162.191 332.585 162.311C333.054 163.053 336.792 165.865 347.227 166.779C363.24 168.181 367.454 162.765 368.54 159.413C370.833 152.335 366.139 140.124 355.736 133.918C350.652 130.885 348.986 124.29 352.023 119.216C355.059 114.142 361.666 112.48 366.751 115.513C375.239 120.577 382.236 128.424 386.454 137.607C390.888 147.265 391.785 157.354 388.977 166.017C387.309 171.165 381.897 182.482 365.933 186.758L365.934 186.758Z" fill="#3375E0"/>
</g>
<g clip-path="url(#clip9_5638_4337)">
<path d="M346.463 255.718C346.242 255.651 346.04 255.533 345.875 255.374C345.71 255.215 345.586 255.02 345.515 254.806C342.372 245.313 336.181 233.12 324.54 228.942C324.186 228.815 323.896 228.557 323.734 228.226C323.572 227.895 323.551 227.516 323.675 227.175C323.8 226.833 324.059 226.556 324.398 226.404C324.736 226.252 325.125 226.238 325.479 226.365C338.212 230.936 344.867 243.92 348.207 254.007C348.287 254.246 348.298 254.5 348.239 254.743C348.181 254.985 348.055 255.206 347.875 255.382C347.696 255.558 347.47 255.683 347.221 255.742C346.972 255.801 346.71 255.793 346.463 255.718Z" fill="#3375E0"/>
<path d="M341.053 275.414C340.787 275.333 340.549 275.178 340.37 274.969C340.191 274.76 340.079 274.505 340.047 274.236C339.936 273.31 339.824 272.322 339.706 271.282C338.274 258.676 335.879 237.578 324.247 230.256C323.93 230.057 323.705 229.744 323.622 229.387C323.539 229.03 323.604 228.658 323.805 228.353C324.005 228.049 324.323 227.836 324.688 227.761C325.054 227.687 325.438 227.758 325.756 227.957C338.541 236.006 341.031 257.93 342.518 271.029C342.635 272.062 342.747 273.046 342.857 273.967C342.884 274.193 342.853 274.421 342.767 274.631C342.681 274.841 342.543 275.026 342.364 275.169C342.185 275.312 341.972 275.41 341.743 275.452C341.515 275.495 341.278 275.482 341.053 275.414L341.053 275.414Z" fill="#3375E0"/>
</g>
<defs>
<clipPath id="clip0_5638_4337">
<rect width="52.4028" height="56.0655" fill="white" transform="matrix(-0.94926 -0.314492 -0.315709 0.948856 453.907 393.073)"/>
</clipPath>
<clipPath id="clip1_5638_4337">
<rect width="216.738" height="166.269" fill="white" transform="translate(52.7998 373.091)"/>
</clipPath>
<clipPath id="clip2_5638_4337">
<rect width="190.042" height="243.066" fill="white" transform="matrix(0.947155 0.320777 -0.321999 0.94674 89.626 38.9766)"/>
</clipPath>
<clipPath id="clip3_5638_4337">
<rect width="60.9231" height="64.8853" fill="white" transform="translate(74.5845 345.072)"/>
</clipPath>
<clipPath id="clip4_5638_4337">
<rect width="100.8" height="82.95" fill="white" transform="translate(150.646 15.8525)"/>
</clipPath>
<clipPath id="clip5_5638_4337">
<rect width="45.3814" height="105.846" fill="white" transform="matrix(0.947148 0.320796 -0.321979 0.946747 190.318 74.0459)"/>
</clipPath>
<clipPath id="clip6_5638_4337">
<rect width="48.6962" height="52.0286" fill="white" transform="matrix(-0.42119 -0.906973 0.90758 -0.419881 53.1064 117.615)"/>
</clipPath>
<clipPath id="clip7_5638_4337">
<rect width="164.214" height="236.78" fill="white" transform="matrix(0.956919 0.290356 -0.291523 0.956564 311.698 151.578)"/>
</clipPath>
<clipPath id="clip8_5638_4337">
<rect width="121.424" height="121.713" fill="white" transform="matrix(0.965966 -0.258668 0.259777 0.965669 262.099 140.165)"/>
</clipPath>
<clipPath id="clip9_5638_4337">
<rect width="32.1054" height="42.4146" fill="white" transform="matrix(0.956919 0.290354 -0.291524 0.956564 324.052 225.931)"/>
</clipPath>
</defs>
</svg>
