<svg width="421" height="421" viewBox="0 0 421 421" fill="none" xmlns="http://www.w3.org/2000/svg">
<path d="M141.053 56.6149L169.812 22.7986L387.797 54.2523C392.955 54.9965 397.955 56.5867 402.595 58.9588L403.712 59.5297L141.053 56.6149Z" fill="#FF5A48"/>
<path d="M147.117 78.1576L141.053 56.6145L403.712 59.5293L147.117 78.1576Z" fill="#4367F5"/>
<path d="M128.298 68.6531L403.566 59.3896C401.132 63.5729 397.274 66.74 392.696 68.3115L159.084 148.516L128.298 68.6531Z" fill="#4367F5"/>
<path d="M128.444 68.7928L84.5001 114.052L394.386 64.7523C398.017 64.1748 401.323 62.3232 403.712 59.5293L128.444 68.7928Z" fill="#FF5A48"/>
<path d="M172.38 205.216C176.952 202.587 180.917 199.146 184.156 194.966C186.997 191.3 189.342 186.784 190.902 182.471C192.452 178.186 193.479 173.72 194.106 169.21C194.143 168.94 194.179 168.67 194.214 168.4C194.229 168.276 194.245 168.152 194.26 168.028C194.268 167.964 194.312 167.597 194.288 167.808C194.349 167.28 194.405 166.751 194.455 166.221C194.554 165.196 194.633 164.169 194.693 163.141C194.803 161.266 194.851 159.387 194.842 157.509C194.828 154.635 194.682 151.761 194.387 148.902C194.302 148.08 194.204 147.258 194.088 146.439C194.069 146.309 194.047 146.179 194.031 146.049C194.073 146.387 194.073 146.317 194.034 146.075C194.021 145.994 194.006 145.912 193.993 145.83C193.848 144.92 194.485 144.439 194.95 143.755C195.364 143.146 195.721 142.501 196.024 141.831C196.587 140.585 196.919 139.225 197.126 137.878C197.471 135.633 197.364 133.193 197.056 130.884C197.023 130.632 197.055 130.864 197.046 130.806C197.028 130.694 197.01 130.582 196.992 130.47C196.96 130.285 196.927 130.1 196.892 129.915C196.84 129.64 196.784 129.365 196.721 129.092C196.632 128.704 196.551 128.378 196.624 127.965C196.795 126.981 197.025 126.003 197.225 125.025C198.046 121.014 198.867 117.002 199.688 112.991C199.987 111.527 200.287 110.063 200.586 108.6C200.64 108.339 200.707 108.077 200.747 107.814C200.903 106.796 200.289 105.833 199.27 105.591C198.144 105.325 197.16 106.117 196.934 107.202C196.684 108.408 194.802 108.437 194.507 107.243C194.294 106.379 193.662 105.701 192.733 105.635C191.774 105.567 191.078 106.198 190.729 107.031C190.274 108.115 188.755 107.679 188.423 106.769C188.097 105.875 187.15 105.342 186.221 105.531C185.249 105.728 184.828 106.512 184.642 107.406C184.531 107.944 183.978 108.342 183.445 108.351C182.854 108.361 182.426 107.967 182.215 107.448C181.826 106.489 180.666 106.034 179.724 106.413C179.058 106.681 178.684 107.241 178.528 107.922C178.33 108.783 178.167 109.654 177.986 110.519C177.301 113.805 176.616 117.09 175.931 120.376C175.751 121.242 175.57 122.107 175.39 122.973C175.2 123.882 173.933 124.238 173.296 123.564C172.445 122.664 171.594 121.764 170.743 120.864C170.433 120.536 170.121 120.126 169.758 119.852C169.069 119.332 168.35 119.49 167.785 120.002C167.511 120.251 167.299 120.555 167.166 120.902C167.004 121.321 166.998 121.629 167.074 121.948C167.309 122.929 167.951 123.799 168.562 124.628C169.216 125.516 169.931 126.364 170.523 127.296C171.111 128.219 171.461 129.235 171.689 130.301C172.765 135.336 171.859 140.603 171.534 145.672C171.2 150.867 170.506 156.105 168.681 161.007C166.791 166.084 163.76 170.519 159.976 174.376C158.05 176.339 155.875 178.158 153.368 179.327C151.182 180.347 148.833 180.861 146.42 180.858C141.811 180.852 137.143 179.226 133.413 176.545C131.513 175.179 129.82 173.565 128.488 171.632C127.811 170.649 127.326 169.563 126.694 168.554C125.838 167.188 125.335 165.724 124.772 164.224C124.693 164.013 124.479 163.705 124.472 163.494C124.463 163.253 124.413 163.485 124.459 163.407L124.979 163.402L124.983 163.401C125.4 163.014 124.848 163.061 125.206 163.125C125.216 163.127 125.681 163.255 125.852 163.282C126.885 163.445 128.013 163.374 129.052 163.275C131.261 163.064 133.266 161.9 134.357 160.022C135.341 158.326 135.646 156.299 135.702 154.352C135.732 153.302 135.693 152.252 135.617 151.205C135.544 150.202 135.293 149.134 135.343 148.132C135.381 147.365 135.85 146.834 136.512 146.511C136.809 146.367 137.105 146.223 137.371 146.024C137.449 145.966 137.497 145.927 137.581 145.852L137.724 145.715C137.915 145.482 137.92 145.534 137.737 145.869C137.798 146.08 137.859 146.291 137.92 146.501C137.802 146.235 137.493 146.064 137.275 145.865C136.993 145.607 136.721 145.337 136.461 145.057C135.916 144.471 135.414 143.842 134.945 143.195C134.055 141.967 133.307 140.644 132.58 139.315C131.172 136.745 129.818 134.066 127.64 132.048C125.434 130.004 122.562 128.747 119.577 128.422C116.559 128.094 113.56 128.696 110.752 129.791C108.375 130.718 105.694 132.174 104.472 134.53C104.44 134.592 104.413 134.657 104.38 134.718C104.256 134.943 104.464 134.43 104.392 134.681C104.357 134.801 104.31 134.917 104.276 135.037C104.234 135.189 104.199 135.342 104.169 135.497C104.154 135.578 104.143 135.66 104.127 135.74C104.059 136.101 104.133 135.596 104.114 135.828C104.053 136.566 104.062 137.303 104.117 138.04C104.191 139.021 104.303 139.758 104.431 140.504C104.6 141.487 104.8 142.466 105.01 143.441C105.439 145.433 105.914 147.414 106.321 149.411C106.702 151.277 107.053 153.175 107.142 155.081C107.214 156.607 107.123 158.269 106.376 159.638C105.624 161.015 104.256 161.728 102.728 161.853C101.59 161.946 100.543 161.661 99.4346 162.117C98.1474 162.648 97.123 163.71 96.2704 164.779C89.1332 173.729 89.0883 186.166 91.376 196.833C93.8257 208.254 98.7301 219.039 104.16 229.321C104.737 230.413 105.321 231.5 105.911 232.585C106.684 234.006 104.535 235.317 103.76 233.892C97.9779 223.263 92.6216 212.182 89.632 200.408C86.7004 188.861 86.0829 175.795 92.7854 165.382C94.5485 162.643 96.8754 159.716 100.343 159.32C100.947 159.25 101.529 159.339 102.131 159.351C102.315 159.355 102.501 159.351 102.685 159.336C102.771 159.329 102.857 159.319 102.943 159.308C102.555 159.356 102.927 159.307 103.01 159.282C103.157 159.239 103.301 159.193 103.446 159.144C103.696 159.059 103.191 159.29 103.413 159.156C103.473 159.119 103.537 159.089 103.598 159.052C103.657 159.015 103.712 158.973 103.771 158.936C103.984 158.803 103.559 159.143 103.734 158.965C103.847 158.85 103.957 158.737 104.064 158.616C103.795 158.918 104.086 158.572 104.146 158.467C104.213 158.351 104.266 158.229 104.325 158.11C104.401 157.956 104.225 158.418 104.301 158.168C104.324 158.094 104.352 158.022 104.375 157.948C104.432 157.769 104.477 157.586 104.515 157.402C104.55 157.234 104.575 157.065 104.6 156.896C104.543 157.28 104.615 156.702 104.621 156.602C104.648 156.179 104.649 155.755 104.634 155.331C104.602 154.408 104.496 153.488 104.358 152.576C104.401 152.856 104.34 152.465 104.335 152.439C104.315 152.32 104.296 152.201 104.276 152.081C104.234 151.839 104.191 151.597 104.147 151.356C104.047 150.818 103.94 150.281 103.828 149.746C102.992 145.732 101.761 141.685 101.569 137.569C101.489 135.871 101.67 134.161 102.626 132.713C104.348 130.103 107.192 128.486 110.042 127.375C116.294 124.938 123.472 125.303 128.776 129.7C131.3 131.793 132.912 134.67 134.458 137.506C135.213 138.893 135.973 140.283 136.878 141.58C137.286 142.165 137.724 142.724 138.21 143.246C138.766 143.844 139.587 144.348 140.008 145.05C140.57 145.987 140.12 146.934 139.391 147.601C139.071 147.895 138.721 148.169 138.347 148.392C138.125 148.524 137.67 148.679 137.562 148.817L137.876 148.257C137.764 148.596 137.958 149.243 137.997 149.62C138.052 150.16 138.102 150.7 138.14 151.241C138.218 152.343 138.254 153.449 138.211 154.553C138.124 156.763 137.753 159.018 136.7 160.989C135.541 163.16 133.526 164.746 131.163 165.419C129.868 165.788 128.496 165.876 127.154 165.872C125.93 165.868 124.421 165.815 123.45 164.962C122.249 163.906 122.331 161.93 123.815 161.185C124.518 160.833 125.33 160.916 125.95 161.396C126.563 161.871 126.833 162.592 127.105 163.293C127.388 164.027 127.627 164.778 127.917 165.509C128.192 166.198 128.576 166.812 128.967 167.439C129.601 168.457 130.082 169.546 130.781 170.526C133.39 174.189 137.646 176.675 141.953 177.764C144.096 178.306 146.339 178.508 148.536 178.203C151.041 177.856 153.369 176.674 155.386 175.137C157.562 173.478 159.455 171.377 161.17 169.256C162.846 167.183 164.252 164.891 165.368 162.472C167.535 157.777 168.462 152.6 168.887 147.478C169.103 144.886 169.294 142.287 169.479 139.692C169.666 137.062 169.821 134.349 169.409 131.732C169.32 131.171 169.195 130.612 169.036 130.066C168.865 129.483 168.797 129.301 168.493 128.798C167.913 127.838 167.183 126.975 166.515 126.077C165.096 124.172 163.859 121.952 165.002 119.595C166.104 117.324 168.981 116.218 171.134 117.76C172.256 118.564 173.163 119.763 174.105 120.76C174.418 121.091 174.732 121.423 175.045 121.754C174.347 121.951 173.649 122.148 172.951 122.345C173.493 119.746 174.035 117.146 174.577 114.547C174.943 112.794 175.308 111.041 175.674 109.287C175.87 108.344 175.992 107.322 176.373 106.429C177.045 104.856 178.646 103.793 180.356 103.762C182.321 103.727 183.913 104.969 184.631 106.737L182.204 106.779C182.592 104.906 183.905 103.379 185.847 103.053C188.063 102.682 190.08 103.98 190.839 106.059C190.07 105.972 189.302 105.885 188.534 105.798C189.268 104.048 191.146 102.96 193.024 103.152C194.905 103.344 196.468 104.692 196.923 106.533L194.496 106.574C194.903 104.613 196.606 103.173 198.592 103.034C200.64 102.891 202.602 104.316 203.133 106.29C203.52 107.728 203.008 109.309 202.717 110.73C201.765 115.382 200.813 120.033 199.862 124.685C199.591 126.006 199.321 127.328 199.05 128.649L199.039 127.98C199.422 129.404 199.62 130.901 199.748 132.366C200.005 135.308 199.844 138.381 198.937 141.206C198.329 143.1 197.399 144.835 196.106 146.348C196.207 145.938 196.307 145.528 196.408 145.118C196.69 146.709 196.863 148.324 197.007 149.932C197.349 153.738 197.441 157.569 197.293 161.387C197.093 166.547 196.458 171.714 195.244 176.737C193.894 182.318 191.804 187.777 188.781 192.672C185.47 198.033 181.053 202.648 175.77 206.094C175.089 206.538 174.393 206.962 173.688 207.367C172.282 208.175 170.974 206.024 172.38 205.216Z" fill="#03082B"/>
<path d="M127.927 178.62C130.089 184.026 135.717 186.046 140.791 187.831C145.833 189.605 151.239 191.467 154.442 196.038C159.046 202.608 155.791 211.381 159.958 218.112C164.066 224.747 172.164 227.426 179.534 228.228C195.867 230.005 211.607 222.625 222.344 210.55C233.244 198.291 239.048 182.443 242.056 166.529C244.004 156.224 244.864 145.758 245.566 135.306C245.929 129.893 246.267 124.479 246.614 119.065C246.79 116.325 246.987 113.585 247.142 110.844C247.198 109.871 247.332 108.762 246.987 107.832C246.826 107.398 245.348 105.766 244.96 106.943C244.803 107.418 244.326 107.948 243.762 107.888C238.053 107.279 231.338 105.633 226.76 110.103C223.384 113.398 222.006 118.485 223.807 122.911C224.242 123.978 222.875 124.846 221.983 124.364C219.086 122.799 216.189 121.234 213.292 119.669L215.116 118.216C223.001 145.805 217.624 177.106 199.968 199.896C195.725 205.373 190.697 210.281 184.934 214.146C178.824 218.243 171.92 220.892 164.781 222.559C157.469 224.266 149.985 225.061 142.541 225.946C138.497 226.426 134.453 226.925 130.44 227.625C127.206 228.19 123.87 228.809 120.884 230.233C117.988 231.613 115.499 233.796 114.676 237.005C113.864 240.176 115.051 243.398 116.731 246.072C120.781 252.516 127.627 256.705 133.789 260.876C147.106 269.891 161.004 277.998 174.863 286.14C200.637 301.283 226.582 316.825 247.918 338.037C257.832 347.894 266.683 358.923 273.482 371.166C275.215 374.286 276.803 377.484 278.256 380.744C279.725 384.038 281.115 387.432 283.253 390.364C285.271 393.13 288.151 395.396 291.599 395.981C294.563 396.484 297.567 395.458 298.896 392.634C299.896 390.511 299.898 387.548 297.754 386.132L299.246 384.13C305.675 389.048 314.525 387.136 321.024 383.467C324.632 381.43 327.913 378.871 331.154 376.306C334.172 373.918 337.582 371.257 338.958 367.519C340.144 364.294 339.675 360.186 336.387 358.427C333.284 356.766 329.36 357.338 325.98 356.868C319.234 355.93 313.709 351.569 309.321 346.605C304.645 341.313 300.866 335.292 296.648 329.645C292.196 323.683 287.493 317.911 282.556 312.344C272.551 301.063 261.591 290.604 249.717 281.303C226.203 262.884 198.573 248.818 168.778 244.552C157.987 243.006 145.528 242.808 136.082 249.113C131.507 252.168 128.497 256.792 127.459 262.186C126.25 268.472 127.754 274.918 126.933 281.241C126.111 287.574 121.798 292.691 114.991 292.454C111.181 292.321 107.515 290.797 104.204 289.006C100.568 287.039 97.0666 284.779 93.6835 282.406C86.9883 277.708 80.913 272.343 75.1699 266.534C70.3597 261.668 64.6587 255.601 57.4912 254.691C55.7755 254.474 53.8722 254.572 52.2376 255.175C51.4674 255.459 50.5009 255.936 50.1271 256.731C49.7368 257.562 50.1173 258.77 51.1621 258.665L49.9758 260.278C49.0709 256.077 40.7709 259.877 38.666 260.75C33.7058 262.807 29.0036 265.631 24.8582 269.045C22.8021 270.738 20.8423 272.574 19.0617 274.556C17.3781 276.431 15.1009 279.418 16.6014 282.021C17.6691 283.873 20.1395 284.546 22.0521 285.084C24.549 285.787 27.0214 286.511 29.4463 287.44C39.2092 291.18 47.9394 296.994 56.2275 303.282C63.5356 308.827 70.3986 315.027 77.9932 320.183C88.8675 327.565 101.215 333.043 114.057 335.89C125.591 338.447 138.544 339.042 149.511 333.96C161.444 328.431 167.774 316.889 169.861 304.3C170.196 302.277 170.423 300.242 170.578 298.198C170.699 296.597 173.217 296.538 173.095 298.155C172.023 312.305 166.897 326.665 154.198 334.317C143.075 341.02 129.263 341.262 116.822 339.012C102.931 336.5 89.4406 330.789 77.6929 323.004C69.6981 317.705 62.53 311.229 54.9105 305.421C45.8112 298.486 36.0357 292.023 25.0376 288.558C21.0479 287.301 15.1081 286.608 13.8061 281.805C12.408 276.647 17.8539 271.89 21.2275 268.862C25.4123 265.105 30.129 261.944 35.2171 259.546C39.1653 257.686 44.2795 255.091 48.7801 256.169C50.5474 256.592 51.998 257.742 52.3912 259.568C52.5735 260.414 52.0576 261.096 51.2049 261.181C47.8049 261.523 46.5372 257.194 48.363 254.863C50.4334 252.221 54.5749 251.833 57.6719 252.198C65.169 253.083 71.1463 258.922 76.2209 264.019C82.3436 270.169 88.6841 275.928 95.8495 280.858C99.5186 283.383 103.341 285.891 107.376 287.796C111.081 289.546 115.813 291.025 119.691 288.936C125.909 285.587 124.724 276.793 124.538 270.921C124.342 264.747 124.821 258.53 128.378 253.261C134.885 243.619 147.643 240.996 158.551 241.139C165.519 241.229 172.529 242.424 179.321 243.904C187.041 245.587 194.616 247.912 201.979 250.774C216.69 256.491 230.537 264.259 243.368 273.43C256.309 282.68 268.254 293.292 279.144 304.88C284.54 310.623 289.673 316.609 294.55 322.798C299.303 328.831 303.527 335.24 308.212 341.318C312.565 346.964 317.973 352.676 325.233 354.193C328.872 354.954 332.749 354.35 336.285 355.648C339.524 356.838 341.602 359.537 342 362.953C342.948 371.091 335.216 376.401 329.566 380.716C323.161 385.607 315.728 390.113 307.351 389.553C303.728 389.311 300.387 388.151 297.496 385.94C296.368 385.077 297.797 383.151 298.987 383.937C303.415 386.862 302.702 393.53 298.888 396.693C293.722 400.976 286.065 397.622 282.274 393.164C279.902 390.376 278.336 387.072 276.859 383.753C275.366 380.398 273.821 377.078 272.079 373.843C268.629 367.438 264.609 361.348 260.161 355.594C241.493 331.441 215.972 313.79 190.125 298.134C175.854 289.491 161.31 281.304 147.136 272.498C140.016 268.075 132.99 263.494 126.159 258.633C120.637 254.703 114.801 249.891 112.584 243.224C110.473 236.88 113.743 230.878 119.576 228.081C126.028 224.987 133.787 224.483 140.794 223.633C156.389 221.741 172.455 220.254 185.529 210.66C197.548 201.84 206.006 188.382 210.91 174.465C215.91 160.276 217.423 144.85 215.139 129.971C214.566 126.241 213.737 122.555 212.7 118.927C212.396 117.861 213.56 116.952 214.525 117.474C217.422 119.039 220.319 120.604 223.216 122.168L221.392 123.621C219.32 118.529 220.92 112.535 224.663 108.642C229.842 103.254 237.009 104.655 243.719 105.371L242.521 106.315C243.568 103.141 247.806 103.739 249.108 106.388C250.011 108.224 249.684 110.421 249.558 112.382C249.388 115.017 249.219 117.652 249.05 120.287C248.39 130.568 247.854 140.869 246.778 151.117C244.857 169.399 240.91 187.914 230.784 203.553C221.445 217.977 207.082 228.745 189.698 230.698C181.6 231.608 172.408 230.701 165.271 226.494C161.973 224.55 159.016 221.819 157.226 218.4C155.253 214.631 155.104 210.457 154.8 206.305C154.51 202.343 153.773 198.459 150.779 195.621C148.628 193.582 145.833 192.346 143.091 191.318C137.717 189.305 131.506 187.844 127.719 183.181C126.769 182.011 126.07 180.727 125.511 179.33C124.909 177.825 127.33 177.128 127.927 178.62Z" fill="#03082B"/>
<path d="M232.047 108.235C231.375 111.439 230.703 114.644 230.043 117.851C229.941 118.347 229.812 118.846 229.742 119.348C229.648 120.021 228.814 120.408 228.209 120.253C227.49 120.069 227.209 119.396 227.304 118.72C227.487 117.415 227.833 116.113 228.102 114.823C228.508 112.868 228.917 110.913 229.326 108.958C229.42 108.507 229.514 108.057 229.609 107.607C229.748 106.942 230.505 106.538 231.142 106.702C231.826 106.877 232.187 107.567 232.047 108.235Z" fill="#03082B"/>
<path d="M238.209 107.695C237.537 110.9 236.865 114.104 236.205 117.311C236.103 117.807 235.974 118.306 235.904 118.808C235.81 119.482 234.976 119.869 234.371 119.714C233.652 119.529 233.371 118.856 233.466 118.181C233.649 116.875 233.996 115.574 234.264 114.284C234.67 112.328 235.079 110.373 235.488 108.418C235.582 107.968 235.676 107.518 235.771 107.067C235.91 106.402 236.667 105.999 237.304 106.162C237.988 106.338 238.349 107.028 238.209 107.695Z" fill="#03082B"/>
<path d="M244.286 108.283C243.615 111.488 242.942 114.693 242.282 117.9C242.18 118.395 242.052 118.895 241.981 119.397C241.887 120.07 241.054 120.457 240.448 120.302C239.729 120.117 239.448 119.445 239.543 118.769C239.726 117.463 240.073 116.162 240.341 114.872C240.747 112.917 241.156 110.961 241.565 109.006C241.659 108.556 241.754 108.106 241.848 107.656C241.987 106.99 242.744 106.587 243.381 106.75C244.065 106.926 244.426 107.616 244.286 108.283Z" fill="#03082B"/>
<path d="M184.709 107.03C184.037 110.235 183.365 113.44 182.705 116.647C182.603 117.143 182.474 117.642 182.404 118.144C182.31 118.817 181.476 119.204 180.871 119.049C180.152 118.865 179.871 118.192 179.966 117.516C180.149 116.21 180.496 114.909 180.764 113.619C181.17 111.664 181.579 109.709 181.988 107.753C182.082 107.303 182.176 106.853 182.271 106.403C182.41 105.737 183.167 105.334 183.804 105.498C184.488 105.673 184.849 106.363 184.709 107.03Z" fill="#03082B"/>
<path d="M190.872 106.491C190.2 109.696 189.528 112.9 188.868 116.107C188.766 116.603 188.638 117.102 188.567 117.604C188.473 118.278 187.64 118.665 187.034 118.509C186.315 118.325 186.034 117.652 186.129 116.977C186.312 115.671 186.659 114.37 186.927 113.08C187.333 111.124 187.742 109.169 188.151 107.214C188.245 106.764 188.34 106.314 188.434 105.863C188.573 105.198 189.33 104.795 189.967 104.958C190.651 105.134 191.012 105.823 190.872 106.491Z" fill="#03082B"/>
<path d="M196.949 107.079C196.278 110.284 195.605 113.488 194.945 116.695C194.843 117.191 194.715 117.691 194.644 118.193C194.55 118.866 193.717 119.253 193.112 119.098C192.392 118.913 192.112 118.241 192.206 117.565C192.389 116.259 192.736 114.958 193.004 113.668C193.411 111.713 193.819 109.757 194.228 107.802C194.322 107.352 194.417 106.902 194.511 106.452C194.651 105.786 195.407 105.383 196.044 105.546C196.728 105.722 197.089 106.412 196.949 107.079Z" fill="#03082B"/>
<path d="M187.633 127.899C184.209 124.52 179.351 123.012 174.635 123.707C173.961 123.807 173.365 123.088 173.355 122.47C173.342 121.717 173.916 121.29 174.592 121.19C179.929 120.403 185.551 122.309 189.383 126.089C190.537 127.227 188.789 129.039 187.633 127.899Z" fill="#03082B"/>
<path d="M81.4455 148.764C84.2419 146.788 86.6684 144.356 88.5063 141.428C91.2616 137.04 92.5129 131.858 95.1107 127.374C98.4925 121.537 104.134 119.335 110.525 118.644C116.176 118.034 121.743 120.219 126.827 122.761C130.513 124.604 132.601 128.97 128.899 132.08C126.718 133.912 123.153 133.79 121.103 131.812C121.813 131.563 122.636 131.978 123.029 132.621C123.422 133.265 123.454 134.07 123.324 134.813C123.097 136.117 122.323 137.264 121.296 138.08C120.09 139.039 119.16 138.941 117.769 139.171C115.18 139.599 116.175 145.505 116.242 147.549C116.258 145.189 115.14 142.845 113.294 141.373C112.172 140.478 110.69 139.89 109.298 140.237C107.633 140.652 106.5 142.369 106.427 144.083C106.354 145.797 107.179 147.452 108.331 148.723C109.594 150.117 110.007 151.771 109.762 153.666C108.131 166.257 98.5116 177.467 87.0886 182.414C76.0968 187.175 63.3572 187.007 51.9228 183.438C45.8976 181.557 39.9876 178.584 35.4259 174.154C31.8292 170.661 28.9739 166.739 28.5289 161.579C28.3776 159.824 28.9766 157.898 30.4448 156.926C31.9132 155.953 34.2706 156.385 34.934 158.016C33.0903 156.078 32.4478 153.081 33.3347 150.557C34.2217 148.033 36.5974 146.097 39.2485 145.738C42.5332 145.292 45.6772 147.087 48.3978 148.98C48.9524 150.644 46.527 152.063 44.9759 151.244C43.4247 150.426 42.881 148.454 42.8924 146.7C42.9115 143.764 44.1577 140.755 46.5353 139.032C48.9128 137.308 52.4494 137.145 54.727 138.998C55.5908 139.701 56.2353 140.631 56.8677 141.548C63.9548 151.821 69.0617 157.518 81.4455 148.764Z" fill="#03082B"/>
<path d="M80.7915 147.689C83.1063 146.043 85.21 144.032 86.8298 141.69C88.577 139.163 89.7522 136.315 90.9067 133.485C92.0393 130.709 93.1503 127.829 94.9047 125.374C96.4115 123.264 98.3295 121.5 100.6 120.238C102.802 119.014 105.229 118.241 107.7 117.791C110.763 117.233 113.774 117.135 116.843 117.73C120.061 118.355 123.141 119.599 126.092 121.004C127.362 121.609 128.592 122.225 129.636 123.188C130.565 124.044 131.3 125.105 131.74 126.291C132.713 128.918 131.576 131.593 129.442 133.246C127.312 134.896 124.257 135.026 121.875 133.873C121.272 133.582 120.715 133.175 120.228 132.718C119.535 132.068 119.847 130.867 120.747 130.605C121.821 130.293 122.993 130.655 123.737 131.487C124.549 132.395 124.738 133.606 124.591 134.781C124.345 136.745 123.02 138.692 121.253 139.616C120.354 140.086 119.419 140.211 118.426 140.339C118.29 140.356 118.159 140.368 118.043 140.395C117.878 140.432 117.76 140.534 117.97 140.394C117.952 140.405 117.852 140.444 117.837 140.47C117.714 140.677 117.928 140.275 117.877 140.432C117.853 140.505 117.619 140.791 117.787 140.502C117.723 140.612 117.66 140.719 117.598 140.83C117.577 140.869 117.503 141.047 117.571 140.881C117.65 140.687 117.542 140.971 117.537 140.988C117.451 141.276 117.383 141.566 117.337 141.863C117.326 141.933 117.316 142.003 117.307 142.073C117.314 142.024 117.328 141.815 117.31 142.061C117.3 142.21 117.286 142.358 117.278 142.506C117.259 142.85 117.254 143.196 117.258 143.54C117.272 144.874 117.451 146.197 117.5 147.528L114.983 147.571C114.975 145.485 113.97 143.26 112.135 142.081C111.264 141.522 110.208 141.149 109.237 141.58C108.563 141.879 107.979 142.706 107.774 143.522C107.541 144.45 107.781 145.596 108.299 146.533C108.898 147.616 109.865 148.422 110.393 149.55C111.487 151.885 111.02 154.43 110.468 156.848C108.406 165.885 102.548 173.815 95.1332 179.237C86.8183 185.317 76.3287 187.757 66.133 187.251C60.7494 186.984 55.3873 185.963 50.2845 184.226C45.3177 182.535 40.5738 180.149 36.5077 176.806C32.8022 173.76 29.3713 169.826 27.9459 165.166C27.2338 162.838 26.8525 160.206 27.9559 157.94C28.9798 155.838 31.387 154.614 33.6645 155.377C34.8347 155.769 35.6492 156.539 36.1415 157.661C36.6536 158.829 34.8729 159.798 34.0591 158.922C31.5961 156.271 30.9375 152.22 32.6543 148.991C34.3581 145.787 37.9215 144.063 41.4793 144.499C43.3489 144.728 45.1206 145.49 46.7423 146.424C47.1602 146.665 47.5703 146.919 47.9747 147.182C48.3971 147.457 48.909 147.724 49.2723 148.076C49.9496 148.73 49.7958 149.951 49.4347 150.719C48.7994 152.071 47.1184 152.865 45.6708 152.718C43.8547 152.535 42.6041 151.053 42.0409 149.41C40.9367 146.189 42.0027 142.268 44.0604 139.67C46.1717 137.003 49.964 135.688 53.2389 136.794C55.0863 137.418 56.3738 138.685 57.4891 140.244C58.4326 141.563 59.3352 142.91 60.3021 144.213C61.8066 146.24 63.4594 148.262 65.554 149.894C65.7238 150.026 65.4492 149.823 65.6926 149.994C65.7958 150.067 65.8988 150.139 66.0036 150.209C66.2531 150.377 66.5084 150.535 66.7696 150.684C66.9953 150.812 67.2253 150.933 67.4596 151.045C67.5832 151.104 67.7101 151.156 67.8338 151.214C67.8548 151.224 68.0143 151.29 67.8712 151.231C67.7076 151.165 67.9729 151.27 68.005 151.281C68.5173 151.465 69.0397 151.613 69.5759 151.708C69.6942 151.73 69.8132 151.745 69.9317 151.764C70.1199 151.795 69.7144 151.745 69.9051 151.762C69.9744 151.769 70.0436 151.776 70.1129 151.781C70.3949 151.804 70.6779 151.814 70.9607 151.811C71.2346 151.809 71.5083 151.795 71.7812 151.77C71.9311 151.757 72.08 151.738 72.2295 151.721C72.2769 151.715 72.4745 151.682 72.2371 151.721C72.3139 151.708 72.3907 151.695 72.4672 151.681C73.1177 151.562 73.7578 151.39 74.3843 151.179C75.8245 150.694 77.0976 150.039 78.4527 149.223C79.2521 148.742 80.0287 148.226 80.7915 147.689C81.3477 147.298 82.1848 147.558 82.5211 148.111C82.8949 148.726 82.6566 149.448 82.0991 149.84C78.8122 152.153 74.8891 154.404 70.7359 154.327C67.3879 154.264 64.5059 152.56 62.1633 150.272C60.8149 148.955 59.6262 147.478 58.4919 145.976C57.8561 145.134 57.241 144.277 56.635 143.414C55.9799 142.481 55.3806 141.474 54.6114 140.63C53.2525 139.137 51.3457 138.638 49.4671 139.075C47.4643 139.541 45.9407 140.943 45.0277 142.815C44.5519 143.79 44.2425 145.002 44.1735 146.049C44.1345 146.64 44.1327 147.247 44.2257 147.833C44.2686 148.103 44.4954 148.866 44.6315 149.118C44.8623 149.545 45.1277 149.882 45.4687 150.078C45.7356 150.232 45.9715 150.283 46.2424 150.203C46.3162 150.181 46.3982 150.156 46.474 150.138C46.6127 150.084 46.6248 150.084 46.5101 150.138C46.582 150.105 46.6524 150.068 46.7213 150.029C46.7897 149.99 46.8542 149.946 46.9206 149.903C47.0397 149.817 47.0465 149.812 46.9409 149.889C46.9968 149.838 47.0501 149.784 47.1008 149.728C47.1443 149.686 47.2206 149.542 47.1107 149.723C47.1501 149.663 47.1856 149.6 47.2175 149.535C47.1738 149.658 47.1657 149.676 47.1931 149.589C47.2407 149.519 47.2214 149.285 47.2184 149.557C47.2218 149.484 47.2197 149.411 47.2122 149.339C47.2337 149.487 47.2263 149.486 47.1898 149.336C47.3869 149.583 47.584 149.831 47.781 150.078C46.4035 149.123 44.9607 148.179 43.3904 147.571C41.9177 147.001 40.2339 146.733 38.8035 147.104C36.1955 147.781 34.2151 150.144 34.199 152.847C34.1898 154.399 34.7301 155.951 35.8084 157.112C35.1143 157.532 34.4202 157.952 33.726 158.372C33.8217 158.59 33.6318 158.248 33.6246 158.237C33.7399 158.405 33.5979 158.204 33.5559 158.164C33.4828 158.095 33.4126 158.024 33.332 157.963C33.5269 158.11 33.1964 157.896 33.1848 157.89C32.9166 157.746 32.5425 157.671 32.2619 157.67C31.5953 157.669 30.9775 157.937 30.5172 158.55C29.9156 159.35 29.7311 160.306 29.7689 161.264C29.8116 162.347 30.0441 163.416 30.3615 164.455C31.6845 168.789 35.0434 172.413 38.5284 175.217C42.3631 178.302 46.9127 180.488 51.5736 182.008C56.4977 183.613 61.6418 184.58 66.8205 184.765C76.6162 185.116 86.3967 182.676 94.2595 176.764C101.138 171.591 106.469 163.97 108.191 155.471C108.615 153.376 108.922 151.334 107.456 149.629C105.781 147.681 104.56 145.055 105.465 142.469C106.342 139.964 108.738 138.401 111.393 139.032C113.903 139.629 115.836 141.761 116.806 144.066C117.266 145.157 117.495 146.345 117.5 147.528C117.506 149.149 115.043 149.192 114.983 147.571C114.898 145.274 114.433 142.909 115.019 140.638C115.32 139.47 116.025 138.336 117.253 137.998C118.043 137.781 118.786 137.822 119.446 137.642C120.121 137.459 120.727 136.988 121.239 136.386C121.741 135.794 122.092 135.02 122.13 134.225C122.148 133.854 122.094 133.421 121.883 133.175C121.894 133.188 121.654 133.015 121.74 133.05C121.66 133.018 121.554 132.989 121.471 132.979C121.562 132.99 121.699 132.95 121.458 133.02C121.631 132.316 121.804 131.612 121.977 130.908C123.413 132.254 125.745 132.508 127.43 131.566C127.956 131.272 128.274 131.001 128.693 130.53C128.956 130.234 129.294 129.673 129.386 129.412C129.707 128.496 129.655 127.826 129.279 126.882C129.241 126.787 129.148 126.601 129.011 126.368C128.899 126.177 128.776 125.993 128.645 125.814C128.564 125.703 128.417 125.529 128.234 125.337C128.009 125.102 127.768 124.882 127.516 124.676C127.204 124.421 126.78 124.156 126.34 123.925C125.63 123.553 124.901 123.214 124.175 122.878C121.514 121.648 118.743 120.617 115.849 120.101C113.229 119.633 110.545 119.788 108.045 120.275C106.898 120.499 105.763 120.79 104.659 121.172C103.567 121.549 102.738 121.913 101.723 122.493C99.7877 123.6 98.1321 125.081 96.879 126.923C95.3049 129.237 94.2562 131.889 93.2044 134.467C91.9936 137.434 90.7775 140.429 88.9249 143.066C87.0597 145.721 84.7397 147.962 82.0991 149.84C81.5449 150.235 80.7046 149.97 80.3695 149.418C79.9943 148.801 80.2361 148.084 80.7915 147.689Z" fill="#03082B"/>
<path d="M46.5955 286.112C46.9955 286.153 47.25 286.048 47.4663 285.683C47.6957 285.297 47.7115 285.017 47.5291 284.559C47.13 283.556 46.0091 282.902 44.9602 282.751C44.5787 282.696 44.0137 282.742 43.6406 282.919C43.4638 283.003 43.3047 283.131 43.1583 283.287C43.31 283.125 43.1133 283.358 43.0878 283.404C43.0518 283.468 42.9631 283.724 43.0254 283.522C42.9911 283.634 42.9661 283.745 42.9385 283.858C42.9142 284.007 42.9128 284.011 42.9342 283.868C42.9301 283.926 42.9284 283.984 42.9291 284.042C42.9332 284.101 42.9765 284.498 42.925 284.222C42.9459 284.334 42.9832 284.441 43.0094 284.551C43.0719 284.814 42.9064 284.437 43.0547 284.658C43.081 284.697 43.2805 284.948 43.1044 284.759C43.1653 284.824 43.3473 284.967 43.1696 284.848C43.2301 284.888 43.2929 284.924 43.3582 284.957C43.2252 284.908 43.2296 284.907 43.3714 284.952C42.8473 285.366 42.3232 285.779 41.7991 286.193C41.7521 284.296 40.3294 282.491 38.4018 282.077C37.5766 281.899 36.4906 282.062 35.7183 282.468C34.7708 282.965 34.1338 283.595 33.6779 284.548C33.3847 285.161 32.5284 285.346 31.9638 285.029C31.3386 284.677 31.1886 283.93 31.4829 283.315C32.7984 280.564 36.0601 279.003 39.0294 279.638C42.0162 280.277 44.2413 283.136 44.316 286.15C44.3357 286.944 43.5287 287.623 42.7438 287.391C41.2971 286.961 40.4405 285.622 40.4121 284.143C40.3827 282.613 41.2367 281.257 42.6302 280.632C45.6668 279.269 49.9002 281.484 50.1482 284.906C50.2848 286.793 48.6275 288.834 46.6385 288.629C45.9624 288.559 45.3712 288.13 45.3585 287.392C45.348 286.775 45.9147 286.042 46.5955 286.112Z" fill="#03082B"/>
<path d="M321.459 361.319C319.961 363.809 316.79 364.97 314.003 364.215C311.119 363.434 309.31 360.581 309.542 357.64C309.672 355.998 310.305 354.401 311.552 353.285C312.211 352.695 313.009 352.841 313.533 353.506C314.508 354.745 314.302 356.577 313.436 357.813C312.386 359.313 310.668 359.957 308.878 359.549C307.158 359.158 305.666 357.839 304.861 356.297C303.934 354.519 303.694 352.539 303.487 350.572C303.416 349.895 304.087 349.303 304.724 349.292C305.455 349.279 305.933 349.85 306.004 350.529C306.251 352.869 306.614 355.956 309.014 356.963C309.436 357.14 309.939 357.213 310.315 357.138C310.365 357.128 310.665 357.036 310.581 357.069C310.499 357.102 310.775 356.962 310.82 356.936C310.874 356.904 310.926 356.869 310.977 356.832C310.907 356.892 310.905 356.893 310.97 356.836C311.065 356.753 311.151 356.661 311.236 356.568C311.357 356.437 311.389 356.381 311.531 356.096C311.568 356.015 311.568 356.021 311.532 356.113C311.554 356.056 311.573 355.997 311.59 355.938C311.601 355.896 311.68 355.563 311.66 355.691C311.64 355.818 311.665 355.487 311.666 355.442C311.665 355.383 311.661 355.325 311.655 355.266C311.674 355.386 311.674 355.402 311.653 355.311C311.64 355.254 311.624 355.197 311.604 355.142C311.655 355.239 311.66 355.248 311.618 355.168C311.553 355.04 311.47 354.926 311.381 354.813L313.362 355.034C313.231 355.152 313.104 355.272 312.985 355.403C312.818 355.587 312.864 355.528 312.775 355.658C312.676 355.801 312.587 355.952 312.506 356.105C312.484 356.147 312.295 356.558 312.359 356.397C312.091 357.075 312.034 357.515 312.042 358.125C312.055 359.298 312.467 360.4 313.425 361.188C314.169 361.8 315.543 362.061 316.467 361.873C317.172 361.728 317.559 361.594 318.094 361.262C318.596 360.95 318.974 360.569 319.264 360.086C320.098 358.701 322.298 359.926 321.459 361.319Z" fill="#03082B"/>
<path d="M129.927 138.104C129.596 138.099 129.266 138.121 128.938 138.17L129.16 138.136C128.833 138.188 128.511 138.264 128.196 138.368C128.047 138.418 127.901 138.474 127.756 138.534C127.59 138.603 127.883 138.473 127.788 138.521C127.749 138.54 127.709 138.558 127.67 138.577C127.592 138.615 127.515 138.656 127.438 138.697C127.053 138.906 126.511 138.826 126.286 138.416C126.075 138.034 126.155 137.486 126.567 137.263C127.587 136.709 128.735 136.408 129.899 136.426C130.337 136.432 130.765 136.787 130.752 137.25C130.74 137.693 130.397 138.111 129.927 138.104Z" fill="#03082B"/>
<path d="M129.903 141.608C129.843 141.599 129.783 141.591 129.723 141.584L129.947 141.61C129.419 141.549 128.887 141.558 128.361 141.634L128.584 141.601C128.548 141.606 128.512 141.612 128.476 141.618C128.366 141.655 128.254 141.661 128.142 141.638C128.03 141.635 127.926 141.604 127.829 141.544C127.653 141.445 127.484 141.249 127.435 141.049C127.382 140.835 127.388 140.594 127.508 140.401C127.615 140.229 127.793 140.042 128.003 140.007C128.387 139.944 128.771 139.895 129.161 139.891C129.549 139.888 129.937 139.926 130.321 139.982C130.516 140.01 130.731 140.198 130.829 140.359C130.937 140.537 130.986 140.801 130.925 141.004C130.862 141.208 130.74 141.406 130.548 141.512L130.349 141.6C130.201 141.642 130.052 141.645 129.903 141.608Z" fill="#03082B"/>
<path d="M131.773 152.698C131.031 152.748 130.298 152.566 129.597 152.342C129.262 152.234 128.927 152.123 128.592 152.013C128.417 151.956 128.242 151.899 128.067 151.841C127.99 151.816 127.914 151.789 127.836 151.767L127.765 151.746C127.666 151.726 127.669 151.724 127.774 151.742C127.899 151.689 128.055 151.667 128.129 151.531C128.218 151.368 128.144 151.488 128.128 151.557C128.114 151.614 128.092 151.687 128.094 151.747C128.086 151.537 128.099 151.734 128.097 151.786C128.092 151.931 128.104 152.071 128.116 152.215C128.124 152.278 128.121 152.258 128.107 152.155C128.113 152.188 128.119 152.22 128.127 152.252C128.143 152.328 128.162 152.403 128.185 152.476C128.204 152.54 128.229 152.601 128.249 152.664C128.303 152.831 128.179 152.539 128.267 152.708C128.327 152.826 128.391 152.941 128.465 153.051C128.507 153.114 128.58 153.205 128.489 153.095C128.531 153.146 128.575 153.195 128.62 153.243C128.727 153.355 128.844 153.455 128.968 153.548C129.321 153.812 129.289 154.449 128.988 154.734C128.624 155.079 128.178 155.037 127.802 154.754C127.199 154.303 126.757 153.609 126.556 152.887C126.352 152.154 126.289 151.1 126.826 150.486C127.525 149.687 128.637 150.265 129.455 150.533C129.853 150.664 130.251 150.801 130.657 150.904C130.845 150.952 131.035 150.993 131.227 151.019C131.063 150.997 131.382 151.028 131.414 151.029C131.524 151.032 131.634 151.028 131.744 151.02C132.183 150.991 132.609 151.407 132.597 151.845C132.584 152.318 132.243 152.667 131.773 152.698Z" fill="#03082B"/>
<path d="M129.488 152.547C129.404 152.603 129.322 152.663 129.243 152.726L129.411 152.592C129.18 152.777 128.974 152.99 128.796 153.226L128.925 153.054C128.809 153.21 128.706 153.374 128.617 153.547C128.483 153.807 128.187 153.97 127.9 153.975C127.749 153.977 127.607 153.941 127.475 153.868C127.347 153.795 127.245 153.697 127.169 153.572C126.985 153.324 126.848 153.029 126.762 152.733C126.676 152.435 126.632 152.11 126.654 151.8C126.671 151.573 126.727 151.371 126.89 151.202C127.033 151.054 127.27 150.941 127.479 150.946C127.696 150.952 127.922 151.02 128.076 151.182C128.222 151.335 128.348 151.552 128.332 151.771C128.322 151.919 128.327 152.067 128.348 152.214L128.314 151.991C128.342 152.173 128.393 152.348 128.467 152.517L128.379 152.318C128.44 152.453 128.514 152.581 128.603 152.7L127.154 152.725C127.491 152.072 128.007 151.52 128.617 151.113C128.793 150.995 129.06 150.965 129.262 151.017C129.457 151.068 129.671 151.215 129.77 151.394C129.876 151.587 129.931 151.822 129.865 152.039C129.8 152.254 129.676 152.422 129.488 152.547Z" fill="#03082B"/>
<path d="M401.283 80.1202C400.713 79.3686 399.745 79.321 399.02 79.6657L395.583 81.3008L381.955 87.774C377.413 89.9303 372.869 92.0849 368.325 94.2384L354.626 100.725C350.059 102.886 345.492 105.046 340.924 107.204L327.217 113.673C322.648 115.829 318.077 117.982 313.506 120.134L299.856 126.558C295.305 128.698 290.754 130.835 286.201 132.972L272.479 139.408C267.905 141.552 263.329 143.695 258.753 145.836L258.58 145.932C258.201 146.178 257.991 146.577 257.911 146.961C257.832 147.341 257.866 147.766 258.034 148.128L258.115 148.278C258.633 149.129 259.586 149.242 260.337 148.956L260.484 148.894L263.932 147.28C268.487 145.148 273.041 143.014 277.594 140.879L291.252 134.471C300.399 130.176 309.543 125.875 318.684 121.569C323.255 119.415 327.825 117.262 332.395 115.106L346.101 108.633C350.647 106.484 355.193 104.334 359.738 102.182L373.373 95.7236C377.939 93.5592 382.504 91.3941 387.068 89.2269L400.757 82.7204C401.242 82.4898 401.505 82.0359 401.597 81.5975C401.688 81.1627 401.629 80.6706 401.392 80.2795L401.283 80.1202Z" fill="#4367F5" stroke="#4367F5"/>
<path d="M405.431 90.8527C405.072 90.7523 404.635 90.7758 404.274 91.0483L394.779 98.2117L377.878 110.963L360.978 123.714L360.874 123.8C360.402 124.217 360.142 124.91 360.452 125.579L360.527 125.722C360.727 126.058 361.065 126.292 361.42 126.391C361.734 126.479 362.108 126.473 362.439 126.287L362.577 126.197L372.072 119.034L405.873 93.5301C406.444 93.0995 406.773 92.2819 406.324 91.5231L406.243 91.4014C406.04 91.1301 405.742 90.9397 405.431 90.8527Z" fill="#4367F5" stroke="#4367F5"/>
<path d="M106.953 42.261C106.55 42.0558 106.108 42.0664 105.734 42.1891C105.313 42.3273 104.932 42.6199 104.701 42.992L104.616 43.1517C104.465 43.4833 104.436 43.875 104.498 44.2076L104.536 44.3681C104.661 44.7938 104.921 45.079 105.202 45.2934L105.323 45.3812L110.124 48.6883C110.57 48.9955 111.085 49.002 111.513 48.8618C111.881 48.7409 112.219 48.5023 112.453 48.1952L112.546 48.0589C112.801 47.6481 112.832 47.0953 112.711 46.6828L112.65 46.509C112.488 46.122 112.208 45.8653 111.924 45.6697L107.123 42.3627L106.953 42.261Z" fill="#4367F5" stroke="#4367F5"/>
<path d="M99.752 61.8807C98.7456 61.8981 98.0494 62.7323 98.0241 63.6468L98.0302 63.8313C98.1106 64.7386 98.9615 65.4121 99.8121 65.3977L103.878 65.3282C104.822 65.3121 105.493 64.5775 105.594 63.7322L105.606 63.5621C105.633 62.5628 104.725 61.7956 103.818 61.8112L99.752 61.8807Z" fill="#4367F5" stroke="#4367F5"/>
<path d="M123.867 28.0086C123.523 27.2184 122.641 26.7327 121.75 26.9939L121.587 27.0513C120.843 27.3575 120.347 28.1927 120.516 29.0152L120.563 29.1912L123.419 37.9552C123.689 38.7842 124.533 39.3389 125.421 39.1751L125.599 39.132C126.486 38.8715 127.09 37.8693 126.786 36.9346L123.929 28.1707L123.867 28.0086Z" fill="#4367F5" stroke="#4367F5"/>
</svg>
