<svg width="278" height="32" viewBox="0 0 278 32" fill="none" xmlns="http://www.w3.org/2000/svg">
<path d="M276 9.62077C219.333 7.54638 163.154 3.67849 106.383 2.8177C73.7507 2.32291 -23.8372 0.874509 8.46423 3.66808C61.5574 8.2598 116.43 8.11226 169.887 11.2001C190.599 12.3965 211.145 14.0001 231.752 15.695C239.682 16.3472 245.876 17.4494 233.186 17.0313C176.55 15.1653 120.207 11.0186 63.5692 9.01337C57.5252 8.79938 39.6181 8.69508 45.4399 9.68151C66.7797 13.2973 89.6733 14.7218 111.504 16.7276C137.793 19.143 164.507 20.6514 190.577 23.8344C199.942 24.9777 212.484 25.3345 221.202 27.6611C236.631 31.7784 187.417 29.2461 170.502 29.0582C142.35 28.7454 114.231 27.7817 86.1029 27.1144" stroke="#4367F5" stroke-width="4" stroke-linecap="round"/>
</svg>
