<svg width="477" height="370" viewBox="0 0 477 370" fill="none" xmlns="http://www.w3.org/2000/svg">
<rect width="477" height="370" fill="#00B2FF"/>
<mask id="mask0_2087_4755" style="mask-type:luminance" maskUnits="userSpaceOnUse" x="290" y="257" width="52" height="52">
<path d="M290.473 268.6L330.301 257.711L341.255 297.381L301.427 308.27L290.473 268.6Z" fill="white"/>
</mask>
<g mask="url(#mask0_2087_4755)">
<path d="M302.793 267.52C304.474 267.06 306.216 268.052 306.68 269.733L315.912 303.198L309.819 304.866L300.587 271.401C300.123 269.719 301.111 267.981 302.793 267.521L302.793 267.52Z" fill="white"/>
<path d="M316.196 304.222L310.102 305.889C309.538 306.043 308.954 305.711 308.798 305.146L299.562 271.679C298.943 269.435 300.265 267.111 302.509 266.497C304.752 265.883 307.081 267.209 307.7 269.453L316.936 302.92C317.092 303.484 316.76 304.067 316.196 304.222ZM310.56 303.565L314.61 302.457L305.656 270.012C305.348 268.895 304.189 268.236 303.073 268.541C301.957 268.847 301.299 270.004 301.607 271.12L310.56 303.565Z" fill="#2D2D2D"/>
<path d="M321.302 293.2L333.663 273.857L313.103 263.514L315.267 271.351L293.944 277.18L297.813 291.192L319.137 285.362L321.302 293.2Z" fill="#2D2D2D"/>
<path d="M321.585 294.223C321.444 294.262 321.295 294.272 321.145 294.249C320.73 294.186 320.39 293.884 320.279 293.48L318.396 286.666L298.097 292.214C297.531 292.369 296.946 292.036 296.79 291.471L292.92 277.46C292.764 276.895 293.096 276.312 293.661 276.157L313.961 270.609L312.079 263.794C311.967 263.39 312.104 262.959 312.429 262.693C312.753 262.428 313.204 262.379 313.579 262.568L334.14 272.911C334.409 273.047 334.608 273.289 334.688 273.579C334.768 273.868 334.721 274.178 334.56 274.431L322.199 293.773C322.055 293.998 321.834 294.156 321.585 294.224L321.585 294.223ZM298.556 289.888L318.855 284.34C319.421 284.185 320.006 284.518 320.162 285.083L321.691 290.619L332.135 274.276L314.762 265.536L316.292 271.072C316.448 271.637 316.116 272.22 315.55 272.375L295.251 277.923L298.556 289.888Z" fill="#2D2D2D"/>
</g>
<mask id="mask1_2087_4755" style="mask-type:luminance" maskUnits="userSpaceOnUse" x="206" y="203" width="253" height="139">
<path d="M206.436 203.5H458.451V341.302H206.436V203.5Z" fill="white"/>
</mask>
<g mask="url(#mask1_2087_4755)">
<path d="M207.496 340.244C215.923 329.754 221.374 315.823 251.396 317.519C286.236 319.487 290.476 307.618 311.086 300.868C333.097 293.659 337.788 316.3 349.648 293.659C356.364 280.839 369.041 248.304 379.244 226.22C392.976 196.498 421.619 197.862 429.781 227.229C436.655 251.965 447.588 340.244 447.588 340.244H207.496Z" fill="#00B2FF"/>
<path d="M447.587 341.302H207.496C207.088 341.302 206.716 341.069 206.54 340.703C206.364 340.336 206.413 339.901 206.668 339.584C207.77 338.213 208.802 336.806 209.896 335.317C216.898 325.775 224.832 314.963 251.456 316.464C275.017 317.795 284.487 312.673 294.509 307.249C299.26 304.678 304.172 302.02 310.755 299.864C320.637 296.628 327.101 299.165 332.294 301.204C335.48 302.454 337.996 303.442 340.412 302.702C343.097 301.879 345.733 298.85 348.709 293.17C352.378 286.165 357.897 273.099 363.741 259.266C368.626 247.702 373.677 235.745 378.281 225.779C381.726 218.323 386.346 212.347 391.642 208.499C396.686 204.834 402.234 203.13 407.684 203.569C418.33 204.427 426.972 213.167 430.802 226.948C437.618 251.475 448.53 339.233 448.64 340.116C448.677 340.417 448.583 340.719 448.382 340.946C448.18 341.173 447.891 341.303 447.587 341.303L447.587 341.302ZM209.661 339.188H446.387C445.055 328.584 435.102 250.337 428.759 227.512C425.176 214.623 417.234 206.46 407.513 205.676C397.043 204.828 386.577 212.873 380.206 226.664C375.617 236.598 370.572 248.538 365.694 260.086C359.834 273.961 354.297 287.066 350.587 294.149C346.139 302.641 342.43 305.073 338.668 305.074C336.364 305.074 334.042 304.162 331.517 303.171C326.641 301.257 320.573 298.874 311.416 301.873C305.015 303.97 300.188 306.582 295.52 309.108C285.225 314.679 275.499 319.941 251.336 318.575C225.864 317.135 218.616 327.014 211.606 336.565C210.971 337.432 210.322 338.315 209.661 339.188Z" fill="#2D2D2D"/>
<path d="M368.868 316.296C379.018 297.583 390.28 314.03 397.581 297.583C408.697 272.543 425.645 258.724 436.452 270.125C447.588 281.873 455.422 323.853 457.391 340.245H362.543" fill="#00B2FF"/>
<path d="M457.391 341.302H362.543C361.957 341.302 361.482 340.829 361.482 340.245C361.482 339.661 361.957 339.188 362.543 339.188H456.192C453.855 320.809 446.098 281.841 435.681 270.851C432.842 267.856 429.496 266.664 425.737 267.308C416.686 268.86 406.268 280.625 398.55 298.011C394.75 306.573 389.698 306.851 384.813 307.12C379.865 307.392 374.749 307.674 369.8 316.799C369.521 317.313 368.879 317.505 368.363 317.226C367.848 316.948 367.656 316.307 367.935 315.793C373.449 305.628 379.424 305.299 384.696 305.009C389.524 304.743 393.337 304.533 396.611 297.156C404.613 279.13 415.636 266.895 425.378 265.224C429.816 264.463 433.911 265.907 437.222 269.399C442.219 274.671 446.985 286.038 451.385 303.182C455.021 317.345 457.459 331.932 458.443 340.119C458.479 340.419 458.384 340.72 458.183 340.947C457.982 341.173 457.693 341.302 457.39 341.302L457.391 341.302Z" fill="#2D2D2D"/>
<path d="M391.337 228.157C391.337 239.017 401.995 241.931 404.787 230.633C407.58 219.335 415.028 218.703 418.912 229.881C422.054 238.921 428.94 239.371 431.321 233.5C430.79 231.119 430.275 229.009 429.78 227.229C421.63 197.903 393.057 196.504 379.303 226.096C385.72 218.572 391.337 219.468 391.337 228.157Z" fill="white"/>
<path d="M398.059 238.88C397.829 238.88 397.603 238.866 397.384 238.84C393.961 238.425 390.277 234.906 390.277 228.157C390.277 224.909 389.433 222.737 387.963 222.198C386.111 221.517 383.1 223.274 380.11 226.781C379.766 227.184 379.177 227.272 378.731 226.987C378.284 226.701 378.118 226.131 378.341 225.651C381.79 218.23 386.408 212.286 391.696 208.46C396.733 204.816 402.271 203.124 407.709 203.571C418.342 204.44 426.975 213.179 430.801 226.947C431.286 228.69 431.809 230.817 432.356 233.27C432.402 233.479 432.384 233.698 432.304 233.896C431.145 236.754 428.943 238.444 426.394 238.444C426.345 238.444 426.296 238.444 426.247 238.442C422.784 238.355 419.668 235.284 417.91 230.227C416.305 225.609 413.99 222.878 411.692 222.878C411.648 222.878 411.604 222.879 411.559 222.881C409.211 222.989 407.01 226.056 405.816 230.886C404.347 236.83 400.866 238.88 398.059 238.88ZM387.121 219.941C387.671 219.941 388.197 220.031 388.695 220.214C390.077 220.72 392.397 222.427 392.397 228.158C392.397 233.376 395.034 236.425 397.639 236.741C400.358 237.07 402.706 234.633 403.758 230.381C405.228 224.429 408.036 220.926 411.462 220.769C414.838 220.611 417.924 223.809 419.914 229.535C421.628 234.468 424.337 236.279 426.301 236.329C427.927 236.366 429.347 235.307 430.212 233.398C429.7 231.121 429.211 229.142 428.758 227.512C425.179 214.635 417.246 206.473 407.536 205.678C398.35 204.927 389.458 210.69 383.037 221.315C384.48 220.41 385.863 219.942 387.121 219.942L387.121 219.941Z" fill="#2D2D2D"/>
</g>
<mask id="mask2_2087_4755" style="mask-type:luminance" maskUnits="userSpaceOnUse" x="26" y="339" width="444" height="3">
<path d="M26.5 339.079H469.315V341.194H26.5V339.079Z" fill="white"/>
</mask>
<g mask="url(#mask2_2087_4755)">
<path d="M468.254 341.194H27.5604C26.9748 341.194 26.5 340.72 26.5 340.136C26.5 339.552 26.9748 339.079 27.5604 339.079H468.254C468.84 339.079 469.315 339.552 469.315 340.136C469.315 340.72 468.84 341.194 468.254 341.194Z" fill="#2D2D2D"/>
</g>
<mask id="mask3_2087_4755" style="mask-type:luminance" maskUnits="userSpaceOnUse" x="7" y="33" width="412" height="309">
<path d="M7.41992 33.0356H418.7V341.681H7.41992V33.0356Z" fill="white"/>
</mask>
<g mask="url(#mask3_2087_4755)">
<path d="M162.568 283.704C166.22 297.126 169.029 340.469 169.029 340.469H27.8633C27.8633 340.469 30.9654 295.888 49.1825 269.416C93.942 280.11 162.568 283.704 162.568 283.704H162.568Z" fill="#292B32"/>
<path d="M169.029 341.529H27.8634C27.5688 341.529 27.2874 341.408 27.0863 341.193C26.8852 340.978 26.7827 340.69 26.8034 340.396C26.8111 340.284 27.619 329.012 30.6518 314.652C33.4569 301.369 38.7969 282.636 48.3065 268.817C48.5554 268.455 49.0028 268.283 49.4299 268.386C93.5808 278.934 161.938 282.61 162.624 282.646C163.082 282.67 163.473 282.985 163.593 283.427C167.232 296.797 169.974 338.627 170.089 340.401C170.108 340.694 170.005 340.981 169.804 341.194C169.603 341.408 169.323 341.529 169.029 341.529ZM29.0172 339.41H167.893C167.429 332.641 164.9 297.377 161.735 284.72C154.05 284.282 91.4401 280.474 49.6502 270.617C40.5986 284.081 35.4626 302.166 32.738 315.057C30.2854 326.663 29.3009 336.224 29.0172 339.41Z" fill="#2D2D2D"/>
<path d="M130.325 131.462C134.256 129.958 168.356 138.217 167.647 143.346C165.095 161.807 125.078 147.598 130.325 131.462Z" fill="#292B32"/>
<path d="M155.536 153.12C152.874 153.12 149.961 152.67 146.957 151.775C141.746 150.222 136.858 147.464 133.546 144.207C129.401 140.132 127.898 135.489 129.314 131.135C129.413 130.83 129.645 130.587 129.944 130.472C132.973 129.314 146.022 132.578 147.5 132.955C150.982 133.841 162.679 136.996 166.965 140.388C168.259 141.412 168.842 142.456 168.699 143.491C168.104 147.797 165.583 150.822 161.408 152.237C159.671 152.826 157.685 153.12 155.536 153.12ZM131.171 132.358C130.079 136.666 132.637 140.338 135.038 142.698C141.581 149.132 153.584 152.652 160.724 150.23C164.134 149.074 166.109 146.709 166.594 143.201C166.608 143.101 166.464 142.698 165.644 142.049C163.014 139.968 155.86 137.27 146.974 135.008C139.247 133.042 133.128 132.162 131.171 132.358L131.171 132.358Z" fill="#2D2D2D"/>
<path d="M313.233 250.96C315.568 243.596 302.623 196.895 297.171 197.665C291.719 198.435 300.213 257.569 313.233 250.96Z" fill="#292B32"/>
<path d="M311.209 252.534C309.9 252.534 308.598 252.023 307.355 251.008C301.567 246.278 298.049 231.42 296.805 225.251C294.579 214.211 293.813 203.168 294.984 198.996C295.39 197.55 296.075 196.749 297.022 196.616C297.951 196.484 298.874 196.973 299.839 198.109C306.009 205.376 316.512 244.136 314.246 251.28C314.16 251.55 313.969 251.776 313.715 251.905C312.887 252.325 312.047 252.534 311.209 252.534ZM297.367 198.737C296.552 199.689 295.884 206.26 297.81 218.759C299.666 230.808 302.834 241.183 306.283 246.512C309.122 250.898 311.278 250.628 312.325 250.213C312.924 247.046 311.44 237.798 308.528 226.717C305.402 214.822 301.623 204.492 298.901 200.401C298.05 199.121 297.538 198.81 297.367 198.737L297.367 198.737Z" fill="#2D2D2D"/>
<path d="M286.633 248.943H286.596C265.404 248.933 239.008 246.393 220.351 235.193C206.082 226.628 195.583 216.669 187.196 208.058C179.017 199.662 179.213 186.243 187.632 178.086C196.051 169.93 209.506 170.125 217.685 178.522C232.692 193.929 258.074 206.538 286.617 206.552H286.633C302.189 206.552 318.707 195.403 336.196 183.598C346.543 176.614 357.241 169.393 368.576 164.005C379.172 158.968 391.855 163.452 396.905 174.019C401.956 184.586 397.46 197.235 386.865 202.272C378.417 206.287 369.481 212.319 360.02 218.705C339.022 232.878 315.218 248.944 286.633 248.944V248.943Z" fill="white"/>
<path d="M286.633 250.003H286.595C257.618 249.989 235.145 245.311 219.802 236.101C205.428 227.473 194.868 217.456 186.433 208.796C177.86 199.994 178.065 185.876 186.891 177.326C195.717 168.775 209.873 168.98 218.447 177.783C231.484 191.168 256.239 205.477 286.617 205.492C301.861 205.492 318.248 194.432 335.597 182.722C345.979 175.714 356.711 168.47 368.118 163.048C379.225 157.768 392.57 162.484 397.864 173.562C403.158 184.64 398.429 197.948 387.321 203.228C378.945 207.209 370.042 213.219 360.615 219.581C339.49 233.84 315.546 250.003 286.633 250.003ZM202.437 173.163C197.365 173.163 192.289 175.052 188.372 178.846C180.386 186.582 180.2 199.355 187.957 207.319C196.297 215.882 206.733 225.782 220.898 234.285C235.906 243.294 258.01 247.869 286.596 247.883H286.633C314.894 247.883 338.552 231.915 359.424 217.826C368.919 211.418 377.887 205.364 386.407 201.314C396.457 196.537 400.736 184.496 395.946 174.474C391.155 164.452 379.083 160.184 369.033 164.961C357.77 170.315 347.105 177.513 336.791 184.475C319.162 196.374 302.513 207.612 286.632 207.612C273.102 207.605 259.284 204.725 246.652 199.282C235.121 194.313 224.84 187.389 216.922 179.259C212.969 175.201 207.706 173.163 202.437 173.163Z" fill="#2D2D2D"/>
<path d="M286.633 254.242H286.593C264.424 254.231 237.106 251.435 217.612 239.733C202.821 230.855 192.01 220.605 183.385 211.75C173.162 201.254 173.407 184.481 183.931 174.285C194.454 164.09 211.274 164.334 221.497 174.829C228.06 181.568 235.452 188.596 245.011 194.334C256.282 201.099 274.058 201.247 286.62 201.253C288.604 201.252 290.6 201.048 292.738 200.622C290.033 218.135 296.28 245.131 303.138 252.586C297.617 253.685 292.064 254.242 286.634 254.242L286.633 254.242Z" fill="#00B2FF"/>
<path d="M286.633 255.302H286.593C256.637 255.287 233.244 250.355 217.063 240.641C202.169 231.701 191.295 221.393 182.622 212.489C172.007 201.59 172.262 184.112 183.189 173.525C188.483 168.397 195.461 165.629 202.841 165.738C210.22 165.845 217.116 168.812 222.258 174.091C228.772 180.779 236.103 187.75 245.559 193.426C256.808 200.179 274.748 200.188 286.619 200.193C288.537 200.192 290.47 199.993 292.529 199.583C292.87 199.515 293.221 199.617 293.472 199.856C293.723 200.095 293.841 200.441 293.788 200.783C291.108 218.13 297.324 244.699 303.92 251.869C304.179 252.151 304.266 252.551 304.147 252.915C304.028 253.279 303.721 253.55 303.345 253.625C297.755 254.738 292.132 255.302 286.633 255.302ZM202.43 167.855C195.759 167.855 189.465 170.4 184.67 175.045C174.583 184.817 174.348 200.952 184.146 211.012C192.724 219.818 203.472 230.009 218.158 238.825C234.004 248.337 257.029 253.168 286.593 253.182H286.632C291.427 253.182 296.32 252.742 301.201 251.872C298.157 247.626 295.27 239.888 293.311 230.593C291.142 220.305 290.491 209.963 291.485 201.922C289.82 202.184 288.217 202.312 286.619 202.313C274.513 202.307 256.218 202.298 244.462 195.242C234.799 189.441 227.347 182.358 220.733 175.568C215.987 170.694 209.622 167.956 202.81 167.857C202.683 167.856 202.556 167.855 202.43 167.855Z" fill="#2D2D2D"/>
<path d="M401.99 179.66C407.794 177.95 411.685 183.806 410.932 189.765C410.124 196.157 397.39 200.275 393.394 201.43C386.762 203.347 384.694 191.96 391.116 189.058C395.388 187.128 399.784 185.303 399.784 185.303" fill="white"/>
<path d="M391.964 202.702C389.627 202.702 387.657 201.244 386.708 198.679C385.366 195.057 386.503 189.979 390.679 188.093C394.917 186.178 399.333 184.343 399.377 184.325C399.92 184.1 400.541 184.356 400.766 184.896C400.992 185.436 400.735 186.057 400.194 186.282C400.15 186.3 395.762 188.123 391.555 190.023C388.493 191.407 387.689 195.213 388.701 197.945C389.077 198.961 390.258 201.233 393.099 200.412C400.834 198.177 409.305 194.171 409.878 189.632C410.279 186.465 409.25 183.328 407.258 181.639C405.869 180.462 404.153 180.128 402.292 180.676C401.729 180.842 401.139 180.521 400.972 179.96C400.806 179.398 401.127 178.809 401.69 178.643C404.234 177.894 406.7 178.384 408.634 180.024C411.159 182.164 412.475 186.039 411.987 189.897C411.127 196.701 398.906 200.941 393.691 202.448C393.1 202.618 392.522 202.701 391.964 202.701V202.702Z" fill="#2D2D2D"/>
<path d="M398.641 167.813C404.264 165.583 412.651 170.224 412.447 176.226C412.227 182.666 397.729 189.421 393.847 190.912C387.006 193.539 384.137 181.805 390.19 178.2C394.051 175.9 395.862 174.595 395.862 174.595" fill="white"/>
<path d="M391.919 192.353C389.76 192.353 387.886 191.101 386.758 188.788C384.979 185.144 385.577 179.712 389.644 177.29C393.409 175.048 395.222 173.749 395.24 173.736C395.716 173.393 396.38 173.5 396.723 173.975C397.067 174.449 396.96 175.111 396.484 175.454C396.409 175.508 394.591 176.813 390.734 179.109C387.798 180.858 387.295 185.046 388.669 187.86C389.151 188.849 390.584 191.03 393.465 189.923C399.004 187.795 411.207 181.384 411.384 176.19C411.457 174.052 410.2 171.914 407.935 170.325C405.18 168.392 401.603 167.779 399.034 168.798C398.488 169.014 397.871 168.749 397.654 168.205C397.437 167.661 397.703 167.045 398.248 166.828C401.508 165.536 405.79 166.228 409.158 168.592C412.02 170.6 413.606 173.396 413.509 176.262C413.232 184.379 394.418 191.828 394.228 191.901C393.438 192.204 392.662 192.352 391.92 192.352L391.919 192.353Z" fill="#2D2D2D"/>
<path d="M368.576 164.004C375.253 160.862 383.65 157.166 392 155.455C396.449 154.544 410.189 155.606 413.563 156.629C422.033 159.199 416.515 170.424 404.216 169.752C394.646 169.229 388.944 175.221 388.944 175.221" fill="white"/>
<path d="M388.945 176.28C388.682 176.28 388.419 176.184 388.213 175.989C387.788 175.586 387.77 174.916 388.174 174.491C388.421 174.232 394.333 168.15 404.275 168.693C411.034 169.064 415.888 165.494 416.512 161.976C416.87 159.959 415.682 158.38 413.254 157.643C410.055 156.673 396.418 155.632 392.214 156.493C384.118 158.152 375.951 161.705 369.03 164.963C368.498 165.212 367.866 164.985 367.616 164.456C367.365 163.927 367.592 163.295 368.123 163.046C375.158 159.735 383.471 156.121 391.787 154.417C396.435 153.464 410.338 154.543 413.872 155.615C417.341 156.668 419.155 159.246 418.605 162.345C417.806 166.85 412.186 171.248 404.158 170.81C395.184 170.319 389.769 175.893 389.715 175.95C389.507 176.169 389.225 176.28 388.944 176.28L388.945 176.28Z" fill="#2D2D2D"/>
<path d="M361.902 173.623C365.701 169.815 370.745 165.273 374.754 163.99C381.69 161.768 393.855 162.474 397.961 162.453C410.842 162.387 405.317 174.78 395.49 176.373C389.388 177.361 384.023 178.195 384.023 178.195C384.023 178.195 386.566 186.025 376.999 190.657" fill="white"/>
<path d="M377 191.716C376.606 191.716 376.227 191.497 376.043 191.119C375.787 190.593 376.007 189.959 376.535 189.703C380.195 187.931 382.391 185.494 383.061 182.461C383.545 180.266 383.018 178.538 383.012 178.521C382.916 178.226 382.955 177.903 383.118 177.639C383.281 177.375 383.552 177.195 383.859 177.147C383.913 177.139 389.291 176.303 395.32 175.326C400.68 174.458 404.682 169.995 404.422 166.88C404.243 164.737 401.926 163.512 398.061 163.512C397.967 163.512 397.873 163.512 397.773 163.513C397.092 163.513 396.223 163.496 395.231 163.478C390.143 163.384 380.674 163.207 375.079 164.998C372.082 165.958 367.902 169.111 362.656 174.371C362.242 174.786 361.569 174.787 361.153 174.375C360.737 173.962 360.735 173.291 361.149 172.876C366.715 167.297 371.059 164.06 374.429 162.98C380.361 161.081 389.694 161.255 395.27 161.359C396.345 161.379 397.275 161.397 397.956 161.393H398.065C405.311 161.393 406.406 165.103 406.539 166.704C406.888 170.873 402.309 176.341 395.66 177.419C391.232 178.136 387.154 178.777 385.275 179.072C385.613 181.641 385.45 187.743 377.463 191.61C377.313 191.682 377.155 191.716 376.999 191.716H377Z" fill="#2D2D2D"/>
<path d="M274.514 198.259C278.835 199.585 292.903 198.659 297.171 197.665C295.36 215.464 305.529 253.407 313.233 250.96C313.978 254.242 284.231 263.523 279.001 260.904C269.105 255.948 266.649 199.476 274.514 198.259Z" fill="white"/>
<path d="M281.907 262.414C280.511 262.414 279.325 262.252 278.525 261.851C273.398 259.283 270.973 246.086 269.985 238.448C268.507 227.039 268.377 214.43 269.654 206.328C270.565 200.542 272.102 197.56 274.352 197.212C274.512 197.187 274.674 197.199 274.828 197.246C278.925 198.503 292.737 197.61 296.93 196.633C297.266 196.556 297.616 196.643 297.874 196.869C298.131 197.095 298.264 197.431 298.229 197.772C296.672 213.08 304.301 243.916 310.984 249.326C312.081 250.214 312.706 250.016 312.912 249.95C313.195 249.86 313.504 249.893 313.762 250.04C314.02 250.188 314.205 250.437 314.27 250.726C314.547 251.946 313.354 252.877 312.962 253.182C310.069 255.44 302.247 258.226 295.778 259.986C292.681 260.828 286.27 262.414 281.907 262.414L281.907 262.414ZM274.505 199.357C273.675 199.717 272.52 201.786 271.753 206.656C270.506 214.577 270.639 226.95 272.092 238.177C273.636 250.102 276.466 258.448 279.479 259.956C281.954 261.196 293.048 259.082 303.221 255.433C307.573 253.872 309.951 252.653 311.152 251.868C310.681 251.688 310.176 251.402 309.644 250.972C306.157 248.149 302.348 239.51 299.454 227.863C296.816 217.249 295.527 206.37 295.998 198.971C290.6 199.862 278.839 200.488 274.505 199.357Z" fill="#2D2D2D"/>
<path d="M196.154 214.767C183.775 229.537 171.807 253.7 169.03 262.681C166.253 271.662 171.78 278.193 162.569 283.704C153.36 289.216 141.284 290.848 119.18 289.42C97.2923 288.005 60.4407 279.826 49.1839 269.416C37.9271 259.006 55.742 152.797 64.5276 146.443C80.9672 134.553 132.23 141.669 132.23 141.669L163.44 149.467C163.44 149.467 207.795 157.295 221.497 174.829" fill="#00B2FF"/>
<path d="M132.709 290.968C128.624 290.968 124.12 290.801 119.111 290.477C97.7042 289.093 60.2273 281.074 48.4614 270.193C44.998 266.99 43.7973 256.167 44.892 238.023C45.8997 221.328 48.8257 199.826 52.7186 180.504C55.082 168.775 59.6779 148.641 63.9037 145.585C70.9129 140.515 84.5947 138.142 104.565 138.538C119.327 138.828 132.247 140.601 132.376 140.619C132.414 140.624 132.451 140.632 132.488 140.641L163.663 148.43C164.395 148.562 175.307 150.562 187.659 154.565C204.853 160.137 216.52 166.736 222.335 174.177C222.695 174.639 222.613 175.305 222.15 175.665C221.687 176.024 221.019 175.942 220.659 175.48C207.366 158.47 163.694 150.588 163.254 150.51C163.23 150.506 163.206 150.501 163.182 150.495L132.028 142.711C130.084 142.449 80.8207 135.967 65.1518 147.3C59.9271 151.079 49.2882 200.466 47.0141 238.15C45.6308 261.071 48.2327 267.09 49.9069 268.639C60.885 278.791 97.693 286.968 119.249 288.361C140.987 289.767 152.98 288.206 162.023 282.795C167.358 279.603 167.26 276.241 167.125 271.587C167.045 268.872 166.956 265.794 168.015 262.368C170.697 253.697 182.444 229.473 195.34 214.087C195.716 213.638 196.386 213.579 196.837 213.954C197.287 214.33 197.347 214.998 196.97 215.447C184.439 230.398 172.611 254.698 170.046 262.993C169.091 266.083 169.171 268.85 169.249 271.526C169.388 276.286 169.519 280.782 163.117 284.613C155.796 288.993 146.741 290.967 132.709 290.967L132.709 290.968Z" fill="#2D2D2D"/>
<path d="M161.977 152.781C156.705 171.906 140.254 170.159 131.223 147.49L136.892 114.716L167.646 120.007L161.977 152.781Z" fill="white"/>
<path d="M149.485 166.979C146.094 166.979 142.61 165.383 139.369 162.338C135.841 159.023 132.683 154.024 130.235 147.881C130.163 147.7 130.142 147.502 130.176 147.31L135.845 114.535C135.892 114.258 136.049 114.012 136.279 113.85C136.51 113.687 136.795 113.624 137.072 113.671L167.827 118.962C168.105 119.01 168.352 119.166 168.515 119.395C168.677 119.625 168.742 119.909 168.694 120.187L163.025 152.961C163.019 152.995 163.011 153.028 163.002 153.062C160.656 161.574 155.943 166.64 150.073 166.962C149.877 166.973 149.681 166.979 149.485 166.979ZM132.321 147.374C136.823 158.509 143.554 165.192 149.956 164.846C154.845 164.578 158.846 160.097 160.939 152.549L166.419 120.871L137.758 115.94L132.321 147.375V147.374Z" fill="#2D2D2D"/>
<path d="M143.651 154.336L147.884 164.067L155.137 156.406L163.439 149.467L169.03 150.515C169.03 150.515 165.048 173.161 146.811 168.525C128.575 163.889 125.535 143.346 125.535 143.346L131.222 145.545L143.651 154.336V154.336Z" fill="white"/>
<path d="M151.536 170.211C149.942 170.211 148.278 169.991 146.549 169.552C138.794 167.58 132.517 162.442 128.396 154.694C125.306 148.884 124.516 143.718 124.484 143.501C124.429 143.128 124.577 142.753 124.872 142.518C125.168 142.283 125.567 142.222 125.919 142.358L131.606 144.557C131.688 144.588 131.766 144.63 131.837 144.681L144.266 153.472C144.424 153.584 144.549 153.737 144.626 153.914L148.218 162.171L154.364 155.678C154.392 155.648 154.423 155.62 154.454 155.594L162.756 148.654C163 148.451 163.323 148.367 163.635 148.425L169.226 149.474C169.798 149.581 170.177 150.127 170.076 150.698C169.991 151.183 167.897 162.633 159.904 167.785C157.398 169.401 154.597 170.211 151.536 170.211V170.211ZM126.975 145.04C127.456 146.999 128.449 150.286 130.305 153.76C134.192 161.035 139.834 165.657 147.074 167.498C151.526 168.63 155.452 168.129 158.743 166.01C164.647 162.209 167.064 154.195 167.757 151.356L163.737 150.602L155.867 157.179L148.657 164.795C148.412 165.054 148.052 165.173 147.7 165.111C147.349 165.05 147.051 164.816 146.909 164.489L142.794 155.03L130.715 146.486L126.975 145.04L126.975 145.04Z" fill="#2D2D2D"/>
<path d="M130.324 131.462C132.697 138.966 137.293 147.995 143.651 154.336C137.764 157.302 132.409 161.796 127.465 167.472C127.465 167.472 114.81 149.603 118.217 138.256L130.324 131.462Z" fill="white"/>
<path d="M127.465 168.532C127.448 168.532 127.43 168.532 127.412 168.53C127.086 168.514 126.786 168.349 126.597 168.083C126.069 167.336 113.685 149.658 117.199 137.952C117.278 137.689 117.456 137.467 117.696 137.333L129.803 130.538C130.083 130.381 130.417 130.359 130.715 130.476C131.013 130.593 131.242 130.838 131.338 131.143C134.061 139.753 138.945 148.143 144.403 153.587C144.644 153.827 144.755 154.168 144.701 154.504C144.647 154.839 144.435 155.129 144.131 155.282C138.643 158.047 133.306 162.382 128.268 168.167C128.065 168.399 127.772 168.532 127.465 168.532V168.532ZM119.122 138.965C116.736 148.11 124.994 161.767 127.583 165.741C132.146 160.691 136.953 156.77 141.905 154.056C136.883 148.668 132.426 140.979 129.718 133.018L119.122 138.965Z" fill="#2D2D2D"/>
<path d="M167.646 143.347C164.427 146.509 155.137 156.407 155.137 156.407C158.499 161.255 160.334 166.936 161.391 173.043C161.391 173.043 173.773 162.303 173.773 152.406L167.646 143.347V143.347Z" fill="white"/>
<path d="M161.391 174.102C161.272 174.102 161.151 174.082 161.035 174.041C160.674 173.912 160.41 173.599 160.344 173.222C159.189 166.548 157.2 161.245 154.263 157.009C153.978 156.599 154.019 156.046 154.361 155.682C154.454 155.583 163.704 145.733 166.9 142.591C167.125 142.37 167.435 142.259 167.752 142.292C168.066 142.323 168.35 142.492 168.527 142.754L174.654 151.812C174.772 151.987 174.835 152.194 174.835 152.405C174.835 162.667 162.609 173.39 162.089 173.842C161.892 174.012 161.644 174.102 161.391 174.102L161.391 174.102ZM156.491 156.516C159.064 160.455 160.902 165.198 162.078 170.946C165.193 167.901 172.497 160.003 172.706 152.722L167.487 145.006C164.352 148.175 158.369 154.521 156.491 156.516H156.491Z" fill="#2D2D2D"/>
<path d="M136.723 123.263C131.125 115.048 127.518 105.175 126.418 93.9202C123.355 62.6032 163.409 30.8222 192.649 52.9336C214.064 69.1275 220.652 108.55 213.005 128.057C205.874 146.248 184.076 152.748 165.207 145.444C159.333 143.171 153.958 140.163 149.198 136.483" fill="white"/>
<path d="M180.784 149.46C175.45 149.46 170.029 148.448 164.823 146.433C158.856 144.124 153.381 141.058 148.547 137.321C148.083 136.962 147.999 136.297 148.358 135.834C148.717 135.372 149.385 135.287 149.849 135.646C154.52 139.257 159.816 142.222 165.591 144.457C184.99 151.965 205.381 144.593 212.015 127.672C215.737 118.177 215.996 103.548 212.691 89.4953C208.986 73.7481 201.641 61.0636 192.007 53.7785C180.269 44.9018 165.597 44.237 151.753 51.9527C135.912 60.7825 125.928 77.9978 127.476 93.8176C128.535 104.654 131.942 114.361 137.602 122.668C137.931 123.152 137.806 123.811 137.32 124.14C136.834 124.47 136.174 124.344 135.844 123.859C129.982 115.256 126.454 105.217 125.36 94.0232C123.733 77.3911 134.16 59.3304 150.716 50.1026C157.466 46.3402 164.736 44.4047 171.74 44.512C179.546 44.6289 186.797 47.1784 193.291 52.0894C203.318 59.6724 210.943 72.7847 214.76 89.0112C218.158 103.46 217.865 118.57 213.994 128.444C210.502 137.353 203.348 144.054 193.853 147.314C189.68 148.746 185.262 149.46 180.784 149.46H180.784Z" fill="#2D2D2D"/>
<path d="M138.652 109.42C145.295 106.142 143.489 88.6938 149.133 75.2092C158.852 76.2393 165.187 69.6287 175.318 62.1109C184.181 55.5345 202.163 58.2785 208.943 74.8131C214.333 60.344 203.945 43.3847 188.172 34.0952C188.172 34.0952 188.868 42.2595 187.148 42.3013C176.933 34.442 164.055 37.0064 155.079 34.6545C155.079 34.6545 155.934 39.1861 154.692 41.1258C146.16 38.8062 139.968 39.5854 132.616 35.5233C132.616 35.5233 129.37 45.1948 130.629 54.0656C128.187 56.9064 127.975 57.8713 126.555 61.3863L123.788 57.0057C117.933 65.7295 116.718 76.9239 118.279 84.4359C118.279 84.4359 113.06 80.0852 112.903 81.4232C112.154 87.7686 117.716 101.131 120.527 107.142C127.829 122.756 134.572 111.433 138.652 109.42Z" fill="#292B32"/>
<path d="M128.794 116.332C128.369 116.332 127.937 116.288 127.495 116.192C124.567 115.554 121.974 112.74 119.565 107.59C118.122 104.505 110.97 88.7394 111.848 81.2995C111.907 80.7966 112.215 80.3886 112.67 80.2079C113.039 80.0617 113.819 79.7522 116.815 81.9354C116.001 74.514 117.514 64.4509 122.906 56.4165C123.107 56.1184 123.455 55.9417 123.804 55.9465C124.164 55.9515 124.497 56.1378 124.689 56.4414L126.342 59.0598C127.149 57.0624 127.731 55.8664 129.515 53.7397C128.409 44.8654 131.476 35.585 131.61 35.1876C131.71 34.889 131.938 34.6503 132.232 34.5363C132.526 34.4221 132.856 34.4444 133.132 34.597C137.597 37.0639 141.567 37.6712 146.165 38.3743C148.658 38.7556 151.229 39.149 154.085 39.8712C154.467 38.4859 154.286 36.1888 154.035 34.8511C153.968 34.4939 154.089 34.1275 154.356 33.8801C154.623 33.6329 154.996 33.538 155.35 33.6308C158.205 34.3787 161.524 34.6169 165.038 34.8691C172.096 35.3757 180.06 35.9469 186.987 40.8637C187.277 39.6736 187.345 36.8965 187.114 34.1858C187.08 33.7908 187.271 33.4098 187.608 33.1989C187.944 32.988 188.371 32.9824 188.713 33.1835C196.796 37.9438 203.443 44.6299 207.43 52.0102C211.745 59.9964 212.613 68.0096 209.94 75.1833C209.788 75.5926 209.399 75.8668 208.962 75.8737C208.956 75.8737 208.95 75.8737 208.944 75.8737C208.513 75.8737 208.124 75.6141 207.961 75.215C204.933 67.8313 199.324 62.6707 192.166 60.6845C186.267 59.0466 180.053 59.9196 175.954 62.9622C174.286 64.1997 172.727 65.4079 171.22 66.5765C164.228 71.9981 158.579 76.376 151.118 76.3766C150.692 76.3766 150.262 76.3625 149.824 76.3334C147.651 81.8389 146.655 88.0317 145.773 93.5229C144.502 101.43 143.404 108.26 139.125 110.371C138.407 110.725 137.49 111.502 136.519 112.324C134.383 114.134 131.788 116.333 128.795 116.333L128.794 116.332ZM113.898 82.5574C113.837 88.2317 117.852 98.9132 121.491 106.694C123.571 111.142 125.744 113.64 127.949 114.121C130.466 114.668 132.951 112.565 135.143 110.708C136.216 109.799 137.23 108.94 138.182 108.47C141.479 106.844 142.496 100.515 143.674 93.1867C144.614 87.3402 145.679 80.7137 148.153 74.8015C148.334 74.3688 148.778 74.1063 149.246 74.1558C156.929 74.9684 162.377 70.7473 169.916 64.9024C171.431 63.7271 172.999 62.512 174.685 61.261C179.301 57.8358 186.218 56.8322 192.736 58.6417C199.679 60.5687 205.277 65.2142 208.739 71.8508C211.958 58.3988 201.996 44.2052 189.361 36.0725C189.455 38.4994 189.365 41.6808 188.367 42.7917C187.957 43.248 187.492 43.3531 187.175 43.3608C186.93 43.3632 186.693 43.289 186.5 43.1404C179.896 38.0593 171.921 37.487 164.885 36.982C161.865 36.7653 158.984 36.5587 156.342 36.0309C156.503 37.6796 156.547 40.1998 155.589 41.6959C155.339 42.0867 154.862 42.2701 154.414 42.1482C151.314 41.3054 148.532 40.8799 145.842 40.4684C141.618 39.8222 137.608 39.2089 133.266 37.0594C132.475 39.8787 130.728 47.1922 131.683 53.917C131.725 54.2185 131.636 54.524 131.437 54.7553C129.392 57.1339 129.04 58.0215 127.992 60.6558C127.854 61.0019 127.706 61.3749 127.541 61.7821C127.392 62.1512 127.048 62.4058 126.65 62.4416C126.251 62.4768 125.869 62.2876 125.656 61.9509L123.788 58.9923C118.821 67.3173 117.926 77.5124 119.321 84.221C119.413 84.6627 119.214 85.1136 118.826 85.3454C118.439 85.5773 117.946 85.5386 117.599 85.2495C116.241 84.1177 114.792 83.073 113.898 82.5574Z" fill="#2D2D2D"/>
<path d="M141.133 109.05C138.784 104.115 133.202 101.346 127.682 102.718C121.386 104.283 117.554 110.641 119.123 116.921C120.692 123.2 127.068 127.021 133.364 125.456C135.586 124.904 137.501 123.755 138.98 122.222" fill="white"/>
<path d="M130.525 126.865C124.782 126.865 119.543 122.98 118.093 117.177C116.384 110.34 120.571 103.393 127.425 101.689C133.322 100.224 139.492 103.128 142.094 108.596C142.346 109.124 142.12 109.756 141.59 110.007C141.059 110.259 140.426 110.033 140.175 109.505C138.004 104.945 132.859 102.523 127.94 103.746C122.222 105.167 118.73 110.962 120.155 116.664C121.58 122.366 127.393 125.849 133.108 124.428C135.062 123.942 136.828 122.925 138.216 121.487C138.623 121.065 139.296 121.052 139.719 121.458C140.141 121.864 140.154 122.535 139.747 122.957C138.081 124.682 135.963 125.902 133.622 126.484C132.586 126.742 131.547 126.865 130.525 126.865Z" fill="#2D2D2D"/>
<path d="M169.24 97.4191C172.353 95.4167 175.675 94.3514 179.74 93.2492C182.347 92.5426 182.031 89.5466 178.113 88.4524C174.429 87.4239 167.776 89.8889 166.005 93.3984C164.158 97.0596 166.699 99.0533 169.24 97.4191Z" fill="#292B32"/>
<path d="M167.458 99.0556C166.676 99.0556 165.946 98.7976 165.371 98.282C164.366 97.382 163.757 95.5012 165.057 92.9225C167.118 88.8378 174.441 86.3264 178.401 87.4323C181.425 88.2769 182.497 90.0563 182.492 91.4401C182.487 92.7751 181.54 93.8601 180.02 94.2721C175.723 95.4368 172.676 96.4714 169.817 98.3098C169.044 98.8071 168.226 99.0556 167.458 99.0556ZM176.2 89.2755C172.916 89.2755 168.3 91.2101 166.956 93.8749C166.192 95.3888 166.39 96.3458 166.791 96.7056C167.197 97.0694 167.933 97.0002 168.665 96.5289C171.755 94.5413 174.964 93.4462 179.463 92.227C179.734 92.1536 180.365 91.9289 180.367 91.4321C180.369 90.9301 179.694 89.9943 177.828 89.4731C177.347 89.3391 176.796 89.2755 176.2 89.2755Z" fill="#2D2D2D"/>
<path d="M196.6 90.811C200.304 90.7463 203.69 91.5878 207.727 92.7891C210.315 93.5592 211.631 90.8481 208.88 87.8574C206.294 85.0466 199.337 83.6427 195.978 85.6936C192.472 87.8333 193.577 90.8634 196.6 90.8107V90.811Z" fill="#292B32"/>
<path d="M208.581 93.9808C208.211 93.9808 207.823 93.9233 207.425 93.8046C203.157 92.5347 200.019 91.8098 196.621 91.8705C196.589 91.871 196.558 91.8713 196.527 91.8713C194.713 91.8713 193.278 90.9509 192.857 89.5085C192.48 88.2156 192.956 86.2969 195.425 84.7899C199.335 82.4027 206.885 84.1185 209.665 87.1413C211.788 89.4495 211.759 91.5253 211.022 92.6985C210.499 93.5315 209.614 93.9811 208.582 93.9811L208.581 93.9808ZM197.015 89.7478C200.521 89.7478 203.74 90.4968 208.032 91.7738C208.302 91.8541 208.956 91.9948 209.221 91.574C209.488 91.1485 209.409 89.9987 208.099 88.5744C205.9 86.1843 199.548 84.7584 196.534 86.5981C195.085 87.4828 194.747 88.4 194.897 88.9164C195.05 89.4391 195.711 89.7685 196.583 89.7518C196.728 89.7494 196.872 89.7481 197.015 89.7481L197.015 89.7478Z" fill="#2D2D2D"/>
<path d="M177.565 106.815C178.889 106.671 179.822 105.28 179.651 103.709C179.479 102.137 178.267 100.98 176.943 101.123C175.62 101.267 174.686 102.658 174.858 104.229C175.03 105.801 176.242 106.958 177.565 106.815Z" fill="#292B32"/>
<path d="M202.78 104.614C204.103 104.471 205.037 103.08 204.865 101.508C204.694 99.9368 203.482 98.7793 202.158 98.9232C200.835 99.067 199.901 100.458 200.073 102.029C200.244 103.601 201.456 104.758 202.78 104.614Z" fill="#292B32"/>
<path d="M168.658 118.985C168.726 127.536 177.461 128.727 181.763 123.529L168.658 118.985Z" fill="white"/>
<path d="M175.419 127.705C174.513 127.705 173.611 127.558 172.746 127.251C169.506 126.105 167.628 123.095 167.596 118.994C167.593 118.649 167.758 118.325 168.039 118.124C168.32 117.923 168.681 117.872 169.007 117.984L182.112 122.528C182.441 122.642 182.693 122.909 182.786 123.244C182.88 123.578 182.804 123.937 182.583 124.204C180.722 126.452 178.056 127.706 175.419 127.706V127.705ZM169.85 120.52C170.242 122.876 171.51 124.565 173.456 125.254C175.508 125.98 177.944 125.45 179.804 123.972L169.85 120.52Z" fill="#2D2D2D"/>
<path d="M133.299 118.613C133.075 118.613 132.85 118.543 132.658 118.398L126.452 113.709C125.984 113.356 125.893 112.691 126.247 112.224C126.602 111.758 127.269 111.667 127.736 112.02L133.942 116.709C134.41 117.062 134.501 117.727 134.147 118.193C133.938 118.468 133.62 118.613 133.299 118.613L133.299 118.613Z" fill="#2D2D2D"/>
<path d="M127.86 119.965C127.669 119.965 127.476 119.914 127.301 119.806C126.803 119.497 126.649 118.844 126.958 118.347L131.542 110.976C131.851 110.478 132.506 110.326 133.005 110.634C133.504 110.942 133.657 111.595 133.348 112.093L128.765 119.463C128.564 119.787 128.216 119.965 127.861 119.965H127.86Z" fill="#2D2D2D"/>
<path d="M149.133 76.0045C149.069 76.0045 149.004 75.9968 148.939 75.9807C138.085 73.2706 131.48 65.731 129.84 54.1771C129.778 53.7426 130.081 53.3401 130.517 53.2787C130.955 53.2161 131.357 53.5195 131.419 53.9543C132.96 64.8151 139.153 71.8987 149.326 74.4384C149.753 74.5449 150.013 74.9765 149.906 75.4026C149.815 75.7637 149.49 76.0045 149.133 76.0045Z" fill="white"/>
<path d="M191.622 47.5644C191.378 47.5644 191.136 47.4526 190.98 47.2411C190.964 47.2189 189.3 44.9873 186.658 42.9273C186.311 42.6568 186.25 42.1574 186.521 41.8116C186.792 41.4659 187.292 41.4047 187.639 41.6749C190.463 43.8761 192.191 46.201 192.263 46.2987C192.524 46.6522 192.448 47.1492 192.094 47.4094C191.952 47.514 191.786 47.5641 191.622 47.5641L191.622 47.5644Z" fill="white"/>
<path d="M141.97 340.621C123.801 340.621 98.9185 340.621 76.2402 334.742C62.743 331.242 51.257 325.928 42.101 318.944C30.5881 310.164 22.5484 298.749 18.2054 285.018C8.30158 253.706 17.805 222.908 27.5216 202.585C36.1521 184.534 48.6755 167.256 60.8401 156.248C63.1205 154.185 86.5106 190.196 82.5942 194.831C77.2098 201.202 71.0109 210.117 65.889 220.83C61.4865 230.038 58.5982 239.043 57.3042 247.595C55.9374 256.627 56.4214 264.928 58.7422 272.266C60.4499 277.665 63.3665 281.797 67.9218 285.271C72.5533 288.804 78.9499 291.644 86.9343 293.714C104.353 298.23 126.095 298.23 141.97 298.23C153.707 298.23 163.223 307.72 163.223 319.426C163.223 331.132 153.707 340.621 141.97 340.621Z" fill="white"/>
<path d="M141.969 341.681C123.743 341.681 98.7813 341.681 75.9714 335.767C62.3361 332.232 50.7228 326.855 41.4539 319.786C29.7638 310.871 21.6006 299.28 17.1907 285.337C7.18272 253.696 16.7624 222.623 26.5608 202.129C35.1586 184.146 47.7057 166.701 60.1245 155.464C61.294 154.405 62.8563 155.908 63.4445 156.473C66.5612 159.47 72.4421 167.944 77.1236 176.185C79.649 180.631 81.601 184.613 82.7681 187.703C84.294 191.74 84.4964 194.222 83.4048 195.513C78.9534 200.781 72.4674 209.528 66.8463 221.286C62.4892 230.399 59.6315 239.304 58.3528 247.753C57.0105 256.624 57.482 264.764 59.7534 271.947C61.392 277.128 64.192 281.094 68.5653 284.429C73.0834 287.875 79.3527 290.654 87.2001 292.688C104.487 297.17 126.15 297.17 141.968 297.17C154.273 297.17 164.283 307.154 164.283 319.426C164.283 331.697 154.273 341.681 141.968 341.681H141.969ZM61.2188 157.337C49.1034 168.408 36.8872 185.455 28.4794 203.04C18.8452 223.191 9.41799 253.715 19.2177 284.699C23.4937 298.218 31.4096 309.456 42.745 318.102C51.7876 324.999 63.1467 330.252 76.5065 333.716C99.053 339.561 123.857 339.561 141.969 339.561C153.101 339.561 162.159 330.528 162.159 319.425C162.159 308.322 153.101 299.289 141.969 299.289C126.036 299.289 104.216 299.289 86.6656 294.739C78.5433 292.634 72.0192 289.731 67.275 286.113C62.5375 282.5 59.5037 278.201 57.7275 272.584C55.3573 265.091 54.861 256.629 56.252 247.436C57.5617 238.781 60.481 229.675 64.9285 220.373C70.6465 208.412 77.2487 199.51 81.7803 194.147C81.8361 194.081 82.3032 193.422 81.5237 190.67C78.5999 180.344 64.3754 159.33 61.2188 157.337Z" fill="#2D2D2D"/>
<path d="M87.7846 196.916C82.3372 203.151 75.8211 212.365 70.684 223.11C65.7574 233.415 58.3128 253.296 63.8085 270.672C64.4926 272.834 65.395 274.7 66.5679 276.376C74.9652 288.375 28.1641 314.084 22.9989 306.704C18.7533 300.638 15.4358 293.878 13.1376 286.612C8.60513 272.282 7.55631 256.761 10.0198 240.479C12.0175 227.275 16.2923 213.759 22.725 200.304C33.3322 178.118 49.7405 156.977 64.5271 146.443" fill="#00B2FF"/>
<path d="M26.5829 309.072C24.443 309.072 22.9471 308.481 22.1275 307.311C17.8204 301.156 14.4547 294.299 12.1244 286.931C7.54305 272.446 6.48147 256.764 8.96912 240.321C10.9826 227.014 15.2881 213.397 21.766 199.848C32.4452 177.512 48.9876 156.211 63.9095 145.581C64.3871 145.241 65.0507 145.351 65.3918 145.827C65.7329 146.304 65.6224 146.965 65.1448 147.306C50.4944 157.742 34.2201 178.725 23.6843 200.761C17.2968 214.121 13.0528 227.538 11.0708 240.637C8.63173 256.758 9.66833 272.119 14.1513 286.294C16.4169 293.456 19.6869 300.119 23.8708 306.097C24.3506 306.783 25.6592 307.071 27.555 306.909C32.4896 306.486 40.7891 303.1 48.6988 298.283C57.2146 293.096 63.5686 287.294 65.6963 282.761C66.7887 280.434 66.789 278.544 65.6968 276.983C64.4615 275.218 63.5123 273.258 62.7955 270.991C57.1901 253.27 64.7311 233.1 69.7253 222.655C75.8626 209.819 83.1725 200.583 86.9839 196.22C87.3694 195.779 88.0407 195.733 88.4833 196.117C88.9256 196.502 88.9718 197.171 88.5864 197.613C84.8467 201.894 77.6722 210.959 71.6439 223.567C66.7844 233.731 59.4365 253.325 64.8225 270.354C65.4734 272.412 66.3296 274.184 67.4401 275.77C68.5009 277.286 69.3935 279.885 67.6215 283.66C65.2898 288.628 58.7963 294.617 49.8066 300.092C41.5119 305.143 33.0554 308.565 27.7375 309.021C27.3342 309.055 26.9493 309.072 26.5834 309.072L26.5829 309.072Z" fill="#2D2D2D"/>
<path d="M141.969 298.23C146.821 298.286 152.913 299.248 159.166 300.858C165.743 302.553 172.26 310.639 174.038 313.063C179.075 319.933 170.247 325.265 162.367 319.18C157.596 315.496 144.859 315.387 144.859 315.387" fill="white"/>
<path d="M169.451 322.886C167.068 322.886 164.34 322.044 161.717 320.018C157.28 316.592 144.974 316.448 144.851 316.447C144.264 316.442 143.792 315.963 143.797 315.378C143.802 314.793 144.277 314.33 144.869 314.327C145.403 314.332 158.021 314.484 163.018 318.342C167.174 321.551 171.48 321.279 173.423 319.395C174.887 317.975 174.798 315.895 173.18 313.689C172.428 312.663 165.639 303.62 158.901 301.885C152.612 300.264 146.594 299.343 141.957 299.29C141.37 299.284 140.9 298.804 140.906 298.218C140.913 297.637 141.388 297.171 141.969 297.171H141.981C146.785 297.226 152.983 298.171 159.432 299.832C166.731 301.713 173.594 310.662 174.896 312.437C177.576 316.093 176.658 319.213 174.905 320.914C173.649 322.133 171.705 322.886 169.451 322.886Z" fill="#2D2D2D"/>
<path d="M140.746 310.472C143.798 310.639 153.723 311.272 159.666 313.066C164.441 314.506 171.109 322.454 172.949 326.17C176.079 332.489 165.082 335.641 158.581 329.094C153.997 324.478 140.858 325.425 140.858 325.425" fill="white"/>
<path d="M167.124 333.767C164.017 333.767 160.517 332.55 157.826 329.84C153.641 325.625 141.061 326.474 140.934 326.482C140.348 326.522 139.84 326.085 139.798 325.502C139.756 324.918 140.196 324.41 140.781 324.368C141.337 324.329 154.464 323.442 159.336 328.349C163.311 332.352 168.846 332.192 171.153 330.551C172.091 329.884 172.999 328.663 171.997 326.64C170.253 323.12 163.718 315.396 159.359 314.081C153.764 312.393 144.438 311.735 140.688 311.531C140.102 311.499 139.653 311 139.685 310.415C139.717 309.83 140.223 309.383 140.804 309.415C144.631 309.623 154.159 310.297 159.974 312.052C165.12 313.604 172.014 321.888 173.902 325.701C175.163 328.247 174.597 330.705 172.387 332.277C171.028 333.245 169.16 333.767 167.124 333.767L167.124 333.767Z" fill="#2D2D2D"/>
<path d="M139.669 324.22C143.137 324.809 149.974 325.145 156.287 326.485C160.703 327.423 166.917 330.156 168.992 332.38C173.498 337.211 170.13 340.734 161.729 340.531C155.452 340.38 138.338 340.469 138.338 340.469" fill="white"/>
<path d="M162.424 341.6C162.187 341.6 161.948 341.597 161.703 341.591C155.514 341.442 138.514 341.528 138.344 341.53H138.338C137.754 341.53 137.279 341.059 137.275 340.475C137.272 339.89 137.746 339.413 138.332 339.41C138.504 339.409 155.535 339.322 161.755 339.472C166.819 339.594 169.223 338.32 169.779 337.087C170.39 335.734 169.061 334.01 168.214 333.102C166.42 331.178 160.516 328.467 156.066 327.522C152.112 326.682 147.898 326.237 144.513 325.879C142.515 325.668 140.79 325.486 139.491 325.265C138.912 325.167 138.523 324.619 138.622 324.042C138.72 323.465 139.273 323.077 139.848 323.175C141.081 323.385 142.775 323.564 144.737 323.771C148.171 324.134 152.446 324.586 156.509 325.449C160.914 326.384 167.444 329.164 169.771 331.658C172.438 334.518 172.302 336.662 171.717 337.956C170.653 340.316 167.364 341.599 162.424 341.599L162.424 341.6Z" fill="#2D2D2D"/>
<path d="M63.5835 258.845C65.6631 266.343 69.9193 277.236 72.3155 279.409C77.6542 289.91 32.0056 317.852 17.9299 308.012C15.6083 306.389 6.93872 285.599 8.72236 278.683C32.0199 280.928 57.3807 269.458 63.5838 258.845L63.5835 258.845Z" fill="white"/>
<path d="M25.8137 311.118C22.4698 311.118 19.5471 310.437 17.3203 308.88C15.5327 307.63 12.4332 300.306 10.7859 295.688C9.15019 291.102 6.57355 282.762 7.69331 278.419C7.82348 277.914 8.30034 277.577 8.82475 277.628C31.1397 279.777 56.5245 268.819 62.6658 258.311C62.8813 257.943 63.2962 257.739 63.7207 257.794C64.1447 257.849 64.4944 258.152 64.6083 258.562C66.6935 266.081 70.9154 276.707 73.0308 278.625C73.1264 278.711 73.2053 278.815 73.2638 278.93C75.0676 282.478 72.3273 287.66 65.5477 293.523C55.5235 302.192 37.9148 311.118 25.8137 311.118ZM9.59942 279.824C9.28036 282.839 10.4296 288.357 12.7764 294.944C15.3441 302.151 17.8559 306.65 18.5407 307.145C22.617 309.995 30.1958 309.598 39.8804 306.028C48.4408 302.873 57.7423 297.467 64.1556 291.921C69.8413 287.004 72.5444 282.583 71.4382 280.037C68.9543 277.525 65.2921 268.164 63.1934 261.295C59.3894 266.175 52.0389 271.026 42.9512 274.572C32.057 278.824 20.2556 280.677 9.59942 279.824Z" fill="#2D2D2D"/>
<path d="M24.7347 299.781C26.5527 299.2 27.4344 296.888 26.7042 294.617C25.974 292.346 23.9084 290.977 22.0905 291.558C20.2725 292.139 19.3908 294.452 20.121 296.722C20.8511 298.993 22.9168 300.363 24.7347 299.781Z" fill="#292B32"/>
<path d="M23.8888 300.972C21.8669 300.972 19.8715 299.41 19.1112 297.046C18.2032 294.222 19.3946 291.307 21.7678 290.548C24.1393 289.79 26.8098 291.469 27.7178 294.293C28.6258 297.116 27.4341 300.031 25.0612 300.79C24.6754 300.913 24.2815 300.972 23.8888 300.972ZM22.9447 292.485C22.7659 292.485 22.5889 292.512 22.4171 292.567C21.1815 292.962 20.5944 294.716 21.135 296.398C21.6759 298.079 23.175 299.167 24.4124 298.771C25.648 298.376 26.2351 296.622 25.6945 294.94C25.2288 293.492 24.0517 292.485 22.9447 292.485V292.485Z" fill="#2D2D2D"/>
<path d="M292.316 254.837C294.647 254.307 296.193 252.372 295.768 250.515C295.343 248.659 293.109 247.585 290.778 248.115C288.446 248.646 286.901 250.581 287.326 252.437C287.751 254.293 289.985 255.368 292.316 254.837Z" fill="#292B32"/>
<path d="M291.137 256.03C288.789 256.03 286.753 254.696 286.29 252.672C286.011 251.454 286.329 250.191 287.187 249.118C287.988 248.114 289.179 247.391 290.541 247.081C291.903 246.771 293.291 246.907 294.449 247.465C295.689 248.061 296.525 249.06 296.803 250.279C297.082 251.497 296.764 252.759 295.906 253.833C295.105 254.836 293.914 255.56 292.553 255.869C292.075 255.978 291.6 256.03 291.137 256.03ZM291.975 249.038C291.66 249.038 291.337 249.074 291.014 249.148C290.12 249.351 289.352 249.81 288.849 250.439C288.403 250.998 288.23 251.623 288.362 252.2C288.651 253.462 290.354 254.197 292.079 253.803C292.973 253.599 293.742 253.141 294.244 252.512C294.69 251.953 294.863 251.327 294.731 250.751C294.599 250.173 294.171 249.685 293.525 249.374C293.062 249.151 292.531 249.038 291.975 249.038L291.975 249.038Z" fill="#2D2D2D"/>
</g>
<mask id="mask4_2087_4755" style="mask-type:luminance" maskUnits="userSpaceOnUse" x="389" y="103" width="52" height="79">
<path d="M389.072 110.823L427.002 103.49L440.91 174.606L402.98 181.938L389.072 110.823Z" fill="white"/>
</mask>
<g mask="url(#mask4_2087_4755)">
<path d="M403.977 181.737C403.404 181.848 402.85 181.473 402.738 180.9L389.275 111.891C389.163 111.318 389.536 110.763 390.108 110.652C390.68 110.541 391.235 110.916 391.347 111.49L404.81 180.498C404.922 181.072 404.549 181.626 403.977 181.737Z" fill="#2D2D2D"/>
<path d="M391.238 116.398L430.183 125.188L397.39 147.838L391.238 116.398Z" fill="#2D2D2D"/>
<path d="M397.595 148.877C397.395 148.915 397.186 148.897 396.993 148.818C396.661 148.683 396.42 148.39 396.351 148.039L390.199 116.599C390.131 116.248 390.244 115.887 390.5 115.638C390.757 115.389 391.122 115.287 391.471 115.366L430.415 124.156C430.826 124.248 431.143 124.574 431.224 124.987C431.305 125.399 431.134 125.82 430.788 126.059L397.995 148.709C397.873 148.793 397.736 148.85 397.595 148.877ZM392.591 117.788L398.12 146.046L427.595 125.688L392.591 117.788Z" fill="#2D2D2D"/>
</g>
<mask id="mask5_2087_4755" style="mask-type:luminance" maskUnits="userSpaceOnUse" x="360" y="161" width="47" height="31">
<path d="M360.93 161.214H406.51V191.536H360.93V161.214Z" fill="white"/>
</mask>
<g mask="url(#mask5_2087_4755)">
<path d="M361.988 173.498C365.775 169.701 370.804 165.173 374.801 163.893C381.716 161.679 393.844 162.382 397.938 162.361C410.779 162.296 405.271 174.651 395.474 176.239C389.39 177.224 384.041 178.055 384.041 178.055C384.041 178.055 386.577 185.862 377.039 190.48" fill="white"/>
<path d="M377.04 191.536C376.647 191.536 376.27 191.316 376.086 190.94C375.831 190.415 376.05 189.783 376.577 189.528C385.126 185.389 383.122 178.66 383.033 178.375C382.94 178.082 382.98 177.76 383.143 177.499C383.306 177.237 383.574 177.058 383.879 177.01C383.933 177.002 389.294 176.169 395.304 175.195C400.648 174.329 404.638 169.88 404.379 166.774C404.201 164.638 401.891 163.417 398.038 163.417C397.944 163.417 397.85 163.417 397.751 163.417C397.071 163.417 396.205 163.401 395.216 163.383C390.144 163.288 380.703 163.113 375.126 164.899C372.138 165.855 367.97 168.999 362.74 174.242C362.327 174.656 361.657 174.658 361.242 174.246C360.827 173.834 360.826 173.166 361.238 172.752C366.787 167.19 371.118 163.963 374.478 162.887C380.391 160.993 389.695 161.167 395.255 161.27C396.327 161.29 397.253 161.308 397.933 161.304C397.969 161.304 398.006 161.304 398.042 161.304C405.266 161.304 406.357 165.003 406.49 166.599C406.837 170.756 402.272 176.207 395.644 177.281C391.229 177.996 387.164 178.636 385.29 178.929C385.627 181.492 385.465 187.574 377.502 191.43C377.353 191.502 377.195 191.536 377.04 191.536L377.04 191.536Z" fill="#2D2D2D"/>
</g>
</svg>
