<svg width="503" height="384" viewBox="0 0 503 384" fill="none" xmlns="http://www.w3.org/2000/svg">
<g clip-path="url(#clip0_6836_2343)">
<path d="M71.9944 113.243H153.195C157.55 113.243 161.081 116.774 161.081 121.129V169.714C161.081 174.069 157.55 177.599 153.195 177.599H119.536L112.594 186.354L105.653 177.599H71.9942C67.6389 177.599 64.1082 174.069 64.1082 169.714V121.129C64.1082 116.774 67.6391 113.243 71.9944 113.243Z" fill="white"/>
<path d="M112.595 186.985C112.69 186.984 112.783 186.963 112.869 186.922C112.955 186.88 113.03 186.82 113.089 186.746L119.841 178.23H153.194C157.891 178.23 161.711 174.41 161.711 169.714V121.129C161.711 116.433 157.891 112.612 153.194 112.612H71.9944C67.2981 112.612 63.4774 116.433 63.4774 121.129V169.714C63.4774 174.41 67.2981 178.23 71.9944 178.23H105.348L112.1 186.746C112.159 186.82 112.234 186.88 112.32 186.922C112.405 186.963 112.499 186.984 112.594 186.985H112.595ZM153.194 113.874C157.195 113.874 160.45 117.129 160.45 121.129V169.714C160.45 173.714 157.195 176.968 153.194 176.968H119.536C119.441 176.968 119.347 176.99 119.261 177.031C119.176 177.073 119.101 177.133 119.042 177.207L112.595 185.338L106.147 177.207C106.088 177.133 106.013 177.073 105.928 177.031C105.842 176.99 105.748 176.968 105.653 176.968H71.9945C67.9941 176.968 64.7393 173.714 64.7393 169.714V121.129C64.7393 117.129 67.9941 113.874 71.9945 113.874H153.194Z" fill="#3375E0"/>
</g>
<g clip-path="url(#clip1_6836_2343)">
<path d="M143.104 126.793H81.9277V163.507H143.104V126.793Z" fill="#A8CFFB"/>
<path d="M81.9278 164.137H143.104C143.272 164.137 143.433 164.071 143.551 163.952C143.67 163.834 143.736 163.674 143.736 163.507V126.793C143.736 126.626 143.67 126.466 143.551 126.348C143.433 126.229 143.272 126.163 143.104 126.163H81.9278C81.7601 126.163 81.5992 126.229 81.4806 126.348C81.3621 126.466 81.2954 126.626 81.2954 126.793V163.507C81.2954 163.674 81.3621 163.834 81.4806 163.952C81.5992 164.071 81.7601 164.137 81.9278 164.137ZM142.472 162.876H82.5601V127.424H142.472V162.876Z" fill="#3375E0"/>
<path d="M81.9284 164.137C82.0629 164.137 82.1984 164.095 82.3133 164.007L112.516 140.865L142.719 164.007C142.852 164.108 143.02 164.153 143.186 164.131C143.352 164.109 143.502 164.022 143.604 163.89C143.706 163.758 143.751 163.59 143.73 163.425C143.708 163.26 143.622 163.109 143.49 163.007L112.901 139.57C112.791 139.486 112.655 139.44 112.516 139.44C112.377 139.44 112.241 139.486 112.131 139.57L81.5427 163.007C81.438 163.087 81.3611 163.198 81.3228 163.324C81.2846 163.45 81.2869 163.585 81.3295 163.71C81.372 163.834 81.4527 163.943 81.5601 164.019C81.6675 164.096 81.7963 164.137 81.9284 164.137V164.137Z" fill="#3375E0"/>
<path d="M143.104 126.793L112.516 150.23L81.9277 126.793H143.104Z" fill="#A8CFFB"/>
<path d="M112.516 150.86C112.656 150.86 112.791 150.815 112.902 150.73L143.49 127.293C143.594 127.213 143.671 127.102 143.71 126.976C143.748 126.85 143.746 126.715 143.703 126.591C143.661 126.466 143.58 126.358 143.473 126.281C143.365 126.204 143.236 126.163 143.104 126.163H81.9281C81.796 126.163 81.6672 126.204 81.5598 126.281C81.4525 126.358 81.3719 126.466 81.3294 126.591C81.2869 126.715 81.2846 126.85 81.3229 126.976C81.3612 127.102 81.4381 127.213 81.5428 127.293L112.131 150.73C112.241 150.815 112.377 150.861 112.516 150.86H112.516ZM141.244 127.424L112.516 149.435L83.7883 127.424H141.244Z" fill="#3375E0"/>
</g>
<g clip-path="url(#clip2_6836_2343)">
<path d="M141.148 134.034C145.019 134.034 148.157 130.898 148.157 127.03C148.157 123.162 145.019 120.026 141.148 120.026C137.277 120.026 134.139 123.162 134.139 127.03C134.139 130.898 137.277 134.034 141.148 134.034Z" fill="white"/>
<path d="M141.148 134.672C136.932 134.672 133.501 131.244 133.501 127.03C133.501 122.816 136.932 119.388 141.148 119.388C145.365 119.388 148.796 122.816 148.796 127.03C148.796 131.243 145.365 134.672 141.148 134.672ZM141.148 120.664C137.636 120.664 134.778 123.519 134.778 127.03C134.778 130.54 137.636 133.396 141.148 133.396C144.661 133.396 147.519 130.54 147.519 127.03C147.519 123.519 144.661 120.664 141.148 120.664Z" fill="#3375E0"/>
<path d="M141.148 131.513C140.979 131.513 140.817 131.445 140.697 131.326C140.577 131.206 140.51 131.044 140.51 130.875V125.796L139.975 126.825C139.895 126.972 139.761 127.082 139.6 127.131C139.44 127.18 139.267 127.164 139.119 127.087C138.97 127.01 138.858 126.878 138.806 126.719C138.754 126.56 138.767 126.386 138.842 126.237L140.582 122.891C140.648 122.764 140.754 122.663 140.884 122.604C141.015 122.545 141.161 122.531 141.3 122.565C141.439 122.599 141.562 122.679 141.651 122.791C141.739 122.903 141.787 123.042 141.787 123.185V130.875C141.787 131.044 141.719 131.206 141.6 131.326C141.48 131.445 141.318 131.513 141.148 131.513Z" fill="#3375E0"/>
</g>
<g clip-path="url(#clip3_6836_2343)">
<path d="M272.274 178.093C276.954 169.396 281.74 162.431 286.905 156.801C337.695 102.628 396.304 177.942 341.957 210.476C326.736 240.603 315.145 275.609 299.305 308.474H210.631C238.132 272.401 252.817 215.026 272.274 178.093L272.274 178.093Z" fill="white"/>
<path d="M210.631 309.751H299.305C299.546 309.751 299.781 309.683 299.985 309.555C300.188 309.427 300.351 309.245 300.455 309.029C308.025 293.322 314.673 277.016 321.101 261.246C328.278 243.639 335.061 227.001 342.931 211.379C351.064 206.447 357.071 200.355 360.79 193.268C364.17 186.825 365.541 179.612 364.753 172.409C363.077 157.071 351.984 143.441 337.15 138.494C329.332 135.887 320.831 135.826 312.566 138.32C303.238 141.134 294.291 147.059 285.974 155.929C280.727 161.649 275.881 168.698 271.15 177.489L271.145 177.499C263.776 191.486 257.167 208.195 250.17 225.884C238.602 255.13 226.64 285.371 209.616 307.702C209.472 307.891 209.383 308.116 209.361 308.353C209.338 308.59 209.382 308.828 209.487 309.041C209.593 309.254 209.756 309.434 209.958 309.559C210.16 309.684 210.393 309.751 210.631 309.751ZM298.503 307.199H213.178C229.603 284.819 241.26 255.349 252.544 226.822C259.514 209.201 266.098 192.555 273.401 178.691C278.03 170.092 282.755 163.213 287.846 157.663C308.304 135.843 327.012 137.802 336.342 140.914C350.248 145.551 360.646 158.32 362.215 172.686C363.791 187.107 356.168 200.482 341.301 209.382C341.094 209.507 340.927 209.686 340.818 209.902C332.83 225.71 325.985 242.504 318.736 260.284C312.421 275.775 305.894 291.786 298.502 307.199H298.503Z" fill="#3375E0"/>
<path d="M313.188 139.465C322.515 136.589 335.634 136.412 344.261 136.434C352.888 136.455 403.686 144.492 403.686 144.492C413.606 146.308 432.978 148.641 449.679 159.865C454.098 162.834 437.853 191.783 437.297 220.302C436.39 266.831 428.231 304.287 420.417 309.923C394.354 328.722 302.192 323.888 284.635 298.677C284.635 298.677 292.135 232.774 302.624 194.649" fill="white"/>
<path d="M364.966 322.619C370.626 322.619 376.198 322.399 381.525 321.952C399.328 320.458 413.406 316.553 421.164 310.957C430.061 304.541 437.708 264.731 438.573 220.326C438.881 204.551 444.046 188.644 447.817 177.03C451.246 166.468 453.135 160.65 450.391 158.806C435.226 148.614 417.772 145.623 407.344 143.836C406.106 143.624 404.959 143.428 403.917 143.237C401.808 142.903 352.891 135.179 344.264 135.158C334.361 135.136 321.84 135.462 312.812 138.246C312.494 138.351 312.23 138.575 312.076 138.872C311.923 139.17 311.892 139.515 311.99 139.834C312.089 140.154 312.309 140.422 312.604 140.581C312.898 140.74 313.243 140.777 313.564 140.684C322.264 138.001 334.526 137.688 344.258 137.709C352.688 137.73 402.98 145.671 403.487 145.751C404.628 145.958 405.769 146.157 406.912 146.351C417.139 148.103 434.255 151.036 448.967 160.923C448.973 160.927 449.539 161.424 448.735 165.043C448.106 167.873 446.847 171.751 445.389 176.243C441.568 188.009 436.336 204.123 436.021 220.277C435.113 266.883 426.833 303.723 419.671 308.889C404.808 319.609 365.277 323.255 329.674 317.19C307.629 313.434 292.141 306.748 285.96 298.334C286.671 292.24 293.984 230.865 303.854 194.987C303.899 194.825 303.911 194.656 303.89 194.49C303.869 194.324 303.816 194.163 303.733 194.018C303.65 193.872 303.54 193.744 303.407 193.642C303.275 193.539 303.124 193.463 302.962 193.419C302.801 193.374 302.632 193.362 302.466 193.383C302.299 193.403 302.139 193.457 301.993 193.539C301.847 193.622 301.719 193.733 301.616 193.865C301.514 193.997 301.438 194.149 301.393 194.31C290.999 232.094 283.443 297.872 283.368 298.532C283.333 298.84 283.411 299.15 283.588 299.405C289.968 308.566 306.182 315.776 329.245 319.705C340.519 321.625 352.939 322.619 364.966 322.619Z" fill="#3375E0"/>
<path d="M284.637 299.952C284.95 299.952 285.252 299.836 285.486 299.628C285.719 299.419 285.868 299.132 285.904 298.821C285.978 298.163 293.512 232.579 303.854 194.987C303.899 194.825 303.911 194.657 303.89 194.49C303.869 194.324 303.816 194.164 303.733 194.018C303.65 193.873 303.54 193.745 303.407 193.642C303.275 193.539 303.124 193.463 302.962 193.419C302.8 193.374 302.632 193.362 302.465 193.383C302.299 193.404 302.138 193.457 301.993 193.54C301.847 193.623 301.719 193.733 301.616 193.865C301.513 193.998 301.438 194.149 301.393 194.31C290.998 232.094 283.442 297.873 283.367 298.532C283.347 298.711 283.365 298.892 283.419 299.063C283.474 299.235 283.564 299.393 283.684 299.527C283.804 299.661 283.951 299.768 284.115 299.842C284.279 299.915 284.457 299.953 284.637 299.952V299.952Z" fill="#3375E0"/>
<path d="M384.942 368.48C415.987 368.26 419.601 322.563 388.62 317.725C343.934 311.558 338.829 281.708 299.166 267.249C267.504 256.229 250.952 300.744 281.565 315.143C290.135 319.174 297.166 324.197 305.661 331.527C321.038 345.259 345.806 364.882 384.942 368.481V368.48Z" fill="white"/>
<path d="M384.942 369.756H384.951C392.538 369.702 399.092 367.022 403.906 362.005C408.198 357.532 410.83 351.453 411.317 344.887C411.803 338.328 410.095 331.943 406.509 326.909C402.48 321.255 396.363 317.643 388.817 316.465C364.092 313.052 351.668 302.296 338.516 290.907C328.05 281.845 317.228 272.475 299.604 266.05C292.076 263.43 284.821 263.659 278.602 266.707C273.058 269.424 268.639 274.264 266.16 280.335C263.557 286.711 263.351 293.7 265.582 300.014C268.083 307.092 273.421 312.723 281.022 316.297C288.884 319.995 295.781 324.687 304.827 332.492C312.283 339.151 322.555 347.733 335.782 354.924C350.934 363.164 367.435 368.152 384.826 369.751C384.864 369.754 384.903 369.756 384.942 369.756L384.942 369.756ZM289.429 266.78C292.317 266.78 295.431 267.299 298.747 268.453C315.912 274.711 326.553 283.925 336.844 292.835C350.291 304.479 362.992 315.476 388.446 318.989C403.62 321.359 409.593 333.61 408.771 344.699C407.975 355.448 400.195 367.066 384.996 367.204C347.952 363.781 323.596 345.832 306.511 330.575C297.261 322.593 290.195 317.792 282.108 313.988C266.585 306.687 264.185 291.925 268.524 281.298C271.769 273.351 279.158 266.78 289.429 266.78L289.429 266.78Z" fill="#3375E0"/>
<path d="M413.529 230.869C425.448 250.446 421.905 284.334 412.205 298.167C408.808 302.866 404.976 305.613 396.789 305.579C388.691 305.579 378.248 302.924 365.743 297.686C346.24 289.517 327.685 300.011 319.512 319.503C311.338 338.995 315.527 356.381 332.209 365.959C353.107 377.959 378.22 382.374 396.786 382.113C495.625 380.727 522.971 277.471 485.283 202.838C477.28 186.137 464.53 168.823 449.679 159.865" fill="white"/>
<path d="M395.136 383.401C395.694 383.401 396.248 383.397 396.804 383.389C417.197 383.103 435.4 378.508 450.907 369.732C465.242 361.62 476.972 350.144 485.773 335.625C496.852 317.348 502.734 295.031 502.786 271.085C502.837 247.36 497.179 223.562 486.423 202.263C482.19 193.43 476.869 184.911 471.045 177.65C464.46 169.44 457.493 163.088 450.339 158.772C450.196 158.684 450.036 158.625 449.869 158.598C449.703 158.571 449.532 158.578 449.368 158.618C449.205 158.657 449.05 158.729 448.914 158.829C448.778 158.928 448.663 159.054 448.576 159.198C448.488 159.343 448.431 159.503 448.406 159.67C448.381 159.836 448.389 160.006 448.431 160.17C448.472 160.333 448.545 160.487 448.646 160.622C448.748 160.757 448.874 160.871 449.02 160.956C462.037 168.809 475.163 184.671 484.133 203.389C505.895 246.486 505.678 297.864 483.591 334.303C470.952 355.153 445.631 380.152 396.769 380.838C374.72 381.151 350.817 375.172 332.846 364.853C316.985 355.746 312.554 339.396 320.689 319.995C324.63 310.597 331.115 303.27 338.949 299.362C347.161 295.267 356.255 295.094 365.25 298.862C377.911 304.165 388.522 306.854 396.79 306.854C405.663 306.886 409.776 303.706 413.241 298.913C418.26 291.754 421.624 279.73 422.249 266.733C422.939 252.392 420.23 239.419 414.62 230.205C414.533 230.062 414.418 229.937 414.283 229.838C414.148 229.739 413.994 229.668 413.832 229.628C413.669 229.589 413.5 229.581 413.334 229.607C413.168 229.633 413.009 229.691 412.866 229.778C412.577 229.954 412.37 230.237 412.29 230.566C412.21 230.895 412.263 231.242 412.439 231.531C424.552 251.428 420.084 284.708 411.161 297.434C408.101 301.667 404.641 304.303 396.935 304.303H396.795C388.863 304.303 378.583 301.681 366.237 296.51C356.537 292.446 346.706 292.643 337.81 297.08C329.429 301.26 322.512 309.048 318.335 319.01C314.174 328.933 313.127 338.534 315.307 346.774C317.541 355.221 323.166 362.237 331.575 367.065C349.472 377.341 373.111 383.4 395.136 383.4L395.136 383.401Z" fill="#3375E0"/>
<path d="M299.166 267.249C287.094 262.39 277.696 263.071 270.193 267.856C264.194 271.682 260.182 280.754 266.254 281.973C272.327 283.191 277.131 284.232 282.327 283.628" fill="white"/>
<path d="M279.189 285.082C280.272 285.082 281.361 285.024 282.476 284.894C282.812 284.855 283.119 284.684 283.329 284.419C283.539 284.153 283.635 283.816 283.596 283.48C283.556 283.144 283.385 282.837 283.12 282.627C282.854 282.417 282.516 282.321 282.18 282.36C277.408 282.915 272.94 282.016 267.284 280.878L266.506 280.722C265.003 280.42 264.68 279.59 264.568 278.991C264.102 276.498 266.757 271.561 270.88 268.932C278.443 264.107 287.54 263.944 298.69 268.432C299.003 268.557 299.354 268.553 299.665 268.42C299.975 268.288 300.22 268.037 300.347 267.724C300.473 267.411 300.47 267.06 300.338 266.75C300.206 266.439 299.956 266.193 299.643 266.066C287.673 261.248 277.815 261.482 269.507 266.781C264.751 269.814 261.341 275.621 262.059 279.46C262.432 281.451 263.833 282.788 266.004 283.223L266.779 283.379C271.392 284.307 275.244 285.082 279.189 285.082Z" fill="#3375E0"/>
<path d="M288.183 278.763C280.657 275.686 270.556 274.234 265.579 280.632C261.155 286.319 260.104 294.665 263.531 296.832C267.165 299.131 281.919 298.123 281.919 298.123" fill="white"/>
<path d="M274.969 299.627C278.402 299.627 281.336 299.441 282.006 299.396C282.341 299.369 282.652 299.212 282.872 298.958C283.092 298.703 283.202 298.372 283.179 298.037C283.156 297.702 283.002 297.389 282.75 297.167C282.497 296.945 282.168 296.831 281.832 296.851C276.288 297.229 266.602 297.266 264.213 295.755C263.386 295.231 263.04 294.136 262.896 293.309C262.389 290.407 263.494 285.39 266.586 281.416C270.983 275.764 280.376 276.95 287.7 279.944C287.855 280.009 288.022 280.043 288.191 280.043C288.359 280.044 288.526 280.011 288.682 279.946C288.838 279.882 288.98 279.787 289.099 279.668C289.218 279.548 289.312 279.407 289.376 279.251C289.44 279.095 289.472 278.928 289.471 278.759C289.47 278.591 289.435 278.424 289.369 278.269C289.303 278.114 289.207 277.973 289.086 277.855C288.966 277.738 288.823 277.645 288.666 277.582C284.691 275.957 271.207 271.32 264.571 279.85C261.389 283.939 259.666 289.655 260.381 293.748C260.715 295.662 261.568 297.101 262.848 297.911C265.051 299.305 270.443 299.628 274.968 299.628L274.969 299.627Z" fill="#3375E0"/>
<path d="M286.209 294.783C279.354 292.403 267.868 288.336 262.033 296.016C256.954 302.699 258.546 308.248 258.546 308.248C268.887 308.248 272.26 310.774 281.565 315.143" fill="white"/>
<path d="M281.564 316.418C281.854 316.419 282.136 316.32 282.363 316.139C282.589 315.957 282.747 315.704 282.81 315.421C282.874 315.138 282.839 314.842 282.711 314.581C282.583 314.321 282.37 314.111 282.107 313.988C280.721 313.337 279.488 312.738 278.296 312.158C271.914 309.055 267.959 307.132 259.622 306.982C259.452 305.273 259.571 301.364 263.049 296.787C268.278 289.906 279.136 293.677 285.624 295.93L285.79 295.988C285.949 296.044 286.117 296.068 286.284 296.058C286.452 296.049 286.617 296.007 286.768 295.934C286.919 295.861 287.055 295.759 287.167 295.633C287.278 295.508 287.364 295.362 287.42 295.203C287.475 295.045 287.498 294.877 287.488 294.709C287.478 294.541 287.435 294.377 287.361 294.226C287.288 294.075 287.185 293.94 287.059 293.829C286.933 293.718 286.787 293.632 286.628 293.578L286.461 293.52C279.319 291.04 267.365 286.89 261.016 295.244C255.612 302.355 257.246 308.348 257.318 308.6C257.395 308.866 257.556 309.1 257.777 309.267C257.999 309.433 258.268 309.524 258.545 309.524C267.043 309.524 270.643 311.274 277.179 314.452C278.379 315.036 279.619 315.639 281.022 316.298C281.191 316.377 281.376 316.419 281.564 316.419L281.564 316.418Z" fill="#3375E0"/>
<path d="M345.929 168.825C332.385 158.828 317.074 133.413 346.525 121.229C376.24 108.936 443.368 128.572 427.498 149.461C413.167 168.325 375.43 174.017 356.743 170.644" fill="white"/>
<path d="M368.337 172.842C376.446 172.842 385.543 171.739 394.062 169.629C409.724 165.749 421.96 158.861 428.514 150.233C432.13 145.473 432.06 140.388 428.31 135.528C422.739 128.307 408.672 121.733 391.6 118.37C373.996 114.903 356.962 115.531 346.036 120.051C335.427 124.44 329.537 130.835 328.53 139.058C327.101 150.722 336.154 163.197 345.171 169.852C345.305 169.954 345.459 170.028 345.623 170.07C345.786 170.112 345.956 170.122 346.123 170.097C346.291 170.073 346.451 170.016 346.596 169.93C346.741 169.843 346.868 169.729 346.968 169.593C347.068 169.457 347.141 169.303 347.181 169.139C347.221 168.975 347.228 168.804 347.202 168.638C347.176 168.471 347.117 168.311 347.029 168.167C346.94 168.023 346.824 167.898 346.687 167.8C337.979 161.373 329.817 149.543 331.063 139.368C331.95 132.126 337.317 126.42 347.013 122.408C370.396 112.734 415.576 123.203 426.288 137.086C429.342 141.045 429.406 144.84 426.481 148.69C412.923 166.536 376.256 172.871 356.97 169.39C356.637 169.329 356.294 169.404 356.016 169.597C355.738 169.79 355.548 170.085 355.487 170.418C355.427 170.751 355.502 171.094 355.695 171.372C355.888 171.65 356.184 171.84 356.517 171.9C360.023 172.533 364.042 172.842 368.337 172.842V172.842Z" fill="#3375E0"/>
<path d="M352.252 141.574C348.219 146.417 348.915 162.093 356.464 163.303C366.992 164.99 390.234 161.615 399.252 147.406L403.687 111.709L356.686 105.877L352.252 141.574Z" fill="white"/>
<path d="M362.048 164.976C367.301 164.976 373.368 164.12 378.782 162.54C385.711 160.517 395.075 156.368 400.33 148.089C400.431 147.929 400.495 147.75 400.519 147.563L404.953 111.865C404.973 111.699 404.961 111.531 404.917 111.369C404.872 111.208 404.796 111.056 404.693 110.924C404.59 110.792 404.462 110.682 404.316 110.599C404.171 110.516 404.01 110.463 403.844 110.442L356.843 104.611C356.677 104.59 356.508 104.602 356.346 104.647C356.185 104.691 356.034 104.767 355.901 104.87C355.769 104.973 355.659 105.101 355.576 105.247C355.493 105.393 355.44 105.553 355.419 105.719L351.029 141.066C348.273 144.77 347.688 152.704 349.813 158.365C351.161 161.959 353.391 164.102 356.261 164.562C358 164.841 359.96 164.976 362.048 164.976H362.048ZM398.021 146.96C389.076 160.678 366.356 163.597 356.666 162.043C354.25 161.656 352.906 159.342 352.203 157.47C350.362 152.564 350.863 145.235 353.233 142.39C353.389 142.202 353.489 141.973 353.519 141.731L357.796 107.299L402.263 112.817L398.022 146.96L398.021 146.96ZM404.104 13.9221C391.307 1.82328 364.133 -4.83107 342.507 13.842C320.507 32.8385 323.255 50.724 311.7 58.3809C302.425 64.5276 278.478 84.0534 297.167 101.286C296.52 92.2723 301.217 84.3353 306.925 80.9532C306.925 80.9532 302.824 103.569 318.894 105.827C359.354 111.512 380.262 55.2073 379.235 20.2493L404.104 13.9221Z" fill="#3375E0"/>
<path d="M324.566 107.507C334.526 107.507 343.728 103.781 351.987 96.3901C363.444 86.138 370.199 71.3876 373.849 60.8191C378.325 47.8596 380.744 33.5005 380.535 21.2349L404.419 15.1584C404.64 15.1022 404.842 14.9876 405.005 14.8266C405.167 14.6656 405.282 14.4641 405.34 14.2431C405.397 14.022 405.394 13.7896 405.331 13.5702C405.268 13.3507 405.147 13.1521 404.981 12.9953C392.405 1.106 364.45 -6.79075 341.673 12.8767C329.055 23.772 324.441 34.2993 320.733 42.7579C317.934 49.1416 315.725 54.1836 310.995 57.3177C306.113 60.5528 290.101 72.1701 289.007 85.8372C288.529 91.8063 290.983 97.3196 296.301 102.223C296.489 102.397 296.725 102.51 296.978 102.548C297.231 102.586 297.49 102.547 297.72 102.436C297.951 102.325 298.143 102.147 298.271 101.926C298.399 101.704 298.458 101.45 298.439 101.195C297.892 93.5656 301.31 87.2378 305.306 83.7156C304.962 87.9895 304.991 95.9117 308.972 101.416C311.271 104.596 314.55 106.504 318.716 107.09C320.653 107.365 322.608 107.504 324.565 107.506L324.566 107.507ZM401.445 13.2823L378.92 19.0128C378.639 19.0843 378.391 19.2495 378.216 19.481C378.041 19.7125 377.951 19.9966 377.959 20.2865C378.646 43.6381 369.179 77.5805 350.284 94.4895C341.017 102.782 330.516 106.171 319.072 104.564C315.623 104.079 312.922 102.519 311.045 99.9269C306.105 93.1048 308.16 81.2981 308.181 81.1795C308.225 80.9388 308.198 80.6906 308.105 80.4645C308.011 80.2384 307.855 80.044 307.654 79.9044C307.453 79.7648 307.216 79.686 306.971 79.6773C306.727 79.6686 306.485 79.7305 306.274 79.8555C301.369 82.7622 296.393 89.524 295.874 98.122C292.661 94.3779 291.208 90.325 291.551 86.0404C292.579 73.1985 309.104 61.632 312.405 59.444C317.761 55.8951 320.222 50.2816 323.071 43.7819C326.676 35.5586 331.161 25.3247 343.342 14.8073C363.894 -2.93948 388.857 2.97185 401.445 13.2823H401.445Z" fill="#3375E0"/>
<path d="M403.131 117.656C413.204 109.64 421.241 98.637 426.374 84.8538C439.575 49.4079 402.93 0.179348 362.216 16.8897C332.398 29.1279 312.612 72.909 315.468 97.9237C318.13 121.249 341.399 135.497 365.526 132.806C368.811 132.442 372.071 131.874 375.285 131.104" fill="white"/>
<path d="M359.614 134.412C361.62 134.412 363.64 134.3 365.667 134.074C369.005 133.703 372.317 133.126 375.583 132.344C375.906 132.26 376.184 132.052 376.355 131.766C376.527 131.479 376.579 131.137 376.501 130.812C376.423 130.487 376.221 130.206 375.938 130.029C375.655 129.852 375.313 129.792 374.987 129.864C371.824 130.62 368.617 131.179 365.384 131.538C340.578 134.303 319.212 119.475 316.735 97.7789C315.346 85.6036 319.553 68.5278 327.715 53.2152C336.862 36.0568 349.286 23.575 362.7 18.0696C379.043 11.362 396.258 15.0947 409.93 28.3115C425.575 43.4357 431.845 66.5038 425.177 84.409C420.235 97.6794 412.55 108.53 402.335 116.658C402.202 116.762 402.092 116.891 402.009 117.037C401.926 117.184 401.874 117.346 401.854 117.513C401.834 117.68 401.848 117.85 401.894 118.012C401.94 118.174 402.018 118.325 402.123 118.457C402.228 118.589 402.358 118.698 402.505 118.78C402.653 118.861 402.815 118.912 402.983 118.93C403.15 118.949 403.32 118.934 403.481 118.886C403.643 118.839 403.794 118.76 403.925 118.654C414.507 110.232 422.463 99.0102 427.569 85.299C434.58 66.4732 428.056 42.2851 411.704 26.4779C405.037 20.033 397.204 15.5539 389.052 13.5247C379.966 11.2625 370.774 11.9979 361.73 15.7098C347.767 21.4403 334.887 34.3341 325.462 52.0158C317.069 67.7605 312.753 85.4065 314.198 98.0685C315.503 109.493 321.731 119.477 331.736 126.181C339.776 131.568 349.5 134.412 359.613 134.412H359.614Z" fill="#3375E0"/>
<path d="M379.235 20.2489L404.104 13.9221C391.307 1.82328 364.133 -4.83107 342.507 13.842" fill="#3375E0"/>
<path d="M379.234 21.5251C379.338 21.5251 379.444 21.512 379.549 21.4852L404.418 15.1584C404.64 15.1022 404.842 14.9876 405.004 14.8266C405.166 14.6656 405.282 14.4641 405.339 14.2431C405.397 14.022 405.394 13.7896 405.331 13.5702C405.268 13.3507 405.147 13.1521 404.981 12.9953C392.405 1.106 364.45 -6.79075 341.673 12.8767C341.546 12.9862 341.442 13.1196 341.367 13.2693C341.291 13.419 341.246 13.5821 341.234 13.7492C341.222 13.9163 341.243 14.0841 341.296 14.2431C341.348 14.4022 341.432 14.5493 341.541 14.676C341.651 14.8028 341.784 14.9067 341.934 14.9819C342.084 15.0571 342.247 15.1021 342.414 15.1143C342.582 15.1265 342.749 15.1056 342.909 15.053C343.068 15.0003 343.215 14.9168 343.342 14.8073C363.894 -2.93948 388.857 2.97185 401.445 13.2823L378.92 19.0128C378.618 19.0893 378.355 19.2732 378.18 19.53C378.005 19.7867 377.929 20.0986 377.968 20.4071C378.006 20.7156 378.156 20.9994 378.389 21.2052C378.622 21.411 378.922 21.5246 379.234 21.5247L379.234 21.5251Z" fill="#3375E0"/>
<path d="M409.765 96.0159C404.098 95.0937 408.8 85.2571 405.156 73.2919C401.513 61.3267 395.401 29.9817 379.235 20.2494C379.235 20.2494 390.874 14.3684 404.104 13.9226C410.914 13.693 435.365 19.9257 442.172 43.2034C450.975 73.3091 441.512 77.9768 449.82 97.2877C462.04 125.691 440.344 151.329 417.453 140.216C417.453 140.216 393.596 146.279 385.584 132.642C398.52 130.782 401.799 122.466 403.89 115.149C407.48 102.589 409.765 96.0163 409.765 96.0163V96.0159Z" fill="#3375E0"/>
<path d="M428.483 144.142C434.577 144.143 440.402 141.813 445.164 137.267C449.753 132.888 452.925 126.717 454.097 119.892C455.372 112.46 454.299 104.47 450.993 96.7839C447.043 87.6039 447.219 81.9636 447.442 74.8226C447.682 67.1383 447.954 58.4287 443.397 42.8456C436.516 19.3148 411.811 12.3865 404.061 12.6477C390.703 13.098 379.145 18.8658 378.66 19.111C378.456 19.2137 378.284 19.3692 378.16 19.5611C378.037 19.753 377.968 19.9744 377.96 20.2022C377.951 20.43 378.004 20.656 378.113 20.8564C378.221 21.0569 378.382 21.2246 378.577 21.342C391.906 29.3666 398.298 53.0231 402.117 67.1574C402.8 69.6862 403.39 71.87 403.936 73.6635C405.512 78.8413 405.47 83.6314 405.435 87.4805C405.397 91.7409 405.363 95.4946 408.14 96.8422C407.319 99.313 405.344 105.42 402.664 114.798C400.537 122.238 397.453 129.646 385.403 131.379C385.195 131.409 384.999 131.489 384.83 131.613C384.661 131.737 384.525 131.9 384.434 132.089C384.343 132.277 384.3 132.485 384.309 132.695C384.318 132.904 384.378 133.107 384.484 133.288C392.353 146.684 413.802 142.371 417.313 141.562C421.016 143.291 424.799 144.143 428.483 144.143L428.483 144.142ZM404.494 15.1915C407.855 15.1915 415.119 16.6587 422.508 20.8566C428.963 24.5233 437.402 31.4388 440.947 43.5612C445.39 58.7549 445.124 67.2489 444.89 74.7432C444.667 81.9056 444.473 88.0912 448.647 97.7916C454.691 111.841 452.632 126.612 443.401 135.423C436.455 142.052 426.963 143.415 418.011 139.069C417.74 138.937 417.431 138.906 417.139 138.98C416.92 139.035 396.069 144.162 387.746 133.555C400.741 130.813 403.566 120.927 405.118 115.499C408.654 103.127 410.948 96.5001 410.97 96.4347C411.032 96.2589 411.054 96.0719 411.035 95.8867C411.016 95.7015 410.957 95.5226 410.862 95.3627C410.766 95.2029 410.637 95.0658 410.483 94.9612C410.329 94.8566 410.154 94.787 409.97 94.7573C408.092 94.4518 407.941 92.6306 407.987 87.5034C408.023 83.4803 408.068 78.4733 406.378 72.9208C405.843 71.1659 405.258 69.0003 404.58 66.4925C400.846 52.6694 394.713 29.9713 381.847 20.4647C385.703 18.8189 394.549 15.5212 404.147 15.1976C404.263 15.1938 404.378 15.1916 404.494 15.1915Z" fill="#3375E0"/>
<path d="M379.236 21.5249C379.436 21.5249 379.633 21.478 379.811 21.3878C379.924 21.3304 391.369 15.6277 404.147 15.1971C404.314 15.1915 404.479 15.153 404.632 15.0838C404.784 15.0145 404.922 14.9159 405.036 14.7935C405.151 14.6711 405.24 14.5274 405.299 14.3706C405.358 14.2138 405.385 14.0469 405.379 13.8795C405.356 13.1754 404.762 12.6183 404.061 12.6476C390.702 13.0979 379.144 18.8657 378.659 19.1109C378.403 19.2404 378.198 19.4524 378.077 19.7128C377.956 19.9731 377.927 20.2666 377.993 20.5457C378.06 20.8248 378.219 21.0733 378.444 21.251C378.67 21.4287 378.949 21.5252 379.236 21.5249ZM404.651 97.9139C408.895 92.9006 416.22 91.3977 422.198 94.6877C429.015 98.4398 431.498 107.005 427.744 113.818C423.99 120.632 415.42 123.114 408.603 119.362C406.284 118.09 404.373 116.19 403.088 113.879" fill="white"/>
<path d="M415.375 122.382C420.8 122.383 426.065 119.51 428.862 114.434C432.95 107.015 430.236 97.6559 422.813 93.5706C416.426 90.0557 408.379 91.5363 403.676 97.0902C403.464 97.3492 403.362 97.6813 403.392 98.0148C403.423 98.3483 403.583 98.6565 403.839 98.8728C404.095 99.0891 404.425 99.1962 404.759 99.171C405.094 99.1459 405.404 98.9904 405.625 98.7382C409.546 94.1076 416.256 92.8741 421.582 95.8054C427.772 99.2121 430.035 107.017 426.626 113.204C423.217 119.39 415.408 121.652 409.219 118.245C407.111 117.088 405.373 115.36 404.203 113.26C404.124 113.111 404.015 112.979 403.884 112.872C403.752 112.765 403.601 112.685 403.438 112.637C403.276 112.589 403.105 112.574 402.937 112.593C402.769 112.611 402.606 112.663 402.458 112.745C402.309 112.828 402.179 112.939 402.074 113.072C401.97 113.205 401.892 113.357 401.847 113.521C401.802 113.684 401.79 113.854 401.811 114.022C401.833 114.19 401.888 114.352 401.973 114.499C403.375 117.018 405.459 119.091 407.988 120.479C410.249 121.728 412.791 122.382 415.375 122.382V122.382ZM375.171 77.97C371.917 74.9459 368.22 72.9866 363.652 70.8274C360.723 69.4431 361.727 65.9643 366.585 65.4933C371.151 65.0506 378.488 69.3669 379.838 73.892C381.247 78.6129 377.826 80.4382 375.171 77.97Z" fill="#3375E0"/>
<path d="M377.642 80.3465C378.319 80.3465 378.975 80.1688 379.56 79.8056C380.937 78.9513 382.054 76.8533 381.061 73.5269C379.49 68.2598 371.374 63.7452 366.462 64.2232C362.711 64.5867 361.07 66.4682 360.784 68.1076C360.508 69.689 361.398 71.1732 363.106 71.9806C367.934 74.2626 371.314 76.1269 374.302 78.9041C375.322 79.8528 376.512 80.3465 377.642 80.3465ZM367.261 66.7367C371.205 66.7367 377.46 70.3842 378.615 74.2562C379.198 76.2075 378.763 77.2978 378.214 77.6384C377.659 77.9835 376.805 77.7468 376.04 77.0354C372.811 74.0333 369.252 72.0629 364.198 69.6737C363.893 69.5299 363.196 69.1319 363.299 68.5452C363.402 67.9514 364.396 66.9864 366.709 66.7622C366.893 66.7448 367.077 66.7362 367.261 66.7364L367.261 66.7367ZM344.497 62.6782C340.352 61.0802 336.19 60.636 331.146 60.3298C327.912 60.1337 327.55 56.5309 331.884 54.2878C335.958 52.1796 344.375 53.459 347.312 57.1578C350.376 61.0164 347.881 63.9824 344.497 62.6782Z" fill="#3375E0"/>
<path d="M346.065 64.2638C347.372 64.2638 348.527 63.7396 349.255 62.7507C350.214 61.4461 350.471 59.0834 348.312 56.3645C344.893 52.0595 335.679 50.8872 331.298 53.1549C327.951 54.8868 327.127 57.2431 327.472 58.8713C327.805 60.4419 329.183 61.4888 331.069 61.603C336.4 61.9267 340.231 62.4009 344.037 63.8681C344.728 64.1344 345.415 64.2638 346.065 64.2638H346.065ZM344.956 61.4879C340.841 59.9017 336.805 59.3953 331.223 59.0563C330.887 59.0359 330.093 58.9256 329.969 58.3429C329.844 57.753 330.408 56.4883 332.471 55.4203C335.936 53.6271 343.678 54.6336 346.313 57.9507C347.579 59.5455 347.582 60.719 347.198 61.2395C346.811 61.7656 345.932 61.8632 344.956 61.4879Z" fill="#3375E0"/>
<path d="M363.1 84.1278C361.61 83.5541 360.956 81.6517 361.639 79.8785C362.323 78.1053 364.085 77.1329 365.575 77.7065C367.065 78.2801 367.719 80.1826 367.036 81.9558C366.352 83.7289 364.59 84.7014 363.1 84.1278Z" fill="#3375E0"/>
<path d="M334.546 73.827C333.056 73.2534 332.402 71.3509 333.085 69.5777C333.769 67.8045 335.53 66.8321 337.021 67.4057C338.511 67.9793 339.165 69.8818 338.482 71.655C337.798 73.4282 336.036 74.4006 334.546 73.827Z" fill="#3375E0"/>
<path d="M359.848 107.079C364.413 107.079 368.401 104.869 370.704 101.763C370.902 101.491 370.985 101.152 370.934 100.819C370.883 100.486 370.702 100.187 370.432 99.9869C370.161 99.7866 369.822 99.7013 369.489 99.7495C369.156 99.7977 368.855 99.9756 368.653 100.244C365.802 104.09 359.706 106.212 353.573 102.826C353.426 102.745 353.265 102.693 353.098 102.675C352.932 102.656 352.763 102.67 352.602 102.716C352.441 102.763 352.291 102.84 352.16 102.945C352.029 103.049 351.919 103.179 351.838 103.325C351.757 103.472 351.706 103.633 351.687 103.799C351.668 103.966 351.683 104.134 351.729 104.295C351.775 104.456 351.853 104.607 351.958 104.738C352.062 104.869 352.191 104.978 352.338 105.059C354.892 106.469 357.45 107.079 359.847 107.079L359.848 107.079ZM411.114 111.476C411.28 111.476 411.444 111.444 411.598 111.38L420.238 107.838C420.551 107.71 420.8 107.463 420.931 107.15C421.061 106.838 421.063 106.487 420.935 106.174C420.871 106.019 420.777 105.878 420.659 105.759C420.541 105.64 420.401 105.546 420.246 105.481C420.092 105.417 419.926 105.383 419.758 105.382C419.591 105.382 419.424 105.414 419.269 105.478L410.629 109.02C410.356 109.133 410.131 109.336 409.991 109.596C409.851 109.857 409.806 110.157 409.863 110.447C409.92 110.737 410.076 110.997 410.304 111.185C410.532 111.373 410.819 111.476 411.114 111.476Z" fill="#3375E0"/>
<path d="M417.001 114.716C417.201 114.716 417.397 114.67 417.576 114.58C417.754 114.49 417.908 114.36 418.027 114.2C418.146 114.04 418.225 113.854 418.259 113.657C418.293 113.461 418.28 113.259 418.222 113.068L415.18 103.097C415.131 102.936 415.051 102.787 414.944 102.658C414.838 102.529 414.707 102.422 414.559 102.343C414.411 102.264 414.249 102.215 414.082 102.199C413.915 102.183 413.747 102.2 413.587 102.249C413.426 102.297 413.277 102.377 413.148 102.484C413.018 102.59 412.911 102.721 412.832 102.869C412.754 103.017 412.705 103.179 412.689 103.346C412.672 103.512 412.689 103.681 412.738 103.841L415.781 113.813C415.861 114.074 416.022 114.303 416.242 114.466C416.462 114.628 416.728 114.716 417.001 114.716ZM393.457 29.6206C405.381 31.746 412.377 46.0331 408.951 62.7064C406.425 75.0049 387.698 69.7333 388.371 56.7747C388.784 48.7979 386.439 37.0314 386.439 37.0314C386.439 37.0314 381.3 48.9408 377.881 51.6396C371.818 56.4261 351.869 46.4272 351.506 40.043C351.265 35.81 357.969 26.2467 357.969 26.2467C357.969 26.2467 344.313 38.1765 340.085 39.2885C335.643 40.4566 330.379 35.8068 334.152 28.5093C340.095 17.016 358.918 5.92363 365.86 17.2201C378.874 14.5774 388.934 17.1831 393.456 29.6203L393.457 29.6206Z" fill="#3375E0"/>
<path d="M400.651 70.9446C405.509 70.9446 409.179 67.9399 410.202 62.9636C412.232 53.0805 410.775 43.5494 406.206 36.814C403.217 32.4092 399.148 29.5496 394.402 28.5085C390.022 17.264 380.868 13.1034 366.452 15.8057C364.203 12.661 360.85 11.0873 356.706 11.2385C348.384 11.5456 337.537 19.1866 333.019 27.9242C331.035 31.7605 331.106 35.468 333.213 38.0957C334.95 40.2629 337.776 41.2151 340.41 40.5228C343.011 39.8387 348.488 35.7285 352.817 32.2334C351.362 35.0014 350.113 38.0322 350.232 40.1162C350.465 44.2114 356.571 48.7429 362.519 51.4171C365.165 52.6069 374.151 56.212 378.673 52.6413C381.069 50.7503 384.033 45.1553 385.885 41.3034C386.529 45.4006 387.349 51.8275 387.096 56.7095C386.689 64.5466 392.861 70.0494 399.062 70.8416C399.604 70.9108 400.135 70.9446 400.651 70.9446ZM374.344 17.5541C383.42 17.5541 389.195 21.6344 392.257 30.0567C392.334 30.2669 392.464 30.4532 392.636 30.5972C392.807 30.7411 393.013 30.8376 393.233 30.8769C397.594 31.6543 401.35 34.2023 404.093 38.2459C408.279 44.4152 409.594 53.2374 407.702 62.4502C406.416 68.7097 401.011 68.5191 399.386 68.3105C394.339 67.6657 389.316 63.1993 389.645 56.8409C390.063 48.7974 387.788 37.2691 387.691 36.7825C387.638 36.5156 387.501 36.2728 387.3 36.0894C387.099 35.906 386.845 35.7916 386.574 35.763C386.303 35.7344 386.03 35.7931 385.795 35.9304C385.56 36.0677 385.376 36.2766 385.268 36.5264C383.873 39.7571 379.686 48.5905 377.091 50.639C374.903 52.3661 369.468 51.7433 363.566 49.0898C357.658 46.4335 352.92 42.4278 352.78 39.9708C352.623 37.212 356.521 30.5376 359.015 26.9787C359.194 26.7234 359.274 26.4112 359.239 26.1012C359.203 25.7912 359.055 25.5049 358.823 25.2965C358.591 25.088 358.29 24.9719 357.978 24.97C357.666 24.9681 357.364 25.0807 357.129 25.2864C351.73 30.0028 342.649 37.2952 339.76 38.0548C338.101 38.4905 336.312 37.8814 335.204 36.4996C333.757 34.694 333.787 31.9952 335.286 29.0949C339.361 21.2128 349.415 14.06 356.8 13.7874C360.332 13.6573 363.02 15.0365 364.772 17.8877C364.909 18.1105 365.111 18.2859 365.351 18.3901C365.591 18.4943 365.857 18.5223 366.114 18.4703C369.114 17.8612 371.853 17.5538 374.344 17.5538L374.344 17.5541Z" fill="#3375E0"/>
<path d="M404.576 70.0666C404.772 70.0666 404.964 70.0217 405.139 69.9353C406.981 69.0293 409.355 67.0847 410.202 62.9633C412.232 53.0805 410.776 43.5494 406.206 36.814C403.217 32.4092 399.148 29.5496 394.402 28.5085C390.022 17.264 380.869 13.1034 366.452 15.8057C364.203 12.661 360.851 11.0873 356.707 11.2385C348.384 11.5456 337.537 19.1866 333.019 27.9242C330.057 33.6538 332.133 37.7733 334.811 39.5597C335.093 39.7396 335.434 39.8021 335.761 39.7335C336.088 39.665 336.375 39.471 336.561 39.1932C336.746 38.9154 336.815 38.5759 336.753 38.2477C336.691 37.9195 336.503 37.6287 336.228 37.4378C334.34 36.1778 333.1 33.3247 335.287 29.0955C339.362 21.2134 349.415 14.0607 356.801 13.788C360.333 13.6579 363.021 15.0371 364.773 17.8883C364.91 18.1111 365.112 18.2865 365.352 18.3907C365.592 18.4949 365.858 18.523 366.115 18.471C380.049 15.6417 388.355 19.324 392.258 30.057C392.334 30.2672 392.465 30.4536 392.636 30.5975C392.807 30.7415 393.013 30.8379 393.234 30.8772C397.595 31.6547 401.35 34.2026 404.094 38.2462C408.279 44.4155 409.595 53.2377 407.702 62.4505C407.197 64.9117 405.921 66.7084 404.013 67.6462C403.754 67.7734 403.546 67.9843 403.422 68.2448C403.299 68.5053 403.267 68.7999 403.333 69.0806C403.398 69.3613 403.557 69.6116 403.783 69.7907C404.009 69.9697 404.289 70.067 404.577 70.0666H404.576ZM417.452 141.491C417.528 141.491 417.605 141.485 417.683 141.471C428.209 139.553 432.577 129.198 432.758 128.758C432.881 128.446 432.876 128.099 432.744 127.79C432.613 127.482 432.365 127.238 432.055 127.111C431.745 126.984 431.398 126.984 431.087 127.11C430.777 127.237 430.529 127.48 430.397 127.788C430.358 127.881 426.357 137.297 417.224 138.961C416.911 139.018 416.631 139.19 416.438 139.444C416.245 139.697 416.154 140.013 416.182 140.33C416.211 140.647 416.357 140.942 416.592 141.157C416.827 141.372 417.133 141.491 417.452 141.491ZM331.052 286.213C331.01 302.576 322.113 317.032 300.752 327.375L315.799 340.095C335.982 333.014 346.081 317.032 345.302 298.343L331.052 286.213Z" fill="white"/>
<path d="M315.799 341.371C315.943 341.371 316.086 341.347 316.222 341.299C326.197 337.799 334.233 331.918 339.464 324.293C344.52 316.923 346.979 307.931 346.577 298.29C346.57 298.114 346.526 297.942 346.449 297.784C346.372 297.626 346.264 297.486 346.13 297.372L331.879 285.242C331.694 285.084 331.467 284.982 331.226 284.949C330.985 284.916 330.739 284.952 330.518 285.054C330.297 285.156 330.109 285.319 329.978 285.523C329.846 285.728 329.776 285.966 329.776 286.21C329.732 303.28 319.78 316.744 300.195 326.227C300.004 326.32 299.839 326.459 299.715 326.632C299.591 326.804 299.512 327.005 299.486 327.216C299.459 327.427 299.485 327.641 299.563 327.839C299.64 328.037 299.765 328.212 299.927 328.349L314.975 341.069C315.205 341.264 315.497 341.371 315.799 341.371ZM344.047 298.95C344.612 317.52 334.448 331.933 316.062 338.647L303.057 327.654C321.441 318.265 331.245 305.245 332.243 288.903L344.047 298.95Z" fill="#3375E0"/>
</g>
<g clip-path="url(#clip4_6836_2343)">
<path d="M52.6037 306.375H278.3C279.68 306.375 280.799 307.494 280.799 308.873V312.058C280.799 313.438 279.68 314.556 278.3 314.556H52.6037C51.2232 314.556 50.1042 313.438 50.1042 312.058V308.873C50.1042 307.494 51.2232 306.375 52.6037 306.375Z" fill="#3375E0"/>
<path d="M52.6038 315.83H278.3C280.381 315.83 282.075 314.138 282.075 312.058V308.873C282.075 306.793 280.381 305.101 278.3 305.101H52.6038C50.5226 305.101 48.829 306.793 48.829 308.873V312.058C48.829 314.138 50.5226 315.83 52.6038 315.83ZM278.3 307.65C278.624 307.65 278.936 307.779 279.165 308.008C279.395 308.238 279.524 308.549 279.524 308.873V312.058C279.524 312.383 279.395 312.693 279.165 312.923C278.936 313.152 278.624 313.281 278.3 313.282H52.6038C52.2793 313.281 51.9681 313.152 51.7386 312.923C51.5091 312.693 51.38 312.383 51.3796 312.058V308.873C51.38 308.549 51.5091 308.238 51.7386 308.008C51.9681 307.779 52.2793 307.65 52.6038 307.65H278.3Z" fill="#3375E0"/>
<path d="M53.9771 309.29H198.405C203.642 309.29 206.181 305.18 204.076 300.11L165.852 208.039C163.747 202.968 157.796 198.858 152.559 198.858H8.13039C2.89351 198.858 0.354477 202.968 2.45929 208.039L40.6834 300.11C42.7883 305.18 48.7402 309.29 53.9771 309.29Z" fill="#3375E0"/>
<path d="M53.9778 310.564H198.406C201.294 310.564 203.62 309.463 204.956 307.463C206.35 305.378 206.458 302.52 205.255 299.621L167.031 207.55C164.711 201.962 158.354 197.584 152.559 197.584H8.13072C5.24321 197.584 2.91681 198.685 1.58034 200.685C0.187103 202.77 0.078064 205.628 1.2816 208.527L39.5058 300.598C41.8258 306.187 48.183 310.564 53.9778 310.564ZM152.559 200.133C157.318 200.133 162.753 203.898 164.675 208.527L202.899 300.598C203.783 302.728 203.76 304.663 202.835 306.048C201.987 307.317 200.414 308.016 198.406 308.016H53.9775C49.2185 308.016 43.7833 304.25 41.8615 299.621L3.63766 207.55C2.75391 205.421 2.77654 203.485 3.70174 202.101C4.54979 200.832 6.12283 200.133 8.13106 200.133H152.559Z" fill="#3375E0"/>
<path d="M53.9777 310.564H198.406C201.623 310.564 204.159 309.177 205.365 306.758C205.513 306.456 205.535 306.108 205.427 305.789C205.319 305.471 205.089 305.208 204.788 305.058C204.487 304.908 204.139 304.883 203.819 304.989C203.5 305.094 203.235 305.322 203.082 305.622C202.312 307.166 200.652 308.016 198.406 308.016H53.9777C52.8418 308.016 51.6408 307.797 50.4089 307.366C50.0897 307.254 49.7391 307.274 49.4343 307.42C49.1295 307.567 48.8954 307.829 48.7836 308.148C48.6718 308.467 48.6913 308.817 48.838 309.121C48.9846 309.426 49.2464 309.66 49.5656 309.772C51.0695 310.298 52.5539 310.565 53.9777 310.565V310.564Z" fill="white"/>
</g>
<defs>
<clipPath id="clip0_6836_2343">
<rect width="98.234" height="74.3722" fill="white" transform="matrix(-1 0 0 1 161.711 112.612)"/>
</clipPath>
<clipPath id="clip1_6836_2343">
<rect width="62.4409" height="37.9739" fill="white" transform="matrix(-1 0 0 1 143.736 126.163)"/>
</clipPath>
<clipPath id="clip2_6836_2343">
<rect width="15.2949" height="15.2841" fill="white" transform="translate(133.501 119.388)"/>
</clipPath>
<clipPath id="clip3_6836_2343">
<rect width="293.432" height="382.468" fill="white" transform="matrix(-1 0 0 1 502.786 0.932129)"/>
</clipPath>
<clipPath id="clip4_6836_2343">
<rect width="281.63" height="118.246" fill="white" transform="matrix(-1 0 0 1 282.075 197.584)"/>
</clipPath>
</defs>
</svg>
