<svg width="484" height="419" viewBox="0 0 484 419" fill="none" xmlns="http://www.w3.org/2000/svg">
<mask id="mask0_2088_4805" style="mask-type:luminance" maskUnits="userSpaceOnUse" x="296" y="102" width="136" height="90">
<path d="M296.895 102.44H431.228V191.012H296.895V102.44Z" fill="white"/>
</mask>
<g mask="url(#mask0_2088_4805)">
<mask id="mask1_2088_4805" style="mask-type:luminance" maskUnits="userSpaceOnUse" x="296" y="102" width="136" height="90">
<path d="M431.228 102.44H296.895V191.012H431.228V102.44Z" fill="white"/>
</mask>
<g mask="url(#mask1_2088_4805)">
<path d="M431.228 102.44H296.895V191.012H431.228V102.44Z" fill="white" stroke="#3375E0" stroke-width="16"/>
</g>
</g>
<mask id="mask2_2088_4805" style="mask-type:luminance" maskUnits="userSpaceOnUse" x="284" y="75" width="168" height="133">
<path d="M284.941 75.9639H451.993V207.658H284.941V75.9639Z" fill="white"/>
</mask>
<g mask="url(#mask2_2088_4805)">
<path d="M450.733 77.2256L414.794 88.2914L423.96 96.8296L363.197 162.318L331.936 148.53L286.201 197.822L295.407 206.396L335.055 163.665L366.315 177.453L433.166 105.404L442.333 113.942L450.733 77.2256Z" fill="#3375E0"/>
<path d="M295.406 207.658C295.099 207.658 294.792 207.547 294.549 207.321L285.343 198.747C285.099 198.519 284.954 198.203 284.942 197.868C284.93 197.533 285.051 197.208 285.278 196.963L331.013 147.672C331.378 147.278 331.953 147.16 332.443 147.376L362.884 160.802L422.18 96.895L413.936 89.2163C413.606 88.9093 413.465 88.4493 413.566 88.0098C413.666 87.5704 413.993 87.218 414.423 87.0858L450.363 76.0196C450.792 75.8871 451.261 75.9947 451.59 76.3017C451.92 76.6086 452.06 77.0686 451.96 77.5078L443.56 114.224C443.459 114.663 443.132 115.016 442.702 115.148C442.272 115.281 441.804 115.174 441.474 114.866L433.23 107.188L367.237 178.312C366.871 178.706 366.297 178.825 365.807 178.608L335.366 165.182L296.329 207.255C296.08 207.523 295.743 207.658 295.406 207.658L295.406 207.658ZM287.981 197.757L295.342 204.613L334.132 162.806C334.497 162.413 335.071 162.293 335.562 162.51L366.002 175.936L432.243 104.545C432.717 104.034 433.513 104.005 434.023 104.48L441.592 111.529L449.018 79.0739L417.249 88.8557L424.818 95.9053C425.062 96.1331 425.206 96.4492 425.218 96.7836C425.231 97.1184 425.11 97.4436 424.882 97.6891L364.118 163.178C363.753 163.572 363.179 163.69 362.688 163.474L332.248 150.048L287.981 197.757Z" fill="#3375E0"/>
</g>
<mask id="mask3_2088_4805" style="mask-type:luminance" maskUnits="userSpaceOnUse" x="36" y="24" width="352" height="398">
<path d="M36.0938 24.5859H387.499V421.444H36.0938V24.5859Z" fill="white"/>
</mask>
<g mask="url(#mask3_2088_4805)">
<path d="M159.793 325.107C151.226 342.639 150.328 420.181 150.328 420.181H305.18C305.18 420.181 303.282 337.101 290.52 324.134C277.757 311.167 168.662 306.954 159.792 325.107H159.793Z" fill="white"/>
<path d="M305.18 421.444H150.328C149.991 421.444 149.669 421.309 149.432 421.069C149.196 420.829 149.065 420.505 149.068 420.168C149.105 416.99 150.069 342.139 158.661 324.553C160.958 319.852 168.967 316.35 182.465 314.145C198.938 311.456 223.395 310.911 246.293 312.724C257.63 313.622 284.72 316.445 291.417 323.249C304.381 336.421 306.362 416.741 306.44 420.153C306.447 420.493 306.318 420.821 306.081 421.065C305.844 421.308 305.52 421.444 305.18 421.444V421.444ZM151.607 418.92H303.886C303.744 414.042 303.132 396.063 301.381 377.125C297.994 340.493 293.117 328.572 289.623 325.021C285.452 320.784 268.774 317.036 246.095 315.24C223.383 313.441 199.158 313.976 182.871 316.637C170.582 318.644 162.787 321.849 160.924 325.663C153.175 341.522 151.775 408.777 151.607 418.92H151.607Z" fill="#3375E0"/>
<path d="M251.982 170.184C262.851 171.605 293.308 174.938 297.62 181.65C301.933 188.362 286.033 301.321 290.52 324.134C294.323 343.471 156.882 343.668 159.792 325.107C163.342 302.475 147.138 184.663 155.177 179.775C163.216 174.887 200.609 170.058 200.609 170.058L251.982 170.184Z" fill="#3375E0"/>
<path d="M224.074 340.098C201.689 340.098 172.684 337.824 162.439 331.35C159.48 329.481 158.171 327.315 158.548 324.912C160.1 315.015 157.729 285.533 155.436 257.021C153.972 238.821 152.458 220.001 151.889 205.626C151.029 183.89 152.647 179.838 154.523 178.697C162.696 173.728 198.91 169.005 200.448 168.806C200.503 168.799 200.559 168.796 200.612 168.796L251.985 168.922C252.039 168.922 252.092 168.926 252.145 168.933C252.995 169.044 253.965 169.166 255.033 169.302C275.472 171.891 294.907 175.095 298.679 180.968C300.812 184.287 299.094 204.58 295.874 240.163C292.833 273.764 289.387 311.847 291.756 323.891C292.089 325.587 291.743 328.12 288.198 330.557C278.206 337.426 249.283 339.988 225.548 340.095C225.06 340.097 224.568 340.098 224.074 340.098V340.098ZM200.69 171.32C198.741 171.576 163.376 176.267 155.831 180.855C155.788 180.882 154.778 181.607 154.363 187.979C154.089 192.169 154.105 197.941 154.411 205.623C154.981 219.934 156.489 238.685 157.947 256.819C160.358 286.796 162.635 315.111 161.037 325.304C160.831 326.618 161.755 327.934 163.783 329.215C172.024 334.422 196.259 337.71 225.537 337.57C254.892 337.437 278.928 333.868 286.773 328.475C289.695 326.466 289.385 324.895 289.284 324.378C286.845 311.979 290.309 273.704 293.365 239.934C294.688 225.311 295.938 211.498 296.607 200.963C297.574 185.718 296.897 182.856 296.561 182.333C295.514 180.703 291.656 178.215 279.22 175.615C270.654 173.823 261.063 172.609 254.717 171.805C253.679 171.673 252.733 171.554 251.899 171.445L200.69 171.319V171.32Z" fill="#3375E0"/>
<path d="M245.021 169.487L251.982 170.183C250.575 177.845 244.836 215.786 229.467 216.356C213.8 216.937 202.136 177.915 200.609 170.057L208.187 169.487V143.188H245.021V169.487Z" fill="white"/>
<path d="M229.121 217.625C212.371 217.626 200.814 177.715 199.373 170.299C199.304 169.945 199.39 169.579 199.608 169.292C199.826 169.006 200.156 168.826 200.515 168.799L206.927 168.316V143.188C206.927 142.491 207.491 141.926 208.187 141.926H245.021C245.716 141.926 246.28 142.491 246.28 143.188V168.345L252.107 168.928C252.457 168.963 252.777 169.143 252.989 169.425C253.2 169.707 253.284 170.065 253.221 170.412C253.14 170.854 253.044 171.398 252.932 172.03C250.972 183.163 245.007 217.043 229.513 217.617C229.382 217.623 229.251 217.625 229.121 217.625L229.121 217.625ZM202.142 171.208C204.744 182.574 216.034 215.59 229.42 215.096C235.019 214.888 239.972 208.908 244.142 197.322C247.625 187.644 249.534 176.802 250.451 171.592C250.469 171.494 250.485 171.398 250.502 171.304L244.896 170.743C244.252 170.679 243.761 170.136 243.761 169.487V144.45H209.446V169.487C209.446 170.148 208.938 170.696 208.281 170.746L202.142 171.208Z" fill="#3375E0"/>
<path d="M228.876 196.207C223.848 196.207 216.414 188.012 213.451 184.489C208.733 178.878 203.788 171.382 203.379 167.283C203.31 166.59 203.815 165.971 204.507 165.902C205.2 165.832 205.817 166.339 205.886 167.032C206.536 173.545 222.849 193.682 228.876 193.682C231.661 193.682 235.671 190.133 239.341 184.419C242.863 178.936 245.372 172.478 245.586 168.35C245.622 167.654 246.217 167.117 246.909 167.155C247.604 167.191 248.138 167.785 248.102 168.481C247.864 173.081 245.257 179.873 241.46 185.785C239.447 188.918 234.192 196.207 228.876 196.207Z" fill="#3375E0"/>
<path d="M232.479 200.876C232.479 198.882 230.866 194.945 228.876 194.945C226.886 194.945 225.273 198.882 225.273 200.876C225.273 202.87 226.886 203.455 228.876 203.455C230.866 203.455 232.479 202.87 232.479 200.876Z" fill="#A8CFFB"/>
<path d="M228.876 204.716C224.487 204.716 224.014 202.03 224.014 200.875C224.014 198.405 225.907 193.683 228.876 193.683C231.845 193.683 233.739 198.406 233.739 200.875C233.739 202.03 233.265 204.716 228.876 204.716ZM228.876 196.207C228.069 196.207 226.533 198.998 226.533 200.875C226.533 201.368 226.533 202.192 228.876 202.192C231.22 202.192 231.22 201.367 231.22 200.875C231.22 198.998 229.683 196.207 228.876 196.207Z" fill="#3375E0"/>
<path d="M351.565 344.476C345.787 344.476 339.945 342.885 334.708 339.552C321.149 330.921 316.41 313.63 323.113 299.45C322.346 295.068 318.238 283.302 305.074 265.148C292.421 247.699 279.629 235.626 275.593 233.04C260.939 223.654 256.655 204.142 266.024 189.461C275.393 174.779 294.867 170.486 309.52 179.873C324.842 189.688 346.602 213.307 362.437 237.308C371.952 251.731 378.7 265.313 382.493 277.675C385.083 286.118 386.341 294.208 386.232 301.72C386.081 312.186 383.371 321.646 378.176 329.839C372.176 339.3 361.981 344.475 351.565 344.476Z" fill="#A8CFFB"/>
<path d="M351.56 345.738C345.355 345.738 339.294 343.967 334.031 340.617C320.224 331.829 315.011 314.123 321.799 299.284C320.653 293.522 315.378 281.505 304.054 265.89C291.5 248.577 278.88 236.645 274.913 234.104C259.698 224.357 255.233 204.025 264.962 188.781C269.674 181.396 276.975 176.292 285.518 174.409C294.063 172.525 302.827 174.089 310.198 178.81C325.651 188.71 347.565 212.479 363.487 236.613C373.068 251.135 379.867 264.826 383.695 277.305C386.324 285.873 387.601 294.094 387.491 301.738C387.336 312.441 384.559 322.123 379.238 330.516C373.195 340.046 362.849 345.736 351.564 345.738H351.56V345.738ZM292.615 176.156C290.435 176.156 288.24 176.393 286.06 176.874C278.173 178.613 271.434 183.324 267.084 190.14C258.105 204.212 262.225 222.98 276.27 231.977C280.376 234.607 293.34 246.82 306.092 264.406C321.353 285.451 323.981 297.108 324.352 299.232C324.397 299.489 324.362 299.754 324.25 299.99C317.743 313.755 322.529 330.305 335.382 338.486C340.24 341.579 345.834 343.214 351.56 343.214H351.563C361.982 343.213 371.533 337.96 377.111 329.162C382.179 321.169 384.823 311.93 384.971 301.701C385.078 294.321 383.838 286.362 381.287 278.046C377.529 265.798 370.833 252.326 361.384 238.004C345.636 214.134 324.029 190.667 308.84 180.937C303.917 177.783 298.32 176.156 292.615 176.156L292.615 176.156Z" fill="#3375E0"/>
<path d="M223.501 158.068C225.953 158.442 228.545 158.674 231.28 158.737C252.921 159.239 266.237 148.54 271.84 138.313C276.671 129.494 278.437 121.709 278.751 108.123C279.416 79.3361 273.023 53.5632 233.731 52.6517C194.439 51.7404 186.862 77.1893 186.197 105.976C185.893 119.131 187.555 130.151 191.925 138.127C193.105 140.28 198.434 150.351 208.187 154.656" fill="white"/>
<path d="M232.758 160.016C232.258 160.016 231.755 160.01 231.249 159.999C228.539 159.936 225.868 159.706 223.31 159.316C222.622 159.211 222.149 158.567 222.254 157.878C222.359 157.189 223.001 156.717 223.689 156.82C226.141 157.194 228.704 157.415 231.308 157.475C257.501 158.079 268.109 142.497 270.734 137.705C275.474 129.054 277.179 121.582 277.49 108.093C278.097 81.8178 273.37 54.833 233.7 53.9129C216.018 53.5006 203.852 58.4054 196.509 68.9009C190.726 77.1673 187.849 88.9571 187.455 106.005C187.141 119.594 189.016 130.197 193.028 137.52L193.115 137.679C198.435 147.421 204.523 151.66 208.694 153.501C209.33 153.782 209.619 154.527 209.339 155.165C209.058 155.803 208.315 156.092 207.678 155.811C203.15 153.812 196.565 149.254 190.905 138.89L190.82 138.734C186.532 130.908 184.607 120.183 184.936 105.946C185.342 88.3775 188.364 76.1456 194.446 67.4523C202.31 56.2125 215.17 50.9615 233.759 51.3894C252.349 51.8207 264.952 57.6655 272.288 69.2578C277.961 78.224 280.415 90.5827 280.009 108.152C279.691 121.927 277.842 129.978 272.943 138.92C269.735 144.775 264.5 150.003 258.203 153.641C250.876 157.874 242.322 160.016 232.759 160.016L232.758 160.016Z" fill="#3375E0"/>
<path d="M231.666 29.6154C276.451 16.2117 297.35 56.7639 297.6 77.9529C297.886 102.312 308.872 101.905 313.338 117.997C317.67 133.606 314.553 142.955 304.247 150.354C304.247 150.354 307.856 140.027 302.821 133.135C302.821 133.135 289.853 154.237 269.868 153.43C269.868 153.43 280.528 141.4 276.701 126.188L282.252 101.381L276.999 106.208C276.727 78.8894 262.689 52.3129 236.12 57.0533C226.162 55.6716 223.973 30.9706 231.665 29.6154H231.666Z" fill="#A8CFFB"/>
<path d="M270.957 154.714C270.577 154.714 270.199 154.706 269.819 154.691C269.333 154.671 268.901 154.373 268.711 153.924C268.52 153.475 268.605 152.956 268.928 152.592C269.029 152.477 279.094 140.856 275.481 126.496C275.433 126.305 275.431 126.104 275.474 125.912L280.147 105.029L277.853 107.137C277.486 107.473 276.956 107.563 276.5 107.364C276.044 107.166 275.747 106.717 275.742 106.219C275.561 88.0763 269.521 72.3163 259.584 64.0616C253.066 58.6466 245.247 56.7064 236.343 58.2948C236.212 58.3181 236.08 58.3203 235.949 58.3023C229.478 57.4041 225.939 48.5328 225.788 40.2336C225.667 33.601 227.805 29.0729 231.372 28.3854C248.294 23.338 263.766 25.4829 276.118 34.5895C290.841 45.4438 298.704 64.6122 298.861 77.9367C299.03 92.34 302.966 97.7336 307.133 103.444C309.89 107.221 312.74 111.127 314.553 117.658C318.908 133.351 316.046 143.436 304.982 151.379C304.535 151.7 303.933 151.693 303.493 151.363C303.053 151.033 302.878 150.456 303.059 149.936C303.09 149.848 305.87 141.653 302.771 135.465C301.341 137.472 298.586 141.004 294.683 144.522C287.27 151.206 279.09 154.713 270.957 154.714V154.714ZM277.997 126.174C280.868 138.104 275.359 147.977 272.443 152.148C290.037 151.156 301.63 132.667 301.75 132.472C301.97 132.115 302.354 131.89 302.772 131.873C303.19 131.86 303.591 132.05 303.839 132.389C307.303 137.13 307.025 143.226 306.351 147.071C314.143 140.15 315.795 131.555 312.126 118.334C310.436 112.246 307.844 108.694 305.1 104.934C300.882 99.1547 296.521 93.1783 296.341 77.9673C296.192 65.2675 288.685 46.9883 274.625 36.6231C262.919 27.9929 248.188 25.9881 232.028 30.8241C231.982 30.838 231.934 30.8493 231.886 30.8579C229.651 31.2516 228.213 35.0013 228.307 40.1882C228.436 47.2455 231.384 54.9329 236.11 55.7734C245.691 54.1166 254.128 56.2505 261.192 62.1189C271.171 70.4093 277.43 85.703 278.187 103.405L281.403 100.45C281.808 100.077 282.409 100.012 282.885 100.288C283.362 100.564 283.604 101.118 283.483 101.656L277.997 126.174V126.174Z" fill="#3375E0"/>
<path d="M236.121 57.0532C192.726 47.0555 197.196 93.2774 188.82 105.24C188.82 105.24 186.536 100.28 183.184 99.037C179.833 97.7935 187.301 123.954 187.301 123.954C183.551 139.866 191.559 152.723 191.559 152.723C180.05 158.815 167.099 148.361 167.099 148.361C147.033 148.979 146.571 121.61 157.312 107.47C166.64 95.1904 164.332 84.4604 167.815 71.3956C176.801 37.6883 207.643 16.9183 231.667 29.6156" fill="#A8CFFB"/>
<path d="M183.672 155.91C175.533 155.91 168.395 150.924 166.68 149.632C166.593 149.633 166.506 149.633 166.419 149.633C157.957 149.633 153.724 144.906 151.653 140.876C146.833 131.497 148.878 116.487 156.309 106.705C162.41 98.6746 163.381 91.2245 164.41 83.3364C164.92 79.4277 165.447 75.3859 166.598 71.0695C171.824 51.4642 184.908 34.9763 200.742 28.0395C211.547 23.3063 222.738 23.4695 232.254 28.4989C232.87 28.8242 233.106 29.5878 232.781 30.204C232.456 30.8205 231.694 31.0565 231.079 30.7315C222.255 26.0678 211.84 25.9331 201.751 30.3523C186.603 36.9887 174.065 52.8399 169.032 71.7208C167.924 75.8768 167.408 79.8354 166.908 83.6633C165.835 91.894 164.821 99.6685 158.314 108.234C151.538 117.154 149.555 131.279 153.893 139.72C156.469 144.734 161.024 147.282 167.06 147.099C167.358 147.087 167.655 147.188 167.889 147.377C168.007 147.472 179.457 156.531 189.798 152.163C187.89 148.542 182.954 137.416 186.001 123.985C185.638 122.695 184.236 117.653 183.032 112.499C182.211 108.988 181.639 106.106 181.332 103.933C180.783 100.05 181.133 98.8255 181.827 98.1812C182.306 97.7363 182.977 97.6138 183.622 97.853C185.938 98.7125 187.751 100.994 188.835 102.692C190.274 99.7036 191.334 95.3787 192.527 90.5133C194.75 81.442 197.271 71.1601 203.481 63.757C210.822 55.0053 221.591 52.4098 236.403 55.8228C237.081 55.979 237.504 56.6565 237.348 57.3358C237.193 58.0151 236.517 58.4392 235.838 58.283C222.037 55.1025 212.083 57.4248 205.409 65.3813C199.577 72.3338 197.131 82.3119 194.974 91.1156C193.449 97.3343 192.133 102.705 189.85 105.965C189.592 106.335 189.156 106.538 188.706 106.497C188.257 106.457 187.864 106.179 187.675 105.769C187.165 104.667 185.537 101.863 183.554 100.624C183.471 103.83 185.905 114.476 188.512 123.608C188.571 123.815 188.577 124.035 188.527 124.245C184.948 139.428 192.551 151.932 192.628 152.057C192.812 152.354 192.865 152.715 192.774 153.053C192.683 153.391 192.455 153.676 192.147 153.84C189.322 155.334 186.439 155.911 183.671 155.911L183.672 155.91Z" fill="#3375E0"/>
<path d="M259.514 96.4651C255.843 94.7001 252.073 93.9902 247.487 93.3427C244.547 92.9275 244.478 89.6016 248.601 87.8627C252.476 86.2286 260.072 88.0129 262.487 91.6143C265.006 95.3712 262.51 97.9058 259.514 96.4651Z" fill="#A8CFFB"/>
<path d="M261.178 98.1359C260.469 98.1359 259.715 97.9608 258.971 97.6029C255.61 95.9872 252.151 95.2753 247.313 94.5922C245.557 94.3442 244.344 93.2554 244.149 91.7509C243.948 90.2017 244.884 88.0615 248.114 86.6994C252.311 84.9293 260.703 86.6878 263.534 90.9104C265.337 93.5993 264.918 95.7868 263.925 96.9369C263.242 97.7273 262.262 98.1359 261.178 98.1359ZM260.06 95.3274C260.886 95.7243 261.655 95.7079 262.02 95.2854C262.386 94.8607 262.456 93.8287 261.443 92.3183C259.34 89.182 252.285 87.6791 249.091 89.0261C247.174 89.8345 246.579 90.9041 246.647 91.4256C246.711 91.9204 247.442 92.0614 247.664 92.0927C252.747 92.8105 256.405 93.5699 260.06 95.3271L260.06 95.3274Z" fill="#3375E0"/>
<path d="M220.054 93.6243C216.01 94.1083 212.449 95.5357 208.233 97.4547C205.529 98.6849 203.69 95.9156 206.238 92.2319C208.632 88.7696 215.998 86.1915 219.965 87.9326C224.102 89.7487 223.354 93.2296 220.054 93.6246V93.6243Z" fill="#A8CFFB"/>
<path d="M206.977 99.0129C206.025 99.0129 205.169 98.6355 204.561 97.9064C203.562 96.7074 203.206 94.3978 205.202 91.5123C207.796 87.7623 215.819 84.7345 220.47 86.7757C223.432 88.0759 224.249 90.147 224.027 91.6514C223.774 93.3632 222.273 94.6293 220.202 94.877C216.501 95.32 213.202 96.579 208.753 98.6034C208.149 98.8782 207.546 99.0129 206.977 99.0129ZM216.956 88.6328C213.408 88.6328 208.837 90.6878 207.272 92.9501C206.088 94.6625 206.158 95.8851 206.495 96.289C206.814 96.6724 207.506 96.3985 207.711 96.3051C212.384 94.1781 215.878 92.8526 219.903 92.3708C220.812 92.262 221.452 91.8344 221.534 91.282C221.616 90.726 221.122 89.8179 219.458 89.0878C218.742 88.7732 217.884 88.6328 216.956 88.6328Z" fill="#3375E0"/>
<path d="M231.491 125.6C228.332 134.202 214.421 130.876 214.526 122.319L231.491 125.6Z" fill="white"/>
<path d="M224.033 131.899C223.326 131.899 222.596 131.832 221.85 131.694C217.67 130.921 213.201 127.653 213.266 122.304C213.271 121.93 213.441 121.577 213.73 121.341C214.019 121.105 214.398 121.01 214.765 121.08L231.73 124.361C232.092 124.431 232.406 124.658 232.588 124.98C232.769 125.302 232.801 125.689 232.673 126.036C231.313 129.739 228.04 131.899 224.033 131.899V131.899ZM215.958 123.881C216.685 126.86 219.577 128.707 222.307 129.211C224.748 129.662 227.919 129.16 229.633 126.526L215.958 123.881Z" fill="#3375E0"/>
<path d="M277.001 106.208C280.136 101.056 286.557 98.655 292.434 100.796C299.138 103.237 302.597 110.66 300.161 117.377C297.724 124.093 290.315 127.559 283.611 125.118C281.245 124.256 279.179 122.746 277.738 120.893C277.433 122.725 277.096 124.503 276.703 126.189" fill="white"/>
<path d="M276.704 127.45C276.61 127.45 276.514 127.44 276.417 127.417C275.74 127.259 275.318 126.58 275.477 125.901C275.831 124.377 276.165 122.671 276.495 120.685C276.578 120.191 276.943 119.792 277.428 119.669C277.912 119.546 278.424 119.721 278.731 120.116C280.048 121.808 281.934 123.163 284.042 123.931C286.968 124.996 290.133 124.856 292.954 123.537C295.775 122.217 297.914 119.876 298.977 116.945C300.041 114.013 299.901 110.842 298.584 108.016C297.267 105.189 294.93 103.046 292.004 101.981C286.808 100.088 280.95 102.142 278.077 106.864C277.714 107.459 276.94 107.647 276.345 107.284C275.751 106.921 275.563 106.145 275.925 105.55C279.421 99.8058 286.544 97.3065 292.864 99.6083C296.423 100.904 299.264 103.511 300.866 106.948C302.468 110.385 302.638 114.241 301.344 117.807C300.051 121.372 297.449 124.219 294.019 125.824C290.588 127.429 286.739 127.599 283.181 126.303C281.475 125.682 279.886 124.739 278.541 123.564C278.343 124.606 278.14 125.57 277.929 126.474C277.794 127.057 277.276 127.45 276.704 127.45L276.704 127.45Z" fill="#3375E0"/>
<path d="M285.234 116.442C284.807 116.442 284.391 116.225 284.155 115.833C283.795 115.237 283.985 114.461 284.581 114.1L291.904 109.662C292.499 109.301 293.274 109.492 293.633 110.089C293.994 110.685 293.803 111.461 293.208 111.822L285.885 116.26C285.681 116.384 285.456 116.442 285.234 116.442H285.234Z" fill="#3375E0"/>
<path d="M291.023 118.551C290.555 118.551 290.106 118.289 289.888 117.839L285.724 109.217C285.421 108.59 285.683 107.835 286.309 107.531C286.935 107.228 287.688 107.49 287.991 108.118L292.156 116.739C292.459 117.367 292.197 118.121 291.571 118.425C291.394 118.51 291.207 118.551 291.023 118.551H291.023Z" fill="#3375E0"/>
<path d="M188.819 105.24C186.225 98.661 178.521 96.1434 172.556 98.0268C165.753 100.175 161.976 107.441 164.12 114.257C166.264 121.073 173.517 124.857 180.32 122.709C182.72 121.951 185.099 120.619 186.619 118.83C186.744 120.25 186.984 121.996 187.301 123.954" fill="white"/>
<path d="M187.301 125.216C186.694 125.216 186.16 124.776 186.059 124.156C185.898 123.158 185.763 122.255 185.652 121.436C184.267 122.469 182.574 123.321 180.7 123.913C177.089 125.053 173.251 124.716 169.893 122.964C166.534 121.212 164.058 118.254 162.92 114.636C161.782 111.019 162.119 107.173 163.867 103.808C165.616 100.444 168.568 97.9631 172.179 96.8231C178.456 94.841 187.052 97.3182 189.992 104.776C190.248 105.424 189.931 106.157 189.284 106.413C188.637 106.669 187.905 106.352 187.649 105.704C185.241 99.5966 178.137 97.5883 172.936 99.2306C169.967 100.168 167.54 102.208 166.102 104.975C164.664 107.741 164.387 110.903 165.323 113.878C166.258 116.853 168.295 119.285 171.056 120.726C173.817 122.167 176.973 122.443 179.942 121.506C182.331 120.751 184.416 119.478 185.661 118.013C185.991 117.625 186.521 117.474 187.003 117.628C187.487 117.783 187.831 118.213 187.875 118.72C187.99 120.022 188.209 121.668 188.546 123.752C188.658 124.441 188.191 125.089 187.505 125.2C187.436 125.211 187.369 125.216 187.302 125.216L187.301 125.216Z" fill="#3375E0"/>
<path d="M179.746 113.968C179.507 113.968 179.264 113.9 179.049 113.757L171.925 109.005C171.346 108.619 171.189 107.835 171.575 107.255C171.96 106.675 172.742 106.518 173.321 106.904L180.445 111.656C181.025 112.042 181.181 112.825 180.796 113.406C180.553 113.771 180.153 113.968 179.746 113.968Z" fill="#3375E0"/>
<path d="M173.87 115.824C173.668 115.824 173.464 115.776 173.274 115.673C172.661 115.343 172.432 114.577 172.762 113.964L177.295 105.531C177.625 104.917 178.389 104.688 179.002 105.018C179.614 105.349 179.843 106.114 179.513 106.728L174.98 115.16C174.752 115.584 174.319 115.824 173.87 115.824Z" fill="#3375E0"/>
<path d="M167.099 149.622C166.798 149.622 166.496 149.515 166.255 149.297C161.286 144.799 160.472 135.334 160.44 134.933C160.384 134.238 160.901 133.63 161.594 133.574C162.29 133.517 162.895 134.035 162.951 134.73C162.958 134.818 163.72 143.601 167.944 147.423C168.461 147.89 168.501 148.689 168.035 149.206C167.786 149.482 167.443 149.622 167.099 149.622Z" fill="#3375E0"/>
<path d="M215.595 48.2241C218.485 41.1952 236.824 36.9091 246.948 45.6065C246.948 45.6065 263.469 38.2365 271.058 55.3126C279.104 73.4167 267.57 84.7563 259.585 76.3315C252.756 69.1269 249.279 59.7233 249.279 59.7233C249.279 59.7233 254.353 74.6403 249.516 77.8148C244.228 81.2846 227.824 82.3384 222.321 76.7142C216.817 71.09 217.793 60.5412 217.793 60.5412C217.793 60.5412 214.522 75.8835 206.397 78.974C190.267 85.1093 190.426 69.6191 196.661 58.5707C202.896 47.5224 215.596 48.2241 215.596 48.2241H215.595Z" fill="#A8CFFB"/>
<path d="M236.042 81.9365H235.998C229.425 81.9296 224.112 80.3479 221.421 77.5974C218.704 74.8212 217.449 71.0144 216.888 67.6888C215.006 72.4604 211.785 78.2739 206.843 80.1535C199.248 83.0421 195.494 81.1275 193.682 79.0132C189.721 74.392 191.631 64.9188 195.564 57.9492C201.229 47.9108 211.735 46.9971 214.813 46.9523C216.473 43.9927 220.415 41.5398 225.586 40.2957C231.855 38.7869 240.72 39.0494 247.175 44.1596C248.645 43.6216 252.131 42.5599 256.229 42.7956C261.212 43.0821 268.03 45.3971 272.208 54.7987C277.533 66.7801 274.68 75.7728 269.775 79.0577C266.249 81.4191 261.995 80.7069 258.671 77.1999C256.282 74.6792 254.3 71.9165 252.723 69.3636C253.11 73.2808 252.735 77.2103 250.205 78.8699C247.365 80.7341 241.809 81.9362 236.041 81.9365H236.042ZM217.791 59.2788C217.855 59.2788 217.919 59.2836 217.983 59.2933C218.642 59.3943 219.108 59.9919 219.047 60.657C219.038 60.7558 218.198 70.6982 223.22 75.8302C228.082 80.7991 243.726 80.1043 248.825 76.7582C251.75 74.8388 249.924 65.5401 248.086 60.1295C247.864 59.476 248.208 58.7652 248.857 58.5339C249.506 58.3023 250.22 58.6367 250.46 59.2836C250.494 59.3754 253.937 68.5391 260.498 75.4614C262.957 78.0556 265.901 78.616 268.375 76.9588C272.559 74.157 274.428 65.9979 269.907 55.8251C262.933 40.132 248.087 46.4815 247.458 46.7595C247.015 46.9561 246.496 46.88 246.128 46.5639C240.352 41.602 232.033 41.3401 226.174 42.7498C221.405 43.8971 217.798 46.1786 216.76 48.7041C216.556 49.1998 216.058 49.5102 215.528 49.4837C215.04 49.4575 203.518 48.9817 197.757 59.1914C193.741 66.3077 192.811 74.1223 195.593 77.3687C197.925 80.0894 202.512 79.1012 205.949 77.7937C213.335 74.9843 216.529 60.4235 216.561 60.2768C216.687 59.6874 217.207 59.2788 217.791 59.2788Z" fill="#3375E0"/>
<path d="M255.197 104.385C255.336 102.665 254.28 101.176 252.838 101.059C251.396 100.941 250.114 102.241 249.975 103.961C249.836 105.681 250.892 107.17 252.334 107.287C253.776 107.405 255.057 106.105 255.197 104.385Z" fill="#3375E0"/>
<path d="M217.966 103.204C218.106 101.484 217.049 99.9943 215.608 99.8771C214.166 99.7598 212.884 101.059 212.744 102.779C212.605 104.499 213.661 105.989 215.103 106.106C216.545 106.223 217.827 104.924 217.966 103.204Z" fill="#3375E0"/>
<path d="M305.18 229.147C303.211 331.878 324.044 381.41 324.044 420.182H260.472C260.472 420.182 249.607 354.608 248.314 311.334C255.473 277.227 252.324 165.633 245.824 165.634C254.137 166.259 294.962 169.028 309.519 179.874C309.519 179.874 311.082 184.577 309.591 190.604" fill="#A8CFFB"/>
<path d="M324.044 421.444H260.472C259.856 421.444 259.331 420.997 259.229 420.388C259.121 419.732 248.336 354.234 247.055 311.371C247.052 311.272 247.061 311.172 247.082 311.074C250.788 293.411 251.527 256.651 250.981 228.138C250.678 212.243 249.956 197.37 248.949 186.258C247.491 170.155 245.919 167.322 245.548 166.865C244.964 166.734 244.542 166.202 244.565 165.586C244.591 164.908 245.147 164.371 245.824 164.371C245.89 164.371 245.96 164.375 246.035 164.383L246.645 164.429C287.276 167.45 303.672 173.944 310.271 178.861C310.478 179.015 310.633 179.229 310.714 179.475C310.783 179.681 312.375 184.598 310.814 190.907C310.647 191.584 309.963 191.996 309.288 191.829C308.613 191.661 308.201 190.976 308.369 190.3C309.517 185.656 308.728 181.809 308.426 180.637C301.98 176.03 286.324 170.074 248.42 167.096C251.494 175.536 253.084 204.858 253.519 229.126C254.025 257.345 253.254 293.744 249.578 311.445C250.783 351.152 260.15 410.309 261.543 418.919H322.777C322.619 405.082 319.905 389.979 316.496 371.007C310.663 338.552 302.675 294.103 303.92 229.122C303.934 228.426 304.505 227.873 305.204 227.885C305.9 227.898 306.453 228.474 306.439 229.171C305.199 293.902 313.161 338.209 318.975 370.56C322.511 390.234 325.303 405.774 325.303 420.182C325.303 420.879 324.74 421.444 324.044 421.444Z" fill="#3375E0"/>
<path d="M107.544 384.434C122.86 388.508 127.17 327.772 114.432 322.519C101.693 317.266 83.9528 378.158 107.544 384.434Z" fill="#3375E0"/>
<path d="M108.956 385.883C108.313 385.883 107.728 385.788 107.222 385.653C101.35 384.091 97.348 379.249 95.6487 371.651C92.0133 355.394 99.6456 330.049 107.996 322.996C110.952 320.499 113.389 320.724 114.912 321.352C124.995 325.51 125.095 357.284 119.444 374.088C116.17 383.826 111.942 385.883 108.956 385.883ZM107.868 383.214C112.539 384.457 115.63 377.524 117.057 373.281C119.768 365.219 121.102 353.705 120.539 343.234C119.967 332.616 117.444 325.125 113.954 323.686C112.676 323.159 111.218 323.576 109.62 324.926C101.938 331.414 94.7058 355.89 98.1072 371.099C99.6091 377.814 102.893 381.89 107.868 383.214H107.868Z" fill="#3375E0"/>
<path d="M117.462 373.268C116.394 373.268 115.325 373.243 114.254 373.194C102.1 372.633 90.096 368.745 79.5409 361.951C55.3632 346.388 42.324 311.903 44.5965 283.295C46.3219 261.573 60.3808 239.836 86.3825 218.688C103.315 204.917 125.882 191.213 146.748 182.029C159.487 176.423 174.351 182.225 179.946 194.988C185.542 207.752 179.751 222.644 167.012 228.25C150.04 235.72 131.769 246.798 118.138 257.883C101.586 271.346 95.2342 282.144 94.8248 287.3C94.0315 297.284 98.2899 314.014 106.776 319.477C113.512 323.813 120.795 323.854 128.421 319.598C140.578 312.815 155.919 317.191 162.689 329.37C169.459 341.549 165.092 356.921 152.936 363.704C141.551 370.057 129.632 373.268 117.462 373.268Z" fill="white"/>
<path d="M117.463 374.53C116.382 374.53 115.283 374.505 114.198 374.454C101.822 373.883 89.6029 369.927 78.8617 363.013C67.1417 355.469 57.5046 343.365 50.9918 328.009C44.9036 313.653 42.1871 297.738 43.3422 283.195C45.0963 261.115 59.3107 239.082 85.5902 217.708C102.606 203.87 125.28 190.1 146.243 180.874C159.599 174.997 175.235 181.101 181.101 194.481C183.943 200.963 184.095 208.165 181.53 214.761C178.965 221.358 173.989 226.558 167.52 229.406C150.645 236.833 132.482 247.845 118.934 258.863C101.561 272.992 96.3954 283.449 96.0817 287.4C95.3341 296.812 99.3005 313.164 107.458 318.415C113.773 322.48 120.62 322.507 127.809 318.496C140.553 311.385 156.694 315.987 163.791 328.755C170.888 341.523 166.294 357.696 153.551 364.806C141.988 371.258 129.846 374.529 117.463 374.529L117.463 374.53ZM156.847 181.161C153.638 181.161 150.379 181.811 147.256 183.185C126.487 192.325 104.028 205.964 87.178 219.668C61.4543 240.589 47.5511 262.03 45.8537 283.395C43.7739 309.572 54.9123 344.597 80.2234 360.889C90.5921 367.563 102.38 371.382 114.314 371.933C127.353 372.531 140.165 369.387 152.325 362.602C163.855 356.168 168.011 341.536 161.59 329.984C155.169 318.433 140.565 314.268 129.035 320.702C120.971 325.201 113.253 325.146 106.096 320.539C96.801 314.556 92.7896 297.029 93.5705 287.2C94.0202 281.537 100.502 270.604 117.346 256.904C131.06 245.751 149.437 234.607 166.507 227.095C172.36 224.519 176.862 219.813 179.183 213.845C181.504 207.877 181.366 201.361 178.795 195.496C174.859 186.519 166.059 181.161 156.847 181.161Z" fill="#3375E0"/>
<path d="M107.545 384.433C105.238 384.433 102.896 384.178 100.551 383.645C78.7 378.68 60.2811 365.092 48.6871 345.384C38.2423 327.63 35.3825 300.7 38.6107 280.346C42.3951 256.482 57.5417 233.681 83.6297 212.578C106.421 194.14 131.372 181.904 144.217 176.251C160.139 169.243 178.72 176.495 185.715 192.451C192.709 208.405 185.471 227.02 169.546 234.028C152.58 241.495 135.686 251.572 123.196 261.676C110.373 272.049 102.006 282.731 100.814 290.249C99.1536 300.718 103.17 319.959 114.433 322.519C96.8877 332.769 95.686 377.466 107.545 384.434L107.545 384.433Z" fill="#A8CFFB"/>
<path d="M107.545 385.696C105.112 385.696 102.665 385.42 100.272 384.877C78.0788 379.834 59.373 366.036 47.6011 346.026C36.3472 326.896 34.3513 299.155 37.366 280.148C41.2007 255.967 56.4997 232.903 82.8378 211.596C105.742 193.067 130.807 180.775 143.71 175.096C151.718 171.571 160.619 171.382 168.77 174.564C176.922 177.746 183.349 183.918 186.867 191.944C190.386 199.968 190.574 208.886 187.398 217.053C184.222 225.22 178.062 231.659 170.052 235.184C153.183 242.608 136.393 252.622 123.987 262.659C111.4 272.841 103.202 283.229 102.057 290.447C101.207 295.808 101.957 303.067 103.968 308.941C105.342 312.953 108.564 319.892 114.711 321.289C115.216 321.403 115.599 321.815 115.678 322.328C115.756 322.84 115.514 323.348 115.067 323.61C105.382 329.268 101.03 346.022 101.012 360.117C100.998 371.66 103.812 380.778 108.182 383.345C108.672 383.633 108.91 384.215 108.761 384.765C108.612 385.314 108.113 385.696 107.545 385.696L107.545 385.696ZM156.872 174.834C152.741 174.834 148.618 175.693 144.723 177.408C131.935 183.035 107.097 195.215 84.42 213.56C58.582 234.462 43.5875 256.999 39.8538 280.544C36.91 299.105 38.8348 326.154 49.7709 344.744C61.187 364.149 79.3196 377.528 100.828 382.415C101.893 382.657 102.97 382.842 104.05 382.968C99.9933 377.854 98.482 368.304 98.4924 360.114C98.5094 346.338 102.607 330.064 111.661 322.893C107.354 320.881 103.831 316.321 101.585 309.76C99.45 303.526 98.6583 295.789 99.5684 290.051C100.809 282.233 109.345 271.259 122.404 260.695C134.976 250.524 151.974 240.383 169.039 232.873C176.432 229.619 182.119 223.676 185.05 216.136C187.982 208.598 187.808 200.367 184.56 192.959C181.313 185.551 175.38 179.854 167.855 176.916C164.295 175.527 160.58 174.834 156.871 174.834H156.872Z" fill="#3375E0"/>
<path d="M144.614 229.795C150.761 335.153 124.285 377.065 127.197 420.181H180.881C180.881 420.181 194.602 336.82 198.347 307.958L208.187 165.633C198.97 165.677 153.901 171.804 144.217 176.251C144.217 176.251 139.695 184.629 141.659 192.547" fill="#A8CFFB"/>
<path d="M180.881 421.444H127.197C126.534 421.444 125.984 420.929 125.94 420.267C124.78 403.099 128.152 386.522 132.422 365.534C138.948 333.453 147.07 293.526 143.356 229.869C143.315 229.174 143.845 228.576 144.54 228.536C145.239 228.494 145.83 229.026 145.871 229.722C149.604 293.707 141.446 333.813 134.89 366.038C130.758 386.354 127.473 402.5 128.381 418.92H179.811C181.416 409.142 193.615 334.618 197.093 307.834L206.834 166.937C195.832 167.468 155.063 173.029 145.137 177.225C144.334 178.886 141.285 185.812 142.881 192.244C143.049 192.921 142.638 193.605 141.962 193.773C141.288 193.942 140.604 193.53 140.436 192.853C138.377 184.556 142.914 176.012 143.108 175.652C143.238 175.411 143.443 175.219 143.691 175.105C153.61 170.551 198.835 164.417 208.18 164.372C208.544 164.377 208.866 164.515 209.105 164.771C209.345 165.027 209.467 165.371 209.443 165.721L199.604 308.046C199.602 308.072 199.599 308.097 199.596 308.122C195.891 336.674 182.261 419.553 182.124 420.388C182.023 420.997 181.497 421.444 180.881 421.444V421.444Z" fill="#3375E0"/>
<path d="M245.022 158.755C256.105 160.727 268.345 173.278 274.41 183.126L263.484 190.089C263.484 190.089 280.816 198.526 281.868 201.901C282.921 205.276 249.289 289.83 248.315 311.334C251.666 255.247 254.16 207.42 245.021 169.488L245.022 158.755Z" fill="#A8CFFB"/>
<path d="M248.316 312.596C248.294 312.596 248.271 312.596 248.249 312.595C247.558 312.558 247.026 311.97 247.057 311.277C247.068 311.038 247.082 310.793 247.101 310.539C250.235 258.088 253.14 208.565 243.797 169.784C243.774 169.687 243.762 169.588 243.762 169.488V158.755C243.762 158.382 243.927 158.028 244.212 157.788C244.498 157.548 244.876 157.448 245.242 157.512C256.208 159.464 268.756 171.541 275.482 182.464C275.844 183.051 275.667 183.821 275.086 184.192L266.039 189.957C267.739 190.821 270.308 192.16 272.902 193.631C281.2 198.336 282.695 200.321 283.071 201.525C283.533 203.006 281.537 208.975 273.475 231.862C263.815 259.286 250.646 296.668 249.617 310.671C249.602 310.917 249.587 311.163 249.573 311.41C249.533 312.079 248.978 312.596 248.316 312.596ZM246.281 169.338C250.489 186.871 252.501 207.295 252.612 233.598C252.689 251.878 251.831 271.676 250.627 293.283C255.436 275.486 264.166 250.703 271.099 231.022C275.951 217.25 280.537 204.231 280.632 202.197C280.429 201.8 279.182 200.092 271.671 195.833C267.291 193.349 262.977 191.245 262.934 191.224C262.523 191.024 262.252 190.618 262.226 190.161C262.2 189.704 262.423 189.269 262.808 189.024L272.674 182.737C266.437 173.087 255.813 162.828 246.281 160.325L246.281 169.338Z" fill="#3375E0"/>
<path d="M208.187 158.755C203.893 160.516 186.63 175.071 184.735 186.672L198.419 191.102C198.419 191.102 181.577 194.898 180.735 197.008C179.893 199.118 198.58 264.006 198.347 307.96C205.738 262.779 204.632 223.081 208.187 169.488V158.755Z" fill="#A8CFFB"/>
<path d="M198.348 309.221C198.313 309.221 198.277 309.219 198.241 309.216C197.586 309.161 197.084 308.61 197.087 307.952C197.258 275.73 187.092 231.678 182.207 210.508C179.506 198.803 179.234 197.367 179.565 196.539C179.931 195.621 181.035 194.442 189.552 192.048C191.021 191.635 192.484 191.251 193.776 190.924L184.348 187.872C183.755 187.681 183.391 187.084 183.492 186.468C185.524 174.024 203.527 159.302 207.71 157.587C208.098 157.427 208.54 157.472 208.889 157.707C209.237 157.941 209.446 158.334 209.446 158.754V169.487C209.446 169.515 209.445 169.543 209.444 169.571C208.269 187.286 207.609 203.343 206.971 218.872C205.671 250.521 204.548 277.854 199.59 308.163C199.489 308.777 198.959 309.221 198.348 309.221ZM181.977 197.471C182.105 198.861 183.296 204.025 184.661 209.94C188.893 228.279 197.071 263.715 199.129 293.976C202.386 269.083 203.357 245.465 204.453 218.768C205.091 203.236 205.751 187.176 206.927 169.446V160.892C201.321 164.536 188.526 176.291 186.194 185.818L198.806 189.901C199.346 190.075 199.703 190.591 199.677 191.159C199.651 191.727 199.249 192.208 198.695 192.333C191.628 193.926 183.461 196.287 181.977 197.471Z" fill="#3375E0"/>
<path d="M228.877 303.744L266.389 183.563L349.942 209.743L312.43 329.924L228.877 303.744Z" fill="white"/>
<path d="M312.429 331.184C312.304 331.184 312.178 331.165 312.053 331.126L228.499 304.947C228.18 304.847 227.914 304.624 227.759 304.328C227.604 304.031 227.573 303.685 227.673 303.366L265.184 183.184C265.392 182.519 266.098 182.149 266.762 182.357L350.316 208.536C350.635 208.636 350.901 208.858 351.056 209.155C351.211 209.451 351.242 209.798 351.142 210.117L313.631 330.298C313.462 330.838 312.965 331.184 312.429 331.184ZM230.453 302.915L311.603 328.34L348.362 210.568L267.213 185.143L230.453 302.915Z" fill="#3375E0"/>
<path d="M226.934 311.093L258.907 192.548L343.419 215.429L311.446 333.975L226.934 311.093Z" fill="white"/>
<path d="M311.447 335.237C311.338 335.237 311.227 335.223 311.117 335.193L226.605 312.311C226.282 312.224 226.008 312.012 225.841 311.721C225.675 311.431 225.63 311.087 225.718 310.763L257.691 192.218C257.873 191.545 258.564 191.147 259.236 191.329L343.748 214.211C344.07 214.298 344.345 214.511 344.512 214.801C344.678 215.091 344.723 215.436 344.635 215.759L312.662 334.304C312.51 334.867 312.002 335.237 311.447 335.237ZM228.478 310.204L310.558 332.428L341.875 216.319L259.794 194.095L228.478 310.204Z" fill="#3375E0"/>
<path d="M306.953 337.99L222.254 315.058L256.817 186.911L333.129 207.661C336.54 208.588 338.556 212.109 337.634 215.527L331.263 239.148C330.713 241.188 331.023 243.364 332.122 245.168L334.907 249.739C336.005 251.543 336.316 253.719 335.766 255.759L314.806 333.47C313.883 336.891 310.367 338.915 306.953 337.99V337.99Z" fill="white"/>
<path d="M308.622 339.475C307.962 339.475 307.291 339.389 306.624 339.208L221.925 316.276C221.603 316.188 221.328 315.976 221.162 315.686C220.995 315.396 220.951 315.051 221.038 314.728L255.601 186.581C255.688 186.258 255.9 185.983 256.19 185.816C256.48 185.649 256.824 185.605 257.147 185.693L333.459 206.442C337.533 207.55 339.952 211.773 338.85 215.856L332.48 239.476C332.022 241.174 332.283 243.009 333.198 244.51L335.982 249.081C337.255 251.171 337.62 253.724 336.982 256.088L316.023 333.798C315.1 337.217 311.999 339.475 308.622 339.475ZM223.799 314.168L307.282 336.772C310.02 337.513 312.85 335.884 313.59 333.141L334.55 255.43C335.008 253.732 334.746 251.898 333.832 250.397L331.047 245.826C329.774 243.736 329.41 241.182 330.047 238.818L336.418 215.198C337.157 212.457 335.534 209.622 332.799 208.878L257.704 188.46L223.798 314.169L223.799 314.168Z" fill="#3375E0"/>
<path d="M264.875 337.002C254.635 331.521 280.578 275.175 294.117 281.292C307.656 287.408 280.433 345.33 264.875 337.002Z" fill="#3375E0"/>
<path d="M268.13 339.071C266.551 339.071 265.264 338.641 264.282 338.115C261.313 336.525 260.537 332.088 261.975 324.927C263.155 319.051 265.857 311.555 269.388 304.363C273.102 296.799 277.38 290.216 281.435 285.827C287.711 279.034 292.078 278.985 294.635 280.14C296.404 280.94 298.594 282.933 298.979 287.889C299.479 294.331 296.832 304.238 291.897 314.388C286.889 324.69 280.525 333.05 274.874 336.752C272.237 338.478 269.982 339.071 268.13 339.071ZM265.469 335.888C267.703 337.084 270.403 336.663 273.495 334.638C278.783 331.176 284.815 323.193 289.633 313.283C294.309 303.664 296.927 294.009 296.467 288.084C296.235 285.094 295.27 283.196 293.6 282.441C288.471 280.124 279.445 289.597 271.649 305.477C268.21 312.482 265.584 319.753 264.445 325.425C263.302 331.114 263.675 334.928 265.469 335.888Z" fill="#3375E0"/>
<path d="M278.308 270.974C275.038 268.768 276.934 258.569 269.893 249.726C266.167 245.046 251.336 238.778 247.766 236.97C237.675 231.861 236.228 247.83 243.351 252.017C248.045 254.776 256.495 260.381 256.495 260.381C256.495 260.381 252.156 271.951 262.292 277.866" fill="white"/>
<path d="M262.29 279.128C262.075 279.128 261.857 279.073 261.658 278.957C252.522 273.624 254.196 264.003 255.018 260.917C252.819 259.469 246.495 255.327 242.714 253.105C237.631 250.117 236.432 242.395 238.827 237.994C240.688 234.575 244.242 233.771 248.335 235.844C248.961 236.16 249.949 236.621 251.2 237.205C259.154 240.914 267.89 245.185 270.878 248.939C275.138 254.289 276.274 260.113 277.103 264.365C277.619 267.006 278.063 269.287 279.012 269.927C279.589 270.316 279.741 271.101 279.353 271.679C278.964 272.257 278.181 272.41 277.604 272.02C275.791 270.797 275.279 268.172 274.631 264.849C273.808 260.63 272.784 255.38 268.909 250.513C266.04 246.909 255.299 241.9 250.137 239.493C248.866 238.9 247.861 238.431 247.199 238.096C245.211 237.09 242.529 236.464 241.039 239.201C239.223 242.538 240.248 248.728 243.989 250.927C248.658 253.672 257.105 259.271 257.19 259.328C257.68 259.652 257.881 260.273 257.674 260.824C257.514 261.254 253.852 271.479 262.925 276.774C263.527 277.125 263.73 277.898 263.38 278.5C263.146 278.903 262.724 279.127 262.29 279.127V279.128Z" fill="#3375E0"/>
<path d="M262.292 260.025C251.179 251.636 235.383 253.862 227.01 264.997C218.638 276.132 220.86 291.958 231.973 300.347C241.413 307.471 263.868 322.855 280.812 331.414C301.338 341.782 318.603 346.894 333.223 346.894C336.716 346.894 340.059 346.602 343.259 346.02C353.59 344.141 362.284 339.322 368.748 331.957L328.555 295.883C323.552 294.89 315.413 292.329 303.788 286.482C296.133 282.632 284.451 275.075 278.309 270.974C276.476 269.749 276.135 264.177 275.136 261.172" fill="white"/>
<path d="M333.222 348.156C318.376 348.156 301.047 343.048 280.244 332.54C262.628 323.642 239.605 307.687 231.215 301.355C225.571 297.095 221.921 290.888 220.937 283.877C219.952 276.867 221.752 269.892 226.004 264.238C230.255 258.583 236.451 254.926 243.448 253.94C250.444 252.954 257.406 254.757 263.049 259.017C263.605 259.436 263.716 260.227 263.298 260.784C262.879 261.341 262.089 261.452 261.533 261.033C256.427 257.178 250.128 255.548 243.798 256.44C237.468 257.332 231.863 260.64 228.016 265.757C224.169 270.873 222.541 277.183 223.432 283.526C224.322 289.869 227.624 295.484 232.73 299.338C241.062 305.627 263.914 321.465 281.378 330.286C301.82 340.613 318.779 345.632 333.222 345.632C336.617 345.632 339.918 345.345 343.033 344.778C352.548 343.047 360.794 338.656 366.963 332.05L327.969 297.052C323.261 296.079 315.226 293.648 303.222 287.61C294.678 283.313 281.458 274.594 277.609 272.024C275.952 270.917 275.371 268.049 274.756 265.011C274.494 263.718 274.247 262.496 273.94 261.572C273.72 260.91 274.076 260.196 274.736 259.975C275.396 259.755 276.109 260.112 276.33 260.773C276.686 261.844 276.948 263.139 277.225 264.51C277.619 266.455 278.215 269.395 279.006 269.924C282.824 272.473 295.936 281.121 304.352 285.354C316.398 291.413 324.295 293.751 328.798 294.645C329.02 294.689 329.226 294.792 329.394 294.943L369.587 331.017C370.102 331.478 370.149 332.27 369.693 332.79C363.063 340.344 354 345.349 343.483 347.262C340.22 347.855 336.767 348.156 333.222 348.156L333.222 348.156Z" fill="#3375E0"/>
<path d="M378.176 329.839C371.438 340.465 361.246 348.157 348.702 352.082C342.265 354.096 335.224 355.108 327.685 355.108C324.589 355.108 321.41 354.938 318.152 354.596C301.675 352.867 282.754 346.619 264.875 337.001C283.801 331.837 300.919 292.988 294.118 281.291C301.843 285.447 310.597 288.817 317.767 290.576C322.573 291.755 327.384 292.652 331.047 291.241" fill="#A8CFFB"/>
<path d="M327.685 356.37C324.556 356.37 321.304 356.195 318.021 355.851C301.385 354.106 282.299 347.807 264.279 338.113C263.825 337.869 263.565 337.372 263.623 336.859C263.682 336.345 264.046 335.919 264.544 335.784C275.079 332.909 285.004 318.876 290.167 306.244C294.496 295.653 295.593 286.335 293.029 281.926C292.745 281.438 292.82 280.82 293.211 280.414C293.603 280.007 294.216 279.911 294.713 280.179C302.079 284.141 310.809 287.569 318.066 289.349C322.316 290.392 327.14 291.393 330.595 290.062C331.245 289.812 331.973 290.137 332.222 290.787C332.472 291.438 332.148 292.168 331.499 292.418C327.365 294.012 322.088 292.935 317.467 291.801C310.956 290.204 303.302 287.321 296.442 283.912C297.711 289.459 296.337 297.81 292.499 307.2C287.887 318.484 278.9 332.512 268.01 337.229C284.989 346.011 302.742 351.71 318.283 353.34C321.48 353.675 324.643 353.845 327.685 353.845C335.087 353.845 342.031 352.846 348.327 350.877C360.583 347.042 370.537 339.533 377.113 329.161C377.486 328.573 378.264 328.399 378.852 328.773C379.439 329.147 379.612 329.927 379.239 330.515C372.339 341.397 361.91 349.271 349.077 353.286C342.539 355.332 335.341 356.369 327.685 356.369L327.685 356.37Z" fill="#3375E0"/>
<path d="M229.921 276.789C227.368 274.635 222.668 271 219.307 269.654C215.947 268.308 212.069 275.868 215.961 283.936C219.963 292.233 227.736 297.237 231.972 300.347" fill="white"/>
<path d="M231.971 301.609C231.713 301.609 231.452 301.529 231.228 301.365C230.818 301.064 230.375 300.745 229.905 300.408C225.395 297.164 218.578 292.263 214.827 284.485C211.925 278.471 213.007 272.381 215.497 269.704C216.762 268.346 218.321 267.9 219.775 268.482C223.761 270.079 229.17 274.505 230.732 275.824C231.264 276.273 231.333 277.069 230.884 277.602C230.436 278.135 229.642 278.203 229.11 277.754C226.039 275.164 221.729 271.984 218.84 270.826C218.273 270.599 217.711 271.027 217.34 271.426C215.695 273.193 214.532 278.072 217.095 283.387C220.568 290.586 227.071 295.262 231.374 298.356C231.851 298.699 232.301 299.023 232.717 299.328C233.278 299.74 233.399 300.53 232.988 301.092C232.742 301.43 232.359 301.608 231.971 301.609L231.971 301.609Z" fill="#3375E0"/>
<path d="M238.689 264.463C235.068 261.565 230.207 254.537 225.77 253.469C221.334 252.402 214.333 257.716 216.791 267.41C219.036 276.268 229.741 281.391 229.741 281.391" fill="white"/>
<path d="M229.74 282.653C229.558 282.653 229.373 282.613 229.198 282.529C228.739 282.31 217.934 277.043 215.57 267.72C214.29 262.671 215.3 258.004 218.343 254.915C220.569 252.655 223.528 251.631 226.065 252.241C229.367 253.035 232.665 256.54 235.574 259.633C236.987 261.134 238.321 262.552 239.475 263.476C240.019 263.911 240.107 264.705 239.673 265.25C239.239 265.794 238.447 265.883 237.903 265.448C236.61 264.413 235.216 262.932 233.741 261.364C231.073 258.528 228.049 255.314 225.477 254.695C223.818 254.296 221.722 255.079 220.136 256.688C217.728 259.133 216.954 262.927 218.012 267.099C220.082 275.266 230.183 280.203 230.285 280.252C230.912 280.553 231.177 281.307 230.877 281.935C230.661 282.388 230.21 282.653 229.74 282.653Z" fill="#3375E0"/>
<path d="M262.291 260.026C256.143 255.465 246.633 252.554 239.618 247.185C238.881 245.652 238.656 244.206 238.689 242.805C231.52 240.752 224.516 247.789 225.958 255.77C227.127 262.247 237.354 267.41 237.354 267.41" fill="white"/>
<path d="M237.353 268.672C237.163 268.672 236.969 268.629 236.787 268.537C236.347 268.314 225.985 263.01 224.718 255.995C223.919 251.568 225.406 247.144 228.696 244.16C231.641 241.489 235.408 240.552 239.035 241.591C239.586 241.748 239.962 242.26 239.948 242.834C239.918 244.115 240.135 245.247 240.63 246.369C244.181 249.034 248.407 251.1 252.497 253.099C256.378 254.996 260.043 256.787 263.041 259.011C263.6 259.425 263.718 260.216 263.304 260.776C262.89 261.336 262.101 261.453 261.542 261.039C258.73 258.954 255.166 257.212 251.392 255.367C247.096 253.267 242.654 251.096 238.853 248.187C238.696 248.067 238.569 247.911 238.483 247.732C237.882 246.48 237.541 245.19 237.451 243.815C234.959 243.397 232.428 244.18 230.387 246.031C227.786 248.39 226.564 252.036 227.198 255.545C228.241 261.323 237.825 266.234 237.922 266.283C238.543 266.597 238.792 267.356 238.479 267.978C238.257 268.418 237.814 268.672 237.353 268.672L237.353 268.672Z" fill="#3375E0"/>
<path d="M121.121 322.383C123.514 321.907 125.95 320.979 128.422 319.599C140.58 312.816 155.921 317.191 162.69 329.371C169.46 341.55 165.094 356.922 152.938 363.704C143.638 368.894 133.982 371.987 124.124 372.945" fill="white"/>
<path d="M124.12 374.208C123.48 374.208 122.931 373.72 122.868 373.068C122.801 372.374 123.308 371.757 124 371.689C133.674 370.749 143.203 367.691 152.323 362.602C157.909 359.486 161.948 354.376 163.698 348.216C165.448 342.055 164.699 335.581 161.588 329.985C155.167 318.433 140.564 314.268 129.034 320.702C126.46 322.138 123.879 323.12 121.365 323.621C120.683 323.756 120.02 323.313 119.884 322.629C119.748 321.945 120.191 321.281 120.874 321.145C123.131 320.696 125.464 319.805 127.808 318.496C140.552 311.386 156.693 315.988 163.79 328.756C170.887 341.524 166.293 357.697 153.549 364.807C144.124 370.066 134.265 373.227 124.244 374.202C124.202 374.206 124.161 374.208 124.12 374.208V374.208Z" fill="#3375E0"/>
<path d="M129.848 318.862C139.494 313.408 147.966 309.846 154.588 310.362C159.371 310.734 174.208 318.314 176.898 320.666C184.521 327.329 175.709 335.831 165.004 330.824C158.523 327.792 147.503 332.769 147.503 332.769" fill="white"/>
<path d="M147.504 334.032C147.024 334.032 146.565 333.755 146.355 333.287C146.069 332.652 146.351 331.905 146.985 331.619C147.457 331.406 158.612 326.441 165.537 329.68C171.183 332.321 176.092 330.879 177.845 328.182C179.165 326.15 178.518 323.757 176.07 321.617C173.572 319.433 158.997 311.971 154.49 311.62C148.928 311.187 141.296 313.838 130.467 319.961C129.861 320.304 129.092 320.089 128.751 319.482C128.409 318.875 128.623 318.105 129.229 317.763C140.669 311.294 148.517 308.622 154.685 309.104C159.731 309.497 174.839 317.191 177.726 319.715C181.782 323.26 181.538 327.125 179.956 329.559C177.625 333.148 171.405 335.211 164.472 331.968C158.594 329.219 148.126 333.873 148.021 333.92C147.853 333.995 147.677 334.031 147.504 334.031L147.504 334.032Z" fill="#3375E0"/>
<path d="M140.545 329.53C145.108 327.425 159.698 322.413 166.662 324.064C172.417 325.429 181.912 339.531 183.404 344.236C185.939 352.236 172.488 353.978 166.043 345.107C161.498 338.852 153.534 346.054 153.534 346.054" fill="white"/>
<path d="M177.216 352.292C173.063 352.292 168.189 350.206 165.024 345.85C164.141 344.634 163.087 343.977 161.802 343.842C158.334 343.474 154.416 346.957 154.376 346.992C153.859 347.457 153.063 347.416 152.598 346.898C152.133 346.381 152.174 345.584 152.69 345.118C152.883 344.943 157.463 340.853 162.057 341.331C164.067 341.54 165.751 342.561 167.061 344.365C171.003 349.789 177.518 350.591 180.514 349.072C181.733 348.454 183.015 347.18 182.204 344.618C180.655 339.733 171.265 326.453 166.372 325.293C159.961 323.773 145.868 328.465 141.072 330.677C140.44 330.969 139.692 330.691 139.401 330.059C139.11 329.426 139.386 328.676 140.018 328.384C144.581 326.28 159.439 321.055 166.952 322.837C173.489 324.387 183.191 339.395 184.604 343.854C185.626 347.077 184.522 349.869 181.651 351.324C180.386 351.966 178.857 352.292 177.216 352.292Z" fill="#3375E0"/>
<path d="M146.387 343.446C150.388 342.267 160.874 339.795 167.045 342.215C172.384 344.309 178.472 350.157 180.936 352.801C186.017 358.252 178.622 366.337 170.286 362.165C163.647 358.842 159.408 359.824 152.938 363.704" fill="white"/>
<path d="M152.938 364.966C152.509 364.966 152.091 364.747 151.856 364.352C151.498 363.754 151.692 362.979 152.289 362.621C158.844 358.689 163.514 357.364 170.848 361.035C175.04 363.133 178.729 361.702 180.381 359.485C181.789 357.596 181.652 355.419 180.014 353.662C179.261 352.854 172.489 345.705 166.584 343.39C161.662 341.46 152.819 342.866 146.74 344.656C146.073 344.853 145.373 344.47 145.176 343.801C144.98 343.133 145.362 342.431 146.03 342.235C148.368 341.546 160.394 338.251 167.502 341.039C173.791 343.505 180.562 350.551 181.855 351.939C184.318 354.581 184.532 358.136 182.4 360.996C180.141 364.028 175.209 366.04 169.722 363.293C163.357 360.107 159.599 361.179 153.583 364.787C153.381 364.908 153.158 364.966 152.938 364.966Z" fill="#3375E0"/>
</g>
</svg>
