<svg width="82" height="82" viewBox="0 0 82 82" fill="none" xmlns="http://www.w3.org/2000/svg">
<g id="icons8-result 1">
<path id="Vector" d="M61.4738 14.7935H22.1641V65.5685H61.4738V14.7935Z" fill="#4B4DFF"/>
<path id="Vector_2" d="M63.9304 67.2063H19.707V11.5176H63.9304V67.2063ZM24.6207 62.2926H59.0167V16.4313H24.6207V62.2926Z" fill="#4343BF"/>
<path id="Vector_3" d="M67.2066 70.4825H24.6211V62.2929H59.0171V16.4316H67.2066V70.4825Z" fill="#3ABCF8"/>
<path id="Vector_4" d="M50.8274 11.5176H33.6294V19.7071H50.8274V11.5176Z" fill="#FF8405"/>
<path id="Vector_5" d="M40.1809 33.6294H30.3535V36.9052H40.1809V33.6294Z" fill="#EDF7F5"/>
<path id="Vector_6" d="M40.1809 47.5518H30.3535V50.8276H40.1809V47.5518Z" fill="#EDF7F5"/>
<path id="Vector_7" d="M49.044 37.4369L44.0435 33.2471L46.1465 30.7362L48.7213 32.8925L51.247 30.0786L53.6842 32.2669L49.044 37.4369Z" fill="#EDF7F5"/>
<path id="Vector_8" d="M49.044 51.3588L44.0435 47.169L46.1465 44.6581L48.7213 46.8144L51.247 44.0005L53.6842 46.1887L49.044 51.3588Z" fill="#EDF7F5"/>
</g>
</svg>
