<svg width="998" height="1085" viewBox="0 0 998 1085" fill="none" xmlns="http://www.w3.org/2000/svg">
<path d="M908.271 871.237L998 978.121C940.664 1047.72 858.431 1085.01 762.499 1085.01C632.925 1085.01 541.991 1037.78 407.419 896.091C168.171 866.266 0 686.053 0 449.91C0 191.398 201.813 0 477.204 0C751.3 0 954.362 190.155 954.362 449.91C954.362 653.735 828.536 815.307 642.875 874.963C685.263 919.708 722.61 935.864 766.247 935.864C819.791 935.864 867.176 914.736 908.271 871.237ZM204.312 449.91C204.312 615.208 321.438 728.31 477.204 728.31C632.925 728.31 750.05 615.208 750.05 449.91C750.05 284.612 632.925 171.513 477.204 171.513C321.438 171.513 204.312 284.612 204.312 449.91Z" fill="white"/>
</svg>
