<svg width="607" height="432" viewBox="0 0 607 432" fill="none" xmlns="http://www.w3.org/2000/svg">
<g clip-path="url(#clip0_2103_4690)">
<path d="M516.519 48.981H87.59C73.2181 48.981 61.5674 60.6017 61.5674 74.9366V375.676C61.5674 390.011 73.2181 401.632 87.59 401.632H516.519C530.891 401.632 542.542 390.011 542.542 375.676V74.9366C542.542 60.6017 530.891 48.981 516.519 48.981Z" fill="white"/>
<path d="M516.52 402.785H87.5903C72.6036 402.785 60.4111 390.624 60.4111 375.676V74.9364C60.4111 59.9882 72.6036 47.8271 87.5903 47.8271H516.52C531.506 47.8271 543.699 59.9882 543.699 74.9364V375.676C543.699 390.624 531.506 402.785 516.52 402.785ZM87.5903 50.1343C73.879 50.1343 62.7243 61.2606 62.7243 74.9364V375.676C62.7243 389.352 73.8793 400.478 87.5903 400.478H516.52C530.231 400.478 541.386 389.352 541.386 375.676V74.9364C541.386 61.2606 530.231 50.1343 516.52 50.1343H87.5903Z" fill="#2D2D2D"/>
<path d="M87.59 48.981H516.519C530.881 48.981 542.542 60.6114 542.542 74.9366V77.9621H61.5674V74.9366C61.5674 60.6114 73.2278 48.981 87.59 48.981Z" fill="#00B2FF"/>
<path d="M542.542 79.1155H61.5677C61.261 79.1155 60.9668 78.994 60.7499 78.7776C60.533 78.5613 60.4111 78.2679 60.4111 77.9619V74.9364C60.4111 59.9885 72.6036 47.8271 87.5903 47.8271H516.52C531.506 47.8271 543.699 59.9882 543.699 74.9364V77.9619C543.699 78.2679 543.577 78.5613 543.36 78.7776C543.143 78.994 542.849 79.1155 542.542 79.1155ZM62.7243 76.8083H541.386V74.9364C541.386 61.2606 530.231 50.1343 516.52 50.1343H87.5903C73.879 50.1343 62.7243 61.2606 62.7243 74.9364V76.8083Z" fill="#2D2D2D"/>
<path d="M516.519 401.632H87.59C73.2278 401.632 61.5674 390.001 61.5674 375.676V372.65H542.542V375.676C542.542 390.001 530.881 401.632 516.519 401.632Z" fill="#00B2FF"/>
<path d="M516.52 402.785H87.5903C72.6036 402.785 60.4111 390.624 60.4111 375.676V372.65C60.4111 372.344 60.533 372.051 60.7499 371.834C60.9668 371.618 61.261 371.497 61.5677 371.497H542.542C542.849 371.497 543.143 371.618 543.36 371.834C543.577 372.051 543.699 372.344 543.699 372.65V375.676C543.699 390.624 531.506 402.785 516.52 402.785ZM62.7243 373.804V375.676C62.7243 389.352 73.8793 400.478 87.5903 400.478H516.52C530.231 400.478 541.386 389.352 541.386 375.676V373.804H62.7243Z" fill="#2D2D2D"/>
<path d="M121.757 387.141L109.152 394.4V379.882L121.757 387.141Z" fill="white"/>
<path d="M109.153 395.553C108.846 395.553 108.552 395.431 108.335 395.215C108.118 394.998 107.996 394.705 107.996 394.399V379.882C107.996 379.679 108.049 379.48 108.151 379.305C108.252 379.129 108.398 378.984 108.574 378.883C108.75 378.781 108.949 378.728 109.153 378.728C109.356 378.728 109.555 378.782 109.731 378.883L122.336 386.142C122.512 386.243 122.658 386.388 122.759 386.564C122.861 386.739 122.915 386.938 122.915 387.141C122.915 387.343 122.861 387.542 122.759 387.718C122.658 387.893 122.512 388.039 122.336 388.14L109.731 395.398C109.555 395.499 109.356 395.553 109.153 395.553ZM110.309 381.88V392.401L119.444 387.141L110.309 381.88Z" fill="#2D2D2D"/>
<path d="M125.623 379.882H130.85V394.399H125.623V379.882Z" fill="white"/>
<path d="M130.85 395.553H125.622C125.316 395.553 125.021 395.431 124.805 395.215C124.588 394.998 124.466 394.705 124.466 394.399V379.882C124.466 379.576 124.588 379.283 124.805 379.066C125.021 378.85 125.316 378.729 125.622 378.729H130.85C131.156 378.729 131.451 378.85 131.668 379.066C131.884 379.283 132.006 379.576 132.006 379.882V394.399C132.006 394.705 131.884 394.998 131.668 395.215C131.451 395.431 131.156 395.553 130.85 395.553ZM126.779 393.246H129.693V381.036H126.779V393.246Z" fill="#2D2D2D"/>
<path d="M94.4707 379.882H99.6978V394.399H94.4707V379.882Z" fill="white"/>
<path d="M99.6971 395.553H94.47C94.1633 395.553 93.8691 395.431 93.6522 395.215C93.4353 394.998 93.3135 394.705 93.3135 394.399V379.882C93.3135 379.576 93.4353 379.283 93.6522 379.066C93.8691 378.85 94.1633 378.729 94.47 378.729H99.6971C100.004 378.729 100.298 378.85 100.515 379.066C100.732 379.283 100.854 379.576 100.854 379.882V394.399C100.854 394.705 100.732 394.998 100.515 395.215C100.298 395.431 100.004 395.553 99.6971 395.553ZM95.6266 393.246H98.5406V381.036H95.6266V393.246Z" fill="#2D2D2D"/>
<path d="M85.3779 379.882H90.605V394.399H85.3779V379.882Z" fill="white"/>
<path d="M90.6046 395.553H85.3773C85.0705 395.553 84.7763 395.431 84.5595 395.215C84.3426 394.998 84.2207 394.705 84.2207 394.399V379.882C84.2207 379.576 84.3426 379.283 84.5595 379.066C84.7763 378.85 85.0705 378.729 85.3773 378.729H90.6046C90.9114 378.729 91.2055 378.85 91.4224 379.066C91.6393 379.283 91.7612 379.576 91.7612 379.882V394.399C91.7612 394.705 91.6393 394.998 91.4224 395.215C91.2055 395.431 90.9114 395.553 90.6046 395.553ZM86.5341 393.246H89.4484V381.036H86.5341V393.246ZM490.078 388.294H144.95C144.643 388.294 144.349 388.173 144.132 387.956C143.916 387.74 143.794 387.447 143.794 387.141C143.794 386.835 143.916 386.541 144.132 386.325C144.349 386.109 144.643 385.987 144.95 385.987H490.078C490.385 385.987 490.679 386.109 490.896 386.325C491.113 386.541 491.234 386.835 491.234 387.141C491.234 387.447 491.113 387.74 490.896 387.956C490.679 388.173 490.384 388.294 490.078 388.294Z" fill="#2D2D2D"/>
<path d="M249.473 391.227C251.736 391.227 253.57 389.398 253.57 387.141C253.57 384.884 251.736 383.054 249.473 383.054C247.21 383.054 245.376 384.884 245.376 387.141C245.376 389.398 247.21 391.227 249.473 391.227Z" fill="#2D2D2D"/>
<path d="M249.473 392.381C246.576 392.381 244.22 390.03 244.22 387.141C244.22 384.251 246.576 381.901 249.473 381.901C252.37 381.901 254.727 384.251 254.727 387.141C254.727 390.03 252.37 392.381 249.473 392.381ZM249.473 384.208C247.852 384.208 246.533 385.523 246.533 387.141C246.533 388.758 247.852 390.073 249.473 390.073C251.094 390.073 252.414 388.758 252.414 387.141C252.414 385.524 251.095 384.208 249.473 384.208ZM504.178 386.371C503.871 386.371 503.577 386.25 503.36 386.033C503.143 385.817 503.021 385.524 503.021 385.218V379.882C503.021 379.576 503.143 379.283 503.36 379.066C503.577 378.85 503.871 378.729 504.178 378.729H509.527C509.834 378.729 510.128 378.85 510.345 379.066C510.562 379.283 510.684 379.576 510.684 379.882C510.684 380.188 510.562 380.481 510.345 380.698C510.128 380.914 509.834 381.036 509.527 381.036H505.334V385.218C505.334 385.524 505.213 385.817 504.996 386.033C504.779 386.25 504.485 386.371 504.178 386.371ZM509.527 395.553H504.178C503.871 395.553 503.577 395.431 503.36 395.215C503.143 394.998 503.021 394.705 503.021 394.399V389.063C503.021 388.758 503.143 388.464 503.36 388.248C503.577 388.031 503.871 387.91 504.178 387.91C504.485 387.91 504.779 388.031 504.996 388.248C505.213 388.464 505.334 388.758 505.334 389.063V393.246H509.527C509.834 393.246 510.128 393.367 510.345 393.583C510.562 393.8 510.684 394.093 510.684 394.399C510.684 394.705 510.562 394.998 510.345 395.215C510.128 395.431 509.834 395.553 509.527 395.553ZM518.732 395.553H513.383C513.076 395.553 512.782 395.431 512.565 395.215C512.348 394.998 512.226 394.705 512.226 394.399C512.226 394.093 512.348 393.8 512.565 393.583C512.782 393.367 513.076 393.246 513.383 393.246H517.576V389.063C517.576 388.758 517.698 388.464 517.915 388.248C518.131 388.031 518.426 387.91 518.732 387.91C519.039 387.91 519.333 388.031 519.55 388.248C519.767 388.464 519.889 388.758 519.889 389.063V394.399C519.889 394.705 519.767 394.998 519.55 395.215C519.333 395.431 519.039 395.553 518.732 395.553ZM518.732 386.371C518.426 386.371 518.131 386.25 517.915 386.033C517.698 385.817 517.576 385.524 517.576 385.218V381.036H513.383C513.076 381.036 512.782 380.914 512.565 380.698C512.348 380.481 512.226 380.188 512.226 379.882C512.226 379.576 512.348 379.283 512.565 379.066C512.782 378.85 513.076 378.729 513.383 378.729H518.732C519.039 378.729 519.333 378.85 519.55 379.066C519.767 379.283 519.889 379.576 519.889 379.882V385.218C519.889 385.524 519.767 385.817 519.55 386.033C519.333 386.25 519.039 386.371 518.732 386.371Z" fill="#2D2D2D"/>
<path d="M84.7885 69.2304C87.9773 69.2304 90.5623 66.652 90.5623 63.4714C90.5623 60.2908 87.9773 57.7124 84.7885 57.7124C81.5997 57.7124 79.0146 60.2908 79.0146 63.4714C79.0146 66.652 81.5997 69.2304 84.7885 69.2304Z" fill="white"/>
<path d="M84.7878 70.3837C80.9665 70.3837 77.8574 67.2829 77.8574 63.4712C77.8574 59.6594 80.9663 56.5586 84.7878 56.5586C88.6094 56.5586 91.7179 59.6594 91.7179 63.4712C91.7179 67.2829 88.6091 70.3837 84.7878 70.3837ZM84.7878 58.866C82.2419 58.866 80.1705 60.9321 80.1705 63.4714C80.1705 66.0108 82.2419 68.0768 84.7878 68.0768C87.3337 68.0768 89.4048 66.0108 89.4048 63.4714C89.4048 60.9321 87.3334 58.866 84.7878 58.866Z" fill="#2D2D2D"/>
<path d="M103.314 69.2304C106.503 69.2304 109.088 66.652 109.088 63.4714C109.088 60.2908 106.503 57.7124 103.314 57.7124C100.125 57.7124 97.54 60.2908 97.54 63.4714C97.54 66.652 100.125 69.2304 103.314 69.2304Z" fill="white"/>
<path d="M103.314 70.3837C99.4929 70.3837 96.3838 67.2829 96.3838 63.4712C96.3838 59.6594 99.4926 56.5586 103.314 56.5586C107.136 56.5586 110.244 59.6594 110.244 63.4712C110.244 67.2829 107.135 70.3837 103.314 70.3837ZM103.314 58.866C100.768 58.866 98.6969 60.9321 98.6969 63.4714C98.6969 66.0108 100.768 68.0768 103.314 68.0768C105.86 68.0768 107.931 66.0108 107.931 63.4714C107.931 60.9321 105.86 58.866 103.314 58.866Z" fill="#2D2D2D"/>
<path d="M121.84 69.2304C125.029 69.2304 127.614 66.652 127.614 63.4714C127.614 60.2908 125.029 57.7124 121.84 57.7124C118.651 57.7124 116.066 60.2908 116.066 63.4714C116.066 66.652 118.651 69.2304 121.84 69.2304Z" fill="white"/>
<path d="M121.84 70.3837C118.018 70.3837 114.909 67.2829 114.909 63.4712C114.909 59.6594 118.018 56.5586 121.84 56.5586C125.661 56.5586 128.77 59.6594 128.77 63.4712C128.77 67.2829 125.661 70.3837 121.84 70.3837ZM121.84 58.866C119.294 58.866 117.222 60.9321 117.222 63.4714C117.222 66.0108 119.294 68.0768 121.84 68.0768C124.385 68.0768 126.457 66.0108 126.457 63.4714C126.457 60.9321 124.385 58.866 121.84 58.866Z" fill="#2D2D2D"/>
</g>
<g clip-path="url(#clip1_2103_4690)">
<path d="M79.4883 265.812H321.999V309.722H79.4883V265.812Z" fill="white"/>
<path d="M321.998 310.876H79.4886C79.1818 310.876 78.8877 310.755 78.6708 310.538C78.4539 310.322 78.332 310.028 78.332 309.722V265.812C78.332 265.506 78.4539 265.212 78.6708 264.996C78.8877 264.779 79.1818 264.658 79.4886 264.658H321.998C322.305 264.658 322.599 264.779 322.816 264.996C323.033 265.212 323.155 265.506 323.155 265.812V309.722C323.155 310.028 323.033 310.322 322.816 310.538C322.599 310.755 322.305 310.876 321.998 310.876ZM80.6451 308.568H320.842V266.966H80.6451V308.568Z" fill="#2D2D2D"/>
<path d="M148.466 294.332C148.139 294.332 147.81 294.242 147.48 294.042C146.401 293.39 146.084 291.911 145.749 290.345C145.614 289.717 145.377 288.612 145.13 288.194C144.346 288.469 143.396 289.691 142.546 290.784C141.532 292.087 140.484 293.435 139.173 294.088C139.013 294.167 138.836 294.209 138.657 294.209C136.594 294.209 135.584 292.099 134.772 290.403C134.469 289.772 133.762 288.295 133.416 288.253C132.591 288.153 131.63 289.656 130.777 290.982C130.101 292.033 129.402 293.118 128.554 293.812C128.38 293.954 128.169 294.043 127.945 294.067C127.721 294.091 127.495 294.05 127.295 293.948C127.095 293.846 126.928 293.687 126.817 293.492C126.705 293.297 126.653 293.074 126.667 292.85C126.755 291.381 126.82 289.78 126.889 288.085C126.976 285.956 127.067 283.696 127.218 281.304C124.774 287.246 121.544 292.956 117.459 293.548C115.032 293.899 112.675 292.481 110.451 289.332C110.275 289.082 110.205 288.772 110.257 288.47C110.31 288.169 110.48 287.9 110.73 287.724C110.981 287.548 111.292 287.478 111.594 287.53C111.896 287.582 112.165 287.752 112.342 288.002C114.023 290.383 115.632 291.479 117.127 291.264C121.855 290.579 126.086 278.076 128.119 272.068L128.14 272.007C128.231 271.735 128.421 271.507 128.673 271.367C128.924 271.227 129.219 271.187 129.499 271.252C129.779 271.318 130.024 271.485 130.188 271.721C130.351 271.957 130.42 272.246 130.382 272.53C129.6 278.351 129.388 283.572 129.201 288.179L129.158 289.23C130.302 287.479 131.631 285.711 133.694 285.962C135.302 286.156 136.094 287.81 136.859 289.409C137.304 290.338 137.893 291.569 138.441 291.845C139.19 291.335 139.966 290.338 140.719 289.369C142.053 287.654 143.433 285.88 145.359 285.83C145.457 285.827 145.559 285.838 145.656 285.861C147.233 286.235 147.628 288.079 148.01 289.862C148.146 290.495 148.36 291.494 148.586 291.921C149.169 291.563 150.243 290.273 150.915 289.468C152.128 288.011 153.176 286.753 154.251 286.401C157.7 285.271 159.357 287.077 160.818 288.669C162.897 290.935 165.254 293.503 174.855 289.121C175.134 288.994 175.453 288.983 175.74 289.09C176.027 289.196 176.26 289.413 176.388 289.691C176.516 289.97 176.527 290.287 176.42 290.574C176.313 290.861 176.096 291.094 175.817 291.221C164.685 296.301 161.464 292.791 159.113 290.229C157.752 288.746 157.002 287.929 154.973 288.595C154.526 288.745 153.379 290.121 152.693 290.944C151.249 292.677 149.869 294.333 148.466 294.333L148.466 294.332ZM266.269 299.283C266.085 299.283 265.904 299.239 265.741 299.155C265.577 299.072 265.436 298.951 265.329 298.802C264.83 298.108 264.472 296.879 265.6 294.961C266.511 293.411 268.296 291.602 270.33 290.028C269.456 289.128 268.114 288.498 266.36 288.498C266.334 288.498 266.308 288.498 266.282 288.499C264.426 288.518 262.581 290.477 261.098 292.051C259.638 293.601 258.377 294.939 256.998 294.098C256.232 293.655 255.92 292.714 255.559 291.623C255.222 290.605 254.841 289.452 254.114 288.8C253.838 288.551 253.625 288.533 253.458 288.548C252.133 288.665 250.19 291.158 249.029 292.647C248.783 292.965 248.534 293.28 248.281 293.591C248.211 293.821 248.072 294.023 247.882 294.17C247.692 294.317 247.461 294.401 247.221 294.411C246.981 294.421 246.743 294.355 246.542 294.224C246.341 294.093 246.185 293.903 246.097 293.68C244.699 290.129 241.995 287.766 239.543 287.946C239.074 287.979 238.294 289.191 237.777 289.994C237.245 290.821 236.694 291.677 236.023 292.252C234.993 293.136 233.953 293.511 232.926 293.368C231.139 293.119 230.029 291.437 229.049 289.954C228.615 289.295 228.074 288.476 227.729 288.276C226.972 287.835 225.607 289.475 224.512 290.792C223.635 291.846 222.807 292.842 221.905 293.375C219.052 295.06 216.602 292.723 214.442 290.661C212.941 289.228 211.39 287.751 209.995 287.806C209.504 287.827 208.747 288.79 208.079 289.639C206.816 291.246 205.086 293.447 202.201 293.536L202.165 293.536C201.861 293.536 201.57 293.416 201.354 293.204C201.138 292.991 201.015 292.702 201.01 292.399C201.005 292.097 201.12 291.804 201.33 291.585C201.539 291.366 201.827 291.238 202.13 291.228C203.934 291.173 205.116 289.669 206.26 288.215C207.33 286.853 208.34 285.567 209.895 285.5C212.265 285.395 214.189 287.226 216.041 288.993C218.12 290.978 219.473 292.129 220.727 291.389C221.283 291.06 222.02 290.175 222.731 289.319C224.297 287.435 226.443 284.856 228.893 286.282C229.707 286.755 230.326 287.692 230.981 288.684C231.656 289.706 232.495 290.978 233.247 291.083C233.588 291.13 234.012 290.934 234.515 290.502C234.931 290.146 235.389 289.435 235.832 288.747C236.733 287.346 237.755 285.759 239.379 285.644C242.396 285.433 245.445 287.526 247.384 290.999C248.937 289.01 251.014 286.446 253.255 286.249C254.135 286.169 254.968 286.459 255.663 287.084C256.845 288.147 257.35 289.673 257.756 290.899C257.852 291.188 257.969 291.542 258.077 291.81C258.455 291.487 258.991 290.918 259.413 290.47C261.102 288.677 263.416 286.221 266.257 286.191C268.937 286.17 270.954 287.202 272.234 288.675C274.684 287.081 277.21 285.999 278.864 286.186C279.894 286.303 280.651 286.898 280.941 287.818C281.645 290.055 282.812 291.529 284.061 291.761C285.465 292.021 287.236 290.866 289.187 288.42C289.281 288.302 289.399 288.203 289.531 288.129C289.664 288.056 289.81 288.009 289.961 287.992C290.112 287.975 290.265 287.988 290.411 288.03C290.557 288.072 290.693 288.142 290.812 288.236C290.931 288.331 291.03 288.448 291.103 288.58C291.177 288.713 291.224 288.858 291.241 289.009C291.258 289.16 291.245 289.312 291.203 289.458C291.161 289.603 291.091 289.739 290.996 289.858C288.442 293.06 285.965 294.463 283.638 294.031C281.47 293.628 279.728 291.668 278.734 288.51C278.733 288.507 278.733 288.505 278.734 288.504C278.145 288.207 275.901 289.049 273.425 290.657C273.656 291.262 273.79 291.899 273.821 292.546C273.959 295.591 271.706 298.854 266.362 299.279C266.331 299.281 266.3 299.282 266.27 299.282L266.269 299.283ZM271.439 292.085C270.543 292.798 269.664 293.597 268.87 294.464C267.889 295.536 267.429 296.331 267.255 296.838C270.484 296.242 271.583 294.275 271.509 292.649C271.501 292.462 271.478 292.273 271.439 292.085V292.085Z" fill="#2D2D2D"/>
<path d="M99.5498 221.902H301.937V265.812H99.5498V221.902Z" fill="white"/>
<path d="M301.938 266.966H99.5501C99.2434 266.966 98.9492 266.845 98.7323 266.628C98.5154 266.412 98.3936 266.118 98.3936 265.812V221.902C98.3936 221.596 98.5154 221.303 98.7323 221.086C98.9492 220.87 99.2434 220.748 99.5501 220.748H301.938C302.244 220.748 302.539 220.87 302.755 221.086C302.972 221.303 303.094 221.596 303.094 221.902V265.812C303.094 266.118 302.972 266.412 302.755 266.628C302.539 266.845 302.245 266.966 301.938 266.966ZM100.707 264.658H300.781V223.056H100.707V264.658Z" fill="#2D2D2D"/>
<path d="M139.054 250.456C136.542 250.456 134.364 249.762 132.678 248.407C129.828 246.12 127.984 242.528 127.865 239.034C127.769 236.221 128.788 233.683 130.736 231.887C132.302 230.445 134.387 229.908 136.455 230.414C137.521 230.673 138.506 231.193 139.322 231.926C140.137 232.66 140.757 233.584 141.127 234.615C141.18 234.758 141.205 234.911 141.2 235.064C141.194 235.217 141.158 235.367 141.093 235.506C141.029 235.644 140.937 235.769 140.824 235.872C140.711 235.976 140.579 236.055 140.434 236.107C140.29 236.159 140.137 236.181 139.984 236.173C139.831 236.165 139.681 236.127 139.543 236.061C139.405 235.995 139.281 235.902 139.179 235.787C139.077 235.673 138.999 235.54 138.95 235.395C138.709 234.722 138.305 234.12 137.773 233.642C137.242 233.164 136.599 232.825 135.904 232.656C134.602 232.338 133.291 232.676 132.305 233.584C130.453 235.291 130.125 237.447 130.177 238.956C130.274 241.798 131.788 244.73 134.128 246.609C136.167 248.246 138.854 248.286 140.749 248.029C144.712 247.495 148.975 245.189 150.885 242.547C150.989 242.403 151.125 242.284 151.282 242.201C151.439 242.118 151.614 242.073 151.792 242.068C151.969 242.063 152.146 242.099 152.308 242.173C152.469 242.247 152.611 242.358 152.723 242.497C153.225 243.117 153.671 243.961 154.143 244.854C154.895 246.276 155.92 248.204 156.815 248.113C157.174 247.812 157.925 246.598 158.382 245.859C159.647 243.814 160.562 242.335 161.875 242.335H161.89C163.929 242.352 164.873 244.264 165.632 245.801C166.126 246.801 166.686 247.934 167.327 248.101C168.129 248.31 169.051 247.264 170.268 245.763C171.571 244.156 173.047 242.335 175.15 242.335C177.311 242.335 178.491 243.87 179.533 245.224C180.892 246.992 181.966 248.388 185.066 247.513C185.358 247.439 185.669 247.481 185.93 247.631C186.192 247.782 186.384 248.028 186.466 248.318C186.549 248.608 186.514 248.919 186.37 249.183C186.226 249.448 185.983 249.646 185.695 249.735C181.087 251.034 179.128 248.489 177.698 246.63C176.722 245.361 176.123 244.643 175.15 244.643C174.151 244.643 173.091 245.951 172.066 247.215C170.652 248.959 169.049 250.936 166.743 250.335C165.079 249.902 164.271 248.265 163.558 246.822C163.075 245.844 162.577 244.837 162.025 244.668C161.606 245.042 160.83 246.297 160.35 247.072C159.162 248.993 158.441 250.093 157.46 250.338C154.784 251.009 153.229 248.074 152.097 245.932C151.962 245.675 151.825 245.419 151.686 245.163C149.162 247.742 145.034 249.781 141.059 250.317C140.394 250.408 139.724 250.455 139.054 250.456ZM250.845 250.375C248.603 250.375 246.796 248.591 245.046 246.865C243.054 244.899 241.763 243.757 240.587 244.474C240.054 244.799 239.343 245.683 238.655 246.538C237.129 248.436 235.038 251.033 232.621 249.581C231.827 249.105 231.228 248.166 230.593 247.172C229.943 246.153 229.132 244.885 228.429 244.787C228.049 244.735 227.581 245.068 227.255 245.357C226.953 245.624 226.546 246.031 226.114 246.461C224.045 248.525 222.338 250.113 220.782 250.227C217.954 250.434 215.097 248.495 213.209 245.243C212.422 246.929 211.142 249.107 207.967 250.298C207.681 250.401 207.366 250.388 207.09 250.26C206.814 250.133 206.599 249.903 206.492 249.619C206.385 249.335 206.394 249.02 206.518 248.743C206.642 248.465 206.87 248.248 207.153 248.138C209.844 247.129 210.663 245.287 211.387 243.663C211.672 243.022 211.941 242.417 212.31 241.923C212.434 241.757 212.6 241.628 212.791 241.548C212.982 241.468 213.192 241.441 213.397 241.469C213.602 241.498 213.796 241.581 213.958 241.71C214.12 241.839 214.245 242.009 214.318 242.203C215.667 245.745 218.251 248.095 220.613 247.925C221.435 247.865 223.492 245.814 224.48 244.828C224.956 244.354 225.367 243.944 225.719 243.632C226.722 242.742 227.741 242.362 228.749 242.502C230.51 242.746 231.591 244.439 232.545 245.932C232.964 246.589 233.487 247.407 233.815 247.604C234.498 248.018 235.86 246.328 236.852 245.094C237.701 244.038 238.503 243.041 239.381 242.505C242.185 240.794 244.674 243.25 246.673 245.224C248.09 246.622 249.554 248.067 250.855 248.067C250.88 248.067 250.906 248.066 250.932 248.065C251.379 248.045 252.137 247.048 252.746 246.247C253.973 244.634 255.652 242.425 258.472 242.336C260.779 242.259 262.595 243.658 264.35 245.009C267.159 247.17 268.888 248.281 271.752 245.999C271.87 245.905 272.007 245.835 272.153 245.792C272.299 245.75 272.451 245.737 272.602 245.754C272.753 245.771 272.899 245.818 273.032 245.891C273.165 245.964 273.283 246.063 273.377 246.181C273.472 246.3 273.543 246.436 273.585 246.581C273.627 246.727 273.64 246.879 273.623 247.03C273.606 247.181 273.559 247.326 273.486 247.459C273.413 247.592 273.314 247.709 273.195 247.803C268.773 251.327 265.537 248.837 262.937 246.837C261.471 245.709 260.084 244.641 258.638 244.641C258.607 244.641 258.576 244.642 258.545 244.643C256.828 244.697 255.69 246.194 254.589 247.642C253.549 249.01 252.566 250.303 251.035 250.371C250.972 250.374 250.908 250.375 250.846 250.375L250.845 250.375Z" fill="#2D2D2D"/>
<path d="M121.663 178.057H279.824V221.967H121.663V178.057Z" fill="white"/>
<path d="M279.825 223.121H121.663C121.357 223.121 121.062 223 120.846 222.783C120.629 222.567 120.507 222.273 120.507 221.967V178.057C120.507 177.751 120.629 177.457 120.846 177.241C121.062 177.024 121.357 176.903 121.663 176.903H279.825C280.132 176.903 280.426 177.024 280.643 177.241C280.86 177.457 280.982 177.751 280.982 178.057V221.967C280.982 222.273 280.86 222.567 280.643 222.783C280.426 223 280.132 223.121 279.825 223.121H279.825ZM122.82 220.813H278.669V179.211H122.82V220.813Z" fill="#2D2D2D"/>
<path d="M205.301 204.509C205.288 204.509 205.275 204.509 205.261 204.508C201.499 204.381 199.697 203.298 197.955 202.251C196.8 201.558 195.607 200.841 193.703 200.318C193.043 200.138 191.196 201.061 189.709 201.802C186.775 203.266 183.45 204.926 180.584 203.809C179.544 203.404 178.675 202.663 177.987 201.597C176.119 203.467 173.699 204.441 171.145 204.316C169.319 204.227 167.566 203.578 166.123 202.458C164.113 203.703 161.59 204.433 158.865 204.487C154.891 204.564 151.428 203.231 149.269 200.856C147.228 201.658 145.491 202.11 145.008 202.23C144.861 202.266 144.707 202.273 144.557 202.251C144.407 202.228 144.263 202.176 144.133 202.098C144.003 202.019 143.889 201.916 143.799 201.794C143.709 201.672 143.644 201.534 143.607 201.387C143.571 201.24 143.564 201.087 143.586 200.937C143.609 200.787 143.661 200.643 143.739 200.513C143.818 200.383 143.921 200.27 144.043 200.18C144.166 200.09 144.304 200.025 144.452 199.989C145.529 199.722 146.739 199.35 147.951 198.89C147.112 196.953 147.216 194.57 148.259 192.587C149.296 190.617 151.053 189.413 153.077 189.284C155.034 189.158 156.859 190.148 157.503 191.688C157.531 191.754 157.552 191.822 157.567 191.891C158.343 195.517 154.997 198.149 151.546 199.854C153.282 201.369 155.907 202.24 158.818 202.179C160.923 202.137 162.869 201.633 164.45 200.769C164.188 200.426 163.95 200.066 163.738 199.69C163.724 199.665 163.711 199.64 163.699 199.615C162.973 198.075 163.265 196.614 164.481 195.707C165.858 194.677 168.089 194.678 169.252 195.709C170.171 196.523 170.288 197.754 169.566 199.003C169.151 199.719 168.633 200.379 168.027 200.974C168.994 201.597 170.109 201.954 171.259 202.01C173.598 202.126 175.793 200.972 177.289 198.847C177.409 198.675 177.575 198.539 177.767 198.454C177.959 198.369 178.17 198.338 178.379 198.364C178.587 198.39 178.785 198.473 178.95 198.602C179.115 198.732 179.242 198.904 179.316 199.1C179.839 200.472 180.528 201.309 181.425 201.659C183.335 202.403 186.172 200.987 188.676 199.737C190.891 198.632 192.805 197.677 194.316 198.092C196.528 198.699 197.92 199.535 199.148 200.274C200.841 201.291 202.179 202.095 205.34 202.201C205.644 202.211 205.931 202.339 206.141 202.559C206.35 202.778 206.465 203.071 206.46 203.374C206.455 203.677 206.331 203.966 206.114 204.178C205.897 204.391 205.606 204.51 205.302 204.509L205.301 204.509ZM165.774 198.594C165.94 198.883 166.123 199.156 166.322 199.413C166.815 198.941 167.233 198.417 167.562 197.849C167.732 197.554 167.719 197.424 167.719 197.423C167.585 197.256 166.637 197.085 165.959 197.492C165.757 197.614 165.421 197.816 165.774 198.594ZM153.409 191.582C153.348 191.582 153.286 191.584 153.224 191.588C152.023 191.665 150.96 192.42 150.306 193.66C149.588 195.025 149.511 196.703 150.077 197.988C153.134 196.538 155.669 194.582 155.326 192.489C155.039 191.951 154.255 191.582 153.409 191.582H153.409ZM226.682 210.747C226.222 210.747 225.748 210.615 225.29 210.347C225.104 210.239 224.953 210.082 224.852 209.893C223.583 207.51 224.961 204.188 226.526 202.067C226.704 201.827 226.89 201.592 227.083 201.365C227.037 201.258 226.988 201.154 226.936 201.053C226.156 199.536 225.163 199.535 224.485 199.665C224.336 199.694 224.182 199.693 224.034 199.662C223.885 199.632 223.744 199.572 223.618 199.487C223.492 199.402 223.384 199.294 223.301 199.167C223.217 199.041 223.159 198.899 223.13 198.75C223.102 198.601 223.103 198.448 223.133 198.3C223.164 198.151 223.223 198.01 223.308 197.885C223.393 197.759 223.502 197.651 223.629 197.568C223.756 197.484 223.898 197.427 224.047 197.398C226.026 197.017 227.75 197.851 228.824 199.69C230.195 198.63 231.797 197.959 233.393 198.261C234.423 198.456 235.724 199.123 236.692 201.047C237.814 199.512 239.089 197.794 240.983 198.062C242.315 198.249 242.936 199.603 243.483 200.799C243.663 201.19 243.939 201.794 244.157 202.091C244.616 201.734 245.397 200.848 245.85 200.335C246.895 199.15 247.52 198.467 248.191 198.216C250.854 197.223 252.788 199.344 254.069 200.748C254.476 201.195 255.145 201.928 255.458 202.053C255.513 202.01 255.626 201.903 255.786 201.655C255.867 201.526 255.973 201.413 256.098 201.325C256.223 201.237 256.364 201.174 256.514 201.141C256.663 201.107 256.818 201.104 256.969 201.13C257.119 201.157 257.263 201.213 257.392 201.296C257.521 201.379 257.632 201.486 257.719 201.612C257.806 201.738 257.867 201.88 257.898 202.029C257.93 202.179 257.931 202.333 257.903 202.483C257.874 202.634 257.815 202.777 257.731 202.904C257.148 203.809 256.452 204.301 255.663 204.367C254.333 204.476 253.378 203.42 252.358 202.301C251.064 200.882 250.128 199.979 249.029 200.368C248.755 200.535 248.053 201.33 247.586 201.86C246.191 203.442 245.088 204.692 243.846 204.493C242.536 204.284 241.922 202.942 241.38 201.758C241.169 201.299 240.825 200.547 240.6 200.344C240.052 200.366 239.14 201.614 238.529 202.45C238.082 203.062 237.62 203.695 237.13 204.176C236.985 204.317 236.806 204.419 236.61 204.47C236.415 204.521 236.209 204.519 236.014 204.466C235.818 204.413 235.64 204.309 235.498 204.166C235.355 204.023 235.253 203.845 235.201 203.65C234.856 202.354 234.187 200.76 232.962 200.528C232.046 200.354 230.846 200.907 229.7 201.961C230.41 204.944 229.915 208.597 228.389 210.038C227.892 210.508 227.299 210.746 226.682 210.746L226.682 210.747ZM227.71 204.476C226.867 205.947 226.497 207.435 226.744 208.412C226.761 208.399 226.778 208.383 226.799 208.363C227.371 207.823 227.755 206.21 227.709 204.476L227.71 204.476Z" fill="#2D2D2D"/>
</g>
<g clip-path="url(#clip2_2103_4690)">
<path d="M239.28 99.2788C237.066 99.2788 235.271 97.4909 235.271 95.2852C235.271 93.0795 237.065 91.2915 239.28 91.2915C246.043 91.2915 251.545 85.8102 251.545 79.0726C251.545 72.335 246.043 66.8541 239.28 66.8541C237.066 66.8541 235.271 65.0661 235.271 62.8604C235.271 60.6547 237.065 58.8667 239.28 58.8667C250.464 58.8667 259.563 67.9311 259.563 79.0726C259.563 90.2142 250.464 99.2786 239.28 99.2786V99.2788Z" fill="white"/>
<path d="M239.28 100.432C236.431 100.432 234.113 98.1229 234.113 95.285C234.113 92.4471 236.431 90.1382 239.28 90.1382C245.405 90.1382 250.388 85.1741 250.388 79.0725C250.388 72.9708 245.405 68.007 239.28 68.007C236.431 68.007 234.113 65.6981 234.113 62.8602C234.113 60.0223 236.431 57.7134 239.28 57.7134C251.103 57.7134 260.721 67.295 260.721 79.0722C260.721 90.8494 251.103 100.431 239.28 100.431V100.432ZM239.28 60.02C237.708 60.02 236.428 61.2942 236.428 62.8605C236.428 64.4268 237.708 65.701 239.28 65.701C246.682 65.701 252.703 71.6997 252.703 79.0727C252.703 86.4458 246.682 92.4448 239.28 92.4448C237.708 92.4448 236.428 93.719 236.428 95.2853C236.428 96.8516 237.708 98.1258 239.28 98.1258C249.826 98.1258 258.406 89.5789 258.406 79.073C258.406 68.5672 249.826 60.0206 239.28 60.0206V60.02Z" fill="#2D2D2D"/>
<path d="M162.207 99.2786C151.023 99.2786 141.924 90.2142 141.924 79.0726C141.924 67.9311 151.023 58.8667 162.207 58.8667C164.421 58.8667 166.216 60.6547 166.216 62.8604C166.216 65.0661 164.422 66.8541 162.207 66.8541C155.444 66.8541 149.942 72.3353 149.942 79.0726C149.942 85.81 155.444 91.2915 162.207 91.2915C164.421 91.2915 166.216 93.0795 166.216 95.2852C166.216 97.4909 164.422 99.2786 162.207 99.2786Z" fill="white"/>
<path d="M162.208 100.432C150.385 100.432 140.767 90.85 140.767 79.0725C140.767 67.295 150.385 57.7134 162.208 57.7134C165.057 57.7134 167.375 60.0223 167.375 62.8602C167.375 65.6981 165.057 68.007 162.208 68.007C156.083 68.007 151.1 72.9711 151.1 79.0725C151.1 85.1738 156.083 90.1382 162.208 90.1382C165.057 90.1382 167.375 92.4471 167.375 95.285C167.375 98.1229 165.057 100.432 162.208 100.432ZM162.208 60.0197C151.662 60.0197 143.082 68.5666 143.082 79.0722C143.082 89.5777 151.662 98.1249 162.208 98.1249C163.78 98.1249 165.06 96.8507 165.06 95.2844C165.06 93.7182 163.78 92.4439 162.208 92.4439C154.806 92.4439 148.785 86.4452 148.785 79.0719C148.785 71.6986 154.806 65.7002 162.208 65.7002C163.78 65.7002 165.06 64.4259 165.06 62.8596C165.06 61.2934 163.78 60.0191 162.208 60.0191V60.0197Z" fill="#2D2D2D"/>
<path d="M163.637 51.7148H237.851V96.7673C237.851 109.891 227.156 120.545 213.982 120.545H187.507C174.333 120.545 163.637 109.891 163.637 96.7673L163.637 51.7148Z" fill="white"/>
<path d="M213.982 121.699H187.507C173.706 121.699 162.479 110.515 162.479 96.7674V51.7147C162.479 51.4088 162.601 51.1155 162.819 50.8993C163.036 50.683 163.33 50.5615 163.637 50.5615H237.852C238.159 50.5615 238.453 50.683 238.67 50.8993C238.887 51.1155 239.009 51.4088 239.009 51.7147V96.7671C239.009 110.514 227.782 121.698 213.982 121.698L213.982 121.699ZM164.794 52.8678V96.7671C164.794 109.243 174.983 119.392 187.506 119.392H213.982C226.505 119.392 236.693 109.243 236.693 96.7671V52.8678H164.794Z" fill="#2D2D2D"/>
<path d="M209.471 162.464H192.018L194.634 120.545H206.854L209.471 162.464Z" fill="white"/>
<path d="M209.47 163.617H192.017C191.859 163.617 191.702 163.585 191.557 163.523C191.412 163.46 191.281 163.369 191.173 163.254C191.065 163.139 190.981 163.003 190.928 162.855C190.874 162.707 190.852 162.55 190.862 162.392L193.478 120.474C193.496 120.181 193.626 119.906 193.841 119.705C194.055 119.504 194.339 119.392 194.633 119.392H206.854C207.148 119.392 207.432 119.504 207.646 119.705C207.861 119.906 207.991 120.181 208.009 120.474L210.625 162.392C210.635 162.55 210.613 162.707 210.559 162.855C210.505 163.003 210.422 163.139 210.314 163.254C210.205 163.368 210.075 163.46 209.93 163.522C209.785 163.585 209.628 163.617 209.47 163.617ZM193.249 161.311H208.238L205.766 121.698H195.721L193.249 161.311Z" fill="#2D2D2D"/>
<path d="M181.735 162.464H219.754C226.132 162.464 231.31 167.623 231.31 173.976V177.767H170.179V173.976C170.179 167.623 175.357 162.464 181.735 162.464Z" fill="white"/>
<path d="M231.309 178.92H170.178C169.871 178.92 169.577 178.798 169.36 178.582C169.142 178.366 169.021 178.072 169.021 177.767V173.976C169.021 166.993 174.724 161.311 181.734 161.311H219.753C226.764 161.311 232.467 166.993 232.467 173.976V177.767C232.467 178.072 232.345 178.366 232.128 178.582C231.911 178.798 231.617 178.92 231.31 178.92H231.309ZM171.336 176.613H230.152V173.976C230.152 168.264 225.487 163.617 219.753 163.617H181.734C176 163.617 171.335 168.264 171.335 173.976L171.336 176.613Z" fill="#2D2D2D"/>
<path d="M200.744 63.4712L206.048 73.4469L217.212 75.3897L209.327 83.4981L210.922 94.6745L200.744 89.7099L190.566 94.6745L192.161 83.4981L184.276 75.3897L195.439 73.4469L200.744 63.4712Z" fill="#00B2FF"/>
<path d="M210.921 95.8276C210.747 95.8276 210.573 95.789 210.412 95.71L200.744 90.9939L191.075 95.71C190.886 95.8022 190.676 95.8413 190.466 95.8232C190.256 95.8051 190.056 95.7305 189.886 95.6073C189.716 95.4841 189.582 95.3171 189.5 95.1241C189.418 94.9312 189.391 94.7196 189.42 94.5122L190.935 83.8947L183.444 76.1919C183.298 76.0414 183.196 75.854 183.148 75.6499C183.101 75.4457 183.11 75.2325 183.175 75.0332C183.24 74.8339 183.358 74.656 183.517 74.5186C183.676 74.3812 183.869 74.2896 184.077 74.2535L194.681 72.4079L199.72 62.9309C199.819 62.7457 199.966 62.5907 200.146 62.4826C200.327 62.3745 200.533 62.3174 200.744 62.3174C200.954 62.3174 201.16 62.3745 201.341 62.4826C201.521 62.5907 201.668 62.7457 201.767 62.9309L206.806 72.4079L217.41 74.2535C217.618 74.2896 217.811 74.3812 217.97 74.5186C218.129 74.656 218.247 74.8339 218.312 75.0332C218.377 75.2325 218.386 75.4457 218.339 75.6499C218.291 75.854 218.189 76.0414 218.043 76.1919L210.552 83.8947L212.067 94.5122C212.09 94.6757 212.078 94.8423 212.031 95.0007C211.984 95.1591 211.904 95.3057 211.795 95.4304C211.686 95.5551 211.552 95.6552 211.401 95.7237C211.25 95.7922 211.087 95.8277 210.921 95.8276H210.921ZM200.744 88.5567C200.918 88.5567 201.092 88.5959 201.253 88.6743L209.468 92.6815L208.181 83.6604C208.156 83.4863 208.171 83.309 208.226 83.1418C208.28 82.9746 208.373 82.822 208.495 82.6958L214.859 76.151L205.849 74.583C205.675 74.5527 205.51 74.4832 205.368 74.3799C205.225 74.2766 205.108 74.1421 205.025 73.9868L200.744 65.9346L196.462 73.9868C196.379 74.1421 196.262 74.2766 196.119 74.3799C195.977 74.4832 195.812 74.5527 195.638 74.583L186.628 76.151L192.992 82.6958C193.114 82.8221 193.207 82.9746 193.261 83.1418C193.316 83.309 193.331 83.4863 193.306 83.6604L192.019 92.6815L200.234 88.6743C200.393 88.5969 200.567 88.5566 200.744 88.5567Z" fill="#2D2D2D"/>
<path d="M237.718 42.354H163.769C161.427 42.354 159.529 44.2449 159.529 46.5774V47.4913C159.529 49.8239 161.427 51.7148 163.769 51.7148H237.718C240.06 51.7148 241.958 49.8239 241.958 47.4913V46.5774C241.958 44.2449 240.06 42.354 237.718 42.354Z" fill="white"/>
<path d="M237.719 52.8678H163.769C160.793 52.8678 158.372 50.4559 158.372 47.4912V46.5773C158.372 43.6125 160.793 41.2007 163.769 41.2007H237.719C240.695 41.2007 243.116 43.6125 243.116 46.5773V47.4912C243.116 50.4559 240.695 52.8678 237.719 52.8678ZM163.769 43.507C162.07 43.507 160.687 44.8842 160.687 46.5773V47.4912C160.687 49.1843 162.07 50.5614 163.769 50.5614H237.719C239.418 50.5614 240.801 49.1843 240.801 47.4912V46.5773C240.801 44.8842 239.418 43.507 237.719 43.507H163.769Z" fill="#2D2D2D"/>
</g>
<g clip-path="url(#clip3_2103_4690)">
<path d="M379.632 323.6C372.451 332.947 363.137 364.241 363.427 372.531H507.793C507.793 372.531 506.575 334.129 496.557 325.948C486.54 317.767 379.632 323.6 379.632 323.6Z" fill="white"/>
<path d="M507.794 373.685H363.427C363.127 373.686 362.838 373.569 362.623 373.362C362.407 373.154 362.28 372.871 362.27 372.572C361.973 364.085 371.247 332.617 378.713 322.899C378.814 322.767 378.943 322.658 379.091 322.58C379.239 322.503 379.402 322.458 379.569 322.449C379.836 322.434 406.639 320.984 434.32 320.553C450.591 320.299 463.983 320.442 474.123 320.978C487.198 321.669 494.777 323.002 497.292 325.056C507.598 333.472 508.901 370.906 508.951 372.496C508.956 372.65 508.93 372.804 508.874 372.948C508.818 373.092 508.733 373.224 508.625 373.335C508.517 373.446 508.388 373.534 508.245 373.595C508.102 373.655 507.949 373.686 507.794 373.686V373.685ZM364.597 371.377H506.586C506.277 364.882 504.361 333.812 495.824 326.841C493.608 325.031 482.677 322.108 434.356 322.861C408.892 323.257 384.174 324.517 380.236 324.724C373.506 334.009 365.055 362.088 364.597 371.377Z" fill="#2D2D2D"/>
<path d="M461.838 173.202C475.56 174.406 494.856 181.6 498.615 185.573C502.374 189.545 495.163 298.581 496.558 325.923C461.649 338.686 411.893 340.204 379.632 323.589C379.632 323.589 364.627 195.129 384.133 182.608C394.047 176.244 421.989 174.523 421.989 174.523L461.838 173.202L461.838 173.202Z" fill="#2D2D2D"/>
<path d="M437.975 336.929C437.681 336.929 437.389 336.929 437.096 336.927C414.58 336.817 394.526 332.559 379.1 324.614C378.931 324.528 378.787 324.401 378.679 324.245C378.571 324.09 378.503 323.91 378.481 323.722C378.444 323.401 374.71 291.178 373.41 257.839C372.646 238.232 372.86 222.072 374.047 209.808C375.582 193.953 378.676 184.738 383.505 181.638C393.558 175.185 420.764 173.442 421.917 173.371L421.95 173.369L461.799 172.049C461.846 172.047 461.892 172.049 461.939 172.053C475.72 173.262 495.384 180.478 499.456 184.782C500.329 185.704 501.151 188.371 500.78 209.48C500.544 222.945 499.865 240.854 499.209 258.174C498.173 285.552 497.101 313.862 497.713 325.865C497.726 326.111 497.659 326.355 497.522 326.56C497.386 326.766 497.187 326.922 496.955 327.007C479.429 333.415 458.517 336.93 437.975 336.93L437.975 336.929ZM380.711 322.844C413.75 339.547 463.092 336.678 495.361 325.128C494.832 312.583 495.881 284.889 496.896 258.087C497.541 241.07 498.207 223.473 498.453 210.123C498.801 191.251 498.161 187.1 497.737 186.329C494.217 182.692 475.624 175.588 461.805 174.358L422.044 175.676C421.252 175.726 394.213 177.51 384.759 183.579C381.916 185.404 378.149 191.474 376.353 210.025C375.175 222.184 374.964 238.237 375.723 257.737C376.921 288.46 380.192 318.239 380.711 322.844Z" fill="#2D2D2D"/>
<path d="M458.072 176.369C451.285 185.913 429.328 186.388 421.989 174.523L423.189 142.685L459.272 144.531L458.072 176.369Z" fill="white"/>
<path d="M440.936 184.637C440.61 184.637 440.282 184.632 439.953 184.621C431.598 184.354 424.514 180.805 421.003 175.128C420.883 174.934 420.823 174.708 420.832 174.48L422.031 142.642C422.037 142.489 422.073 142.339 422.137 142.2C422.202 142.061 422.293 141.937 422.406 141.834C422.52 141.73 422.652 141.651 422.797 141.599C422.941 141.547 423.094 141.525 423.248 141.533L459.331 143.379C459.634 143.394 459.92 143.529 460.125 143.753C460.331 143.976 460.44 144.272 460.428 144.575L459.229 176.412C459.22 176.637 459.146 176.853 459.016 177.037C455.695 181.707 448.672 184.637 440.936 184.637L440.936 184.637ZM423.16 174.208C426.325 179.053 432.599 182.076 440.028 182.314C447.225 182.545 453.816 180.064 456.928 175.972L458.071 145.626L424.301 143.898L423.16 174.208V174.208ZM303.003 254.488C299.019 245.037 243.478 260.201 249.196 274.636C254.913 289.072 307.628 265.463 303.003 254.488Z" fill="#2D2D2D"/>
<path d="M258.884 280.335C257.783 280.335 256.751 280.268 255.794 280.134C250.835 279.435 248.883 276.989 248.118 275.06C245.715 268.992 252.168 262.331 265.822 256.786C273.272 253.76 282.031 251.485 289.252 250.7C295.101 250.064 302.419 250.128 304.069 254.041C304.924 256.069 304.348 258.403 302.355 260.979C298.873 265.483 290.791 270.78 281.264 274.806C272.775 278.392 264.838 280.335 258.884 280.335ZM294.358 252.705C292.96 252.705 291.349 252.794 289.504 252.994C282.485 253.758 273.958 255.975 266.695 258.924C254.57 263.848 248.431 269.563 250.273 274.212C251.055 276.189 253.022 277.412 256.118 277.848C261.757 278.642 270.821 276.71 280.361 272.68C289.543 268.801 297.268 263.778 300.521 259.57C301.968 257.7 302.443 256.141 301.935 254.935C301.438 253.756 299.163 252.705 294.358 252.705Z" fill="#2D2D2D"/>
<path d="M314.46 347.011C276.352 345.254 270.607 293.426 257.487 265.413C254.177 257.709 252.35 255.636 252.153 255.426C231.564 233.103 264.373 201.971 285.724 223.623C299.744 237.91 307.536 269.093 316.106 290.363C328.132 263.979 335.437 218.616 352.801 199.768C373.511 177.561 407.219 207.681 387.253 230.62C387.028 230.87 384.941 233.338 381.372 242.568C367.307 276.357 360.108 344.353 314.46 347.011Z" fill="white"/>
<path d="M314.46 348.166C314.442 348.166 314.424 348.166 314.406 348.165C301.054 347.549 290.401 340.93 281.838 327.931C274.436 316.693 269.664 302.545 265.05 288.864C262.215 280.458 259.537 272.518 256.438 265.902C256.432 265.891 256.428 265.879 256.423 265.868C253.135 258.217 251.378 256.291 251.305 256.213C246.297 250.784 243.966 244.449 244.557 237.889C245.08 232.075 247.871 226.501 252.417 222.194C256.962 217.887 262.685 215.391 268.533 215.166C275.133 214.911 281.364 217.556 286.549 222.814C297.116 233.583 304.262 253.943 310.568 271.907C312.482 277.363 314.308 282.563 316.164 287.361C320.072 278.205 323.477 267.172 327.064 255.55C333.807 233.702 340.78 211.11 351.947 198.987C356.984 193.586 363.141 190.767 369.746 190.841C375.603 190.903 381.397 193.237 386.062 197.414C390.725 201.589 393.67 207.078 394.355 212.871C395.128 219.408 392.975 225.807 388.127 231.377C388.029 231.485 386.004 233.796 382.452 242.984C382.448 242.993 382.445 243.002 382.441 243.011C379.258 250.658 376.411 260.13 373.396 270.158C368.326 287.025 362.579 306.143 353.738 321.038C343.46 338.353 330.634 347.226 314.527 348.164C314.504 348.166 314.482 348.166 314.459 348.166L314.46 348.166ZM258.544 264.942C261.695 271.673 264.391 279.666 267.245 288.128C276.159 314.559 286.264 344.513 314.453 345.856C329.704 344.947 341.903 336.443 351.746 319.862C360.443 305.21 366.147 286.235 371.179 269.495C374.209 259.415 377.071 249.893 380.297 242.14C383.859 232.929 385.998 230.286 386.391 229.849C396.147 218.64 392.26 206.066 384.515 199.131C376.762 192.189 363.796 189.673 353.649 200.554C342.84 212.287 335.946 234.625 329.278 256.229C325.332 269.014 321.605 281.09 317.16 290.841C317.066 291.047 316.914 291.221 316.722 291.341C316.53 291.462 316.307 291.523 316.08 291.518C315.853 291.513 315.633 291.442 315.447 291.313C315.26 291.184 315.116 291.004 315.031 290.794C312.8 285.255 310.654 279.142 308.383 272.67C302.157 254.933 295.101 234.83 284.896 224.431C274.45 213.836 261.564 216.712 254.013 223.867C246.459 231.026 242.921 243.711 253.005 254.645C253.345 255.008 255.233 257.238 258.545 264.942H258.544Z" fill="#2D2D2D"/>
<path d="M317.404 352.31C286.6 353.246 277.334 309.181 305.843 296.997C322.449 270.565 328.186 217.058 348.494 195.912C374.648 168.313 416.267 205.373 391.646 234.38C391.337 234.786 389.529 237.352 386.402 245.615C372.222 281.208 364.361 350.885 317.404 352.31H317.404Z" fill="#00B2FF"/>
<path d="M316.451 353.479C309.41 353.479 303.04 351.169 297.974 346.769C293.209 342.63 289.784 336.742 288.33 330.19C285.629 318.02 289.768 302.808 305.05 296.082C312.165 284.607 317.407 267.631 322.478 251.21C329.164 229.559 336.078 207.172 347.658 195.113C353.9 188.526 361.472 185.045 369.558 185.045C369.62 185.045 369.681 185.045 369.744 185.046C376.987 185.093 384.141 187.94 389.888 193.062C395.633 198.183 399.266 204.95 400.119 212.118C401.078 220.179 398.461 228.125 392.552 235.099C392.293 235.447 390.536 237.964 387.486 246.022C384.42 253.718 381.646 263.03 378.708 272.888C373.453 290.529 367.495 310.523 358.298 325.984C347.602 343.965 334.237 352.954 317.44 353.464C317.109 353.474 316.779 353.479 316.451 353.479H316.451ZM369.514 187.368C362.754 187.368 355.643 190.049 349.336 196.704C338.129 208.373 331.298 230.495 324.691 251.889C319.532 268.597 314.196 285.875 306.824 297.609C306.698 297.809 306.515 297.965 306.299 298.058C291.958 304.187 288.076 318.362 290.591 329.692C292.811 339.693 300.893 351.171 316.397 351.171C316.718 351.171 317.041 351.166 317.368 351.156C333.31 350.672 346.046 342.053 356.305 324.807C365.356 309.592 371.27 289.743 376.488 272.231C379.44 262.322 382.229 252.962 385.326 245.189C388.411 237.036 390.238 234.319 390.724 233.681C390.736 233.665 390.749 233.649 390.762 233.634C402.945 219.281 398.048 203.434 388.344 194.783C383.363 190.344 376.634 187.368 369.514 187.368Z" fill="#2D2D2D"/>
<path d="M317.404 352.31C275.077 352.311 262.53 308.289 249.195 274.636C274.423 280.253 298.228 269.255 303.002 254.488C311.904 278.85 318.96 290.332 322.259 294.996" fill="#00B2FF"/>
<path d="M317.405 353.464C299.876 353.464 285.81 346.083 274.402 330.897C264.506 317.725 258.059 300.895 251.823 284.62C250.552 281.303 249.352 278.17 248.119 275.06C248.042 274.865 248.019 274.652 248.054 274.446C248.089 274.239 248.179 274.045 248.316 273.886C248.453 273.726 248.63 273.607 248.83 273.541C249.029 273.475 249.243 273.464 249.449 273.509C274.841 279.163 297.471 267.836 301.901 254.134C301.975 253.905 302.119 253.705 302.312 253.562C302.506 253.418 302.74 253.339 302.981 253.334C303.222 253.33 303.459 253.401 303.657 253.537C303.856 253.673 304.008 253.867 304.091 254.093C312.783 277.88 319.798 289.513 323.206 294.331C323.38 294.581 323.447 294.889 323.393 295.189C323.34 295.488 323.17 295.754 322.921 295.93C322.672 296.105 322.363 296.175 322.062 296.125C321.761 296.074 321.492 295.908 321.314 295.661C317.977 290.944 311.257 279.845 302.949 257.678C299.765 264.122 293.102 269.705 284.202 273.277C274.141 277.314 262.449 278.332 251.053 276.195C252.021 278.669 252.982 281.175 253.986 283.797C266.083 315.37 279.794 351.157 317.405 351.156C317.712 351.156 318.006 351.277 318.223 351.494C318.44 351.71 318.562 352.004 318.562 352.31C318.562 352.616 318.44 352.909 318.223 353.126C318.006 353.342 317.712 353.464 317.405 353.464Z" fill="#2D2D2D"/>
<path d="M546.479 294.983C546.141 279.685 503.731 233.413 494.224 227.141C484.36 219.027 482.961 204.479 491.1 194.645C499.238 184.811 513.834 183.416 523.698 191.529C532.409 198.692 550.826 216.384 565.858 235.761C591.346 266.607 598.765 297.089 587.784 317.679" fill="white"/>
<path d="M587.782 318.834C587.583 318.834 587.386 318.782 587.213 318.684C587.039 318.586 586.893 318.444 586.791 318.274C586.688 318.103 586.631 317.909 586.626 317.709C586.621 317.51 586.667 317.313 586.761 317.138C597.774 296.486 589.625 266.34 564.963 236.495C564.956 236.486 564.948 236.477 564.941 236.468C549.967 217.165 531.632 199.55 522.961 192.419C518.429 188.692 512.71 186.946 506.862 187.506C501.012 188.065 495.731 190.861 491.992 195.38C484.286 204.691 485.601 218.51 494.915 226.214C500.188 229.725 513.512 243.478 524.681 256.942C533.166 267.171 547.431 285.711 547.636 294.958C547.643 295.264 547.527 295.561 547.315 295.782C547.103 296.003 546.811 296.131 546.504 296.138H546.478C546.175 296.137 545.885 296.019 545.668 295.808C545.452 295.597 545.327 295.31 545.321 295.009C545.183 288.764 537.01 275.425 522.897 258.413C510.871 243.917 498.032 231.038 493.585 228.104C493.551 228.082 493.518 228.057 493.487 228.032C483.146 219.526 481.674 204.219 490.206 193.911C494.339 188.917 500.175 185.826 506.64 185.208C513.106 184.591 519.424 186.519 524.434 190.639C533.184 197.834 551.673 215.595 566.761 235.041C592.032 265.627 600.272 296.72 588.806 318.221C588.707 318.407 588.56 318.561 588.38 318.669C588.199 318.777 587.993 318.834 587.782 318.834Z" fill="#2D2D2D"/>
<path d="M364.01 249.158C370.043 285.872 365.227 348.378 355.343 372.531H394.315C394.315 372.531 399.184 359.951 401.138 345.832C404.062 324.695 415.372 201.358 422.099 171.604C391.659 176.474 371.55 181.605 357.235 189.231" fill="#00B2FF"/>
<path d="M394.315 373.685H355.342C355.153 373.685 354.966 373.639 354.798 373.55C354.63 373.461 354.487 373.332 354.381 373.175C354.276 373.018 354.21 372.837 354.191 372.649C354.171 372.461 354.199 372.27 354.27 372.095C358.922 360.727 362.743 339.559 364.49 315.471C366.289 290.671 365.698 266.569 362.868 249.344C362.843 249.195 362.848 249.042 362.883 248.894C362.918 248.747 362.981 248.607 363.07 248.484C363.159 248.361 363.271 248.257 363.4 248.177C363.529 248.097 363.673 248.043 363.823 248.019C363.973 247.994 364.127 247.999 364.275 248.034C364.423 248.068 364.563 248.132 364.686 248.22C364.81 248.309 364.915 248.421 364.995 248.549C365.075 248.678 365.129 248.822 365.153 248.971C368.011 266.366 368.611 290.665 366.8 315.638C365.088 339.241 361.551 359.383 357.038 371.377H393.509C394.56 368.492 398.344 357.57 399.99 345.674C400.887 339.195 402.563 323.192 404.684 302.931C409.19 259.887 415.942 195.398 420.609 173.012C389.901 178.001 371.054 183.177 357.781 190.249C357.647 190.32 357.5 190.365 357.349 190.379C357.198 190.394 357.045 190.379 356.899 190.335C356.754 190.291 356.618 190.219 356.501 190.123C356.383 190.027 356.286 189.908 356.214 189.775C356.143 189.641 356.098 189.495 356.083 189.344C356.068 189.193 356.083 189.041 356.127 188.896C356.171 188.75 356.244 188.615 356.34 188.498C356.437 188.381 356.555 188.284 356.69 188.213C370.442 180.886 389.948 175.578 421.916 170.463C422.102 170.433 422.294 170.449 422.473 170.51C422.652 170.571 422.814 170.675 422.943 170.812C423.073 170.95 423.167 171.117 423.216 171.299C423.266 171.481 423.27 171.673 423.229 171.857C418.585 192.398 411.606 259.059 406.987 303.17C404.864 323.452 403.186 339.472 402.285 345.989C400.335 360.078 395.445 372.819 395.396 372.946C395.312 373.164 395.164 373.351 394.971 373.482C394.778 373.614 394.55 373.685 394.316 373.685L394.315 373.685Z" fill="#2D2D2D"/>
<path d="M538.881 292.88C536.329 280.336 501.177 238.029 493.7 233.854C462.353 213.516 489.291 168.324 523.277 184.256C530.947 187.851 559.898 217.712 568.331 230.178C597.086 266.518 604.408 298.924 592.711 321.266" fill="#00B2FF"/>
<path d="M592.71 322.421C592.511 322.421 592.315 322.369 592.142 322.272C591.968 322.175 591.823 322.034 591.72 321.865C591.617 321.695 591.559 321.501 591.553 321.303C591.547 321.105 591.592 320.908 591.684 320.732C597.48 309.661 598.451 296.38 594.568 281.257C590.52 265.486 581.387 248.541 567.422 230.893C567.404 230.871 567.387 230.847 567.371 230.823C558.708 218.018 529.956 188.662 522.784 185.3C505.465 177.182 490.836 185.548 484.572 196.756C478.492 207.635 479.146 223.015 494.301 232.867C498.615 235.311 510.002 248.105 519.045 259.513C524.8 266.772 538.364 284.534 540.015 292.651C540.047 292.8 540.049 292.954 540.021 293.104C539.993 293.254 539.935 293.397 539.851 293.524C539.767 293.652 539.659 293.762 539.532 293.847C539.406 293.933 539.263 293.992 539.113 294.023C538.963 294.053 538.809 294.053 538.659 294.024C538.509 293.994 538.366 293.935 538.239 293.851C538.112 293.766 538.003 293.656 537.918 293.529C537.833 293.402 537.775 293.26 537.746 293.11C536.669 287.816 528.999 275.792 517.228 260.944C506.987 248.026 496.628 236.812 493.133 234.861C493.111 234.849 493.089 234.835 493.068 234.822C485.663 230.018 480.893 223.492 479.272 215.95C477.825 209.218 478.989 202.003 482.549 195.633C486.257 188.997 492.134 183.972 499.097 181.485C506.889 178.701 515.421 179.298 523.768 183.211C531.91 187.028 560.927 217.195 569.266 229.497C583.418 247.388 592.685 264.61 596.811 280.685C600.839 296.376 599.805 310.209 593.736 321.801C593.639 321.988 593.491 322.145 593.31 322.254C593.129 322.363 592.921 322.421 592.709 322.421L592.71 322.421Z" fill="#2D2D2D"/>
<path d="M511.963 240.105C509.784 253.22 507.542 266.663 505.899 278.37C500.799 314.726 509.291 347.93 518.014 372.531H472.463C472.463 372.531 468.379 359.571 467.471 351.48C465.073 329.387 478.267 193.375 458.26 172.398C487.217 175.693 507.848 176.707 523.277 184.256" fill="#00B2FF"/>
<path d="M518.013 373.685H472.462C472.216 373.685 471.976 373.607 471.777 373.461C471.578 373.316 471.431 373.111 471.358 372.877C471.19 372.343 467.23 359.718 466.32 351.609C465.634 345.285 466.198 330.002 466.912 310.652C467.821 286.046 468.952 255.421 468.07 228.885C467.052 198.273 463.469 179.536 457.42 173.193C457.256 173.022 457.15 172.804 457.114 172.569C457.079 172.335 457.117 172.095 457.223 171.883C457.329 171.671 457.497 171.496 457.707 171.383C457.916 171.27 458.155 171.224 458.391 171.251C463.165 171.795 467.682 172.273 472.051 172.735C494.5 175.111 510.72 176.827 523.786 183.22C524.061 183.355 524.272 183.593 524.371 183.883C524.47 184.172 524.45 184.49 524.315 184.764C524.248 184.9 524.155 185.022 524.041 185.122C523.926 185.223 523.794 185.299 523.65 185.348C523.506 185.397 523.354 185.418 523.202 185.408C523.05 185.398 522.902 185.359 522.765 185.292C510.067 179.08 494.019 177.381 471.806 175.031C468.277 174.657 464.65 174.273 460.868 173.853C466.312 182.096 469.431 200.149 470.383 228.809C471.268 255.426 470.136 286.095 469.226 310.738C468.515 329.994 467.953 345.204 468.621 351.356C469.377 358.093 472.422 368.43 473.318 371.377H516.38C504.531 337.38 500.728 306.89 504.752 278.21C506.356 266.778 508.543 253.616 510.659 240.887L510.82 239.916C510.845 239.767 510.899 239.623 510.98 239.495C511.06 239.366 511.165 239.254 511.289 239.166C511.412 239.078 511.552 239.015 511.7 238.981C511.848 238.946 512.002 238.941 512.152 238.966C512.302 238.991 512.446 239.045 512.575 239.125C512.704 239.205 512.816 239.31 512.904 239.433C512.993 239.556 513.056 239.696 513.09 239.843C513.125 239.991 513.13 240.144 513.105 240.294L512.943 241.264C510.83 253.979 508.645 267.126 507.045 278.53C503.013 307.266 506.958 337.888 519.105 372.147C519.166 372.321 519.185 372.507 519.16 372.69C519.134 372.873 519.065 373.047 518.958 373.198C518.851 373.349 518.71 373.472 518.545 373.557C518.381 373.642 518.198 373.686 518.013 373.686L518.013 373.685Z" fill="#2D2D2D"/>
<path d="M458.603 166.581C475.023 169.998 481.864 180.834 489.116 192.248C489.116 192.248 484.05 196.07 480.975 199.072C480.975 199.072 496.108 204.074 497.11 208.071C498.113 212.069 473.976 313.151 467.471 351.48C461.286 325.06 473.064 205.546 458.154 174.186L458.603 166.581Z" fill="#00B2FF"/>
<path d="M467.47 352.635C467.209 352.635 466.955 352.546 466.75 352.385C466.546 352.223 466.402 351.997 466.343 351.743C463.865 341.16 464.225 316.377 464.641 287.681C465.25 245.676 466.008 193.4 457.108 174.681C457.024 174.506 456.987 174.312 456.998 174.119L457.447 166.514C457.457 166.348 457.502 166.187 457.58 166.04C457.658 165.894 457.767 165.766 457.899 165.665C458.031 165.564 458.184 165.493 458.346 165.456C458.508 165.419 458.676 165.418 458.839 165.451C475.687 168.958 482.652 179.919 490.026 191.524L490.093 191.63C490.248 191.875 490.306 192.169 490.254 192.453C490.203 192.738 490.045 192.993 489.814 193.168C489.771 193.2 486.091 195.984 483.16 198.614C484.645 199.153 486.861 199.999 489.14 201.02C496.607 204.363 497.905 206.486 498.233 207.792C498.746 209.838 495.196 226.416 486.352 266.621C479.568 297.466 471.878 332.425 468.612 351.673C468.567 351.936 468.432 352.175 468.231 352.351C468.029 352.526 467.773 352.626 467.506 352.634L467.47 352.635H467.47ZM459.327 173.963C468.325 193.365 467.598 243.477 466.956 287.714C466.616 311.177 466.314 332.009 467.557 344.407C471.279 324.371 478.044 293.617 484.09 266.127C490.07 238.939 496.254 210.828 495.98 208.326C495.338 205.993 486.621 202.156 480.61 200.168C480.421 200.105 480.252 199.996 480.118 199.85C479.985 199.703 479.891 199.525 479.846 199.332C479.801 199.14 479.807 198.938 479.863 198.749C479.919 198.559 480.023 198.386 480.164 198.248C482.531 195.938 485.986 193.202 487.571 191.976C480.844 181.4 474.272 171.523 459.678 168.006L459.327 173.963Z" fill="#2D2D2D"/>
<path d="M422.353 164.868C412.866 169.492 402.26 173.862 393.773 188.789L399.105 195.724C399.105 195.724 383.781 206.278 382.923 209.744C382.065 213.21 399.775 282.718 401.138 345.832C409.359 310.725 417.056 203.183 422.353 164.868L422.353 164.868Z" fill="#00B2FF"/>
<path d="M401.139 346.986C400.836 346.987 400.545 346.868 400.329 346.657C400.112 346.446 399.987 346.159 399.981 345.857C398.99 300.02 389.209 250.033 384.509 226.011C382.276 214.603 381.518 210.6 381.799 209.467C382.629 206.112 393.471 198.256 397.449 195.467L392.855 189.491C392.716 189.311 392.634 189.095 392.619 188.869C392.603 188.643 392.654 188.417 392.766 188.22C400.886 173.939 411.045 169.041 420.008 164.72C420.624 164.423 421.236 164.127 421.844 163.831C422.033 163.739 422.243 163.7 422.452 163.718C422.661 163.736 422.862 163.81 423.032 163.933C423.202 164.056 423.335 164.222 423.418 164.415C423.5 164.607 423.529 164.818 423.5 165.026C421.576 178.944 419.286 202.519 416.861 227.478C412.479 272.575 407.513 323.688 402.266 346.095C402.206 346.348 402.063 346.574 401.858 346.736C401.654 346.898 401.4 346.986 401.139 346.986ZM384.053 209.997C383.939 211.047 385.257 217.78 386.781 225.569C391.159 247.94 399.931 292.774 401.955 335.931C406.455 310.635 410.729 266.647 414.556 227.255C416.863 203.504 419.049 181.005 420.918 166.845C412.015 171.137 402.822 175.603 395.162 188.697L400.024 195.021C400.119 195.145 400.188 195.288 400.227 195.439C400.265 195.591 400.272 195.748 400.248 195.903C400.224 196.057 400.168 196.205 400.085 196.338C400.001 196.47 399.892 196.584 399.763 196.673C392.437 201.719 384.582 208.066 384.053 209.997Z" fill="#2D2D2D"/>
<path d="M254.002 233.766C247.518 231.424 244.413 231.112 234.907 229.186C225.719 227.324 221.555 235.999 231.462 240.803C239.002 244.458 245.626 246.942 252.153 255.426" fill="white"/>
<path d="M252.153 256.58C251.975 256.58 251.8 256.54 251.64 256.461C251.481 256.383 251.341 256.269 251.233 256.128C245.585 248.787 239.934 246.107 233.39 243.004C232.588 242.624 231.777 242.239 230.954 241.84C225.041 238.974 223.987 234.884 224.881 232.253C225.842 229.425 229.462 226.905 235.138 228.055C236.893 228.409 238.649 228.756 240.408 229.096C246.079 230.198 249.202 230.805 254.396 232.68C254.685 232.785 254.92 232.999 255.05 233.276C255.18 233.554 255.195 233.871 255.09 234.159C254.985 234.446 254.77 234.681 254.492 234.811C254.214 234.941 253.896 234.955 253.607 234.851C248.583 233.036 245.702 232.476 239.964 231.361C238.433 231.064 236.697 230.726 234.676 230.317C230.373 229.445 227.719 231.093 227.074 232.993C226.294 235.287 228.215 237.945 231.967 239.764C232.771 240.153 233.577 240.538 234.385 240.919C240.915 244.016 247.083 246.941 253.07 254.723C253.202 254.894 253.283 255.098 253.304 255.312C253.325 255.527 253.286 255.742 253.191 255.936C253.095 256.129 252.947 256.291 252.764 256.405C252.58 256.519 252.369 256.579 252.153 256.579L252.153 256.58Z" fill="#2D2D2D"/>
<path d="M266.827 224.32C260.271 218.49 246.208 210.486 240.576 208.778C230.651 205.768 226.449 214.094 236.183 221.221C242.509 225.852 248.153 230.666 252.997 236" fill="white"/>
<path d="M252.997 237.154C252.835 237.154 252.675 237.121 252.527 237.055C252.379 236.99 252.247 236.894 252.138 236.774C247.691 231.877 242.248 227.094 235.497 222.151C229.399 217.686 228.78 213.028 230.102 210.396C231.692 207.233 235.936 206.164 240.913 207.674C246.708 209.431 260.961 217.557 267.598 223.459C267.711 223.56 267.804 223.682 267.87 223.818C267.936 223.955 267.974 224.103 267.983 224.254C267.991 224.406 267.97 224.557 267.92 224.7C267.87 224.843 267.792 224.975 267.691 225.088C267.59 225.201 267.467 225.294 267.33 225.359C267.193 225.425 267.045 225.464 266.893 225.472C266.741 225.481 266.589 225.46 266.445 225.41C266.302 225.36 266.169 225.282 266.056 225.181C259.733 219.558 245.705 211.54 240.239 209.882C236.398 208.717 233.231 209.325 232.173 211.43C231.181 213.403 232.249 216.908 236.868 220.29C243.746 225.326 249.303 230.211 253.856 235.225C254.006 235.391 254.105 235.596 254.14 235.817C254.176 236.038 254.146 236.264 254.056 236.468C253.965 236.672 253.816 236.845 253.629 236.967C253.441 237.089 253.221 237.154 252.997 237.154Z" fill="#2D2D2D"/>
<path d="M288.135 226.35C278.155 212.912 260.732 202.996 255.105 199.248C246.733 193.673 237.916 200.157 244.635 207.314C252.1 215.266 263.621 225.894 263.621 225.894" fill="white"/>
<path d="M288.136 227.504C287.955 227.504 287.776 227.462 287.614 227.381C287.453 227.3 287.312 227.182 287.205 227.036C278.723 215.616 264.864 206.829 257.418 202.107C256.252 201.368 255.245 200.73 254.462 200.208C250.328 197.454 246.022 197.963 244.248 200.047C242.804 201.743 243.265 204.165 245.48 206.525C252.831 214.355 264.293 224.941 264.408 225.047C264.522 225.15 264.615 225.273 264.68 225.412C264.746 225.55 264.784 225.7 264.791 225.853C264.798 226.005 264.774 226.158 264.722 226.302C264.669 226.446 264.588 226.577 264.484 226.69C264.38 226.802 264.254 226.893 264.114 226.956C263.975 227.019 263.824 227.055 263.67 227.059C263.517 227.064 263.364 227.039 263.221 226.984C263.077 226.929 262.946 226.847 262.835 226.741C262.72 226.635 251.198 215.994 243.79 208.102C240.141 204.216 240.722 200.621 242.483 198.553C244.879 195.738 250.344 194.689 255.748 198.289C256.51 198.796 257.507 199.428 258.661 200.16C266.233 204.961 280.328 213.898 289.066 225.663C289.193 225.835 289.27 226.038 289.289 226.251C289.307 226.464 289.266 226.678 289.169 226.869C289.073 227.06 288.925 227.22 288.743 227.332C288.56 227.444 288.35 227.504 288.136 227.504Z" fill="#2D2D2D"/>
<path d="M296.21 239.05C294.714 234.52 291.097 227.577 288.859 224.13C284.988 218.166 277.672 210.257 275.818 208.165C267.255 198.502 262.231 210.513 267.106 218.916C270.504 224.773 272.552 228.516 272.552 228.516C272.552 228.516 268.563 236.829 274.743 245.171" fill="white"/>
<path d="M274.744 246.325C274.562 246.326 274.383 246.283 274.221 246.202C274.059 246.12 273.919 246.002 273.811 245.857C268.158 238.225 270.447 230.687 271.268 228.583C270.607 227.389 268.761 224.075 266.104 219.494C263.005 214.152 263.471 206.927 267.083 204.336C268.349 203.428 271.817 201.908 276.686 207.401C276.906 207.649 277.203 207.98 277.563 208.38C280.199 211.311 286.373 218.176 289.831 223.503C292.252 227.232 295.835 234.224 297.31 238.689C297.403 238.979 297.377 239.294 297.238 239.565C297.1 239.836 296.859 240.041 296.569 240.137C296.279 240.232 295.963 240.209 295.69 240.073C295.417 239.937 295.209 239.7 295.111 239.412C293.712 235.179 290.181 228.291 287.887 224.757C284.528 219.582 278.439 212.812 275.839 209.921C275.541 209.591 275.245 209.261 274.95 208.93C272.405 206.057 270.03 205.065 268.436 206.21C266.081 207.899 265.41 213.687 268.108 218.339C271.475 224.141 273.548 227.926 273.568 227.964C273.656 228.124 273.705 228.303 273.709 228.486C273.714 228.669 273.676 228.85 273.597 229.015C273.448 229.328 270.004 236.832 275.674 244.486C275.802 244.658 275.879 244.861 275.897 245.074C275.915 245.287 275.873 245.501 275.777 245.691C275.68 245.882 275.533 246.042 275.35 246.154C275.168 246.266 274.958 246.326 274.744 246.326V246.325ZM438.247 57.0809C430.054 16.3918 392.344 30.6688 383.424 54.5599C375.797 74.9857 380.675 90.7757 362.644 90.5657C362.644 90.5657 368.328 101.291 379.855 96.7029C371.885 112.225 359.015 122.462 339.398 122.078C339.398 122.078 350.268 139.027 367.82 135.517C367.82 135.517 365.331 142.437 355.447 144.511C364.55 151.362 399.156 150.606 417.421 127.898C432.514 109.133 441.98 75.6245 438.246 57.0809H438.247Z" fill="#2D2D2D"/>
<path d="M372.036 149.436C364.641 149.436 358.201 148.03 354.75 145.433C354.572 145.299 354.437 145.118 354.36 144.91C354.284 144.702 354.269 144.476 354.317 144.26C354.365 144.044 354.475 143.846 354.633 143.69C354.791 143.535 354.991 143.428 355.209 143.382C361.206 142.124 364.268 139.034 365.682 137.008C358.961 137.707 352.314 135.664 346.317 131.026C341.306 127.15 338.538 122.88 338.423 122.7C338.31 122.524 338.247 122.321 338.241 122.112C338.235 121.903 338.286 121.697 338.388 121.515C338.597 121.143 338.991 120.905 339.421 120.925C356.083 121.249 368.872 113.758 377.49 98.6434C366.989 100.963 361.677 91.2129 361.621 91.1056C361.527 90.9286 361.481 90.7305 361.487 90.5306C361.494 90.3307 361.552 90.1358 361.656 89.965C361.869 89.6176 362.247 89.402 362.658 89.4124C374.181 89.5492 375.534 82.7647 377.771 71.529C378.798 66.3705 379.962 60.5238 382.339 54.1577C384.891 47.3219 389.757 41.0825 396.041 36.5888C402.409 32.0342 409.509 29.8104 416.03 30.3254C422.865 30.8656 434.988 35.0304 439.382 56.8541C441.214 65.9538 439.984 79.0293 436.007 92.7277C431.99 106.561 425.545 119.644 418.325 128.62C407.288 142.342 391.583 146.919 383.204 148.426C379.413 149.108 375.612 149.437 372.037 149.437L372.036 149.436ZM358.459 144.888C363.388 147.016 372.414 148.02 382.793 146.154C390.853 144.704 405.953 140.311 416.518 127.176C431.025 109.14 440.84 75.8378 437.111 57.3083C434.077 42.2358 426.525 33.4705 415.847 32.6265C403.527 31.6498 389.471 41.6731 384.509 54.963C382.196 61.1554 381.052 66.9051 380.041 71.9782C377.87 82.8865 376.266 90.9368 364.77 91.6682C366.802 94.2726 371.643 98.7294 379.425 95.6313C379.644 95.5441 379.884 95.5255 380.114 95.5781C380.344 95.6307 380.552 95.7519 380.71 95.9256C380.869 96.0993 380.971 96.3172 381.002 96.5501C381.033 96.783 380.992 97.0199 380.885 97.229C376.615 105.545 371.148 111.966 364.638 116.314C358.062 120.706 350.349 123.028 341.685 123.229C342.92 124.773 344.999 127.095 347.793 129.246C354.018 134.039 360.68 135.768 367.592 134.385C367.793 134.345 368.001 134.359 368.195 134.425C368.389 134.491 368.562 134.608 368.696 134.763C368.83 134.917 368.921 135.105 368.958 135.306C368.996 135.507 368.979 135.714 368.91 135.907C368.809 136.185 366.579 142.139 358.458 144.888L358.459 144.888Z" fill="#2D2D2D"/>
<path d="M434.134 163.787C437.72 164.494 441.093 164.795 443.921 164.854C464.475 165.285 477.132 155.264 482.467 145.608C487.066 137.281 488.753 129.928 489.068 117.091C489.737 89.892 483.698 65.5317 446.384 64.6208C409.07 63.7099 401.842 87.7461 401.174 114.945C400.868 127.375 402.491 137.757 406.573 145.331C409.738 151.205 417.557 156.212 422.568 159.158L422.485 161.357" fill="white"/>
<path d="M445.213 166.022C444.776 166.022 444.338 166.017 443.897 166.008C440.632 165.94 437.178 165.563 433.91 164.92C433.608 164.86 433.343 164.684 433.172 164.43C433.001 164.175 432.939 163.864 432.998 163.563C433.028 163.415 433.086 163.273 433.171 163.147C433.255 163.021 433.363 162.912 433.49 162.828C433.616 162.744 433.758 162.685 433.907 162.655C434.056 162.625 434.209 162.625 434.359 162.655C437.498 163.273 440.813 163.635 443.945 163.701C468.896 164.227 478.963 149.558 481.452 145.051C485.968 136.877 487.597 129.815 487.911 117.063C488.521 92.2178 484.061 66.695 446.355 65.7746C429.547 65.3637 417.978 69.9867 410.984 79.9052C405.476 87.7152 402.727 98.8583 402.331 114.973C402.018 127.696 403.789 137.726 407.592 144.785C410.929 150.977 420.132 156.386 423.156 158.163C423.336 158.269 423.484 158.421 423.584 158.604C423.684 158.787 423.733 158.993 423.725 159.201L423.642 161.4C423.637 161.552 423.602 161.701 423.539 161.839C423.476 161.977 423.386 162.102 423.275 162.205C423.163 162.308 423.032 162.388 422.889 162.441C422.746 162.493 422.594 162.517 422.442 162.51C422.135 162.499 421.845 162.366 421.636 162.142C421.428 161.917 421.317 161.619 421.328 161.313L421.385 159.8C415.951 156.569 408.702 151.721 405.553 145.877C401.556 138.462 399.694 128.045 400.016 114.917C400.424 98.3251 403.307 86.7783 409.09 78.5782C416.564 67.9796 428.778 63.038 446.412 63.4671C464.052 63.8979 476.003 69.4304 482.948 80.3813C488.321 88.8537 490.634 100.528 490.226 117.119C489.907 130.128 488.142 137.728 483.481 146.165C480.437 151.674 475.464 156.593 469.477 160.015C462.5 164.003 454.341 166.022 445.213 166.022Z" fill="#2D2D2D"/>
<path d="M472.687 105.902C469.203 104.229 465.624 103.554 461.269 102.936C458.478 102.54 458.416 99.3975 462.334 97.7597C466.016 96.2206 473.228 97.9161 475.517 101.322C477.905 104.875 475.531 107.267 472.687 105.902Z" fill="#2D2D2D"/>
<path d="M474.27 107.444C473.6 107.444 472.888 107.279 472.185 106.942C468.991 105.408 465.704 104.731 461.107 104.079C459.457 103.845 458.319 102.827 458.138 101.423C457.951 99.9731 458.838 97.9698 461.887 96.6953C465.862 95.0336 473.805 96.6991 476.479 100.68C478.176 103.205 477.781 105.253 476.846 106.328C476.205 107.064 475.286 107.444 474.27 107.444H474.27ZM465.693 98.338C464.586 98.338 463.572 98.4944 462.782 98.8245C460.941 99.594 460.37 100.624 460.435 101.129C460.497 101.61 461.153 101.754 461.433 101.794C466.255 102.478 469.725 103.199 473.19 104.862C473.99 105.246 474.738 105.228 475.096 104.816C475.454 104.405 475.527 103.411 474.555 101.965C473.031 99.6961 468.956 98.338 465.693 98.338ZM435.176 104.338C431.335 104.791 427.951 106.135 423.944 107.943C421.376 109.102 419.632 106.483 422.057 103.005C424.336 99.7368 431.334 97.3102 435.099 98.9604C439.026 100.682 438.31 103.97 435.176 104.338Z" fill="#2D2D2D"/>
<path d="M422.755 109.375C421.86 109.375 421.056 109.022 420.486 108.341C419.548 107.217 419.218 105.053 421.105 102.346C423.566 98.8176 431.165 95.9758 435.564 97.9038C438.355 99.1272 439.124 101.067 438.913 102.475C438.673 104.074 437.259 105.256 435.31 105.485C431.79 105.9 428.652 107.085 424.421 108.994C423.854 109.25 423.289 109.376 422.755 109.376L422.755 109.375ZM432.157 99.5635C428.777 99.5635 424.525 101.485 423.007 103.663C421.867 105.298 421.94 106.473 422.266 106.864C422.578 107.236 423.209 107.007 423.466 106.891C427.904 104.888 431.221 103.641 435.039 103.192C435.92 103.088 436.542 102.672 436.623 102.133C436.704 101.594 436.231 100.717 434.632 100.016C433.918 99.7034 433.069 99.5632 432.157 99.5632V99.5635Z" fill="#2D2D2D"/>
<path d="M468.58 112.653C468.62 111.004 467.527 109.64 466.137 109.606C464.748 109.572 463.588 110.881 463.548 112.53C463.507 114.179 464.601 115.544 465.99 115.578C467.38 115.611 468.539 114.302 468.58 112.653Z" fill="#2D2D2D"/>
<path d="M435.449 112.599C435.489 110.95 434.396 109.586 433.006 109.552C431.617 109.518 430.458 110.828 430.417 112.477C430.377 114.126 431.47 115.49 432.86 115.524C434.249 115.558 435.408 114.248 435.449 112.599Z" fill="#2D2D2D"/>
<path d="M446.036 133.395C443.026 141.519 429.819 138.358 429.929 130.273L446.036 133.395Z" fill="white"/>
<path d="M438.958 139.299C438.285 139.299 437.59 139.235 436.879 139.103C432.926 138.37 428.702 135.29 428.77 130.258C428.773 130.089 428.812 129.923 428.886 129.771C428.96 129.619 429.066 129.485 429.198 129.378C429.329 129.271 429.483 129.195 429.647 129.154C429.812 129.113 429.983 129.108 430.149 129.141L446.256 132.262C446.421 132.294 446.577 132.362 446.713 132.46C446.849 132.558 446.962 132.684 447.044 132.83C447.127 132.975 447.176 133.137 447.189 133.304C447.203 133.471 447.18 133.638 447.122 133.795C445.833 137.272 442.741 139.299 438.958 139.299V139.299ZM431.235 131.702C431.902 134.569 434.68 136.347 437.302 136.833C439.646 137.268 442.7 136.785 444.333 134.241L431.235 131.702ZM402.474 112.024C405.809 104.71 405.621 64.2371 441.059 64.6221C489.27 65.1458 482.253 103.484 487.408 115.278C488.524 117.831 495.494 116.394 496.273 111.462C498.454 97.6513 496.291 70.7613 476.642 57.139C451.376 39.6229 414.544 43.2251 401.489 58.7298C388.979 73.5873 385.35 94.0038 393.411 110.568C398.497 121.02 402.474 112.024 402.474 112.024Z" fill="#2D2D2D"/>
<path d="M489.956 117.674C488.23 117.674 486.885 116.97 486.348 115.74C485.206 113.127 484.65 109.419 484.006 105.125C481.68 89.6166 478.165 66.1796 441.047 65.7763C440.885 65.7745 440.723 65.7737 440.563 65.7737C413.152 65.7737 408.097 91.3508 405.373 105.129C404.724 108.41 404.211 111.002 403.532 112.496C403.326 112.959 401.56 116.722 398.494 116.777L398.422 116.778C396.218 116.778 394.237 114.91 392.37 111.072C384.257 94.3995 387.488 73.5628 400.603 57.9877C407.198 50.1553 419.845 45.0752 434.433 44.3986C449.84 43.6839 465.463 47.9826 477.304 56.1915C486.157 62.3291 492.54 71.9216 495.763 83.9318C498.14 92.7903 498.759 103.149 497.417 111.641C496.848 115.242 493.604 117.263 490.829 117.617C490.54 117.654 490.248 117.673 489.956 117.674L489.956 117.674ZM440.565 63.4653C440.733 63.4653 440.902 63.4662 441.072 63.4679C458.281 63.6549 470.175 68.507 477.433 78.3018C483.566 86.5789 485.08 96.6729 486.296 104.784C486.916 108.916 487.451 112.484 488.47 114.817C488.656 115.242 489.525 115.457 490.535 115.327C492.48 115.079 494.747 113.707 495.13 111.282C497.096 98.8372 495.624 71.7035 475.982 58.0864C464.551 50.1616 449.449 46.0118 434.541 46.7043C420.587 47.3512 408.563 52.1243 402.376 59.4717C389.848 74.3505 386.738 94.2096 394.453 110.064C396.331 113.923 397.762 114.483 398.449 114.469C399.818 114.447 401.082 112.305 401.417 111.556L401.421 111.546C401.991 110.298 402.505 107.695 403.101 104.682C404.465 97.7835 406.526 87.3585 411.902 78.8093C418.305 68.6256 427.947 63.4648 440.565 63.4648L440.565 63.4653Z" fill="#2D2D2D"/>
<path d="M405.036 70.0624C395.369 88.475 411.351 108.252 411.351 108.252C411.612 81.5916 432.524 87.4882 441.06 64.6222C443.914 76.796 464.974 89.7218 464.974 89.7218C460.025 85.5048 459.133 72.1606 459.133 72.1606C476.933 94.8272 508.962 95.647 508.962 95.647C492.714 81.8501 503.53 64.6375 486.112 46.7417C468.335 28.4765 442.432 39.418 435.771 45.5039" fill="#2D2D2D"/>
<path d="M411.352 109.405C411.179 109.405 411.008 109.367 410.852 109.292C410.696 109.218 410.558 109.11 410.45 108.975C410.282 108.767 406.307 103.805 403.487 96.4745C399.718 86.6756 399.899 77.3572 404.011 69.5265C404.155 69.2594 404.4 69.0598 404.691 68.9711C404.982 68.8823 405.297 68.9115 405.567 69.0523C405.836 69.193 406.04 69.4341 406.132 69.7233C406.225 70.0124 406.2 70.3263 406.062 70.597C402.223 77.9098 402.076 86.3176 405.626 95.5872C407.115 99.4727 408.977 102.705 410.349 104.822C411.426 92.0165 417.858 87.3644 424.635 82.4624C430.379 78.3086 436.318 74.0131 439.974 64.2188C440.061 63.9867 440.221 63.7886 440.429 63.6537C440.638 63.5188 440.884 63.4542 441.132 63.4695C441.381 63.4853 441.617 63.5803 441.807 63.7404C441.997 63.9005 442.13 64.1174 442.187 64.3588C444.077 72.4209 454.603 81.0301 460.874 85.5477C458.523 79.9304 458.005 72.6509 457.978 72.2365C457.961 71.9904 458.025 71.7456 458.158 71.538C458.292 71.3304 458.488 71.1708 458.719 71.0827C458.95 70.9946 459.204 70.9825 459.442 71.0483C459.681 71.1141 459.892 71.2542 460.044 71.4482C469.051 82.9177 481.878 88.5725 491.053 91.2969C497.203 93.1231 502.562 93.9117 505.784 94.2481C499.53 87.738 498.234 80.6175 496.871 73.1252C495.366 64.8577 493.81 56.3088 485.281 47.545C475.962 37.9703 464.712 37.1428 456.92 38.1357C447.227 39.3692 439.429 43.7264 436.553 46.3545C436.325 46.5565 436.028 46.6612 435.724 46.646C435.42 46.6308 435.134 46.4968 434.928 46.2731C434.723 46.0495 434.613 45.754 434.625 45.4508C434.636 45.1476 434.766 44.8609 434.988 44.6529C438.696 41.2658 447.048 37.0652 456.626 35.8461C464.945 34.7869 476.958 35.6782 486.943 45.9381C495.963 55.206 497.656 64.5074 499.149 72.7138C500.597 80.6723 501.965 88.1893 509.713 94.7683C509.893 94.9214 510.022 95.1259 510.082 95.3543C510.142 95.5827 510.13 95.8239 510.048 96.0455C509.967 96.267 509.819 96.4583 509.624 96.5934C509.43 96.7285 509.199 96.801 508.962 96.8011L508.932 96.8008C508.599 96.7924 500.653 96.557 490.392 93.51C481.712 90.9328 469.865 85.8092 460.727 75.8248C461.349 79.944 462.76 86.3173 465.726 88.8449C465.947 89.034 466.088 89.299 466.121 89.5871C466.155 89.8753 466.078 90.1655 465.907 90.3999C465.736 90.6344 465.482 90.796 465.197 90.8525C464.911 90.9091 464.615 90.8564 464.367 90.7051C463.56 90.21 446.03 79.3467 440.953 67.8778C437.003 76.3704 431.186 80.5779 425.996 84.3318C418.834 89.5114 412.649 93.9849 412.509 108.263C412.506 108.567 412.382 108.858 412.166 109.072C411.949 109.286 411.656 109.406 411.351 109.406L411.352 109.405Z" fill="#2D2D2D"/>
<path d="M391.82 108.007C391.583 108.007 391.353 107.935 391.159 107.8C390.965 107.665 390.817 107.475 390.734 107.254C384.758 91.1915 388.539 72.3138 400.602 57.9878C406.993 50.3983 419.212 45.3416 433.288 44.461C433.44 44.451 433.592 44.4711 433.736 44.52C433.881 44.569 434.013 44.6458 434.128 44.7462C434.242 44.8465 434.335 44.9684 434.402 45.1047C434.468 45.2411 434.507 45.3893 434.516 45.5407C434.536 45.8462 434.432 46.1468 434.229 46.3764C434.026 46.606 433.74 46.7458 433.433 46.765C419.977 47.6067 408.367 52.3569 402.376 59.472C390.847 73.1638 387.218 91.165 392.905 106.451C392.97 106.626 392.992 106.813 392.969 106.998C392.945 107.182 392.877 107.359 392.77 107.512C392.664 107.664 392.522 107.789 392.356 107.876C392.191 107.962 392.007 108.007 391.82 108.007ZM496.957 95.1512C496.876 95.1512 496.794 95.1425 496.711 95.1249C491.255 93.9488 486.05 92.2831 481.241 90.1736C480.96 90.0502 480.739 89.8207 480.628 89.5354C480.517 89.2502 480.524 88.9325 480.647 88.6524C480.708 88.5136 480.796 88.3882 480.906 88.2834C481.016 88.1785 481.146 88.0963 481.287 88.0414C481.429 87.9864 481.58 87.9599 481.732 87.9632C481.884 87.9666 482.034 87.9998 482.173 88.0609C486.84 90.1078 491.896 91.7253 497.201 92.8688C497.349 92.9008 497.49 92.9618 497.615 93.0481C497.74 93.1343 497.847 93.2443 497.929 93.3717C498.011 93.4992 498.068 93.6415 498.095 93.7906C498.122 93.9397 498.119 94.0927 498.087 94.2408C498.031 94.4984 497.889 94.7293 497.683 94.8949C497.478 95.0606 497.221 95.1511 496.957 95.1515L496.957 95.1512Z" fill="white"/>
<path d="M406.077 100.713C405.858 100.713 405.643 100.651 405.458 100.534C405.273 100.418 405.125 100.251 405.031 100.054C401.326 92.297 398.142 80.7037 404.011 69.5268C404.155 69.2597 404.4 69.0601 404.691 68.9714C404.982 68.8826 405.297 68.9117 405.567 69.0525C405.836 69.1933 406.04 69.4344 406.132 69.7235C406.225 70.0127 406.2 70.3266 406.062 70.5973C400.637 80.9299 403.644 91.7796 407.121 99.0618C407.205 99.2377 407.243 99.4319 407.231 99.6264C407.22 99.8208 407.159 100.009 407.055 100.174C406.951 100.339 406.806 100.474 406.635 100.569C406.464 100.663 406.272 100.712 406.076 100.712L406.077 100.713ZM487.409 115.279C490.393 110.415 496.493 108.155 502.073 110.184C508.436 112.499 511.712 119.518 509.389 125.861C507.067 132.204 500.026 135.47 493.663 133.155C491.417 132.338 489.456 130.908 488.09 129.155C487.798 130.886 487.475 132.565 487.101 134.158" fill="white"/>
<path d="M487.101 135.312C486.927 135.312 486.754 135.273 486.597 135.197C486.44 135.122 486.302 135.011 486.193 134.875C486.085 134.739 486.008 134.579 485.97 134.41C485.932 134.24 485.933 134.063 485.973 133.894C486.313 132.451 486.631 130.838 486.948 128.964C486.985 128.742 487.086 128.537 487.239 128.372C487.391 128.208 487.589 128.091 487.807 128.036C488.025 127.981 488.254 127.991 488.467 128.064C488.679 128.137 488.866 128.27 489.004 128.447C490.256 130.053 492.052 131.34 494.06 132.07C496.847 133.084 499.863 132.956 502.553 131.708C505.243 130.461 507.285 128.244 508.302 125.465C510.401 119.73 507.429 113.361 501.676 111.268C496.725 109.467 491.141 111.407 488.397 115.881C488.318 116.012 488.215 116.126 488.092 116.218C487.969 116.309 487.829 116.375 487.68 116.411C487.531 116.448 487.376 116.455 487.225 116.432C487.073 116.408 486.928 116.355 486.797 116.276C486.666 116.196 486.553 116.091 486.463 115.967C486.373 115.843 486.309 115.703 486.274 115.554C486.239 115.405 486.234 115.251 486.259 115.1C486.285 114.95 486.34 114.805 486.421 114.676C489.739 109.269 496.489 106.923 502.469 109.1C509.422 111.629 513.014 119.325 510.477 126.256C509.248 129.614 506.78 132.293 503.529 133.801C500.279 135.308 496.633 135.464 493.266 134.238C491.634 133.644 490.129 132.751 488.825 131.607C488.645 132.549 488.446 133.487 488.228 134.421C488.168 134.674 488.024 134.9 487.82 135.061C487.615 135.223 487.362 135.311 487.101 135.311V135.312Z" fill="#2D2D2D"/>
<path d="M495.216 124.921C494.963 124.921 494.717 124.839 494.515 124.686C494.313 124.534 494.167 124.32 494.099 124.077C494.031 123.834 494.045 123.575 494.139 123.34C494.232 123.106 494.4 122.908 494.617 122.778L501.577 118.594C501.707 118.513 501.852 118.459 502.004 118.435C502.155 118.41 502.31 118.416 502.459 118.452C502.608 118.488 502.749 118.552 502.873 118.643C502.996 118.733 503.101 118.847 503.18 118.978C503.259 119.109 503.312 119.254 503.334 119.406C503.357 119.557 503.349 119.711 503.311 119.859C503.273 120.007 503.206 120.147 503.113 120.269C503.021 120.391 502.905 120.493 502.773 120.571L495.813 124.755C495.633 124.863 495.426 124.921 495.216 124.921L495.216 124.921Z" fill="#2D2D2D"/>
<path d="M500.712 126.921C500.494 126.921 500.281 126.859 500.096 126.744C499.912 126.628 499.763 126.463 499.669 126.268L495.725 118.116C495.595 117.841 495.579 117.526 495.681 117.239C495.783 116.952 495.994 116.717 496.269 116.585C496.544 116.453 496.86 116.434 497.149 116.533C497.437 116.632 497.675 116.841 497.81 117.113L501.754 125.265C501.84 125.44 501.879 125.635 501.868 125.83C501.857 126.025 501.797 126.214 501.693 126.38C501.588 126.545 501.444 126.681 501.273 126.776C501.101 126.871 500.908 126.92 500.712 126.921Z" fill="#2D2D2D"/>
<path d="M403.666 114.252C401.21 108.033 393.896 105.644 388.229 107.416C381.766 109.437 378.17 116.298 380.197 122.741C382.225 129.184 389.108 132.768 395.571 130.748C397.852 130.034 400.113 128.779 401.558 127.091C401.675 128.433 401.902 130.082 402.2 131.933" fill="white"/>
<path d="M402.198 133.087C401.923 133.087 401.657 132.989 401.448 132.811C401.239 132.633 401.1 132.387 401.056 132.116C400.9 131.147 400.77 130.273 400.664 129.483C399.341 130.472 397.718 131.286 395.917 131.849C388.855 134.058 381.307 130.127 379.093 123.087C378.02 119.676 378.343 116.054 380.003 112.886C381.663 109.718 384.462 107.385 387.883 106.315C393.83 104.456 401.967 106.8 404.743 113.83C404.847 114.113 404.836 114.425 404.712 114.701C404.588 114.976 404.361 115.192 404.08 115.302C403.798 115.412 403.485 115.409 403.206 115.292C402.927 115.174 402.705 114.953 402.588 114.675C400.3 108.881 393.534 106.968 388.576 108.518C385.745 109.403 383.429 111.334 382.056 113.955C380.682 116.576 380.414 119.574 381.302 122.396C383.135 128.221 389.38 131.474 395.224 129.647C397.501 128.935 399.488 127.73 400.678 126.342C400.826 126.169 401.022 126.043 401.242 125.981C401.461 125.919 401.694 125.922 401.912 125.992C402.129 126.061 402.321 126.193 402.464 126.371C402.606 126.549 402.692 126.765 402.712 126.991C402.82 128.226 403.026 129.782 403.343 131.75C403.37 131.915 403.36 132.084 403.315 132.244C403.27 132.405 403.19 132.555 403.081 132.682C402.972 132.809 402.837 132.911 402.685 132.981C402.532 133.051 402.367 133.087 402.199 133.087H402.198Z" fill="#2D2D2D"/>
<path d="M395.038 122.45C394.81 122.45 394.587 122.383 394.397 122.256L387.637 117.757C387.509 117.674 387.398 117.566 387.312 117.44C387.226 117.313 387.166 117.171 387.136 117.022C387.105 116.873 387.104 116.719 387.134 116.569C387.163 116.419 387.222 116.277 387.307 116.15C387.392 116.023 387.502 115.914 387.629 115.83C387.756 115.745 387.899 115.687 388.049 115.658C388.2 115.629 388.354 115.63 388.504 115.661C388.654 115.691 388.796 115.751 388.923 115.837L395.682 120.336C395.889 120.474 396.046 120.674 396.13 120.907C396.214 121.141 396.22 121.395 396.148 121.632C396.075 121.869 395.929 122.076 395.729 122.224C395.529 122.371 395.287 122.451 395.038 122.45Z" fill="#2D2D2D"/>
<path d="M389.456 124.196C389.255 124.195 389.058 124.143 388.884 124.044C388.71 123.946 388.564 123.803 388.462 123.632C388.359 123.46 388.303 123.265 388.299 123.065C388.295 122.865 388.343 122.668 388.438 122.492L392.754 114.53C392.826 114.397 392.924 114.279 393.042 114.183C393.16 114.088 393.296 114.016 393.442 113.973C393.588 113.93 393.74 113.915 393.892 113.931C394.043 113.946 394.19 113.992 394.323 114.064C394.457 114.136 394.575 114.233 394.671 114.351C394.767 114.469 394.839 114.604 394.883 114.749C394.926 114.894 394.94 115.047 394.925 115.198C394.909 115.348 394.864 115.495 394.792 115.628L390.476 123.59C390.376 123.773 390.229 123.926 390.049 124.033C389.87 124.14 389.664 124.196 389.456 124.196Z" fill="#2D2D2D"/>
<path d="M484.08 291.33C480.621 288.036 479.522 285.67 476.037 283.482C470.007 279.697 457.636 273.782 455.072 272.662C443.223 267.491 443.739 280.494 451.709 286.071C457.265 289.957 461.805 293.635 461.805 293.635C461.805 293.635 458.249 303.726 467.377 308.699" fill="white"/>
<path d="M467.376 309.854C467.182 309.854 466.992 309.805 466.822 309.712C458.511 305.185 459.833 296.702 460.484 294.06C459.083 292.948 455.352 290.03 451.044 287.016C445.977 283.47 443.349 276.721 445.53 272.855C446.295 271.5 448.8 268.666 455.535 271.605C458.06 272.707 470.577 278.692 476.653 282.506C478.962 283.955 480.268 285.453 481.779 287.187C482.678 288.218 483.607 289.284 484.879 290.495C485.097 290.708 485.222 290.997 485.227 291.301C485.233 291.605 485.118 291.898 484.907 292.118C484.697 292.338 484.408 292.466 484.103 292.475C483.798 292.483 483.502 292.372 483.28 292.165C481.93 290.879 480.921 289.722 480.031 288.701C478.583 287.039 477.439 285.727 475.419 284.459C469.443 280.708 457.098 274.807 454.606 273.719C451.084 272.182 448.511 272.279 447.548 273.986C446.126 276.507 447.961 282.038 452.374 285.126C457.899 288.991 462.488 292.702 462.534 292.739C462.719 292.889 462.854 293.092 462.918 293.321C462.983 293.55 462.976 293.793 462.897 294.017C462.767 294.39 459.798 303.255 467.932 307.686C468.158 307.809 468.336 308.003 468.439 308.239C468.542 308.474 468.563 308.737 468.499 308.985C468.435 309.234 468.29 309.454 468.087 309.611C467.883 309.768 467.633 309.854 467.376 309.853V309.854ZM493.149 293.062C484.079 291.33 468.498 348.261 484.403 350.108C500.308 351.956 502.219 294.795 493.149 293.062Z" fill="#2D2D2D"/>
<path d="M485.148 351.306C484.858 351.306 484.565 351.289 484.269 351.254C482.287 351.024 479.578 349.895 477.931 345.823C472.994 333.614 481 303.422 488.23 294.663C489.987 292.533 491.715 291.613 493.368 291.929C497.147 292.65 498.674 299.484 499.29 305.089C500.057 312.079 499.803 320.869 498.61 328.603C496.369 343.12 491.491 351.305 485.148 351.306ZM492.745 294.179C492.032 294.179 491.053 294.875 490.018 296.129C483.263 304.313 475.484 333.597 480.079 344.96C481.073 347.419 482.532 348.729 484.537 348.961C489.817 349.571 494.225 341.833 496.321 328.252C497.485 320.707 497.735 312.141 496.987 305.341C496.128 297.522 494.266 294.451 492.931 294.196C492.87 294.184 492.808 294.178 492.745 294.179Z" fill="#2D2D2D"/>
<path d="M468.856 287.598C441.124 274.808 421.986 313.814 449.018 327.98C465.043 336.069 505.584 343.681 528.62 343.289C559.574 343.725 578.029 335.809 586.569 319.795L546.478 294.983C537.244 299.629 503.914 295.801 483.822 291.183C481.277 288.061 478.106 284.26 473.199 281.8" fill="white"/>
<path d="M530.988 344.46C530.206 344.46 529.418 344.454 528.621 344.443C504.864 344.853 464.435 337.057 448.495 329.009C441.905 325.556 437.482 320.428 435.689 314.171C434.094 308.606 434.702 302.541 437.4 297.093C442.308 287.184 454.398 279.659 469.342 286.55C469.481 286.613 469.606 286.703 469.71 286.815C469.814 286.926 469.895 287.057 469.948 287.2C470.001 287.342 470.026 287.494 470.02 287.646C470.014 287.798 469.978 287.948 469.914 288.086C469.849 288.224 469.759 288.348 469.646 288.451C469.534 288.554 469.402 288.634 469.258 288.686C469.115 288.738 468.962 288.761 468.81 288.754C468.657 288.747 468.508 288.71 468.37 288.645C454.833 282.403 443.904 289.178 439.476 298.115C435.014 307.124 436.265 319.992 449.557 326.958C465.232 334.871 505.13 342.531 528.6 342.135C528.612 342.134 528.625 342.134 528.637 342.135C557.882 342.552 576.358 335.368 585.026 320.198L546.399 296.292C543.148 297.68 537.735 298.259 531.225 298.259C516.915 298.26 497.289 295.463 483.561 292.308C483.31 292.25 483.085 292.11 482.923 291.911C480.63 289.097 477.489 285.242 472.679 282.831C472.405 282.693 472.196 282.453 472.1 282.162C472.004 281.871 472.027 281.554 472.165 281.281C472.303 281.008 472.544 280.8 472.836 280.704C473.128 280.608 473.446 280.631 473.72 280.769C478.794 283.313 482.066 287.202 484.469 290.147C504.461 294.692 537.283 298.316 545.957 293.952C546.134 293.863 546.331 293.821 546.53 293.83C546.728 293.838 546.92 293.898 547.089 294.002L587.181 318.814C587.43 318.968 587.611 319.211 587.688 319.494C587.764 319.776 587.73 320.077 587.592 320.336C578.942 336.557 560.413 344.459 530.988 344.459L530.988 344.46Z" fill="#2D2D2D"/>
<path d="M592.71 321.266C582.278 341.193 556.717 353.115 517.741 352.682C504.09 352.682 492 351.265 484.403 350.108C497.136 345.832 496.376 315.999 493.15 293.062C508.498 295.306 534.909 295.8 549.152 290.266" fill="#00B2FF"/>
<path d="M519.759 353.847C519.085 353.847 518.409 353.843 517.728 353.836C504.079 353.836 491.976 352.429 484.228 351.249C483.972 351.21 483.736 351.086 483.558 350.897C483.381 350.708 483.272 350.465 483.249 350.208C483.227 349.95 483.292 349.692 483.434 349.476C483.576 349.259 483.787 349.096 484.033 349.014C493.492 345.838 496.471 324.981 492.003 293.223C491.978 293.045 491.994 292.864 492.052 292.694C492.109 292.524 492.205 292.37 492.333 292.243C492.46 292.117 492.616 292.022 492.787 291.966C492.958 291.91 493.139 291.894 493.317 291.92C506.911 293.908 533.978 294.923 548.731 289.19C549.017 289.081 549.334 289.089 549.614 289.212C549.894 289.336 550.113 289.564 550.224 289.849C550.335 290.133 550.329 290.449 550.207 290.729C550.085 291.008 549.857 291.228 549.573 291.341C534.941 297.026 508.752 296.288 494.504 294.415C496.543 309.659 499.128 340.724 487.988 349.459C495.578 350.492 506.088 351.527 517.741 351.527C554.811 351.947 581.072 341.003 591.684 320.732C591.754 320.598 591.85 320.478 591.967 320.381C592.083 320.284 592.218 320.21 592.363 320.165C592.508 320.119 592.661 320.103 592.812 320.116C592.964 320.13 593.111 320.173 593.246 320.243C593.38 320.313 593.5 320.409 593.598 320.525C593.695 320.641 593.769 320.776 593.815 320.92C593.86 321.065 593.877 321.217 593.863 321.368C593.85 321.519 593.807 321.666 593.736 321.8C582.898 342.502 556.668 353.847 519.759 353.847L519.759 353.847Z" fill="#2D2D2D"/>
<path d="M448.024 311.555C444.26 310.723 441.988 309.919 432.978 307.116C424.027 304.332 421.662 312.291 430.416 318.958C436.916 323.908 445.144 326.455 455.272 330.671" fill="white"/>
<path d="M455.272 331.826C455.123 331.826 454.972 331.797 454.826 331.736C452.514 330.774 450.309 329.902 448.178 329.059C441.027 326.23 434.85 323.787 429.713 319.875C424.037 315.552 422.924 310.866 424.339 308.139C425.402 306.092 428.321 304.458 433.323 306.015C435.179 306.592 436.749 307.084 438.105 307.51C443.366 309.161 445.335 309.778 448.275 310.428C448.9 310.566 449.294 311.182 449.155 311.804C449.017 312.427 448.397 312.819 447.774 312.682C444.735 312.01 442.591 311.337 437.409 309.712C435.818 309.212 434.226 308.714 432.634 308.218C429.59 307.272 427.201 307.648 426.395 309.2C425.426 311.068 426.738 314.704 431.119 318.041C436.002 321.759 442.04 324.148 449.032 326.913C451.173 327.76 453.387 328.636 455.718 329.606C455.965 329.709 456.169 329.894 456.294 330.13C456.42 330.365 456.46 330.637 456.407 330.898C456.354 331.16 456.212 331.395 456.005 331.564C455.798 331.733 455.539 331.826 455.272 331.826Z" fill="#2D2D2D"/>
<path d="M454.062 295.737C445.526 293.669 434.876 291.797 429.152 290.427C419.065 288.011 416.291 298.86 426.433 305.396C433.024 309.644 442.996 312.739 449.787 315.173" fill="white"/>
<path d="M449.788 316.328C449.658 316.328 449.526 316.306 449.396 316.259C448.239 315.847 447.08 315.44 445.919 315.039C439.475 312.797 431.455 310.007 425.805 306.366C419.318 302.185 417.98 296.521 419.481 293.027C420.631 290.352 423.847 287.97 429.423 289.305C431.927 289.905 435.474 290.62 439.23 291.376C444.064 292.351 449.544 293.455 454.336 294.616C454.634 294.689 454.891 294.876 455.051 295.138C455.211 295.399 455.26 295.713 455.187 296.01C455.151 296.158 455.087 296.297 454.997 296.419C454.907 296.542 454.794 296.645 454.664 296.724C454.534 296.803 454.39 296.856 454.24 296.879C454.09 296.902 453.936 296.895 453.788 296.859C449.04 295.709 443.584 294.609 438.77 293.639C434.994 292.878 431.427 292.159 428.881 291.55C425.335 290.7 422.617 291.593 421.61 293.936C420.479 296.568 421.702 300.974 427.062 304.427C432.479 307.919 440.354 310.658 446.682 312.859C447.85 313.263 449.015 313.673 450.179 314.087C450.436 314.179 450.651 314.359 450.788 314.594C450.925 314.829 450.975 315.104 450.928 315.372C450.881 315.64 450.741 315.882 450.532 316.057C450.324 316.232 450.06 316.328 449.787 316.328H449.788Z" fill="#2D2D2D"/>
<path d="M468.856 287.599C456.728 282.971 441.769 278.555 435.021 278.046C424.001 277.214 417.775 287.065 429.698 292.2C439.728 296.52 453.575 301.111 453.575 301.111" fill="white"/>
<path d="M453.575 302.265C453.454 302.265 453.33 302.246 453.209 302.206C453.07 302.16 439.2 297.55 429.239 293.26C423.942 290.978 421.332 287.384 422.256 283.647C423.325 279.325 428.852 276.424 435.109 276.895C442.421 277.447 457.829 282.155 469.27 286.521C469.553 286.633 469.78 286.852 469.903 287.13C470.025 287.408 470.033 287.722 469.924 288.006C469.815 288.289 469.598 288.519 469.321 288.644C469.044 288.77 468.728 288.781 468.442 288.677C455.497 283.737 441.092 279.661 434.934 279.197C429.069 278.754 425.186 281.444 424.505 284.2C423.874 286.75 425.988 289.345 430.158 291.141C440.025 295.391 453.802 299.971 453.94 300.016C454.201 300.103 454.422 300.279 454.565 300.514C454.707 300.748 454.761 301.025 454.717 301.296C454.673 301.566 454.534 301.813 454.325 301.99C454.116 302.168 453.85 302.266 453.575 302.266L453.575 302.265ZM391.904 352.649C391.739 352.649 391.575 352.638 391.411 352.615C390.179 352.444 389.088 351.633 388.418 350.389C387.801 349.247 387.572 347.828 387.773 346.396C388.213 343.253 390.504 341.064 392.981 341.408C394.213 341.58 395.304 342.391 395.975 343.634C396.592 344.777 396.821 346.195 396.62 347.628C396.419 349.061 395.809 350.362 394.902 351.293C394.046 352.17 392.976 352.649 391.904 352.649ZM392.478 343.682C391.383 343.682 390.305 345.012 390.067 346.715C389.935 347.652 390.078 348.593 390.457 349.297C390.644 349.642 391.057 350.235 391.731 350.329C392.404 350.424 392.967 349.965 393.241 349.684C393.8 349.111 394.195 348.245 394.327 347.308C394.458 346.372 394.315 345.431 393.936 344.727C393.749 344.382 393.336 343.789 392.662 343.695C392.601 343.686 392.539 343.682 392.478 343.682ZM516.003 203.372C515.835 203.372 515.668 203.336 515.516 203.266C515.363 203.195 515.228 203.093 515.119 202.965C515.01 202.837 514.93 202.687 514.886 202.525C514.841 202.364 514.832 202.194 514.859 202.029C514.922 201.652 516.464 192.709 522.302 183.633C522.469 183.379 522.73 183.201 523.029 183.138C523.327 183.074 523.638 183.131 523.894 183.295C524.151 183.459 524.332 183.717 524.399 184.014C524.466 184.31 524.413 184.621 524.251 184.878C518.681 193.538 517.158 202.32 517.143 202.408C517.098 202.677 516.959 202.921 516.75 203.098C516.541 203.274 516.277 203.371 516.003 203.372V203.372ZM359.867 209.299C359.576 209.299 359.297 209.19 359.084 208.994C358.87 208.798 358.738 208.529 358.714 208.241C358.703 208.106 357.573 194.692 356.121 189.543C356.08 189.397 356.068 189.245 356.086 189.094C356.104 188.944 356.152 188.798 356.226 188.666C356.301 188.534 356.401 188.418 356.52 188.324C356.64 188.23 356.776 188.161 356.923 188.12C357.069 188.079 357.222 188.067 357.373 188.085C357.524 188.103 357.67 188.15 357.803 188.225C357.935 188.299 358.052 188.398 358.146 188.517C358.24 188.637 358.31 188.773 358.351 188.919C359.862 194.28 360.975 207.49 361.022 208.05C361.035 208.209 361.015 208.369 360.963 208.52C360.911 208.671 360.828 208.81 360.72 208.928C360.611 209.045 360.479 209.139 360.332 209.203C360.186 209.267 360.027 209.3 359.867 209.3L359.867 209.299Z" fill="#2D2D2D"/>
</g>
<defs>
<clipPath id="clip0_2103_4690">
<rect width="483.288" height="354.958" fill="white" transform="translate(60.4111 47.8271)"/>
</clipPath>
<clipPath id="clip1_2103_4690">
<rect width="244.823" height="133.974" fill="white" transform="translate(78.332 176.903)"/>
</clipPath>
<clipPath id="clip2_2103_4690">
<rect width="119.955" height="137.719" fill="white" transform="translate(140.767 41.2007)"/>
</clipPath>
<clipPath id="clip3_2103_4690">
<rect width="374.606" height="343.433" fill="white" transform="translate(224.59 30.252)"/>
</clipPath>
</defs>
</svg>
