<svg width="510" height="571" viewBox="0 0 510 571" fill="none" xmlns="http://www.w3.org/2000/svg">
<mask id="mask0_2101_4573" style="mask-type:luminance" maskUnits="userSpaceOnUse" x="168" y="19" width="174" height="530">
<path d="M168 19.5342H341.1V548.713H168V19.5342Z" fill="white"/>
</mask>
<g mask="url(#mask0_2101_4573)">
<path d="M200.545 29.4658L175.025 36.8507V485.823L200.545 478.439V29.4658Z" fill="white"/>
<path d="M175.025 486.721C174.833 486.721 174.644 486.659 174.487 486.541C174.261 486.371 174.129 486.106 174.129 485.823V36.8508C174.129 36.4509 174.393 36.0992 174.777 35.9882L200.297 28.6035C200.567 28.5254 200.859 28.579 201.084 28.7487C201.309 28.9181 201.442 29.1842 201.442 29.4662V478.439C201.442 478.839 201.177 479.191 200.794 479.302L175.274 486.686C175.192 486.71 175.108 486.721 175.025 486.721ZM175.922 37.5261V484.629L199.649 477.764V30.6602L175.922 37.5261Z" fill="#2D2D2D"/>
<path d="M175.025 36.8503V485.823L168.896 489.995V27.8164L175.025 36.8503Z" fill="white"/>
<path d="M168.896 490.894C168.401 490.894 168 490.492 168 489.996V27.8169C168 27.3209 168.401 26.9189 168.896 26.9189C169.392 26.9189 169.793 27.3209 169.793 27.8169V489.996C169.793 490.492 169.392 490.894 168.896 490.894Z" fill="#2D2D2D"/>
<path d="M175.025 486.721C174.53 486.721 174.129 486.319 174.129 485.823V36.8506C174.129 36.3546 174.53 35.9526 175.025 35.9526C175.52 35.9526 175.922 36.3546 175.922 36.8506V485.823C175.922 486.319 175.52 486.721 175.025 486.721Z" fill="#2D2D2D"/>
<path d="M200.545 478.438L175.025 485.823L308.556 538.781L334.075 531.396L200.545 478.438Z" fill="white"/>
<path d="M308.555 539.679C308.443 539.679 308.331 539.658 308.226 539.616L174.695 486.658C174.339 486.517 174.112 486.164 174.13 485.78C174.148 485.396 174.408 485.067 174.776 484.961L200.296 477.576C200.487 477.521 200.69 477.53 200.875 477.604L334.405 530.561C334.762 530.703 334.989 531.056 334.971 531.439C334.953 531.823 334.693 532.153 334.324 532.259L308.805 539.644C308.723 539.667 308.639 539.679 308.556 539.679H308.555ZM177.796 485.956L308.601 537.833L331.305 531.263L200.5 479.386L177.796 485.956Z" fill="#2D2D2D"/>
<path d="M314.684 547.815L340.203 540.43V78.2515L314.684 85.6361V547.815Z" fill="white"/>
<path d="M314.684 548.713C314.491 548.713 314.302 548.651 314.145 548.532C313.919 548.363 313.787 548.097 313.787 547.815V85.6359C313.787 85.236 314.051 84.8843 314.435 84.7732L339.955 77.3886C340.225 77.3096 340.517 77.3641 340.742 77.5335C340.967 77.7029 341.1 77.969 341.1 78.251V540.43C341.1 540.83 340.836 541.182 340.452 541.293L314.932 548.677C314.851 548.701 314.767 548.713 314.684 548.713ZM315.58 86.3111V546.621L339.307 539.755V79.4453L315.58 86.3111Z" fill="#2D2D2D"/>
<path d="M168.896 27.8167L194.416 20.4321L340.204 78.251L314.684 85.6356L168.896 27.8167Z" fill="white"/>
<path d="M314.684 86.5337C314.572 86.5337 314.46 86.5127 314.354 86.4708L168.567 28.6519C168.21 28.5104 167.983 28.1578 168.001 27.774C168.02 27.3903 168.28 27.061 168.648 26.9542L194.167 19.5696C194.358 19.5142 194.561 19.5241 194.746 19.5974L340.534 77.4163C340.89 77.5579 341.117 77.9105 341.1 78.2942C341.081 78.6779 340.821 79.0072 340.453 79.1141L314.933 86.4987C314.852 86.5223 314.768 86.534 314.684 86.534L314.684 86.5337ZM171.667 27.95L314.729 84.6881L337.433 78.1182L194.371 21.3802L171.667 27.95Z" fill="#2D2D2D"/>
<path d="M175.025 36.8508L308.555 89.8084V538.781L175.025 485.823L168.896 489.996L314.684 547.815V85.6358L168.896 27.8169L175.025 36.8508Z" fill="white"/>
<path d="M314.684 548.713C314.572 548.713 314.46 548.692 314.354 548.649L168.567 490.831C168.107 490.649 167.881 490.127 168.063 489.665C168.245 489.205 168.767 488.979 169.227 489.161L313.788 546.493V86.2462L168.567 28.6521C168.107 28.4698 167.881 27.9478 168.063 27.4866C168.245 27.0259 168.767 26.7996 169.227 26.9822L315.014 84.8011C315.356 84.9367 315.581 85.2677 315.581 85.6362V547.815C315.581 548.112 315.434 548.391 315.188 548.558C315.037 548.66 314.861 548.713 314.684 548.713L314.684 548.713Z" fill="#2D2D2D"/>
<path d="M308.555 539.679C308.443 539.679 308.331 539.659 308.225 539.616L174.695 486.658C174.234 486.476 174.009 485.954 174.191 485.493C174.373 485.032 174.894 484.806 175.355 484.988L307.658 537.46V90.4187L174.695 37.6856C174.234 37.503 174.009 36.9813 174.191 36.52C174.373 36.0591 174.894 35.8337 175.355 36.0157L308.885 88.9732C309.227 89.1088 309.451 89.4399 309.451 89.8081V538.781C309.451 539.078 309.304 539.357 309.059 539.524C308.908 539.626 308.732 539.679 308.555 539.679L308.555 539.679Z" fill="#2D2D2D"/>
</g>
<mask id="mask1_2101_4573" style="mask-type:luminance" maskUnits="userSpaceOnUse" x="12" y="91" width="486" height="377">
<path d="M12 91.0596H497.4V467.333H12V91.0596Z" fill="white"/>
</mask>
<g mask="url(#mask1_2101_4573)">
<path d="M353.738 310.615C344.902 294.287 323.36 281.448 304.076 281.058C291.128 280.796 262.873 291.353 237.819 310.412C237.819 310.412 216.854 275.636 210.536 255.06C207.129 243.966 205.822 222.314 205.822 210.606C205.822 198.898 281.915 190.5 289.582 207.874C297.763 226.412 351.79 289.736 353.738 310.615Z" fill="#2D2D2D"/>
<path d="M353.738 311.516C353.415 311.516 353.108 311.341 352.948 311.044C344.327 295.115 322.852 282.339 304.058 281.958C290.964 281.688 262.811 292.532 238.364 311.129C238.16 311.284 237.901 311.345 237.65 311.297C237.4 311.249 237.181 311.096 237.049 310.877C236.839 310.529 215.954 275.77 209.676 255.325C206.213 244.048 204.923 221.911 204.923 210.606C204.923 205.146 217.272 201.718 224.633 200.161C236.76 197.595 251.831 196.508 263.968 197.321C274.283 198.012 287.242 200.341 290.405 207.51C293.529 214.587 303.333 228.157 314.686 243.869C332.84 268.996 353.416 297.475 354.634 310.531C354.674 310.957 354.409 311.352 354 311.477C353.913 311.503 353.825 311.516 353.738 311.516ZM255.485 198.885C245.068 198.885 233.991 200.024 225.004 201.925C211.525 204.776 206.722 208.279 206.722 210.606C206.722 221.806 207.991 243.707 211.396 254.795C217.061 273.242 234.827 303.608 238.077 309.087C262.651 290.624 290.836 279.892 304.094 280.156C313.57 280.348 323.937 283.519 333.285 289.085C340.796 293.557 347.143 299.274 351.605 305.519C346.646 291.18 328.312 265.804 313.228 244.926C301.815 229.131 291.959 215.489 288.759 208.238C285.809 201.553 271.422 198.885 255.485 198.885Z" fill="#2D2D2D"/>
<path d="M236.525 145.666L215.16 153.005L221.61 171.847L242.975 164.508L236.525 145.666Z" fill="white"/>
<path d="M221.609 172.749C221.235 172.749 220.886 172.513 220.758 172.139L214.308 153.298C214.231 153.072 214.246 152.824 214.351 152.609C214.456 152.394 214.642 152.23 214.868 152.152L236.233 144.813C236.703 144.651 237.214 144.903 237.376 145.374L243.825 164.215C243.903 164.441 243.887 164.689 243.782 164.904C243.677 165.119 243.492 165.283 243.266 165.361L221.901 172.7C221.804 172.733 221.706 172.749 221.609 172.749ZM216.303 153.565L222.168 170.702L241.831 163.948L235.965 146.811L216.303 153.565Z" fill="#2D2D2D"/>
<path d="M237.948 152.923C242.819 147.732 246.474 141.143 248.516 133.294C254.198 111.453 229.524 84.4383 206.415 96.8165C189.491 105.882 180.411 133.069 183.61 147.747C186.593 161.435 201.235 168.489 215.364 165.435C219.763 164.485 223.892 162.958 227.663 160.886" fill="white"/>
<path d="M208.748 167.049C203.846 167.049 199.08 165.903 194.884 163.665C188.517 160.27 184.201 154.685 182.73 147.94C181.105 140.484 182.601 129.715 186.633 119.836C191.162 108.74 198.037 100.283 205.99 96.0222C215.875 90.7279 226.957 91.963 236.394 99.4123C247.075 107.843 252.417 121.869 249.385 133.522C247.348 141.352 243.72 148.087 238.602 153.541C238.262 153.904 237.693 153.921 237.331 153.58C236.968 153.239 236.951 152.669 237.291 152.306C242.201 147.075 245.684 140.602 247.644 133.067C250.501 122.087 245.416 108.83 235.28 100.828C226.43 93.8428 216.064 92.6705 206.839 97.6118C199.254 101.675 192.669 109.81 188.298 120.519C184.397 130.077 182.937 140.438 184.488 147.556C187.247 160.211 200.724 167.678 215.174 164.555C219.484 163.623 223.54 162.123 227.229 160.096C227.665 159.857 228.212 160.017 228.451 160.453C228.69 160.89 228.53 161.437 228.094 161.677C224.253 163.788 220.033 165.349 215.553 166.317C213.284 166.807 211.001 167.05 208.747 167.05L208.748 167.049Z" fill="#2D2D2D"/>
<path d="M254.023 121.812C254.705 131.212 250.771 139.621 249.186 141.908C245.909 146.639 238.851 144.54 236.436 142.36C234.749 140.835 238.967 126.251 239.908 120.651L254.023 121.812H254.023Z" fill="#2D2D2D"/>
<path d="M243.337 145.662C240.347 145.662 237.34 144.39 235.834 143.029C234.405 141.738 235.317 136.972 237.585 127.155C238.183 124.566 238.748 122.121 239.02 120.502C239.098 120.04 239.518 119.716 239.981 119.753L254.096 120.913C254.538 120.949 254.888 121.303 254.92 121.746C255.588 130.957 251.844 139.654 249.925 142.422C248.672 144.231 246.787 145.329 244.474 145.597C244.098 145.641 243.717 145.661 243.337 145.661V145.662ZM237.066 141.715C238.503 142.992 241.576 144.119 244.268 143.807C246.077 143.597 247.483 142.786 248.447 141.394C249.581 139.758 253.598 131.909 253.171 122.646L240.648 121.616C240.34 123.228 239.851 125.342 239.339 127.561C238.295 132.075 236.358 140.46 237.066 141.715Z" fill="#2D2D2D"/>
<path d="M235.093 131.534C235.323 128.887 236.158 123.142 235.438 120.167C231.065 102.083 204.427 95.2819 195.074 106.721C195.591 98.7116 211.932 86.1412 233.437 94.9905C254.865 103.808 259.459 116.889 256.347 135.072C254.734 135.554 252.9 135.749 250.911 135.692C251.749 131.434 251.552 127.099 250.817 122.723C249.8 127.486 248.247 131.738 245.717 135.06C242.332 134.371 238.711 133.153 235.093 131.534Z" fill="#00B2FF"/>
<path d="M251.564 136.603C251.34 136.603 251.114 136.6 250.886 136.593C250.621 136.586 250.373 136.462 250.208 136.255C250.043 136.048 249.977 135.778 250.028 135.518C250.515 133.048 250.665 130.403 250.48 127.515C249.43 130.757 248.092 133.427 246.432 135.606C246.223 135.881 245.875 136.011 245.538 135.943C242.129 135.249 238.492 134.042 234.726 132.356C234.376 132.2 234.164 131.838 234.196 131.455C234.238 130.974 234.3 130.391 234.369 129.741C234.667 126.924 235.117 122.666 234.564 120.38C232.516 111.911 224.792 104.975 214.887 102.712C206.899 100.886 199.574 102.641 195.771 107.292C195.523 107.595 195.109 107.703 194.745 107.559C194.381 107.416 194.151 107.053 194.177 106.663C194.42 102.888 197.633 98.6268 202.562 95.5437C206.688 92.9624 217.99 87.66 233.779 94.1569C244.334 98.5003 251.241 104.044 254.893 111.104C258.21 117.514 258.953 125.178 257.234 135.224C257.176 135.562 256.932 135.838 256.604 135.936C255.119 136.379 253.426 136.603 251.564 136.603V136.603ZM250.817 121.822C250.823 121.822 250.83 121.822 250.837 121.822C251.268 121.831 251.633 122.147 251.704 122.573C252.467 127.119 252.56 131.131 251.983 134.796C253.284 134.77 254.48 134.622 255.554 134.354C258.731 114.868 252.192 103.682 233.096 95.8234C218.077 89.6435 207.406 94.6376 203.515 97.072C200.471 98.9762 198.112 101.398 196.889 103.759C201.396 100.397 208.12 99.3157 215.287 100.953C225.852 103.368 234.106 110.827 236.313 119.955C236.939 122.545 236.488 126.814 236.158 129.931C236.119 130.302 236.082 130.651 236.05 130.971C239.279 132.377 242.398 133.414 245.338 134.058C247.389 131.191 248.896 127.413 249.938 122.534C250.026 122.118 250.394 121.822 250.817 121.822L250.817 121.822Z" fill="#2D2D2D"/>
<path d="M236.033 142.492C238.245 139.259 242.493 137.925 246.232 139.517C250.497 141.333 252.484 146.269 250.671 150.54C248.858 154.812 243.932 156.803 239.667 154.987C238.163 154.346 236.941 153.316 236.07 152.065" fill="white"/>
<path d="M242.948 156.563C241.716 156.563 240.484 156.314 239.315 155.816C237.705 155.13 236.327 154.012 235.331 152.58C235.047 152.172 235.148 151.61 235.555 151.325C235.962 151.041 236.523 151.14 236.808 151.549C237.61 152.702 238.72 153.604 240.019 154.157C243.82 155.775 248.227 153.995 249.842 150.188C251.458 146.38 249.681 141.965 245.88 140.347C242.61 138.954 238.78 140.07 236.775 143.001C236.494 143.412 235.934 143.516 235.524 143.235C235.114 142.953 235.01 142.392 235.291 141.982C237.779 138.346 242.528 136.959 246.584 138.688C251.298 140.695 253.503 146.17 251.499 150.893C250.528 153.18 248.726 154.952 246.425 155.882C245.301 156.336 244.124 156.563 242.948 156.563V156.563Z" fill="#2D2D2D"/>
<path d="M217.771 132.298C215.661 130.699 213.353 129.759 210.517 128.753C208.699 128.108 209.084 125.982 211.933 125.409C214.611 124.871 219.217 126.99 220.29 129.595C221.409 132.313 219.493 133.603 217.771 132.298Z" fill="#2D2D2D"/>
<path d="M219.138 133.712C218.506 133.712 217.837 133.478 217.228 133.016C215.305 131.559 213.201 130.661 210.216 129.602C209.094 129.204 208.442 128.322 208.514 127.301C208.589 126.259 209.479 124.983 211.756 124.525C214.748 123.924 219.827 126.107 221.121 129.251C221.94 131.239 221.371 132.612 220.567 133.234C220.152 133.554 219.658 133.712 219.138 133.712ZM218.313 131.579C218.751 131.911 219.214 132.002 219.467 131.806C219.754 131.585 219.862 130.921 219.457 129.939C218.535 127.699 214.291 125.853 212.11 126.292C210.839 126.548 210.331 127.125 210.309 127.429C210.29 127.695 210.693 127.859 210.817 127.903C213.968 129.021 216.205 129.981 218.313 131.579H218.313Z" fill="#2D2D2D"/>
<path d="M198.679 125.071C196.127 124.372 193.636 124.36 190.63 124.483C188.702 124.561 188.27 122.444 190.702 120.851C192.988 119.353 198.051 119.605 200.014 121.624C202.062 123.73 200.762 125.641 198.679 125.071L198.679 125.071Z" fill="#2D2D2D"/>
<path d="M199.399 126.074C199.091 126.074 198.769 126.03 198.442 125.941C196.117 125.304 193.83 125.254 190.666 125.383C189.48 125.432 188.544 124.856 188.232 123.882C187.914 122.887 188.267 121.37 190.21 120.097C192.764 118.424 198.289 118.559 200.659 120.995C202.156 122.535 202.139 124.021 201.622 124.898C201.177 125.655 200.354 126.074 199.399 126.074ZM198.916 124.202C199.446 124.347 199.91 124.258 200.072 123.982C200.256 123.67 200.11 123.014 199.37 122.252C197.682 120.517 193.057 120.386 191.195 121.605C190.11 122.316 189.853 123.041 189.946 123.331C190.027 123.585 190.461 123.588 190.593 123.582C193.933 123.446 196.366 123.504 198.916 124.202Z" fill="#2D2D2D"/>
<path d="M213.193 135.155C213.491 134.061 212.989 132.971 212.071 132.721C211.154 132.47 210.169 133.154 209.871 134.248C209.573 135.342 210.076 136.432 210.993 136.682C211.91 136.933 212.895 136.249 213.193 135.155Z" fill="#2D2D2D"/>
<path d="M195.659 130.763C195.957 129.669 195.455 128.579 194.537 128.329C193.62 128.078 192.635 128.762 192.337 129.856C192.039 130.95 192.541 132.04 193.459 132.29C194.376 132.541 195.361 131.857 195.659 130.763Z" fill="#2D2D2D"/>
<path d="M217.256 147.951C217.726 153.145 209.007 154.375 207.501 149.808L217.256 147.951Z" fill="white"/>
<path d="M212.044 153.529C209.744 153.529 207.429 152.464 206.647 150.091C206.566 149.844 206.594 149.574 206.726 149.351C206.857 149.127 207.079 148.971 207.333 148.922L217.089 147.065C217.338 147.018 217.595 147.078 217.798 147.231C218.001 147.384 218.13 147.616 218.153 147.869C218.432 150.955 216.045 152.858 213.557 153.375C213.064 153.477 212.555 153.53 212.044 153.53L212.044 153.529ZM208.875 150.464C209.832 151.61 211.627 151.935 213.191 151.61C214.559 151.325 215.957 150.513 216.297 149.05L208.875 150.464Z" fill="#2D2D2D"/>
<path d="M241.005 150.165C240.684 150.165 240.373 149.992 240.211 149.688C239.977 149.249 240.142 148.703 240.58 148.468L245.484 145.844C245.923 145.609 246.468 145.775 246.702 146.214C246.936 146.653 246.771 147.199 246.333 147.433L241.428 150.058C241.294 150.13 241.148 150.164 241.005 150.164L241.005 150.165Z" fill="#2D2D2D"/>
<path d="M244.688 151.733C244.336 151.733 244.002 151.526 243.858 151.181L241.454 145.444C241.262 144.985 241.477 144.457 241.935 144.264C242.394 144.072 242.921 144.288 243.113 144.746L245.517 150.483C245.709 150.942 245.494 151.47 245.035 151.663C244.922 151.711 244.804 151.733 244.688 151.733Z" fill="#2D2D2D"/>
<path d="M187.446 110.665C191.231 98.7381 203.012 93.5484 218.545 98.2691C236.227 103.643 241.561 115.607 239.561 126.427C225.321 124.453 211.321 121.196 200.229 116.919C200.201 112.829 201.619 109.113 204 105.645C198.977 107.613 195.191 110.251 193.461 114C191.268 112.936 189.253 111.824 187.446 110.665Z" fill="#00B2FF"/>
<path d="M239.562 127.328C239.521 127.328 239.479 127.325 239.437 127.32C224.596 125.262 210.557 121.867 199.906 117.76C199.561 117.627 199.332 117.295 199.329 116.925C199.308 113.744 200.099 110.678 201.74 107.618C197.966 109.473 195.514 111.699 194.278 114.378C194.177 114.597 193.992 114.767 193.764 114.849C193.537 114.93 193.286 114.916 193.069 114.811C190.819 113.72 188.764 112.58 186.962 111.424C186.618 111.204 186.466 110.781 186.589 110.392C188.551 104.21 192.583 99.7142 198.249 97.3903C203.958 95.0493 211.066 95.0547 218.806 97.4071C227.29 99.9854 233.473 104.158 237.185 109.811C240.433 114.756 241.561 120.559 240.445 126.591C240.365 127.023 239.989 127.328 239.562 127.328ZM201.136 116.301C211.38 120.18 224.701 123.401 238.818 125.412C240.617 113.39 233.002 103.605 218.284 99.1316C203.803 94.7308 192.473 99.0024 188.524 110.279C189.902 111.134 191.424 111.978 193.063 112.799C194.905 109.498 198.387 106.877 203.672 104.805C204.041 104.661 204.46 104.774 204.705 105.084C204.951 105.395 204.966 105.829 204.742 106.155C202.423 109.533 201.24 112.858 201.136 116.3L201.136 116.301Z" fill="#2D2D2D"/>
<path d="M214.187 144.513C212.436 144.513 210.696 144.101 209.087 143.288C203.507 140.464 201.259 133.618 204.078 128.028C206.896 122.437 213.73 120.186 219.311 123.009C222.014 124.377 224.024 126.718 224.97 129.6C225.916 132.482 225.685 135.561 224.32 138.269C222.955 140.977 220.618 142.991 217.741 143.939C216.577 144.322 215.379 144.513 214.187 144.513ZM214.214 123.593C210.727 123.593 207.361 125.514 205.684 128.84C203.312 133.543 205.203 139.303 209.898 141.678C212.173 142.829 214.759 143.023 217.179 142.226C219.6 141.429 221.565 139.735 222.714 137.456C225.085 132.753 223.195 126.994 218.499 124.618C217.124 123.923 215.659 123.593 214.214 123.593Z" fill="#2D2D2D"/>
<path d="M190.997 137.488C189.28 137.488 187.538 137.097 185.904 136.269C180.323 133.446 178.076 126.601 180.894 121.01C183.713 115.419 190.547 113.168 196.127 115.991C201.708 118.815 203.955 125.66 201.137 131.251C199.144 135.204 195.142 137.488 190.997 137.488ZM191.031 116.575C187.543 116.575 184.177 118.496 182.5 121.822C180.129 126.525 182.02 132.285 186.715 134.66C191.409 137.035 197.159 135.141 199.53 130.438C201.901 125.735 200.011 119.975 195.316 117.6C193.941 116.905 192.475 116.575 191.031 116.575Z" fill="#2D2D2D"/>
<path d="M204.238 130.921C204.154 130.921 204.069 130.909 203.984 130.884L200.778 129.94C200.302 129.8 200.028 129.298 200.169 128.821C200.309 128.343 200.809 128.07 201.286 128.21L204.492 129.154C204.968 129.295 205.241 129.796 205.101 130.273C204.986 130.666 204.627 130.921 204.238 130.921Z" fill="#2D2D2D"/>
<path d="M245.168 139.814C245.127 139.814 245.085 139.811 245.042 139.805L224.125 136.864C223.633 136.795 223.29 136.339 223.359 135.846C223.428 135.353 223.884 135.008 224.376 135.079L245.292 138.02C245.784 138.089 246.127 138.545 246.058 139.038C245.995 139.489 245.61 139.814 245.168 139.814V139.814Z" fill="#2D2D2D"/>
<path d="M347.828 453.872C344.292 453.872 340.782 453.701 337.304 453.357C321.062 451.753 305.864 446.437 292.13 437.557C269.345 422.824 253.474 399.03 244.958 366.836C238.449 342.226 237.216 316.694 236.316 298.052C236.034 292.208 235.79 287.161 235.44 283.029C234.176 268.15 245.193 255.061 260.046 253.796C274.9 252.53 287.965 263.566 289.229 278.445C289.663 283.562 289.942 289.332 290.237 295.44C291.755 326.896 294.05 374.434 321.405 392.121C333.93 400.22 348.8 401.926 365.6 397.192C382.761 392.356 396.784 382.26 404.185 374.425C414.43 363.577 431.514 363.104 442.342 373.368C453.171 383.631 453.643 400.745 443.397 411.592C427.396 428.533 403.778 442.61 380.217 449.249C369.3 452.326 358.446 453.872 347.827 453.872H347.828Z" fill="white"/>
<path d="M347.828 454.773C344.275 454.773 340.704 454.599 337.216 454.254C320.832 452.635 305.498 447.273 291.643 438.314C268.663 423.455 252.664 399.484 244.089 367.066C237.555 342.365 236.32 316.778 235.418 298.096C235.137 292.261 234.894 287.223 234.544 283.105C233.24 267.754 244.647 254.203 259.971 252.897C275.295 251.59 288.823 263.018 290.126 278.368C290.562 283.504 290.841 289.28 291.136 295.396C292.646 326.668 294.927 373.927 321.894 391.364C334.192 399.316 348.816 400.984 365.357 396.324C382.343 391.537 396.214 381.553 403.532 373.805C408.653 368.384 415.574 365.285 423.021 365.078C430.463 364.87 437.55 367.583 442.961 372.713C448.373 377.842 451.467 384.775 451.673 392.236C451.879 399.696 449.172 406.79 444.052 412.211C427.944 429.265 404.172 443.436 380.462 450.116C369.497 453.206 358.517 454.773 347.829 454.773L347.828 454.773ZM262.353 254.598C261.615 254.598 260.872 254.629 260.123 254.693C245.788 255.915 235.117 268.592 236.337 282.953C236.689 287.103 236.933 292.157 237.215 298.008C238.113 316.611 239.343 342.088 245.828 366.605C254.284 398.575 270.027 422.192 292.618 436.8C306.231 445.602 321.295 450.87 337.393 452.461C340.822 452.799 344.333 452.971 347.828 452.971C358.352 452.971 369.167 451.427 379.974 448.382C403.384 441.785 426.85 427.801 442.745 410.973C447.535 405.902 450.066 399.265 449.874 392.286C449.681 385.307 446.787 378.821 441.725 374.023C436.662 369.224 430.037 366.684 423.071 366.881C416.104 367.074 409.629 369.973 404.839 375.044C397.356 382.967 383.182 393.174 365.844 398.059C348.784 402.866 333.669 401.123 320.918 392.879C293.174 374.94 290.866 327.124 289.339 295.484C289.044 289.385 288.766 283.624 288.333 278.521C287.177 264.912 275.748 254.598 262.353 254.598Z" fill="#2D2D2D"/>
<path d="M351.502 463.789C328.447 463.789 306.523 457.457 287.764 445.327C263.786 429.823 247.249 404.662 238.613 370.541C232.177 345.116 231.099 318.851 230.312 299.674C230.051 293.302 229.825 287.8 229.463 283.538C227.919 265.352 241.384 249.355 259.538 247.807C277.693 246.26 293.661 259.749 295.206 277.935C295.69 283.639 295.956 290.109 296.237 296.959C296.942 314.145 297.82 335.533 302.569 354.295C307.037 371.944 313.898 383.556 323.545 389.794C343.183 402.492 375.293 398.214 392.941 384.013C407.369 395.647 431.953 432.164 426.534 441.199C407.772 453.871 378.806 462.646 357.463 463.648C355.469 463.742 353.481 463.788 351.503 463.788L351.502 463.789Z" fill="#00B2FF"/>
<path d="M351.502 464.691C328.311 464.691 306.102 458.257 287.276 446.084C263.102 430.454 246.436 405.112 237.741 370.763C231.282 345.247 230.202 318.928 229.414 299.711C229.153 293.345 228.927 287.855 228.567 283.614C227.8 274.579 230.591 265.785 236.426 258.852C242.262 251.92 250.442 247.678 259.462 246.91C268.482 246.141 277.261 248.937 284.181 254.782C291.101 260.628 295.335 268.823 296.103 277.859C296.589 283.584 296.855 290.063 297.136 296.922C297.84 314.067 298.715 335.403 303.441 354.074C307.85 371.493 314.586 382.929 324.033 389.037C344.04 401.974 376.11 396.402 392.378 383.311C392.707 383.046 393.176 383.045 393.505 383.311C407.327 394.457 433.301 431.667 427.305 441.664C427.237 441.777 427.146 441.873 427.037 441.947C417.968 448.073 406.281 453.506 393.239 457.66C380.862 461.602 368.172 464.049 357.505 464.55C355.505 464.643 353.485 464.691 351.503 464.691L351.502 464.691ZM262.39 248.588C261.469 248.588 260.543 248.627 259.615 248.706C251.074 249.434 243.327 253.45 237.802 260.015C232.276 266.579 229.634 274.906 230.36 283.462C230.724 287.742 230.95 293.251 231.211 299.629C231.997 318.775 233.073 344.986 239.485 370.32C248.065 404.213 264.472 429.194 288.252 444.57C306.786 456.554 328.658 462.888 351.502 462.888C353.457 462.888 355.448 462.841 357.421 462.749C379.517 461.711 408.254 452.393 425.855 440.571C427.844 436.788 424.252 426.679 416.416 414.057C409.206 402.444 399.855 390.958 392.931 385.17C384.172 391.996 371.884 396.619 359.078 397.888C345.281 399.255 332.488 396.65 323.057 390.552C313.21 384.185 306.223 372.398 301.697 354.517C296.924 335.665 296.045 314.225 295.338 296.998C295.057 290.158 294.792 283.698 294.309 278.012C293.583 269.456 289.573 261.696 283.021 256.161C277.18 251.227 269.941 248.588 262.389 248.588L262.39 248.588Z" fill="#2D2D2D"/>
<path d="M404.186 374.424L423.078 354.81L490.561 423.882C490.561 423.882 480.796 435.465 468.969 431.235C457.655 427.188 450.169 423.782 441.551 419.852C433.062 415.982 426.929 409.458 427.512 402.912C428.788 388.612 404.186 374.425 404.186 374.425V374.424Z" fill="#2D2D2D"/>
<path d="M474.329 433.079C472.521 433.079 470.624 432.784 468.666 432.084C457.241 427.997 449.797 424.603 441.178 420.673C431.749 416.373 426.033 409.37 426.616 402.832C427.826 389.263 403.977 375.344 403.736 375.205C403.496 375.067 403.333 374.825 403.294 374.55C403.255 374.275 403.345 373.998 403.538 373.798L422.43 354.184C422.598 354.009 422.831 353.91 423.074 353.909C423.315 353.914 423.55 354.005 423.72 354.18L491.203 423.252C491.527 423.584 491.547 424.109 491.247 424.464C490.898 424.878 483.854 433.08 474.329 433.08L474.329 433.079ZM405.619 374.233C410.315 377.116 429.585 389.791 428.408 402.992C427.894 408.758 433.199 415.054 441.923 419.032C450.506 422.946 457.918 426.326 469.271 430.386C478.845 433.81 487.146 426.156 489.319 423.901L423.082 356.103L405.619 374.233L405.619 374.233Z" fill="#2D2D2D"/>
<path d="M496.501 417.716L452.023 374.724C451.257 373.984 450.238 373.572 449.174 373.546C440.892 373.349 437.451 368.857 441.55 364.601L427.1 350.634L418.429 359.637L436.021 376.642C437.222 377.802 438.608 378.754 440.121 379.458L446.466 382.407C447.98 383.111 449.366 384.063 450.566 385.223L490.561 423.882L496.501 417.715L496.501 417.716Z" fill="white"/>
<path d="M490.561 424.784C490.336 424.784 490.11 424.7 489.936 424.531L449.941 385.872C448.81 384.779 447.513 383.888 446.087 383.225L439.742 380.276C438.134 379.528 436.672 378.524 435.396 377.291L417.803 360.286C417.446 359.94 417.435 359.37 417.781 359.011L426.452 350.008C426.618 349.836 426.845 349.737 427.083 349.733C427.329 349.721 427.553 349.82 427.724 349.986L442.174 363.952C442.531 364.298 442.542 364.868 442.196 365.227C441.265 366.194 440.286 367.67 440.916 369.208C441.744 371.226 444.916 372.543 449.194 372.645C450.499 372.676 451.725 373.184 452.647 374.075L497.125 417.067C497.483 417.412 497.493 417.983 497.148 418.341L491.208 424.508C491.031 424.691 490.796 424.783 490.561 424.783V424.784ZM419.701 359.615L436.645 375.994C437.776 377.087 439.073 377.978 440.5 378.641L446.844 381.59C448.453 382.338 449.915 383.342 451.19 384.576L490.538 422.608L495.228 417.739L451.398 375.373C450.801 374.797 450.004 374.468 449.152 374.448C444.073 374.327 440.372 372.624 439.252 369.894C438.563 368.214 438.94 366.378 440.307 364.654L427.122 351.91L419.7 359.616L419.701 359.615Z" fill="#2D2D2D"/>
<path d="M453.755 426.134C453.704 426.134 453.652 426.13 453.599 426.121C453.11 426.035 452.782 425.568 452.868 425.078C452.878 425.019 453.851 419.084 450.387 416.64C444.745 412.659 427.282 403.805 427.106 403.716C426.663 403.491 426.485 402.949 426.709 402.505C426.934 402.061 427.475 401.883 427.918 402.107C428.64 402.473 445.674 411.11 451.423 415.166C455.823 418.27 454.691 425.098 454.64 425.387C454.564 425.825 454.184 426.134 453.755 426.134V426.134Z" fill="white"/>
<path d="M352.038 408.136C347.12 408.136 342.315 407.686 337.665 406.789C328.414 405.002 320.014 401.463 312.698 396.269C300.869 387.871 293.062 372.817 288.834 350.248C285.283 331.297 284.988 310.99 284.752 294.674C284.612 285.029 284.491 276.699 283.662 271.792C283.579 271.302 283.909 270.836 284.399 270.753C284.889 270.669 285.354 271.001 285.436 271.492C286.288 276.535 286.404 284.528 286.551 294.648C286.787 310.896 287.08 331.116 290.602 349.916C294.741 372.003 302.309 386.684 313.739 394.799C330.747 406.873 349.915 407.334 363 405.595C377.832 403.623 392.255 397.705 399.744 390.517C400.103 390.173 400.672 390.186 401.016 390.545C401.36 390.904 401.347 391.475 400.989 391.819C393.242 399.254 378.423 405.363 363.237 407.382C359.454 407.885 355.715 408.136 352.038 408.136L352.038 408.136Z" fill="#2D2D2D"/>
<path d="M57.6571 399.57C54.0585 408.725 114.233 433.167 118.136 422.745C122.039 412.323 63.9659 383.521 57.6571 399.57Z" fill="#2D2D2D"/>
<path d="M111.855 426.184C104.648 426.184 93.3353 422.746 84.4502 419.217C74.4938 415.263 62.3478 409.161 58.117 403.892C56.7245 402.159 56.2881 400.593 56.8199 399.24C57.8384 396.65 60.6908 393.622 68.5046 393.928C73.6529 394.127 80.2385 395.721 87.5497 398.537C102.43 404.268 121.631 415.979 118.978 423.061C118.394 424.622 116.88 425.609 114.48 425.996C113.686 426.124 112.806 426.184 111.854 426.184H111.855ZM67.3761 395.715C62.9977 395.715 59.672 396.905 58.4946 399.901C58.1485 400.781 58.8608 401.943 59.5194 402.763C62.8244 406.878 72.8707 412.679 85.1136 417.541C97.6632 422.525 108.807 425.085 114.195 424.216C115.91 423.94 116.953 423.338 117.294 422.428C119.029 417.795 103.977 406.794 86.9046 400.219C80.2005 397.637 72.9391 395.715 67.3764 395.715H67.3761Z" fill="#2D2D2D"/>
<path d="M88.5202 454.545C86.2124 454.545 83.8677 454.246 81.5323 453.621C67.131 449.764 58.5773 434.943 62.4273 420.516C68.612 397.339 79.3088 372.195 92.5471 349.714C107.76 323.881 126.137 301.764 145.69 285.754C165.64 269.419 188.415 260.277 213.382 258.58C233.707 257.198 251.932 260.945 265.239 263.682C266.114 263.862 267.044 264.053 267.996 264.246C271.909 255.413 280.435 248.974 290.728 248.226C305.596 247.145 318.524 258.343 319.603 273.237C320.789 289.608 316.467 302.239 306.756 310.778C298.86 317.721 288.461 320.851 275.849 320.08C269.006 319.662 261.904 318.202 254.385 316.656C242.974 314.309 230.04 311.651 217.037 312.534C203.085 313.482 191.27 318.277 179.853 327.625C147.361 354.229 123.657 400.463 114.579 434.482C111.353 446.569 100.443 454.544 88.5199 454.544L88.5202 454.545Z" fill="white"/>
<path d="M88.5201 455.446C86.0938 455.446 83.6646 455.125 81.2998 454.492C74.1023 452.564 68.0852 447.944 64.3564 441.483C60.6277 435.022 59.6338 427.493 61.5577 420.283C67.7631 397.029 78.4935 371.805 91.772 349.256C107.038 323.333 125.485 301.133 145.12 285.056C165.217 268.601 188.164 259.39 213.321 257.68C233.768 256.29 252.063 260.052 265.42 262.799L265.487 262.813C266.126 262.944 266.793 263.081 267.476 263.22C271.788 254.124 280.607 248.058 290.663 247.327C298.094 246.785 305.289 249.177 310.925 254.059C316.56 258.94 319.961 265.728 320.501 273.171C321.708 289.839 317.284 302.72 307.35 311.455C299.269 318.561 288.652 321.765 275.794 320.98C268.888 320.558 261.757 319.091 254.206 317.539C242.851 315.204 229.984 312.558 217.098 313.433C203.342 314.368 191.688 319.099 180.423 328.323C148.086 354.799 124.489 400.835 115.448 434.715C112.191 446.92 101.118 455.445 88.5198 455.446H88.5201ZM222.239 259.185C219.357 259.185 216.424 259.277 213.443 259.479C188.666 261.164 166.062 270.239 146.259 286.452C126.787 302.396 108.481 324.43 93.3222 350.173C80.1244 372.585 69.4609 397.649 63.2963 420.749C61.4965 427.494 62.4262 434.538 65.9145 440.582C69.4027 446.626 75.0317 450.948 81.7649 452.751C83.978 453.344 86.251 453.644 88.5204 453.644C100.305 453.644 110.663 445.668 113.71 434.25C122.826 400.091 146.637 353.659 179.284 326.928C190.852 317.456 202.829 312.597 216.976 311.635C230.106 310.745 243.101 313.416 254.566 315.774C262.054 317.313 269.126 318.767 275.904 319.181C288.272 319.938 298.452 316.882 306.163 310.101C315.651 301.758 319.871 289.377 318.706 273.303C318.202 266.339 315.02 259.99 309.748 255.423C304.476 250.857 297.743 248.619 290.794 249.126C281.161 249.826 272.741 255.76 268.819 264.613C268.648 264.999 268.23 265.213 267.818 265.131C266.889 264.942 265.982 264.756 265.125 264.58L265.059 264.566C253.758 262.242 238.895 259.186 222.239 259.186V259.185Z" fill="#2D2D2D"/>
<path d="M69.1548 197.806C63.6842 188.782 102.421 165.854 107.544 179.872C112.55 193.569 76.5347 209.98 69.1548 197.806Z" fill="#2D2D2D"/>
<path d="M78.7232 202.98C74.2497 202.98 70.4187 201.626 68.3859 198.274C67.613 196.999 67.1368 194.778 69.2574 191.438C74.3007 183.492 91.4756 173.539 101.475 174.622C104.955 174.999 107.346 176.707 108.389 179.562C111.087 186.943 103.127 194.664 94.0413 199.042C89.1609 201.394 83.5655 202.98 78.7232 202.98V202.98ZM99.8859 176.342C90.4976 176.342 75.2787 185.311 70.7756 192.405C69.4713 194.46 69.1849 196.12 69.9238 197.338C73.4118 203.092 84.3042 201.734 93.2612 197.418C101.344 193.523 108.997 186.468 106.699 180.182C105.896 177.984 104.073 176.717 101.281 176.414C100.833 176.366 100.366 176.342 99.8859 176.342Z" fill="#2D2D2D"/>
<path d="M147.605 248.006C127.076 247.652 109.798 239.928 97.1684 224.574C86.8423 212.02 79.1154 194.099 73.5953 169.747C71.7613 161.657 76.8217 153.609 84.8979 151.772C92.9742 149.935 101.008 155.004 102.842 163.095C110.671 192.997 117.71 216.492 146.964 217.955C162.368 218.353 179.129 204.577 185.606 195.144C197.191 179.115 221.126 195.554 210.316 212.171C197.5 231.008 170.306 248.397 147.605 248.006Z" fill="white"/>
<path d="M148.341 248.913C148.089 248.913 147.839 248.911 147.589 248.907C137.163 248.727 127.561 246.651 119.048 242.734C110.392 238.751 102.796 232.834 96.4738 225.147C86.0301 212.45 78.2595 194.394 72.7178 169.947C71.7775 165.799 72.506 161.533 74.7688 157.935C77.0316 154.336 80.5583 151.835 84.6985 150.893C93.2459 148.949 101.778 154.333 103.719 162.895C107.805 178.499 111.428 191.211 117.621 200.696C124.477 211.197 133.816 216.395 147.008 217.055C162.066 217.448 178.498 203.906 184.864 194.634C191.204 185.861 200.714 186.436 206.873 190.676C213.027 194.912 216.965 203.6 211.069 212.663C204.645 222.106 194.463 231.362 183.124 238.075C171.291 245.08 158.973 248.914 148.34 248.914L148.341 248.913ZM88.2188 152.299C87.1887 152.299 86.1432 152.413 85.0971 152.651C81.4253 153.486 78.2985 155.704 76.2915 158.895C74.2848 162.087 73.6388 165.87 74.4728 169.548C79.9507 193.714 87.6016 211.526 97.863 224.001C110.18 238.975 126.92 246.749 147.62 247.105C147.876 247.109 148.134 247.111 148.39 247.111C171.61 247.112 197.636 229.208 209.572 211.663C214.799 203.628 211.311 195.918 205.854 192.161C200.393 188.402 191.955 187.896 186.335 195.673C179.852 205.115 163.16 218.864 147.614 218.865C147.389 218.865 147.166 218.862 146.942 218.856C133.103 218.164 123.315 212.708 116.116 201.683C109.774 191.97 106.107 179.117 101.972 163.323C100.482 156.753 94.6543 152.299 88.2194 152.299H88.2188Z" fill="#2D2D2D"/>
<path d="M146.965 256.221C108.812 255.297 85.6265 233.461 69.1543 197.807C79.6667 207.017 109.404 190.824 107.544 179.872C114.158 198.16 125.357 213.412 146.592 214.156C158.407 214.569 174.241 201.094 180.664 191.739C197.061 169.335 230.291 192.174 215.258 215.576C201.107 236.456 171.846 256.823 146.965 256.221H146.965Z" fill="#00B2FF"/>
<path d="M148.081 257.135C147.702 257.135 147.323 257.131 146.944 257.121C128.231 256.668 112.67 251.311 99.3706 240.744C87.2816 231.138 77.1308 217.217 68.3381 198.185C68.1597 197.799 68.2754 197.34 68.6152 197.085C68.9553 196.829 69.4271 196.847 69.7468 197.128C75.1643 201.875 86.3494 199.148 94.4485 194.606C102.468 190.109 107.375 184.248 106.657 180.023C106.579 179.563 106.864 179.119 107.314 179C107.764 178.88 108.231 179.126 108.39 179.564C116.363 201.612 128.87 212.632 146.624 213.254C158.048 213.654 173.567 200.484 179.923 191.228C188.746 179.17 201.831 179.936 210.261 185.74C218.687 191.542 224.081 203.506 216.014 216.063C208.803 226.704 197.726 237.141 185.612 244.718C176.482 250.428 162.653 257.135 148.081 257.135L148.081 257.135ZM146.987 255.319C171.788 255.92 200.785 235.326 214.514 215.07C221.919 203.541 216.975 192.551 209.242 187.226C201.505 181.899 189.489 181.205 181.39 192.272C177.942 197.293 172.106 203.077 166.175 207.342C161.094 210.997 153.567 215.306 146.561 215.056C128.961 214.44 116.329 204.161 108.032 183.666C106.338 188.526 100.599 193.223 95.3278 196.179C87.5956 200.516 77.7499 203.086 71.2856 200.212C89.0261 236.971 113.145 254.5 146.986 255.32L146.987 255.319Z" fill="#2D2D2D"/>
<path d="M85.5189 152.512C78.6135 143.619 82.6236 136.587 89.5805 138.321C96.9499 140.158 97.0144 147.496 97.6823 149.708C98.3502 151.92 92.7893 155.097 89.1187 149.993C87.6779 147.99 86.4543 145.927 86.4543 145.927" fill="white"/>
<path d="M93.8343 153.643C92.054 153.643 90.0473 152.826 88.3888 150.52C86.9415 148.508 85.7317 146.474 85.681 146.388C85.4272 145.96 85.5676 145.407 85.9947 145.153C86.4217 144.899 86.9739 145.039 87.2276 145.467C87.2399 145.487 88.4494 147.521 89.8488 149.467C91.7334 152.087 94.1258 152.163 95.6028 151.432C96.4951 150.991 96.9299 150.329 96.8211 149.969C96.7014 149.572 96.6054 149.066 96.4945 148.479C95.9372 145.533 95.0045 140.602 89.3632 139.196C86.8653 138.573 84.7198 139.209 83.6245 140.895C82.3064 142.925 82.2986 146.897 86.2289 151.959C86.5339 152.352 86.4634 152.918 86.0712 153.224C85.6789 153.529 85.1138 153.458 84.8085 153.066C80.2979 147.256 80.4602 142.462 82.1163 139.913C83.6491 137.552 86.5213 136.631 89.7978 137.447C96.5581 139.131 97.6668 144.994 98.2627 148.144C98.3641 148.68 98.4517 149.143 98.5437 149.447C98.9366 150.749 98.0552 152.229 96.4003 153.049C95.6679 153.411 94.7832 153.643 93.8346 153.643L93.8343 153.643Z" fill="#2D2D2D"/>
<path d="M77.4099 156.519C70.8917 147.393 77.3715 140.353 84.168 143.771C89.5178 146.462 90.2697 150.749 90.8545 152.966C92.1948 158.046 83.3874 161.627 80.6831 155.95C79.6217 153.721 78.1372 151.313 78.1372 151.313" fill="white"/>
<path d="M85.2167 159.748C83.1248 159.748 81.0326 158.777 79.8711 156.338C78.8436 154.182 77.3863 151.811 77.3716 151.787C77.1107 151.364 77.2418 150.809 77.6647 150.547C78.0878 150.285 78.6418 150.417 78.903 150.841C78.9648 150.941 80.425 153.315 81.4954 155.562C82.7223 158.138 85.279 158.272 87.0962 157.603C88.8749 156.949 90.5379 155.291 89.9852 153.197C89.9456 153.046 89.9051 152.886 89.8625 152.718C89.2765 150.403 88.3909 146.904 83.7648 144.577C81.173 143.273 78.4744 143.63 76.89 145.486C75.2438 147.414 74.7082 151.187 78.1421 155.995C78.4312 156.4 78.338 156.963 77.934 157.253C77.5297 157.542 76.968 157.449 76.6786 157.044C72.6403 151.39 73.4335 146.761 75.5224 144.314C77.6632 141.807 81.215 141.278 84.5721 142.966C89.933 145.663 91.0217 149.964 91.6068 152.275C91.6479 152.437 91.6869 152.591 91.725 152.736C92.5653 155.921 90.2362 158.369 87.7164 159.296C86.9258 159.586 86.0714 159.748 85.2173 159.748H85.2167Z" fill="#2D2D2D"/>
<path d="M73.5957 169.748C72.809 166.647 70.7969 162.306 70.6524 157.878C70.372 149.293 74.7554 147.529 80.257 149.48C85.6742 151.401 85.7453 159.523 85.8128 162.734C85.8608 165.014 80.0299 167.998 76.5342 162.782C75.1621 160.735 74.5608 158.369 74.5608 158.369C75.6813 161.298 76.1614 163.473 79.0558 165.073" fill="white"/>
<path d="M73.5946 170.649C73.1927 170.649 72.8265 170.377 72.7231 169.97C72.4951 169.071 72.1506 168.035 71.7859 166.938C70.8822 164.219 69.858 161.138 69.7525 157.908C69.6103 153.562 70.615 150.569 72.7387 149.012C74.6359 147.622 77.3396 147.489 80.5567 148.63C86.4658 150.726 86.6358 159.006 86.7084 162.542L86.712 162.714C86.7423 164.154 85.3312 165.652 83.3563 166.278C80.9829 167.029 78.6397 166.397 76.8447 164.586C75.9666 163.759 75.3971 162.83 74.9349 161.819C74.0919 160.154 73.7086 158.671 73.6885 158.591C73.5709 158.128 73.8336 157.654 74.288 157.509C74.7415 157.365 75.2303 157.6 75.4004 158.046C75.538 158.406 75.6661 158.754 75.7902 159.092C76.0455 159.787 76.2755 160.413 76.5292 160.982C76.7458 161.412 76.9959 161.854 77.2808 162.279C77.5378 162.663 77.8035 162.991 78.0731 163.271C78.4597 163.634 78.9216 163.97 79.4899 164.284C79.5523 164.318 79.6087 164.359 79.6594 164.405C80.9763 164.987 82.1936 164.755 82.8138 164.558C84.1808 164.125 84.9225 163.215 84.9129 162.752L84.9093 162.578C84.8442 159.415 84.6921 152.008 79.9563 150.329C78.1217 149.678 75.5644 149.174 73.8012 150.467C72.2093 151.633 71.4314 154.186 71.5513 157.848C71.6482 160.816 72.6286 163.766 73.4935 166.368C73.8687 167.497 74.2235 168.563 74.4676 169.525C74.59 170.007 74.2988 170.498 73.8174 170.621C73.7431 170.64 73.6684 170.649 73.5952 170.649L73.5946 170.649Z" fill="#2D2D2D"/>
<path d="M102.842 163.095C102.485 161.192 102.861 156.978 101.944 154.505C100.901 151.691 96.2192 148.523 93.783 146.022C87.6739 139.751 84.8014 149.502 89.3249 154.535C90.9414 156.334 92.2706 157.66 92.2706 157.66C92.2706 157.66 86.9016 165.063 91.8906 170.305" fill="white"/>
<path d="M91.8902 171.206C91.6526 171.206 91.4157 171.112 91.2388 170.927C87.1891 166.672 89.1952 160.798 91.1119 157.767C90.5748 157.214 89.6759 156.273 88.6559 155.138C85.5339 151.665 85.6038 146.111 87.8507 144.001C88.4901 143.4 90.8552 141.726 94.4265 145.392C95.1628 146.148 96.1231 146.977 97.1398 147.855C99.5243 149.913 101.99 152.041 102.787 154.191C103.413 155.878 103.482 158.163 103.543 160.178C103.575 161.262 103.606 162.286 103.726 162.928C103.818 163.417 103.497 163.889 103.008 163.981C102.52 164.072 102.05 163.751 101.958 163.261C101.811 162.481 101.78 161.439 101.744 160.232C101.687 158.355 101.623 156.228 101.1 154.818C100.465 153.104 98.0743 151.041 95.9653 149.22C94.918 148.316 93.9289 147.463 93.1387 146.651C92.161 145.648 90.3345 144.14 89.0812 145.316C87.6183 146.69 87.4446 151.096 89.9932 153.932C91.575 155.692 92.8921 157.008 92.905 157.022C93.219 157.335 93.2586 157.831 92.998 158.19C92.798 158.467 88.1356 165.054 92.5413 169.683C92.8841 170.043 92.8706 170.614 92.511 170.957C92.3367 171.124 92.1133 171.206 91.8902 171.206V171.206Z" fill="#2D2D2D"/>
<path d="M196.083 184.067C197.727 178.8 244.777 160.961 267.261 159.676C283.349 158.756 282.549 220.579 303.806 243.039C308.647 248.154 247.026 275.888 229.343 259.593C218.19 249.315 190.838 200.874 196.083 184.067Z" fill="white"/>
<path d="M246.437 265.556C239.558 265.556 233.029 264.215 228.734 260.257C222.848 254.833 213.184 239.869 205.755 224.675C200.446 213.817 192.019 194.068 195.224 183.798C196.611 179.353 219.067 171.132 223.554 169.529C240.788 163.373 257.108 159.353 267.209 158.776C276.069 158.273 279.832 173.54 284.591 192.873C289.044 210.962 294.091 231.464 304.458 242.419C304.997 242.988 305.594 244.254 303.544 246.339C299.47 250.483 285.142 257.671 269.101 262.06C263.119 263.696 254.536 265.555 246.437 265.556ZM267.607 160.567C267.509 160.567 267.411 160.57 267.312 160.576C257.372 161.144 241.241 165.126 224.159 171.227C207.866 177.046 197.526 182.462 196.941 184.336C194.736 191.402 198.538 205.816 207.372 223.882C214.596 238.657 224.303 253.724 229.952 258.93C238.667 266.961 257.924 263.248 268.627 260.321C283.883 256.147 298.335 249.068 302.262 245.074C303.129 244.192 303.218 243.728 303.153 243.659C292.458 232.359 287.35 211.611 282.844 193.305C278.524 175.756 274.785 160.567 267.607 160.567Z" fill="#2D2D2D"/>
<path d="M218.273 165.458C215.311 164.137 216.306 172.26 217.822 173.682C222.578 178.143 244.985 171.177 244.688 165.197C244.525 161.928 241.699 156.209 241.005 158.127C239.725 161.663 224.251 168.126 218.273 165.458Z" fill="white"/>
<path d="M223.163 176.009C220.62 176.009 218.469 175.525 217.206 174.34C215.699 172.926 214.783 167.285 216.098 165.3C216.673 164.43 217.623 164.182 218.638 164.635C221.815 166.053 228.239 164.557 233.197 162.445C237.492 160.617 239.816 158.766 240.158 157.82C240.457 156.995 241.092 156.78 241.59 156.856C243.492 157.142 245.462 162.666 245.586 165.153C245.747 168.392 241.098 171.045 238.312 172.338C234.064 174.311 227.926 176.009 223.163 176.009V176.009ZM217.662 166.216C217.665 166.216 217.415 166.401 217.306 167.335C217.061 169.447 217.843 172.468 218.436 173.024C220.839 175.278 230.131 174.15 237.556 170.703C241.477 168.882 243.866 166.79 243.789 165.242C243.682 163.097 242.385 160.081 241.577 158.986C240.144 161.305 235.413 163.461 233.901 164.104C228.974 166.203 221.828 168.032 217.906 166.282C217.736 166.206 217.664 166.215 217.662 166.216Z" fill="#2D2D2D"/>
<path d="M325.586 272.802C324.267 254.598 307.262 241.209 302.166 241.176C296.441 248.055 282.244 257.703 263.754 258.879C248.025 256.649 231.439 253.355 210.536 255.06C184.713 257.168 161.077 266.385 140.287 282.456C104.29 310.28 73.9006 357.264 57.6572 399.571C63.4854 392.025 114.58 413.393 118.136 422.746C129.549 388.659 154.173 355.206 180.594 334.784C191.414 326.42 202.631 322.02 215.894 320.938C228.522 319.907 241.342 322.099 252.653 324.033C260.737 325.415 268.373 326.721 275.891 326.931C276.555 326.95 277.213 326.959 277.866 326.959C291.305 326.959 302.451 323.018 311.014 315.231C317.32 309.496 321.833 301.865 324.065 293.161C325.637 287.034 326.135 280.374 325.586 272.803L325.586 272.802Z" fill="#00B2FF"/>
<path d="M118.135 423.647C117.763 423.647 117.428 423.416 117.295 423.066C114.771 416.429 83.6758 401.729 66.883 399.234C60.7724 398.325 58.9255 399.401 58.3683 400.122C58.0951 400.476 57.6041 400.575 57.2152 400.356C56.8262 400.137 56.6567 399.664 56.8169 399.247C74.8042 352.398 106.577 307.373 139.737 281.742C160.667 265.563 184.463 256.284 210.462 254.162C228.5 252.69 243.05 254.876 257.121 256.99C259.417 257.335 261.589 257.661 263.788 257.974C280.661 256.872 295.147 248.201 301.475 240.599C301.646 240.393 301.899 240.274 302.166 240.274H302.172C305.342 240.295 311.141 244.206 315.961 249.573C319.553 253.573 325.698 261.903 326.483 272.737C327.039 280.408 326.533 287.162 324.937 293.385C322.66 302.26 318.055 310.045 311.619 315.898C302.89 323.836 291.534 327.86 277.866 327.861C277.207 327.861 276.534 327.851 275.866 327.833C268.285 327.62 260.621 326.31 252.507 324.923C241.243 322.997 228.483 320.815 215.966 321.836C202.885 322.904 191.82 327.245 181.143 335.498C153.809 356.626 129.992 390.168 118.989 423.032C118.868 423.393 118.534 423.639 118.154 423.647C118.148 423.647 118.142 423.647 118.136 423.647L118.135 423.647ZM62.7653 397.082C64.0357 397.082 65.4944 397.205 67.1469 397.45C75.0456 398.624 86.916 402.633 98.1254 407.911C103.108 410.257 114.118 415.802 117.908 420.628C129.278 388.032 152.949 355.013 180.043 334.07C191.008 325.595 202.376 321.136 215.82 320.039C228.563 319 241.441 321.201 252.804 323.144C260.859 324.521 268.462 325.821 275.915 326.03C276.567 326.048 277.223 326.058 277.865 326.058C291.073 326.057 302.022 322.19 310.409 314.563C316.584 308.947 321.005 301.469 323.193 292.936C324.741 286.905 325.229 280.34 324.688 272.868C323.942 262.569 318.061 254.607 314.623 250.778C310.075 245.715 304.996 242.461 302.555 242.109C297.247 248.254 283.467 258.528 263.81 259.779C263.749 259.783 263.687 259.78 263.627 259.772C261.389 259.454 259.083 259.108 256.854 258.773C242.884 256.674 228.438 254.504 210.609 255.959C184.961 258.052 161.486 267.207 140.836 283.169C108.493 308.169 77.4668 351.79 59.439 397.474C60.3525 397.212 61.4595 397.082 62.7653 397.082V397.082Z" fill="#2D2D2D"/>
<path d="M111.06 416.935C110.97 416.935 110.879 416.921 110.789 416.893C110.315 416.742 110.052 416.236 110.202 415.761C120.687 382.576 141.937 352.019 173.363 324.937C197.232 304.369 231.405 308.755 258.864 312.279C273.521 314.16 286.18 315.785 294.644 313.432C317.972 306.946 318.561 280.653 314.948 259.739C314.863 259.249 315.191 258.782 315.681 258.697C316.171 258.613 316.636 258.941 316.721 259.431C318.814 271.55 318.938 282.017 317.089 290.544C314.252 303.62 306.863 311.905 295.126 315.169C286.312 317.619 273.486 315.973 258.636 314.067C231.531 310.588 197.798 306.259 174.536 326.304C143.368 353.163 122.3 383.444 111.918 416.305C111.796 416.689 111.442 416.935 111.06 416.935V416.935Z" fill="#2D2D2D"/>
<path d="M114.579 434.482L107.592 460.824L15.0957 433.341C15.0957 433.341 18.0054 418.464 30.3931 416.399C42.244 414.423 50.439 413.753 59.8769 412.988C69.1731 412.235 77.6995 414.948 80.3672 420.952C86.1944 434.069 114.579 434.482 114.579 434.482Z" fill="#2D2D2D"/>
<path d="M107.592 461.725C107.507 461.725 107.42 461.713 107.337 461.688L14.8403 434.205C14.3955 434.074 14.1241 433.624 14.2132 433.168C14.3367 432.536 17.3907 417.653 30.2457 415.51C42.2099 413.515 50.3635 412.855 59.8047 412.09C70.1305 411.254 78.525 414.589 81.1894 420.586C86.7152 433.025 114.314 433.576 114.592 433.58C114.869 433.585 115.129 433.716 115.296 433.937C115.464 434.159 115.52 434.445 115.449 434.713L108.462 461.055C108.399 461.291 108.244 461.491 108.033 461.61C107.897 461.686 107.745 461.725 107.592 461.725ZM16.1722 432.721L106.961 459.696L113.419 435.348C107.916 435.116 84.925 433.427 79.5459 421.319C77.1964 416.031 69.5034 413.112 59.9501 413.887C50.5495 414.649 42.431 415.306 30.5417 417.288C20.534 418.957 16.9819 429.691 16.1725 432.721H16.1722Z" fill="#2D2D2D"/>
<path d="M12.8994 441.623L72.6334 457.522C73.6621 457.796 74.7529 457.66 75.6952 457.163C83.0276 453.302 88.2152 455.551 86.6991 461.266L106.105 466.431L109.312 454.34L85.6848 448.052C84.0722 447.622 82.3993 447.466 80.7354 447.588L73.7593 448.102C72.0951 448.224 70.4225 448.067 68.8099 447.638L15.0959 433.341L12.8994 441.623Z" fill="white"/>
<path d="M106.106 467.333C106.03 467.333 105.952 467.323 105.874 467.302L86.4686 462.137C85.9884 462.009 85.7026 461.516 85.8301 461.035C86.1747 459.736 86.3132 457.969 85.0158 456.933C83.3133 455.573 79.9021 455.966 76.1142 457.961C74.9593 458.57 73.6412 458.723 72.4026 458.393L12.6686 442.494C12.4379 442.433 12.2412 442.282 12.1215 442.075C12.0019 441.869 11.9689 441.622 12.0301 441.391L14.2266 433.11C14.2878 432.879 14.4383 432.682 14.6447 432.562C14.851 432.442 15.0957 432.408 15.3273 432.47L69.0412 446.767C70.5599 447.172 72.1252 447.318 73.6937 447.203L80.6699 446.689C82.4375 446.56 84.2025 446.725 85.9162 447.181L109.543 453.47C110.023 453.598 110.309 454.091 110.182 454.572L106.975 466.663C106.868 467.067 106.504 467.333 106.106 467.333ZM87.7594 460.616L105.467 465.329L108.211 454.98L85.454 448.923C83.9344 448.518 82.3691 448.372 80.8015 448.487L73.8253 449.001C72.0571 449.13 70.2918 448.966 68.579 448.51L15.7345 434.444L14.0002 440.984L72.8644 456.651C73.6652 456.864 74.5217 456.763 75.2763 456.366C79.7731 453.998 83.8333 453.683 86.1372 455.524C87.5546 456.656 88.1166 458.443 87.7591 460.616L87.7594 460.616Z" fill="#2D2D2D"/>
<path d="M63.2704 422.22C59.4343 422.22 55.827 422.137 53.5261 421.892C48.1739 421.323 45.8487 414.806 45.7524 414.528C45.589 414.058 45.837 413.545 46.3061 413.381C46.7757 413.216 47.2883 413.466 47.4517 413.936C47.4712 413.992 49.5025 419.652 53.7159 420.1C60.5787 420.83 80.1352 420.06 80.3319 420.052C80.8373 420.04 81.2469 420.42 81.2667 420.917C81.2865 421.414 80.8999 421.834 80.4036 421.854C79.8611 421.875 71.0929 422.22 63.2704 422.22Z" fill="white"/>
<path d="M243.687 161.155C243.687 161.155 259.251 155.663 278.34 153.927C297.43 152.191 289.12 182.023 293.088 196.166C304.075 235.331 327.826 239.794 340.32 258.97C349.446 272.976 357.064 296.632 353.738 310.615C345.542 283.89 314.552 261.485 291.531 255.015C256.413 245.145 255.974 186.019 243.687 161.155V161.155Z" fill="#00B2FF"/>
<path d="M353.738 311.516C353.344 311.516 352.994 311.259 352.878 310.879C345.066 285.406 314.826 262.498 291.288 255.883C280.106 252.74 271.396 244.487 264.659 230.652C258.832 218.683 255.201 203.989 251.998 191.024C249.198 179.691 246.553 168.987 242.88 161.555C242.766 161.324 242.756 161.054 242.854 160.816C242.95 160.576 243.145 160.39 243.388 160.305C243.544 160.25 259.278 154.755 278.26 153.03C282.06 152.685 285.123 153.537 287.359 155.565C292.484 160.213 292.571 170.226 292.656 179.91C292.709 185.952 292.758 191.659 293.955 195.923C301.045 221.196 313.657 231.999 324.786 241.53C330.89 246.758 336.656 251.696 341.074 258.477C350.231 272.531 358.012 296.541 354.614 310.824C354.519 311.219 354.173 311.503 353.767 311.516C353.758 311.516 353.748 311.516 353.738 311.516L353.738 311.516ZM244.94 161.685C248.467 169.23 251.034 179.619 253.745 190.591C260.325 217.221 267.783 247.404 291.774 254.147C303.875 257.548 317.36 264.977 328.771 274.528C337.221 281.6 348.051 292.786 353.441 306.977C354.941 292.969 347.816 272.123 339.567 259.462C335.29 252.898 329.619 248.042 323.616 242.9C312.293 233.202 299.46 222.21 292.222 196.41C290.961 191.914 290.91 186.091 290.856 179.925C290.775 170.63 290.691 161.019 286.151 156.901C284.277 155.202 281.75 154.522 278.422 154.825C262.326 156.288 248.6 160.491 244.94 161.685Z" fill="#2D2D2D"/>
<path d="M193.171 213.319C198.746 235.88 210.536 255.06 210.536 255.06C205.889 225.073 207.165 194.001 216.827 171.579C216.827 171.579 191.729 176.467 180.664 191.739" fill="#00B2FF"/>
<path d="M210.536 255.961C210.231 255.961 209.937 255.805 209.77 255.533C209.651 255.34 197.842 235.974 192.298 213.536C192.179 213.053 192.473 212.564 192.956 212.445C193.437 212.324 193.925 212.62 194.045 213.103C198.02 229.193 205.255 243.682 208.968 250.489C207.128 236.697 206.591 222.939 207.418 210.423C208.367 196.054 211.025 183.423 215.322 172.845C209.565 174.251 190.482 179.722 181.393 192.268C181.1 192.671 180.538 192.761 180.136 192.468C179.734 192.176 179.644 191.613 179.936 191.21C191.081 175.827 215.616 170.896 216.656 170.694C216.983 170.631 217.319 170.753 217.528 171.014C217.738 171.274 217.786 171.629 217.653 171.936C208.731 192.641 206.461 222.888 211.425 254.922C211.491 255.346 211.249 255.757 210.847 255.906C210.745 255.943 210.64 255.962 210.536 255.962V255.961Z" fill="#2D2D2D"/>
<path d="M291.531 255.015C274.011 246.041 261.841 201.664 268.707 168.948C267.222 168.018 258.686 167.275 258.686 167.275C258.686 167.275 262.994 164.965 264.896 163.307C261.678 161.24 250.61 156.956 242.989 159.61C247.266 166.14 247.448 199.684 257.957 221.461C266.066 238.266 273.98 251.498 291.532 255.015L291.531 255.015Z" fill="#00B2FF"/>
<path d="M291.532 255.916C291.474 255.916 291.414 255.911 291.355 255.899C273.154 252.251 265.095 238.322 257.147 221.853C250.814 208.729 248.158 191.119 246.219 178.261C244.949 169.842 243.853 162.57 242.237 160.104C242.085 159.871 242.049 159.582 242.138 159.319C242.227 159.056 242.432 158.849 242.694 158.758C250.899 155.9 262.357 160.605 265.382 162.548C265.62 162.701 265.773 162.958 265.794 163.241C265.814 163.524 265.701 163.8 265.487 163.986C264.497 164.85 262.923 165.86 261.585 166.66C264.337 166.972 268.103 167.506 269.184 168.183C269.504 168.383 269.665 168.762 269.588 169.133C266.362 184.505 267.184 203.282 271.843 220.651C276.374 237.541 283.888 250.087 291.941 254.212C292.341 254.417 292.529 254.886 292.381 255.311C292.253 255.679 291.908 255.916 291.532 255.916L291.532 255.916ZM244.303 160.155C245.804 163.448 246.788 169.967 247.998 177.992C249.92 190.736 252.552 208.19 258.767 221.069C265.717 235.47 272.735 247.872 286.703 252.768C279.911 246.831 274.01 235.674 270.106 221.119C265.448 203.759 264.571 184.993 267.677 169.491C266.117 169.021 262.13 168.479 258.609 168.172C258.212 168.138 257.885 167.846 257.805 167.456C257.725 167.065 257.911 166.668 258.262 166.48C258.297 166.461 261.267 164.864 263.284 163.422C259.355 161.379 250.713 158.516 244.303 160.155Z" fill="#2D2D2D"/>
<path d="M216.365 168.311C212.937 169.634 203.952 175.194 201.838 180.355L206.179 182.473C206.179 182.473 201.094 185.623 199.724 187.767C197.917 190.596 200.312 234.668 208.382 251.304C209.125 252.836 209.93 254.353 210.536 255.06C210.536 255.06 211.144 254.967 211.738 254.967C208.314 239.545 210.062 197.396 216.828 171.579C216.828 171.579 216.362 169.693 216.365 168.311L216.365 168.311Z" fill="#00B2FF"/>
<path d="M210.537 255.961C210.276 255.961 210.026 255.848 209.854 255.647C209.281 254.979 208.556 253.724 207.573 251.698C202.835 241.93 200.453 224.168 199.454 214.45C198.24 202.622 197.725 189.225 198.966 187.282C199.988 185.683 202.683 183.713 204.354 182.585L201.444 181.166C201.018 180.958 200.826 180.453 201.006 180.013C203.309 174.39 212.695 168.762 216.041 167.47C216.318 167.363 216.63 167.4 216.875 167.568C217.119 167.736 217.265 168.015 217.265 168.312C217.262 169.565 217.697 171.345 217.701 171.363C217.737 171.509 217.736 171.663 217.698 171.808C210.966 197.496 209.249 239.6 212.617 254.772C212.676 255.039 212.611 255.318 212.44 255.531C212.27 255.745 212.012 255.869 211.739 255.869C211.224 255.869 210.677 255.951 210.672 255.951C210.627 255.958 210.582 255.962 210.537 255.962L210.537 255.961ZM203.034 179.936L206.573 181.663C206.868 181.807 207.061 182.099 207.078 182.428C207.094 182.756 206.931 183.067 206.652 183.24C205.286 184.087 201.514 186.638 200.482 188.253C199.825 189.478 199.799 200.315 201.267 214.486C202.948 230.718 205.837 243.994 209.191 250.91C209.704 251.966 210.147 252.812 210.519 253.44C207.586 236.875 209.396 196.583 215.901 171.567C215.819 171.204 215.661 170.455 215.56 169.649C211.946 171.394 205.28 175.81 203.034 179.936Z" fill="#2D2D2D"/>
<path d="M395.884 250.775C396.233 254.182 392.271 257.89 390.549 263.782C389.55 267.203 391.837 275.505 392.248 277.856C393.41 284.5 401.531 279.502 400.987 274.606C400.628 271.38 400.397 266.39 400.397 266.39C400.397 266.39 407.452 264.343 406.658 257.391" fill="white"/>
<path d="M395.275 281.961C393.243 281.961 391.802 280.528 391.362 278.012C391.284 277.56 391.123 276.838 390.937 276.003C390.146 272.443 388.822 266.485 389.686 263.529C390.499 260.748 391.77 258.478 392.891 256.474C394.153 254.22 395.15 252.439 394.989 250.867C394.938 250.372 395.298 249.929 395.792 249.878C396.288 249.828 396.728 250.188 396.779 250.683C396.998 252.823 395.822 254.923 394.461 257.356C393.386 259.275 392.169 261.451 391.413 264.035C390.68 266.546 391.99 272.443 392.694 275.611C392.892 276.503 393.049 277.208 393.135 277.7C393.451 279.508 394.31 280.325 395.687 280.128C397.84 279.819 400.363 277.135 400.093 274.706C399.735 271.488 399.501 266.482 399.499 266.432C399.479 266.016 399.748 265.641 400.147 265.525C400.403 265.449 406.461 263.588 405.765 257.494C405.709 256.999 406.063 256.552 406.557 256.496C407.051 256.441 407.496 256.794 407.553 257.289C408.267 263.545 403.206 266.232 401.329 267.006C401.405 268.463 401.606 272.033 401.881 274.507C402.279 278.08 398.957 281.48 395.943 281.912C395.714 281.945 395.491 281.961 395.276 281.961L395.275 281.961Z" fill="#2D2D2D"/>
<path d="M384.147 253.02C388.67 261.003 425.59 244.571 422.03 235.573C418.658 227.051 377.496 241.282 384.147 253.02Z" fill="#2D2D2D"/>
<path d="M389.614 256.052C386.667 256.052 384.398 255.289 383.364 253.465C382.083 251.203 382.272 248.674 383.913 246.15C389.025 238.286 407.947 231.214 417.41 232.165C420.339 232.459 422.175 233.494 422.866 235.241C424.927 240.448 416.463 246.718 407.856 250.849C401.654 253.826 394.646 256.052 389.614 256.052ZM415.566 233.88C406.297 233.88 389.868 240.293 385.421 247.134C384.136 249.111 383.975 250.891 384.929 252.575C386.718 255.731 396.654 254.227 407.079 249.223C416.67 244.62 422.474 239.143 421.194 235.905C420.666 234.572 418.747 234.111 417.23 233.958C416.707 233.906 416.151 233.88 415.566 233.88Z" fill="#2D2D2D"/>
<path d="M399.953 267.607C400.531 274.8 406.076 280.399 412.942 281.297C413.97 281.432 415.029 281.461 416.104 281.374C424.359 280.708 430.512 273.464 429.847 265.195C428.758 251.664 424.423 238.45 416.961 225.921C410.181 214.538 401.008 204.023 389.694 194.667C374.806 182.356 356.78 172.591 337.565 166.43C319.285 160.57 300.572 158.199 283.163 159.512C281.767 159.617 284.547 189.533 285.682 189.451C314.064 187.394 347.018 198.333 370.602 217.836C383.088 228.161 391.301 238.381 395.884 250.775C396.349 251.852 393.349 257.359 392.491 259.131" fill="white"/>
<path d="M414.885 282.324C414.194 282.324 413.506 282.28 412.825 282.191C405.445 281.225 399.654 275.122 399.056 267.68C399.016 267.184 399.385 266.749 399.88 266.709C400.373 266.669 400.81 267.039 400.849 267.535C401.38 274.136 406.515 279.548 413.059 280.404C414.037 280.532 415.038 280.556 416.032 280.476C423.779 279.85 429.574 273.028 428.95 265.267C427.873 251.875 423.579 238.792 416.188 226.383C409.462 215.089 400.355 204.652 389.122 195.363C374.321 183.123 356.398 173.416 337.29 167.289C319.377 161.546 300.881 159.156 283.759 160.373C283.262 163.801 285.084 184.973 286.18 188.513C300.093 187.59 315.309 189.728 330.225 194.704C345.377 199.759 359.536 207.518 371.174 217.142C384.351 228.038 392.23 238.31 396.722 250.446C397.122 251.438 396.449 253.307 393.883 258.363C393.646 258.83 393.443 259.23 393.3 259.525C393.083 259.973 392.545 260.16 392.098 259.943C391.651 259.726 391.464 259.187 391.681 258.739C391.828 258.436 392.036 258.025 392.279 257.546C393.052 256.025 395.091 252.005 395.034 251.072C390.659 239.25 382.946 229.214 370.029 218.532C346.87 199.38 313.785 188.318 285.747 190.35C284.719 190.422 284.474 189.217 284.217 187.938C284.002 186.872 283.768 185.368 283.522 183.469C283.056 179.881 282.59 175.188 282.275 170.914C282.036 167.675 281.9 164.914 281.882 162.928C281.853 159.814 282.032 158.694 283.095 158.614C300.593 157.294 319.523 159.7 337.839 165.572C357.162 171.768 375.292 181.589 390.267 193.973C401.66 203.394 410.901 213.988 417.733 225.459C425.266 238.108 429.644 251.453 430.743 265.122C431.447 273.874 424.912 281.568 416.176 282.273C415.746 282.307 415.315 282.324 414.885 282.324ZM395.058 251.131C395.058 251.131 395.058 251.132 395.058 251.132C395.058 251.132 395.058 251.132 395.058 251.131Z" fill="#2D2D2D"/>
<path d="M278.341 153.927C306.128 150.847 336.219 157.592 363.07 172.919C389.674 188.106 410.461 210.477 422.029 235.573C415.636 231.693 383.42 244.582 384.146 253.02C375.863 234.998 359.984 219.545 342.283 209.464C323.062 198.517 302.004 193.622 282.959 195.732" fill="#00B2FF"/>
<path d="M384.146 253.922C383.802 253.922 383.479 253.723 383.329 253.397C375.606 236.593 360.483 220.865 341.839 210.247C322.754 199.379 301.879 194.543 283.058 196.628C282.563 196.684 282.12 196.326 282.065 195.832C282.01 195.337 282.366 194.891 282.86 194.837C302.055 192.709 323.317 197.625 342.728 208.68C360.843 218.996 375.699 234.077 383.86 250.345C385.221 247.639 388.572 245.096 391.535 243.252C400.32 237.783 413.973 233.16 420.342 234.103C408.569 209.663 388.144 188.269 362.626 173.703C335.937 158.468 306.04 151.763 278.44 154.823C277.947 154.877 277.502 154.521 277.447 154.026C277.392 153.531 277.748 153.086 278.242 153.031C306.216 149.93 336.5 156.715 363.516 172.136C390 187.254 411.07 209.648 422.847 235.195C423.012 235.555 422.924 235.981 422.629 236.245C422.334 236.509 421.901 236.549 421.564 236.344C417.891 234.115 402.399 238.611 392.484 244.783C387.572 247.841 384.86 250.815 385.043 252.943C385.08 253.379 384.799 253.779 384.377 253.891C384.3 253.911 384.222 253.921 384.146 253.921V253.922Z" fill="#2D2D2D"/>
<path d="M394.999 292.391C394.196 292.391 393.465 291.849 393.257 291.034C392.369 287.55 392.495 284.006 393.611 281.054C394.811 277.881 397.001 275.742 399.778 275.032L424.164 268.797C426.94 268.087 429.885 268.913 432.457 271.121C434.848 273.176 436.655 276.226 437.542 279.71C437.788 280.675 437.207 281.656 436.244 281.902C435.282 282.149 434.301 281.566 434.055 280.601C433.349 277.829 431.949 275.434 430.114 273.858C428.458 272.436 426.662 271.88 425.054 272.29L400.668 278.526C399.06 278.937 397.75 280.288 396.977 282.331C396.121 284.596 396.038 287.37 396.744 290.142C396.99 291.106 396.408 292.088 395.445 292.334C395.296 292.372 395.146 292.391 394.999 292.391Z" fill="#2D2D2D"/>
<path d="M366.858 306.577L468.146 280.678L483.083 339.299C483.492 340.905 482.522 342.543 480.919 342.953L385.443 367.366C383.839 367.776 382.205 366.804 381.795 365.198L366.858 306.577Z" fill="white"/>
<path d="M384.695 368.362C384.004 368.362 383.322 368.176 382.712 367.813C381.817 367.281 381.182 366.431 380.924 365.42L365.987 306.799C365.864 306.317 366.155 305.826 366.636 305.703L467.924 279.804C468.156 279.745 468.401 279.78 468.606 279.902C468.811 280.024 468.959 280.223 469.018 280.454L483.955 339.076C484.487 341.162 483.225 343.293 481.142 343.826L385.666 368.239C385.344 368.321 385.018 368.362 384.695 368.362V368.362ZM367.953 307.227L382.667 364.974C382.806 365.519 383.148 365.976 383.63 366.263C384.113 366.549 384.678 366.632 385.221 366.492L480.696 342.079C481.818 341.792 482.498 340.645 482.212 339.521L467.497 281.774L367.953 307.227Z" fill="#2D2D2D"/>
<path d="M367.661 297.579L463.136 273.166C464.74 272.756 466.375 273.727 466.784 275.334L473.179 300.433C474.203 304.45 471.779 308.543 467.769 309.568L381.011 331.752C377.002 332.777 372.915 330.349 371.892 326.332L365.497 301.233C365.087 299.626 366.057 297.989 367.661 297.579Z" fill="white"/>
<path d="M379.143 332.89C377.654 332.89 376.187 332.49 374.873 331.709C372.944 330.562 371.576 328.732 371.021 326.554L364.625 301.455C364.094 299.368 365.356 297.237 367.439 296.705L462.914 272.292C464.998 271.758 467.125 273.024 467.656 275.11L474.052 300.209C475.197 304.704 472.479 309.293 467.992 310.441L381.234 332.624C380.541 332.802 379.839 332.889 379.142 332.889L379.143 332.89ZM463.878 273.973C463.707 273.973 463.533 273.994 463.359 274.039L367.884 298.452C366.763 298.739 366.083 299.886 366.369 301.01L372.765 326.109C373.2 327.82 374.275 329.258 375.791 330.158C377.307 331.059 379.082 331.315 380.79 330.878L467.547 308.694C469.255 308.258 470.691 307.181 471.59 305.663C472.489 304.144 472.745 302.366 472.308 300.655L465.913 275.556C465.671 274.606 464.815 273.973 463.879 273.973L463.878 273.973Z" fill="#2D2D2D"/>
<path d="M429.373 321.537L420.439 323.821L422.488 331.86L431.421 329.576L429.373 321.537Z" fill="#00B2FF"/>
<path d="M422.487 332.762C422.085 332.762 421.719 332.491 421.616 332.084L419.567 324.045C419.444 323.562 419.735 323.071 420.217 322.948L429.15 320.664C429.381 320.605 429.626 320.64 429.832 320.762C430.037 320.884 430.185 321.083 430.244 321.314L432.293 329.354C432.352 329.585 432.316 329.831 432.195 330.036C432.073 330.242 431.875 330.391 431.643 330.45L422.71 332.734C422.635 332.753 422.56 332.762 422.487 332.762ZM421.533 324.472L423.137 330.764L430.326 328.926L428.723 322.633L421.533 324.472Z" fill="#2D2D2D"/>
<path d="M430.228 315.616L416.854 319.036L418.603 325.903L431.978 322.484L430.228 315.616Z" fill="#00B2FF"/>
<path d="M418.604 326.804C418.444 326.804 418.285 326.761 418.145 326.678C417.94 326.556 417.791 326.358 417.732 326.126L415.982 319.258C415.859 318.776 416.15 318.285 416.632 318.162L430.006 314.742C430.488 314.62 430.977 314.911 431.1 315.393L432.85 322.26C432.909 322.492 432.874 322.738 432.752 322.943C432.63 323.149 432.432 323.298 432.201 323.357L418.826 326.777C418.753 326.795 418.678 326.804 418.604 326.804ZM417.948 319.686L419.253 324.807L430.884 321.833L429.579 316.712L417.948 319.686Z" fill="#2D2D2D"/>
<path d="M418.565 270.93C418.449 272.918 418.526 277.437 419.082 279.522C419.638 281.608 425.91 280.87 428.365 276.136C430.89 271.268 429.664 266.089 429.636 262.957" fill="white"/>
<path d="M421.317 281.527C421.104 281.527 420.896 281.516 420.695 281.494C419.374 281.349 418.469 280.715 418.213 279.755C417.604 277.469 417.557 272.77 417.667 270.878C417.696 270.381 418.126 270.003 418.618 270.031C419.114 270.06 419.493 270.486 419.463 270.983C419.355 272.837 419.427 277.324 419.951 279.29C419.992 279.443 420.304 279.638 420.89 279.702C422.647 279.897 425.989 278.763 427.567 275.721C429.425 272.139 429.121 268.366 428.876 265.334C428.807 264.482 428.743 263.677 428.736 262.966C428.732 262.468 429.131 262.061 429.628 262.056C430.125 262.052 430.531 262.452 430.536 262.949C430.542 263.597 430.604 264.37 430.67 265.189C430.919 268.278 431.26 272.51 429.163 276.552C427.492 279.774 424.004 281.527 421.316 281.527H421.317Z" fill="#2D2D2D"/>
<path d="M409.705 272.109C409.615 274.871 408.549 278.664 409.621 281.165C410.693 283.666 417.729 283.31 420.489 279.677C423.028 276.336 421.362 268.576 421.362 268.576" fill="white"/>
<path d="M413.434 283.675C413.047 283.675 412.671 283.652 412.313 283.608C410.527 283.388 409.277 282.647 408.795 281.521C407.948 279.545 408.269 276.971 408.552 274.7C408.669 273.757 408.78 272.867 408.806 272.079C408.822 271.582 409.243 271.194 409.734 271.207C410.231 271.224 410.62 271.64 410.604 272.138C410.576 273.008 410.46 273.938 410.337 274.923C410.07 277.067 409.794 279.283 410.448 280.809C410.658 281.299 411.457 281.686 412.532 281.819C414.836 282.102 418.157 281.257 419.773 279.131C421.65 276.661 420.921 270.811 420.482 268.765C420.378 268.278 420.687 267.799 421.172 267.694C421.657 267.589 422.137 267.899 422.241 268.386C422.313 268.719 423.962 276.593 421.205 280.223C419.416 282.577 416.147 283.674 413.434 283.674L413.434 283.675Z" fill="#2D2D2D"/>
<path d="M399.953 267.607C400.559 270.921 401.015 273.76 401.147 277.82C400.679 278.718 400.071 279.34 399.392 279.824C400.968 283.982 406.814 284.823 410.102 281.29C412.77 278.425 411.388 270.066 411.388 270.066" fill="white"/>
<path d="M405.067 284.411C404.57 284.411 404.068 284.362 403.568 284.264C401.23 283.805 399.354 282.265 398.55 280.144C398.404 279.76 398.536 279.327 398.87 279.089C399.456 278.672 399.895 278.196 400.238 277.603C400.095 273.651 399.623 270.807 399.068 267.77C398.978 267.28 399.302 266.811 399.791 266.721C400.28 266.631 400.748 266.956 400.838 267.445C401.418 270.618 401.909 273.586 402.045 277.79C402.05 277.945 402.015 278.099 401.944 278.236C401.571 278.951 401.096 279.563 400.501 280.091C401.181 281.334 402.394 282.197 403.914 282.496C405.914 282.888 408.033 282.192 409.443 280.676C411.381 278.594 410.863 272.417 410.5 270.213C410.419 269.721 410.751 269.258 411.241 269.176C411.73 269.096 412.194 269.427 412.276 269.918C412.424 270.819 413.646 278.804 410.76 281.905C409.252 283.524 407.199 284.411 405.067 284.411Z" fill="#2D2D2D"/>
</g>
<mask id="mask2_2101_4573" style="mask-type:luminance" maskUnits="userSpaceOnUse" x="328" y="158" width="170" height="307">
<path d="M328.8 158.377H497.4V464.598H328.8V158.377Z" fill="white"/>
</mask>
<g mask="url(#mask2_2101_4573)">
<path d="M442.477 373.498C431.675 363.259 414.633 363.731 404.412 374.552C397.029 382.369 383.041 392.44 365.921 397.264C352.55 401.032 340.407 400.705 329.697 396.319V452.185C332.333 452.655 334.999 453.026 337.694 453.293C341.164 453.635 344.665 453.806 348.192 453.806C358.785 453.806 369.612 452.264 380.503 449.194C404.006 442.572 427.567 428.529 443.529 411.629C453.75 400.808 453.279 383.736 442.477 373.498Z" fill="white"/>
<path d="M348.193 454.705C344.647 454.705 341.086 454.531 337.606 454.187C334.923 453.922 332.21 453.546 329.54 453.069C329.112 452.993 328.8 452.62 328.8 452.184V396.318C328.8 396.018 328.949 395.739 329.197 395.572C329.445 395.405 329.76 395.373 330.037 395.486C340.551 399.792 352.542 400.099 365.679 396.398C382.622 391.623 396.46 381.663 403.761 373.934C408.868 368.526 415.773 365.434 423.202 365.229C430.632 365.025 437.695 367.727 443.094 372.845C448.492 377.961 451.578 384.878 451.784 392.32C451.989 399.762 449.289 406.839 444.181 412.247C428.112 429.26 404.398 443.395 380.747 450.06C369.808 453.142 358.855 454.705 348.193 454.705ZM330.595 451.428C332.98 451.836 335.393 452.161 337.783 452.397C341.204 452.735 344.706 452.907 348.193 452.907C358.69 452.907 369.48 451.366 380.261 448.329C403.614 441.748 427.022 427.798 442.878 411.011C447.656 405.952 450.182 399.331 449.99 392.37C449.797 385.408 446.911 378.937 441.86 374.15C436.81 369.364 430.198 366.836 423.252 367.026C416.302 367.219 409.843 370.11 405.064 375.17C397.599 383.073 383.46 393.255 366.165 398.128C353.145 401.798 341.186 401.631 330.595 397.637V451.428Z" fill="#2D2D2D"/>
<path d="M404.413 374.552L423.26 354.985L490.578 423.889C490.578 423.889 480.837 435.444 469.039 431.224C457.752 427.187 450.285 423.789 441.687 419.869C433.219 416.008 427.101 409.5 427.683 402.97C428.955 388.705 404.413 374.552 404.413 374.552V374.552Z" fill="white"/>
<path d="M474.386 433.064C472.582 433.064 470.69 432.77 468.737 432.071C457.339 427.995 449.913 424.609 441.315 420.688C431.909 416.399 426.207 409.413 426.788 402.89C427.995 389.363 404.205 375.47 403.964 375.331C403.725 375.193 403.562 374.952 403.523 374.678C403.485 374.404 403.574 374.127 403.766 373.928L422.613 354.361C422.781 354.187 423.013 354.087 423.255 354.086H423.259C423.5 354.086 423.731 354.184 423.9 354.357L491.219 423.261C491.542 423.592 491.561 424.116 491.263 424.47C490.915 424.883 483.888 433.064 474.386 433.064ZM405.843 374.361C410.528 377.237 429.751 389.881 428.576 403.049C428.063 408.802 433.355 415.083 442.058 419.051C450.62 422.955 458.014 426.327 469.34 430.377C478.89 433.792 487.171 426.158 489.339 423.908L423.263 356.275L405.843 374.361Z" fill="#2D2D2D"/>
<path d="M496.502 417.738L452.133 374.851C451.368 374.112 450.352 373.702 449.29 373.676C441.028 373.479 437.596 368.998 441.685 364.752L427.271 350.82L418.62 359.801L436.17 376.764C437.368 377.922 438.75 378.871 440.26 379.573L446.589 382.515C448.099 383.217 449.482 384.167 450.679 385.325L490.577 423.889L496.502 417.737L496.502 417.738Z" fill="white"/>
<path d="M490.577 424.789C490.345 424.789 490.121 424.698 489.954 424.536L450.056 385.972C448.927 384.881 447.634 383.993 446.211 383.332L439.882 380.389C438.278 379.644 436.82 378.642 435.547 377.411L417.997 360.448C417.64 360.103 417.63 359.534 417.974 359.177L426.625 350.196C426.969 349.838 427.538 349.828 427.894 350.173L442.308 364.106C442.479 364.271 442.578 364.498 442.583 364.736C442.587 364.975 442.496 365.205 442.331 365.377C441.401 366.342 440.425 367.814 441.054 369.348C441.88 371.362 445.044 372.676 449.311 372.777C450.613 372.809 451.836 373.315 452.756 374.204L497.125 417.091C497.297 417.257 497.395 417.484 497.4 417.722C497.404 417.96 497.313 418.191 497.148 418.362L491.223 424.514C491.058 424.685 490.831 424.784 490.593 424.788C490.588 424.788 490.582 424.788 490.577 424.788L490.577 424.789ZM419.889 359.778L436.793 376.117C437.922 377.208 439.215 378.097 440.638 378.758L446.967 381.7C448.571 382.446 450.029 383.447 451.302 384.678L490.554 422.618L495.233 417.761L451.509 375.498C450.914 374.923 450.119 374.595 449.269 374.575C444.202 374.454 440.51 372.756 439.393 370.031C438.706 368.356 439.082 366.524 440.446 364.804L427.293 352.091L419.889 359.778V359.778Z" fill="#2D2D2D"/>
<path d="M453.862 426.135C453.811 426.135 453.759 426.131 453.706 426.122C453.218 426.037 452.891 425.571 452.977 425.081C452.987 425.023 453.957 419.102 450.502 416.664C444.873 412.693 427.453 403.86 427.278 403.772C426.835 403.547 426.658 403.007 426.882 402.564C427.106 402.12 427.645 401.944 428.088 402.167C428.808 402.532 445.8 411.148 451.535 415.194C455.925 418.291 454.795 425.102 454.745 425.39C454.669 425.827 454.29 426.135 453.862 426.135L453.862 426.135Z" fill="#2D2D2D"/>
<path d="M393.195 384.117C377.217 396.975 349.356 401.677 329.697 392.967V461.681C336.916 463.017 344.326 463.699 351.857 463.699C353.831 463.699 355.814 463.652 357.804 463.559C379.095 462.559 407.99 453.806 426.706 441.165C432.112 432.151 407.588 395.723 393.195 384.117Z" fill="white"/>
<path d="M351.857 464.598C344.334 464.598 336.824 463.914 329.534 462.565C329.109 462.486 328.8 462.114 328.8 461.681V392.967C328.8 392.663 328.953 392.38 329.208 392.214C329.462 392.048 329.783 392.022 330.061 392.145C348.766 400.433 376.252 396.599 392.633 383.416C392.961 383.151 393.429 383.152 393.758 383.417C407.546 394.535 433.456 431.656 427.475 441.627C427.407 441.74 427.316 441.836 427.207 441.91C418.161 448.021 406.502 453.441 393.492 457.584C381.145 461.517 368.486 463.957 357.846 464.457C355.85 464.551 353.835 464.598 351.857 464.598ZM330.595 460.93C337.547 462.171 344.696 462.8 351.857 462.8C353.807 462.8 355.793 462.753 357.761 462.661C379.804 461.626 408.47 452.33 426.029 440.537C428.013 436.763 424.43 426.678 416.613 414.088C409.42 402.503 400.092 391.044 393.185 385.271C376.634 398.183 349.597 402.061 330.595 394.325V460.93L330.595 460.93Z" fill="#2D2D2D"/>
<path d="M352.354 408.192C345.218 408.192 337.378 407.241 329.412 404.575C328.942 404.418 328.688 403.908 328.845 403.438C329.002 402.967 329.508 402.711 329.981 402.869C345.745 408.145 361.045 406.532 371.104 404.248C382.949 401.56 394.013 396.332 399.981 390.605C400.338 390.262 400.907 390.273 401.25 390.632C401.593 390.991 401.58 391.56 401.223 391.904C394.94 397.934 383.828 403.204 371.501 406.002C366.287 407.185 359.693 408.192 352.353 408.192L352.354 408.192Z" fill="#2D2D2D"/>
<path d="M396.13 251.204C396.478 254.602 392.526 258.302 390.809 264.179C389.811 267.591 392.093 275.874 392.503 278.219C393.662 284.846 401.763 279.861 401.22 274.977C400.862 271.758 400.632 266.781 400.632 266.781C400.632 266.781 407.67 264.738 406.878 257.804" fill="white"/>
<path d="M395.523 282.314C393.496 282.314 392.059 280.884 391.62 278.373C391.541 277.923 391.381 277.204 391.196 276.37C390.406 272.819 389.085 266.875 389.947 263.926C390.758 261.152 392.026 258.887 393.145 256.889C394.404 254.64 395.398 252.864 395.237 251.295C395.187 250.801 395.545 250.36 396.038 250.309C396.531 250.256 396.972 250.617 397.023 251.111C397.242 253.246 396.069 255.341 394.711 257.768C393.639 259.683 392.423 261.853 391.67 264.431C390.938 266.936 392.246 272.819 392.948 275.979C393.146 276.869 393.302 277.572 393.388 278.063C393.704 279.866 394.56 280.683 395.934 280.484C398.081 280.176 400.598 277.499 400.329 275.076C399.972 271.866 399.738 266.872 399.736 266.822C399.717 266.407 399.984 266.032 400.383 265.917C400.638 265.841 406.681 263.985 405.987 257.905C405.931 257.412 406.284 256.966 406.777 256.91C407.265 256.853 407.714 257.208 407.77 257.701C408.483 263.942 403.435 266.623 401.562 267.394C401.637 268.848 401.839 272.409 402.113 274.877C402.509 278.442 399.196 281.833 396.188 282.264C395.96 282.297 395.738 282.313 395.523 282.313V282.314Z" fill="#2D2D2D"/>
<path d="M384.421 253.443C388.934 261.407 425.764 245.015 422.212 236.039C418.849 227.537 377.786 241.733 384.421 253.443Z" fill="white"/>
<path d="M389.875 256.467C386.936 256.467 384.671 255.705 383.64 253.887C382.362 251.63 382.551 249.107 384.188 246.59C389.287 238.745 408.163 231.689 417.603 232.638C420.525 232.932 422.357 233.964 423.046 235.707C425.101 240.902 416.659 247.156 408.073 251.277C401.886 254.247 394.895 256.467 389.875 256.467H389.875ZM415.764 234.35C406.517 234.35 390.129 240.746 385.692 247.571C384.41 249.543 384.25 251.319 385.202 252.999C386.985 256.147 396.898 254.647 407.297 249.655C416.866 245.063 422.656 239.6 421.378 236.37C420.851 235.04 418.937 234.579 417.423 234.427C416.902 234.375 416.346 234.35 415.764 234.35H415.764Z" fill="#2D2D2D"/>
<path d="M395.248 292.718C394.447 292.718 393.718 292.177 393.51 291.364C391.624 283.962 394.542 276.801 400.015 275.402L424.341 269.182C427.111 268.474 430.048 269.297 432.614 271.5C435 273.55 436.802 276.593 437.687 280.068C437.932 281.03 437.352 282.009 436.392 282.255C435.43 282.501 434.454 281.919 434.209 280.957C433.504 278.192 432.108 275.803 430.277 274.23C428.625 272.812 426.831 272.256 425.229 272.666L400.903 278.887C397.408 279.78 395.616 285.087 396.988 290.475C397.233 291.437 396.654 292.416 395.693 292.661C395.544 292.7 395.395 292.718 395.248 292.718L395.248 292.718Z" fill="#2D2D2D"/>
<path d="M367.177 306.869L468.217 281.033L483.118 339.511C483.526 341.114 482.559 342.747 480.959 343.156L385.716 367.51C384.116 367.919 382.486 366.95 382.077 365.347L367.177 306.869Z" fill="white"/>
<path d="M384.976 368.503C383.241 368.503 381.655 367.329 381.207 365.57L366.306 307.091C366.184 306.61 366.474 306.121 366.954 305.998L467.995 280.162C468.226 280.103 468.47 280.138 468.675 280.26C468.88 280.381 469.028 280.58 469.087 280.811L483.987 339.289C484.244 340.297 484.093 341.346 483.563 342.241C483.033 343.136 482.187 343.77 481.181 344.028L385.938 368.381C385.616 368.464 385.294 368.503 384.976 368.503L384.976 368.503ZM368.268 307.517L382.947 365.125C383.232 366.245 384.374 366.924 385.494 366.639L480.737 342.285C481.279 342.147 481.735 341.805 482.02 341.323C482.305 340.841 482.387 340.277 482.248 339.733L467.57 282.126L368.268 307.517Z" fill="#2D2D2D"/>
<path d="M367.977 297.893L463.22 273.54C464.82 273.131 466.45 274.1 466.859 275.702L473.239 300.741C474.26 304.747 471.841 308.831 467.841 309.853L381.295 331.983C377.295 333.006 373.219 330.583 372.198 326.576L365.818 301.538C365.41 299.936 366.377 298.302 367.977 297.893Z" fill="white"/>
<path d="M379.431 333.118C377.945 333.118 376.482 332.719 375.171 331.94C373.246 330.796 371.882 328.97 371.328 326.798L364.948 301.76C364.692 300.752 364.842 299.704 365.372 298.809C365.902 297.914 366.749 297.279 367.755 297.022L462.998 272.668C465.077 272.137 467.198 273.398 467.729 275.48L474.109 300.518C475.251 305.001 472.539 309.58 468.064 310.724L381.518 332.854C380.826 333.031 380.126 333.118 379.431 333.118L379.431 333.118ZM463.96 274.345C463.789 274.345 463.615 274.366 463.442 274.41L368.199 298.764C367.657 298.902 367.201 299.244 366.916 299.726C366.63 300.208 366.549 300.773 366.688 301.316L373.068 326.354C373.502 328.06 374.574 329.495 376.087 330.393C377.599 331.292 379.37 331.547 381.073 331.111L467.619 308.982C469.323 308.546 470.755 307.472 471.652 305.957C472.549 304.443 472.804 302.669 472.369 300.962L465.989 275.924C465.747 274.977 464.894 274.345 463.96 274.345V274.345Z" fill="#2D2D2D"/>
<path d="M429.538 321.794L420.626 324.072L422.669 332.092L431.581 329.813L429.538 321.794Z" fill="white"/>
<path d="M422.669 332.991C422.268 332.991 421.903 332.721 421.8 332.314L419.757 324.295C419.634 323.814 419.924 323.324 420.404 323.201L429.316 320.922C429.547 320.863 429.791 320.898 429.996 321.02C430.201 321.142 430.349 321.34 430.408 321.571L432.451 329.591C432.51 329.822 432.475 330.067 432.353 330.272C432.232 330.477 432.034 330.625 431.803 330.684L422.892 332.963C422.817 332.982 422.742 332.991 422.669 332.991ZM421.718 324.721L423.317 330.998L430.49 329.164L428.89 322.887L421.718 324.721Z" fill="#2D2D2D"/>
<path d="M430.391 315.886L417.05 319.298L418.795 326.149L432.137 322.737L430.391 315.886Z" fill="white"/>
<path d="M418.795 327.048C418.394 327.048 418.029 326.777 417.926 326.371L416.18 319.52C416.121 319.289 416.156 319.044 416.278 318.839C416.399 318.634 416.597 318.485 416.828 318.426L430.17 315.015C430.401 314.956 430.645 314.991 430.85 315.113C431.054 315.234 431.202 315.433 431.261 315.664L433.007 322.515C433.129 322.996 432.839 323.485 432.359 323.608L419.018 327.019C418.943 327.038 418.868 327.048 418.795 327.048ZM418.142 319.946L419.444 325.055L431.046 322.088L429.744 316.98L418.142 319.946V319.946Z" fill="#2D2D2D"/>
<path d="M400.189 267.995C400.766 275.169 406.298 280.755 413.147 281.651C414.173 281.785 415.229 281.814 416.301 281.728C424.536 281.063 430.674 273.837 430.011 265.588C428.925 252.09 424.6 238.909 417.156 226.41C410.393 215.055 401.242 204.565 389.956 195.232C375.104 182.951 357.122 173.21 337.953 167.064C335.209 166.185 332.455 165.385 329.697 164.664V195.909C344.63 200.804 358.973 208.474 370.91 218.345C383.365 228.645 391.558 238.84 396.13 251.203C396.594 252.278 393.601 257.771 392.745 259.539" fill="white"/>
<path d="M415.086 282.676C414.397 282.676 413.71 282.632 413.031 282.543C405.669 281.579 399.892 275.491 399.295 268.067C399.255 267.572 399.624 267.138 400.118 267.099C400.614 267.056 401.045 267.428 401.084 267.923C401.614 274.507 406.736 279.906 413.264 280.76C414.24 280.888 415.238 280.912 416.229 280.832C419.973 280.53 423.375 278.785 425.809 275.919C428.243 273.054 429.418 269.411 429.116 265.66C428.041 252.3 423.758 239.25 416.385 226.87C409.675 215.605 400.591 205.193 389.385 195.926C374.62 183.716 356.741 174.032 337.68 167.921C335.353 167.175 332.975 166.474 330.595 165.832V195.259C345.729 200.303 359.855 208.037 371.481 217.652C384.626 228.521 392.486 238.768 396.967 250.875C397.366 251.864 396.695 253.729 394.134 258.775C393.898 259.239 393.695 259.638 393.553 259.932C393.337 260.379 392.799 260.565 392.354 260.349C391.908 260.132 391.722 259.594 391.938 259.147C392.084 258.846 392.292 258.437 392.533 257.96C393.304 256.442 395.34 252.431 395.283 251.499C390.918 239.707 383.224 229.694 370.338 219.038C358.725 209.435 344.575 201.732 329.419 196.763C329.05 196.642 328.8 196.298 328.8 195.909V164.664C328.8 164.385 328.929 164.122 329.149 163.952C329.369 163.782 329.655 163.724 329.924 163.794C332.709 164.522 335.502 165.334 338.227 166.208C357.503 172.389 375.589 182.186 390.527 194.539C401.893 203.938 411.111 214.506 417.926 225.949C425.441 238.567 429.808 251.879 430.905 265.516C431.245 269.745 429.921 273.854 427.176 277.085C424.431 280.317 420.595 282.284 416.373 282.625C415.945 282.659 415.515 282.677 415.085 282.677L415.086 282.676ZM395.306 251.558C395.306 251.558 395.306 251.559 395.307 251.56C395.307 251.56 395.306 251.559 395.306 251.558Z" fill="#2D2D2D"/>
<path d="M418.756 271.31C418.64 273.292 418.717 277.8 419.272 279.881C419.827 281.962 426.083 281.226 428.532 276.503C431.052 271.646 429.829 266.48 429.8 263.356" fill="white"/>
<path d="M421.501 281.881C421.288 281.881 421.081 281.87 420.88 281.848C419.562 281.703 418.66 281.071 418.405 280.113C417.797 277.832 417.75 273.145 417.861 271.257C417.89 270.762 418.321 270.38 418.809 270.413C419.304 270.442 419.682 270.867 419.653 271.363C419.544 273.212 419.616 277.688 420.139 279.649C420.18 279.802 420.491 279.996 421.076 280.06C422.832 280.255 426.162 279.124 427.736 276.089C429.59 272.515 429.287 268.751 429.043 265.727C428.974 264.877 428.91 264.075 428.903 263.365C428.899 262.868 429.297 262.462 429.792 262.458H429.801C430.293 262.458 430.694 262.855 430.698 263.349C430.704 263.994 430.766 264.766 430.832 265.583C431.08 268.665 431.421 272.886 429.329 276.918C427.662 280.133 424.183 281.881 421.501 281.881L421.501 281.881Z" fill="#2D2D2D"/>
<path d="M409.918 272.485C409.828 275.241 408.764 279.025 409.834 281.519C410.904 284.014 417.595 284.412 420.429 280.851C423.806 276.607 421.546 268.961 421.546 268.961" fill="white"/>
<path d="M414.297 284.354C413.862 284.354 413.439 284.326 413.037 284.272C411.014 283.999 409.545 283.125 409.009 281.874C408.164 279.904 408.485 277.336 408.767 275.07C408.884 274.13 408.995 273.242 409.02 272.456C409.037 271.959 409.455 271.573 409.947 271.586C410.442 271.603 410.831 272.018 410.814 272.514C410.786 273.382 410.671 274.31 410.548 275.293C410.281 277.431 410.006 279.643 410.658 281.165C410.927 281.791 411.955 282.312 413.276 282.49C415.39 282.775 418.203 282.205 419.727 280.291C422.769 276.468 420.706 269.288 420.685 269.215C420.545 268.739 420.816 268.239 421.291 268.099C421.767 267.958 422.266 268.23 422.407 268.705C422.504 269.036 424.758 276.854 421.13 281.411C419.47 283.497 416.696 284.353 414.297 284.354L414.297 284.354Z" fill="#2D2D2D"/>
<path d="M400.189 267.995C400.794 271.3 401.249 274.133 401.38 278.182C400.913 279.078 400.307 279.699 399.629 280.181C401.202 284.329 407.034 285.168 410.313 281.644C412.974 278.785 411.596 270.447 411.596 270.447" fill="white"/>
<path d="M405.29 284.757C404.795 284.757 404.295 284.709 403.796 284.611C401.464 284.153 399.592 282.616 398.79 280.501C398.645 280.118 398.776 279.686 399.109 279.448C399.694 279.033 400.132 278.557 400.474 277.966C400.331 274.023 399.86 271.187 399.306 268.157C399.217 267.669 399.54 267.2 400.027 267.111C400.514 267.021 400.983 267.344 401.072 267.833C401.651 270.997 402.141 273.958 402.276 278.153C402.282 278.308 402.247 278.461 402.175 278.598C401.804 279.311 401.33 279.921 400.736 280.447C401.414 281.688 402.624 282.548 404.141 282.847C406.137 283.239 408.249 282.543 409.657 281.031C411.589 278.955 411.073 272.793 410.711 270.594C410.63 270.104 410.961 269.641 411.45 269.56C411.941 269.478 412.401 269.81 412.482 270.3C412.63 271.199 413.848 279.164 410.969 282.258C409.466 283.873 407.418 284.757 405.29 284.757Z" fill="#2D2D2D"/>
<path d="M363.397 173.538C352.57 167.357 341.215 162.577 329.697 159.276V203.64C334.08 205.455 338.416 207.576 342.661 209.993C360.318 220.049 376.159 235.465 384.421 253.443C383.697 245.026 415.834 232.168 422.212 236.039C410.672 211.003 389.936 188.687 363.397 173.538Z" fill="white"/>
<path d="M384.422 254.342C384.079 254.342 383.756 254.144 383.607 253.819C375.902 237.055 360.816 221.366 342.217 210.774C338.046 208.399 333.718 206.278 329.354 204.47C329.019 204.331 328.8 204.003 328.8 203.64V159.276C328.8 158.994 328.932 158.729 329.157 158.559C329.383 158.388 329.674 158.335 329.944 158.412C341.629 161.761 353.034 166.587 363.842 172.756C390.261 187.837 411.281 210.177 423.028 235.662C423.193 236.021 423.106 236.446 422.811 236.709C422.517 236.973 422.086 237.013 421.748 236.808C418.083 234.584 402.63 239.069 392.739 245.226C387.839 248.277 385.134 251.244 385.316 253.366C385.353 253.801 385.073 254.2 384.651 254.312C384.575 254.332 384.497 254.342 384.421 254.342H384.422ZM330.595 203.04C334.839 204.825 339.045 206.9 343.104 209.211C361.174 219.502 375.995 234.546 384.135 250.775C385.494 248.075 388.837 245.539 391.792 243.699C400.555 238.243 414.175 233.63 420.529 234.572C408.785 210.192 388.41 188.85 362.953 174.319C352.623 168.422 341.742 163.767 330.595 160.474V203.04Z" fill="#2D2D2D"/>
<path d="M354.088 310.897C353.233 301.739 342.335 284.396 329.697 266.264V288.234C340.079 293.602 349.107 301.694 354.088 310.897Z" fill="white"/>
<path d="M354.088 311.796C353.766 311.796 353.459 311.622 353.299 311.326C348.582 302.611 339.83 294.485 329.286 289.033C328.987 288.878 328.8 288.57 328.8 288.234V266.263C328.8 265.871 329.054 265.524 329.428 265.406C329.802 265.288 330.209 265.427 330.433 265.749C346.677 289.055 354.248 302.953 354.982 310.813C355.021 311.239 354.757 311.633 354.349 311.758C354.263 311.784 354.175 311.796 354.088 311.796ZM330.595 287.688C339.349 292.306 346.88 298.729 351.953 305.812C348.499 295.849 338.75 280.929 330.595 269.131V287.688Z" fill="#2D2D2D"/>
<path d="M340.703 259.378C337.605 254.624 333.814 250.777 329.697 247.08V276.514C340.837 286.087 350.128 297.987 354.088 310.897C357.406 296.949 349.807 273.35 340.703 259.378Z" fill="white"/>
<path d="M354.088 311.797C353.695 311.797 353.346 311.54 353.23 311.162C348.673 296.304 337.6 284.49 329.113 277.196C328.914 277.025 328.8 276.776 328.8 276.514V247.08C328.8 246.725 329.008 246.403 329.331 246.259C329.655 246.114 330.033 246.174 330.297 246.41C333.907 249.654 338.057 253.673 341.454 258.887C350.589 272.906 358.351 296.857 354.961 311.106C354.867 311.5 354.521 311.783 354.117 311.796C354.107 311.796 354.097 311.797 354.088 311.797ZM330.595 276.101C338.568 283.006 348.657 293.764 353.791 307.27C355.289 293.296 348.181 272.5 339.951 259.869C337.124 255.53 333.733 252.024 330.595 249.114L330.595 276.101Z" fill="#2D2D2D"/>
</g>
<mask id="mask3_2101_4573" style="mask-type:luminance" maskUnits="userSpaceOnUse" x="60" y="44" width="74" height="61">
<path d="M72.0576 44.5947L133.069 61.6118L121.268 104.193L60.2559 87.1762L72.0576 44.5947Z" fill="white"/>
</mask>
<g mask="url(#mask3_2101_4573)">
<path d="M69.7864 60.4134C68.7696 57.65 69.8989 54.4874 72.5563 53.0358C78.2116 49.947 85.5666 49.1126 91.2941 50.9104C95.3988 52.1988 98.4772 54.6951 100.196 58.1284C104.383 66.4945 101 72.5801 98.7615 76.6079C96.7757 80.1786 96.5068 81.7243 97.8889 83.4216C99.2313 85.0701 104.898 86.7574 116.561 83.5432C119.774 82.6581 123.096 84.5487 123.987 87.7646C124.875 90.9813 122.991 94.3064 119.779 95.1917C98.3518 101.096 90.4325 94.32 87.6191 89.7556C82.3667 81.2358 85.9058 74.5845 88.2129 70.7223C90.5477 66.8134 91.1128 63.8 87.696 62.4379C85.1369 61.418 81.1369 62.1196 78.3485 63.6428C75.4243 65.24 71.7572 64.1605 70.158 61.2311C70.0121 60.9641 69.8881 60.6907 69.7864 60.4134Z" fill="white"/>
<path d="M96.9632 97.4127C91.3555 95.8487 88.3856 92.7225 86.8497 90.2305C81.0881 80.885 85.5368 73.437 87.4364 70.2564C88.9372 67.7437 89.4766 65.9624 89.0863 64.8108C88.8636 64.1541 88.2998 63.6533 87.3624 63.2796C85.2355 62.4319 81.5458 62.9292 78.7833 64.438C77.1569 65.3266 75.2753 65.5299 73.5025 65.0034C71.7234 64.4797 70.2537 63.294 69.364 61.6645C69.1994 61.3632 69.0555 61.0472 68.937 60.7255C67.759 57.5233 69.1281 53.8753 72.122 52.2401C77.9822 49.0392 85.6164 48.1799 91.5644 50.0457C95.9092 51.4096 99.1741 54.0645 101.006 57.7233C105.408 66.5183 101.885 72.856 99.5532 77.0496C97.5947 80.5717 97.5983 81.6312 98.5908 82.8502C99.4614 83.919 104.344 85.9703 116.321 82.67C120.007 81.6541 123.837 83.8317 124.859 87.524C125.88 91.2175 123.709 95.0491 120.021 96.0656C109.49 98.9676 102.114 98.8493 96.9632 97.4127ZM87.3499 61.3673C87.5837 61.4325 87.8108 61.5084 88.0305 61.596C89.4708 62.1701 90.403 63.0564 90.8008 64.2305C91.38 65.9395 90.8049 68.1502 88.9906 71.1879C87.1133 74.3312 83.2064 80.8722 88.3899 89.2803C91.0701 93.6289 98.6804 100.066 119.538 94.318C122.264 93.5667 123.869 90.7346 123.115 88.005C122.359 85.2757 119.528 83.6661 116.803 84.4167C105.188 87.618 98.9771 86.1898 97.1883 83.9933C95.3843 81.7782 96.0035 79.7045 97.9712 76.1661C100.246 72.0748 103.361 66.4711 99.3879 58.5329C97.7815 55.3244 94.8895 52.9876 91.0251 51.7744C85.519 50.0459 78.4414 50.8536 72.9915 53.8307C70.7785 55.0396 69.7664 57.7353 70.6363 60.1008C70.7238 60.3387 70.8303 60.5727 70.9525 60.7964C71.6104 62.0011 72.6966 62.8774 74.0114 63.2647C75.3267 63.6489 76.7125 63.5032 77.9147 62.8467C80.4881 61.4413 84.4237 60.5508 87.3503 61.3671L87.3499 61.3673Z" fill="#2D2D2D"/>
</g>
<mask id="mask4_2101_4573" style="mask-type:luminance" maskUnits="userSpaceOnUse" x="168" y="19" width="174" height="529">
<path d="M168.3 19.5342H341.1V547.796H168.3V19.5342Z" fill="white"/>
</mask>
<g mask="url(#mask4_2101_4573)">
<path d="M314.729 546.899L340.204 539.527V78.1489L314.729 85.5207V546.899Z" fill="white"/>
<path d="M314.729 547.795C314.537 547.795 314.348 547.734 314.191 547.615C313.966 547.446 313.834 547.181 313.834 546.899V85.521C313.834 85.1218 314.098 84.7707 314.481 84.6598L339.956 77.288C340.227 77.21 340.517 77.2638 340.742 77.4329C340.967 77.602 341.099 77.8677 341.099 78.1491V539.527C341.099 539.926 340.835 540.278 340.452 540.388L314.977 547.76C314.896 547.784 314.812 547.795 314.729 547.795ZM315.624 86.1951V545.707L339.309 538.853V79.3411L315.624 86.1951Z" fill="#2D2D2D"/>
<path d="M169.194 27.8025L194.67 20.4307L340.205 78.1493L314.729 85.5212L169.194 27.8025Z" fill="white"/>
<path d="M314.73 86.4174C314.618 86.4174 314.506 86.3965 314.4 86.3547L168.865 28.636C168.509 28.4947 168.283 28.1427 168.301 27.7596C168.319 27.3766 168.579 27.0479 168.946 26.9412L194.422 19.5694C194.613 19.5144 194.815 19.524 195 19.5972L340.535 77.3158C340.891 77.4572 341.117 77.8092 341.099 78.1922C341.081 78.5753 340.821 78.904 340.454 79.0107L314.979 86.3825C314.897 86.4061 314.814 86.4177 314.73 86.4177L314.73 86.4174ZM171.96 27.9353L314.775 84.575L337.439 78.0165L194.625 21.3768L171.96 27.9353Z" fill="#2D2D2D"/>
<path d="M175.312 36.8205L308.611 89.6863V537.881L175.312 485.015L169.194 489.18L314.729 546.899V85.5209L169.194 27.8022L175.312 36.8205Z" fill="white"/>
<path d="M314.729 547.795C314.618 547.795 314.506 547.775 314.4 547.732L168.864 490.014C168.405 489.832 168.18 489.311 168.362 488.85C168.544 488.39 169.064 488.165 169.523 488.347L313.834 545.58V86.1303L168.864 28.636C168.405 28.454 168.18 27.9329 168.362 27.4724C168.544 27.0123 169.064 26.7867 169.523 26.9689L315.058 84.6876C315.4 84.823 315.624 85.1535 315.624 85.5213V546.899C315.624 547.196 315.477 547.474 315.232 547.641C315.082 547.743 314.906 547.795 314.729 547.795Z" fill="#2D2D2D"/>
<path d="M308.611 538.777C308.499 538.777 308.387 538.757 308.281 538.714L174.983 485.849C174.523 485.667 174.298 485.145 174.48 484.685C174.662 484.225 175.182 483.999 175.642 484.181L307.716 536.562V90.2957L174.983 37.654C174.523 37.4721 174.298 36.951 174.48 36.4905C174.662 36.0303 175.182 35.8047 175.642 35.987L308.94 88.8528C309.281 88.9882 309.506 89.3186 309.506 89.6865V537.881C309.506 538.178 309.359 538.456 309.114 538.622C308.963 538.725 308.788 538.777 308.611 538.777H308.611Z" fill="#2D2D2D"/>
</g>
<mask id="mask5_2101_4573" style="mask-type:luminance" maskUnits="userSpaceOnUse" x="223" y="457" width="66" height="77">
<path d="M288.268 466.794L277.449 533.201L223.314 524.306L234.132 457.899L288.268 466.794Z" fill="white"/>
</mask>
<g mask="url(#mask5_2101_4573)">
<path d="M277.052 466.372C277.114 466.357 277.175 466.343 277.237 466.33C280.54 465.632 283.785 467.747 284.486 471.054C285.905 477.752 285.13 484.516 282.243 490.614C279.663 496.065 275.536 500.765 270.309 504.204C259.957 511.016 247.604 511.406 238.838 505.196C236.081 503.243 235.425 499.424 237.374 496.666C239.323 493.909 243.137 493.257 245.894 495.21C250.521 498.488 257.466 498.003 263.585 493.976C269.213 490.273 274.516 482.971 272.526 473.58C271.839 470.336 273.856 467.15 277.052 466.372Z" fill="#00B2FF"/>
<path d="M235.431 499.052C235.597 498.032 235.991 497.034 236.626 496.136C238.863 492.97 243.259 492.218 246.424 494.461C250.74 497.519 257.279 497.027 263.081 493.209C268.456 489.672 273.524 482.709 271.63 473.77C270.836 470.026 273.123 466.385 276.834 465.481C276.905 465.463 276.976 465.447 277.048 465.432C278.885 465.044 280.763 465.395 282.338 466.421C283.912 467.448 284.994 469.025 285.383 470.864C286.845 477.761 286.046 484.726 283.072 491.008C280.42 496.611 276.181 501.439 270.814 504.971C260.144 511.992 247.385 512.374 238.309 505.945C236.042 504.338 235.012 501.625 235.431 499.052L235.431 499.052ZM273.628 480.62C272.594 486.966 268.435 491.884 264.09 494.743C257.653 498.979 250.303 499.456 245.365 495.959C243.026 494.301 239.777 494.856 238.123 497.196C236.47 499.537 237.028 502.789 239.368 504.446C247.823 510.436 259.771 510.04 269.805 503.436C274.892 500.089 278.906 495.519 281.415 490.22C284.214 484.305 284.967 477.743 283.589 471.243C283.301 469.883 282.502 468.717 281.338 467.959C280.174 467.2 278.786 466.941 277.428 467.228C277.375 467.239 277.323 467.251 277.271 467.263L277.27 467.263C274.527 467.931 272.837 470.623 273.424 473.39C273.968 475.959 273.993 478.379 273.628 480.619L273.628 480.62Z" fill="#2D2D2D"/>
<path d="M238.835 505.208C231.321 499.885 228.341 492.403 230.864 485.194C233.004 479.075 238.912 474.231 245.532 472.619C247.431 472.157 249.387 471.961 251.331 472.076C259.496 472.562 265.573 478.23 267.588 487.239C269.567 496.094 266.934 504.995 260.171 512.303C254.581 518.344 246.297 523.043 237.44 525.199L237.408 525.207C234.127 526.003 230.82 523.985 230.021 520.701C229.222 517.418 231.232 514.111 234.51 513.313C234.521 513.311 234.529 513.308 234.539 513.306C241.124 511.703 247.194 508.305 251.196 503.98C255.262 499.587 256.776 494.846 255.655 489.9C254.732 485.821 252.853 484.616 250.62 484.294C247.03 483.776 243.066 485.941 242.405 489.251C242.019 491.185 242.927 493.121 245.893 495.222" fill="#00B2FF"/>
<path d="M229.269 487.74C229.424 486.789 229.666 485.838 229.998 484.89C232.19 478.626 238.202 473.459 245.315 471.727C247.348 471.232 249.391 471.042 251.385 471.16C259.982 471.672 266.373 477.608 268.483 487.04C270.531 496.198 267.818 505.392 260.845 512.927C255.135 519.095 246.684 523.893 237.658 526.09L237.626 526.098C233.859 527.012 230.048 524.687 229.131 520.917C228.214 517.148 230.53 513.337 234.293 512.421C234.295 512.42 234.326 512.413 234.328 512.412C240.736 510.853 246.641 507.551 250.523 503.356C254.383 499.185 255.809 494.726 254.761 490.101C253.88 486.211 252.188 485.448 250.491 485.203C247.264 484.737 243.839 486.753 243.304 489.431C243.092 490.5 243.184 492.178 246.422 494.472C246.836 494.765 246.934 495.338 246.642 495.752C246.35 496.165 245.777 496.263 245.364 495.97C242.277 493.784 241.015 491.524 241.506 489.07C242.232 485.435 246.551 482.779 250.75 483.385C253.832 483.83 255.675 485.836 256.55 489.697C257.739 494.948 256.164 499.963 251.87 504.604C247.749 509.057 241.512 512.554 234.757 514.198C234.752 514.199 234.718 514.207 234.712 514.209C231.947 514.882 230.236 517.699 230.913 520.484C231.591 523.272 234.408 524.99 237.192 524.314L237.441 525.198L237.223 524.306C245.909 522.193 254.028 517.59 259.499 511.678C266.051 504.599 268.606 495.99 266.694 487.439C264.774 478.853 259.011 473.453 251.279 472.993C249.467 472.885 247.607 473.059 245.751 473.511C239.226 475.1 233.722 479.805 231.73 485.498C229.352 492.297 232.206 499.387 239.366 504.459C239.78 504.753 239.878 505.325 239.585 505.739C239.293 506.152 238.721 506.25 238.307 505.957C231.419 501.077 228.18 494.431 229.27 487.74L229.269 487.74Z" fill="#2D2D2D"/>
</g>
</svg>
