<svg width="558" height="476" viewBox="0 0 558 476" fill="none" xmlns="http://www.w3.org/2000/svg">
<g clip-path="url(#clip0_5360_20916)">
<path d="M371.173 125.719H68.253C60.2966 125.719 53.8467 132.191 53.8467 140.175V360.186C53.8467 368.169 60.2966 374.641 68.253 374.641H371.173C379.129 374.641 385.579 368.169 385.579 360.186V140.175C385.579 132.191 379.129 125.719 371.173 125.719Z" fill="white"/>
<path d="M371.173 375.76H68.2529C59.6944 375.76 52.7314 368.773 52.7314 360.186V140.175C52.7314 131.587 59.6944 124.6 68.2529 124.6H371.173C379.731 124.6 386.694 131.587 386.694 140.175V360.186C386.694 368.773 379.731 375.76 371.173 375.76ZM68.2529 126.838C60.9244 126.838 54.9622 132.821 54.9622 140.175V360.186C54.9622 367.539 60.9244 373.522 68.2529 373.522H371.173C378.501 373.522 384.464 367.539 384.464 360.186V140.175C384.464 132.821 378.501 126.838 371.173 126.838H68.2529Z" fill="#3375E0"/>
</g>
<g clip-path="url(#clip1_5360_20916)">
<path d="M251.658 69.4395C227.004 69.4395 207.018 84.5548 207.018 103.201C207.018 112.424 211.91 120.782 219.836 126.875L218.299 143.08L235.817 134.772C240.741 136.186 246.079 136.962 251.658 136.962C276.313 136.962 296.299 121.847 296.299 103.201C296.299 84.5548 276.313 69.4395 251.658 69.4395Z" fill="white"/>
<path d="M218.299 144.2C218.143 144.2 217.99 144.167 217.848 144.104C217.705 144.041 217.578 143.949 217.473 143.834C217.369 143.718 217.289 143.582 217.24 143.434C217.191 143.286 217.174 143.129 217.188 142.974L218.668 127.381C210.43 120.856 205.902 112.29 205.902 103.201C205.902 93.8226 210.704 85.0271 219.421 78.4338C228.045 71.9116 239.494 68.3198 251.658 68.3198C263.823 68.3198 275.272 71.9116 283.895 78.4338C292.613 85.0271 297.414 93.8229 297.414 103.201C297.414 112.579 292.613 121.375 283.895 127.968C275.272 134.49 263.823 138.082 251.658 138.082C246.25 138.082 240.956 137.369 235.916 135.963L218.775 144.093C218.626 144.164 218.464 144.2 218.299 144.2L218.299 144.2ZM251.658 70.5587C227.658 70.5587 208.133 85.2017 208.133 103.201C208.133 111.756 212.53 119.848 220.515 125.986C220.665 126.102 220.783 126.253 220.859 126.427C220.934 126.602 220.965 126.792 220.947 126.981L219.595 141.227L235.341 133.759C235.585 133.643 235.864 133.62 236.124 133.695C241.085 135.12 246.312 135.842 251.658 135.842C275.659 135.842 295.184 121.199 295.184 103.2C295.184 85.2014 275.658 70.5587 251.658 70.5587Z" fill="#3375E0"/>
</g>
<g clip-path="url(#clip2_5360_20916)">
<path d="M233.407 260.268C229.33 252.66 225.162 246.567 220.664 241.641C176.428 194.248 125.383 260.136 172.716 288.598C185.973 314.955 196.068 345.579 209.864 374.331H287.095C263.143 342.773 250.353 292.578 233.407 260.268L233.407 260.268Z" fill="white"/>
<path d="M287.095 375.448H209.864C209.655 375.448 209.45 375.389 209.273 375.277C209.095 375.165 208.953 375.005 208.863 374.816C202.27 361.076 196.48 346.81 190.881 333.014C184.63 317.61 178.722 303.054 171.868 289.388C164.785 285.074 159.553 279.744 156.314 273.543C153.37 267.907 152.177 261.597 152.862 255.296C154.322 241.877 163.984 229.953 176.903 225.625C183.713 223.344 191.116 223.291 198.315 225.473C206.439 227.935 214.231 233.118 221.475 240.878C226.045 245.882 230.265 252.048 234.386 259.74L234.39 259.748C240.808 271.985 246.564 286.602 252.658 302.078C262.734 327.663 273.152 354.119 287.979 373.655C288.105 373.821 288.182 374.018 288.202 374.225C288.221 374.432 288.183 374.641 288.091 374.827C287.999 375.014 287.857 375.17 287.681 375.28C287.505 375.39 287.302 375.448 287.095 375.448ZM210.563 373.216H284.876C270.572 353.637 260.419 327.855 250.591 302.898C244.52 287.483 238.786 272.92 232.425 260.791C228.394 253.268 224.279 247.25 219.845 242.395C202.027 223.305 185.733 225.02 177.607 227.742C165.496 231.799 156.44 242.97 155.073 255.538C153.7 268.154 160.339 279.855 173.288 287.641C173.468 287.75 173.614 287.907 173.709 288.095C180.665 301.925 186.628 316.617 192.941 332.172C198.441 345.724 204.125 359.732 210.563 373.216H210.563Z" fill="#3375E0"/>
<path d="M197.773 226.475C189.65 223.958 178.223 223.804 170.71 223.823C163.196 223.842 118.953 230.872 118.953 230.872C110.314 232.461 93.4418 234.502 78.896 244.321C75.0478 246.919 89.196 272.245 89.68 297.194C90.4698 337.9 97.576 370.668 104.381 375.599C127.081 392.045 207.35 387.816 222.641 365.76C222.641 365.76 216.109 308.105 206.974 274.752" fill="white"/>
<path d="M152.677 386.706C147.747 386.706 142.894 386.513 138.254 386.122C122.749 384.815 110.488 381.4 103.731 376.504C95.9825 370.89 89.3223 336.063 88.5684 297.216C88.3005 283.415 83.8023 269.499 80.5177 259.338C77.5309 250.098 75.8856 245.008 78.2754 243.395C91.484 234.478 106.685 231.862 115.768 230.299C116.846 230.113 117.845 229.941 118.753 229.774C120.589 229.482 163.193 222.725 170.707 222.706C179.332 222.688 190.237 222.972 198.1 225.408C198.377 225.5 198.607 225.696 198.741 225.956C198.875 226.216 198.902 226.518 198.816 226.798C198.73 227.077 198.538 227.312 198.282 227.451C198.025 227.59 197.725 227.622 197.445 227.541C189.868 225.194 179.188 224.92 170.712 224.938C163.37 224.957 119.569 231.904 119.127 231.974C118.133 232.155 117.139 232.329 116.144 232.498C107.237 234.031 92.3296 236.597 79.5162 245.247C79.5106 245.251 79.0176 245.685 79.7179 248.851C80.2656 251.327 81.3625 254.72 82.6324 258.649C85.9599 268.943 90.5169 283.04 90.7909 297.172C91.5824 337.946 98.7933 370.174 105.032 374.694C117.976 384.072 152.406 387.262 183.415 381.956C202.614 378.671 216.104 372.821 221.487 365.461C220.867 360.129 214.498 306.435 205.902 275.047C205.863 274.906 205.852 274.758 205.871 274.613C205.889 274.468 205.935 274.327 206.007 274.2C206.079 274.072 206.176 273.961 206.291 273.871C206.406 273.781 206.538 273.714 206.679 273.676C206.82 273.637 206.967 273.626 207.111 273.644C207.256 273.662 207.396 273.709 207.523 273.781C207.65 273.854 207.761 273.951 207.851 274.066C207.94 274.182 208.007 274.314 208.045 274.456C217.098 307.511 223.679 365.056 223.745 365.634C223.775 365.903 223.707 366.175 223.553 366.397C217.996 374.412 203.874 380.719 183.788 384.156C173.969 385.836 163.151 386.706 152.677 386.706Z" fill="#3375E0"/>
<mask id="mask0_5360_20916" style="mask-type:luminance" maskUnits="userSpaceOnUse" x="87" y="223" width="136" height="163">
<path d="M195.95 226.142C187.827 223.626 178.224 223.803 170.71 223.822C163.197 223.841 118.954 230.872 118.954 230.872C110.315 232.461 99.2187 233.504 88.1162 240.261C84.151 242.675 93.1441 269.31 93.6282 294.26C94.4179 334.965 97.5761 370.668 104.382 375.599C127.081 392.044 207.35 387.816 222.641 365.76C222.641 365.76 216.109 308.105 206.974 274.751" fill="white"/>
</mask>
<g mask="url(#mask0_5360_20916)">
<path d="M175.957 358.875C165.451 358.875 153.683 356.774 141.587 352.715C136.911 351.145 134.387 346.067 135.951 341.372C137.514 336.677 142.572 334.144 147.249 335.713C169.899 343.316 189.629 342.622 198.738 333.902C201.115 331.628 202.031 328.709 201.189 326.095C200.345 323.474 197.966 321.766 194.491 321.287C189.062 320.54 181.902 323.04 174.979 325.458C167.212 328.171 159.875 330.733 152.805 329.712C143.3 328.339 136.144 322.767 133.17 314.426C130.247 306.227 132.1 296.526 137.78 290.287C150.461 276.36 170.461 276.74 190.185 279.224C195.077 279.84 198.546 284.321 197.932 289.232C197.318 294.144 192.857 297.626 187.962 297.01C167.5 294.433 156.779 295.989 150.96 302.381C149.858 303.591 149.191 306.167 149.981 308.385C150.242 309.117 151.037 311.345 155.348 311.968C158.115 312.366 163.958 310.327 169.113 308.527C177.61 305.559 187.242 302.195 196.916 303.527C207.25 304.95 215.199 311.325 218.18 320.581C221.137 329.766 218.409 339.841 211.06 346.876C203.862 353.765 193.458 357.856 180.973 358.708C179.337 358.819 177.663 358.874 175.957 358.874V358.875Z" fill="#A8CFFB"/>
</g>
<path d="M222.639 366.876C222.367 366.875 222.103 366.774 221.9 366.592C221.697 366.409 221.567 366.158 221.536 365.886C221.471 365.311 214.909 307.935 205.902 275.048C205.863 274.906 205.853 274.759 205.871 274.613C205.889 274.468 205.935 274.327 206.008 274.2C206.08 274.073 206.176 273.961 206.291 273.871C206.407 273.781 206.538 273.715 206.679 273.676C206.82 273.637 206.967 273.626 207.112 273.644C207.257 273.662 207.396 273.709 207.523 273.782C207.65 273.854 207.762 273.951 207.851 274.067C207.941 274.182 208.007 274.314 208.045 274.456C217.099 307.511 223.68 365.057 223.745 365.634C223.763 365.79 223.747 365.948 223.7 366.098C223.652 366.248 223.574 366.386 223.47 366.504C223.365 366.621 223.237 366.715 223.094 366.779C222.951 366.843 222.796 366.876 222.639 366.876V366.876Z" fill="#3375E0"/>
<path d="M135.278 426.828C108.24 426.635 105.092 386.657 132.075 382.424C170.994 377.029 175.441 350.915 209.985 338.265C237.561 328.625 251.977 367.569 225.315 380.165C217.85 383.692 211.727 388.086 204.328 394.499C190.935 406.512 169.364 423.679 135.278 426.828V426.828Z" fill="white"/>
<path d="M135.279 427.943H135.271C128.664 427.896 122.955 425.552 118.763 421.163C115.024 417.249 112.732 411.931 112.308 406.187C111.885 400.449 113.372 394.863 116.496 390.459C120.004 385.512 125.332 382.353 131.904 381.322C153.439 378.336 164.259 368.926 175.714 358.963C184.829 351.035 194.255 342.838 209.604 337.217C216.161 334.925 222.48 335.125 227.895 337.791C232.725 340.168 236.573 344.402 238.732 349.714C241 355.292 241.178 361.406 239.236 366.93C237.057 373.122 232.408 378.048 225.788 381.175C218.941 384.41 212.934 388.515 205.055 395.343C198.562 401.168 189.615 408.676 178.095 414.968C164.898 422.176 150.527 426.54 135.381 427.939C135.347 427.942 135.313 427.943 135.279 427.943L135.279 427.943ZM218.466 337.855C215.951 337.855 213.239 338.309 210.351 339.319C195.401 344.794 186.133 352.854 177.17 360.65C165.458 370.836 154.396 380.457 132.228 383.53C119.011 385.603 113.809 396.321 114.525 406.022C115.219 415.426 121.994 425.589 135.232 425.711C167.496 422.716 188.709 407.014 203.588 393.666C211.645 386.683 217.799 382.483 224.842 379.155C238.362 372.768 240.453 359.853 236.674 350.556C233.847 343.604 227.411 337.855 218.466 337.855L218.466 337.855Z" fill="#3375E0"/>
<path d="M110.381 306.439C100 323.566 103.086 353.212 111.534 365.314C114.492 369.425 117.83 371.828 124.96 371.799C132.013 371.799 141.109 369.476 152 364.894C168.986 357.746 185.147 366.927 192.265 383.98C199.384 401.032 195.735 416.242 181.206 424.622C163.005 435.119 141.133 438.982 124.963 438.754C38.8793 437.541 15.0623 347.208 47.8862 281.916C54.8568 267.306 65.9618 252.159 78.8961 244.321" fill="white"/>
<path d="M126.401 439.881C125.914 439.881 125.431 439.877 124.947 439.87C107.186 439.62 91.3326 435.6 77.8267 427.923C65.3417 420.825 55.1252 410.786 47.4604 398.085C37.8113 382.095 32.6876 362.57 32.6429 341.622C32.5987 320.866 37.5265 300.047 46.8938 281.413C50.5806 273.686 55.2155 266.233 60.2875 259.881C66.0231 252.698 72.0908 247.142 78.3213 243.366C78.4463 243.288 78.5854 243.236 78.7305 243.213C78.8756 243.19 79.0238 243.196 79.1666 243.23C79.3095 243.265 79.444 243.328 79.5625 243.415C79.6811 243.502 79.7812 243.612 79.8571 243.738C79.9331 243.865 79.9833 244.005 80.005 244.151C80.0267 244.297 80.0193 244.445 79.9833 244.588C79.9474 244.731 79.8835 244.866 79.7955 244.984C79.7074 245.102 79.597 245.201 79.4704 245.276C68.1334 252.146 56.7011 266.023 48.8885 282.398C29.9346 320.101 30.1241 365.049 49.3609 396.928C60.3681 415.169 82.4221 437.039 124.978 437.638C144.182 437.912 165 432.681 180.652 423.654C194.466 415.687 198.325 401.383 191.24 384.411C187.807 376.189 182.159 369.778 175.336 366.36C168.184 362.777 160.264 362.626 152.429 365.923C141.403 370.562 132.161 372.914 124.96 372.914C117.232 372.942 113.65 370.16 110.632 365.967C106.26 359.704 103.33 349.185 102.786 337.814C102.185 325.268 104.545 313.919 109.431 305.858C109.507 305.733 109.606 305.624 109.724 305.537C109.842 305.451 109.976 305.388 110.118 305.354C110.259 305.319 110.407 305.313 110.551 305.335C110.695 305.358 110.834 305.409 110.958 305.485C111.21 305.639 111.391 305.887 111.46 306.174C111.53 306.462 111.483 306.765 111.33 307.018C100.78 324.425 104.672 353.539 112.444 364.673C115.109 368.376 118.122 370.682 124.833 370.683H124.955C131.863 370.683 140.817 368.389 151.57 363.865C160.018 360.31 168.58 360.482 176.328 364.363C183.628 368.02 189.652 374.834 193.29 383.548C196.914 392.23 197.826 400.629 195.928 407.838C193.982 415.227 189.082 421.366 181.759 425.589C166.172 434.58 145.583 439.88 126.4 439.88L126.401 439.881Z" fill="#3375E0"/>
<path d="M209.985 338.265C220.499 334.015 228.685 334.61 235.22 338.797C240.444 342.144 243.939 350.08 238.65 351.146C233.361 352.212 229.177 353.123 224.651 352.594" fill="white"/>
<path d="M227.385 353.867C226.442 353.867 225.493 353.816 224.522 353.702C224.229 353.668 223.962 353.518 223.779 353.286C223.596 353.054 223.513 352.759 223.547 352.465C223.581 352.171 223.73 351.903 223.961 351.719C224.192 351.535 224.487 351.451 224.78 351.485C228.936 351.971 232.827 351.184 237.754 350.189L238.431 350.052C239.74 349.788 240.021 349.062 240.118 348.538C240.525 346.357 238.212 342.038 234.622 339.738C228.034 335.517 220.112 335.375 210.4 339.301C210.127 339.41 209.822 339.406 209.551 339.29C209.281 339.174 209.067 338.955 208.957 338.681C208.848 338.407 208.85 338.1 208.965 337.829C209.08 337.557 209.298 337.342 209.57 337.23C219.995 333.015 228.581 333.22 235.817 337.856C239.959 340.51 242.93 345.589 242.304 348.948C241.979 350.69 240.759 351.859 238.868 352.24L238.193 352.377C234.176 353.189 230.82 353.867 227.385 353.867Z" fill="#3375E0"/>
<path d="M219.551 348.338C226.105 345.647 234.903 344.377 239.238 349.974C243.091 354.949 244.006 362.25 241.022 364.146C237.857 366.157 225.006 365.275 225.006 365.275" fill="white"/>
<path d="M231.06 366.591C228.07 366.591 225.515 366.429 224.931 366.389C224.639 366.366 224.368 366.228 224.177 366.006C223.985 365.783 223.889 365.494 223.909 365.2C223.929 364.907 224.064 364.633 224.283 364.439C224.503 364.245 224.79 364.145 225.083 364.162C229.911 364.493 238.347 364.525 240.428 363.203C241.148 362.746 241.449 361.787 241.575 361.064C242.017 358.525 241.054 354.136 238.361 350.659C234.532 345.715 226.351 346.752 219.972 349.371C219.837 349.428 219.691 349.458 219.544 349.458C219.398 349.459 219.252 349.43 219.116 349.374C218.981 349.317 218.857 349.234 218.754 349.13C218.65 349.026 218.568 348.901 218.512 348.765C218.457 348.629 218.429 348.482 218.43 348.335C218.431 348.187 218.461 348.042 218.518 347.906C218.576 347.77 218.659 347.647 218.764 347.544C218.869 347.441 218.994 347.36 219.13 347.306C222.593 345.884 234.337 341.827 240.116 349.289C242.888 352.867 244.388 357.867 243.765 361.447C243.474 363.122 242.731 364.382 241.617 365.09C239.698 366.309 235.002 366.592 231.061 366.592L231.06 366.591Z" fill="#3375E0"/>
<path d="M221.271 362.353C227.241 360.271 237.245 356.713 242.327 363.432C246.75 369.279 245.364 374.133 245.364 374.133C236.357 374.133 233.42 376.343 225.315 380.165" fill="white"/>
<path d="M225.316 381.281C225.063 381.281 224.818 381.195 224.62 381.036C224.423 380.878 224.285 380.656 224.23 380.409C224.175 380.161 224.206 379.902 224.317 379.674C224.428 379.446 224.614 379.263 224.843 379.155C226.05 378.586 227.124 378.061 228.162 377.554C233.72 374.839 237.165 373.157 244.426 373.026C244.574 371.531 244.47 368.111 241.441 364.107C236.887 358.087 227.43 361.386 221.78 363.357L221.635 363.408C221.497 363.456 221.351 363.477 221.204 363.469C221.058 363.461 220.915 363.424 220.783 363.36C220.652 363.297 220.534 363.207 220.436 363.098C220.339 362.988 220.264 362.86 220.216 362.721C220.168 362.582 220.148 362.435 220.156 362.289C220.165 362.142 220.202 361.998 220.267 361.866C220.331 361.734 220.42 361.616 220.53 361.519C220.639 361.422 220.767 361.347 220.906 361.299L221.05 361.249C227.271 359.079 237.683 355.448 243.212 362.757C247.918 368.978 246.495 374.221 246.432 374.441C246.366 374.674 246.226 374.879 246.033 375.025C245.84 375.17 245.605 375.249 245.364 375.249C237.963 375.249 234.827 376.781 229.135 379.561C228.09 380.071 227.009 380.599 225.788 381.175C225.64 381.245 225.479 381.281 225.316 381.281L225.316 381.281Z" fill="#3375E0"/>
<path d="M169.257 252.16C181.053 243.414 194.388 221.18 168.738 210.521C142.857 199.766 84.3927 216.944 98.2149 235.22C110.696 251.722 143.563 256.702 159.838 253.751" fill="white"/>
<path d="M149.74 255.674C142.678 255.674 134.756 254.71 127.336 252.864C113.695 249.469 103.038 243.443 97.3295 235.895C94.1799 231.731 94.2413 227.282 97.5073 223.03C102.36 216.713 114.611 210.962 129.48 208.02C144.812 204.986 159.648 205.536 169.163 209.49C178.403 213.33 183.534 218.924 184.411 226.118C185.656 236.322 177.77 247.236 169.917 253.058C169.8 253.148 169.666 253.212 169.524 253.249C169.381 253.286 169.233 253.294 169.088 253.273C168.942 253.252 168.802 253.202 168.676 253.126C168.549 253.051 168.439 252.95 168.352 252.832C168.265 252.713 168.202 252.578 168.167 252.434C168.132 252.291 168.125 252.142 168.148 251.996C168.171 251.85 168.222 251.71 168.299 251.584C168.376 251.459 168.477 251.349 168.597 251.263C176.181 245.641 183.29 235.291 182.204 226.389C181.432 220.054 176.758 215.062 168.313 211.553C147.947 203.089 108.598 212.248 99.268 224.393C96.6081 227.857 96.5528 231.177 99.1002 234.545C110.908 250.158 142.844 255.7 159.641 252.654C159.931 252.601 160.23 252.667 160.472 252.835C160.714 253.004 160.88 253.263 160.932 253.554C160.984 253.845 160.919 254.145 160.751 254.389C160.583 254.632 160.326 254.798 160.036 254.85C156.982 255.404 153.481 255.675 149.74 255.675V255.674Z" fill="#3375E0"/>
<path d="M163.75 228.319C167.263 232.556 166.656 246.27 160.082 247.328C150.912 248.805 130.67 245.852 122.815 233.421L118.953 202.192L159.888 197.09L163.75 228.319Z" fill="white"/>
<path d="M155.218 248.792C150.643 248.792 145.359 248.044 140.644 246.661C134.608 244.892 126.453 241.262 121.877 234.019C121.789 233.88 121.733 233.722 121.712 233.559L117.85 202.329C117.832 202.184 117.843 202.036 117.882 201.895C117.921 201.754 117.987 201.621 118.076 201.506C118.166 201.39 118.278 201.293 118.405 201.221C118.531 201.149 118.671 201.102 118.816 201.084L159.751 195.982C159.896 195.964 160.043 195.975 160.184 196.014C160.325 196.053 160.456 196.119 160.571 196.209C160.687 196.299 160.783 196.411 160.855 196.539C160.927 196.666 160.973 196.807 160.991 196.952L164.815 227.875C167.215 231.116 167.725 238.056 165.874 243.009C164.7 246.153 162.758 248.028 160.258 248.43C158.744 248.674 157.037 248.792 155.218 248.792H155.218ZM123.887 233.032C131.678 245.032 151.466 247.586 159.906 246.227C162.01 245.888 163.181 243.864 163.793 242.226C165.396 237.934 164.96 231.523 162.895 229.033C162.759 228.869 162.673 228.669 162.646 228.457L158.922 198.335L120.193 203.162L123.887 233.031L123.887 233.032ZM118.59 116.644C129.735 106.059 153.402 100.238 172.237 116.574C191.398 133.193 189.005 148.84 199.068 155.539C207.147 160.916 228.003 177.998 211.726 193.074C212.29 185.188 208.199 178.245 203.228 175.286C203.228 175.286 206.799 195.071 192.803 197.047C157.564 202.02 139.354 152.762 140.249 122.179L118.59 116.644Z" fill="#3375E0"/>
<path d="M187.864 198.516C179.188 198.516 171.174 195.257 163.981 188.791C154.003 179.822 148.119 166.917 144.94 157.672C141.042 146.334 138.935 133.772 139.117 123.042L118.316 117.726C118.123 117.676 117.946 117.576 117.805 117.435C117.664 117.295 117.563 117.118 117.513 116.925C117.463 116.731 117.466 116.528 117.521 116.336C117.576 116.144 117.681 115.97 117.826 115.833C128.779 105.432 153.126 98.5235 172.964 115.729C183.953 125.261 187.972 134.471 191.202 141.871C193.639 147.456 195.564 151.867 199.683 154.608C203.935 157.439 217.881 167.602 218.834 179.559C219.25 184.781 217.112 189.604 212.48 193.894C212.317 194.046 212.111 194.145 211.891 194.178C211.67 194.211 211.445 194.177 211.244 194.08C211.043 193.983 210.876 193.827 210.765 193.634C210.653 193.44 210.602 193.217 210.618 192.994C211.095 186.32 208.118 180.784 204.638 177.703C204.937 181.441 204.912 188.372 201.445 193.187C199.442 195.969 196.587 197.639 192.958 198.151C191.271 198.392 189.569 198.514 187.864 198.516L187.864 198.516ZM120.905 116.084L140.523 121.098C140.768 121.16 140.985 121.305 141.137 121.507C141.289 121.71 141.368 121.958 141.36 122.212C140.763 142.641 149.007 172.335 165.464 187.128C173.535 194.383 182.681 197.348 192.648 195.942C195.652 195.518 198.004 194.153 199.639 191.885C203.942 185.917 202.152 175.588 202.134 175.484C202.096 175.273 202.119 175.056 202.2 174.858C202.281 174.661 202.418 174.49 202.593 174.368C202.768 174.246 202.974 174.177 203.187 174.17C203.4 174.162 203.611 174.216 203.794 174.325C208.066 176.868 212.4 182.784 212.852 190.306C215.651 187.03 216.916 183.485 216.617 179.736C215.722 168.502 201.33 158.383 198.454 156.469C193.79 153.364 191.647 148.453 189.165 142.767C186.026 135.573 182.119 126.62 171.51 117.418C153.611 101.893 131.869 107.064 120.906 116.084H120.905Z" fill="#3375E0"/>
<path d="M119.437 207.395C110.664 200.382 103.664 190.756 99.1934 178.698C87.6963 147.688 119.612 104.621 155.072 119.24C181.042 129.947 198.274 168.248 195.787 190.132C193.468 210.539 173.202 223.003 152.189 220.649C149.328 220.33 146.489 219.833 143.689 219.16" fill="white"/>
<path d="M157.338 222.053C155.591 222.053 153.832 221.955 152.066 221.758C149.159 221.433 146.275 220.928 143.43 220.245C143.149 220.171 142.907 219.989 142.758 219.738C142.608 219.488 142.563 219.188 142.631 218.904C142.699 218.62 142.875 218.374 143.121 218.219C143.368 218.064 143.665 218.012 143.95 218.075C146.704 218.736 149.498 219.226 152.313 219.539C173.918 221.959 192.527 208.986 194.684 190.005C195.894 179.354 192.23 164.415 185.121 151.019C177.154 136.008 166.334 125.088 154.651 120.272C140.417 114.404 125.424 117.669 113.516 129.232C99.8895 142.463 94.4288 162.644 100.237 178.309C104.541 189.918 111.234 199.411 120.131 206.521C120.246 206.612 120.343 206.725 120.415 206.853C120.487 206.982 120.533 207.123 120.55 207.27C120.567 207.416 120.555 207.564 120.515 207.706C120.475 207.848 120.407 207.98 120.315 208.095C120.224 208.211 120.111 208.306 119.982 208.378C119.854 208.449 119.712 208.494 119.567 208.51C119.421 208.526 119.273 208.512 119.132 208.471C118.991 208.429 118.86 208.36 118.746 208.267C109.529 200.9 102.601 191.082 98.1533 179.087C92.047 162.618 97.729 141.457 111.97 127.628C117.777 121.99 124.599 118.071 131.7 116.296C139.613 114.317 147.619 114.96 155.496 118.208C167.657 123.221 178.874 134.501 187.083 149.97C194.393 163.744 198.152 179.181 196.893 190.259C195.757 200.254 190.333 208.988 181.619 214.852C174.616 219.565 166.148 222.053 157.339 222.053H157.338Z" fill="#3375E0"/>
<path d="M140.25 122.179L118.59 116.644C129.736 106.059 153.403 100.238 172.237 116.574" fill="#3375E0"/>
<path d="M140.25 123.295C140.159 123.295 140.067 123.284 139.975 123.261L118.316 117.726C118.123 117.676 117.946 117.576 117.805 117.435C117.664 117.295 117.563 117.118 117.513 116.925C117.463 116.731 117.466 116.528 117.521 116.336C117.576 116.144 117.681 115.97 117.826 115.833C128.779 105.432 153.126 98.5235 172.964 115.729C173.074 115.825 173.165 115.942 173.23 116.073C173.296 116.204 173.335 116.347 173.346 116.493C173.356 116.639 173.338 116.786 173.292 116.925C173.246 117.064 173.174 117.193 173.078 117.304C172.983 117.415 172.866 117.505 172.736 117.571C172.605 117.637 172.463 117.676 172.318 117.687C172.172 117.698 172.026 117.679 171.887 117.633C171.749 117.587 171.621 117.514 171.51 117.418C153.61 101.893 131.869 107.064 120.905 116.084L140.523 121.098C140.786 121.165 141.015 121.325 141.168 121.55C141.321 121.775 141.386 122.048 141.353 122.317C141.319 122.587 141.189 122.836 140.986 123.016C140.783 123.196 140.521 123.295 140.25 123.295L140.25 123.295Z" fill="#3375E0"/>
<path d="M113.659 188.463C118.595 187.657 114.5 179.051 117.673 168.583C120.846 158.116 126.169 130.694 140.249 122.179C140.249 122.179 130.112 117.034 118.589 116.644C112.659 116.444 91.3626 121.896 85.4344 142.261C77.7672 168.598 86.0094 172.682 78.7734 189.576C68.13 214.425 87.0262 236.854 106.963 227.131C106.963 227.131 127.742 232.436 134.719 220.505C123.453 218.878 120.597 211.603 118.775 205.202C115.649 194.214 113.659 188.464 113.659 188.464V188.463Z" fill="#3375E0"/>
<path d="M97.3569 230.567C92.049 230.567 86.9758 228.528 82.8281 224.552C78.8317 220.721 76.069 215.322 75.0483 209.351C73.9373 202.849 74.8721 195.859 77.7519 189.135C81.1919 181.104 81.0385 176.17 80.8445 169.923C80.6355 163.2 80.3988 155.58 84.3673 141.948C90.3599 121.362 111.877 115.301 118.627 115.529C130.261 115.923 140.328 120.969 140.75 121.184C140.928 121.273 141.078 121.409 141.185 121.577C141.292 121.745 141.353 121.939 141.36 122.138C141.367 122.337 141.321 122.535 141.227 122.71C141.132 122.886 140.992 123.033 140.822 123.135C129.213 130.156 123.646 150.851 120.32 163.217C119.725 165.429 119.211 167.339 118.736 168.908C117.363 173.438 117.4 177.629 117.43 180.996C117.464 184.723 117.493 188.007 115.074 189.186C115.789 191.348 117.509 196.69 119.844 204.895C121.696 211.404 124.382 217.885 134.877 219.401C135.058 219.427 135.229 219.497 135.376 219.605C135.524 219.714 135.642 219.856 135.721 220.021C135.8 220.186 135.838 220.368 135.83 220.551C135.822 220.734 135.77 220.913 135.678 221.071C128.824 232.79 110.143 229.017 107.085 228.309C103.86 229.822 100.565 230.567 97.3566 230.567L97.3569 230.567ZM118.25 117.755C115.323 117.755 108.996 119.038 102.56 122.711C96.9384 125.918 89.5885 131.968 86.5015 142.574C82.6319 155.866 82.8628 163.297 83.0668 169.853C83.2613 176.119 83.4297 181.53 79.7946 190.017C74.5303 202.308 76.3238 215.23 84.3637 222.938C90.413 228.738 98.6805 229.93 106.477 226.128C106.713 226.013 106.982 225.985 107.236 226.05C107.428 226.098 125.588 230.583 132.836 221.304C121.519 218.906 119.058 210.257 117.707 205.508C114.627 194.684 112.629 188.887 112.609 188.83C112.556 188.676 112.537 188.512 112.553 188.35C112.569 188.188 112.621 188.032 112.704 187.892C112.787 187.752 112.9 187.632 113.034 187.541C113.168 187.449 113.32 187.388 113.481 187.362C115.116 187.095 115.247 185.502 115.208 181.016C115.176 177.497 115.137 173.116 116.609 168.259C117.075 166.723 117.584 164.829 118.175 162.635C121.427 150.542 126.769 130.685 137.974 122.368C134.615 120.928 126.911 118.043 118.552 117.76C118.451 117.757 118.351 117.755 118.25 117.755Z" fill="#3375E0"/>
<path d="M140.248 123.295C140.074 123.295 139.903 123.254 139.748 123.175C139.649 123.125 129.681 118.136 118.552 117.759C118.406 117.754 118.263 117.721 118.13 117.66C117.997 117.599 117.877 117.513 117.778 117.406C117.678 117.299 117.6 117.173 117.549 117.036C117.498 116.899 117.474 116.753 117.479 116.607C117.499 115.991 118.017 115.503 118.627 115.529C130.262 115.923 140.328 120.969 140.751 121.183C140.974 121.296 141.153 121.482 141.258 121.71C141.363 121.937 141.389 122.194 141.331 122.438C141.272 122.683 141.134 122.9 140.938 123.055C140.741 123.211 140.498 123.295 140.248 123.295ZM118.113 190.124C114.416 185.738 108.037 184.423 102.831 187.301C96.8933 190.584 94.7305 198.077 98.0001 204.038C101.27 209.998 108.734 212.17 114.671 208.887C116.69 207.775 118.356 206.112 119.474 204.091" fill="white"/>
<path d="M108.773 211.53C104.048 211.53 99.4618 209.017 97.0261 204.576C93.4661 198.086 95.8293 189.898 102.294 186.324C107.857 183.249 114.866 184.544 118.962 189.403C119.147 189.63 119.236 189.92 119.209 190.212C119.182 190.504 119.043 190.773 118.82 190.963C118.597 191.152 118.309 191.246 118.018 191.224C117.727 191.202 117.456 191.066 117.264 190.845C113.85 186.794 108.005 185.715 103.367 188.279C97.9757 191.26 96.0049 198.088 98.9733 203.5C101.943 208.912 108.744 210.891 114.134 207.91C115.97 206.898 117.484 205.387 118.502 203.549C118.572 203.419 118.667 203.303 118.781 203.209C118.895 203.116 119.027 203.046 119.169 203.004C119.31 202.962 119.459 202.949 119.605 202.965C119.752 202.982 119.894 203.027 120.023 203.099C120.152 203.171 120.266 203.268 120.357 203.384C120.448 203.501 120.515 203.634 120.555 203.777C120.594 203.92 120.604 204.069 120.586 204.216C120.567 204.363 120.519 204.505 120.445 204.633C119.224 206.837 117.409 208.651 115.207 209.865C113.237 210.957 111.023 211.53 108.773 211.53V211.53ZM143.788 172.676C146.622 170.03 149.842 168.316 153.821 166.427C156.372 165.216 155.497 162.173 151.266 161.761C147.289 161.374 140.899 165.15 139.723 169.108C138.496 173.238 141.476 174.835 143.788 172.676Z" fill="#3375E0"/>
<path d="M141.636 174.755C141.046 174.755 140.475 174.599 139.965 174.282C138.767 173.534 137.794 171.699 138.658 168.789C140.027 164.181 147.096 160.231 151.373 160.65C154.64 160.968 156.07 162.614 156.319 164.048C156.559 165.431 155.784 166.73 154.296 167.436C150.091 169.432 147.148 171.063 144.545 173.493C143.657 174.323 142.62 174.755 141.636 174.755ZM150.678 162.848C147.243 162.848 141.795 166.039 140.789 169.427C140.281 171.134 140.66 172.088 141.138 172.386C141.622 172.688 142.365 172.481 143.031 171.858C145.844 169.232 148.943 167.508 153.346 165.418C153.611 165.292 154.218 164.944 154.129 164.431C154.039 163.911 153.173 163.067 151.159 162.871C150.999 162.856 150.838 162.848 150.677 162.848L150.678 162.848ZM170.504 159.298C174.114 157.9 177.739 157.511 182.132 157.243C184.949 157.072 185.264 153.92 181.489 151.958C177.941 150.113 170.61 151.232 168.052 154.468C165.383 157.844 167.557 160.439 170.504 159.298Z" fill="#3375E0"/>
<path d="M169.138 160.685C167.999 160.685 166.993 160.227 166.36 159.362C165.524 158.22 165.301 156.153 167.181 153.775C170.159 150.008 178.183 148.983 181.999 150.967C184.914 152.482 185.632 154.543 185.332 155.968C185.042 157.342 183.842 158.258 182.199 158.358C177.556 158.641 174.219 159.056 170.904 160.339C170.303 160.572 169.704 160.685 169.138 160.685H169.138ZM170.104 158.257C173.688 156.869 177.203 156.426 182.064 156.13C182.357 156.112 183.049 156.015 183.157 155.506C183.266 154.989 182.775 153.883 180.977 152.949C177.96 151.38 171.217 152.26 168.922 155.162C167.819 156.558 167.817 157.584 168.151 158.04C168.488 158.5 169.254 158.585 170.104 158.257Z" fill="#3375E0"/>
<path d="M154.301 178.063C155.599 177.561 156.168 175.897 155.573 174.346C154.978 172.794 153.444 171.944 152.146 172.445C150.848 172.947 150.278 174.612 150.873 176.163C151.469 177.714 153.003 178.565 154.301 178.063Z" fill="#3375E0"/>
<path d="M179.17 169.052C180.468 168.55 181.038 166.886 180.443 165.334C179.847 163.783 178.313 162.932 177.015 163.434C175.717 163.936 175.147 165.6 175.743 167.152C176.338 168.703 177.872 169.554 179.17 169.052Z" fill="#3375E0"/>
<path d="M157.134 198.141C153.158 198.141 149.684 196.208 147.679 193.491C147.506 193.253 147.435 192.956 147.479 192.665C147.523 192.374 147.68 192.112 147.916 191.937C148.152 191.762 148.447 191.687 148.737 191.729C149.027 191.771 149.289 191.927 149.465 192.162C151.949 195.527 157.258 197.383 162.599 194.421C162.727 194.35 162.867 194.305 163.012 194.288C163.158 194.272 163.304 194.284 163.445 194.325C163.585 194.365 163.716 194.433 163.83 194.525C163.944 194.616 164.039 194.729 164.11 194.857C164.18 194.986 164.225 195.127 164.242 195.272C164.258 195.418 164.246 195.565 164.205 195.706C164.165 195.847 164.097 195.978 164.006 196.093C163.915 196.208 163.802 196.303 163.675 196.374C161.45 197.608 159.223 198.142 157.135 198.142L157.134 198.141ZM112.484 201.988C112.339 201.988 112.196 201.96 112.062 201.905L104.538 198.806C104.265 198.694 104.048 198.477 103.934 198.204C103.82 197.931 103.819 197.624 103.931 197.35C103.986 197.214 104.067 197.091 104.17 196.987C104.273 196.883 104.395 196.8 104.53 196.744C104.665 196.687 104.809 196.658 104.955 196.657C105.101 196.657 105.246 196.685 105.381 196.741L112.906 199.84C113.144 199.938 113.34 200.116 113.462 200.344C113.584 200.571 113.623 200.834 113.573 201.088C113.523 201.341 113.388 201.57 113.189 201.734C112.99 201.898 112.741 201.988 112.484 201.988Z" fill="#3375E0"/>
<path d="M107.356 204.823C107.182 204.823 107.011 204.782 106.856 204.704C106.701 204.626 106.566 204.512 106.462 204.371C106.359 204.231 106.29 204.069 106.26 203.897C106.231 203.725 106.242 203.548 106.293 203.381L108.943 194.658C108.985 194.518 109.055 194.387 109.148 194.274C109.24 194.161 109.354 194.067 109.483 193.998C109.612 193.929 109.753 193.887 109.898 193.873C110.044 193.858 110.19 193.873 110.33 193.916C110.47 193.959 110.6 194.029 110.712 194.122C110.825 194.215 110.918 194.329 110.987 194.459C111.055 194.588 111.098 194.73 111.112 194.876C111.126 195.021 111.112 195.169 111.069 195.309L108.419 204.033C108.349 204.261 108.209 204.462 108.017 204.604C107.826 204.746 107.594 204.823 107.356 204.823ZM127.862 130.378C117.476 132.237 111.384 144.736 114.367 159.323C116.567 170.082 132.878 165.47 132.292 154.133C131.931 147.155 133.974 136.861 133.974 136.861C133.974 136.861 138.45 147.28 141.427 149.641C146.708 153.828 164.083 145.081 164.399 139.496C164.609 135.792 158.77 127.426 158.77 127.426C158.77 127.426 170.664 137.863 174.346 138.836C178.215 139.858 182.799 135.79 179.513 129.405C174.338 119.351 157.943 109.647 151.898 119.529C140.563 117.217 131.801 119.497 127.862 130.377L127.862 130.378Z" fill="#3375E0"/>
<path d="M121.596 166.53C117.365 166.53 114.169 163.901 113.278 159.548C111.51 150.902 112.779 142.563 116.759 136.671C119.362 132.817 122.906 130.316 127.039 129.405C130.854 119.568 138.826 115.928 151.382 118.292C153.341 115.541 156.261 114.164 159.87 114.296C167.119 114.565 176.566 121.25 180.501 128.894C182.228 132.25 182.166 135.493 180.332 137.792C178.818 139.688 176.357 140.521 174.063 139.916C171.798 139.317 167.028 135.721 163.258 132.664C164.525 135.085 165.612 137.737 165.509 139.56C165.306 143.142 159.988 147.107 154.808 149.446C152.503 150.487 144.677 153.641 140.738 150.517C138.652 148.863 136.07 143.968 134.457 140.598C133.896 144.183 133.182 149.805 133.402 154.076C133.756 160.933 128.381 165.747 122.98 166.44C122.508 166.5 122.046 166.53 121.596 166.53ZM144.508 119.822C136.604 119.822 131.574 123.391 128.907 130.759C128.84 130.943 128.727 131.106 128.578 131.232C128.428 131.358 128.249 131.442 128.057 131.477C124.259 132.157 120.988 134.386 118.599 137.924C114.953 143.321 113.808 151.039 115.456 159.099C116.576 164.575 121.283 164.408 122.698 164.225C127.094 163.661 131.469 159.754 131.182 154.191C130.818 147.155 132.799 137.069 132.884 136.643C132.93 136.41 133.049 136.197 133.225 136.037C133.4 135.877 133.621 135.776 133.857 135.751C134.093 135.726 134.33 135.778 134.535 135.898C134.74 136.018 134.901 136.201 134.995 136.419C136.209 139.246 139.856 146.973 142.116 148.766C144.022 150.277 148.756 149.732 153.896 147.41C159.042 145.086 163.168 141.582 163.29 139.433C163.426 137.019 160.032 131.18 157.86 128.067C157.703 127.843 157.634 127.57 157.665 127.299C157.695 127.028 157.824 126.777 158.026 126.595C158.229 126.413 158.491 126.311 158.762 126.309C159.034 126.308 159.297 126.406 159.502 126.586C164.204 130.712 172.114 137.092 174.629 137.756C176.074 138.138 177.632 137.605 178.597 136.396C179.858 134.816 179.832 132.455 178.526 129.918C174.977 123.022 166.221 116.765 159.788 116.526C156.712 116.412 154.371 117.619 152.845 120.113C152.726 120.308 152.55 120.462 152.341 120.553C152.132 120.644 151.9 120.669 151.677 120.623C149.064 120.09 146.678 119.821 144.509 119.821L144.508 119.822Z" fill="#3375E0"/>
<path d="M118.179 165.762C118.009 165.762 117.841 165.722 117.689 165.647C116.084 164.854 114.016 163.153 113.279 159.547C111.511 150.902 112.78 142.563 116.759 136.671C119.362 132.817 122.907 130.316 127.04 129.405C130.855 119.568 138.827 115.928 151.383 118.292C153.342 115.541 156.262 114.164 159.871 114.296C167.119 114.565 176.567 121.25 180.501 128.894C183.081 133.906 181.273 137.51 178.941 139.073C178.695 139.23 178.398 139.285 178.114 139.225C177.829 139.165 177.579 138.995 177.417 138.752C177.255 138.509 177.195 138.212 177.249 137.925C177.303 137.638 177.467 137.384 177.706 137.217C179.351 136.114 180.431 133.618 178.526 129.918C174.977 123.023 166.221 116.765 159.789 116.527C156.713 116.413 154.371 117.62 152.845 120.114C152.726 120.309 152.55 120.462 152.341 120.553C152.132 120.645 151.9 120.669 151.677 120.624C139.541 118.148 132.307 121.37 128.907 130.76C128.841 130.943 128.727 131.107 128.578 131.232C128.429 131.358 128.249 131.443 128.058 131.477C124.259 132.157 120.989 134.386 118.599 137.924C114.953 143.321 113.808 151.039 115.456 159.099C115.897 161.252 117.008 162.824 118.669 163.644C118.895 163.756 119.076 163.94 119.184 164.168C119.291 164.396 119.319 164.654 119.262 164.899C119.205 165.145 119.066 165.364 118.87 165.52C118.673 165.677 118.429 165.762 118.178 165.762H118.179ZM106.965 228.247C106.899 228.247 106.832 228.242 106.764 228.229C97.5962 226.551 93.7911 217.492 93.6336 217.107C93.5269 216.835 93.5313 216.531 93.6459 216.261C93.7605 215.992 93.976 215.778 94.246 215.667C94.516 215.556 94.8188 215.555 95.089 215.666C95.3592 215.777 95.5751 215.99 95.6902 216.259C95.7238 216.341 99.2088 224.578 107.163 226.034C107.436 226.084 107.68 226.234 107.848 226.456C108.016 226.677 108.095 226.954 108.07 227.231C108.046 227.509 107.918 227.767 107.714 227.955C107.509 228.143 107.242 228.247 106.965 228.247ZM182.215 354.856C182.251 369.171 190 381.818 208.605 390.867L195.499 401.995C177.921 395.8 169.125 381.818 169.804 365.468L182.215 354.856Z" fill="white"/>
<path d="M195.498 403.111C195.373 403.111 195.248 403.089 195.13 403.048C186.443 399.986 179.443 394.841 174.888 388.17C170.484 381.722 168.342 373.856 168.692 365.421C168.699 365.268 168.737 365.117 168.804 364.979C168.871 364.841 168.965 364.718 169.082 364.618L181.493 354.007C181.655 353.868 181.852 353.779 182.062 353.75C182.272 353.721 182.486 353.753 182.679 353.842C182.872 353.931 183.035 354.074 183.15 354.253C183.264 354.432 183.325 354.64 183.326 354.853C183.364 369.787 192.032 381.566 209.089 389.862C209.255 389.944 209.399 390.065 209.507 390.216C209.615 390.367 209.683 390.543 209.707 390.727C209.73 390.912 209.707 391.099 209.64 391.272C209.572 391.445 209.463 391.599 209.322 391.719L196.216 402.847C196.015 403.017 195.761 403.111 195.498 403.111ZM170.896 365.999C170.404 382.245 179.257 394.854 195.27 400.727L206.596 391.11C190.585 382.896 182.045 371.506 181.176 357.21L170.896 365.999Z" fill="#3375E0"/>
</g>
<g clip-path="url(#clip3_5360_20916)">
<path d="M412.512 92.7026C413.642 95.6564 403.268 99.654 402.138 96.7001L390.809 75.4008C388.377 70.8295 390.486 65.1538 395.307 63.2963C400.127 61.4387 405.48 64.2389 406.722 69.2683L412.512 92.7026Z" fill="white"/>
<path d="M404.361 98.8543C402.88 98.8543 401.634 98.3967 401.126 97.1745L389.824 75.9283C388.515 73.4662 388.321 70.5546 389.293 67.94C390.265 65.3254 392.311 63.252 394.907 62.2515C396.191 61.7572 397.565 61.5422 398.938 61.6208C400.311 61.6994 401.652 62.0698 402.872 62.7074C404.091 63.3457 405.162 64.2367 406.012 65.3214C406.863 66.4061 407.474 67.6598 407.805 68.9994L413.58 92.3771C413.816 93.0603 413.912 94.3539 412.269 95.8246C411.367 96.6324 410.054 97.3914 408.572 97.9623C407.224 98.4818 405.696 98.8543 404.361 98.8546L404.361 98.8543ZM398.385 63.8431C397.479 63.8431 396.571 64.0083 395.706 64.3413C394.718 64.7225 393.821 65.3101 393.076 66.0653C392.331 66.8204 391.754 67.7259 391.384 68.7217C391.014 69.7177 390.859 70.7812 390.929 71.8417C391 72.9023 391.294 73.9357 391.793 74.8735L403.122 96.1725C403.144 96.2134 403.163 96.2554 403.18 96.2985C403.242 96.4597 403.683 96.6198 404.389 96.6172C405.321 96.6125 406.554 96.3407 407.772 95.8714C410.344 94.8803 411.628 93.5159 411.47 93.1034C411.454 93.0602 411.44 93.0161 411.429 92.9713L405.639 69.537C405.238 67.9111 404.305 66.467 402.99 65.435C401.676 64.4029 400.054 63.8423 398.385 63.8426V63.8431Z" fill="#3375E0"/>
<path d="M385.622 156.07C397.298 157.142 401.165 114.714 389.49 113.642C377.815 112.571 367.485 121.199 366.417 132.915C365.349 144.632 373.947 154.998 385.622 156.07Z" fill="#A8CFFB"/>
<path d="M386.075 157.211C385.892 157.211 385.707 157.202 385.52 157.185C379.577 156.639 374.201 153.804 370.383 149.201C366.565 144.597 364.761 138.778 365.305 132.813C365.849 126.849 368.674 121.455 373.261 117.623C377.849 113.791 383.648 111.982 389.591 112.527C391.831 112.733 394.853 114.298 396.53 120.585C397.624 124.686 397.941 130.076 397.423 135.762C396.438 146.571 392.557 157.21 386.075 157.21V157.211ZM387.52 114.671C382.833 114.671 378.336 116.298 374.689 119.344C370.56 122.793 368.016 127.649 367.527 133.017C367.038 138.386 368.661 143.625 372.098 147.768C375.535 151.912 380.374 154.464 385.723 154.955C388.5 155.211 390.553 152.163 391.786 149.563C393.493 145.961 394.706 140.988 395.201 135.558C395.696 130.129 395.403 125.017 394.375 121.164C393.633 118.382 392.165 115.012 389.388 114.757C388.767 114.7 388.144 114.672 387.52 114.671Z" fill="#3375E0"/>
<path d="M462.73 90.0926L431.031 87.1826C403.948 84.6963 379.984 104.713 377.506 131.892C375.028 159.07 394.975 183.118 422.059 185.605L453.757 188.515C480.841 191.001 504.805 170.984 507.283 143.806C509.76 116.627 489.813 92.579 462.73 90.0926Z" fill="#A8CFFB"/>
<path d="M458.287 189.842C456.741 189.842 455.196 189.771 453.656 189.629L421.958 186.719C408.616 185.495 396.516 179.09 387.886 168.685C379.256 158.281 375.175 145.177 376.395 131.789C377.616 118.401 383.998 106.259 394.367 97.598C404.735 88.9374 417.792 84.8422 431.134 86.0672L462.832 88.9771C476.174 90.2019 488.274 96.6063 496.904 107.011C505.534 117.416 509.615 130.519 508.395 143.907C507.174 157.295 500.792 169.438 490.424 178.098C481.259 185.754 469.993 189.842 458.287 189.842V189.842ZM426.507 88.0941C415.321 88.0941 404.554 92.0018 395.794 99.3192C385.883 107.597 379.784 119.201 378.617 131.994C377.451 144.786 381.352 157.308 389.601 167.253C397.85 177.198 409.413 183.32 422.161 184.49L453.86 187.4C466.609 188.57 479.086 184.656 488.996 176.378C498.906 168.1 505.006 156.496 506.172 143.703C508.59 117.183 489.056 93.6332 462.629 91.2072L430.93 88.2973C429.46 88.1621 427.984 88.0943 426.507 88.0941Z" fill="#3375E0"/>
<path d="M447.161 166.358L412.266 163.155C397.008 161.754 385.666 148.08 387.061 132.768C388.076 121.646 395.543 112.597 405.402 109.015C410.673 107.1 416.419 109.872 418.394 115.137C419.737 118.718 422.669 122.325 428.982 122.905C436.141 123.562 442.424 119.845 446.649 116.341C451.918 111.97 459.438 111.442 465.119 115.26C473.338 120.782 478.401 130.536 477.441 141.065C476.045 156.377 462.419 167.759 447.161 166.358L447.161 166.358Z" fill="white"/>
<path d="M449.724 167.595C448.84 167.595 447.951 167.555 447.06 167.473L412.165 164.27C404.489 163.565 397.527 159.88 392.562 153.895C387.597 147.909 385.249 140.37 385.951 132.667C386.969 121.499 394.455 111.802 405.023 107.962C410.784 105.869 417.252 108.91 419.439 114.743C421.027 118.977 424.272 121.348 429.084 121.79C435.964 122.421 442.047 118.706 445.939 115.478C451.607 110.776 459.75 110.304 465.741 114.329C474.609 120.288 479.519 130.572 478.553 141.167C477.851 148.871 474.179 155.857 468.214 160.84C462.942 165.244 456.46 167.596 449.725 167.596L449.724 167.595ZM408.782 109.539C407.782 109.539 406.769 109.709 405.782 110.068C396.025 113.613 389.113 122.563 388.173 132.871C387.525 139.978 389.693 146.936 394.277 152.462C398.86 157.988 405.285 161.39 412.368 162.04L447.263 165.244C454.347 165.894 461.28 163.719 466.786 159.119C472.293 154.519 475.683 148.071 476.331 140.964C477.222 131.185 472.689 121.692 464.499 116.19C459.322 112.711 452.274 113.128 447.36 117.204C443.145 120.7 436.519 124.721 428.881 124.02C421.736 123.364 418.667 119.042 417.351 115.532C415.968 111.843 412.463 109.539 408.782 109.539Z" fill="#3375E0"/>
<path d="M495.234 109.537C492.888 111.652 485.463 103.356 487.809 101.242L503.588 83.0159C506.975 79.1044 513.011 79.0543 516.461 82.909C519.912 86.7641 519.217 92.7812 514.979 95.742L495.234 109.538V109.537Z" fill="white"/>
<path d="M494.302 111.007C492.546 111.007 490.458 109.427 488.933 107.723C487.872 106.538 487.047 105.263 486.61 104.132C485.814 102.072 486.486 100.965 487.005 100.463L502.746 82.2812C503.649 81.2395 504.761 80.4021 506.01 79.8244C507.259 79.2467 508.617 78.9419 509.992 78.9302C512.764 78.9006 515.433 80.0847 517.292 82.1606C519.15 84.2365 520.032 87.0171 519.712 89.7893C519.392 92.5615 517.899 95.0658 515.617 96.6603L495.921 110.421C495.441 110.829 494.89 111.007 494.302 111.007V111.007ZM510.072 81.169H510.01C508.951 81.178 507.906 81.4127 506.944 81.8576C505.982 82.3025 505.125 82.9475 504.43 83.7497L488.651 101.976C488.621 102.011 488.589 102.044 488.554 102.074C488.226 102.37 488.751 104.171 490.592 106.227C491.464 107.201 492.439 108.006 493.267 108.436C493.9 108.764 494.361 108.82 494.489 108.704C494.523 108.673 494.559 108.644 494.597 108.618L514.342 94.8226C516.099 93.5945 517.249 91.6661 517.495 89.5312C517.742 87.3963 517.062 85.2552 515.631 83.6565C514.93 82.8737 514.073 82.2477 513.115 81.819C512.157 81.3904 511.12 81.1687 510.071 81.1684L510.072 81.169Z" fill="#3375E0"/>
<path d="M502.752 166.823C491.077 165.751 494.945 123.323 506.62 124.395C518.295 125.467 526.894 135.833 525.826 147.549C524.758 159.265 514.427 167.894 502.752 166.823Z" fill="#A8CFFB"/>
<path d="M504.726 168.033C504.037 168.033 503.345 168.001 502.651 167.938C500.411 167.732 497.389 166.167 495.712 159.88C494.618 155.779 494.301 150.388 494.819 144.703C495.832 133.589 499.906 122.652 506.722 123.28C518.991 124.406 528.06 135.339 526.937 147.651C526.393 153.616 523.568 159.01 518.981 162.842C514.93 166.226 509.932 168.033 504.726 168.033ZM506.195 125.495C501.396 125.495 497.91 135.376 497.041 144.907C496.546 150.336 496.839 155.448 497.867 159.301C498.609 162.083 500.077 165.453 502.854 165.708C508.203 166.199 513.424 164.57 517.553 161.121C521.682 157.672 524.225 152.816 524.715 147.448C525.204 142.079 523.581 136.841 520.144 132.697C516.707 128.554 511.868 126.001 506.519 125.51C506.411 125.5 506.303 125.495 506.195 125.495Z" fill="#3375E0"/>
<path d="M407.566 131.335C407.708 129.784 406.77 128.431 405.472 128.312C404.174 128.193 403.008 129.353 402.866 130.903C402.725 132.454 403.662 133.808 404.96 133.927C406.258 134.046 407.425 132.885 407.566 131.335Z" fill="#3375E0"/>
<path d="M454.565 135.649C454.707 134.099 453.769 132.745 452.471 132.626C451.173 132.507 450.007 133.667 449.865 135.218C449.724 136.768 450.661 138.122 451.959 138.241C453.257 138.36 454.424 137.2 454.565 135.649Z" fill="#3375E0"/>
<path d="M436.625 144.533C436.281 148.302 432.035 150.993 427.142 150.544C422.248 150.094 418.559 146.675 418.903 142.906L436.625 144.533Z" fill="#3375E0"/>
<path d="M428.194 151.711C427.814 151.711 427.429 151.694 427.04 151.658C424.43 151.419 422.037 150.401 420.301 148.792C418.484 147.108 417.594 144.981 417.792 142.804C417.819 142.508 417.962 142.235 418.189 142.045C418.417 141.856 418.71 141.764 419.005 141.791L436.726 143.418C437.021 143.445 437.292 143.588 437.482 143.816C437.671 144.044 437.762 144.339 437.736 144.634C437.365 148.702 433.194 151.711 428.194 151.711ZM420.062 144.136C420.253 145.214 420.853 146.255 421.815 147.147C423.192 148.423 425.12 149.234 427.243 149.428C431 149.774 434.32 148.083 435.264 145.532L420.062 144.136Z" fill="#3375E0"/>
<path d="M512.562 125.826C510.66 125.064 508.659 124.582 506.62 124.395C494.945 123.323 491.077 165.751 502.752 166.823C504.49 166.982 506.241 166.927 507.965 166.658C502.767 154.824 505.259 135.157 512.562 125.826Z" fill="white"/>
<path d="M504.691 168.031C504.01 168.031 503.329 168 502.65 167.938C500.951 167.781 498.558 166.797 496.808 162.992C492.745 154.158 494.489 135.027 500.082 127.08C502.491 123.657 505.023 123.125 506.721 123.28C508.867 123.477 510.974 123.985 512.975 124.786C513.136 124.851 513.28 124.952 513.396 125.082C513.511 125.212 513.595 125.367 513.64 125.535C513.685 125.704 513.69 125.88 513.655 126.05C513.62 126.221 513.546 126.381 513.439 126.518C506.233 135.725 504.069 155.013 508.986 166.206C509.055 166.363 509.087 166.534 509.08 166.706C509.072 166.877 509.026 167.045 508.944 167.195C508.862 167.346 508.746 167.475 508.606 167.574C508.466 167.673 508.306 167.738 508.137 167.764C506.997 167.942 505.845 168.031 504.691 168.031L504.691 168.031ZM506.193 125.495C504.69 125.495 503.249 126.461 501.905 128.371C496.764 135.676 495.1 153.934 498.834 162.054C499.881 164.33 501.233 165.559 502.854 165.708C504.028 165.816 505.209 165.82 506.382 165.721C504.283 160.097 503.585 152.712 504.468 145.173C505.335 137.774 507.611 131.029 510.78 126.374C509.395 125.933 507.966 125.643 506.518 125.51C506.41 125.5 506.302 125.495 506.193 125.495Z" fill="#3375E0"/>
</g>
<g clip-path="url(#clip4_5360_20916)">
<path d="M426.441 368.014H229.013C227.805 368.014 226.826 368.996 226.826 370.208V373.006C226.826 374.218 227.805 375.2 229.013 375.2H426.441C427.648 375.2 428.627 374.218 428.627 373.006V370.208C428.627 368.996 427.648 368.014 426.441 368.014Z" fill="#3375E0"/>
<path d="M426.441 376.32H229.013C227.192 376.32 225.711 374.833 225.711 373.006V370.208C225.711 368.381 227.192 366.895 229.013 366.895H426.441C428.262 366.895 429.743 368.381 429.743 370.208V373.006C429.743 374.833 428.262 376.32 426.441 376.32ZM229.013 369.134C228.729 369.134 228.457 369.247 228.256 369.449C228.055 369.65 227.942 369.923 227.942 370.208V373.006C227.942 373.291 228.055 373.564 228.256 373.766C228.457 373.967 228.729 374.081 229.013 374.081H426.441C426.725 374.081 426.997 373.967 427.198 373.766C427.399 373.564 427.512 373.291 427.512 373.006V370.208C427.512 369.923 427.399 369.65 427.198 369.449C426.997 369.247 426.725 369.134 426.441 369.134H229.013Z" fill="#3375E0"/>
<path d="M425.24 370.574H298.901C294.32 370.574 292.099 366.964 293.94 362.509L327.377 281.624C329.218 277.17 334.425 273.56 339.006 273.56H465.345C469.926 273.56 472.147 277.17 470.305 281.624L436.869 362.509C435.027 366.964 429.821 370.574 425.24 370.574Z" fill="#3375E0"/>
<path d="M425.239 371.694H298.9C296.374 371.694 294.339 370.726 293.17 368.969C291.952 367.138 291.856 364.626 292.909 362.08L326.346 281.195C328.375 276.286 333.936 272.44 339.005 272.44H465.344C467.87 272.44 469.905 273.407 471.074 275.165C472.293 276.996 472.388 279.507 471.335 282.053L437.899 362.938C435.869 367.848 430.308 371.694 425.239 371.694ZM339.005 274.679C334.842 274.679 330.088 277.987 328.407 282.054L294.97 362.939C294.197 364.809 294.217 366.509 295.026 367.726C295.768 368.841 297.144 369.455 298.9 369.455H425.239C429.402 369.455 434.157 366.147 435.838 362.08L469.274 281.195C470.047 279.325 470.028 277.624 469.218 276.408C468.476 275.293 467.1 274.679 465.344 274.679H339.005Z" fill="#3375E0"/>
<path d="M425.239 371.694H298.9C296.086 371.694 293.868 370.475 292.813 368.35C292.683 368.084 292.664 367.779 292.758 367.499C292.853 367.219 293.054 366.988 293.317 366.856C293.581 366.725 293.885 366.703 294.165 366.795C294.444 366.888 294.676 367.088 294.809 367.351C295.483 368.708 296.936 369.455 298.9 369.455H425.239C426.233 369.455 427.283 369.263 428.361 368.884C428.64 368.786 428.947 368.803 429.213 368.932C429.48 369.06 429.685 369.29 429.783 369.57C429.88 369.851 429.863 370.158 429.735 370.426C429.607 370.694 429.378 370.899 429.099 370.997C427.783 371.459 426.485 371.694 425.239 371.694V371.694Z" fill="white"/>
</g>
<g clip-path="url(#clip5_5360_20916)">
<path d="M209.537 338.348C220.167 334.097 228.442 334.693 235.049 338.879C240.331 342.226 243.863 350.162 238.517 351.228C233.17 352.294 228.939 353.204 224.364 352.675" fill="white"/>
<path d="M227.128 353.948C226.174 353.948 225.215 353.897 224.234 353.784C223.938 353.749 223.667 353.6 223.483 353.368C223.298 353.136 223.213 352.84 223.248 352.546C223.265 352.401 223.31 352.26 223.382 352.132C223.454 352.004 223.551 351.891 223.666 351.8C223.782 351.709 223.915 351.642 224.057 351.602C224.199 351.562 224.347 351.55 224.494 351.567C228.695 352.053 232.629 351.266 237.611 350.27L238.295 350.134C239.618 349.87 239.903 349.143 240.001 348.619C240.412 346.439 238.074 342.12 234.444 339.82C227.785 335.6 219.775 335.457 209.957 339.383C209.82 339.438 209.673 339.465 209.526 339.464C209.378 339.462 209.232 339.432 209.097 339.375C208.961 339.317 208.838 339.234 208.734 339.129C208.631 339.024 208.55 338.901 208.494 338.765C208.439 338.629 208.412 338.483 208.413 338.337C208.415 338.19 208.445 338.046 208.503 337.911C208.561 337.776 208.645 337.654 208.75 337.551C208.855 337.448 208.98 337.367 209.117 337.313C219.657 333.098 228.337 333.303 235.653 337.938C239.84 340.592 242.843 345.671 242.21 349.03C241.882 350.772 240.649 351.941 238.737 352.322L238.054 352.458C233.993 353.27 230.601 353.948 227.128 353.948Z" fill="#3375E0"/>
<path d="M219.208 348.42C225.835 345.729 234.729 344.458 239.111 350.055C243.007 355.03 243.932 362.331 240.915 364.226C237.715 366.237 224.723 365.355 224.723 365.355" fill="white"/>
<path d="M230.844 366.671C227.821 366.671 225.237 366.509 224.647 366.469C224.35 366.449 224.073 366.312 223.877 366.089C223.681 365.866 223.583 365.575 223.603 365.28C223.624 364.985 223.761 364.71 223.986 364.515C224.21 364.321 224.503 364.223 224.8 364.242C229.682 364.573 238.211 364.606 240.314 363.284C241.042 362.826 241.347 361.867 241.474 361.144C241.92 358.606 240.947 354.217 238.224 350.74C234.353 345.796 226.083 346.834 219.634 349.453C219.497 349.51 219.349 349.541 219.201 349.541C219.052 349.542 218.904 349.514 218.766 349.458C218.629 349.401 218.504 349.318 218.399 349.214C218.293 349.109 218.21 348.985 218.154 348.848C218.098 348.711 218.069 348.565 218.07 348.417C218.072 348.269 218.102 348.123 218.161 347.987C218.219 347.851 218.304 347.728 218.411 347.625C218.518 347.522 218.644 347.441 218.783 347.387C222.283 345.966 234.156 341.908 239.999 349.37C242.801 352.948 244.318 357.947 243.688 361.528C243.394 363.202 242.643 364.462 241.516 365.169C239.576 366.389 234.829 366.671 230.844 366.671Z" fill="#3375E0"/>
<path d="M220.945 362.434C226.981 360.352 237.095 356.794 242.233 363.512C246.705 369.359 245.303 374.213 245.303 374.213C236.198 374.213 233.228 376.422 225.034 380.244" fill="white"/>
<path d="M225.036 381.36C224.78 381.36 224.533 381.273 224.334 381.115C224.134 380.956 223.996 380.735 223.94 380.487C223.884 380.24 223.915 379.981 224.027 379.753C224.139 379.526 224.326 379.343 224.557 379.234C225.68 378.709 226.799 378.175 227.914 377.633C233.533 374.919 237.015 373.237 244.356 373.105C244.505 371.61 244.401 368.191 241.338 364.187C236.735 358.168 227.173 361.467 221.46 363.437L221.314 363.488C221.175 363.537 221.027 363.557 220.879 363.549C220.731 363.541 220.587 363.504 220.453 363.44C220.32 363.377 220.201 363.287 220.102 363.178C220.004 363.068 219.928 362.94 219.88 362.801C219.831 362.663 219.811 362.516 219.819 362.369C219.828 362.222 219.866 362.079 219.931 361.947C219.996 361.815 220.086 361.696 220.197 361.599C220.308 361.502 220.437 361.427 220.577 361.38L220.723 361.329C227.012 359.16 237.538 355.529 243.128 362.837C247.886 369.058 246.447 374.3 246.384 374.52C246.317 374.753 246.175 374.958 245.98 375.103C245.785 375.249 245.548 375.328 245.304 375.328C237.822 375.328 234.651 376.859 228.897 379.639C227.773 380.185 226.645 380.724 225.513 381.254C225.358 381.326 225.196 381.36 225.036 381.36V381.36Z" fill="#3375E0"/>
</g>
<g clip-path="url(#clip6_5360_20916)">
<path d="M425.202 198.799H412.144L416.494 178.076L392.585 198.799H315.822C312.743 198.799 310.247 201.297 310.247 204.379V243.344C310.247 246.426 312.743 248.924 315.822 248.924H425.202C428.281 248.924 430.777 246.426 430.777 243.344V204.379C430.777 201.297 428.281 198.799 425.202 198.799Z" fill="white"/>
<path d="M425.202 250.04H315.822C312.133 250.04 309.132 247.036 309.132 243.344V204.379C309.132 200.686 312.133 197.683 315.822 197.683H392.169L415.764 177.232C415.941 177.079 416.16 176.986 416.393 176.965C416.625 176.943 416.859 176.996 417.06 177.114C417.261 177.233 417.42 177.411 417.514 177.625C417.608 177.839 417.633 178.077 417.585 178.305L413.517 197.683H425.202C428.89 197.683 431.892 200.686 431.892 204.379V243.344C431.892 247.036 428.89 250.04 425.202 250.04ZM315.822 199.915C313.363 199.915 311.362 201.917 311.362 204.379V243.344C311.362 245.805 313.363 247.808 315.822 247.808H425.202C427.661 247.808 429.662 245.805 429.662 243.344V204.379C429.662 201.917 427.661 199.915 425.202 199.915H412.144C411.978 199.915 411.814 199.878 411.664 199.807C411.514 199.735 411.382 199.631 411.278 199.502C411.173 199.373 411.099 199.223 411.06 199.061C411.021 198.9 411.018 198.732 411.053 198.569L414.722 181.088L393.314 199.642C393.112 199.818 392.853 199.915 392.584 199.915H315.822Z" fill="#3375E0"/>
<path d="M417.793 211.582H370.512C370.216 211.582 369.933 211.464 369.724 211.255C369.515 211.045 369.397 210.762 369.397 210.466C369.397 210.17 369.515 209.886 369.724 209.676C369.933 209.467 370.216 209.35 370.512 209.35H417.793C418.089 209.35 418.372 209.467 418.582 209.676C418.791 209.886 418.908 210.17 418.908 210.466C418.908 210.762 418.791 211.045 418.582 211.255C418.372 211.464 418.089 211.582 417.793 211.582ZM354.934 211.582H323.231C322.936 211.582 322.652 211.464 322.443 211.255C322.234 211.045 322.116 210.762 322.116 210.466C322.116 210.17 322.234 209.886 322.443 209.676C322.652 209.467 322.936 209.35 323.231 209.35H354.934C355.23 209.35 355.513 209.467 355.722 209.676C355.931 209.886 356.049 210.17 356.049 210.466C356.049 210.762 355.931 211.045 355.722 211.255C355.513 211.464 355.229 211.582 354.934 211.582ZM417.793 224.977H323.231C322.936 224.977 322.652 224.86 322.443 224.651C322.234 224.441 322.116 224.157 322.116 223.861C322.116 223.565 322.234 223.282 322.443 223.072C322.652 222.863 322.936 222.745 323.231 222.745H417.793C418.089 222.745 418.373 222.863 418.582 223.072C418.791 223.282 418.908 223.565 418.908 223.861C418.908 224.157 418.791 224.441 418.582 224.651C418.373 224.86 418.089 224.977 417.793 224.977H417.793ZM397.373 238.373H323.231C322.936 238.373 322.652 238.256 322.443 238.046C322.234 237.837 322.116 237.553 322.116 237.257C322.116 236.961 322.234 236.677 322.443 236.468C322.652 236.259 322.936 236.141 323.231 236.141H397.373C397.668 236.141 397.952 236.259 398.161 236.468C398.37 236.677 398.488 236.961 398.488 237.257C398.488 237.553 398.37 237.837 398.161 238.046C397.952 238.256 397.668 238.373 397.373 238.373Z" fill="#3375E0"/>
</g>
<g clip-path="url(#clip7_5360_20916)">
<path d="M235.489 92.5643C235.96 81.158 250.539 76.3891 259.879 80.9821C265.84 83.5641 269.136 90.9315 266.15 96.6951C264.013 101.132 258.667 103.57 255.432 108.277C254.154 110.83 254.783 115.126 250.637 114.998C244.322 114.712 246.761 105.504 249.747 102.653C251.842 100.158 256.284 97.2787 257.893 94.4388C260.084 90.3219 256.283 85.7123 251.748 85.9864C249.419 85.9864 247.704 86.574 246.604 87.7497C245.503 88.9254 244.571 90.6571 243.809 92.9449C242.652 98.1837 235.797 97.314 235.488 92.5638L235.489 92.5643ZM250.987 127.39C244.571 127.416 244.583 117.956 250.987 117.889C257.281 117.965 257.253 127.375 250.987 127.39Z" fill="#A8CFFB"/>
<path d="M250.961 128.52C247.108 128.52 245.071 125.608 245.051 122.723C245.03 119.79 247.058 116.8 250.975 116.76C254.844 116.807 256.84 119.776 256.826 122.686C256.812 125.577 254.803 128.51 250.989 128.52H250.961ZM250.973 119.019C248.431 119.045 247.296 120.89 247.309 122.707C247.321 124.478 248.456 126.261 250.962 126.261C250.969 126.261 250.976 126.263 250.984 126.261C253.448 126.255 254.56 124.455 254.568 122.675C254.577 120.877 253.469 119.049 250.973 119.019ZM250.823 116.13C250.751 116.13 250.677 116.128 250.603 116.126C248.334 116.024 246.695 114.903 245.972 112.97C244.716 109.616 246.554 104.188 248.923 101.88C249.827 100.815 251.064 99.7382 252.373 98.5998C254.177 97.031 256.041 95.4095 256.905 93.895C257.634 92.5137 257.552 90.9436 256.68 89.5841C255.642 87.9673 253.734 86.9975 251.817 87.1138C251.794 87.1155 251.774 87.1203 251.747 87.1158C249.754 87.1158 248.301 87.5887 247.428 88.5216C246.452 89.5635 245.601 91.1537 244.898 93.249C244.149 96.5135 241.539 97.8007 239.272 97.6285C236.559 97.4215 234.541 95.3689 234.363 92.6371C234.36 92.5972 234.36 92.5571 234.361 92.5171C234.561 87.6827 237.131 83.5568 241.599 80.8996C247.187 77.5757 254.719 77.1977 260.353 79.9562C263.735 81.4295 266.397 84.3053 267.659 87.8502C268.798 91.0514 268.621 94.3713 267.161 97.1999C265.908 99.7907 263.757 101.662 261.479 103.642C259.678 105.208 257.816 106.827 256.409 108.85C256.122 109.451 255.94 110.206 255.748 111.005C255.225 113.174 254.513 116.129 250.824 116.129L250.823 116.13ZM252.121 84.8457C254.688 84.8457 257.186 86.1939 258.579 88.3635C259.909 90.4348 260.022 92.8424 258.89 94.9693L258.876 94.9956C257.825 96.8506 255.806 98.6063 253.855 100.304C252.595 101.4 251.406 102.434 250.613 103.379C250.586 103.411 250.558 103.442 250.528 103.47C248.693 105.221 247.18 109.758 248.086 112.178C248.495 113.27 249.322 113.807 250.688 113.869C252.54 113.927 252.948 112.984 253.553 110.475C253.774 109.56 254.002 108.613 254.423 107.771C254.447 107.724 254.473 107.68 254.502 107.637C256.077 105.346 258.07 103.613 259.997 101.937C262.099 100.109 264.084 98.3832 265.134 96.204L265.149 96.1747C266.324 93.9051 266.46 91.2175 265.531 88.6074C264.492 85.6851 262.211 83.2219 259.43 82.0177C259.414 82.0105 259.397 82.0029 259.381 81.9948C254.401 79.5465 247.719 79.8862 242.752 82.8407C238.982 85.0829 236.806 88.5284 236.619 92.5473C236.764 94.3628 238.136 95.276 239.443 95.3759C240.711 95.4759 242.239 94.8211 242.707 92.7012C242.716 92.6625 242.726 92.6247 242.739 92.5877C243.549 90.155 244.573 88.2672 245.78 86.9774C247.092 85.5758 249.089 84.8626 251.716 84.8567C251.851 84.8493 251.986 84.8457 252.121 84.8457Z" fill="#3375E0"/>
</g>
<defs>
<clipPath id="clip0_5360_20916">
<rect width="333.963" height="251.16" fill="white" transform="translate(52.7314 124.6)"/>
</clipPath>
<clipPath id="clip1_5360_20916">
<rect width="91.512" height="75.88" fill="white" transform="translate(205.902 68.3198)"/>
</clipPath>
<clipPath id="clip2_5360_20916">
<rect width="255.564" height="334.6" fill="white" transform="translate(32.6426 105.28)"/>
</clipPath>
<clipPath id="clip3_5360_20916">
<rect width="161.82" height="128.24" fill="white" transform="translate(365.211 61.6001)"/>
</clipPath>
<clipPath id="clip4_5360_20916">
<rect width="246.357" height="103.88" fill="white" transform="translate(225.711 272.44)"/>
</clipPath>
<clipPath id="clip5_5360_20916">
<rect width="38.223" height="47.04" fill="white" transform="translate(208.413 334.32)"/>
</clipPath>
<clipPath id="clip6_5360_20916">
<rect width="122.76" height="73.08" fill="white" transform="translate(309.132 176.96)"/>
</clipPath>
<clipPath id="clip7_5360_20916">
<rect width="34.038" height="50.4" fill="white" transform="translate(234.36 78.1201)"/>
</clipPath>
</defs>
</svg>
