<svg width="615" height="543" viewBox="0 0 615 543" fill="none" xmlns="http://www.w3.org/2000/svg">
<g clip-path="url(#clip0_5391_3982)">
<path d="M175.211 338.157L214.941 344.184C219.27 344.841 221.898 341.605 220.81 336.957L201.809 255.746C200.721 251.097 196.331 246.797 192.002 246.14L152.271 240.112C147.943 239.456 145.315 242.691 146.403 247.34L165.403 328.551C166.491 333.199 170.882 337.5 175.211 338.157Z" fill="#A8CFFB"/>
<path d="M216.035 345.719C217.94 345.719 219.595 345.045 220.781 343.764C222.36 342.06 222.885 339.459 222.223 336.628L203.222 255.417C201.993 250.162 197.16 245.458 192.22 244.709L152.49 238.681C150.034 238.308 147.883 238.967 146.431 240.534C144.852 242.238 144.327 244.839 144.989 247.67L163.99 328.881C165.219 334.136 170.052 338.84 174.992 339.589L214.722 345.617C215.157 345.684 215.596 345.718 216.035 345.719ZM151.172 241.476C151.452 241.476 151.746 241.498 152.053 241.545L191.783 247.573C195.505 248.137 199.449 252.031 200.395 256.076L219.395 337.286C219.835 339.166 219.563 340.81 218.649 341.797C217.86 342.649 216.653 342.978 215.158 342.753L175.428 336.725C171.706 336.16 167.763 332.266 166.817 328.222L147.816 247.011C147.376 245.131 147.648 243.487 148.562 242.5C149.189 241.823 150.081 241.476 151.172 241.476Z" fill="#3375E0"/>
<path d="M181.885 259.154C181.069 255.669 183.039 253.244 186.284 253.736C189.529 254.228 192.821 257.452 193.636 260.937C194.451 264.422 192.482 266.847 189.237 266.355C185.992 265.863 182.7 262.639 181.885 259.154Z" fill="#3375E0"/>
<path d="M190.061 267.867C191.59 267.867 192.922 267.322 193.882 266.286C195.149 264.918 195.575 262.848 195.05 260.607C194.097 256.533 190.342 252.886 186.502 252.304C184.538 252.005 182.812 252.539 181.64 253.804C180.373 255.172 179.947 257.242 180.471 259.483C181.424 263.557 185.179 267.204 189.019 267.787C189.374 267.841 189.722 267.867 190.061 267.867ZM185.464 255.121C185.676 255.121 185.88 255.14 186.066 255.168C188.724 255.571 191.544 258.364 192.223 261.266C192.525 262.556 192.352 263.669 191.75 264.319C191.111 265.009 190.15 265.028 189.455 264.923C186.797 264.52 183.977 261.727 183.298 258.825C182.996 257.535 183.169 256.422 183.771 255.772C184.24 255.266 184.882 255.121 185.464 255.121Z" fill="#3375E0"/>
<path d="M218.796 343.536L228.957 336.609C230.784 335.443 231.614 333.043 230.917 330.063L211.916 248.851C210.828 244.203 206.438 239.902 202.109 239.246L162.378 233.218C160.755 232.972 159.371 233.273 158.332 233.991L148.484 240.719C149.688 239.902 151.189 239.948 152.271 240.113L192.001 246.14C196.33 246.797 200.721 251.098 201.808 255.746L220.809 336.957C221.513 339.967 220.66 342.384 218.796 343.536Z" fill="#3375E0"/>
<path d="M218.798 344.985C219.068 344.985 219.332 344.91 219.561 344.768C219.702 344.681 219.838 344.589 219.969 344.491L229.759 337.816C232.188 336.254 233.15 333.235 232.331 329.734L213.33 248.522C212.1 243.267 207.267 238.563 202.327 237.814L162.597 231.787C160.652 231.492 158.893 231.842 157.506 232.8L147.668 239.522L147.664 239.524C147.354 239.744 147.143 240.076 147.076 240.45C147.008 240.824 147.091 241.209 147.305 241.522C147.52 241.836 147.849 242.053 148.222 242.127C148.595 242.201 148.982 242.126 149.301 241.918C149.932 241.489 150.858 241.364 152.053 241.546L191.783 247.572C195.505 248.137 199.449 252.031 200.395 256.076L219.395 337.286C219.897 339.431 219.479 341.216 218.276 342.137L217.977 342.34C217.721 342.515 217.528 342.767 217.425 343.059C217.323 343.352 217.318 343.669 217.409 343.965C217.501 344.261 217.686 344.52 217.936 344.703C218.185 344.887 218.488 344.986 218.798 344.985ZM161.294 234.583C161.572 234.583 161.861 234.605 162.16 234.651L201.891 240.678C205.613 241.243 209.557 245.137 210.503 249.181L229.503 330.392C230.032 332.653 229.536 334.52 228.175 335.388L228.138 335.412L222.496 339.26C222.525 338.422 222.436 337.538 222.223 336.628L203.222 255.417C201.993 250.162 197.16 245.458 192.22 244.708L153.757 238.873L159.152 235.187C159.732 234.786 160.461 234.583 161.294 234.583Z" fill="#3375E0"/>
</g>
<g clip-path="url(#clip1_5391_3982)">
<path d="M174.729 489.279C154.905 482.732 184.295 402.782 205.038 405.896C225.782 409.009 199.585 497.488 174.729 489.279Z" fill="#3375E0"/>
<path d="M178.002 491.259C182.119 491.259 186.403 489.122 190.582 484.944C197.816 477.71 204.883 464.158 209.484 448.692C214.045 433.366 215.236 419.564 212.672 411.771C210.9 406.385 207.66 404.824 205.254 404.463C196.996 403.224 189.085 412.921 183.902 421.274C177.572 431.473 172.004 445.08 169.006 457.674C164.624 476.08 166.545 488.102 174.277 490.655C175.478 491.055 176.736 491.259 178.002 491.259ZM203.869 407.259C204.193 407.259 204.511 407.282 204.824 407.329C207.154 407.679 208.868 409.478 209.921 412.677C212.272 419.821 211.041 433.305 206.709 447.866C202.238 462.89 195.444 475.986 188.535 482.894C183.836 487.592 179.345 489.278 175.184 487.903C169.238 485.94 167.95 474.614 171.823 458.346C174.753 446.038 180.188 432.751 186.362 422.803C192.545 412.84 198.858 407.259 203.869 407.259Z" fill="#3375E0"/>
<path d="M233.952 485.486C309.651 487.188 340.75 406.708 367.611 349.934C371.796 342.421 374.111 340.111 374.654 339.629C406.495 319.354 377.494 271.15 344.631 290.065C298.755 315.376 295.084 429.044 230.632 427.429C194.398 426.536 175.445 390.449 174.575 357.572C174.088 342.591 177.059 332.239 179.174 328.935C187.805 315.46 183.885 297.536 170.419 288.9C90.1607 249.776 87.9751 486.933 233.952 485.486Z" fill="white"/>
<path d="M236.319 486.962C305.58 486.962 337.241 418.73 362.745 363.776C364.871 359.195 366.879 354.869 368.9 350.598C372.805 343.593 374.982 341.305 375.539 340.784C383.222 335.857 388.03 328.986 389.447 320.907C390.71 313.709 389.176 306.063 385.13 299.375C381.087 292.693 375.035 287.798 368.088 285.593C360.249 283.105 351.888 284.217 343.91 288.809C324.189 299.689 312.495 325.707 300.115 353.251C291.965 371.382 283.539 390.13 272.681 403.899C266.889 411.245 260.909 416.59 254.4 420.24C247.124 424.321 239.364 426.199 230.67 425.98C210.195 425.476 197.538 413.562 190.524 403.657C181.757 391.274 176.472 374.463 176.024 357.534C175.55 342.978 178.453 332.748 180.394 329.717C184.777 322.875 186.235 314.734 184.499 306.794C182.762 298.854 178.039 292.066 171.201 287.68C171.153 287.65 171.104 287.622 171.054 287.598C152.737 278.668 140.439 284.647 133.347 291.235C122.779 301.052 116.131 318.892 114.629 341.468C113.114 364.245 117.097 388.89 125.844 410.863C134.687 433.074 148.117 451.647 164.684 464.574C184.031 479.671 207.317 487.2 233.944 486.935C234.736 486.953 235.536 486.962 236.319 486.962ZM359.726 287.213C369.713 287.213 378.037 293.246 382.653 300.876C389.372 311.982 389.492 328.464 373.877 338.407C373.813 338.448 373.751 338.494 373.694 338.546C373.046 339.121 370.601 341.591 366.346 349.229C366.331 349.257 366.316 349.286 366.303 349.314C364.271 353.609 362.254 357.955 360.119 362.555C334.964 416.755 303.72 484.059 236.29 484.064C235.524 484.064 234.761 484.055 233.985 484.038C233.97 484.037 233.955 484.037 233.938 484.037C233.498 484.042 233.058 484.044 232.619 484.044C207.219 484.044 184.969 476.728 166.464 462.289C150.303 449.679 137.187 431.525 128.535 409.791C119.944 388.211 116.031 364.016 117.519 341.661C118.95 320.142 125.438 302.537 135.318 293.359C144.518 284.812 156.408 283.708 169.708 290.166C175.858 294.135 180.104 300.257 181.669 307.413C183.241 314.597 181.922 321.962 177.956 328.154C176.051 331.128 172.592 341.113 173.129 357.62C173.591 375.099 179.07 392.493 188.161 405.333C198.768 420.313 213.442 428.455 230.597 428.878C231.067 428.89 231.535 428.896 231.998 428.896C269.291 428.897 286.299 391.053 302.756 354.44C314.932 327.349 326.433 301.76 345.331 291.334C350.343 288.45 355.205 287.213 359.726 287.213Z" fill="#3375E0"/>
<path d="M233.852 496.351C316.301 496.351 347.117 419.292 376.058 357.133C379.054 351.536 380.892 349.002 381.681 348.027C399.164 336.305 404.588 312.799 393.672 294.511C382.394 275.618 357.944 269.451 339.063 280.736C316.836 294.019 305.523 318.75 292.423 347.385C280.079 373.346 261.887 419.896 231.273 416.58C224.451 427.132 202.062 488.474 208.271 491.247C213.031 493.372 219.991 496.351 233.852 496.351Z" fill="white"/>
<path d="M233.852 497.799C269.086 497.799 298.097 483.904 322.543 455.32C343.832 430.427 358.479 398.674 372.642 367.966C374.207 364.568 375.778 361.173 377.355 357.781C380.178 352.51 381.942 350.04 382.676 349.104C400.762 336.837 406.143 312.577 394.916 293.768C383.246 274.219 357.858 267.815 338.321 279.491C315.708 293.006 304.307 317.926 291.107 346.781C289.956 349.203 288.752 351.806 287.479 354.562C281.467 367.569 273.984 383.757 264.695 396.052C254.033 410.166 243.152 416.41 231.429 415.139C231.163 415.11 230.893 415.156 230.651 415.271C230.409 415.387 230.203 415.567 230.058 415.793C226.849 420.756 220.197 436.838 214.585 453.201C210.66 464.645 204.333 484.708 206.05 490.5C206.354 491.526 206.903 492.222 207.682 492.57C212.062 494.526 219.393 497.799 233.852 497.799ZM359.42 276.555C372.494 276.555 385.251 283.23 392.429 295.254C402.905 312.803 397.83 335.455 380.876 346.823C380.755 346.904 380.647 347.002 380.556 347.115C379.698 348.176 377.807 350.798 374.782 356.449C374.77 356.472 374.758 356.497 374.746 356.521C373.162 359.928 371.584 363.339 370.013 366.752C342.307 426.819 310.905 494.902 233.852 494.902C220.088 494.902 213.377 491.94 208.938 489.957C208.779 489.701 207.96 487.833 210.021 478.746C211.37 472.798 213.676 464.933 216.691 456.002C222.065 440.083 228.639 423.882 232.035 418.107C232.83 418.17 233.627 418.201 234.424 418.201C245.969 418.202 256.658 411.498 267.005 397.801C276.482 385.256 284.037 368.912 290.107 355.779C291.378 353.03 292.577 350.434 293.732 348.008C306.74 319.573 317.966 295.032 339.806 281.98C345.955 278.304 352.73 276.555 359.42 276.555Z" fill="#3375E0"/>
<path d="M384.667 266.562C371.057 269.574 350.435 281.605 343.085 291.381C335.735 301.157 345.505 449.673 357.154 459.073C368.803 468.473 480.405 470.353 492.054 462.833C503.702 455.313 506.333 280.854 499.193 276.718C492.054 272.582 454.642 261.85 447.746 260.876C440.85 259.902 384.667 266.562 384.667 266.562Z" fill="#A8CFFB"/>
<path d="M439.765 468.922C464.254 468.922 487.478 467.51 492.838 464.051C494.488 462.986 496.669 459.819 498.904 444.666C500.349 434.869 501.575 421.676 502.548 405.454C504.299 376.283 505.006 339.802 504.349 312.512C503.508 277.543 501.083 276.139 499.918 275.464C492.497 271.165 454.794 260.409 447.948 259.442C440.943 258.455 386.798 264.851 384.496 265.124C384.448 265.13 384.401 265.137 384.354 265.148C369.951 268.335 349.333 280.661 341.927 290.511C337.051 296.996 339.549 348.926 341.55 375.478C343.126 396.379 345.266 415.922 347.577 430.508C351.7 456.535 355.12 459.295 356.244 460.202C362.81 465.5 395.844 468.09 424.569 468.748C429.59 468.861 434.706 468.922 439.765 468.922ZM498.373 277.918C498.721 278.4 500.101 281.413 500.981 299.264C501.573 311.26 501.807 327.628 501.642 345.354C501.355 376.333 499.759 418.392 496.143 443.526C493.944 458.81 491.855 461.236 491.268 461.615C486.276 464.838 458.255 466.618 424.636 465.849C389.684 465.049 362.93 461.873 358.062 457.945C353.429 454.206 347.827 420.205 344.438 375.259C342.924 355.179 342.055 335.689 341.991 320.379C341.895 297.185 343.688 292.986 344.241 292.252C351.175 283.029 371.296 271.03 384.909 267.992C404.298 265.694 442.239 261.561 447.542 262.31C454.079 263.234 491.149 273.828 498.373 277.918Z" fill="#3375E0"/>
<path d="M390.495 264.942L384.666 266.561C379.333 292.89 439.208 294.884 447.745 260.876L440.849 259.902L433.328 216.198L383.582 224.77L390.495 264.942Z" fill="white"/>
<path d="M409.581 287.817C416.18 287.817 423.006 286.449 429.013 283.819C439.493 279.231 446.645 271.209 449.15 261.229C449.199 261.032 449.207 260.827 449.171 260.627C449.136 260.427 449.06 260.236 448.946 260.068C448.833 259.899 448.685 259.756 448.513 259.649C448.341 259.541 448.149 259.47 447.948 259.441L442.098 258.615L434.756 215.953C434.691 215.575 434.478 215.237 434.164 215.015C434.009 214.906 433.834 214.827 433.648 214.785C433.463 214.744 433.271 214.739 433.083 214.771L383.337 223.343C382.958 223.408 382.621 223.621 382.4 223.935C382.178 224.249 382.09 224.638 382.155 225.016L388.846 263.897L384.279 265.166C384.022 265.238 383.789 265.379 383.607 265.575C383.425 265.77 383.301 266.013 383.248 266.275C381.252 276.126 387.685 283.987 400.035 286.79C403.075 287.478 406.3 287.817 409.581 287.817ZM445.906 262.08C442.624 272.714 434.362 278.314 427.852 281.164C419.406 284.861 409.248 285.908 400.677 283.963C390.246 281.596 384.802 275.557 385.936 267.714L390.883 266.339C391.229 266.243 391.527 266.021 391.719 265.718C391.911 265.415 391.984 265.051 391.923 264.697L385.255 225.953L432.147 217.873L439.423 260.148C439.475 260.451 439.621 260.729 439.842 260.942C440.062 261.156 440.344 261.294 440.648 261.337L445.906 262.08Z" fill="#3375E0"/>
<path d="M439.615 252.73C447.579 254.711 497.704 263.917 516.935 281.462C536.167 299.007 513.911 468 495.246 477.339C476.58 486.677 431.951 482.84 431.951 482.84C426.024 424.513 430.662 356.955 438.168 297.26C442.26 282.562 443.261 267.562 439.615 252.73Z" fill="white"/>
<path d="M452.805 485.092C467.143 485.092 485.367 483.901 495.894 478.635C500.346 476.407 504.916 466.764 509.475 449.976C513.477 435.237 517.299 415.455 520.235 394.273C523.818 368.42 525.785 343.095 525.775 322.964C525.763 299.465 523.117 285.141 517.911 280.392C500.652 264.646 459.754 255.687 444.358 252.314C442.415 251.888 440.88 251.552 439.964 251.325C439.722 251.264 439.469 251.268 439.228 251.334C438.988 251.401 438.769 251.529 438.592 251.705C438.416 251.881 438.288 252.1 438.22 252.341C438.153 252.581 438.149 252.835 438.209 253.077C441.556 266.692 441.073 281.427 436.773 296.872C436.754 296.941 436.74 297.01 436.732 297.08C427.515 370.374 425.422 432.922 430.511 482.987C430.545 483.323 430.695 483.637 430.935 483.873C431.176 484.11 431.491 484.256 431.827 484.285C432.637 484.353 441.517 485.092 452.805 485.092ZM441.545 254.662C442.199 254.807 442.934 254.968 443.739 255.144C458.928 258.472 499.274 267.311 515.96 282.533C520.411 286.593 522.868 300.952 522.879 322.965C522.889 342.967 520.931 368.15 517.366 393.875C511.159 438.652 501.797 472.441 494.598 476.043C487.159 479.764 474.012 481.874 456.577 482.143C445.836 482.306 436.493 481.722 433.271 481.488C428.363 431.868 430.488 369.988 439.592 297.547C443.764 282.505 444.419 268.093 441.545 254.662Z" fill="#3375E0"/>
<path d="M332.719 321.196C333.781 373.49 340.994 462.507 348.034 469.418C362.503 483.62 401.737 481.075 401.737 481.075C382.737 407.169 383.582 334.211 383.582 301.096C380.744 277.618 389.51 259.218 389.51 259.218C373.756 262.519 344.868 276.189 334.824 283.659" fill="white"/>
<path d="M394.448 482.718C398.626 482.718 401.417 482.548 401.831 482.521C402.044 482.508 402.251 482.447 402.437 482.344C402.623 482.241 402.785 482.098 402.91 481.926C403.035 481.753 403.12 481.555 403.16 481.346C403.2 481.136 403.193 480.921 403.14 480.715C384.928 409.875 384.995 339.149 385.028 305.16C385.029 303.746 385.031 302.39 385.031 301.095C385.031 301.037 385.027 300.979 385.02 300.921C382.265 278.125 390.732 260.022 390.818 259.842C390.934 259.598 390.98 259.327 390.95 259.059C390.92 258.79 390.816 258.535 390.649 258.323C390.483 258.111 390.26 257.949 390.006 257.857C389.753 257.764 389.478 257.745 389.214 257.8C373.695 261.052 344.457 274.69 333.961 282.497C333.806 282.609 333.674 282.751 333.574 282.915C333.474 283.079 333.407 283.261 333.378 283.45C333.349 283.64 333.358 283.834 333.404 284.02C333.45 284.206 333.533 284.381 333.647 284.536C333.762 284.69 333.906 284.819 334.07 284.917C334.235 285.015 334.418 285.079 334.608 285.106C334.798 285.133 334.991 285.121 335.177 285.073C335.362 285.024 335.536 284.939 335.689 284.822C345.38 277.615 371.389 265.331 387.073 261.281C384.756 267.264 379.904 282.557 382.134 301.183C382.134 302.45 382.133 303.776 382.132 305.158C382.099 338.99 382.034 409.097 399.895 479.709C392.191 479.984 361.185 480.298 349.049 468.384C347.979 467.334 344.133 460.177 339.577 412.189C336.825 383.211 334.702 347.483 334.168 321.167C334.166 320.976 334.126 320.787 334.05 320.611C333.975 320.435 333.865 320.276 333.728 320.143C333.59 320.009 333.428 319.905 333.25 319.835C333.072 319.765 332.882 319.73 332.69 319.734C332.499 319.738 332.31 319.78 332.135 319.857C331.96 319.934 331.802 320.046 331.67 320.184C331.539 320.323 331.435 320.487 331.367 320.665C331.299 320.844 331.266 321.035 331.272 321.226C331.808 347.607 333.936 383.42 336.694 412.463C340.019 447.479 343.493 466.99 347.021 470.453C358.029 481.258 382.195 482.718 394.448 482.718Z" fill="#3375E0"/>
<path d="M388.144 251.282L390.495 264.942C383.582 272.108 383.13 286.861 383.582 301.096C383.582 301.096 362.79 296.584 354.344 299.997C355.968 276.43 366.018 251.282 388.144 251.282Z" fill="white"/>
<path d="M383.583 302.545C383.921 302.545 384.249 302.426 384.509 302.209C384.678 302.068 384.813 301.891 384.904 301.69C384.994 301.489 385.037 301.27 385.03 301.05C384.578 286.791 385.053 272.67 391.538 265.949C391.696 265.785 391.813 265.586 391.88 265.369C391.947 265.151 391.961 264.921 391.923 264.696L389.572 251.037C389.514 250.7 389.339 250.395 389.078 250.175C388.817 249.955 388.487 249.834 388.145 249.834C377.548 249.834 368.615 255.446 362.312 266.063C357.146 274.763 353.804 286.779 352.9 299.898C352.883 300.143 352.929 300.389 353.032 300.611C353.136 300.834 353.295 301.027 353.494 301.171C353.692 301.315 353.925 301.407 354.168 301.437C354.412 301.466 354.659 301.434 354.887 301.342C358.118 300.036 364.025 299.817 371.97 300.708C378.08 301.393 383.225 302.501 383.276 302.512C383.378 302.534 383.48 302.545 383.583 302.545ZM388.948 264.484C382.479 271.818 381.729 285.402 382.083 299.314C377.225 298.381 363.859 296.138 355.957 297.986C357.025 286.141 360.139 275.396 364.802 267.542C370.39 258.13 377.83 253.162 386.93 252.758L388.948 264.484ZM397.281 499.529C384.059 494.37 394.059 421.027 410.033 421.51C430.645 422.134 420.963 508.769 397.281 499.529Z" fill="#3375E0"/>
<path d="M400.758 501.665C403.751 501.665 406.637 500.321 409.263 497.673C414.937 491.952 419.565 479.678 421.643 464.841C423.641 450.575 422.879 436.69 419.656 428.603C416.904 421.699 412.928 420.148 410.076 420.061C406.185 419.932 402.576 423.14 399.34 429.562C396.668 434.864 394.329 442.216 392.576 450.821C388.783 469.449 387.571 497.295 396.755 500.878C398.101 501.404 399.44 501.665 400.758 501.665ZM409.875 422.956C409.913 422.956 409.95 422.957 409.988 422.958C412.876 423.046 415.224 425.306 416.966 429.677C420.013 437.323 420.706 450.643 418.774 464.44C416.78 478.679 412.456 490.34 407.207 495.633C404.217 498.648 401.142 499.481 397.807 498.179C395.019 497.091 393.107 491.032 392.693 481.972C392.284 473.042 393.276 461.899 395.414 451.4C398.94 434.087 404.605 422.956 409.875 422.956Z" fill="#3375E0"/>
<path d="M470.081 335.068C477.463 349.401 484.246 368.078 474.633 399.215C466.186 427.266 436.148 444.358 412.38 424.845C374.744 390.845 351.868 332.164 298.694 309.92C263.635 295.289 240.835 347.178 275.529 363.041C332.153 391.875 357.155 493.644 433.128 491.203C550.418 486.581 552.393 339.915 513.99 293.975" fill="white"/>
<path d="M430.452 492.695C431.352 492.695 432.259 492.68 433.174 492.651C456.093 491.748 475.906 485.413 492.075 473.82C506.437 463.523 517.716 449.286 525.597 431.505C535.503 409.158 539.541 381.887 536.968 354.717C534.558 329.265 526.588 306.786 515.101 293.045C514.853 292.758 514.501 292.581 514.123 292.55C513.745 292.52 513.369 292.64 513.078 292.884C512.787 293.127 512.603 293.475 512.566 293.853C512.529 294.231 512.642 294.609 512.88 294.905C524 308.207 531.728 330.108 534.085 354.991C536.611 381.674 532.657 408.43 522.95 430.33C515.281 447.633 504.325 461.472 490.388 471.465C474.688 482.722 455.403 488.875 433.071 489.755C413.046 490.408 394.789 483.604 377.27 468.982C361.563 455.872 347.977 437.924 334.837 420.567C317.304 397.405 299.173 373.455 276.186 361.75C276.167 361.74 276.149 361.731 276.131 361.723C259.173 353.969 257.058 337.591 262.269 325.654C267.493 313.691 280.944 304.083 298.137 311.258C331.484 325.207 352.904 353.804 373.619 381.459C385.916 397.876 397.531 413.383 411.411 425.921C411.427 425.936 411.445 425.951 411.463 425.966C421.377 434.105 433.231 436.639 444.842 433.102C459.171 428.737 471.118 415.912 476.019 399.633C480.439 385.318 481.796 372.562 480.165 360.643C478.661 349.652 474.874 341.211 471.369 334.404C471.193 334.063 470.888 333.805 470.523 333.688C470.157 333.571 469.759 333.604 469.418 333.78C469.077 333.956 468.819 334.26 468.702 334.626C468.585 334.993 468.618 335.39 468.794 335.732C476.562 350.815 482.479 368.893 473.249 398.787C468.62 414.16 457.413 426.243 443.998 430.329C433.354 433.571 422.462 431.234 413.326 423.746C399.666 411.4 388.139 396.012 375.936 379.72C354.989 351.755 333.328 322.837 299.253 308.583C290.728 305.026 282.264 305 274.777 308.511C268.141 311.623 262.757 317.299 259.615 324.493C256.477 331.681 255.977 339.478 258.208 346.448C260.723 354.306 266.495 360.495 274.899 364.345C297.279 375.754 314.402 398.372 332.528 422.316C358.729 456.928 385.806 492.695 430.452 492.695Z" fill="#3375E0"/>
<path d="M458.667 335.803C461.495 338.929 465.421 346.886 467.19 359.018C471.919 385.866 458.892 419.536 432.368 423.358C431.716 447.297 420.605 496.638 426.602 499.412C430.256 501.101 439.048 501.242 445.546 500.816C533.913 495.023 567.881 386.085 536.764 313.205C531.452 298.835 524.547 288.486 516.935 281.462" fill="white"/>
<path d="M439.191 502.467C442.184 502.467 444.689 502.325 445.641 502.262C463.47 501.093 479.813 495.74 494.214 486.351C507.516 477.678 518.855 465.797 527.915 451.038C552.346 411.238 556.442 355.638 538.11 312.669C533.026 298.927 526.232 288.07 517.917 280.398C517.635 280.137 517.26 280 516.877 280.015C516.493 280.031 516.131 280.198 515.871 280.48C515.742 280.62 515.642 280.784 515.576 280.963C515.51 281.141 515.481 281.331 515.488 281.521C515.496 281.712 515.541 281.898 515.621 282.071C515.701 282.244 515.814 282.399 515.954 282.528C523.936 289.893 530.481 300.384 535.406 313.708C535.414 313.731 535.423 313.753 535.432 313.775C553.428 355.923 549.415 410.476 525.447 449.522C516.614 463.912 505.573 475.486 492.633 483.923C478.653 493.037 462.779 498.235 445.452 499.371C438.7 499.813 430.442 499.591 427.21 498.096C427.063 497.998 425.712 496.769 426.567 485.822C427.136 478.544 428.447 469.225 429.836 459.359C431.589 446.902 433.4 434.038 433.775 424.598C443.249 422.897 451.592 417.375 457.965 408.567C467.45 395.458 471.631 375.92 468.619 358.787C467.482 351.003 464.477 340.067 459.741 334.831C459.483 334.546 459.123 334.375 458.739 334.356C458.356 334.337 457.98 334.471 457.695 334.729C457.411 334.987 457.24 335.347 457.221 335.731C457.202 336.115 457.336 336.491 457.594 336.776C460.284 339.749 464.036 347.414 465.757 359.227C465.759 359.241 465.762 359.255 465.764 359.269C468.654 375.673 464.672 394.356 455.62 406.867C449.45 415.395 441.338 420.601 432.162 421.924C431.824 421.972 431.514 422.139 431.287 422.394C431.06 422.649 430.93 422.977 430.921 423.318C430.666 432.686 428.786 446.041 426.969 458.955C423.004 487.124 421.806 498.789 425.995 500.726C429.056 502.143 434.677 502.467 439.191 502.467ZM413.93 111.013C414.663 86.2585 450.197 73.1888 469.347 99.6379C481.612 116.578 475.54 141.627 499.368 144.358C499.368 144.358 495.079 155.234 480.398 151.49C481.945 170.508 504.804 175.554 501.733 203.737C499.447 224.714 487.721 237.11 475.895 239.009C475.895 239.009 483.568 223.545 476.222 211.703C470.444 213.047 469.274 218.416 470.267 225.723C470.267 225.723 446.208 216.99 440.987 179.235C435.765 141.48 413.93 111.013 413.93 111.013Z" fill="#3375E0"/>
<path d="M475.896 240.458C475.972 240.458 476.049 240.452 476.126 240.44C487.811 238.563 500.706 226.536 503.173 203.894C505.012 187.014 497.743 177.971 491.33 169.993C487.173 164.822 483.226 159.912 482.091 153.34C483.559 153.603 484.925 153.72 486.19 153.721C497.088 153.721 500.675 144.994 500.716 144.891C500.797 144.684 500.83 144.461 500.812 144.24C500.794 144.018 500.725 143.804 500.61 143.613C500.496 143.423 500.339 143.261 500.153 143.141C499.966 143.02 499.754 142.945 499.533 142.919C485.32 141.29 482.464 131.165 479.156 119.442C477.173 112.414 475.123 105.146 470.52 98.7882C459.51 83.5809 444.043 81.719 433.239 85.0473C420.985 88.8222 412.838 98.9975 412.484 110.97C412.474 111.287 412.569 111.599 412.754 111.857C412.971 112.159 434.443 142.49 439.553 179.434C441.07 190.413 445.251 205.953 456.544 217.644C463.366 224.707 469.516 226.991 469.774 227.085C470.009 227.17 470.261 227.193 470.507 227.152C470.753 227.111 470.984 227.007 471.178 226.851C471.372 226.694 471.522 226.49 471.614 226.258C471.706 226.027 471.737 225.775 471.703 225.528C470.758 218.575 471.944 214.779 475.542 213.418C481.414 224.299 474.669 238.222 474.599 238.366C474.489 238.587 474.438 238.832 474.45 239.078C474.462 239.324 474.536 239.563 474.666 239.773C474.796 239.982 474.977 240.155 475.192 240.275C475.408 240.395 475.65 240.458 475.896 240.458ZM480.399 150.041C480.199 150.041 480.001 150.083 479.818 150.163C479.635 150.243 479.47 150.361 479.334 150.508C479.199 150.655 479.095 150.829 479.03 151.018C478.965 151.207 478.939 151.408 478.956 151.607C479.645 160.082 484.224 165.778 489.073 171.81C495.43 179.717 502.003 187.895 500.294 203.58C498.184 222.945 488.154 233.947 478.332 236.956C480.248 231.836 483.336 220.425 477.452 210.939C477.293 210.682 477.057 210.481 476.777 210.365C476.498 210.249 476.189 210.223 475.894 210.292C468.717 211.962 468.226 218.914 468.544 223.304C466.263 222.073 462.489 219.659 458.504 215.503C452.619 209.366 445.052 198.057 442.421 179.037C437.539 143.734 418.016 114.39 415.397 110.583C415.912 100.075 423.203 91.1706 434.091 87.8166C443.936 84.7835 458.061 86.5194 468.175 100.488C472.476 106.428 474.455 113.444 476.369 120.229C479.654 131.872 482.764 142.9 497.083 145.487C495.276 148.098 490.603 152.596 480.756 150.086C480.638 150.056 480.518 150.041 480.399 150.041Z" fill="#3375E0"/>
<path d="M433.964 219.87C440.917 208.369 445.071 194.768 445.75 179.479C447.641 136.936 391.418 96.837 353.608 128.803C325.918 152.215 319.857 205.963 331.551 231.783C342.455 255.859 372.282 263.091 397.177 251.876C404.928 248.385 411.953 243.937 418.102 238.625" fill="white"/>
<path d="M373.509 258.506C381.665 258.507 389.953 256.72 397.772 253.198C405.644 249.652 412.803 245.118 419.049 239.723C419.193 239.598 419.311 239.447 419.396 239.277C419.482 239.107 419.533 238.921 419.547 238.732C419.561 238.542 419.537 238.351 419.477 238.17C419.418 237.99 419.323 237.823 419.199 237.679C419.074 237.535 418.923 237.416 418.753 237.331C418.583 237.245 418.398 237.194 418.208 237.18C418.019 237.167 417.828 237.19 417.647 237.25C417.467 237.31 417.3 237.404 417.156 237.529C411.122 242.742 404.2 247.125 396.583 250.556C384.568 255.968 371.404 257.075 359.515 253.671C347.319 250.18 337.855 242.194 332.869 231.185C327.178 218.62 325.786 198.872 329.235 179.646C333.1 158.103 342.088 140.44 354.542 129.91C369.715 117.082 389.426 115.138 408.62 124.578C430.584 135.38 445.258 157.93 444.303 179.415C443.649 194.134 439.753 207.493 432.724 219.121C432.525 219.45 432.465 219.844 432.557 220.217C432.649 220.59 432.885 220.912 433.214 221.111C433.542 221.31 433.936 221.37 434.309 221.278C434.682 221.186 435.004 220.95 435.202 220.621C442.486 208.573 446.521 194.753 447.197 179.544C448.201 156.944 432.863 133.272 409.898 121.977C400.535 117.372 390.6 115.276 381.171 115.918C370.661 116.632 361.073 120.595 352.673 127.697C339.704 138.662 330.368 156.929 326.384 179.135C322.837 198.907 324.311 219.31 330.231 232.382C335.574 244.178 345.691 252.728 358.718 256.458C363.503 257.827 368.481 258.506 373.509 258.506Z" fill="#3375E0"/>
<path d="M427.01 200.976C417.827 197.02 424.798 178.336 416.422 160.424C396.476 117.771 349.332 126.756 336.562 151.556C334.186 128.309 361.882 92.4055 405.749 111.164C426.298 107.299 479.092 135.927 451.999 195.004C447.133 205.614 432.65 203.406 427.01 200.976Z" fill="#3375E0"/>
<path d="M437.474 204.437C438.287 204.437 439.108 204.401 439.931 204.323C446.353 203.711 450.981 200.697 453.315 195.609C459.384 182.376 461.884 169.776 460.748 158.159C459.766 148.114 456.119 138.988 449.91 131.035C437.596 115.265 417.64 107.738 405.92 109.663C386.829 101.627 368.456 102.997 354.142 113.537C341.591 122.78 333.769 138.474 335.121 151.704C335.153 152.014 335.284 152.306 335.495 152.536C335.706 152.766 335.986 152.921 336.292 152.979C336.599 153.037 336.916 152.995 337.196 152.858C337.477 152.721 337.705 152.497 337.849 152.22C340.916 146.264 346.046 141.191 352.686 137.548C359.386 133.872 366.981 132.007 374.666 132.152C382.627 132.304 390.332 134.685 396.945 139.038C404.495 144.009 410.607 151.41 415.11 161.038C418.968 169.29 419.484 177.936 419.899 184.884C420.398 193.26 420.793 199.876 426.436 202.307C428.884 203.362 433.031 204.437 437.474 204.437ZM409.715 112.27C414.511 112.27 420.372 113.646 426.122 116.187C434.511 119.895 442.148 125.801 447.627 132.819C456.621 144.339 464.452 164.374 450.682 194.4C446.328 203.895 432.995 201.977 427.582 199.645C423.578 197.92 423.247 192.379 422.79 184.711C422.361 177.517 421.827 168.564 417.733 159.809C413 149.689 406.542 141.886 398.537 136.617C391.466 131.962 383.23 129.417 374.722 129.254C374.424 129.249 374.125 129.246 373.827 129.246C359.294 129.246 345.559 135.988 337.938 146.558C338.72 135.473 345.612 123.416 355.859 115.871C369.413 105.89 386.928 104.692 405.179 112.497C405.443 112.609 405.734 112.641 406.016 112.588C407.152 112.375 408.394 112.27 409.715 112.27Z" fill="#3375E0"/>
<path d="M451.998 196.453C452.275 196.453 452.547 196.374 452.781 196.224C453.014 196.074 453.2 195.86 453.315 195.608C460.141 180.725 465.901 158.666 454.578 138.1C445.137 120.953 427.45 111.469 414.11 109.676C413.921 109.651 413.73 109.662 413.546 109.711C413.362 109.76 413.189 109.844 413.038 109.96C412.887 110.075 412.76 110.219 412.664 110.384C412.569 110.549 412.507 110.731 412.482 110.919C412.457 111.108 412.469 111.3 412.517 111.484C412.566 111.668 412.651 111.84 412.766 111.992C412.882 112.143 413.026 112.27 413.19 112.365C413.355 112.461 413.536 112.523 413.725 112.548C420.353 113.439 427.623 116.288 434.197 120.571C441.77 125.505 447.94 132.05 452.041 139.499C460.543 154.94 460.073 173.924 450.683 194.399C450.582 194.62 450.538 194.862 450.554 195.105C450.571 195.347 450.649 195.581 450.78 195.786C450.911 195.99 451.091 196.158 451.304 196.275C451.517 196.392 451.755 196.453 451.998 196.453Z" fill="white"/>
<path d="M427.009 200.976C429.821 194.138 437.142 189.998 444.676 191.459C453.269 193.126 458.885 201.447 457.219 210.045C455.553 218.643 447.238 224.262 438.645 222.595C435.724 222.033 433.021 220.657 430.849 218.624" fill="white"/>
<path d="M441.697 224.339C445.112 224.339 448.448 223.324 451.34 221.37C455.169 218.783 457.762 214.858 458.641 210.32C460.456 200.952 454.315 191.852 444.952 190.036C436.898 188.473 428.787 192.843 425.669 200.424C425.597 200.6 425.56 200.789 425.56 200.979C425.561 201.169 425.599 201.358 425.672 201.533C425.745 201.709 425.852 201.868 425.987 202.003C426.122 202.137 426.282 202.243 426.458 202.316C426.634 202.388 426.822 202.425 427.012 202.425C427.202 202.424 427.391 202.386 427.566 202.313C427.742 202.24 427.901 202.133 428.035 201.998C428.169 201.863 428.276 201.703 428.348 201.527C430.943 195.217 437.694 191.582 444.402 192.881C452.196 194.393 457.309 201.968 455.798 209.769C455.066 213.547 452.907 216.814 449.72 218.968C446.532 221.122 442.698 221.904 438.921 221.172C436.267 220.66 433.813 219.41 431.838 217.565C431.557 217.302 431.184 217.162 430.8 217.175C430.416 217.188 430.053 217.353 429.791 217.634C429.529 217.915 429.389 218.288 429.402 218.672C429.415 219.056 429.58 219.42 429.86 219.682C432.233 221.899 435.182 223.402 438.37 224.017C439.466 224.23 440.58 224.338 441.697 224.339ZM388.567 189.784C384.04 187.666 379.406 186.844 373.771 186.108C370.158 185.636 370.031 181.561 375.069 179.378C379.804 177.327 389.147 179.419 392.155 183.802C395.293 188.374 392.261 191.512 388.567 189.784Z" fill="#3375E0"/>
<path d="M390.573 191.712C391.896 191.712 393.089 191.211 393.909 190.243C395.711 188.116 394.8 185.097 393.348 182.981C389.844 177.875 379.59 175.841 374.493 178.048C370.597 179.736 369.488 182.325 369.749 184.185C370.001 185.981 371.47 187.268 373.583 187.543C379.538 188.321 383.798 189.152 387.954 191.095C388.838 191.51 389.732 191.712 390.573 191.712ZM379.608 179.987C384.057 179.987 389.221 182.086 390.96 184.622C392.253 186.505 392.167 187.818 391.699 188.369C391.228 188.926 390.24 188.966 389.18 188.471C384.684 186.368 380.194 185.485 373.957 184.67C373.585 184.622 372.709 184.438 372.617 183.782C372.523 183.114 373.252 181.744 375.643 180.707C376.795 180.209 378.165 179.987 379.608 179.987ZM350.454 183.989C345.464 183.709 340.857 184.67 335.352 186.083C331.823 186.989 330.191 183.254 334.056 179.353C337.689 175.688 347.14 174.152 351.561 177.101C356.173 180.178 354.525 184.219 350.454 183.989Z" fill="#3375E0"/>
<path d="M334.328 187.669C334.772 187.669 335.236 187.609 335.712 187.487C341.529 185.993 345.793 185.178 350.372 185.436C352.878 185.578 354.927 184.397 355.584 182.429C356.466 179.784 354.499 177.32 352.364 175.896C347.213 172.461 336.938 174.388 333.027 178.334C330.039 181.35 329.971 184.166 330.905 185.796C331.598 187.006 332.848 187.669 334.328 187.669ZM348.675 182.49C344.419 182.49 340.315 183.313 334.992 184.68C334.627 184.773 333.746 184.929 333.417 184.354C333.082 183.769 333.249 182.226 335.084 180.374C338.691 176.734 347.369 176.047 350.757 178.307C352.657 179.575 353.065 180.825 352.836 181.511C352.605 182.203 351.706 182.609 350.535 182.543C349.915 182.508 349.295 182.49 348.675 182.49Z" fill="#3375E0"/>
<path d="M377.783 200.547C375.99 200.447 374.633 198.634 374.752 196.498C374.871 194.362 376.421 192.711 378.214 192.811C380.007 192.912 381.364 194.724 381.245 196.86C381.126 198.996 379.576 200.647 377.783 200.547Z" fill="#3375E0"/>
<path d="M343.663 199.369C341.87 199.269 340.513 197.456 340.632 195.32C340.751 193.184 342.301 191.534 344.094 191.634C345.887 191.734 347.244 193.547 347.125 195.683C347.006 197.819 345.456 199.469 343.663 199.369Z" fill="#3375E0"/>
<path d="M390.642 216.363C392.297 225.266 380.979 230.848 373.757 225.287L390.642 216.363Z" fill="white"/>
<path d="M380.366 228.951C382.707 228.951 385.003 228.304 387.001 227.082C390.936 224.671 392.876 220.463 392.065 216.098C392.023 215.875 391.93 215.664 391.792 215.484C391.654 215.303 391.476 215.158 391.272 215.059C391.067 214.96 390.843 214.911 390.616 214.915C390.389 214.919 390.166 214.976 389.965 215.082L373.08 224.006C372.866 224.119 372.683 224.284 372.549 224.487C372.415 224.689 372.334 224.922 372.313 225.164C372.293 225.406 372.333 225.649 372.431 225.871C372.529 226.093 372.681 226.287 372.873 226.435C375.042 228.105 377.692 228.951 380.366 228.951ZM389.327 218.697C389.127 221.084 387.775 223.209 385.488 224.611C383.186 226.021 379.819 226.635 376.731 225.353L389.327 218.697ZM438.17 213.359C438.499 213.359 438.831 213.246 439.103 213.017L447.128 206.237C447.275 206.115 447.397 205.965 447.486 205.796C447.575 205.626 447.63 205.441 447.647 205.25C447.664 205.059 447.643 204.867 447.585 204.685C447.527 204.502 447.434 204.333 447.311 204.187C447.187 204.04 447.036 203.92 446.866 203.833C446.696 203.745 446.51 203.692 446.319 203.677C446.129 203.662 445.937 203.684 445.755 203.744C445.573 203.803 445.405 203.898 445.26 204.023L437.235 210.802C437.008 210.994 436.846 211.251 436.77 211.538C436.694 211.825 436.707 212.128 436.809 212.407C436.911 212.686 437.097 212.927 437.34 213.097C437.583 213.267 437.873 213.359 438.17 213.359Z" fill="#3375E0"/>
<path d="M445.591 214.798C445.856 214.798 446.115 214.725 446.341 214.588C446.567 214.451 446.752 214.254 446.874 214.019C446.996 213.785 447.052 213.521 447.035 213.257C447.018 212.993 446.93 212.739 446.779 212.521L440.079 202.886C439.857 202.577 439.522 202.367 439.147 202.302C438.772 202.237 438.387 202.323 438.074 202.541C437.762 202.758 437.547 203.09 437.478 203.464C437.408 203.839 437.488 204.226 437.702 204.541L444.402 214.177C444.535 214.369 444.713 214.526 444.92 214.634C445.127 214.742 445.358 214.798 445.591 214.798ZM405.749 111.164C398.655 97.7665 359.508 90.6862 340.509 106.938C318.706 125.589 328.643 148.645 307.244 158.154C335.186 161.927 342.243 143.676 364.691 145.826C364.691 145.826 362.721 155.256 352.331 161.629C352.331 161.629 383.846 154.495 391.882 138.53C392.395 165.606 412.613 160.512 410.424 189.571C410.424 189.571 433.539 176.803 435.511 150.022" fill="#3375E0"/>
<path d="M410.424 191.02C410.665 191.02 410.905 190.96 411.124 190.84C411.368 190.704 417.179 187.458 423.293 180.822C428.946 174.686 435.906 164.38 436.955 150.129C436.983 149.745 436.858 149.367 436.607 149.076C436.356 148.785 436 148.605 435.617 148.577C435.235 148.55 434.856 148.675 434.566 148.926C434.275 149.177 434.096 149.533 434.067 149.916C433.082 163.291 426.544 172.996 421.233 178.782C417.692 182.639 414.208 185.323 412.016 186.836C412.394 173.131 407.431 167.276 402.621 161.603C397.964 156.11 393.565 150.922 393.33 138.503C393.324 138.18 393.209 137.868 393.005 137.617C392.801 137.366 392.519 137.19 392.203 137.118C391.888 137.046 391.558 137.082 391.265 137.22C390.973 137.358 390.734 137.59 390.589 137.879C385.229 148.526 368.531 155.199 358.951 158.254C364.716 152.473 366.042 146.444 366.109 146.123C366.15 145.924 366.149 145.718 366.106 145.519C366.063 145.32 365.978 145.132 365.857 144.968C365.737 144.804 365.583 144.667 365.405 144.567C365.228 144.466 365.032 144.404 364.829 144.385C354.004 143.349 346.771 146.81 339.114 150.476C331.634 154.057 323.926 157.748 312.119 157.157C320.294 151.791 322.794 143.801 325.421 135.407C328.155 126.667 331.255 116.761 341.45 108.04C348.723 101.819 363.342 96.4753 382.563 100.136C393.339 102.189 401.733 106.675 404.47 111.843C404.557 112.014 404.677 112.166 404.824 112.291C404.97 112.415 405.14 112.509 405.323 112.567C405.507 112.625 405.7 112.646 405.891 112.629C406.082 112.612 406.269 112.556 406.438 112.466C406.608 112.376 406.759 112.253 406.88 112.105C407.002 111.956 407.093 111.784 407.148 111.6C407.203 111.416 407.221 111.222 407.2 111.031C407.18 110.84 407.121 110.654 407.028 110.486C403.843 104.469 394.899 99.5358 383.105 97.2896C369.842 94.7626 351.439 95.6819 339.567 105.837C328.74 115.1 325.508 125.429 322.656 134.541C319.696 144.001 317.139 152.172 306.656 156.83C306.368 156.958 306.129 157.177 305.977 157.453C305.824 157.729 305.766 158.047 305.81 158.359C305.855 158.671 306 158.96 306.224 159.182C306.447 159.405 306.737 159.548 307.05 159.59C322.444 161.669 331.554 157.307 340.364 153.089C347.209 149.812 353.701 146.708 362.773 147.141C362.436 148.061 361.9 149.313 361.088 150.728C359.538 153.425 356.63 157.292 351.573 160.394C350.969 160.764 350.722 161.518 350.989 162.175C351.256 162.832 351.959 163.2 352.65 163.043C353.856 162.769 380.043 156.7 390.714 143.033C391.858 153.389 396.198 158.508 400.412 163.478C405.383 169.341 410.078 174.878 408.98 189.462C408.965 189.661 408.991 189.861 409.057 190.049C409.123 190.237 409.227 190.41 409.363 190.556C409.498 190.702 409.662 190.819 409.845 190.899C410.027 190.979 410.225 191.02 410.424 191.02Z" fill="#3375E0"/>
<path d="M421.102 182.477C421.295 182.477 421.486 182.438 421.664 182.363C421.842 182.288 422.003 182.178 422.138 182.04C428.29 175.735 435.855 165.08 436.955 150.128C436.984 149.745 436.859 149.367 436.608 149.076C436.357 148.785 436.001 148.605 435.618 148.577C435.235 148.549 434.857 148.675 434.566 148.926C434.275 149.177 434.096 149.532 434.067 149.915C433.031 163.995 425.881 174.056 420.066 180.015C419.866 180.219 419.732 180.477 419.679 180.758C419.626 181.038 419.656 181.327 419.767 181.59C419.878 181.853 420.063 182.077 420.301 182.235C420.538 182.393 420.817 182.477 421.102 182.477ZM438.169 244.323C464.598 247.373 477.658 274.527 477.658 296.672C463.752 290.597 448.331 290.512 438.169 297.26C442.26 280.406 442.181 257.803 438.169 244.323Z" fill="white"/>
<path d="M438.168 298.709C438.453 298.709 438.732 298.625 438.969 298.468C448.413 292.196 463.372 292.012 477.079 298C477.299 298.097 477.54 298.137 477.78 298.116C478.019 298.096 478.25 298.017 478.451 297.885C478.653 297.753 478.818 297.573 478.932 297.362C479.047 297.15 479.106 296.913 479.106 296.672C479.106 272.878 464.817 245.94 438.335 242.884C438.097 242.857 437.856 242.889 437.633 242.978C437.411 243.066 437.214 243.209 437.06 243.392C436.906 243.576 436.8 243.795 436.751 244.029C436.703 244.264 436.713 244.507 436.781 244.737C440.753 258.08 440.744 280.513 436.762 296.918C436.71 297.132 436.707 297.354 436.754 297.568C436.8 297.782 436.895 297.983 437.03 298.156C437.166 298.328 437.339 298.468 437.536 298.563C437.733 298.659 437.949 298.709 438.168 298.709ZM440.147 246.071C462.812 249.978 475.36 273.173 476.168 294.486C463.323 289.439 450.055 289.417 440.299 294.349C443.466 278.781 443.413 259.078 440.147 246.071Z" fill="#3375E0"/>
<path d="M303.809 312.237C282.051 299.926 263.334 300.328 253.502 299.275C232.751 297.052 236.788 315.193 254.106 319.021C259.649 320.246 277.543 326.388 277.543 326.388" fill="white"/>
<path d="M277.543 327.838C277.886 327.838 278.218 327.716 278.48 327.494C278.741 327.273 278.916 326.965 278.972 326.627C279.029 326.289 278.963 325.941 278.788 325.646C278.612 325.352 278.338 325.129 278.013 325.018C277.279 324.766 259.978 318.835 254.419 317.606C245.498 315.634 240.271 309.625 240.986 305.251C241.575 301.645 246.196 299.947 253.348 300.716C254.802 300.872 256.47 300.998 258.236 301.131C268.809 301.931 284.788 303.139 303.096 313.499C303.262 313.592 303.444 313.652 303.633 313.676C303.821 313.699 304.013 313.685 304.196 313.634C304.379 313.583 304.551 313.496 304.701 313.379C304.85 313.262 304.976 313.116 305.069 312.95C305.163 312.785 305.223 312.602 305.246 312.414C305.269 312.225 305.255 312.033 305.204 311.85C305.153 311.666 305.067 311.495 304.95 311.345C304.832 311.195 304.687 311.07 304.521 310.976C285.651 300.298 269.284 299.06 258.454 298.242C256.636 298.104 255.066 297.985 253.656 297.834C240.533 296.428 238.452 302.797 238.127 304.783C237.203 310.441 242.929 318.034 253.793 320.436C259.193 321.63 276.895 327.698 277.073 327.759C277.229 327.812 277.388 327.838 277.543 327.838Z" fill="#3375E0"/>
<path d="M284.386 324.647C268.556 318.067 254.693 321.479 251.291 330.033C248.268 337.636 254.113 350.769 258.29 352.699C266.516 356.501 269.974 349.062 269.974 349.062" fill="white"/>
<path d="M262.751 355.245C268.613 355.245 271.254 349.743 271.287 349.673C271.367 349.5 271.412 349.313 271.421 349.123C271.429 348.933 271.399 348.743 271.334 348.565C271.269 348.386 271.169 348.222 271.04 348.082C270.912 347.942 270.757 347.828 270.584 347.748C270.412 347.668 270.226 347.622 270.036 347.614C269.846 347.606 269.656 347.636 269.477 347.701C269.299 347.766 269.135 347.866 268.995 347.995C268.855 348.123 268.741 348.278 268.661 348.451C268.366 349.069 265.561 354.463 258.897 351.383C255.428 349.781 249.896 337.462 252.637 330.568C253.714 327.861 256.02 325.697 259.306 324.31C265.673 321.622 274.841 322.249 283.831 325.985C284.184 326.126 284.578 326.121 284.929 325.973C285.279 325.825 285.557 325.545 285.703 325.194C285.849 324.843 285.85 324.448 285.708 324.095C285.566 323.743 285.29 323.46 284.942 323.309C275.106 319.221 265.352 318.613 258.18 321.64C254.163 323.335 251.316 326.053 249.946 329.497C246.709 337.638 252.675 351.7 257.683 354.015C259.584 354.893 261.271 355.244 262.751 355.245Z" fill="#3375E0"/>
<path d="M279.218 342.167C268.587 337.205 255.525 336.607 251.639 345.162C247.051 355.259 253.094 364.971 262.628 369.396C270.51 373.056 274.852 366.289 274.629 362.614L266.214 357.829L271.842 361.029" fill="white"/>
<path d="M266.969 371.888C268.763 371.888 270.443 371.385 271.913 370.383C274.837 368.388 276.22 364.92 276.075 362.526C276.061 362.285 275.986 362.052 275.859 361.847C275.731 361.643 275.555 361.473 275.345 361.354L272.57 359.776L272.558 359.769L266.93 356.569C266.597 356.381 266.202 356.334 265.834 356.436C265.465 356.539 265.152 356.783 264.963 357.116C264.773 357.449 264.724 357.844 264.824 358.213C264.925 358.583 265.168 358.897 265.499 359.088L273.152 363.44C272.948 364.947 271.933 366.862 270.281 367.989C268.362 369.297 265.927 369.33 263.237 368.082C251.65 362.703 249.786 352.741 252.957 345.761C253.979 343.513 255.789 341.895 258.337 340.953C263.451 339.063 271.218 340.032 278.606 343.48C278.778 343.561 278.965 343.606 279.155 343.615C279.345 343.623 279.534 343.594 279.713 343.529C279.892 343.464 280.056 343.364 280.196 343.236C280.336 343.107 280.45 342.952 280.53 342.779C280.611 342.607 280.656 342.42 280.665 342.23C280.673 342.04 280.644 341.85 280.579 341.672C280.514 341.493 280.414 341.328 280.286 341.188C280.157 341.048 280.002 340.934 279.83 340.854C271.766 337.089 263.146 336.087 257.333 338.235C254.033 339.454 251.674 341.583 250.32 344.562C245.216 355.795 252.342 366.219 262.018 370.711C263.712 371.497 265.385 371.888 266.969 371.888Z" fill="#3375E0"/>
<path d="M229.507 411.508L205.038 405.896C217.078 426.51 202.563 483.122 174.729 489.279L199.999 497.953C233.271 491.496 241.814 438.28 229.507 411.508Z" fill="white"/>
<path d="M199.999 499.402C200.092 499.402 200.184 499.393 200.275 499.375C211.883 497.122 221.46 489.219 227.972 476.519C237.896 457.164 239.122 428.955 230.823 410.902C230.73 410.701 230.592 410.523 230.42 410.383C230.248 410.244 230.047 410.145 229.831 410.096L205.362 404.483C205.087 404.42 204.799 404.438 204.534 404.537C204.269 404.635 204.038 404.809 203.871 405.037C203.703 405.265 203.606 405.537 203.592 405.82C203.577 406.102 203.646 406.383 203.789 406.627C206.995 412.117 208.376 420.753 207.676 430.944C206.984 441.01 204.345 451.723 200.243 461.109C193.68 476.13 184.508 485.631 174.418 487.864C174.109 487.932 173.832 488.099 173.627 488.34C173.423 488.58 173.302 488.881 173.284 489.197C173.267 489.512 173.352 489.825 173.528 490.087C173.704 490.349 173.961 490.546 174.26 490.649L199.53 499.323C199.681 499.375 199.839 499.402 199.999 499.402ZM228.482 412.76C232.042 420.853 233.769 431.438 233.35 442.669C232.909 454.499 230.084 466.051 225.395 475.196C221.187 483.403 213.393 493.712 200.099 496.455L179.345 489.332C188.623 485.489 196.87 476.063 202.896 462.271C211.207 443.25 213.067 420.762 207.691 407.991L228.482 412.76Z" fill="#3375E0"/>
<path d="M133.953 292.655C153.504 272.434 176.298 274.681 186.084 276.098C206.646 279.075 195.841 297.02 178.321 294.262C172.714 293.379 163.382 300.005 163.382 300.005" fill="white"/>
<path d="M163.383 301.454C163.672 301.454 163.964 301.368 164.219 301.187C166.684 299.439 173.986 295.045 178.096 295.693C187.13 297.117 193.694 293.423 196.571 289.83C198.668 287.212 199.278 284.208 198.245 281.589C196.45 277.036 190.754 275.31 186.291 274.664C180.928 273.887 172.721 273.06 163.408 274.839C151.815 277.053 141.555 282.708 132.912 291.648C132.778 291.784 132.673 291.946 132.603 292.123C132.532 292.3 132.497 292.49 132.499 292.681C132.502 292.872 132.543 293.06 132.618 293.235C132.694 293.41 132.804 293.569 132.941 293.702C133.078 293.834 133.24 293.939 133.417 294.009C133.595 294.079 133.784 294.113 133.975 294.109C134.166 294.105 134.354 294.064 134.529 293.987C134.704 293.911 134.861 293.8 134.993 293.662C143.213 285.16 152.956 279.785 163.951 277.685C172.835 275.988 180.719 276.785 185.876 277.531C191.112 278.29 194.548 280.108 195.551 282.652C196.202 284.302 195.761 286.207 194.311 288.018C190.728 292.493 183.809 293.657 178.546 292.83C175.913 292.414 172.395 293.317 168.091 295.511C164.998 297.087 162.642 298.753 162.543 298.823C162.388 298.933 162.256 299.073 162.155 299.234C162.054 299.395 161.985 299.574 161.954 299.762C161.922 299.949 161.927 300.141 161.969 300.327C162.012 300.512 162.09 300.688 162.2 300.843C162.334 301.032 162.511 301.186 162.717 301.293C162.923 301.399 163.151 301.455 163.383 301.454Z" fill="#3375E0"/>
<path d="M153.9 299.606C164.238 293.031 172.613 289.676 181.743 290.808C191.184 291.979 195.883 294.293 201.55 296.303C211.073 299.681 206.669 314.756 191.486 312.944C188.584 312.597 183.159 312.017 182.092 311.393C180.669 310.559 171.929 316.803 171.929 316.803" fill="white"/>
<path d="M171.93 318.253C172.232 318.253 172.525 318.159 172.77 317.983C176.128 315.584 180.382 312.994 181.627 312.779C182.825 313.314 185.497 313.7 190.377 314.272L191.315 314.383C200.879 315.525 206.546 310.443 207.762 305.239C208.829 300.672 206.527 296.533 202.034 294.938C200.994 294.569 199.962 294.181 198.964 293.805C194.448 292.104 189.779 290.345 181.922 289.371C173.226 288.292 164.884 290.904 153.124 298.383C152.805 298.592 152.581 298.917 152.501 299.29C152.421 299.662 152.49 300.051 152.694 300.373C152.899 300.694 153.221 300.922 153.592 301.008C153.963 301.093 154.353 301.029 154.677 300.829C165.815 293.745 173.604 291.259 181.565 292.246C189.081 293.178 193.586 294.875 197.943 296.517C198.954 296.898 200 297.291 201.066 297.67C204.146 298.762 205.668 301.474 204.942 304.579C204.01 308.567 199.459 312.435 191.658 311.505L190.715 311.394C188.604 311.146 183.662 310.567 182.812 310.135C182.156 309.751 180.589 308.836 171.088 315.624C170.933 315.735 170.802 315.875 170.701 316.036C170.6 316.198 170.532 316.377 170.501 316.565C170.47 316.753 170.476 316.945 170.519 317.13C170.561 317.315 170.64 317.49 170.751 317.645C170.885 317.834 171.062 317.987 171.267 318.093C171.472 318.198 171.7 318.253 171.93 318.253Z" fill="#3375E0"/>
<path d="M162.961 314.034C170.118 308.248 173.765 306.614 182.075 306.273C190.31 305.935 194.95 309.332 200.855 313.005C213.987 321.174 201.61 331.72 192.788 328.606C188.658 327.148 186.15 325.72 184.052 325.836C182.134 325.943 179.289 327.988 177.997 331.337" fill="white"/>
<path d="M177.997 332.786C178.29 332.786 178.575 332.697 178.817 332.532C179.058 332.366 179.243 332.131 179.348 331.858C180.457 328.984 182.839 327.354 184.132 327.283C185.266 327.215 186.768 327.821 188.852 328.653C189.86 329.055 191.002 329.511 192.306 329.972C197.86 331.932 204.841 329.257 207.246 324.247C209.322 319.92 207.219 315.258 201.62 311.774C201.15 311.482 200.689 311.192 200.233 310.906C194.993 307.609 190.047 304.499 182.016 304.825C173.575 305.171 169.657 306.757 162.051 312.907C161.902 313.026 161.777 313.173 161.685 313.341C161.593 313.508 161.534 313.692 161.513 313.882C161.492 314.072 161.509 314.264 161.563 314.448C161.617 314.631 161.706 314.802 161.826 314.951C161.946 315.1 162.095 315.223 162.263 315.315C162.431 315.406 162.615 315.463 162.805 315.482C162.995 315.502 163.187 315.483 163.37 315.428C163.553 315.373 163.723 315.282 163.871 315.161C170.96 309.43 174.374 308.039 182.135 307.721C189.265 307.424 193.424 310.046 198.692 313.359C199.152 313.649 199.617 313.941 200.09 314.236C204.434 316.938 206.048 320.048 204.635 322.993C203.068 326.258 197.761 328.825 193.27 327.239C192.021 326.798 190.908 326.354 189.925 325.962C187.588 325.029 185.741 324.292 183.972 324.389C181.571 324.523 178.188 326.82 176.647 330.815C176.562 331.034 176.532 331.271 176.559 331.505C176.586 331.739 176.67 331.962 176.803 332.156C176.936 332.35 177.114 332.509 177.322 332.619C177.53 332.729 177.762 332.786 177.997 332.786Z" fill="#3375E0"/>
<path d="M435.604 421.508L410.032 421.51C429.973 452.318 412.933 490.046 397.28 499.529L424.832 506.087C449.675 491.066 448.94 437.883 435.604 421.508Z" fill="white"/>
<path d="M424.833 507.535C425.097 507.535 425.356 507.463 425.582 507.327C435.246 501.483 442.106 489.397 444.897 473.294C448.374 453.238 444.861 430.581 436.727 420.593C436.591 420.426 436.42 420.291 436.226 420.199C436.032 420.106 435.82 420.059 435.605 420.059L410.032 420.061C409.501 420.061 409.013 420.351 408.76 420.818C408.635 421.047 408.575 421.305 408.585 421.565C408.595 421.826 408.675 422.079 408.817 422.298C417.069 435.047 419.624 450.739 416.009 466.481C412.323 482.535 403.57 494.024 396.531 498.289C396.285 498.438 396.089 498.657 395.968 498.918C395.847 499.178 395.806 499.469 395.85 499.753C395.895 500.037 396.023 500.301 396.218 500.512C396.412 500.723 396.666 500.872 396.945 500.938L424.497 507.496C424.607 507.522 424.72 507.535 424.833 507.535ZM434.901 422.957C438.325 427.468 440.949 434.786 442.318 443.678C443.766 453.082 443.669 463.424 442.043 472.799C439.447 487.777 433.256 499.017 424.582 504.537L400.753 498.866C408.752 492.526 415.815 480.272 418.832 467.13C422.415 451.524 420.207 435.946 412.624 422.959L434.901 422.957Z" fill="#3375E0"/>
</g>
<g clip-path="url(#clip2_5391_3982)">
<path d="M90.825 95.9502C85.9258 78.7731 94.0909 56.3069 115.729 44.8698C150.356 26.5662 213.159 45.3806 211.197 75.322C236.589 49.3633 275.766 73.0477 263.492 106.649C281.481 107.554 287.325 143.111 261.904 145.674C267.785 162.653 251.756 193.033 216.976 198.049C164.791 205.575 142.831 187.73 133.692 172.752C119.302 181.651 87.5573 176.494 74.7536 156.294C59.7886 132.684 70.0476 101.9 90.825 95.9505V95.9502Z" fill="white"/>
<path d="M193.796 201.273C201.097 201.273 208.899 200.676 217.183 199.482C234.837 196.936 249.829 187.48 258.314 173.54C263.808 164.515 265.792 154.701 263.779 146.884C269.087 145.998 273.399 143.573 276.321 139.812C279.116 136.213 280.584 131.403 280.455 126.267C280.221 116.94 274.595 107.041 265.443 105.416C267.821 97.9217 267.864 90.4744 265.549 83.7726C263.282 77.2091 258.751 71.5238 252.79 67.7638C246.633 63.88 239.243 62.21 231.979 63.0604C224.997 63.8779 218.355 66.9522 212.598 72.0014C211.825 63.5524 206.127 55.5317 196.239 49.1188C185.88 42.4 171.482 37.8225 156.737 36.5594C140.985 35.2109 126.182 37.707 115.053 43.5896C104.564 49.1336 96.5941 57.4584 92.0058 67.6636C87.9742 76.6299 86.9485 86.2728 89.0728 94.9838C80.2307 98.0154 73.0111 105.488 69.1297 115.699C64.0073 129.174 65.6529 144.64 73.5314 157.07C79.5483 166.563 90.3956 173.77 103.292 176.844C114.465 179.506 125.75 178.671 133.207 174.699C139.098 183.786 147.649 190.673 158.643 195.179C168.544 199.238 180.312 201.273 193.796 201.273ZM235.723 65.797C241.496 65.797 246.903 67.4742 251.246 70.2137C260.249 75.8928 268.502 88.7125 262.133 106.152C262.055 106.365 262.028 106.594 262.055 106.819C262.081 107.044 262.16 107.26 262.285 107.449C262.411 107.638 262.578 107.795 262.775 107.908C262.972 108.02 263.193 108.084 263.419 108.096C271.995 108.527 277.344 117.711 277.561 126.34C277.758 134.2 273.71 143.028 261.759 144.233C261.542 144.255 261.332 144.326 261.146 144.441C260.96 144.555 260.802 144.71 260.684 144.895C260.567 145.079 260.492 145.287 260.467 145.504C260.441 145.722 260.465 145.942 260.537 146.148C263.048 153.401 261.293 163.078 255.842 172.034C247.807 185.234 233.566 194.193 216.77 196.616C166.009 203.937 144.245 187.269 134.927 171.998C134.828 171.835 134.697 171.693 134.543 171.581C134.389 171.468 134.214 171.388 134.028 171.343C133.843 171.299 133.65 171.292 133.462 171.322C133.274 171.352 133.093 171.42 132.931 171.52C126.156 175.71 115.056 176.671 103.963 174.027C91.7934 171.126 81.5923 164.38 75.9755 155.519C68.5833 143.856 67.0354 129.355 71.8351 116.728C75.5851 106.863 82.6517 99.7969 91.2231 97.3428C91.592 97.2372 91.9038 96.9894 92.0901 96.6538C92.2764 96.3183 92.3219 95.9224 92.2167 95.5533C87.7068 79.7407 94.5672 57.6937 116.405 46.1506C140.205 33.5702 175.558 39.1577 194.664 51.5491C204.958 58.2248 210.316 66.634 209.753 75.2274C209.734 75.5225 209.805 75.8165 209.958 76.0698C210.111 76.3231 210.337 76.5236 210.607 76.6443C210.877 76.7648 211.177 76.7997 211.468 76.7445C211.758 76.6892 212.025 76.5464 212.231 76.3352C219.587 68.8152 227.983 65.797 235.723 65.797Z" fill="#3375E0"/>
<path d="M289.502 95.1481C281.737 95.1481 275.441 88.8493 275.441 81.0794C275.441 73.3095 281.737 67.0107 289.502 67.0107C297.268 67.0107 303.563 73.3095 303.563 81.0794C303.563 88.8493 297.268 95.1481 289.502 95.1481Z" fill="white"/>
<path d="M289.502 96.5978C296.492 96.5978 302.854 91.8281 304.573 84.7371C306.589 76.4225 301.468 68.017 293.157 66.0001C289.132 65.0227 284.967 65.6732 281.43 67.8305C277.893 69.9878 275.407 73.3941 274.431 77.422C273.454 81.4499 274.104 85.6172 276.26 89.156C278.416 92.6948 281.821 95.1819 285.846 96.159C287.043 96.4502 288.27 96.5977 289.502 96.5982L289.502 96.5978ZM289.479 68.4539C290.476 68.4539 291.481 68.5734 292.475 68.8145C299.234 70.4549 303.399 77.2913 301.76 84.0543C300.12 90.8173 293.287 94.9843 286.528 93.3443C283.254 92.5496 280.485 90.5266 278.731 87.6485C276.978 84.7701 276.449 81.3808 277.243 78.1048C278.038 74.8288 280.06 72.0583 282.936 70.3035C284.94 69.0817 287.191 68.4543 289.478 68.4543L289.479 68.4539Z" fill="#3375E0"/>
<path d="M320.709 102.927C316.416 102.927 312.937 99.4455 312.937 95.1509C312.937 90.8564 316.416 87.375 320.709 87.375C325.001 87.375 328.48 90.8564 328.48 95.1509C328.48 99.4455 325.001 102.927 320.709 102.927Z" fill="white"/>
<path d="M320.726 104.378C322.398 104.378 324.043 103.92 325.508 103.027C327.61 101.745 329.088 99.7196 329.668 97.3251C330.249 94.9307 329.863 92.4533 328.581 90.3496C327.299 88.2459 325.275 86.7674 322.882 86.1867C317.941 84.988 312.948 88.0341 311.75 92.9765C310.551 97.9192 313.596 102.916 318.536 104.115C319.253 104.289 319.988 104.378 320.726 104.378ZM320.709 88.8222C321.201 88.8222 321.701 88.8801 322.2 89.0011C325.589 89.8236 327.677 93.2516 326.855 96.6423C326.661 97.4508 326.309 98.2128 325.819 98.8843C325.329 99.5557 324.711 100.123 324.001 100.554C323.292 100.989 322.505 101.278 321.684 101.407C320.863 101.535 320.025 101.499 319.218 101.301C315.829 100.478 313.74 97.05 314.562 93.6592C315.263 90.7677 317.858 88.8222 320.709 88.8222H320.709ZM228.275 149.544C249.248 165.639 116.591 166.81 99.662 147.788C86.4377 132.93 213.108 137.904 228.275 149.544Z" fill="#3375E0"/>
<path d="M178.782 163.276C197.155 163.276 213.765 161.883 222.958 159.368C228.575 157.831 231.415 155.972 231.897 153.517C232.238 151.776 231.316 150.052 229.156 148.395C221.687 142.663 190.198 138.843 162.305 137.599C152.876 137.178 105.48 135.472 98.3226 143.178C97.6008 143.955 96.181 146.054 98.5806 148.751C107.316 158.565 141.721 161.692 156.107 162.581C163.657 163.044 171.218 163.276 178.782 163.276ZM141.657 140.014C148.038 140.014 154.93 140.17 162.176 140.493C194.635 141.94 221.454 146.134 227.394 150.693C228.558 151.586 229.163 152.412 229.056 152.959C228.996 153.266 228.383 154.882 222.194 156.575C209.575 160.028 182.472 161.308 156.286 159.69C127.07 157.885 106.306 153.076 100.743 146.824C99.8347 145.805 100.158 145.457 100.443 145.15C103.466 141.896 119.458 140.014 141.657 140.014Z" fill="#3375E0"/>
<path d="M213.692 147.581C193.465 126.599 135.311 129.679 117.251 141.614C105.421 149.432 127.004 143.603 132.061 150.234C137.118 156.864 142.535 148.576 149.76 150.234C156.984 151.891 163.485 158.109 170.348 152.845C177.211 147.581 185.158 149.902 190.937 152.886C196.716 155.87 199.606 148.576 205.024 149.571C210.442 150.565 213.692 147.581 213.692 147.581H213.692Z" fill="white"/>
<path d="M164.536 156.382C166.725 156.382 168.953 155.74 171.228 153.994C176.22 150.165 182.627 150.226 190.272 154.173C194.193 156.197 197.154 154.308 199.534 152.789C201.332 151.642 202.885 150.651 204.762 150.995C210.818 152.109 214.516 148.79 214.67 148.649C214.812 148.518 214.927 148.36 215.007 148.185C215.088 148.009 215.132 147.819 215.138 147.626C215.144 147.433 215.111 147.24 215.042 147.06C214.972 146.88 214.867 146.715 214.733 146.576C205.478 136.975 187.236 131.227 164.686 130.806C145.08 130.436 125.696 134.297 116.453 140.405C113.605 142.288 111.929 143.797 112.376 145.503C112.882 147.435 115.458 147.619 119.358 147.897C123.419 148.187 128.981 148.584 130.909 151.112C134.509 155.832 138.515 154.279 142.051 152.908C144.407 151.995 146.843 151.05 149.435 151.646C151.439 152.106 153.464 152.973 155.421 153.811C158.393 155.084 161.424 156.382 164.536 156.382L164.536 156.382ZM179.574 148.244C175.845 148.244 172.468 149.394 169.467 151.696C165.3 154.892 161.25 153.157 156.561 151.148C154.486 150.259 152.34 149.34 150.083 148.822C146.625 148.029 143.64 149.186 141.006 150.207C137.281 151.651 135.394 152.218 133.211 149.355C130.49 145.788 124.432 145.355 119.565 145.008C118.277 144.916 116.638 144.799 115.668 144.61C116.067 144.236 116.781 143.66 118.049 142.822C134.802 131.751 190.327 127.967 211.395 147.361C210.145 147.991 208.052 148.655 205.284 148.146C202.289 147.596 199.999 149.058 197.978 150.347C195.463 151.952 193.927 152.801 191.6 151.599C187.268 149.363 183.25 148.244 179.574 148.244L179.574 148.244Z" fill="#3375E0"/>
<path d="M121.473 89.2676C116.246 89.2676 112.009 85.0283 112.009 79.7989C112.009 74.5694 116.246 70.3301 121.473 70.3301C126.699 70.3301 130.937 74.5694 130.937 79.7989C130.937 85.0283 126.699 89.2676 121.473 89.2676Z" fill="#A8CFFB"/>
<path d="M121.474 90.7152C127.49 90.7152 132.385 85.8181 132.385 79.7984C132.385 73.7786 127.49 68.8818 121.474 68.8818C115.457 68.8818 110.563 73.779 110.563 79.7984C110.563 85.8178 115.457 90.7152 121.474 90.7152ZM121.474 71.778C125.894 71.778 129.49 75.3758 129.49 79.7984C129.49 84.2209 125.894 87.819 121.474 87.819C117.053 87.819 113.457 84.2212 113.457 79.7984C113.457 75.3755 117.053 71.778 121.474 71.778Z" fill="#3375E0"/>
<path d="M189.798 135.36C189.798 135.36 189.64 100.674 166.03 86.0508L163.724 89.8756C163.724 89.8756 178.947 109.842 176.761 133.043L189.798 135.36Z" fill="white"/>
<path d="M189.798 136.809C189.988 136.809 190.177 136.771 190.353 136.698C190.529 136.625 190.689 136.518 190.824 136.383C190.958 136.247 191.065 136.087 191.137 135.911C191.209 135.734 191.246 135.545 191.245 135.354C191.244 134.992 191.17 126.362 188.159 115.793C184.146 101.703 176.757 90.9924 166.791 84.8198C166.629 84.7188 166.448 84.6512 166.258 84.6208C166.069 84.5905 165.876 84.598 165.69 84.6429C165.504 84.6879 165.328 84.7694 165.174 84.8828C165.02 84.9961 164.889 85.139 164.791 85.3031L162.484 89.1279C162.334 89.3766 162.262 89.6645 162.278 89.9544C162.294 90.2443 162.396 90.5228 162.572 90.7538C162.72 90.9493 177.425 110.564 175.319 132.908C175.285 133.27 175.388 133.631 175.608 133.921C175.828 134.21 176.149 134.406 176.507 134.469L189.544 136.787C189.628 136.802 189.712 136.809 189.797 136.809L189.798 136.809ZM166.498 88.0777C185.072 100.611 187.863 126.646 188.278 133.62L178.309 131.848C179.699 111.268 168.254 93.7449 165.459 89.7999L166.498 88.0777Z" fill="#3375E0"/>
<path d="M161.531 80.2349C163.724 63.943 192.724 65.6757 194.72 79.4225C185.754 75.3768 176.531 78.0776 172.194 82.9291C182.327 81.2905 193.137 89.0973 190.357 100.902C184.684 95.7173 176.815 93.0209 169.156 93.6378C164.606 98.0686 163.14 107.567 164.265 114.131C156.745 110.705 151.342 101.178 154.675 92.8171C148.178 95.2843 141.066 98.4205 139.308 103.521C133.362 94.0226 143.118 73.7282 161.531 80.2352L161.531 80.2349Z" fill="#A8CFFB"/>
<path d="M164.266 115.579C164.477 115.579 164.685 115.533 164.876 115.445C165.067 115.356 165.237 115.226 165.373 115.065C165.509 114.904 165.608 114.715 165.663 114.511C165.718 114.307 165.728 114.094 165.692 113.886C164.674 107.945 165.974 99.2131 169.808 95.0436C176.873 94.6316 184.155 97.1955 189.381 101.971C189.568 102.142 189.795 102.26 190.041 102.315C190.287 102.37 190.544 102.36 190.785 102.286C191.026 102.211 191.243 102.075 191.415 101.891C191.587 101.706 191.708 101.48 191.766 101.235C193.041 95.8242 191.766 90.7207 188.178 86.8647C185.191 83.6558 180.954 81.6972 176.485 81.3265C180.95 78.7257 187.623 77.8087 194.126 80.7433C194.362 80.8498 194.623 80.8907 194.881 80.8619C195.139 80.833 195.384 80.7353 195.591 80.5791C195.799 80.4229 195.96 80.2139 196.059 79.9739C196.158 79.7339 196.19 79.4717 196.153 79.2148C194.991 71.2133 185.998 67.0822 177.709 67.1144C170.832 67.1506 162.474 70.1551 160.418 78.3633C152.617 76.1673 145.475 78.3021 140.635 84.3476C135.824 90.3561 134.727 98.9296 138.083 104.29C138.228 104.522 138.435 104.708 138.681 104.827C138.927 104.945 139.202 104.992 139.474 104.961C139.745 104.93 140.002 104.823 140.215 104.651C140.428 104.48 140.589 104.252 140.677 103.994C141.974 100.234 146.883 97.5311 152.474 95.2391C150.899 103.689 156.506 112.187 163.667 115.449C163.855 115.535 164.059 115.579 164.266 115.579H164.266ZM171.292 92.1043C170.54 92.1043 169.789 92.134 169.04 92.1945C168.704 92.2216 168.388 92.3651 168.147 92.6003C163.788 96.8454 162.111 104.9 162.509 111.464C157.059 107.671 153.327 100.112 156.021 93.3541C156.125 93.093 156.151 92.8073 156.095 92.5319C156.04 92.2564 155.905 92.0031 155.708 91.8027C155.511 91.6023 155.261 91.4635 154.986 91.4033C154.712 91.3431 154.426 91.364 154.163 91.4636C148.544 93.5973 142.502 96.1775 139.447 100.252C138.247 95.9693 139.524 90.3673 142.894 86.1584C147.246 80.7223 153.864 79.0616 161.05 81.6009C161.253 81.6724 161.469 81.6977 161.683 81.6751C161.897 81.6525 162.103 81.5826 162.287 81.4703C162.47 81.3581 162.627 81.2064 162.744 81.0262C162.862 80.846 162.938 80.6419 162.967 80.4287C163.994 72.7906 171.559 70.0429 177.725 70.0106C183.736 69.9817 190.142 72.3707 192.471 77.0256C183.74 74.3325 175.338 77.2417 171.116 81.964C170.917 82.1872 170.792 82.4666 170.758 82.7638C170.724 83.061 170.782 83.3614 170.926 83.6239C171.069 83.8863 171.291 84.0979 171.559 84.2295C171.827 84.3612 172.13 84.4065 172.425 84.3592C177.424 83.5511 182.775 85.3095 186.059 88.8385C188.434 91.3904 189.554 94.6353 189.317 98.1567C184.187 94.2798 177.72 92.1047 171.292 92.1047V92.1043Z" fill="#3375E0"/>
<path d="M189.798 135.36L176.673 122.833L185.716 112.81L172.34 105.785L176.292 95.1504" fill="white"/>
<path d="M189.798 136.809C190.087 136.809 190.37 136.722 190.609 136.56C190.848 136.398 191.034 136.168 191.141 135.899C191.249 135.631 191.274 135.336 191.212 135.053C191.151 134.771 191.006 134.513 190.797 134.313L178.691 122.759L186.791 113.781C186.939 113.617 187.047 113.422 187.108 113.209C187.169 112.997 187.18 112.774 187.141 112.556C187.102 112.339 187.015 112.134 186.884 111.955C186.754 111.777 186.584 111.631 186.389 111.529L174.141 105.097L177.649 95.656C177.715 95.4778 177.746 95.2882 177.739 95.0982C177.732 94.9081 177.688 94.7213 177.609 94.5484C177.529 94.3755 177.417 94.2199 177.278 94.0905C177.138 93.9611 176.975 93.8603 176.797 93.7941C176.619 93.7277 176.429 93.6972 176.239 93.7041C176.049 93.711 175.863 93.7553 175.69 93.8345C175.517 93.9137 175.362 94.0262 175.232 94.1655C175.103 94.3049 175.002 94.4684 174.936 94.6467L170.984 105.282C170.861 105.612 170.863 105.975 170.989 106.304C171.115 106.633 171.356 106.905 171.668 107.068L183.392 113.225L175.598 121.864C175.346 122.144 175.212 122.511 175.226 122.888C175.24 123.265 175.401 123.622 175.673 123.882L188.799 136.408C189.067 136.666 189.425 136.809 189.797 136.809L189.798 136.809Z" fill="#3375E0"/>
</g>
<defs>
<clipPath id="clip0_5391_3982">
<rect width="87.9088" height="114.033" fill="white" transform="matrix(-1 0 0 1 232.614 231.685)"/>
</clipPath>
<clipPath id="clip1_5391_3982">
<rect width="435.203" height="423.911" fill="white" transform="matrix(-1 0 0 1 549.521 83.624)"/>
</clipPath>
<clipPath id="clip2_5391_3982">
<rect width="263.727" height="165.076" fill="white" transform="matrix(-1 0 0 1 329.93 36.2012)"/>
</clipPath>
</defs>
</svg>
