<svg width="137" height="134" viewBox="0 0 137 134" fill="none" xmlns="http://www.w3.org/2000/svg">
<mask id="mask0_384_14433" style="mask-type:luminance" maskUnits="userSpaceOnUse" x="49" y="52" width="83" height="82">
<path d="M49.5801 52.5566H131.047V133.367H49.5801V52.5566Z" fill="white"/>
</mask>
<g mask="url(#mask0_384_14433)">
<path d="M128.049 98.2455C131.851 87.3799 130.798 77.1963 126.041 69.7107C125.232 68.4379 122.71 64.725 122.71 64.725C118.301 59.9285 112.576 58.1941 104.816 57.5061C84.7357 55.7259 62.5804 71.0792 55.3308 91.7987C52.0056 101.302 51.4397 109.396 54.7721 116.507C54.7721 116.507 57.2142 120.228 58.1365 121.516C62.5318 127.65 69.5786 131.742 78.5633 132.538C98.6439 134.318 120.799 118.965 128.049 98.2455Z" fill="#3375E0"/>
<path d="M81.7857 133.369C80.6836 133.369 79.5885 133.321 78.5028 133.225C69.6719 132.442 62.2403 128.426 57.5769 121.917C56.6568 120.633 54.2965 117.037 54.1964 116.885C54.1785 116.858 54.1625 116.829 54.1485 116.799C50.9086 109.885 51.0777 101.869 54.6809 91.5713C58.2348 81.414 65.4046 72.208 74.8698 65.6488C84.3484 59.0803 95.0057 55.9444 104.877 56.8198C113.772 57.6083 119.085 59.7635 123.217 64.2587C123.24 64.2835 123.261 64.3098 123.28 64.3377C123.383 64.4897 125.818 68.0739 126.623 69.341C129.098 73.2359 130.551 77.716 130.942 82.6562C131.344 87.7488 130.59 93.0704 128.699 98.4729C125.145 108.63 117.976 117.836 108.51 124.395C100.074 130.242 90.7044 133.368 81.7856 133.368L81.7857 133.369ZM55.3755 116.17C55.6456 116.581 57.8452 119.926 58.6971 121.115C63.123 127.292 70.2002 131.105 78.6245 131.852C98.3789 133.604 120.259 118.425 127.399 98.0184C129.226 92.7976 129.956 87.6658 129.568 82.7652C129.196 78.0515 127.813 73.7838 125.46 70.0806C124.712 68.9037 122.449 65.5684 122.169 65.1547C118.298 60.9637 113.248 58.9456 104.756 58.1929C85.0014 56.4408 63.1218 71.6192 55.9814 92.0265C52.5128 101.94 52.3201 109.614 55.3755 116.17Z" fill="#3375E0"/>
<path d="M125.293 94.1254C132.543 73.406 122.141 55.1663 102.061 53.386C81.9801 51.6058 59.8246 66.9592 52.5751 87.6786C45.3255 108.398 55.727 126.638 75.8075 128.418C95.8881 130.198 118.043 114.845 125.293 94.1254Z" fill="#A8CFFB"/>
<path d="M79.0305 129.248C77.9283 129.248 76.8333 129.2 75.7475 129.104C66.3982 128.275 58.71 123.882 54.0989 116.734C51.5818 112.832 50.0987 108.334 49.6912 103.365C49.2711 98.2434 50.0228 92.8891 51.9256 87.451C55.4795 77.2939 62.6493 68.0878 72.1145 61.5285C81.5933 54.96 92.2504 51.8243 102.122 52.6997C111.471 53.5285 119.16 57.9216 123.771 65.0697C126.288 68.9718 127.771 73.4698 128.178 78.4386C128.599 83.5604 127.847 88.9146 125.944 94.3528C122.39 104.51 115.22 113.716 105.755 120.275C97.3188 126.121 87.9492 129.248 79.0305 129.248ZM98.8632 53.9347C79.9819 53.9347 59.9904 68.5736 53.2262 87.906C51.3875 93.1609 50.6602 98.3242 51.0644 103.253C51.4533 107.993 52.8638 112.278 55.2568 115.987C59.6323 122.77 66.9526 126.941 75.8691 127.732C95.6235 129.482 117.503 114.305 124.644 93.8979C126.482 88.643 127.21 83.4796 126.805 78.5514C126.416 73.811 125.006 69.5264 122.613 65.8167C118.237 59.0337 110.917 54.8627 102 54.0723C100.96 53.98 99.913 53.9347 98.8632 53.9347Z" fill="#3375E0"/>
<path d="M78.6789 120.216C94.3694 121.607 111.681 109.61 117.346 93.4205C123.01 77.2309 114.883 62.9789 99.1924 61.5877C83.5019 60.1968 66.1903 72.1935 60.5257 88.3831C54.861 104.573 62.9885 118.825 78.6789 120.216Z" fill="white"/>
<path d="M81.1957 121.015C80.3302 121.015 79.4701 120.978 78.6175 120.902C71.2649 120.25 65.2172 116.793 61.5886 111.168C57.565 104.93 56.9403 96.5425 59.8748 88.1557C62.6621 80.1895 68.2846 72.9697 75.7064 67.8264C83.1416 62.6738 91.504 60.2152 99.2525 60.9015C106.605 61.5534 112.653 65.0102 116.282 70.6356C120.305 76.8732 120.93 85.2609 117.995 93.6479C115.208 101.614 109.586 108.834 102.164 113.977C95.5467 118.563 88.1952 121.015 81.1957 121.015ZM96.6905 62.1673C81.9978 62.1673 66.441 73.5618 61.1754 88.6109C58.3822 96.5939 58.9549 104.543 62.7465 110.421C66.1397 115.682 71.8194 118.916 78.7393 119.53C79.5479 119.601 80.3638 119.637 81.1797 119.637C95.8726 119.638 111.429 108.242 116.695 93.1931C119.488 85.2101 118.915 77.2606 115.124 71.3826C111.731 66.1223 106.051 62.8877 99.1311 62.2742C98.3224 62.2024 97.5066 62.1673 96.6907 62.1673H96.6905Z" fill="#3375E0"/>
<path d="M81.5484 112.014C92.8486 113.016 105.317 104.376 109.396 92.7159C113.476 81.0561 107.623 70.7917 96.3222 69.79C85.022 68.7881 72.5541 77.4283 68.4743 89.0881C64.3946 100.748 70.248 111.012 81.5484 112.014Z" fill="#A8CFFB"/>
<path d="M83.3608 112.783C82.7318 112.783 82.1071 112.755 81.4874 112.7C76.1314 112.226 71.7244 109.705 69.0782 105.603C66.1478 101.06 65.6907 94.9577 67.824 88.8608C69.8447 83.0854 73.9197 77.852 79.298 74.1248C84.69 70.3884 90.7578 68.6059 96.3829 69.104C101.739 69.5789 106.146 72.0995 108.792 76.2018C111.722 80.7445 112.18 86.8467 110.046 92.9436C108.025 98.7192 103.951 103.952 98.5721 107.68C93.7743 111.004 88.4411 112.783 83.3608 112.783ZM94.5175 70.3999C84.0145 70.3999 72.8908 78.5513 69.1244 89.3157C67.1326 95.0084 67.5377 100.673 70.236 104.856C72.6467 108.593 76.6858 110.891 81.6088 111.328C82.1869 111.379 82.7689 111.404 83.3522 111.404C93.8555 111.405 104.979 103.253 108.746 92.4884C110.737 86.7957 110.332 81.1315 107.634 76.9486C105.223 73.2113 101.184 70.9128 96.2611 70.4762C95.6831 70.425 95.1009 70.3999 94.5175 70.3999Z" fill="#3375E0"/>
<path d="M84.4178 103.812C91.3278 104.424 98.952 99.141 101.447 92.011C103.942 84.8809 100.362 78.6043 93.452 77.9917C86.5419 77.379 78.9178 82.6625 76.4229 89.7926C73.9283 96.9226 77.5075 103.199 84.4178 103.812Z" fill="white"/>
<path d="M85.505 104.549C85.1206 104.549 84.7386 104.532 84.3574 104.498C80.9981 104.2 78.2318 102.616 76.5677 100.036C74.7306 97.1886 74.4411 93.372 75.773 89.5653C78.3614 82.1676 86.3202 76.6676 93.5131 77.3057C96.8724 77.6035 99.6386 79.1881 101.303 81.7677C103.14 84.6154 103.429 88.432 102.097 92.2387C99.6462 99.2444 92.3779 104.549 85.505 104.549ZM84.479 103.126C91.083 103.711 98.4039 98.6233 100.797 91.7839C101.987 88.3812 101.75 85.0026 100.145 82.5147C98.7163 80.3002 96.3179 78.9378 93.3915 78.6785C86.7873 78.0927 79.4668 83.1809 77.0736 90.0207C75.8831 93.4232 76.1208 96.8018 77.7256 99.2897C79.1542 101.504 81.5525 102.867 84.479 103.126Z" fill="#3375E0"/>
<path d="M93.4973 91.3065C94.4071 88.7063 93.1017 86.4173 90.5817 86.1939C88.0617 85.9705 85.2813 87.8973 84.3716 90.4974C83.4618 93.0976 84.7672 95.3866 87.2872 95.61C89.8072 95.8334 92.5876 93.9066 93.4973 91.3065Z" fill="#A8CFFB"/>
<path d="M87.6777 96.3163C87.5268 96.3163 87.3766 96.3098 87.2271 96.2965C85.8646 96.1756 84.7389 95.5273 84.0573 94.4705C83.3136 93.3177 83.1915 91.7865 83.7221 90.27C84.7282 87.3951 87.8336 85.2575 90.6434 85.5077C92.006 85.6286 93.1317 86.2771 93.8134 87.3337C94.557 88.4865 94.6791 90.0175 94.1484 91.5341C93.196 94.2562 90.3618 96.3163 87.6777 96.3163ZM90.1722 86.8651C88.0472 86.8651 85.7909 88.5291 85.0225 90.7252C84.6333 91.8377 84.7034 92.9307 85.2151 93.7237C85.6612 94.4154 86.419 94.8417 87.3487 94.924C89.5678 95.1215 92.037 93.3961 92.8479 91.079C93.2371 89.9665 93.167 88.8737 92.6553 88.0806C92.2092 87.3889 91.4514 86.9626 90.5217 86.8803C90.4059 86.8699 90.2891 86.8649 90.1722 86.8649V86.8651Z" fill="#3375E0"/>
</g>
<mask id="mask1_384_14433" style="mask-type:luminance" maskUnits="userSpaceOnUse" x="45" y="57" width="46" height="36">
<path d="M45.3496 57.5698H90.7829V92.2794H45.3496V57.5698Z" fill="white"/>
</mask>
<g mask="url(#mask1_384_14433)">
<path d="M51.8617 64.6601L46.0273 67.3665L53.7955 72.7574L61.6732 71.4688L60.1237 63.6384L52.3555 58.2476L51.8617 64.6601Z" fill="#A8CFFB"/>
<path d="M53.7956 73.4354C53.6584 73.4354 53.5235 73.3937 53.4093 73.3144L45.641 67.9235C45.4414 67.7851 45.3313 67.5504 45.3521 67.3084C45.3731 67.0664 45.5219 66.8541 45.7422 66.7519L51.2164 64.2125L51.6797 58.1959C51.6984 57.9537 51.8453 57.74 52.0646 57.6356C52.2839 57.5311 52.5423 57.5523 52.7419 57.691L60.5101 63.0819C60.6547 63.1822 60.7545 63.3347 60.7887 63.5072L62.3381 71.3376C62.3737 71.5178 62.3347 71.7049 62.23 71.8557C62.1252 72.0065 61.9637 72.1085 61.7824 72.1382L53.9049 73.4267C53.8687 73.4327 53.8319 73.4355 53.7954 73.4355L53.7956 73.4354ZM47.3855 67.4839L53.9569 72.0443L60.8724 70.9131L59.5123 64.0392L52.9407 59.4787L52.5377 64.7123C52.5189 64.9566 52.3694 65.172 52.1471 65.275L47.3855 67.4839Z" fill="#3375E0"/>
<path d="M85.5051 82.0163C85.1701 81.9117 84.8142 81.9437 84.5036 82.1067C84.1923 82.2696 83.963 82.5438 83.8583 82.8791C83.7537 83.2142 83.7859 83.57 83.9489 83.8812L85.1401 86.1546L56.4424 66.2396C55.8469 65.8262 55.0264 65.9745 54.6131 66.57C54.1998 67.1655 54.3481 67.986 54.9435 68.3993L83.6412 88.3144L81.0946 87.9938C80.7462 87.9501 80.4015 88.0444 80.1246 88.2597C79.8468 88.4752 79.6702 88.7858 79.6265 89.1337C79.5825 89.4821 79.677 89.8267 79.8924 90.1041C80.1078 90.3815 80.4181 90.5582 80.7665 90.6021L88.6254 91.5911C89.1127 91.6524 89.5896 91.4399 89.8695 91.0363C90.1495 90.6326 90.1818 90.1119 89.9537 89.6767L86.2777 82.6607C86.1148 82.3496 85.8404 82.1208 85.5051 82.0163Z" fill="white"/>
<path d="M88.7917 92.2796C88.7083 92.2796 88.6245 92.2744 88.5402 92.2639L80.6815 91.2749C80.1539 91.2085 79.6833 90.9404 79.3569 90.5203C79.0302 90.0994 78.8871 89.5769 78.9539 89.0489C79.0202 88.521 79.2883 88.0504 79.709 87.7242C80.0812 87.4349 80.5323 87.2895 81.0005 87.3068L54.557 68.9564C53.6544 68.3301 53.4297 67.0862 54.056 66.1837C54.3592 65.7468 54.8147 65.4542 55.3387 65.3596C55.8628 65.2647 56.3919 65.3796 56.8287 65.6828L83.2721 84.0335C83.0928 83.6028 83.0704 83.1276 83.2109 82.6774C83.3697 82.169 83.7171 81.7531 84.1892 81.5061C84.6593 81.2593 85.1985 81.2105 85.7069 81.3691C86.2153 81.5279 86.6311 81.8748 86.878 82.3464L90.5539 89.3622C90.8996 90.0216 90.8507 90.8111 90.4262 91.4228C90.05 91.9648 89.4399 92.2796 88.7919 92.2796H88.7917ZM80.929 88.6615C80.7885 88.6615 80.6527 88.7076 80.5401 88.7952C80.4035 88.9011 80.3203 89.0473 80.2987 89.2185C80.2771 89.39 80.3216 89.5525 80.4275 89.6889C80.5333 89.8248 80.6797 89.9084 80.8508 89.9299L88.7097 90.9189C88.9459 90.949 89.1767 90.8457 89.3125 90.6501C89.448 90.4547 89.4636 90.2024 89.3533 89.9918L85.6772 82.9756C85.5971 82.8228 85.4678 82.7148 85.3031 82.6635C85.1407 82.6126 84.9687 82.6282 84.8187 82.707C84.6649 82.7875 84.5568 82.9168 84.5054 83.0812C84.4541 83.2456 84.4693 83.4135 84.5495 83.5667L85.7406 85.8402C85.8855 86.1165 85.8228 86.4563 85.5888 86.6629C85.3547 86.8696 85.0099 86.8895 84.7537 86.7117L56.0558 66.7966C55.9165 66.7 55.7474 66.6636 55.5798 66.6938C55.4121 66.7241 55.2665 66.8175 55.1699 66.9568C54.9698 67.2452 55.0416 67.6426 55.33 67.8429L84.0275 87.7579C84.2839 87.9359 84.3858 88.266 84.2741 88.5573C84.1623 88.8487 83.8652 89.0257 83.5564 88.9874L81.0098 88.6667C80.9828 88.6634 80.9559 88.6617 80.9291 88.6617L80.929 88.6615Z" fill="#3375E0"/>
</g>
<mask id="mask2_384_14433" style="mask-type:luminance" maskUnits="userSpaceOnUse" x="6" y="1" width="79" height="70">
<path d="M84.2031 1.4834H6.49646V70.3064H84.2031V1.4834Z" fill="white"/>
</mask>
<g mask="url(#mask2_384_14433)">
<path d="M64.1448 20.0954C45.0689 8.31341 64.3332 -5.22429 66.8825 6.92173C74.0601 -3.20291 86.3355 16.8892 64.1448 20.0954Z" fill="#3375E0"/>
<path d="M64.1439 20.769C64.176 20.769 64.2081 20.7668 64.2402 20.7621C75.3739 19.1537 77.17 13.5948 77.4255 11.2795C77.7835 8.03598 75.9789 4.80124 73.2281 3.75563C71.1108 2.95009 68.9587 3.58226 67.1799 5.48641C66.3069 3.03138 64.5849 1.59456 62.3221 1.48902C59.391 1.35 56.4385 3.59977 55.4745 6.71752C54.7864 8.94281 54.2191 14.757 63.7897 20.6684C63.8966 20.7345 64.0192 20.769 64.1439 20.769ZM71.4245 4.76374C71.864 4.76374 72.3066 4.84683 72.7488 5.01503C74.944 5.84954 76.3786 8.47907 76.086 11.1315C75.8666 13.1192 74.2743 17.8777 64.2896 19.3924C55.7352 14.0249 56.1706 9.0259 56.7615 7.11546C57.5497 4.56589 59.9131 2.72753 62.2593 2.83488C64.2624 2.92808 65.6698 4.42845 66.2221 7.05977C66.2771 7.32184 66.4821 7.52643 66.7444 7.581C67.0065 7.63467 67.2762 7.52935 67.4312 7.31106C68.6192 5.6353 70.0023 4.76351 71.4247 4.76351L71.4245 4.76374Z" fill="#3375E0"/>
<path d="M74.5593 53.2359C63.2586 44.0881 76.7633 36.9651 77.404 44.9875C82.8535 39.0656 89.0966 52.9989 74.5593 53.2359Z" fill="#3375E0"/>
<path d="M74.5597 53.9098H74.5707C82.0299 53.7881 83.6904 50.2356 84.0583 48.7136C84.5799 46.5553 83.6343 44.2125 81.8586 43.2641C80.5884 42.5857 79.1507 42.7528 77.8533 43.6861C77.4071 42.1514 76.3779 41.1338 74.9597 40.885C72.9765 40.5358 70.788 41.7986 69.8684 43.8197C69.2198 45.2449 68.3375 49.0658 74.136 53.7596C74.2561 53.8568 74.4057 53.9096 74.56 53.9096L74.5597 53.9098ZM80.2214 44.195C80.5644 44.195 80.9005 44.2803 81.2237 44.4528C82.4544 45.1101 83.124 46.8427 82.7486 48.397C82.4582 49.5987 81.1022 52.3845 74.794 52.5567C69.9331 48.5324 70.5828 45.5031 71.0948 44.3778C71.7573 42.9223 73.3524 41.9728 74.7268 42.2118C75.8912 42.4162 76.6036 43.4209 76.7329 45.041C76.7543 45.3078 76.9317 45.5368 77.185 45.6242C77.4385 45.7111 77.719 45.6406 77.9005 45.4434C78.66 44.6181 79.4577 44.1945 80.2217 44.1945L80.2214 44.195Z" fill="#3375E0"/>
<path d="M35.1594 69.3746C18.4491 71.9158 22.9096 54.7356 30.3025 60.4696C29.4846 51.1494 46.3438 56.7017 35.1594 69.3746Z" fill="#3375E0"/>
<path d="M31.9425 70.3093C32.9331 70.3093 34.0344 70.2269 35.2597 70.0405C35.4157 70.0169 35.5588 69.9388 35.6635 69.8204C41.3517 63.3752 39.6285 59.2213 38.6238 57.7344C37.2054 55.6353 34.5071 54.631 32.347 55.397C30.7673 55.9575 29.8001 57.3519 29.6283 59.235C27.9518 58.3598 26.2554 58.4182 24.9293 59.4429C23.1157 60.8438 22.4994 63.6568 23.4959 65.9856C24.1 67.3975 26.0623 70.3098 31.9425 70.3098V70.3093ZM34.8146 68.744C27.4418 69.7946 25.3111 66.8022 24.7344 65.455C23.9843 63.7017 24.4317 61.5294 25.7528 60.509C26.8829 59.6354 28.352 59.8103 29.8886 61.0017C30.1001 61.1661 30.3891 61.189 30.624 61.061C30.8592 60.9327 30.9959 60.6774 30.9726 60.4106C30.8026 58.4741 31.4507 57.1444 32.7975 56.6667C34.3701 56.1087 36.4396 56.9086 37.5072 58.4885C38.3276 59.7023 39.6891 63.1145 34.8146 68.744Z" fill="#3375E0"/>
<path d="M40.5595 20.2763L43.2977 17.5381L59.9473 35.5448L57.209 38.283C53.9029 41.3401 47.4956 39.7872 42.8979 34.8149C38.3002 29.8424 37.2533 23.3334 40.5595 20.2763Z" fill="#A8CFFB"/>
<path d="M52.8689 40.5072C54.7229 40.5072 56.4 39.9489 57.6666 38.7778C57.6731 38.7717 57.6794 38.7656 57.6855 38.7593L60.4237 36.0213C60.6797 35.7656 60.6876 35.3532 60.4421 35.0876L43.7925 17.0807C43.6679 16.9461 43.4943 16.8682 43.3108 16.8646C43.1287 16.8518 42.9506 16.9322 42.8212 17.0618L40.0922 19.7908C38.3296 21.4277 37.6219 23.964 38.0996 26.9345C38.5622 29.8099 40.0907 32.7711 42.4033 35.2724C45.5296 38.6533 49.4917 40.5067 52.8689 40.5072ZM56.7423 37.7968C53.711 40.5849 47.7261 39.0443 43.3928 34.3573C41.258 32.0489 39.8508 29.3367 39.43 26.7202C39.0253 24.2041 39.589 22.0913 41.017 20.7711C41.0233 20.765 41.0298 20.7589 41.0359 20.7526L43.2785 18.5098L59.0127 35.5266L56.7423 37.7968Z" fill="#3375E0"/>
<path d="M45.6362 32.0773C41.0384 27.1048 39.9913 20.5957 43.2975 17.5387C46.6036 14.4817 53.0109 16.0345 57.6086 21.0069C62.2064 25.9793 63.2535 32.4884 59.9474 35.5454C56.6412 38.6024 50.2339 37.0497 45.6362 32.0773Z" fill="#A8CFFB"/>
<path d="M55.607 37.7693C57.4611 37.7693 59.1382 37.211 60.4048 36.0399C62.1746 34.4032 62.8858 31.8628 62.4073 28.887C61.9447 26.0113 60.4162 23.0501 58.1036 20.5488C55.7909 18.0475 52.9582 16.2925 50.1276 15.6064C47.1988 14.8968 44.6101 15.4068 42.84 17.0435C39.2666 20.3478 40.299 27.2968 45.1412 32.5343C48.2675 35.9152 52.2299 37.7693 55.607 37.7693ZM47.6502 16.6431C48.3324 16.6431 49.0562 16.7333 49.8103 16.9161C52.3857 17.5402 54.9798 19.1554 57.1141 21.464C59.2487 23.7724 60.6558 26.4845 61.0769 29.1012C61.4816 31.6171 60.9179 33.7301 59.4901 35.0504C56.4619 37.8508 50.469 36.3107 46.1309 31.6196C41.7928 26.9278 40.727 20.8331 43.7552 18.0334C44.7484 17.1149 46.0912 16.6433 47.6504 16.6433L47.6502 16.6431Z" fill="#3375E0"/>
<path d="M54.0403 33.681C55.2711 33.681 56.3628 33.2943 57.173 32.5451C59.4655 30.4254 58.8403 26.0076 55.7793 22.6969C52.7184 19.387 48.3633 18.4184 46.0708 20.5377C44.6935 21.8112 44.3082 23.9673 45.0401 26.306C45.1512 26.6609 45.5292 26.8578 45.8844 26.7478C46.2395 26.6366 46.4373 26.2584 46.3262 25.9034C45.7535 24.0742 46.0001 22.4382 46.9858 21.5274C48.7325 19.9118 52.234 20.8474 54.7903 23.6121C57.3469 26.377 58.0053 29.9405 56.2586 31.5557C55.4079 32.3419 54.0504 32.5438 52.5336 32.1083C52.1763 32.0059 51.8028 32.2125 51.7002 32.5703C51.5976 32.928 51.8044 33.301 52.1622 33.4037C52.8103 33.5894 53.442 33.681 54.0407 33.681H54.0403Z" fill="#3375E0"/>
<path d="M19.678 29.6802L21.8864 31.1909C24.1088 32.4741 23.4005 37.8618 20.3043 43.2246C17.2081 48.5876 12.8963 51.8949 10.674 50.6117L8.46551 49.101L19.6782 29.6802H19.678Z" fill="#A8CFFB"/>
<path d="M11.7617 51.5615C12.8715 51.5615 14.1774 51.014 15.5709 49.9452C17.4584 48.4974 19.3466 46.2303 20.8872 43.5617C24.265 37.7109 24.8459 32.1579 22.2467 30.6214L20.058 29.1242C19.9033 29.018 19.7109 28.9816 19.5283 29.0231C19.3455 29.0649 19.1878 29.1808 19.0942 29.3434L7.88148 48.7642C7.70542 49.0692 7.79368 49.4583 8.08428 49.6571L10.2927 51.168C10.3069 51.1779 10.3215 51.1869 10.3363 51.1954C10.7607 51.4406 11.2393 51.5617 11.7617 51.5617V51.5615ZM19.8973 30.6468L21.5054 31.7467C21.5196 31.7566 21.5342 31.7656 21.549 31.7741C23.1762 32.714 22.8257 37.509 19.7203 42.8878C18.266 45.4066 16.501 47.5333 14.7507 48.8758C13.1976 50.0672 11.8438 50.4898 11.03 50.0395L9.36007 48.8971L19.897 30.6466L19.8973 30.6468Z" fill="#3375E0"/>
<path d="M8.46633 49.1015C6.24388 47.8184 6.95227 42.4307 10.0486 37.0677C13.1449 31.7048 17.4566 28.3975 19.679 29.6806C21.9015 30.9637 21.1931 36.3514 18.0968 41.7144C15.0005 47.0773 10.6888 50.3847 8.46633 49.1015Z" fill="#A8CFFB"/>
<path d="M9.55461 50.051C10.6644 50.051 11.9703 49.5035 13.3638 48.4347C15.2513 46.9869 17.1396 44.7198 18.6801 42.0512C22.0683 36.1827 22.6425 30.6135 20.0157 29.097C17.3879 27.5798 12.8527 30.8623 9.46501 36.7307C6.07688 42.5992 5.50264 48.1681 8.12947 49.6847C8.55391 49.9299 9.03248 50.051 9.55484 50.051H9.55461ZM18.5867 30.0799C18.8744 30.0799 19.1281 30.1406 19.3419 30.2639C20.9692 31.2035 20.6186 35.9985 17.5132 41.3773C16.0589 43.8961 14.294 46.0228 12.5437 47.3653C10.9775 48.5665 9.61413 48.9858 8.80297 48.5178C7.17572 47.578 7.52627 42.7829 10.6317 37.4044C13.3295 32.7321 16.685 30.0799 18.5867 30.0799Z" fill="#3375E0"/>
<path d="M11.5859 45.5569C13.3171 45.5569 15.4748 43.4171 16.8676 41.0048C17.734 39.5039 18.308 37.9423 18.4834 36.6074C18.6855 35.0702 18.333 33.9559 17.4908 33.4695C16.2842 32.7726 14.4546 33.6282 12.7171 35.7037C12.4781 35.9892 12.5159 36.4138 12.8011 36.6528C13.0865 36.8917 13.5116 36.854 13.7501 36.5688C15.0585 35.0062 16.3367 34.3585 16.8171 34.6366C17.1371 34.8212 17.2667 35.5259 17.1477 36.4318C16.9945 37.5955 16.4807 38.9802 15.701 40.331C14.0257 43.2328 11.9933 44.5303 11.3272 44.145C10.9178 43.9085 10.7669 42.7912 11.2706 41.1132C11.3777 40.7568 11.1754 40.3811 10.8192 40.2742C10.4617 40.1667 10.0869 40.3695 9.9802 40.7256C9.2975 42.9992 9.54296 44.6707 10.6535 45.3121C10.9434 45.4794 11.2571 45.5569 11.5859 45.5569Z" fill="#3375E0"/>
</g>
<mask id="mask3_384_14433" style="mask-type:luminance" maskUnits="userSpaceOnUse" x="2" y="75" width="41" height="40">
<path d="M2.36328 94.0205L26.5775 75.3933L42.5257 96.125L18.3114 114.752L2.36328 94.0205Z" fill="white"/>
</mask>
<g mask="url(#mask3_384_14433)">
<path d="M14.6914 108.986L9.70809 96.1844L15.7034 93.8506L20.6867 106.652L14.6914 108.986Z" fill="#A8CFFB"/>
<path d="M21.0802 107.165C21.0324 107.202 20.9794 107.232 20.9211 107.255L14.9262 109.59C14.7675 109.652 14.5883 109.649 14.4315 109.579C14.2747 109.509 14.1516 109.381 14.0894 109.223L9.10544 96.4206C9.04319 96.262 9.0466 96.0827 9.1162 95.9259C9.1858 95.7691 9.31396 95.6461 9.4726 95.5838L15.4675 93.2493C15.6261 93.1871 15.8054 93.1905 15.9622 93.2601C16.119 93.3297 16.2421 93.4579 16.3043 93.6165L21.2869 106.417C21.3941 106.69 21.3009 106.993 21.0789 107.164L21.0802 107.165ZM15.0585 108.151L19.8495 106.286L15.3365 94.6898L10.5455 96.5547L15.0585 108.151Z" fill="#3375E0"/>
<path d="M15.7044 93.8529C18.624 90.0852 18.4855 86.6836 17.9646 82.8343C17.9646 82.8343 22.0136 80.4641 23.4855 85.1117C24.3373 87.8015 24.1922 90.5518 24.1922 90.5518C24.1922 90.5518 29.1109 88.6375 32.6156 87.273C37.6977 85.2956 39.3343 99.3981 34.6681 101.213C30.0032 103.03 20.6853 106.654 20.6853 106.654L15.7027 93.8542L15.7044 93.8529Z" fill="white"/>
<path d="M35.7666 101.324C35.4985 101.53 35.2115 101.694 34.9041 101.814L20.9213 107.255C20.5881 107.383 20.2148 107.219 20.0845 106.888L15.1019 94.0874C15.0205 93.8756 15.0546 93.6374 15.1933 93.4574C17.9941 89.8462 17.8143 86.5498 17.3245 82.9211C17.2891 82.6631 17.413 82.4074 17.6389 82.2771C17.7219 82.2296 19.6829 81.1015 21.5696 81.8267C22.7439 82.2794 23.5962 83.3166 24.1021 84.9139C24.6747 86.718 24.8165 88.5273 24.8422 89.6027L32.3806 86.6678C33.4808 86.2399 34.5443 86.4001 35.4579 87.1321C37.6367 88.8799 38.4299 93.5741 37.915 96.9212C37.6005 98.9675 36.8506 100.49 35.7666 101.324ZM21.055 105.818L34.4357 100.611C35.5214 100.189 36.3234 98.7733 36.6379 96.727C37.1563 93.3527 36.245 89.4233 34.6487 88.1431C34.1023 87.7048 33.5132 87.6172 32.8499 87.8747L24.4264 91.1535C24.2211 91.2327 23.9915 91.2028 23.8146 91.0753C23.6364 90.946 23.5378 90.7366 23.548 90.5167C23.5499 90.4909 23.6769 87.8442 22.8713 85.3063C22.4905 84.1047 21.8987 83.3426 21.1122 83.0372C20.2045 82.6839 19.1981 82.9934 18.667 83.2145C19.115 86.7394 19.1866 90.2306 16.4383 93.9561L21.055 105.818Z" fill="#3375E0"/>
</g>
</svg>
