<svg width="287" height="256" viewBox="0 0 287 256" fill="none" xmlns="http://www.w3.org/2000/svg">
<path d="M107.12 173.966L82.7515 192.158C80.6778 193.706 77.7133 192.34 77.5418 189.758L75.5257 159.416C75.3328 156.513 75.8693 153.607 77.0864 150.965L128.832 38.6064L164.273 54.9285L112.527 167.287C111.31 169.93 109.451 172.226 107.12 173.966Z" fill="#5662F4"/>
<path d="M161.1 61.82L125.659 45.498L132.863 29.8559C137.37 20.0693 148.958 15.7894 158.744 20.2966C168.531 24.8038 172.811 36.3913 168.304 46.1779L161.1 61.82Z" fill="#111F78"/>
<path d="M112.018 168.302C112.651 165.008 110.991 161.583 107.808 160.117C105.528 159.067 102.995 159.265 100.971 160.423C100.536 158.132 99.039 156.079 96.7597 155.029C94.4805 153.979 91.9471 154.177 89.9233 155.335C89.4878 153.044 87.9911 150.991 85.7119 149.941C82.3958 148.414 78.541 149.524 76.5032 152.398C75.7026 154.641 75.367 157.029 75.5256 159.416L77.5417 189.758C77.7132 192.341 80.6777 193.706 82.7514 192.158L107.119 173.966C109.147 172.453 110.817 170.519 112.018 168.302Z" fill="#FF5A48"/>
<path d="M76.9902 181.456L77.5418 189.757C77.7133 192.339 80.6778 193.705 82.7515 192.157L89.4182 187.18L76.9902 181.456Z" fill="black"/>
<path d="M166.117 70.4765C165.565 71.4538 164.475 71.8914 163.412 71.4683C163.043 71.3211 162.685 71.1314 162.324 70.9644C160.691 70.2082 159.058 69.4521 157.426 68.6959C155.826 67.9552 154.226 67.2145 152.627 66.4738C152.307 66.3257 151.989 66.1733 151.667 66.0293C150.398 65.4615 149.005 65.4315 147.747 66.0572C144.529 67.6567 144.653 72.3614 147.812 73.9283L148.726 72.3648C146.546 71.4262 143.911 72.1527 142.851 74.3919C141.82 76.5685 142.716 79.1945 144.878 80.267L145.792 78.7035C143.612 77.7649 140.977 78.4914 139.917 80.7306C138.886 82.9072 139.782 85.5332 141.944 86.6057L142.858 85.0422C140.27 83.9278 137.143 85.2697 136.615 88.1805C136.231 90.2948 137.396 92.197 139.293 93.0751C141.915 94.2892 144.541 95.4986 147.161 96.7174C151.934 98.9369 155.743 102.939 157.522 107.92C158.1 109.536 158.488 111.224 159 112.863C159.497 114.456 160.032 116.037 160.595 117.608C163.293 125.136 166.584 132.478 170.431 139.489C174.371 146.669 178.944 153.685 184.7 159.553C189.405 164.349 195.316 168.693 202.205 169.334C209.727 170.034 216.287 165.555 221.062 160.153C224.925 155.784 228.085 150.791 230.205 145.354C232.625 139.146 233.76 132.494 234.232 125.869C235.101 113.667 233.425 101.449 230.066 89.7173C226.775 78.2232 222.001 67.2248 217.068 56.3573C212.077 45.3611 206.882 34.4369 202.735 23.0839C201.724 20.3168 200.777 17.5266 199.907 14.7119C199.753 14.2125 199.29 13.9911 198.794 14.0796C194.384 14.8662 189.974 15.6528 185.564 16.4394C180.363 17.3673 175.161 18.2951 169.96 19.2229C168.224 19.5326 168.419 21.7634 168.439 23.1383C168.487 26.5118 168.896 29.891 169.31 33.2355C169.609 35.6531 169.849 38.1196 170.409 40.4951C171.475 45.0246 173.158 49.898 176.779 53.0385C178.902 54.8797 181.537 55.9557 184.363 55.9783C186.119 55.9924 189.224 55.6671 188.987 58.3793C188.888 59.5191 187.826 60.2777 186.901 60.7746C185.789 61.3725 184.546 61.7144 183.303 61.9123C180.686 62.3291 177.942 62.0724 175.371 61.4893C174.168 61.2164 172.987 60.8604 171.835 60.4194C170.746 60.0025 170.274 61.7524 171.354 62.1655C176.118 63.9893 182.107 64.8156 186.927 62.7582C189.191 61.792 191.36 59.8706 190.659 57.1608C190.024 54.7053 187.765 54.1244 185.513 54.1482C183.997 54.1641 182.569 54.1185 181.124 53.5922C180.009 53.1861 178.955 52.5343 178.059 51.7581C176.251 50.1896 174.981 48.1208 174.031 45.9431C172.761 43.0292 172.042 39.9195 171.593 36.7856C171.127 33.5334 170.73 30.2583 170.461 26.9789C170.336 25.4678 170.227 23.9472 170.248 22.43C170.252 22.1653 170.26 21.9004 170.278 21.6362C170.287 21.5101 170.298 21.3844 170.311 21.2587C170.316 21.2101 170.338 21.0788 170.305 21.2966C170.314 21.2357 170.321 21.1724 170.335 21.1123C170.353 21.0336 170.375 20.9521 170.39 20.8729C170.426 20.6742 170.509 20.7589 170.38 20.8586C170.585 20.7005 170.118 21.0513 170.081 21.0331C170.287 21.1358 171.053 20.8597 171.269 20.8213L174.252 20.2891C177.323 19.7413 180.395 19.1934 183.466 18.6456C188.638 17.723 193.81 16.8004 198.982 15.8777L199.275 15.8255L198.161 15.1932C201.655 26.4988 206.422 37.3493 211.32 48.1032C216.164 58.7373 221.162 69.3254 225.12 80.3319C229.074 91.3274 231.936 102.761 232.534 114.466C232.853 120.724 232.597 127.061 231.569 133.247C230.517 139.571 228.611 145.811 225.296 151.332C222.805 155.479 219.73 159.444 216.027 162.581C213.462 164.754 210.472 166.493 207.169 167.228C201.127 168.571 195.148 165.982 190.376 162.241C184.355 157.52 179.651 151.205 175.619 144.765C171.343 137.934 167.73 130.669 164.679 123.212C163.362 119.994 162.146 116.732 161.076 113.422C160.625 112.026 160.201 110.62 159.813 109.204C159.109 106.632 158.003 104.185 156.425 102.028C154.813 99.8234 152.817 97.934 150.508 96.4717C149.283 95.6959 147.97 95.1052 146.658 94.498L141.841 92.2684C140.826 91.7982 139.376 91.3711 138.751 90.3824C137.434 88.301 139.652 85.6189 141.944 86.6057C142.988 87.055 143.922 85.5697 142.858 85.0422C141.597 84.4167 140.908 82.9996 141.481 81.6445C142.025 80.3538 143.587 79.7111 144.878 80.267C145.922 80.7163 146.856 79.2311 145.792 78.7035C144.531 78.078 143.843 76.6609 144.415 75.3058C144.959 74.0151 146.521 73.3724 147.812 73.9283C148.856 74.3776 149.79 72.8924 148.726 72.3648C147.569 71.7908 146.884 70.5734 147.243 69.2841C147.573 68.1035 148.72 67.2964 149.945 67.3954C150.929 67.475 151.954 68.1488 152.826 68.5524C155.886 69.9695 158.946 71.3867 162.006 72.8038C162.535 73.0485 163.052 73.3015 163.636 73.3915C165.281 73.6452 166.868 72.8304 167.68 71.3904C168.254 70.3742 166.69 69.4606 166.117 70.4765Z" fill="black"/>
<path d="M158.203 76.7756C157.056 76.2417 155.909 75.7077 154.762 75.1738C152.945 74.3275 151.127 73.4814 149.309 72.6351C148.889 72.4394 148.468 72.2436 148.048 72.0478C147.605 71.8416 147.072 71.9232 146.809 72.3726C146.58 72.7644 146.688 73.404 147.134 73.6113C148.281 74.1453 149.428 74.6792 150.575 75.2131C152.392 76.0594 154.21 76.9056 156.028 77.7518C156.448 77.9475 156.869 78.1433 157.289 78.3391C157.732 78.5453 158.265 78.4637 158.528 78.0143C158.757 77.6225 158.649 76.9829 158.203 76.7756Z" fill="black"/>
<path d="M155.313 83.1574C154.166 82.6235 153.019 82.0896 151.872 81.5556C150.054 80.7094 148.236 79.8632 146.419 79.017C145.998 78.8212 145.578 78.6254 145.157 78.4297C144.714 78.2234 144.181 78.305 143.918 78.7545C143.689 79.1462 143.798 79.7859 144.243 79.9932C145.39 80.5271 146.537 81.061 147.684 81.595C149.502 82.4412 151.319 83.2874 153.137 84.1336C153.558 84.3294 153.978 84.5252 154.399 84.7209C154.842 84.9272 155.375 84.8456 155.637 84.3961C155.867 84.0044 155.758 83.3647 155.313 83.1574Z" fill="black"/>
<path d="M152.423 89.5402C151.276 89.0063 150.129 88.4724 148.982 87.9384C147.164 87.0922 145.347 86.246 143.529 85.3998C143.108 85.204 142.688 85.0082 142.267 84.8125C141.824 84.6062 141.292 84.6878 141.029 85.1373C140.8 85.529 140.908 86.1687 141.354 86.376C142.5 86.9099 143.647 87.4438 144.794 87.9778C146.612 88.824 148.43 89.6702 150.247 90.5164C150.668 90.7122 151.089 90.908 151.509 91.1037C151.952 91.31 152.485 91.2284 152.748 90.7789C152.977 90.3872 152.868 89.7475 152.423 89.5402Z" fill="black"/>
<path d="M95.1845 84.3964C96.5405 86.5054 98.7127 87.7822 101.203 87.995C101.994 88.0626 102.787 88.115 103.579 88.175C106.849 88.4228 110.118 88.6706 113.388 88.9183C114.594 89.0097 115.799 89.101 117.005 89.1924C118.15 89.2792 119.233 89.5518 119.79 90.6996C120.695 92.5638 119.143 94.4863 117.198 94.4011C116.188 94.3568 115.179 94.281 114.17 94.221C111.236 94.0466 108.303 93.8722 105.37 93.6978C104.925 93.6714 104.531 94.0622 104.481 94.4828C104.423 94.9642 104.699 95.3002 105.129 95.4762C107.055 96.2655 108.981 97.0547 110.906 97.8439L114.287 99.2296C114.518 99.3241 114.753 99.4117 114.981 99.5137C115.461 99.7291 116.17 100.363 116.423 101.093C116.765 102.083 116.461 103.196 115.664 103.877C114.874 104.553 113.843 104.629 112.899 104.266C111.95 103.902 111.261 105.51 112.201 105.921C113.533 106.502 114.308 107.931 113.735 109.345C113.162 110.755 111.606 111.25 110.25 110.729C109.302 110.365 108.612 111.973 109.552 112.384C111.241 113.12 111.915 115.297 110.498 116.671C109.565 117.576 108.347 117.498 107.233 117.041C104.981 116.119 102.728 115.196 100.475 114.274C98.3977 113.423 96.2694 112.303 93.9836 112.237C90.0273 112.124 86.349 114.777 85.1805 118.55C84.5603 120.553 84.7192 122.803 84.9973 124.852C85.2647 126.822 85.8046 128.716 86.6 130.537C88.1385 134.058 90.6797 137.067 93.5774 139.554C96.6304 142.175 100.069 144.305 103.588 146.236C107.764 148.528 112.047 150.625 116.467 152.407C126.393 156.408 136.937 158.855 147.61 159.642C157.863 160.398 168.548 159.793 178.268 156.212C187.265 152.897 195.318 146.838 199.883 138.272C201.062 136.059 202.05 133.693 202.514 131.22C202.995 128.655 202.945 126.063 202.505 123.497C202.067 120.939 201.247 118.465 200.333 116.043C199.381 113.519 198.363 111.015 197.344 108.517C193.237 98.4376 188.378 88.6048 182.603 79.3714C180.615 76.1934 178.474 73.1637 175.814 70.5028C172.536 67.2244 168.685 64.4988 164.495 62.5137C163.154 61.8782 161.773 61.338 160.395 60.7894C159.94 60.6085 159.401 60.9872 159.281 61.4218C159.14 61.937 159.457 62.3539 159.914 62.5355C163.431 63.9358 166.78 65.5652 169.861 67.7905C173.505 70.4222 176.695 73.7189 179.216 77.4393C181.454 80.7416 183.456 84.2222 185.393 87.7053C188.041 92.4676 190.484 97.3438 192.726 102.31C194.917 107.164 196.963 112.112 198.805 117.108C200.537 121.806 201.769 126.783 200.545 131.765C199.428 136.312 196.756 140.553 193.642 143.999C190.534 147.44 186.799 150.221 182.675 152.329C173.676 156.929 163.344 158.254 153.348 158.09C142.875 157.918 132.453 156.077 122.532 152.727C117.62 151.068 112.86 149.025 108.25 146.656C104.763 144.863 101.3 142.992 98.0768 140.749C95.0307 138.63 92.152 136.122 90.0546 133.034C87.8891 129.846 86.6955 126.159 86.5983 122.304C86.5494 120.367 86.805 118.554 87.9817 116.955C88.9996 115.571 90.5243 114.606 92.1909 114.219C94.5985 113.661 96.6927 114.668 98.8515 115.552C101.258 116.537 103.664 117.523 106.07 118.508C106.912 118.853 107.706 119.208 108.644 119.212C110.689 119.222 112.578 117.77 112.986 115.745C113.391 113.737 112.358 111.645 110.466 110.82C110.234 111.372 110.001 111.923 109.769 112.475C111.971 113.32 114.492 112.213 115.393 110.044C116.291 107.879 115.27 105.297 113.115 104.357C112.883 104.909 112.65 105.46 112.417 106.012C114.759 106.911 117.407 105.598 118.177 103.228C118.914 100.96 117.576 98.6457 115.462 97.7676C113.11 96.7907 110.748 95.8357 108.391 94.8698C107.464 94.4899 106.537 94.11 105.61 93.7301L105.37 95.5085C108.023 95.6662 110.676 95.824 113.329 95.9817C114.558 96.0548 115.787 96.1279 117.016 96.2009C119.074 96.3233 120.961 95.1772 121.637 93.1906C122.55 90.5044 120.567 87.7236 117.824 87.4446C117.131 87.3742 116.433 87.3383 115.739 87.2857C112.377 87.0309 109.014 86.7761 105.652 86.5214L101.609 86.215C99.6163 86.064 97.8543 85.2031 96.7479 83.4824C96.1197 82.5054 94.5517 83.4124 95.1845 84.3964Z" fill="black"/>
<path d="M100.784 108.777C103.711 109.98 106.638 111.184 109.565 112.387C109.972 112.554 110.379 112.721 110.786 112.889C111.239 113.075 111.782 112.687 111.9 112.256C112.043 111.737 111.722 111.329 111.268 111.143C108.341 109.94 105.414 108.736 102.487 107.533C102.079 107.366 101.672 107.199 101.265 107.031C100.813 106.845 100.27 107.233 100.151 107.664C100.009 108.183 100.33 108.591 100.784 108.777Z" fill="black"/>
<path d="M103.433 102.274C106.36 103.477 109.287 104.681 112.214 105.884C112.621 106.051 113.029 106.219 113.436 106.386C113.888 106.572 114.431 106.184 114.549 105.754C114.692 105.234 114.371 104.827 113.917 104.64C110.99 103.437 108.063 102.234 105.136 101.03C104.729 100.863 104.322 100.696 103.915 100.528C103.462 100.342 102.919 100.73 102.801 101.161C102.658 101.68 102.979 102.088 103.433 102.274Z" fill="black"/>
<path d="M184.74 36.4482C184.059 38.4929 181.064 36.4668 182.72 34.982C183.851 33.9682 185.172 35.1482 184.74 36.4482Z" fill="black"/>
<path d="M184.158 36.2882C184.143 36.3321 184.127 36.3755 184.11 36.4185L184.17 36.2743C184.137 36.3523 184.099 36.4282 184.054 36.5C184.019 36.5566 183.922 36.6518 184.07 36.4887C184.046 36.5159 184.024 36.5454 183.998 36.5721C183.973 36.5977 183.947 36.6213 183.921 36.6449C183.834 36.7227 184.07 36.5413 183.949 36.6227C183.894 36.6594 183.836 36.6899 183.775 36.7155L183.92 36.6546C183.835 36.6887 183.748 36.7113 183.658 36.7235L183.818 36.7019C183.717 36.7141 183.615 36.7126 183.514 36.6997L183.674 36.7213C183.548 36.7036 183.426 36.6689 183.309 36.6201L183.453 36.681C183.365 36.6433 183.281 36.5986 183.201 36.5463C183.182 36.534 183.163 36.5212 183.144 36.5081C183.135 36.5016 183.126 36.4946 183.117 36.4881C183.048 36.4399 183.234 36.5825 183.192 36.5462C183.156 36.5144 183.118 36.4846 183.084 36.4512C183.051 36.42 183.02 36.3874 182.99 36.3536C182.973 36.3346 182.958 36.3145 182.941 36.2954C182.902 36.25 183.038 36.4276 183.005 36.3776C182.999 36.3684 182.992 36.3596 182.985 36.3505C182.929 36.2711 182.881 36.1863 182.843 36.0971L182.904 36.2413C182.863 36.1445 182.835 36.0443 182.82 35.9405L182.841 36.1009C182.829 36.0062 182.829 35.9115 182.84 35.8167L182.818 35.9772C182.832 35.8766 182.859 35.7798 182.898 35.6859L182.837 35.8301C182.868 35.7584 182.904 35.6895 182.947 35.624C182.981 35.5721 183.085 35.4609 182.939 35.6269C182.969 35.5933 182.997 35.5584 183.027 35.5257C183.06 35.4911 183.094 35.4578 183.129 35.4257C183.151 35.4055 183.174 35.3865 183.196 35.3665C183.276 35.2949 183.08 35.4466 183.173 35.3836C183.269 35.3185 183.366 35.26 183.473 35.2143L183.329 35.2751C183.425 35.2363 183.523 35.2086 183.625 35.193L183.465 35.2146C183.568 35.2011 183.671 35.2009 183.774 35.2146L183.614 35.193C183.705 35.2072 183.793 35.2316 183.88 35.2664L183.735 35.2056C183.806 35.2358 183.873 35.2716 183.937 35.3145C184.048 35.3891 183.823 35.2166 183.925 35.3041C183.955 35.3294 183.983 35.3561 184.01 35.384C184.033 35.4069 184.061 35.4588 184.088 35.4721C184.085 35.4707 183.994 35.3432 184.037 35.4066C184.049 35.4231 184.06 35.4392 184.071 35.4558C184.118 35.5271 184.157 35.6024 184.191 35.6807L184.13 35.5366C184.178 35.6542 184.211 35.7752 184.229 35.9009L184.207 35.7405C184.224 35.8743 184.224 36.0073 184.208 36.1411L184.229 35.9806C184.215 36.0855 184.191 36.1874 184.158 36.2882C184.061 36.5888 184.272 36.9604 184.58 37.0306C184.911 37.1059 185.219 36.931 185.322 36.6091C185.607 35.7281 185.28 34.6296 184.418 34.1967C183.99 33.982 183.486 33.9278 183.033 34.101C182.569 34.2782 182.176 34.5987 181.905 35.0148C181.53 35.5894 181.54 36.3553 181.919 36.9253C182.291 37.4838 182.879 37.8436 183.546 37.9108C183.884 37.9448 184.258 37.8596 184.544 37.6742C184.933 37.422 185.175 37.0424 185.322 36.6091C185.424 36.3098 185.206 35.936 184.901 35.8666C184.566 35.7904 184.267 35.9678 184.158 36.2882Z" fill="black"/>
<path d="M176.534 39.4462C175.853 41.4909 172.858 39.4649 174.514 37.98C175.645 36.9663 176.966 38.1463 176.534 39.4462Z" fill="black"/>
<path d="M175.952 39.2862C175.937 39.3302 175.921 39.3736 175.904 39.4165L175.964 39.2723C175.931 39.3504 175.893 39.4262 175.848 39.498C175.812 39.5547 175.716 39.6498 175.864 39.4868C175.84 39.514 175.817 39.5435 175.792 39.5701C175.767 39.5957 175.741 39.6193 175.715 39.643C175.628 39.7208 175.863 39.5394 175.742 39.6207C175.688 39.6574 175.63 39.6879 175.569 39.7135L175.714 39.6527C175.629 39.6868 175.542 39.7094 175.452 39.7215L175.612 39.7C175.51 39.7121 175.409 39.7107 175.308 39.6978L175.468 39.7193C175.342 39.7016 175.22 39.6669 175.103 39.6182L175.247 39.679C175.159 39.6413 175.075 39.5967 174.995 39.5444C174.976 39.532 174.957 39.5193 174.938 39.5062C174.929 39.4996 174.92 39.4927 174.911 39.4862C174.842 39.4379 175.027 39.5806 174.986 39.5442C174.95 39.5125 174.912 39.4826 174.877 39.4493C174.845 39.4181 174.814 39.3855 174.784 39.3516C174.767 39.3326 174.752 39.3126 174.735 39.2935C174.696 39.248 174.832 39.4256 174.799 39.3757C174.793 39.3664 174.785 39.3576 174.779 39.3485C174.723 39.2692 174.675 39.1844 174.637 39.0952L174.698 39.2394C174.657 39.1426 174.629 39.0424 174.614 38.9385L174.635 39.099C174.623 39.0043 174.622 38.9096 174.634 38.8148L174.612 38.9752C174.626 38.8747 174.653 38.7778 174.692 38.684L174.631 38.8282C174.662 38.7564 174.698 38.6875 174.741 38.6221C174.775 38.5701 174.879 38.459 174.733 38.625C174.763 38.5913 174.791 38.5564 174.821 38.5238C174.854 38.4892 174.888 38.4559 174.923 38.4238C174.945 38.4035 174.968 38.3845 174.99 38.3645C175.07 38.293 174.874 38.4447 174.967 38.3817C175.063 38.3166 175.16 38.2581 175.267 38.2123L175.123 38.2732C175.219 38.2344 175.317 38.2066 175.419 38.1911L175.259 38.2126C175.362 38.1992 175.465 38.199 175.568 38.2126L175.407 38.1911C175.499 38.2053 175.587 38.2297 175.673 38.2645L175.529 38.2036C175.6 38.2339 175.667 38.2696 175.731 38.3125C175.842 38.3872 175.617 38.2146 175.719 38.3022C175.749 38.3275 175.777 38.3541 175.804 38.382C175.827 38.405 175.855 38.4569 175.882 38.4702C175.879 38.4688 175.788 38.3412 175.831 38.4046C175.842 38.4211 175.854 38.4372 175.865 38.4538C175.912 38.5251 175.951 38.6005 175.985 38.6788L175.924 38.5346C175.972 38.6522 176.005 38.7733 176.023 38.899L176.001 38.7385C176.018 38.8723 176.018 39.0053 176.002 39.1391L176.023 38.9787C176.009 39.0835 175.985 39.1855 175.952 39.2862C175.855 39.5868 176.066 39.9584 176.374 40.0287C176.704 40.104 177.013 39.929 177.116 39.6071C177.401 38.7262 177.074 37.6276 176.211 37.1948C175.784 36.9801 175.28 36.9259 174.827 37.099C174.363 37.2763 173.97 37.5967 173.699 38.0128C173.324 38.5875 173.334 39.3533 173.713 39.9233C174.085 40.4819 174.673 40.8417 175.34 40.9088C175.678 40.9429 176.052 40.8577 176.338 40.6723C176.727 40.4201 176.969 40.0404 177.116 39.6071C177.218 39.3079 177 38.9341 176.695 38.8646C176.36 38.7884 176.061 38.9658 175.952 39.2862Z" fill="black"/>
<path d="M178.561 37.5808C178.998 37.7667 179.216 37.9981 179.144 38.4929C179.076 38.9625 178.838 39.3965 178.603 39.8006C178.068 40.7191 177.269 41.7525 177.474 42.8819C177.57 43.4067 177.946 43.9021 178.468 44.0595C179.015 44.2245 179.606 44.027 180.116 43.8234C181.098 43.4308 181.974 42.8083 182.644 41.9874C182.85 41.7352 182.891 41.3807 182.644 41.1339C182.431 40.9212 181.998 40.8801 181.79 41.1339C181.212 41.8425 180.47 42.4183 179.605 42.7323C179.362 42.8203 178.848 43.0863 178.691 42.7626C178.516 42.4006 178.792 41.9005 178.957 41.5819C179.396 40.7382 180.004 39.9771 180.255 39.0445C180.538 37.9955 180.209 36.9806 179.17 36.5385C178.871 36.4108 178.524 36.4489 178.345 36.755C178.196 37.0086 178.26 37.4524 178.561 37.5808Z" fill="black"/>
<path d="M108.117 179.587C112.93 185.582 120.118 189.399 127.082 192.325C136.075 196.103 145.604 198.564 155.158 200.437C165.317 202.428 175.618 203.728 185.941 204.476C194.812 205.12 203.747 205.396 212.634 204.924C217.743 204.653 224.104 204.294 227.25 199.581C228.75 197.334 229.004 194.287 227.264 192.099C225.708 190.143 223.125 189.518 220.745 189.341C217.433 189.094 214.032 189.584 210.732 189.835C206.775 190.137 202.819 190.463 198.865 190.803C191.102 191.47 183.344 192.19 175.582 192.878C160.007 194.257 144.419 195.467 128.787 195.949C113.592 196.419 98.3344 196.525 83.2043 194.84C75.6638 194.001 68.2733 192.582 60.896 190.836C56.5377 189.804 51.2978 188.997 47.1533 191.186C42.3833 193.706 41.3607 200.285 44.8771 204.307C45.6236 205.161 46.6437 205.908 47.7942 205.327C48.7086 204.865 49.1964 203.748 49.0956 202.757C48.8229 200.074 45.366 200.068 43.4212 200.569C39.6542 201.54 36.7694 204.44 34.6647 207.582C32.1762 211.296 30.5423 215.59 29.3484 219.877C28.1889 224.041 27.4256 228.349 27.1505 232.664C26.8948 236.674 26.5903 242.941 31.7454 243.77C34.7932 244.259 38.1029 243.013 40.9973 242.218C44.5419 241.246 48.073 240.2 51.6836 239.494C59.2955 238.006 67.015 238.708 74.6085 239.948C89.6187 242.399 104.53 245.369 119.597 247.484C134.501 249.576 149.527 251.042 164.59 250.999C179.321 250.958 194.124 249.465 208.408 245.77C220.516 242.638 232.41 237.728 242.239 229.865C250.079 223.593 256.154 215.549 259.116 205.905C261.538 198.02 262.009 189.317 259.744 181.337C257.566 173.661 252.645 166.91 245.446 163.268C241.487 161.266 237.142 160.268 232.734 159.961C231.571 159.879 231.576 161.691 232.734 161.771C240.806 162.335 248.544 165.681 253.426 172.32C257.949 178.471 259.635 186.263 259.359 193.796C259.067 201.769 256.609 209.716 252.273 216.419C246.147 225.887 236.47 232.757 226.396 237.496C214.675 243.008 201.779 245.998 188.983 247.655C175.004 249.465 160.847 249.532 146.799 248.589C132.509 247.629 118.313 245.63 104.191 243.288C97.0912 242.111 90.0065 240.846 82.923 239.576C75.9368 238.322 68.9074 236.947 61.7878 236.824C54.7194 236.703 48.0783 238.38 41.3197 240.251C39.6467 240.714 37.9712 241.17 36.2824 241.573C34.9306 241.895 33.5039 242.211 32.1092 242C29.2346 241.566 28.9507 238.608 28.8835 236.216C28.7794 232.511 29.246 228.778 29.9604 225.149C30.7947 220.911 32.0055 216.689 33.8423 212.771C35.4464 209.349 37.594 205.819 40.8224 203.705C42.2444 202.774 44.1491 201.907 45.8928 202.092C46.4575 202.152 47.3413 202.411 47.3036 203.119C47.2539 204.048 46.6212 203.539 46.2645 203.144C45.3255 202.107 44.7513 200.731 44.5994 199.344C44.324 196.827 45.4528 194.329 47.6274 193C49.5407 191.83 51.8756 191.597 54.072 191.659C56.2935 191.722 58.4907 192.116 60.6466 192.637C64.0264 193.454 67.4088 194.226 70.8303 194.851C84.8869 197.418 99.2052 198.116 113.472 198.056C128.114 197.994 142.748 197.304 157.347 196.204C172.005 195.099 186.634 193.645 201.282 192.408C204.944 192.099 208.607 191.803 212.271 191.53C215.256 191.307 218.351 190.859 221.342 191.207C223.751 191.487 226.528 192.609 226.68 195.408C226.85 198.537 224.024 200.809 221.363 201.797C217.27 203.316 212.463 203.181 208.138 203.284C204.015 203.382 199.889 203.339 195.768 203.196C186.286 202.866 176.812 202.029 167.421 200.681C157.878 199.31 148.372 197.436 139.127 194.674C131.239 192.318 123.31 189.34 116.468 184.678C113.836 182.885 111.396 180.796 109.398 178.307C108.668 177.398 107.394 178.687 108.117 179.587Z" fill="black"/>
<path d="M126.773 42.2465C127.959 42.7921 129.144 43.3377 130.33 43.8832C133.176 45.1929 136.022 46.5026 138.868 47.8122C142.299 49.391 145.73 50.9698 149.161 52.5486C152.125 53.9128 155.09 55.2771 158.054 56.6413C159.495 57.3044 160.933 57.9767 162.378 58.6308C162.398 58.6401 162.419 58.6496 162.439 58.659C162.883 58.8632 163.414 58.7849 163.678 58.3342C163.906 57.9439 163.799 57.3008 163.353 57.0955C162.167 56.5499 160.982 56.0043 159.796 55.4587C156.95 54.1491 154.104 52.8394 151.258 51.5297C147.827 49.951 144.396 48.3722 140.966 46.7934C138.001 45.4292 135.036 44.0649 132.072 42.7007C130.631 42.0376 129.194 41.3653 127.748 40.7111C127.728 40.7019 127.708 40.6924 127.687 40.683C127.243 40.4787 126.712 40.557 126.448 41.0078C126.22 41.3981 126.327 42.0411 126.773 42.2465Z" fill="white"/>
<path d="M184.674 55.0375C188.146 54.7219 192.53 53.5985 194.934 51.2729C195.117 51.0958 195.503 50.9659 195.548 51.2167C195.562 51.2979 195.483 51.3656 195.476 51.4478C195.247 54.4062 191.594 58.4062 190.039 59.9297C190.039 59.9297 189.724 55.0375 188.461 55.0375H184.674Z" fill="black"/>
<path d="M184.674 55.9421C186.711 55.7533 188.746 55.3742 190.681 54.7008C191.654 54.3621 192.614 53.9546 193.508 53.4409C193.906 53.2124 194.29 52.9605 194.656 52.6834C194.882 52.5121 195.106 52.3367 195.318 52.1487C195.405 52.0723 195.485 51.9848 195.574 51.9123C195.485 51.9763 195.485 51.9809 195.575 51.9263C195.363 52.0535 195.133 52.0104 194.887 51.7969C194.81 51.6638 194.732 51.5306 194.655 51.3974L194.675 51.4566V50.9753C194.759 50.8449 194.744 50.8958 194.628 51.128C194.591 51.2304 194.572 51.3367 194.571 51.4471C194.567 51.4944 194.563 51.5416 194.558 51.5887C194.575 51.4671 194.576 51.4587 194.56 51.5633C194.523 51.7613 194.484 51.9572 194.429 52.1515C194.372 52.356 194.304 52.5575 194.229 52.7561C194.218 52.7864 194.09 53.0937 194.164 52.9236C194.119 53.0275 194.072 53.1306 194.023 53.2329C193.617 54.0875 193.106 54.8903 192.554 55.6574C191.689 56.8604 190.558 58.1509 189.399 59.2887C189.915 59.5021 190.43 59.7155 190.945 59.9289C190.871 58.7939 190.722 57.6383 190.44 56.5361C190.266 55.8557 190.026 55.093 189.512 54.5868C188.862 53.9457 187.851 54.1314 187.018 54.1314H184.674C184.185 54.1314 183.769 54.5475 183.769 55.0367C183.769 55.5277 184.183 55.9421 184.674 55.9421L187.809 55.942C188.004 55.942 188.201 55.9476 188.396 55.942C188.65 55.9348 188.236 55.8953 188.346 55.9262C188.463 55.9591 188.209 55.8629 188.219 55.8681C188.249 55.8824 188.279 55.8986 188.305 55.9179C188.206 55.8459 188.143 55.7918 188.258 55.8939C188.401 56.0212 188.19 55.773 188.243 55.8676C188.308 55.9829 188.376 56.0943 188.438 56.2121C188.535 56.3996 188.387 56.0622 188.439 56.2112C188.463 56.2808 188.492 56.349 188.516 56.4187C188.575 56.5863 188.625 56.7567 188.671 56.9281C188.76 57.262 188.83 57.6007 188.891 57.9408C188.92 58.1034 188.947 58.2663 188.972 58.4295C188.984 58.508 188.995 58.5865 189.006 58.6651C189.036 58.8707 188.985 58.4891 189.015 58.7336C189.063 59.1309 189.108 59.5293 189.134 59.9288C189.184 60.6961 190.096 61.1427 190.68 60.569C191.597 59.6676 192.461 58.7078 193.261 57.6999C194.289 56.4034 195.232 55.0405 195.868 53.5057C195.996 53.1967 196.11 52.8817 196.196 52.5582C196.237 52.4007 196.273 52.2415 196.3 52.0808C196.317 51.981 196.33 51.8807 196.344 51.7804C196.351 51.7245 196.367 51.6493 196.368 51.5886C196.373 51.3742 196.346 51.7569 196.319 51.7505C196.426 51.7762 196.435 51.0827 196.437 51.0955C196.414 50.9128 196.347 50.758 196.239 50.6081C196.044 50.3393 195.724 50.1741 195.39 50.1719C194.856 50.1684 194.477 50.4721 194.103 50.8099C193.973 50.9282 193.837 51.0415 193.7 51.1517C193.801 51.071 193.592 51.2321 193.562 51.254C193.476 51.3162 193.389 51.3771 193.302 51.4366C192.968 51.6631 192.62 51.8699 192.264 52.0603C191.501 52.4689 190.916 52.7098 190.105 52.9871C189.191 53.3 188.255 53.5463 187.308 53.7399C186.846 53.8346 186.381 53.9165 185.914 53.9859C185.867 53.9929 185.82 53.9998 185.772 54.0066C185.756 54.0089 185.584 54.0328 185.657 54.023C185.744 54.0114 185.591 54.0314 185.59 54.0314C185.513 54.0409 185.435 54.0507 185.358 54.0598C185.13 54.0866 184.902 54.1102 184.674 54.1314C184.187 54.1765 183.769 54.5152 183.769 55.0367C183.769 55.4914 184.184 55.9876 184.674 55.9421Z" fill="black"/>
<path d="M185.339 45.065C185.802 44.7092 186.273 44.3489 186.657 43.9048C186.838 43.6949 187.013 43.4694 187.14 43.2213C187.212 43.0789 187.263 42.9258 187.339 42.7852C187.343 42.7786 187.386 42.7053 187.387 42.7058C187.406 42.7212 187.269 42.8132 187.37 42.735C187.434 42.6853 187.264 42.7652 187.35 42.7517C187.359 42.7501 187.388 42.7329 187.396 42.7267C187.438 42.6939 187.299 42.749 187.361 42.7441C187.41 42.7401 187.469 42.7158 187.519 42.7047C187.622 42.6817 187.467 42.7048 187.588 42.6971C187.649 42.6932 187.709 42.6892 187.77 42.6881C187.864 42.6863 187.793 42.6788 187.735 42.6516C187.662 42.617 187.768 42.6624 187.751 42.6709C187.674 42.7099 187.788 42.5255 187.739 42.678C187.738 42.6829 187.706 42.5797 187.723 42.6585C187.729 42.6845 187.735 42.7117 187.742 42.7374C187.715 42.6401 187.741 42.7437 187.742 42.7914C187.745 42.8681 187.743 42.9451 187.738 43.0216C187.736 43.0543 187.734 43.0868 187.731 43.1193C187.731 43.1175 187.717 43.2228 187.725 43.1683C187.734 43.1137 187.715 43.2186 187.716 43.2165C187.707 43.259 187.699 43.3015 187.689 43.3437C187.658 43.4815 187.617 43.6171 187.569 43.7503C187.558 43.7812 187.547 43.8118 187.535 43.8426C187.53 43.8555 187.498 43.9369 187.521 43.8815C187.487 43.963 187.448 44.043 187.409 44.1222C187.339 44.2623 187.264 44.3995 187.185 44.5346C187.016 44.8244 186.83 45.1039 186.642 45.3821C186.402 45.7387 186.669 46.1328 187.003 46.2687C187.66 46.5363 188.433 46.5437 189.098 46.2987C189.393 46.1899 189.626 45.8845 189.52 45.5562C189.426 45.2664 189.094 45.0178 188.777 45.1346C188.65 45.1816 188.522 45.2163 188.389 45.2461C188.274 45.2721 188.393 45.2546 188.283 45.2612C188.205 45.2659 188.126 45.2698 188.048 45.2684C187.98 45.2673 187.913 45.2641 187.846 45.2566C187.803 45.2524 187.801 45.2522 187.84 45.2557C187.806 45.2501 187.773 45.2436 187.741 45.2362C187.597 45.2052 187.46 45.1599 187.324 45.1047C187.444 45.4002 187.564 45.6958 187.685 45.9913C188.077 45.4098 188.446 44.8207 188.699 44.1635C188.942 43.5306 189.084 42.731 188.792 42.0929C188.457 41.3613 187.455 41.3661 186.821 41.6688C186.389 41.8748 186.283 42.2657 186.077 42.6514C186.04 42.7201 186 42.7864 185.956 42.8511C185.939 42.8766 185.922 42.9017 185.904 42.9269C185.792 43.0863 185.936 42.8911 185.864 42.9782C185.748 43.1196 185.621 43.2524 185.489 43.3792C185.363 43.5 185.232 43.6153 185.098 43.7271C185.025 43.7888 184.95 43.8492 184.874 43.909C184.85 43.9285 184.825 43.948 184.8 43.9674C184.641 44.0928 184.886 43.9024 184.729 44.0225C184.471 44.2206 184.334 44.542 184.513 44.8483C184.661 45.1025 185.078 45.2646 185.339 45.065Z" fill="black"/>
<path d="M199.781 36.0016C200.033 35.3476 200.116 34.6105 200.079 33.9064C199.991 32.2116 199.258 30.5123 197.924 29.4631C196.117 28.0413 192.975 28.0678 191.991 30.489C191.849 30.8385 191.836 31.2254 191.837 31.6026C191.844 33.079 192.059 34.5543 192.475 35.971C192.604 36.4133 192.731 36.957 192.403 37.2815C192.128 37.5538 191.65 37.5038 191.337 37.2763C191.024 37.0488 190.837 36.6913 190.661 36.3468C189.578 34.2287 188.7 32.0434 187.006 30.3473C186.641 29.9811 186.221 29.6423 185.72 29.5119C185.309 29.4046 184.874 29.4465 184.453 29.5016C179.464 30.1537 174.783 32.5545 169.759 32.8201C169.157 30.4578 168.521 28.4449 167.637 26.1711C166.676 23.7015 166.032 21.1082 165.733 18.475C165.497 16.4031 165.574 14.043 167.075 12.5956C168.459 11.2616 170.737 11.169 172.451 12.0385C174.165 12.908 175.364 14.568 176.108 16.34C175.151 16.5984 174.144 15.8604 173.784 14.9367C173.423 14.013 173.557 12.9748 173.769 12.0063C174.05 10.7239 174.47 9.4476 175.235 8.38059C176.819 6.16934 179.905 5.16814 182.486 6.02768C185.067 6.88719 186.936 9.53834 186.879 12.2581C185.418 11.0016 186.151 8.55363 187.414 7.09817C189.059 5.20257 192.187 4.02092 193.997 5.75937C194.868 6.59661 195.196 7.89778 195.663 8.97083C196.251 10.3227 196.638 11.6854 196.636 13.1729C196.193 12.5497 196.149 11.6679 196.527 11.0036C196.905 10.3392 197.685 9.92669 198.447 9.98878C199.368 10.0638 200.123 10.7531 200.669 11.4993C201.611 12.7894 202.147 14.3267 202.612 15.8549C203.888 20.0393 204.735 24.3385 205.452 28.6494C206.112 32.6263 206.966 36.4612 206.789 40.5081C206.779 40.7237 206.765 40.9487 206.656 41.1345C206.362 41.6324 205.626 41.5547 205.076 41.3762C202.703 40.606 200.554 39.1573 198.951 37.2462C199.329 36.9041 199.599 36.4746 199.781 36.0016Z" fill="black"/>
<path d="M200.654 36.2416C201.273 34.5645 201.006 32.6243 200.272 31.0302C199.629 29.6343 198.493 28.5199 197.061 27.9606C195.819 27.4753 194.394 27.4771 193.174 28.0192C192.557 28.2931 192.045 28.7338 191.643 29.2711C191.129 29.9588 190.93 30.749 190.932 31.6019C190.934 32.6244 191.043 33.6513 191.23 34.656C191.313 35.0995 191.414 35.5395 191.534 35.9743C191.581 36.1448 191.635 36.3136 191.675 36.486C191.677 36.4947 191.71 36.7893 191.703 36.6232C191.707 36.6844 191.706 36.7455 191.702 36.8067C191.695 36.7617 191.704 36.7205 191.729 36.6831C191.761 36.6241 191.825 36.6169 191.862 36.5718L191.929 36.5607C191.829 36.558 191.81 36.557 191.871 36.5577C191.874 36.5213 192.087 36.6843 191.869 36.5431C191.991 36.6221 191.771 36.4505 191.764 36.4426C191.858 36.5462 191.674 36.3131 191.676 36.3162C191.625 36.2335 191.578 36.1478 191.532 36.0618C191.432 35.8756 191.339 35.6862 191.244 35.4974C190.871 34.7502 190.513 33.9948 190.126 33.2547C189.33 31.7363 188.344 30.0899 186.913 29.0884C186.052 28.4851 185.093 28.5056 184.097 28.6432C183.215 28.7649 182.342 28.9376 181.476 29.1434C177.578 30.0702 173.761 31.6893 169.758 31.914C170.049 32.1356 170.34 32.3572 170.631 32.5787C170.06 30.3405 169.365 28.1421 168.532 25.9874C167.683 23.7941 167.069 21.5173 166.73 19.1892C166.594 18.2579 166.505 17.2988 166.548 16.3508C166.572 15.8221 166.594 15.5969 166.722 15.0788C166.774 14.8669 166.843 14.6625 166.912 14.4557C166.912 14.4563 166.966 14.3147 166.934 14.3924C166.899 14.4799 166.973 14.3067 166.981 14.2899C167.033 14.1791 167.089 14.0706 167.15 13.9644C167.374 13.5724 167.539 13.3692 167.922 13.0501C167.837 13.121 168.035 12.9707 168.071 12.9468C168.16 12.8883 168.251 12.8333 168.345 12.7823C168.398 12.7532 168.453 12.7276 168.507 12.6987C168.507 12.6986 168.643 12.6344 168.565 12.669C168.478 12.708 168.65 12.6356 168.668 12.629C168.74 12.6025 168.812 12.5778 168.885 12.5551C169.09 12.4913 169.3 12.4444 169.512 12.4084C169.376 12.4314 169.598 12.3989 169.639 12.3954C169.778 12.3836 169.918 12.3779 170.058 12.3776C170.167 12.3773 170.276 12.3803 170.385 12.387C170.431 12.3898 170.478 12.3935 170.525 12.3976C170.545 12.3993 170.736 12.4201 170.637 12.4075C170.731 12.4195 171.074 12.4908 171.252 12.5404C172.173 12.7962 172.98 13.3591 173.678 14.1153C174.035 14.502 174.259 14.8077 174.553 15.284C174.851 15.7669 175.105 16.2743 175.326 16.7962C175.507 16.3529 175.687 15.9096 175.867 15.4662C175.621 15.5247 175.997 15.4963 175.748 15.4857C175.729 15.4848 175.453 15.4496 175.632 15.4859C175.544 15.4681 175.456 15.4443 175.372 15.4124C175.528 15.4715 175.263 15.3506 175.258 15.3476C174.993 15.1932 174.8 14.9807 174.64 14.6498C174.715 14.8052 174.58 14.4732 174.582 14.4801C174.549 14.372 174.522 14.262 174.5 14.1509C174.47 13.9962 174.464 13.801 174.465 13.6019C174.468 13.1544 174.528 12.7886 174.618 12.3582C174.803 11.478 175.05 10.58 175.441 9.79783C175.621 9.43625 175.83 9.0876 176.071 8.76264C175.974 8.8928 176.157 8.65763 176.156 8.65884C176.215 8.589 176.275 8.52053 176.337 8.45345C176.482 8.29713 176.634 8.14855 176.794 8.00812C177.768 7.15344 179.192 6.63603 180.51 6.62606C180.692 6.62467 180.875 6.63099 181.057 6.64527C181.147 6.65239 181.238 6.6607 181.329 6.67262C181.145 6.64834 181.441 6.69404 181.449 6.69552C181.811 6.76226 182.161 6.86637 182.507 6.99394C182.78 7.09493 182.369 6.91982 182.631 7.04685C182.714 7.08714 182.797 7.12601 182.879 7.16849C183.043 7.25329 183.203 7.34561 183.359 7.44474C183.711 7.66938 183.86 7.78619 184.189 8.10248C184.786 8.67735 185.16 9.2207 185.532 10.0248C185.622 10.2198 185.795 10.757 185.873 11.1217C185.892 11.212 185.907 11.3028 185.925 11.3935C185.941 11.504 185.944 11.515 185.932 11.4268C185.939 11.4879 185.945 11.5491 185.951 11.6104C185.97 11.8257 185.976 12.0412 185.973 12.2573C186.488 12.0439 187.004 11.8305 187.519 11.6171C187.415 11.5245 187.312 11.4277 187.228 11.3168C187.344 11.47 187.197 11.2526 187.186 11.2348C187.159 11.1887 187.137 11.1413 187.111 11.0948C186.996 10.8875 187.141 11.2473 187.082 11.018C187.068 10.9669 187.05 10.9169 187.036 10.8657C187.016 10.7881 187 10.7098 186.986 10.6309C187.016 10.7927 186.986 10.6141 186.982 10.5487C186.974 10.4104 186.976 10.2713 186.985 10.1331C186.985 10.1432 187.013 9.86865 186.996 9.99971C186.978 10.1322 187.023 9.85317 187.021 9.8647C187.084 9.54674 187.179 9.22981 187.307 8.93182C187.253 9.05759 187.316 8.91809 187.325 8.89987C187.366 8.81909 187.404 8.73678 187.446 8.65654C187.516 8.52327 187.591 8.39262 187.671 8.26503C187.75 8.13882 187.834 8.01584 187.923 7.89578C187.9 7.92693 187.829 8.00787 187.943 7.87043C188.008 7.79203 188.073 7.71452 188.142 7.63906C188.596 7.13765 188.913 6.88281 189.455 6.55359C189.713 6.39706 189.983 6.25336 190.261 6.13696C190.101 6.20396 190.374 6.0974 190.378 6.09585C190.434 6.07561 190.49 6.05623 190.546 6.03768C190.713 5.9827 190.882 5.93553 191.053 5.8972C191.124 5.88146 191.194 5.86811 191.265 5.85472C191.309 5.84646 191.496 5.82465 191.321 5.84365C191.46 5.82852 191.6 5.81871 191.74 5.81699C191.878 5.81528 192.015 5.82401 192.153 5.83394C192.332 5.84687 192.192 5.84081 192.155 5.83379C192.261 5.85407 192.367 5.87487 192.472 5.90355C192.524 5.91779 192.576 5.93338 192.627 5.95031C192.649 5.9578 192.892 6.05956 192.713 5.97718C192.837 6.03427 192.957 6.09915 193.073 6.17268C193.12 6.20254 193.166 6.23395 193.211 6.26629C193.083 6.17444 193.231 6.28376 193.26 6.31073C193.389 6.42739 193.513 6.54975 193.621 6.68568C193.532 6.57432 193.72 6.82998 193.711 6.81666C193.747 6.87112 193.782 6.92645 193.816 6.98235C193.901 7.1233 193.979 7.2687 194.052 7.41641C194.211 7.73703 194.288 7.94058 194.428 8.30433C194.727 9.07746 195.068 9.81533 195.315 10.6065C195.586 11.4739 195.726 12.2801 195.73 13.1721C196.293 13.0198 196.855 12.8675 197.417 12.7152C197.124 12.2774 197.084 11.8324 197.333 11.4189C197.442 11.2382 197.563 11.1427 197.8 11.0047C197.814 10.9968 197.955 10.9372 197.845 10.9796C197.904 10.9571 197.966 10.9384 198.027 10.9223C198.007 10.9276 198.302 10.8749 198.187 10.8869C198.147 10.8912 198.397 10.8883 198.447 10.8934C198.337 10.8822 198.628 10.9417 198.684 10.9568C198.765 10.979 198.841 11.0149 198.996 11.1088C199.248 11.2604 199.414 11.4138 199.649 11.6724C199.844 11.8867 199.96 12.0468 200.145 12.3306C200.352 12.648 200.537 12.9793 200.706 13.3185C201.35 14.615 201.747 16.0674 202.143 17.4737C202.578 19.0164 202.959 20.5738 203.302 22.1395C203.987 25.2661 204.494 28.4253 205.044 31.5774C205.304 33.0696 205.557 34.5643 205.717 36.071C205.8 36.8442 205.86 37.62 205.888 38.3972C205.903 38.7887 205.909 39.1805 205.906 39.5723C205.905 39.759 205.902 39.9458 205.897 40.1324C205.894 40.2483 205.852 40.6106 205.875 40.6435C205.923 40.7119 205.788 40.6931 205.92 40.6206L205.987 40.5771C205.897 40.627 205.901 40.6294 205.997 40.5843C205.991 40.574 205.861 40.6202 206.003 40.5993C205.919 40.6116 205.835 40.6032 205.751 40.6039C205.49 40.6063 205.84 40.6278 205.689 40.5983C205.604 40.5816 205.521 40.5619 205.437 40.5387C205.261 40.4899 205.089 40.4277 204.918 40.3658C204.253 40.1263 203.638 39.8351 202.986 39.4589C201.676 38.7032 200.582 37.777 199.591 36.6053V37.8856C200.084 37.4234 200.406 36.8627 200.654 36.2416C200.836 35.7874 200.456 35.247 200.022 35.1278C199.506 34.986 199.091 35.3043 198.908 35.7601C198.948 35.6605 198.845 35.8915 198.835 35.9121C198.781 36.0162 198.722 36.1172 198.657 36.215C198.599 36.3034 198.587 36.3177 198.557 36.3518C198.48 36.4418 198.397 36.5243 198.31 36.6053C197.932 36.9596 198.002 37.5217 198.31 37.8856C199.312 39.0697 200.517 40.087 201.845 40.8885C202.545 41.3109 203.283 41.6612 204.042 41.9626C204.685 42.2181 205.379 42.4787 206.084 42.3994C206.505 42.352 206.896 42.2096 207.2 41.9009C207.592 41.504 207.674 40.9772 207.697 40.4448C207.735 39.5578 207.721 38.6685 207.67 37.7823C207.567 35.9876 207.312 34.2037 207.018 32.4315C206.435 28.9142 205.855 25.3874 205.101 21.9022C204.727 20.173 204.307 18.4534 203.821 16.752C203.354 15.1159 202.865 13.4453 202.031 11.9521C201.147 10.3706 199.679 8.76257 197.685 9.14498C195.686 9.52849 194.735 11.9605 195.854 13.6291C196.337 14.3493 197.546 14.1122 197.541 13.1722C197.536 12.2174 197.393 11.2593 197.126 10.3424C196.866 9.44554 196.513 8.70274 196.21 7.91586C195.922 7.16745 195.637 6.39665 195.162 5.74266C194.653 5.0404 194.002 4.52551 193.185 4.23078C191.765 3.71922 190.143 4.12272 188.858 4.80969C187.516 5.5271 186.355 6.67533 185.724 8.06836C185.015 9.63268 184.834 11.6451 186.238 12.8976C186.816 13.413 187.773 13.0698 187.784 12.2574C187.835 8.39422 184.66 4.95505 180.783 4.81917C178.92 4.75384 177.082 5.42802 175.653 6.60952C174.027 7.95356 173.234 10.0294 172.838 12.0461C172.595 13.2811 172.499 14.701 173.215 15.8092C173.894 16.8583 175.096 17.5096 176.349 17.2123C176.976 17.0633 177.107 16.3924 176.89 15.8823C176.058 13.9239 174.646 12.0237 172.655 11.1366C170.665 10.2504 168.21 10.3657 166.537 11.8603C164.905 13.3188 164.615 15.6952 164.761 17.7585C164.936 20.2304 165.482 22.7064 166.271 25.0522C166.722 26.3933 167.268 27.6995 167.716 29.0424C168.157 30.3664 168.54 31.7082 168.885 33.0601C168.979 33.4264 169.37 33.7465 169.758 33.7247C173.344 33.5233 176.728 32.3185 180.157 31.3593C180.978 31.1296 181.803 30.915 182.637 30.735C183.465 30.5562 184.319 30.3473 185.148 30.3499C185.824 30.3521 186.253 30.8374 186.743 31.3866C187.259 31.9659 187.69 32.617 188.095 33.3164C188.502 34.0205 188.863 34.7498 189.222 35.4795C189.58 36.2093 189.892 37.0241 190.421 37.6502C191.058 38.4025 192.29 38.6707 193.043 37.9209C193.764 37.2033 193.476 36.2272 193.248 35.3743C193.014 34.5007 192.854 33.6101 192.786 32.7081C192.753 32.2654 192.732 31.8187 192.744 31.3748C192.749 31.2081 192.754 31.0686 192.794 30.9427C192.797 30.9331 192.928 30.6005 192.839 30.7923C192.874 30.7187 192.91 30.6462 192.95 30.5753C192.988 30.5064 193.029 30.4388 193.072 30.3729C193.089 30.348 193.245 30.1497 193.112 30.3088C193.192 30.2129 193.276 30.1209 193.366 30.0349C193.419 29.9842 193.475 29.937 193.531 29.8892C193.387 30.0124 193.508 29.9057 193.551 29.8782C193.684 29.7936 193.819 29.7187 193.957 29.6427C194.162 29.5293 193.783 29.6965 194.005 29.6197C194.051 29.604 194.096 29.5864 194.142 29.5711C194.28 29.5252 194.421 29.488 194.563 29.459C194.611 29.4492 194.659 29.4417 194.707 29.4326C194.946 29.3874 194.515 29.4384 194.759 29.4283C194.907 29.4221 195.055 29.4103 195.204 29.4129C195.279 29.4142 195.353 29.4174 195.428 29.4225C195.472 29.4256 195.794 29.4696 195.561 29.4314C195.71 29.4558 195.858 29.484 196.004 29.5211C196.151 29.5582 196.296 29.6023 196.438 29.6533C196.468 29.6638 196.702 29.7582 196.503 29.6731C196.595 29.7127 196.686 29.756 196.776 29.8019C197.39 30.1175 197.852 30.5412 198.219 31.0785C199.139 32.4233 199.492 34.1801 198.908 35.7601C198.739 36.2189 199.098 36.7522 199.541 36.8739C200.046 37.0128 200.484 36.702 200.654 36.2416Z" fill="black"/>
<path d="M173.557 36.488C173.721 36.3731 173.89 36.2671 174.066 36.1723C174.16 36.1218 174.256 36.0743 174.353 36.03C174.377 36.0189 174.401 36.008 174.426 35.9973C174.486 35.9713 174.474 35.976 174.392 36.0113C174.408 35.9881 174.494 35.9705 174.522 35.9601C174.709 35.8896 174.9 35.8303 175.094 35.7829C175.191 35.7591 175.289 35.7383 175.387 35.7206C175.44 35.7111 175.493 35.7031 175.545 35.6947C175.612 35.6853 175.598 35.6871 175.504 35.7003C175.53 35.6971 175.557 35.6941 175.583 35.6913C175.748 35.6733 175.888 35.636 176.01 35.5145C176.114 35.4098 176.193 35.2381 176.187 35.0877C176.173 34.7901 175.919 34.4474 175.583 34.4842C174.639 34.5873 173.729 34.8969 172.948 35.4457C172.817 35.5378 172.714 35.6474 172.671 35.8064C172.631 35.9509 172.649 36.1433 172.732 36.2715C172.897 36.5274 173.281 36.6822 173.557 36.488Z" fill="black"/>
<path d="M180.748 33.1754C180.945 33.0278 181.153 32.8964 181.373 32.7848C181.427 32.7569 181.483 32.7302 181.539 32.7047C181.572 32.6896 181.69 32.6194 181.564 32.6929C181.665 32.6338 181.801 32.6038 181.912 32.5696C182.03 32.5336 182.149 32.5025 182.269 32.4767C182.314 32.4671 182.359 32.4581 182.405 32.4499C182.437 32.4439 182.641 32.4012 182.472 32.4365C182.707 32.3873 182.971 32.3983 183.209 32.4096C183.525 32.4246 183.827 32.1213 183.812 31.806C183.797 31.4662 183.547 31.2185 183.209 31.2025C182.126 31.151 181.008 31.4824 180.138 32.1331C180.008 32.2308 179.906 32.3302 179.861 32.4938C179.821 32.6382 179.839 32.8306 179.922 32.9589C180.083 33.2081 180.477 33.3778 180.748 33.1754Z" fill="black"/>
<path d="M186.637 43.3046C186.991 43.2377 187.336 43.5247 187.461 43.8633C187.586 44.2019 187.547 44.5762 187.506 44.9348C187.784 44.6233 187.998 44.2539 188.128 43.8571C188.21 43.6094 188.258 43.3339 188.161 43.0917C188.064 42.8495 187.778 42.6694 187.537 42.7681C187.376 42.9304 187.043 42.7085 187.131 42.498" fill="black"/>
<path d="M186.797 43.8867C186.693 43.8979 186.674 43.9019 186.739 43.8985L186.773 43.8994C186.668 43.8822 186.648 43.8798 186.712 43.892L186.745 43.9004C186.855 43.9182 186.636 43.835 186.727 43.8897C186.743 43.8994 186.796 43.9431 186.816 43.943C186.741 43.8827 186.727 43.8729 186.776 43.9137L186.802 43.9376C186.819 43.9538 186.852 44.0081 186.874 44.0157C186.817 43.9396 186.807 43.9275 186.843 43.9793L186.862 44.0094C186.873 44.0261 186.947 44.1623 186.895 44.0635C186.845 43.9683 186.904 44.1006 186.911 44.1264C186.922 44.1679 186.929 44.2101 186.939 44.2519C186.946 44.2981 186.944 44.28 186.932 44.1977C186.934 44.2191 186.936 44.2405 186.937 44.262C186.94 44.3051 186.941 44.3483 186.942 44.3916C186.942 44.5734 186.922 44.7544 186.902 44.9348C186.876 45.1684 187.076 45.4031 187.273 45.4864C187.484 45.5753 187.773 45.5423 187.932 45.3616C188.188 45.0712 188.407 44.7524 188.561 44.3963C188.747 43.9643 188.886 43.5066 188.774 43.0339C188.675 42.6134 188.314 42.2362 187.882 42.1609C187.729 42.1343 187.589 42.1296 187.437 42.1671C187.367 42.1842 187.294 42.2137 187.231 42.2469C187.082 42.3622 187.069 42.3728 187.19 42.2787L187.288 42.2361C187.362 42.215 187.435 42.2152 187.509 42.2368L187.484 42.2304C187.586 42.2783 187.61 42.2877 187.556 42.2588L187.635 42.322C187.592 42.2796 187.606 42.3009 187.677 42.386C187.656 42.3485 187.658 42.3575 187.685 42.4131C187.711 42.4626 187.723 42.5161 187.72 42.5736C187.696 42.691 187.694 42.7193 187.713 42.6585C187.814 42.3593 187.596 41.9855 187.291 41.916C186.957 41.8398 186.658 42.0172 186.549 42.3376C186.426 42.6976 186.62 43.1048 186.936 43.2938C187.276 43.4971 187.669 43.4545 187.963 43.1949L187.697 43.3501C187.716 43.342 187.737 43.3356 187.758 43.3311C187.649 43.3417 187.626 43.3461 187.691 43.3443C187.582 43.3257 187.56 43.3231 187.623 43.3363C187.683 43.3552 187.665 43.3458 187.569 43.3084C187.589 43.3177 187.608 43.3282 187.626 43.3398C187.677 43.375 187.663 43.3634 187.582 43.305C187.599 43.3197 187.614 43.3353 187.629 43.3518C187.571 43.2716 187.559 43.2573 187.595 43.3088C187.668 43.4531 187.57 43.2106 187.605 43.334C187.638 43.45 187.613 43.2123 187.609 43.3427C187.608 43.3916 187.624 43.47 187.603 43.5157C187.615 43.4276 187.615 43.4174 187.603 43.4851C187.597 43.5138 187.59 43.5424 187.583 43.5707C187.558 43.6656 187.532 43.8125 187.473 43.8926C187.505 43.8191 187.512 43.8031 187.493 43.8444C187.485 43.8635 187.476 43.8825 187.467 43.9013C187.443 43.9517 187.418 44.0014 187.392 44.0503C187.339 44.1483 187.28 44.2434 187.217 44.335C187.201 44.3579 187.185 44.3805 187.168 44.403C187.129 44.4553 187.135 44.4478 187.187 44.3803C187.167 44.4249 187.111 44.4716 187.079 44.508C187.422 44.6502 187.766 44.7925 188.109 44.9348C188.167 44.4213 188.183 43.8786 187.914 43.4154C187.785 43.1932 187.59 42.9914 187.366 42.8636C187.083 42.7022 186.792 42.6729 186.476 42.7226C186.336 42.7445 186.183 42.8833 186.115 42.9999C186.039 43.1293 186.007 43.32 186.054 43.465C186.101 43.6111 186.192 43.752 186.332 43.8257C186.484 43.9063 186.627 43.9132 186.797 43.8867Z" fill="black"/>
<path d="M35.7327 202.783C30.5668 195.113 28.2251 185.672 28.9592 176.47C29.5448 169.129 32.4022 162.162 36.59 156.146C40.4548 150.594 46.0693 145.161 53.0521 144.181C56.5153 143.695 60.5468 144.348 63.247 146.697C64.6929 147.955 65.8176 149.66 66.0807 151.589C66.1327 151.969 66.2367 152.582 66.008 152.926C65.7935 153.248 65.4102 153.166 65.0893 153.054C64.1713 152.734 63.52 151.968 62.895 151.264C57.3198 144.98 54.5352 136.837 54.3114 128.502C54.0879 120.175 56.15 111.832 59.55 104.265C61.6038 99.695 64.3522 95.4582 67.301 91.4191C70.8979 86.4922 74.9461 81.7399 79.723 77.9149C81.7638 76.2808 84.0515 74.7627 86.486 73.8483C88.6163 73.0481 90.8242 72.7024 92.9473 73.2581C94.0527 73.5474 95.015 74.0241 95.9718 74.7253C97.2784 75.6828 98.287 77.0194 99.3736 78.2209C100.546 79.5173 101.761 80.7929 103.101 81.9184C103.731 82.4467 104.395 82.9902 105.14 83.3512C105.43 83.4918 105.752 83.6361 106.083 83.6403C107.248 83.655 107.249 81.8443 106.083 81.8295C106.317 81.8325 106.299 81.9284 106.153 81.8249C106.133 81.8109 106.08 81.7964 106.055 81.791C105.891 81.755 106.232 81.8766 106.134 81.8253C106.026 81.768 105.914 81.7182 105.806 81.6581C104.885 81.1427 104.275 80.5773 103.469 79.8284C101.867 78.3408 100.464 76.6809 99.0021 75.0616C98.0902 74.0516 97.0227 73.1501 95.8314 72.4863C90.9874 69.7871 85.4574 71.7726 81.1786 74.6189C75.8512 78.1628 71.4506 83.0621 67.557 88.0892C64.3663 92.2089 61.3104 96.5757 58.9766 101.249C55.1477 108.915 52.7217 117.492 52.5001 126.082C52.2748 134.815 54.5956 143.564 59.9668 150.544C61.2329 152.19 62.7628 154.423 64.9297 154.888C65.95 155.106 67.0294 154.783 67.5716 153.84C68.1318 152.865 67.96 151.596 67.7188 150.551C66.7353 146.29 62.8252 143.496 58.7369 142.624C51.2006 141.016 44.1702 144.883 39.0946 150.21C34.0111 155.546 30.1382 162.448 28.2789 169.586C25.8809 178.791 26.9364 188.862 30.7641 197.527C31.7153 199.681 32.8543 201.745 34.1693 203.697C34.8168 204.659 36.3861 203.754 35.7327 202.783Z" fill="black"/>
</svg>
