<svg width="287" height="256" viewBox="0 0 287 256" fill="none" xmlns="http://www.w3.org/2000/svg">
<g clip-path="url(#clip0_3063_4340)">
<path d="M208.44 135.111L208.44 135.11C208.046 134.234 207.233 133.613 206.281 133.48C203.158 133.046 200.32 131.064 198.931 127.976C196.73 123.084 199.019 117.312 204.042 115.286C208.583 113.454 213.848 115.439 216.049 119.814C217.642 122.982 217.295 126.578 215.498 129.307C214.961 130.124 214.859 131.152 215.26 132.043C215.898 133.461 217.565 134.094 218.983 133.456L232.289 127.471C235.453 126.048 236.864 122.329 235.441 119.164L229.456 105.859C228.818 104.441 229.451 102.774 230.869 102.136L230.87 102.135C231.746 101.741 232.766 101.816 233.566 102.348C236.191 104.095 239.629 104.495 242.717 103.106C247.61 100.905 249.726 95.069 247.312 90.2205C245.13 85.837 239.873 83.8288 235.324 85.6422C232.03 86.9557 229.905 89.8766 229.438 93.1106C229.298 94.0782 228.693 94.9149 227.801 95.316C226.383 95.9539 224.716 95.3214 224.078 93.9031L218.074 80.5559C216.651 77.3916 212.932 75.9803 209.768 77.4036L196.462 83.3887C195.044 84.0266 193.377 83.3941 192.739 81.9758C192.338 81.0843 192.44 80.0563 192.978 79.2397C194.774 76.5104 195.122 72.9149 193.528 69.7463C191.328 65.3718 186.062 63.3868 181.521 65.2187C176.498 67.245 174.21 73.0161 176.41 77.9088C177.8 80.997 180.637 82.9784 183.76 83.4131C184.712 83.5456 185.525 84.1664 185.919 85.0426L185.919 85.0435C186.557 86.4617 185.925 88.1285 184.507 88.7664L171.159 94.7702C167.995 96.1935 166.584 99.9125 168.007 103.077L173.992 116.382C174.63 117.801 173.998 119.467 172.579 120.105C171.688 120.506 170.66 120.405 169.843 119.867C167.114 118.071 163.518 117.723 160.35 119.317C155.975 121.517 153.99 126.783 155.822 131.324C157.849 136.347 163.62 138.635 168.512 136.434C171.6 135.045 173.582 132.208 174.017 129.084C174.149 128.133 174.77 127.32 175.646 126.926L175.647 126.925C177.065 126.287 178.732 126.92 179.37 128.338L185.374 141.685C186.797 144.85 190.516 146.261 193.68 144.838L207.028 138.834C208.446 138.196 209.078 136.529 208.44 135.111Z" fill="#FF5A48"/>
<path d="M256.375 108.967C256.399 109.075 256.419 109.179 256.386 109.284C256.381 109.301 256.372 109.324 256.36 109.338C256.346 109.355 256.282 109.426 256.243 109.458C256.087 109.585 255.805 109.669 255.566 109.718C254.959 109.842 254.33 109.805 253.724 109.943C253.07 110.091 252.448 110.512 252.4 111.237C252.354 111.932 253.042 112.397 253.577 112.695C254.207 113.047 254.905 113.239 255.624 113.283C255.903 113.3 256.141 113.033 256.141 112.766C256.141 112.472 255.904 112.266 255.624 112.249C254.963 112.209 254.312 111.975 253.758 111.59C253.657 111.52 253.541 111.407 253.465 111.35C253.408 111.308 253.424 111.268 253.442 111.236C253.561 111.022 253.856 110.964 254.136 110.912C254.846 110.78 255.586 110.849 256.273 110.592C256.646 110.453 256.984 110.245 257.214 109.914C257.468 109.548 257.465 109.111 257.372 108.692C257.31 108.42 256.996 108.26 256.736 108.331C256.455 108.408 256.313 108.694 256.375 108.967Z" fill="black"/>
<path d="M221.11 98.5074C221.11 101.287 221.11 104.067 221.11 106.846L221.216 106.455C220.262 108.355 219.318 110.261 218.389 112.173C218.053 112.865 217.746 113.576 217.37 114.247C216.854 115.17 216.367 116.109 215.892 117.054C213.695 121.422 211.783 125.943 210.172 130.559C207.96 136.89 206.315 143.456 205.678 150.142C205.082 156.394 205.461 162.821 207.289 168.854C208.91 174.199 211.757 179.329 216.228 182.796C218.523 184.577 221.164 185.865 223.978 186.59C227.337 187.455 230.924 187.733 234.384 187.698C241.32 187.628 248.241 185.961 254.383 182.719C260.889 179.285 266.052 173.977 270.674 168.341C273.033 165.466 275.327 162.483 277.38 159.379C277.691 158.908 277.981 158.423 278.27 157.939C279.967 155.106 281.496 152.166 282.833 149.146C284.625 145.096 286.145 140.849 286.749 136.443C287.298 132.434 287.093 127.993 284.627 124.603C284.025 123.775 283.33 123.026 282.528 122.386C281.464 121.537 280.18 121.027 279.127 120.151C278.313 119.473 277.729 118.819 277.311 117.865C277.371 118.001 277.266 117.745 277.256 117.717C277.219 117.616 277.186 117.515 277.155 117.413C277.091 117.198 277.039 116.98 277 116.759C276.96 116.538 276.961 116.564 276.937 116.257C276.919 116.026 276.911 115.793 276.91 115.561C276.905 113.414 277.386 111.287 277.484 109.142C277.589 106.867 277.516 104.425 276.482 102.349C274.734 98.8366 270.918 96.5257 267.267 95.4453C263.553 94.3462 259.128 94.3548 255.986 96.8938C254.363 98.205 253.351 100.134 252.914 102.152C252.572 103.729 252.067 105.272 251.716 106.85C251.402 108.264 251.15 109.691 250.977 111.13C250.558 114.606 250.526 118.771 252.694 121.737C254.152 123.733 256.35 124.755 258.77 125.001C260.472 125.173 262.23 124.966 263.882 124.539C264.148 124.471 264.415 124.398 264.674 124.307C265.609 123.979 265.207 122.48 264.262 122.812C263.989 122.908 263.708 122.984 263.428 123.055C263.113 123.135 262.796 123.205 262.478 123.266C262.292 123.301 262.106 123.333 261.919 123.362C261.838 123.375 261.478 123.421 261.792 123.382C261.682 123.396 261.572 123.41 261.462 123.422C260.518 123.526 259.571 123.534 258.626 123.435C258.564 123.428 258.339 123.395 258.607 123.434C258.552 123.426 258.497 123.419 258.442 123.41C258.305 123.387 258.168 123.364 258.031 123.337C257.783 123.288 257.536 123.228 257.293 123.157C257.046 123.086 256.807 122.996 256.566 122.908C256.366 122.834 256.707 122.977 256.513 122.886C256.461 122.862 256.408 122.839 256.355 122.814C256.23 122.756 256.107 122.694 255.986 122.628C255.746 122.498 255.513 122.354 255.291 122.196C255.242 122.161 255.194 122.125 255.145 122.09C255.064 122.032 255.273 122.2 255.105 122.058C254.994 121.963 254.882 121.87 254.775 121.771C254.566 121.576 254.369 121.368 254.186 121.149C254.156 121.113 253.98 120.886 254.123 121.075C254.082 121.021 254.042 120.968 254.003 120.914C253.908 120.782 253.818 120.647 253.732 120.509C253.299 119.816 253.149 119.452 252.926 118.765C252.802 118.385 252.701 117.997 252.618 117.605C252.52 117.145 252.462 116.752 252.426 116.427C252.178 114.191 252.368 111.912 252.735 109.701C252.984 108.205 253.314 106.723 253.697 105.256C253.91 104.438 254.2 103.625 254.361 102.796C254.469 102.247 254.615 101.705 254.807 101.18C255.416 99.5159 256.569 98.1514 258.139 97.311C258.332 97.2078 258.529 97.1126 258.729 97.0245C258.751 97.0152 258.866 96.9678 258.746 97.017C258.791 96.9985 258.837 96.9799 258.883 96.9626C258.997 96.9194 259.112 96.876 259.228 96.8361C259.663 96.6868 260.108 96.5699 260.56 96.4821C261.059 96.385 261.283 96.3575 261.831 96.3231C262.3 96.2936 262.77 96.2909 263.24 96.3115C266.913 96.4725 270.841 98.1078 273.44 100.773C274.098 101.448 274.515 101.975 274.981 102.821C275.222 103.259 275.306 103.446 275.444 103.838C275.579 104.224 275.683 104.621 275.75 105.025C276.156 107.487 275.92 110.005 275.62 112.463C275.392 114.335 275.099 116.344 275.773 118.162C276.636 120.488 278.745 121.985 280.862 123.101C281.669 123.526 282.43 124.318 283.049 125.076C283.196 125.255 283.238 125.311 283.402 125.545C283.536 125.736 283.663 125.932 283.784 126.132C284.031 126.542 284.25 126.967 284.442 127.405C284.439 127.398 284.487 127.511 284.528 127.614C284.566 127.71 284.603 127.807 284.638 127.905C284.728 128.149 284.809 128.397 284.883 128.647C285.017 129.103 285.126 129.566 285.213 130.033C285.375 130.91 285.453 131.881 285.458 132.886C285.477 137.178 284.234 141.454 282.68 145.495C281.365 148.916 279.702 152.315 277.859 155.563C276.43 158.085 274.807 160.411 273.077 162.746C270.778 165.852 268.338 168.857 265.704 171.686C263.264 174.307 260.686 176.818 257.738 178.866C252.168 182.736 245.612 185.125 238.876 185.875C235.391 186.264 231.861 186.237 228.38 185.811C225.37 185.442 222.429 184.743 219.755 183.274C214.945 180.631 211.614 176.03 209.659 170.982C207.485 165.371 206.762 159.259 207.012 153.273C207.294 146.546 208.767 139.9 210.818 133.504C212.397 128.58 214.339 123.769 216.598 119.117C217.192 117.894 217.807 116.68 218.457 115.486C219.349 113.85 220.117 112.148 220.942 110.477C221.399 109.55 221.86 108.624 222.323 107.7C222.427 107.491 222.571 107.278 222.633 107.053C222.707 106.782 222.661 106.431 222.661 106.152C222.661 105.659 222.661 105.167 222.661 104.675C222.661 102.619 222.661 100.563 222.661 98.5075C222.661 97.5098 221.11 97.5081 221.11 98.5074Z" fill="black"/>
<path d="M225.032 95.6854V103.213C225.032 104.211 226.583 104.213 226.583 103.213V95.6854C226.583 94.6877 225.032 94.6861 225.032 95.6854Z" fill="black"/>
<path d="M228.955 95.7245V103.252C228.955 104.25 230.506 104.252 230.506 103.252C230.506 101.054 230.506 98.8556 230.506 96.6572V95.7245C230.506 94.7268 228.955 94.7251 228.955 95.7245Z" fill="black"/>
<path d="M232.877 95.7625V103.29C232.877 104.288 234.427 104.29 234.427 103.29V95.7625C234.427 94.7649 232.877 94.7632 232.877 95.7625Z" fill="black"/>
<path d="M259.417 124.268C257.463 124.384 254.542 124.015 253.481 124.002C253.481 124.002 260.303 130.647 266.328 125.508C267.569 124.09 269.163 121.964 269.163 121.964C269.163 121.964 265.353 123.913 259.417 124.268Z" fill="black"/>
<path d="M259.417 123.493C257.429 123.603 255.465 123.261 253.482 123.228C252.813 123.217 252.455 124.086 252.934 124.551C254.227 125.807 255.857 126.788 257.518 127.463C258.871 128.012 260.363 128.321 261.826 128.214C263.638 128.081 265.42 127.35 266.782 126.137C267.173 125.789 267.494 125.334 267.825 124.928C268.13 124.553 268.43 124.174 268.728 123.794C269.1 123.318 269.47 122.839 269.833 122.356C270.036 122.085 269.935 121.64 269.712 121.417C269.46 121.164 269.081 121.138 268.773 121.295C268.712 121.326 268.65 121.355 268.589 121.384C268.525 121.414 268.461 121.443 268.396 121.471C268.35 121.492 268.303 121.512 268.256 121.532C268.064 121.618 268.374 121.487 268.237 121.541C267.601 121.792 266.964 122.031 266.311 122.236C264.074 122.938 261.756 123.348 259.417 123.493C259 123.519 258.642 123.831 258.642 124.268C258.642 124.668 258.997 125.07 259.417 125.044C261.89 124.89 264.357 124.474 266.723 123.731C267.682 123.43 268.657 123.092 269.555 122.634C269.202 122.281 268.848 121.927 268.494 121.573C267.767 122.542 267.022 123.493 266.212 124.456C265.215 125.643 263.682 126.418 262.204 126.626C259.705 126.976 257.321 125.914 255.3 124.485C255.195 124.41 255.091 124.335 254.987 124.258C254.95 124.23 254.913 124.202 254.876 124.174C254.763 124.089 254.996 124.271 254.826 124.135C254.681 124.019 254.536 123.902 254.394 123.781C254.27 123.675 254.147 123.568 254.03 123.455L253.482 124.778C255.465 124.812 257.429 125.153 259.417 125.044C260.41 124.989 260.416 123.438 259.417 123.493Z" fill="black"/>
<path d="M253.806 93.8245C253.299 94.9514 253.052 96.1658 253.192 97.404C253.694 101.859 258.639 105.62 262.962 104.156C262.962 106.105 264.469 108.232 267.127 106.371C269.785 104.51 268.81 113.725 267.127 115.586C268.81 115.851 270.339 107.497 272.709 108.409C277.316 110.181 274.181 115.124 272.295 116.489C273.188 117.64 277.633 119.054 277.565 116.474C278.061 116.8 278.751 116.684 279.237 116.343C281.1 115.037 282.683 112.388 283.234 110.232C285.029 103.214 282.803 95.154 277.222 90.5364C271.641 85.9188 262.855 85.3839 257.107 89.7926C255.728 90.8506 254.514 92.2523 253.806 93.8245Z" fill="black"/>
<path d="M253.136 93.4332C252.506 94.8656 252.238 96.3543 252.485 97.9104C252.664 99.0375 253.123 100.135 253.749 101.086C255.021 103.017 257.031 104.542 259.306 105.056C260.583 105.345 261.921 105.314 263.168 104.903C262.841 104.654 262.514 104.405 262.187 104.156C262.204 105.679 262.992 107.462 264.632 107.799C265.61 108 266.588 107.657 267.401 107.12C267.506 107.05 267.614 106.985 267.719 106.917C267.879 106.812 267.567 106.948 267.791 106.894C267.977 106.849 267.585 106.899 267.815 106.901C267.583 106.899 267.651 106.872 267.728 106.896C267.844 106.933 267.525 106.79 267.679 106.878C267.819 106.958 267.546 106.731 267.692 106.898C267.776 106.996 267.617 106.726 267.656 106.851C267.666 106.882 267.699 106.915 267.715 106.945C267.732 106.979 267.748 107.019 267.769 107.05C267.85 107.171 267.721 106.873 267.757 107.021C267.782 107.125 267.827 107.227 267.854 107.332C267.88 107.432 267.901 107.534 267.919 107.636C267.929 107.69 267.937 107.745 267.946 107.799C267.909 107.584 267.944 107.78 267.948 107.822C267.974 108.094 267.992 108.366 267.997 108.64C268.009 109.238 267.974 109.837 267.912 110.431C267.873 110.812 267.868 110.848 267.812 111.203C267.762 111.525 267.703 111.847 267.635 112.166C267.5 112.797 267.335 113.425 267.108 114.03C267.087 114.087 267.064 114.144 267.042 114.202C266.993 114.329 267.098 114.088 267.006 114.287C266.953 114.402 266.899 114.517 266.839 114.629C266.785 114.73 266.724 114.825 266.665 114.923C266.641 114.961 266.612 114.995 266.588 115.033C266.711 114.837 266.621 114.989 266.578 115.037C266.099 115.579 266.464 116.276 267.127 116.361C268.241 116.504 268.955 115.055 269.357 114.25C269.975 113.014 270.466 111.715 271.141 110.508C271.296 110.23 271.463 109.961 271.647 109.702C271.691 109.64 271.75 109.572 271.665 109.675C271.712 109.619 271.758 109.562 271.806 109.508C271.891 109.413 271.986 109.33 272.076 109.241C272.192 109.128 271.986 109.28 272.085 109.234C272.123 109.217 272.162 109.187 272.197 109.164C272.276 109.111 272.398 109.114 272.201 109.153C272.244 109.144 272.317 109.126 272.355 109.108C272.458 109.057 272.162 109.125 272.326 109.115C272.418 109.109 272.491 109.166 272.299 109.1C272.42 109.142 272.541 109.169 272.66 109.222C273.062 109.403 273.392 109.604 273.671 109.875C273.737 109.939 273.799 110.007 273.86 110.076C273.885 110.105 273.911 110.134 273.934 110.165C273.912 110.136 273.868 110.068 273.946 110.19C273.993 110.262 274.038 110.334 274.08 110.409C274.097 110.441 274.113 110.473 274.13 110.505C274.198 110.63 274.122 110.47 274.153 110.548C274.399 111.175 274.368 111.701 274.208 112.323C274.158 112.518 274.096 112.71 274.026 112.899C273.957 113.084 273.944 113.116 273.83 113.348C273.644 113.725 273.428 114.087 273.187 114.432C273.131 114.513 273.072 114.593 273.013 114.673C273 114.691 272.923 114.789 273.001 114.69C272.971 114.727 272.942 114.765 272.911 114.802C272.793 114.944 272.673 115.085 272.546 115.22C272.423 115.352 272.294 115.48 272.16 115.601C272.102 115.654 272.043 115.705 271.983 115.756C271.961 115.774 271.939 115.792 271.917 115.81C271.771 115.931 272.05 115.711 271.904 115.819C271.47 116.137 271.411 116.619 271.747 117.037C272.11 117.489 272.672 117.804 273.193 118.041C273.897 118.362 274.626 118.582 275.396 118.67C276.056 118.745 276.787 118.699 277.371 118.35C278.04 117.949 278.348 117.235 278.34 116.474L277.174 117.143C279.213 118.346 281.246 115.72 282.233 114.248C283.37 112.552 284.034 110.655 284.349 108.646C284.965 104.717 284.474 100.672 282.918 97.0108C281.403 93.4468 278.825 90.3156 275.453 88.3693C272.1 86.4333 268.067 85.6299 264.228 86.1347C260.206 86.6636 256.257 88.6119 253.929 92.0274C253.625 92.4732 253.361 92.943 253.136 93.4332C252.962 93.8135 253.028 94.2679 253.415 94.4938C253.748 94.6891 254.3 94.598 254.475 94.2157C256.041 90.8036 259.529 88.6767 263.095 87.893C266.441 87.1578 270.085 87.5512 273.207 88.9589C279.833 91.9458 283.379 99.2128 283.045 106.287C282.954 108.202 282.631 110.182 281.784 111.917C281.329 112.851 280.769 113.748 280.08 114.527C279.755 114.894 279.405 115.249 279.017 115.549C278.715 115.783 278.327 116.023 277.956 115.804C277.453 115.507 276.784 115.886 276.79 116.473C276.791 116.545 276.79 116.617 276.784 116.689C276.798 116.509 276.775 116.711 276.771 116.739C276.766 116.779 276.691 116.955 276.773 116.777C276.749 116.829 276.721 116.875 276.693 116.924C276.616 117.06 276.773 116.795 276.682 116.935C276.654 116.977 276.511 117.066 276.678 116.952C276.641 116.977 276.604 117.004 276.565 117.024C276.542 117.036 276.372 117.111 276.483 117.068C276.594 117.025 276.409 117.089 276.385 117.094C276.327 117.108 276.269 117.121 276.211 117.134C276.119 117.156 276.355 117.125 276.202 117.137C276.138 117.142 276.074 117.147 276.009 117.149C275.875 117.154 275.74 117.15 275.605 117.14C275.535 117.135 275.465 117.128 275.396 117.119C275.568 117.141 275.334 117.107 275.319 117.104C275.041 117.049 274.769 116.984 274.5 116.897C274.372 116.856 274.245 116.811 274.12 116.763C274.086 116.749 273.915 116.676 274.04 116.731C273.976 116.703 273.912 116.673 273.849 116.643C273.615 116.531 273.395 116.4 273.178 116.259C273.138 116.234 273.001 116.119 273.153 116.245C273.113 116.212 273.072 116.179 273.034 116.143C272.965 116.08 272.902 116.013 272.843 115.94C272.791 116.346 272.738 116.752 272.686 117.158C275.04 115.43 277.355 111.171 274.708 108.722C274.335 108.378 273.903 108.095 273.442 107.883C273.078 107.716 272.716 107.552 272.306 107.565C271.673 107.584 271.121 107.952 270.71 108.411C269.747 109.488 269.198 110.904 268.611 112.204C268.295 112.901 267.985 113.611 267.584 114.265C267.507 114.39 267.422 114.508 267.339 114.629C267.379 114.571 267.401 114.565 267.302 114.666C267.263 114.706 267.224 114.745 267.186 114.785C267.078 114.899 267.147 114.845 267.185 114.793C267.159 114.829 267.077 114.832 267.055 114.867C267.09 114.811 267.256 114.8 267.095 114.835C267.34 114.781 267.226 114.823 267.127 114.81C267.309 115.251 267.492 115.693 267.675 116.134C268.382 115.334 268.722 114.233 268.98 113.219C269.303 111.953 269.494 110.636 269.541 109.331C269.578 108.309 269.573 107.121 269.072 106.197C268.856 105.798 268.501 105.48 268.052 105.382C267.429 105.246 266.949 105.583 266.447 105.89C266.061 106.126 265.63 106.313 265.22 106.312C264.926 106.312 264.654 106.205 264.474 106.043C263.96 105.58 263.745 104.861 263.737 104.156C263.732 103.674 263.243 103.248 262.756 103.408C259.091 104.615 255.042 101.762 254.113 98.1401C253.778 96.834 253.927 95.4614 254.475 94.2157C254.644 93.8328 254.587 93.3832 254.197 93.155C253.868 92.9624 253.306 93.048 253.136 93.4332Z" fill="black"/>
<path d="M259.549 107.068C259.631 107.03 259.459 107.101 259.52 107.08C259.538 107.073 259.556 107.066 259.574 107.059C259.616 107.045 259.658 107.032 259.7 107.021C259.742 107.01 259.785 107.001 259.828 106.994C259.914 106.979 259.827 106.997 259.791 106.997C259.811 106.997 259.83 106.993 259.849 106.992C259.937 106.985 260.025 106.984 260.112 106.99C260.136 106.991 260.161 106.995 260.185 106.996C260.247 107 260.046 106.972 260.149 106.991C260.192 106.999 260.235 107.007 260.278 107.017C260.364 107.037 260.446 107.066 260.529 107.095C260.59 107.116 260.429 107.048 260.487 107.077C260.508 107.088 260.531 107.097 260.553 107.108C260.592 107.128 260.63 107.149 260.668 107.171C260.705 107.193 260.742 107.217 260.778 107.242C260.794 107.253 260.809 107.266 260.825 107.277C260.708 107.198 260.772 107.236 260.8 107.26C260.87 107.32 260.934 107.387 260.994 107.458C261.168 107.666 261.547 107.651 261.725 107.458C261.928 107.236 261.91 106.949 261.725 106.727C261.425 106.369 260.979 106.113 260.524 106.013C260.01 105.901 259.505 105.958 259.027 106.175C258.78 106.287 258.701 106.664 258.842 106.882C259.006 107.137 259.285 107.188 259.549 107.068Z" fill="black"/>
<path d="M253.549 105.591C253.572 105.579 253.596 105.568 253.62 105.557L253.496 105.609C253.587 105.571 253.681 105.546 253.779 105.531L253.641 105.55C253.752 105.535 253.863 105.536 253.974 105.551L253.837 105.532C253.941 105.548 254.042 105.576 254.139 105.616L254.016 105.564C254.106 105.603 254.191 105.652 254.269 105.711L254.165 105.63C254.222 105.675 254.274 105.724 254.321 105.779C254.405 105.874 254.563 105.93 254.687 105.93C254.813 105.93 254.965 105.874 255.052 105.779C255.142 105.68 255.21 105.551 255.203 105.413C255.197 105.271 255.146 105.155 255.052 105.048C254.829 104.792 254.494 104.605 254.16 104.544C253.767 104.472 253.385 104.515 253.027 104.699C252.786 104.822 252.696 105.18 252.842 105.406C253 105.652 253.291 105.723 253.549 105.591Z" fill="black"/>
<path d="M253.759 107.878C253.567 108.211 253.23 108.393 252.859 108.334C252.788 108.323 252.718 108.306 252.658 108.268C252.584 108.221 252.534 108.145 252.496 108.066C252.34 107.75 252.357 107.355 252.538 107.053C252.783 106.641 253.435 106.634 253.72 107.015C253.903 107.259 253.911 107.614 253.759 107.878Z" fill="black"/>
<path d="M253.313 107.618C253.289 107.658 253.264 107.697 253.236 107.734L253.317 107.629C253.266 107.695 253.208 107.753 253.143 107.804L253.248 107.724C253.188 107.768 253.126 107.805 253.058 107.835L253.181 107.783C253.113 107.811 253.042 107.83 252.969 107.84L253.106 107.822C253.03 107.831 252.955 107.83 252.879 107.821L253.016 107.839C252.96 107.831 252.905 107.82 252.852 107.799L252.975 107.851C252.949 107.84 252.926 107.827 252.902 107.811L253.007 107.892C252.98 107.871 252.957 107.848 252.936 107.822L253.016 107.927C252.974 107.872 252.943 107.812 252.916 107.749L252.968 107.872C252.934 107.787 252.911 107.699 252.898 107.608L252.916 107.745C252.904 107.647 252.905 107.549 252.917 107.45L252.899 107.587C252.912 107.496 252.936 107.409 252.97 107.323L252.918 107.447C252.948 107.376 252.983 107.309 253.03 107.248L252.949 107.353C252.982 107.312 253.019 107.276 253.061 107.244L252.956 107.325C253.002 107.291 253.051 107.263 253.103 107.241L252.98 107.293C253.042 107.267 253.107 107.251 253.174 107.242L253.037 107.26C253.104 107.252 253.172 107.253 253.239 107.261L253.102 107.243C253.17 107.252 253.235 107.27 253.298 107.295L253.175 107.243C253.233 107.268 253.287 107.299 253.337 107.337L253.233 107.257C253.274 107.29 253.312 107.327 253.345 107.368L253.265 107.264C253.304 107.316 253.336 107.371 253.362 107.431L253.31 107.308C253.334 107.369 253.351 107.433 253.36 107.498L253.342 107.361C253.351 107.434 253.351 107.506 253.342 107.579L253.361 107.442C253.35 107.514 253.332 107.584 253.305 107.653L253.357 107.529C253.343 107.56 253.329 107.589 253.313 107.618C253.247 107.737 253.224 107.885 253.261 108.017C253.294 108.137 253.386 108.266 253.498 108.326C253.742 108.454 254.065 108.392 254.205 108.14C254.48 107.647 254.433 107.003 254.034 106.589C253.719 106.262 253.202 106.14 252.77 106.272C252.535 106.345 252.329 106.479 252.178 106.674C251.999 106.906 251.917 107.173 251.882 107.461C251.852 107.714 251.899 107.975 251.998 108.209C252.126 108.513 252.351 108.763 252.69 108.828C252.857 108.859 253.008 108.869 253.175 108.846C253.334 108.825 253.465 108.782 253.613 108.712C253.861 108.595 254.068 108.374 254.205 108.14C254.342 107.907 254.266 107.563 254.02 107.433C253.772 107.302 253.459 107.369 253.313 107.618Z" fill="black"/>
<path d="M259.702 109.112C259.571 109.34 259.339 109.464 259.085 109.424C259.037 109.416 258.988 109.405 258.947 109.379C258.897 109.346 258.863 109.294 258.836 109.241C258.73 109.024 258.741 108.753 258.865 108.546C259.034 108.264 259.48 108.259 259.676 108.52C259.801 108.687 259.806 108.93 259.702 109.112Z" fill="black"/>
<path d="M259.255 108.851C259.239 108.879 259.222 108.905 259.203 108.93L259.284 108.826C259.249 108.871 259.209 108.911 259.165 108.946L259.269 108.865C259.229 108.895 259.186 108.921 259.139 108.941L259.263 108.889C259.216 108.908 259.167 108.921 259.117 108.928L259.255 108.91C259.202 108.916 259.151 108.916 259.098 108.909L259.236 108.928C259.197 108.922 259.16 108.914 259.123 108.9L259.247 108.952C259.229 108.945 259.213 108.936 259.197 108.925L259.301 109.006C259.283 108.991 259.267 108.976 259.252 108.958L259.333 109.063C259.305 109.025 259.283 108.984 259.265 108.941L259.317 109.064C259.293 109.005 259.277 108.945 259.268 108.883L259.287 109.02C259.279 108.953 259.279 108.885 259.288 108.818L259.269 108.955C259.278 108.893 259.294 108.833 259.318 108.774L259.266 108.898C259.286 108.849 259.311 108.803 259.343 108.762L259.262 108.866C259.285 108.838 259.31 108.814 259.338 108.792L259.234 108.872C259.265 108.849 259.298 108.83 259.334 108.815L259.211 108.867C259.254 108.85 259.298 108.838 259.344 108.832L259.207 108.85C259.253 108.845 259.299 108.845 259.346 108.851L259.208 108.833C259.255 108.839 259.299 108.851 259.343 108.869L259.219 108.817C259.259 108.834 259.296 108.855 259.331 108.881L259.226 108.8C259.255 108.823 259.28 108.849 259.303 108.877L259.223 108.772C259.25 108.808 259.272 108.846 259.289 108.887L259.237 108.764C259.254 108.806 259.265 108.849 259.272 108.894L259.253 108.757C259.259 108.807 259.259 108.856 259.254 108.906L259.272 108.769C259.265 108.819 259.252 108.867 259.233 108.914L259.286 108.79C259.277 108.811 259.267 108.831 259.255 108.851C259.189 108.97 259.167 109.117 259.203 109.249C259.236 109.369 259.329 109.499 259.441 109.558C259.561 109.622 259.706 109.653 259.839 109.61C259.966 109.569 260.082 109.492 260.148 109.373C260.373 108.97 260.33 108.45 260.005 108.113C259.96 108.066 259.904 108.027 259.852 107.989C259.832 107.974 259.811 107.959 259.789 107.947C259.711 107.904 259.624 107.866 259.536 107.846C259.445 107.824 259.348 107.81 259.255 107.813C259.164 107.816 259.068 107.827 258.981 107.854C258.784 107.914 258.616 108.025 258.491 108.188C258.412 108.289 258.366 108.385 258.319 108.506C258.278 108.609 258.266 108.716 258.253 108.825C258.242 108.915 258.251 108.999 258.263 109.089C258.278 109.202 258.302 109.295 258.346 109.4C258.396 109.519 258.45 109.622 258.545 109.714C258.584 109.752 258.63 109.787 258.675 109.817C258.689 109.827 258.703 109.835 258.719 109.842C258.785 109.873 258.854 109.905 258.926 109.919C259.066 109.945 259.184 109.953 259.323 109.934C259.457 109.916 259.558 109.883 259.684 109.823C259.877 109.732 260.041 109.555 260.148 109.373C260.216 109.257 260.236 109.104 260.2 108.975C260.167 108.855 260.074 108.725 259.963 108.666C259.843 108.602 259.697 108.571 259.564 108.614C259.436 108.655 259.325 108.733 259.255 108.851Z" fill="black"/>
<path d="M259.418 123.493C258.513 123.416 257.604 123.403 256.711 123.224C255.796 123.042 254.881 122.903 253.946 122.997C252.236 123.169 250.598 123.826 249.15 124.736C246.481 126.413 244.321 128.821 242.405 131.291C240.506 133.739 238.794 136.331 236.798 138.704C234.685 141.215 232.191 143.358 229.492 145.216C223.865 149.09 217.418 151.727 210.781 153.279C203.894 154.889 196.587 155.167 189.844 152.778C184.715 150.96 180.232 147.525 177.843 142.556C177.54 141.925 177.28 141.278 177.049 140.617L176.971 141.214C177.807 139.418 178.643 137.622 179.479 135.826C179.782 135.175 180.119 134.53 180.385 133.862C181.216 131.779 178.816 129.784 176.924 131.001C176.434 131.316 176.06 131.847 175.681 132.279C175.334 132.673 174.987 133.066 174.64 133.46L175.964 134.009C175.964 132.24 175.964 130.47 175.964 128.701C175.964 127.534 175.964 126.367 175.964 125.199C175.964 124.526 176.038 123.767 175.83 123.118C175.076 120.779 171.857 120.472 170.695 122.646H172.034C170.959 120.643 167.927 120.665 167.01 122.803H168.348C167.414 120.626 164.189 120.626 163.255 122.803H164.593C163.966 121.345 162.167 120.722 160.765 121.454C159.785 121.966 159.265 122.999 159.255 124.078C159.242 125.454 159.255 126.832 159.255 128.209C159.255 130.41 159.264 132.612 159.253 134.813C159.249 135.672 159.288 136.532 159.348 137.389C159.473 139.212 159.701 141.03 160.01 142.832C160.421 145.224 160.989 147.59 161.724 149.903C162.592 152.641 163.694 155.313 165.045 157.849C166.549 160.669 168.379 163.321 170.513 165.702C172.846 168.306 175.563 170.569 178.536 172.406C181.998 174.545 185.815 176.101 189.748 177.129C194.561 178.387 199.564 178.881 204.531 178.862C205.923 178.857 207.315 178.81 208.705 178.73C209.696 178.673 209.703 177.122 208.705 177.179C203.628 177.473 198.497 177.315 193.49 176.378C189.477 175.626 185.545 174.39 181.912 172.529C178.793 170.931 176.002 168.964 173.497 166.56C171.192 164.347 169.334 162.008 167.674 159.314C166.156 156.851 164.939 154.292 163.982 151.713C163.112 149.366 162.424 146.952 161.905 144.504C161.686 143.469 161.496 142.427 161.338 141.38C161.301 141.139 161.266 140.897 161.232 140.654C161.225 140.599 161.217 140.544 161.21 140.489C161.229 140.631 161.223 140.588 161.21 140.486C161.195 140.372 161.18 140.257 161.166 140.143C161.113 139.715 161.065 139.286 161.022 138.857C160.906 137.693 160.826 136.524 160.807 135.354C160.792 134.424 160.805 133.492 160.805 132.561C160.805 130.687 160.805 128.813 160.805 126.94V124.749C160.805 124.4 160.76 123.998 160.846 123.656C160.972 123.158 161.397 122.74 161.919 122.685C162.555 122.618 163.02 123.039 163.255 123.585C163.473 124.093 164.375 124.094 164.594 123.585C165.092 122.424 166.51 122.422 167.01 123.585C167.228 124.093 168.13 124.093 168.348 123.585C168.802 122.528 170.125 122.366 170.695 123.428C170.965 123.932 171.764 123.934 172.034 123.428C172.686 122.208 174.386 122.651 174.414 124.019C174.425 124.593 174.414 125.169 174.414 125.743C174.414 127.913 174.414 130.083 174.414 132.253C174.414 132.838 174.414 133.423 174.414 134.009C174.414 134.648 175.282 135.073 175.737 134.557C176.339 133.873 176.923 133.166 177.546 132.501C177.72 132.315 177.902 132.186 178.167 132.177C178.334 132.171 178.494 132.212 178.635 132.302C178.83 132.427 178.896 132.518 178.946 132.67C179.082 133.085 178.998 133.201 178.843 133.535C177.916 135.525 176.989 137.516 176.063 139.507C175.93 139.791 175.794 140.075 175.665 140.361C175.36 141.036 175.827 141.796 176.097 142.431C176.812 144.118 177.752 145.679 178.893 147.111C181.154 149.948 184.212 152.09 187.528 153.521C196.238 157.281 206.042 156.456 214.931 153.771C219.198 152.482 223.351 150.744 227.205 148.499C230.968 146.308 234.562 143.625 237.436 140.335C240.144 137.234 242.293 133.696 244.975 130.575C247.589 127.532 251.451 123.827 255.839 124.627C257.035 124.845 258.208 124.94 259.418 125.044C260.412 125.129 260.407 123.578 259.418 123.493Z" fill="black"/>
<path d="M175.395 133.26C172.69 132.701 169.572 133.11 167.168 134.466C166.002 135.124 165.03 136.027 164.228 137.093C163.976 137.428 164.175 137.96 164.506 138.154C164.903 138.386 165.315 138.211 165.567 137.876C166.735 136.324 168.42 135.363 170.247 134.916C171.085 134.71 171.644 134.64 172.504 134.608C173.107 134.586 173.713 134.603 174.314 134.662C174.435 134.673 174.556 134.693 174.677 134.702C174.664 134.701 174.487 134.674 174.65 134.699C174.686 134.705 174.721 134.71 174.757 134.716C174.832 134.728 174.908 134.74 174.983 134.755C175.392 134.84 175.82 134.636 175.936 134.214C176.042 133.83 175.807 133.345 175.395 133.26Z" fill="black"/>
<path d="M163.129 122.727C163.129 124.925 163.129 127.123 163.129 129.321V130.254C163.129 131.252 164.679 131.253 164.679 130.254V122.727C164.679 121.73 163.129 121.728 163.129 122.727Z" fill="black"/>
<path d="M166.744 122.727V130.254C166.744 131.252 168.295 131.253 168.295 130.254V122.727C168.295 121.73 166.744 121.728 166.744 122.727Z" fill="black"/>
<path d="M170.639 122.727V130.254C170.639 131.252 172.189 131.253 172.189 130.254V122.727C172.189 121.73 170.639 121.728 170.639 122.727Z" fill="black"/>
<path d="M46.441 92.9268V92.9258C46.441 91.9651 45.9543 91.0655 45.1408 90.5543C42.4708 88.8765 40.6957 85.9055 40.6957 82.5193C40.6957 77.1544 45.15 72.83 50.562 73.0425C55.4551 73.2347 59.4429 77.205 59.655 82.0972C59.8087 85.6406 58.0167 88.7771 55.2588 90.5293C54.4336 91.0535 53.919 91.9492 53.919 92.9268C53.919 94.4819 55.1796 95.7425 56.7346 95.7425H71.3244C74.7941 95.7425 77.6068 92.9298 77.6068 89.4601V74.8704C77.6068 73.3153 78.8674 72.0547 80.4225 72.0547H80.4235C81.3843 72.0547 82.2839 72.5414 82.7951 73.3548C84.4728 76.025 87.4438 77.7999 90.8301 77.7999C96.1949 77.7999 100.519 73.3456 100.307 67.9336C100.115 63.0406 96.1443 59.0527 91.2521 58.8406C87.7086 58.687 84.5722 60.4789 82.8201 63.2369C82.2959 64.0621 81.4002 64.5767 80.4225 64.5767C78.8674 64.5767 77.6068 63.3161 77.6068 61.761V47.1256C77.6068 43.656 74.7941 40.8433 71.3244 40.8433H56.7346C55.1796 40.8433 53.919 39.5827 53.919 38.0276C53.919 37.05 54.4336 36.1542 55.2588 35.63C58.0167 33.8779 59.8087 30.7414 59.655 27.198C59.4429 22.3058 55.455 18.3354 50.562 18.1433C45.15 17.9307 40.6957 22.2552 40.6957 27.62C40.6957 31.0063 42.4707 33.9773 45.1408 35.6551C45.9543 36.1663 46.441 37.0658 46.441 38.0266V38.0276C46.441 39.5827 45.1803 40.8433 43.6253 40.8433H28.9899C25.5202 40.8433 22.7075 43.656 22.7075 47.1257V61.7154C22.7075 63.2705 21.4469 64.5311 19.8918 64.5311C18.9142 64.5311 18.0185 64.0165 17.4942 63.1913C15.7421 60.4333 12.6057 58.6414 9.06222 58.795C4.17001 59.0072 0.199618 62.9951 0.00751068 67.888C-0.204995 73.3001 4.11945 77.7544 9.48424 77.7544C12.8705 77.7544 15.8415 75.9793 17.5193 73.3092C18.0304 72.4958 18.93 72.0091 19.8908 72.0091H19.8918C21.4469 72.0091 22.7075 73.2697 22.7075 74.8248V89.4602C22.7075 92.9298 25.5202 95.7425 28.9899 95.7425H43.6252C45.1803 95.7425 46.441 94.4819 46.441 92.9268Z" fill="#FF5A48"/>
<path d="M74.673 126.994H74.672C73.7113 126.991 72.8103 127.475 72.2968 128.287C70.6115 130.953 67.6354 132.719 64.2492 132.71C58.8844 132.694 54.5726 128.228 54.8005 122.816C55.0065 117.924 58.9882 113.947 63.881 113.749C67.4249 113.605 70.5563 115.406 72.3005 118.169C72.8224 118.996 73.7166 119.513 74.6943 119.516C76.2493 119.52 77.5135 118.263 77.518 116.708L77.5593 102.118C77.5692 98.6488 74.7645 95.8281 71.2948 95.8182L56.7051 95.7768C55.15 95.7724 53.893 94.5083 53.8974 92.9531C53.9002 91.9755 54.4173 91.0813 55.244 90.5594C58.007 88.8152 59.8078 85.6837 59.6642 82.1399C59.466 77.2471 55.4894 73.2655 50.5969 73.0594C45.1856 72.8316 40.719 77.1434 40.7037 82.5081C40.6941 85.8944 42.4607 88.8705 45.126 90.5558C45.938 91.0693 46.4222 91.9702 46.4195 92.931V92.932C46.415 94.4871 45.1508 95.7441 43.5958 95.7397L28.9605 95.6981C25.4908 95.6883 22.6701 98.493 22.6603 101.963L22.6159 117.588C23.0139 118.655 24.0378 119.418 25.244 119.421C26.2217 119.424 27.1188 118.912 27.6454 118.088C29.4053 115.335 32.5468 113.552 36.0898 113.716C40.9814 113.942 44.9405 117.941 45.1187 122.834C45.3158 128.247 40.9788 132.689 35.614 132.674C32.2278 132.664 29.2618 130.881 27.5916 128.206C27.0827 127.391 26.1845 126.902 25.2238 126.899H25.2228C24.0166 126.896 22.9883 127.653 22.5843 128.718L22.5401 144.297C22.5302 147.767 25.3349 150.587 28.8046 150.597L43.3943 150.639C44.9494 150.643 46.2064 151.907 46.202 153.462C46.1992 154.44 45.6821 155.334 44.8554 155.856C42.0925 157.6 40.2916 160.732 40.4352 164.275C40.6334 169.168 44.61 173.15 49.5025 173.356C54.9139 173.584 59.3804 169.272 59.3957 163.907C59.4053 160.521 57.6387 157.545 54.9734 155.86C54.1614 155.346 53.6772 154.445 53.68 153.484V153.483C53.6844 151.928 54.9486 150.671 56.5036 150.676L71.139 150.717C74.6086 150.727 77.4293 147.922 77.4391 144.453L77.4807 129.817C77.4851 128.262 76.2281 126.998 74.673 126.994Z" fill="#4367F5"/>
<path d="M155.124 67.7979C154.932 62.9049 150.961 58.917 146.069 58.7049C142.526 58.5513 139.389 60.3432 137.637 63.1012C137.113 63.9265 136.217 64.441 135.239 64.441C133.684 64.441 132.424 63.1804 132.424 61.6253V46.99C132.424 43.5203 129.611 40.7076 126.141 40.7076H111.552C109.996 40.7076 108.736 39.447 108.736 37.8918C108.736 36.9142 109.25 36.0185 110.076 35.4943C112.834 33.7422 114.626 30.6057 114.472 27.0622C114.26 22.1701 110.272 18.1997 105.379 18.0075C99.9669 17.795 95.5126 22.1194 95.5126 27.4843C95.5126 30.8705 97.2876 33.8416 99.9578 35.5193C100.771 36.0305 101.258 36.9301 101.258 37.8908V37.8918C101.258 39.447 99.9973 40.7076 98.4422 40.7076H83.8069C80.3372 40.7076 77.5244 43.5203 77.5244 46.99V62.0517C77.7619 63.3664 78.9096 64.3643 80.2927 64.3643C81.2704 64.3643 82.1661 63.8497 82.6903 63.0246C84.4423 60.2666 87.5789 58.4746 91.1223 58.6282C96.0145 58.8403 99.9849 62.8282 100.177 67.7213C100.39 73.1333 96.0651 77.5876 90.7003 77.5876C87.3141 77.5876 84.343 75.8125 82.6653 73.1424C82.1541 72.329 81.2545 71.8423 80.2937 71.8423H80.2927C78.9097 71.8423 77.7619 72.8403 77.5244 74.1549V89.3245C77.5244 92.7942 80.3372 95.6068 83.8068 95.6068H98.4422C99.9973 95.6068 101.258 94.3463 101.258 92.7912V92.7901C101.258 91.8294 100.771 90.9298 99.9578 90.4186C97.2877 88.7409 95.5126 85.7699 95.5126 82.3836C95.5126 77.0188 99.9669 72.6943 105.379 72.9068C110.272 73.0991 114.26 77.0694 114.472 81.9615C114.626 85.505 112.834 88.6415 110.076 90.3936C109.25 90.9178 108.736 91.8135 108.736 92.7912C108.736 94.3463 109.996 95.6069 111.552 95.6069H126.141C129.611 95.6069 132.424 92.7942 132.424 89.3245V74.7348C132.424 73.1796 133.684 71.919 135.239 71.919H135.24C136.201 71.919 137.101 72.4057 137.612 73.2191C139.29 75.8893 142.261 77.6643 145.647 77.6643C151.012 77.6643 155.336 73.2099 155.124 67.7979Z" fill="#4367F5"/>
<path d="M257.16 115.948C257.899 115.492 258.826 115.133 259.651 115.123C259.816 115.121 259.989 115.138 260.102 115.193C260.128 115.206 260.154 115.22 260.178 115.236C260.209 115.257 260.211 115.256 260.186 115.235L260.132 114.946C260.199 114.844 260.21 114.816 260.166 114.863C260.084 114.91 260 114.999 259.928 115.062C259.569 115.38 259.29 115.806 259.176 116.274C259.11 116.545 259.263 116.834 259.537 116.909C259.801 116.982 260.107 116.821 260.173 116.548C260.208 116.404 260.233 116.337 260.29 116.235C260.344 116.14 260.398 116.063 260.449 116.004C260.627 115.799 260.884 115.66 261.031 115.431C261.502 114.695 260.601 114.19 259.987 114.112C259.418 114.039 258.817 114.165 258.272 114.325C257.7 114.494 257.146 114.742 256.639 115.055C256.401 115.202 256.31 115.517 256.453 115.762C256.592 115.999 256.922 116.095 257.16 115.948Z" fill="black"/>
<path d="M258.664 115.604C258.705 115.617 258.745 115.632 258.785 115.648L258.661 115.596C258.78 115.646 258.89 115.711 258.993 115.79L258.888 115.709C258.983 115.785 259.069 115.871 259.143 115.967L259.062 115.862C259.075 115.879 259.088 115.897 259.1 115.914C259.208 116.067 259.352 116.17 259.546 116.17C259.714 116.17 259.92 116.075 259.993 115.914C260.023 115.846 260.061 115.783 260.107 115.724L260.026 115.829C260.073 115.771 260.125 115.719 260.183 115.672L260.078 115.753C260.143 115.703 260.212 115.663 260.287 115.63L260.163 115.682C260.207 115.664 260.252 115.65 260.298 115.638C260.56 115.572 260.743 115.264 260.658 115.002C260.571 114.731 260.304 114.571 260.023 114.642C259.634 114.739 259.266 115.024 259.1 115.392H259.993C259.73 115.019 259.376 114.747 258.939 114.607C258.681 114.525 258.363 114.704 258.303 114.968C258.239 115.251 258.388 115.516 258.664 115.604Z" fill="black"/>
<path d="M109.872 192.644C108.819 189.765 107.697 186.766 107.801 183.651C107.882 181.239 108.849 178.604 110.903 177.191C113.26 175.568 116.373 176.041 118.84 177.15C121.43 178.314 123.617 180.197 125.984 181.732C135.35 187.807 146.953 186.237 157.532 186.293C163.87 186.327 170.215 186.663 176.555 186.751C183.088 186.842 189.623 186.924 196.148 187.271C199.149 187.431 202.306 187.46 205.161 188.506C207.324 189.299 209.052 190.798 210.603 192.459C213.39 195.445 215.787 199.229 219.708 200.84C221.553 201.599 224.182 202.021 225.702 200.382C226.901 199.089 226.482 196.499 224.58 196.167C223.269 195.938 221.67 196.807 220.431 197.159C218.949 197.58 217.453 197.947 215.947 198.265C212.975 198.891 209.966 199.318 206.943 199.6C200.946 200.158 194.918 200.175 188.901 200.276C182.376 200.385 175.857 200.559 169.33 200.525C162.722 200.491 156.12 200.297 149.516 200.063C143.087 199.835 136.66 200.213 130.233 200.315C124.145 200.412 117.995 200.273 112.002 199.095C109.398 198.584 106.795 197.871 104.404 196.702C102.182 195.616 100.39 194.145 98.7421 192.322C97.2022 190.618 95.7413 188.812 93.915 187.399C93.1187 186.783 92.2612 186.258 91.3065 185.926C90.0066 185.474 88.6704 185.605 87.3342 185.796C84.6974 186.173 82.5939 187.1 81.5319 189.679C80.7405 191.6 80.5424 193.804 80.3232 195.857C79.8542 200.247 79.8254 204.816 80.8528 209.133C81.3205 211.099 82.0433 213.067 83.199 214.738C84.4234 216.508 86.3498 218.351 88.6673 218.19C90.5966 218.055 92.3437 216.101 91.6221 214.149C91.4918 213.796 91.2424 213.616 90.8746 213.58C86.8496 213.18 84.1337 216.956 83.5769 220.53C83.0718 223.772 83.1522 227.499 84.5732 230.514C86.4811 234.563 91.911 234.816 95.7678 235.394C101.142 236.2 106.555 236.714 111.979 237.034C123.13 237.693 134.315 237.596 145.481 237.616C156.799 237.637 168.118 237.623 179.434 237.409C190.678 237.197 201.92 236.788 213.14 236.018C221.2 235.465 229.289 234.823 237.295 233.715C244.201 232.759 251.145 231.361 257.581 228.61C263.398 226.124 268.988 222.252 271.751 216.372C273.793 212.027 274.819 207.045 275.694 202.351C276.678 197.07 277.255 191.724 277.759 186.38C278.261 181.061 278.69 175.732 279.396 170.435C279.69 168.224 280.023 166.019 280.285 163.805C280.936 158.308 281.363 152.596 280.302 147.123C279.373 142.331 276.769 137.669 271.556 136.817C268.322 136.288 264.81 136.932 262.312 139.143C259.873 141.302 258.666 144.491 257.22 147.324C255.197 151.288 252.445 154.944 249.105 157.893C245.504 161.072 240.772 163.73 235.923 164.213C233.79 164.425 231.423 164.222 229.663 162.87C228.383 161.887 227.613 160.414 227.178 158.888C225.986 154.701 226.712 150.003 227.567 145.825C229.498 136.387 233.097 127.247 237.06 118.493C237.777 116.908 238.528 115.34 239.283 113.773C240.375 111.512 241.466 109.25 242.557 106.988C242.861 106.359 243.183 105.736 243.469 105.099C244.213 103.439 243.372 101.453 241.513 101.084C238.893 100.564 237.881 103.682 236.905 105.482L238.35 105.873C238.35 103.098 238.35 100.322 238.35 97.5458C238.35 96.3903 238.52 95.1023 237.795 94.1143C236.198 91.9361 233.048 93.2429 232.877 95.7328H234.427C234.328 94.252 233.25 92.9964 231.691 92.9964C230.132 92.9964 229.054 94.2518 228.955 95.7328H230.505C230.405 94.252 229.328 92.9964 227.769 92.9964C226.21 92.9964 225.132 94.2518 225.032 95.7328H226.583C226.406 93.1111 223.768 92.651 221.635 93.1419C219.537 93.6247 218.51 95.2342 217.479 96.9303C216.993 97.7291 216.508 98.5279 216.022 99.3267C215.712 99.8369 215.321 100.365 215.157 100.946C214.413 103.586 217.648 105.68 219.736 103.896C220.343 103.378 220.761 102.576 221.203 101.921C221.654 101.253 222.104 100.586 222.555 99.9178C223.114 99.0884 221.771 98.3116 221.216 99.1353C220.484 100.22 219.803 101.368 219.008 102.407C218.26 103.387 216.549 103.075 216.599 101.681C216.619 101.128 217.084 100.564 217.361 100.109C218.117 98.8665 218.836 97.5922 219.632 96.3745C220.379 95.2301 221.49 94.5967 222.859 94.5469C223.787 94.5132 224.95 94.5055 225.032 95.7328C225.099 96.7294 226.516 96.7312 226.583 95.7328C226.685 94.2084 228.852 94.2056 228.955 95.7328C229.022 96.7294 230.438 96.7312 230.505 95.7328C230.608 94.2084 232.774 94.2056 232.877 95.7328C232.944 96.7298 234.359 96.7307 234.427 95.7328C234.52 94.3861 236.406 94.121 236.761 95.4707C236.825 95.7139 236.799 95.9971 236.799 96.2464C236.799 97.3831 236.799 98.5199 236.799 99.6567C236.799 101.729 236.799 103.801 236.799 105.874C236.799 106.626 237.872 106.951 238.244 106.265C238.719 105.388 239.194 104.511 239.67 103.634C239.951 103.115 240.25 102.621 240.921 102.589C241.897 102.541 242.426 103.504 242.113 104.351C241.399 106.284 240.281 108.148 239.386 110.002C238.479 111.884 237.555 113.759 236.669 115.65C232.987 123.508 229.709 131.643 227.386 140.011C226.109 144.61 225.038 149.415 225.054 154.212C225.066 157.661 225.708 161.648 228.549 163.952C233.609 168.058 241.502 164.922 246.267 161.938C250.081 159.55 253.244 156.28 255.826 152.615C257.895 149.678 259.203 146.407 260.999 143.323C262.763 140.295 265.268 138.389 268.859 138.216C271.229 138.102 273.623 138.65 275.39 140.312C279.005 143.714 279.362 149.652 279.369 154.287C279.377 159.309 278.696 164.285 278.006 169.249C276.665 178.897 276.291 188.655 274.816 198.286C274.013 203.532 272.874 208.742 271.14 213.764C270.134 216.678 268.427 219.242 266.202 221.369C261.463 225.899 255.007 228.315 248.768 229.94C242.405 231.596 235.867 232.443 229.335 233.096C219.61 234.068 209.861 234.762 200.098 235.209C178.289 236.209 156.445 236.12 134.62 236.039C123.881 235.999 113.119 235.852 102.432 234.699C99.7077 234.406 96.9909 234.045 94.2868 233.602C92.0406 233.234 89.4817 232.993 87.5388 231.703C84.8242 229.9 84.7403 225.439 84.9104 222.545C84.9962 221.086 85.1893 219.534 85.8741 218.221C86.8512 216.348 88.6877 214.913 90.8745 215.13C90.6253 214.94 90.3761 214.751 90.1269 214.561C90.5715 215.764 89.3504 216.728 88.2166 216.646C86.9645 216.555 85.9031 215.612 85.1199 214.708C83.8341 213.225 83.0556 211.347 82.5402 209.473C81.4085 205.359 81.4059 200.944 81.788 196.722C81.9666 194.749 82.1572 192.668 82.7725 190.777C83.1897 189.495 83.9212 188.391 85.2072 187.862C86.4527 187.35 88.0821 187.116 89.4188 187.153C91.7095 187.216 93.5267 188.954 95.0212 190.513C96.5181 192.075 97.8445 193.812 99.4486 195.269C103.039 198.532 107.994 199.977 112.67 200.79C118.34 201.777 124.104 201.952 129.847 201.871C136.019 201.784 142.19 201.424 148.365 201.579C154.635 201.736 160.897 202.001 167.171 202.06C173.434 202.118 179.693 202.03 185.954 201.884C191.715 201.75 197.482 201.778 203.235 201.432C208.928 201.089 214.61 200.351 220.122 198.854C220.848 198.657 221.571 198.448 222.29 198.225C222.783 198.073 223.976 197.447 224.469 197.734C224.835 197.948 224.896 198.505 224.798 198.877C224.645 199.46 224.083 199.747 223.534 199.878C221.56 200.352 219.318 199.119 217.83 197.931C214.649 195.391 212.577 191.737 209.398 189.19C205.196 185.822 199.708 185.883 194.582 185.642C188.316 185.348 182.042 185.278 175.771 185.189C169.744 185.105 163.715 184.785 157.689 184.744C147.55 184.673 136.259 186.328 127.198 180.669C122.926 178.001 118.752 173.914 113.275 174.677C108.45 175.349 106.049 180.174 106.26 184.666C106.396 187.578 107.385 190.345 108.377 193.057C108.717 193.986 110.216 193.584 109.872 192.644Z" fill="black"/>
<path d="M101.225 147.365V147.364C101.225 146.404 100.738 145.504 99.9249 144.993C97.2548 143.315 95.4798 140.344 95.4798 136.958C95.4798 131.593 99.9341 127.268 105.346 127.481C110.239 127.673 114.227 131.644 114.439 136.536C114.593 140.079 112.801 143.216 110.043 144.968C109.218 145.492 108.703 146.388 108.703 147.365C108.703 148.92 109.964 150.181 111.519 150.181H126.108C129.578 150.181 132.391 147.368 132.391 143.899V129.309C132.391 127.754 133.651 126.493 135.207 126.493H135.207C136.168 126.493 137.068 126.98 137.579 127.793C139.257 130.463 142.228 132.238 145.614 132.238C150.979 132.238 155.303 127.784 155.091 122.372C154.899 117.479 150.928 113.491 146.036 113.279C142.493 113.125 139.356 114.917 137.604 117.675C137.08 118.501 136.184 119.015 135.207 119.015C133.651 119.015 132.391 117.755 132.391 116.199V101.564C132.391 98.0944 129.578 95.2818 126.108 95.2818H111.519C109.964 95.2818 108.703 94.0212 108.703 92.4661C108.703 91.4885 109.218 90.5927 110.043 90.0685C112.801 88.3164 114.593 85.1799 114.439 81.6364C114.227 76.7443 110.239 72.7739 105.346 72.5817C99.9341 72.3693 95.4798 76.6937 95.4798 82.0586C95.4798 85.4448 97.2548 88.4158 99.9249 90.0936C100.738 90.6048 101.225 91.5043 101.225 92.4651V92.4661C101.225 94.0212 99.9645 95.2818 98.4094 95.2818H83.7741C80.3044 95.2818 77.4917 98.0944 77.4917 101.564V116.154C77.4917 117.709 76.231 118.97 74.676 118.97C73.6983 118.97 72.8026 118.455 72.2784 117.63C70.5263 114.872 67.3898 113.08 63.8464 113.233C58.9542 113.446 54.9838 117.434 54.7917 122.327C54.5792 127.739 58.9036 132.193 64.2684 132.193C67.6546 132.193 70.6257 130.418 72.3034 127.748C72.8146 126.934 73.7142 126.448 74.675 126.448H74.676C76.231 126.448 77.4917 127.708 77.4917 129.263V143.899C77.4917 147.368 80.3044 150.181 83.774 150.181H98.4094C99.9645 150.181 101.225 148.92 101.225 147.365Z" stroke="black" stroke-width="2" stroke-miterlimit="10" stroke-linecap="round"/>
<path d="M117.721 111.861C121.618 107.131 127.391 104.48 133.192 102.906C134.556 102.536 135.935 102.224 137.323 101.96C137.972 101.837 138.623 101.724 139.275 101.622C139.959 101.515 140.481 101.442 141.058 101.37C142.935 101.135 144.821 100.978 146.711 100.905C147.991 100.856 149.268 100.856 150.542 101.019C153.09 101.344 155.562 102.164 157.942 103.104C158.332 103.258 158.793 102.936 158.896 102.563C159.017 102.122 158.745 101.764 158.354 101.609C154.76 100.189 151.062 99.2198 147.173 99.339C145.372 99.3942 143.572 99.5285 141.782 99.7326C136.024 100.389 130.247 101.709 125.036 104.306C121.857 105.89 118.893 108.012 116.625 110.765C116.359 111.088 116.309 111.545 116.625 111.861C116.899 112.136 117.454 112.186 117.721 111.861Z" fill="#4367F5"/>
<path d="M116.46 107.166C116.37 108.003 116.288 108.841 116.214 109.68C116.177 110.108 116.138 110.537 116.109 110.965C116.078 111.413 116.153 111.845 116.456 112.192C116.976 112.788 117.845 112.788 118.567 112.875C119.435 112.978 120.303 113.081 121.17 113.185C121.587 113.234 121.946 112.793 121.946 112.409C121.946 111.949 121.588 111.684 121.17 111.634C120.424 111.545 119.678 111.456 118.932 111.367C118.741 111.345 118.55 111.322 118.359 111.299C118.272 111.289 118.186 111.279 118.099 111.268C118.04 111.261 117.863 111.234 118.009 111.259C117.879 111.237 117.751 111.211 117.626 111.17C117.573 111.151 117.581 111.155 117.651 111.181L117.592 111.148C117.649 111.199 117.658 111.206 117.618 111.169C117.58 111.13 117.586 111.139 117.636 111.197C117.639 111.223 117.645 111.352 117.651 111.253C117.655 111.185 117.65 111.116 117.654 111.047C117.663 110.865 117.681 110.684 117.696 110.503C117.725 110.143 117.755 109.783 117.788 109.424C117.855 108.67 117.93 107.918 118.011 107.166C118.056 106.749 117.622 106.391 117.236 106.391C116.779 106.391 116.505 106.748 116.46 107.166Z" fill="#4367F5"/>
<path d="M86.4361 162.569C86.6772 162.087 86.9182 161.605 87.1592 161.123C87.2529 160.935 87.2944 160.732 87.2374 160.525C87.1878 160.345 87.0488 160.15 86.8811 160.062C86.7012 159.967 86.4832 159.919 86.2837 159.984C86.0987 160.044 85.9103 160.16 85.8204 160.34C85.5794 160.822 85.3384 161.304 85.0973 161.786C85.0036 161.974 84.9622 162.177 85.0192 162.384C85.0687 162.563 85.2077 162.758 85.3754 162.847C85.5554 162.942 85.7733 162.99 85.9728 162.925C86.1579 162.865 86.3462 162.749 86.4361 162.569Z" fill="#4367F5"/>
<path d="M79.9754 159.908C80.931 159.174 81.8865 158.44 82.842 157.705C83.0095 157.577 83.1398 157.455 83.1983 157.242C83.2494 157.057 83.2263 156.809 83.1202 156.645C83.0134 156.479 82.8545 156.334 82.6569 156.288C82.4684 156.246 82.2205 156.243 82.0595 156.367C81.1039 157.101 80.1484 157.835 79.1929 158.569C79.0254 158.698 78.8951 158.82 78.8366 159.033C78.7855 159.218 78.8086 159.465 78.9148 159.63C79.0215 159.796 79.1804 159.941 79.3781 159.986C79.5665 160.029 79.8144 160.032 79.9754 159.908Z" fill="#4367F5"/>
<path d="M91.5804 160.552C91.8094 161.411 92.1125 162.242 92.4658 163.058C92.5377 163.224 92.7633 163.368 92.9291 163.414C93.1147 163.465 93.3618 163.442 93.5265 163.336C93.692 163.229 93.8377 163.07 93.8828 162.873L93.9105 162.666C93.91 162.526 93.8748 162.396 93.8046 162.275C93.7813 162.221 93.7583 162.168 93.7354 162.114L93.8136 162.299C93.5183 161.597 93.2717 160.876 93.0755 160.139C92.9711 159.748 92.5181 159.47 92.1219 159.598C91.7195 159.728 91.4685 160.132 91.5804 160.552Z" fill="#4367F5"/>
</g>
<defs>
<clipPath id="clip0_3063_4340">
<rect width="287" height="256" fill="white"/>
</clipPath>
</defs>
</svg>
