<svg width="287" height="257" viewBox="0 0 287 257" fill="none" xmlns="http://www.w3.org/2000/svg">
<path d="M260.189 90.7347C267.808 90.7347 273.984 76.491 273.984 58.9206C273.984 41.3501 267.808 27.1064 260.189 27.1064L159.581 37.008C152.128 37.7415 146.485 43.3833 146.485 50.1016V69.374C146.485 76.1829 152.277 81.8697 159.844 82.4913L260.189 90.7347Z" fill="#4367F5"/>
<path d="M255.802 30.8501C257.537 28.462 259.519 27.1064 261.624 27.1064C268.45 27.1064 273.984 41.3501 273.984 58.9206C273.984 76.491 268.45 90.7347 261.624 90.7347C259.519 90.7347 257.537 89.3791 255.802 86.991C259.694 81.6336 262.342 71.0737 262.342 58.9206C262.342 46.7675 259.694 36.2075 255.802 30.8501Z" fill="#111F78"/>
<path d="M255.803 30.8506C259.695 36.2079 262.343 46.7679 262.343 58.921C262.343 71.0741 259.695 81.6341 255.803 86.9915C251.911 81.6341 249.263 71.0741 249.263 58.921C249.263 46.7679 251.911 36.208 255.803 30.8506Z" fill="white"/>
<path d="M104.294 48.7938V51.0364L160.403 45.5332V77.1797L104.294 72.2021V73.9191C104.294 76.7262 102.376 79.0017 100.009 79.0017C97.6425 79.0017 95.724 76.7262 95.724 73.9191V50.777C95.724 49.6817 96.612 48.7938 97.7073 48.7938H103.984" fill="#4367F5"/>
<path d="M232.723 102.772C240.342 102.772 246.519 88.5281 246.519 70.9577C246.519 53.3872 240.342 39.1436 232.723 39.1436L132.116 49.0451C124.662 49.7786 119.02 55.4204 119.02 62.1387V81.4111C119.02 88.22 124.811 93.9068 132.379 94.5285L232.723 102.772Z" fill="#FF5A48"/>
<path d="M228.013 43.3467C229.823 40.6727 231.921 39.1436 234.158 39.1436C240.984 39.1436 246.519 53.3872 246.519 70.9577C246.519 88.5281 240.984 102.772 234.158 102.772C231.921 102.772 229.823 101.243 228.013 98.5686C231.728 93.0811 234.229 82.7714 234.229 70.9577C234.229 59.1439 231.728 48.8343 228.013 43.3467Z" fill="#111F78"/>
<path d="M228.013 43.3467C231.728 48.8342 234.229 59.1438 234.229 70.9576C234.229 82.7714 231.728 93.081 228.013 98.5685C224.299 93.081 221.797 82.7714 221.797 70.9576C221.797 59.1438 224.299 48.8343 228.013 43.3467Z" fill="white"/>
<path d="M76.8959 61.8704V83.0361C76.8959 83.9844 77.6647 84.7531 78.613 84.7531H83.7488C84.6972 84.7531 85.4659 83.9844 85.4659 83.0361L141.575 88.0137V56.3672L85.4659 61.8704C85.4659 60.6318 84.4619 59.6277 83.2233 59.6277H79.1386C77.9 59.6277 76.8959 60.6318 76.8959 61.8704Z" fill="#FF5A48"/>
<path d="M81.5534 66.199C81.4062 66.8491 81.4614 67.4076 81.9908 67.8548C82.4628 68.2535 83.0844 68.445 83.6775 68.5753C85.0234 68.8709 86.4213 68.7951 87.7727 69.068C89.0584 69.3277 90.4802 70.0654 90.5321 71.5528C90.5782 72.8707 89.1325 73.7481 88.1276 74.3054C86.7963 75.0436 85.3173 75.4572 83.7998 75.5468C83.0266 75.5925 83.0292 74.3895 83.7998 74.3439C85.014 74.2722 86.2147 73.9492 87.2949 73.3877C87.8106 73.1197 88.3165 72.8075 88.7636 72.4346C89.17 72.0958 89.4901 71.7147 89.2182 71.1804C88.9495 70.6524 88.3187 70.4364 87.7825 70.3016C87.1537 70.1434 86.5086 70.0844 85.864 70.0335C84.5814 69.9321 83.2749 69.8537 82.0864 69.3148C81.4977 69.0478 80.95 68.633 80.6084 68.0766C80.1944 67.4022 80.2247 66.6246 80.3935 65.8792C80.5644 65.1245 81.7243 65.4439 81.5534 66.199Z" fill="black"/>
<path d="M152.097 36.3152C153.596 38.5371 155.095 40.7589 156.594 42.9808C157.402 44.1793 158.228 45.2774 159.79 45.5066C162.307 45.8758 164.527 43.5825 164.075 41.0778C163.892 40.0661 163.2 39.1543 162.674 38.2898C161.824 36.891 160.973 35.4922 160.123 34.0934C159.321 32.7741 158.519 31.4549 157.717 30.1356C157.024 28.9966 156.333 27.9073 155.325 27.003C153.292 25.1811 150.811 24.6512 148.165 24.6512C147.251 24.6512 146.311 24.5699 145.452 24.9492C144.157 25.5216 143.382 26.7924 143.345 28.1865C143.315 29.3472 141.571 29.3492 141.541 28.1865C141.491 26.2622 139.972 24.6462 138.006 24.6512C136.039 24.6561 134.521 26.2545 134.47 28.1865C134.44 29.3472 132.696 29.3492 132.666 28.1865C132.616 26.2622 131.097 24.6462 129.13 24.6512C127.164 24.6561 125.646 26.2545 125.595 28.1865C125.565 29.3472 123.821 29.3492 123.791 28.1865C123.742 26.2877 122.267 24.6888 120.329 24.6518C118.421 24.6154 116.844 26.1807 116.726 28.0612C116.652 29.2369 116.72 30.436 116.72 31.6129C116.72 36.7131 116.72 41.8133 116.72 46.9135C116.72 48.3196 116.72 49.7257 116.72 51.1317C116.72 52.0075 115.472 52.3852 115.039 51.5871C113.915 49.5133 112.791 47.4395 111.667 45.3657C111.017 44.1676 110.22 43.168 108.791 42.8931C106.66 42.4833 104.564 44.1035 104.446 46.2796C104.361 47.8665 105.504 49.5492 106.168 50.9259C107.397 53.4717 108.625 56.0175 109.853 58.5633C111.854 62.7113 113.829 66.8729 115.88 70.9967C121.293 81.8813 126.182 93.0214 130.712 104.3C132.742 109.354 134.712 114.431 136.732 119.488C138.753 124.548 140.749 129.62 142.55 134.763C146.118 144.947 149.059 155.581 149.35 166.432C149.598 175.693 148.051 186.854 139.322 192.065C131.599 196.676 121.755 193.934 114.21 190.38C106.059 186.541 98.5491 180.989 92.2941 174.518C84.9327 166.903 79.1673 157.846 74.688 148.278C73.5986 145.952 72.5853 143.59 71.6311 141.204C71.1998 140.126 72.9443 139.658 73.3709 140.725C77.3096 150.571 82.4319 160.059 89.1657 168.286C95.0568 175.484 102.195 181.589 110.244 186.256C114.234 188.57 118.468 190.544 122.946 191.704C127.008 192.758 131.371 193.121 135.426 191.84C139.887 190.431 143.137 186.879 145.067 182.715C147.154 178.211 147.564 173.011 147.568 168.108C147.576 157.245 144.706 146.556 141.196 136.354C137.686 126.15 133.51 116.158 129.515 106.137C124.992 94.7894 120.099 83.5851 114.683 72.6343C112.595 68.414 110.56 64.1684 108.514 59.9276C107.266 57.3404 106.017 54.7531 104.769 52.1659C104.117 50.8149 103.22 49.3875 102.826 47.9261C101.599 43.3801 106.533 39.5014 110.669 41.6627C111.9 42.3062 112.634 43.3656 113.274 44.5456C113.951 45.7946 114.628 47.0436 115.305 48.2927C115.735 49.0873 116.166 49.8818 116.597 50.6764L114.916 51.1317C114.916 46.934 114.916 42.7363 114.916 38.5386C114.916 35.9223 114.916 33.306 114.916 30.6897C114.916 28.8787 114.735 27.0033 115.744 25.3898C116.99 23.3973 119.418 22.4095 121.695 23.0433C124.015 23.6886 125.534 25.8198 125.595 28.1865H123.791C123.867 25.2841 126.169 22.8469 129.13 22.8469C132.091 22.8469 134.394 25.284 134.47 28.1865H132.666C132.742 25.2841 135.044 22.8469 138.005 22.8469C140.966 22.8469 143.269 25.284 143.345 28.1865H141.541C141.616 25.2975 143.847 22.9513 146.763 22.8499C148.872 22.7766 151.048 22.7985 153.042 23.5639C155.43 24.4804 157.387 26.1418 158.723 28.3175C159.401 29.4223 160.07 30.5332 160.743 31.6409C161.759 33.3124 162.776 34.9838 163.792 36.6553C164.39 37.6391 165.118 38.6315 165.545 39.7084C166.596 42.365 165.384 45.5371 162.794 46.7766C160.233 48.0026 157.28 47.1171 155.669 44.8298C153.909 42.3316 152.248 39.759 150.539 37.2259C149.888 36.2607 151.45 35.3567 152.097 36.3152Z" fill="black"/>
<path d="M152.22 34.4642C152.22 39.1814 152.22 43.8986 152.22 48.6158C152.22 49.7593 152.22 50.9029 152.22 52.0465C152.22 52.6448 152.228 53.0673 152.467 53.6162C152.741 54.2446 153.086 54.8509 153.392 55.4643C154.377 57.438 155.357 59.4145 156.331 61.394C160.355 69.5747 164.275 77.8072 168.044 86.109C175.513 102.565 182.603 119.313 188.265 136.487C193.648 152.812 197.133 169.82 196.494 187.082C196.017 199.975 192.652 212.937 186.039 224.069C179.56 234.975 169.852 243.764 157.898 248.224C143.891 253.45 128.04 252.608 113.988 248.037C99.3468 243.273 86.1849 234.714 74.4988 224.825C61.6559 213.957 50.6454 201.216 40.7452 187.652C37.1846 182.774 33.9048 177.937 30.9472 172.689C26.8135 165.354 23.1217 157.748 20.088 149.891C16.6095 140.882 13.8225 131.277 13.6458 121.556C13.4874 112.851 15.8901 103.962 22.6402 98.0563C24.8354 96.1356 27.4862 94.9932 29.8512 93.3091C31.7988 91.9223 33.6154 90.2447 34.8267 88.1621C36.8963 84.6038 36.6036 80.4269 36.1624 76.4901C35.1231 67.2174 33.3475 56.5808 39.349 48.5757C44.524 41.6731 52.9962 37.2805 61.3579 35.6813C69.3628 34.1504 78.6643 35.147 84.3937 41.5484C85.837 43.161 86.9675 45.0083 87.8045 47.0008C88.9011 49.6114 89.4091 52.4421 90.1605 55.1616C91.8782 61.3776 93.2519 67.7382 93.7546 74.1783C94.3242 81.4748 93.8486 89.8389 88.9781 95.7363C85.8057 99.5775 81.0531 101.428 76.1871 101.823C72.5386 102.119 68.802 101.667 65.2666 100.746C64.6895 100.595 64.1104 100.438 63.5474 100.24C62.4591 99.8572 62.9275 98.1134 64.027 98.4998C64.6066 98.7035 65.2031 98.8653 65.7974 99.0191C66.4453 99.1868 67.0981 99.3352 67.7544 99.4661C68.5275 99.6202 69.5256 99.7817 70.0835 99.8509C74.2287 100.365 78.5642 100.217 82.3324 98.5298C87.4683 96.2306 90.3186 91.4121 91.4412 86.0318C92.343 81.7096 92.2615 77.2051 91.8314 72.8318C91.1893 66.3021 89.6642 59.8645 87.8345 53.5752C87.1347 51.1699 86.7497 48.7731 85.6034 46.5091C84.6943 44.7138 83.5053 43.0875 82.0307 41.7155C79.1779 39.0611 75.4287 37.598 71.6046 37.0695C63.2709 35.9178 54.358 38.6692 47.4935 43.3578C44.2483 45.5743 41.3028 48.3983 39.3605 51.8431C37.0222 55.9904 36.8314 60.9126 36.9498 65.5711C37.0714 70.3543 38.0214 75.0528 38.2546 79.8224C38.4541 83.901 37.6578 87.7744 35.0346 90.999C33.4094 92.9969 31.3109 94.5882 29.1398 95.9483C27.8404 96.7624 26.391 97.3809 25.1707 98.3059C24.3138 98.9555 23.5033 99.6695 22.7425 100.429C19.7903 103.377 17.7637 107.083 16.6493 111.089C14.2257 119.803 15.6872 129.266 18.0011 137.836C20.4037 146.736 23.9942 155.297 28.1168 163.528C30.6337 168.552 33.3509 173.494 36.3417 178.254C38.5589 181.782 41.101 185.13 43.5789 188.477C48.6197 195.285 53.9516 201.886 59.6938 208.117C70.2116 219.531 82.1938 229.901 95.6391 237.729C108.631 245.293 123.32 250.354 138.497 249.97C145.64 249.789 152.818 248.494 159.414 245.692C165.1 243.277 170.301 239.794 174.752 235.517C183.83 226.794 189.639 215.124 192.537 202.967C196.067 188.158 195.157 172.46 192.133 157.647C188.689 140.774 182.398 124.557 175.869 108.675C169.07 92.1359 161.514 75.9163 153.583 59.8928C152.635 57.9785 151.666 56.0748 150.724 54.1576C150.265 53.2224 150.415 52.2157 150.415 51.1888C150.415 50.1167 150.415 49.0446 150.415 47.9725C150.415 43.4698 150.415 38.967 150.415 34.4642C150.415 33.3032 152.22 33.3013 152.22 34.4642Z" fill="black"/>
<path d="M143.345 28.0785V45.1118C143.345 46.2728 141.54 46.2747 141.54 45.1118V28.0785C141.54 26.9175 143.345 26.9156 143.345 28.0785Z" fill="black"/>
<path d="M134.47 28.1664V45.1997C134.47 46.3607 132.665 46.3626 132.665 45.1997V28.1664C132.665 27.0054 134.47 27.0035 134.47 28.1664Z" fill="black"/>
<path d="M125.595 28.2543V45.2876C125.595 46.4486 123.79 46.4505 123.79 45.2876V28.2543C123.79 27.0933 125.595 27.0914 125.595 28.2543Z" fill="black"/>
<path d="M203.61 26.0924C202.426 28.0234 201.242 29.9542 200.057 31.8843C199.336 33.0603 198.616 34.2379 197.892 35.4121C196.778 37.217 195.078 38.6308 192.836 38.2779C190.347 37.886 188.253 35.9628 187.932 33.4451L189.613 33.9004C188.402 35.8733 187.19 37.9815 184.635 38.2598C183.388 38.3957 182.137 37.9132 181.093 37.2544C179.725 36.3907 178.927 35.0318 178.725 33.4451L180.406 33.9004C180.05 34.4803 179.708 35.0714 179.335 35.6407C178.557 36.8306 177.323 37.6906 175.92 37.9644C172.848 38.5644 169.917 36.5662 169.518 33.4451L171.199 33.9004C170.283 35.3931 169.443 37.0225 167.785 37.815C165.712 38.8056 163.082 38.0134 161.578 36.3377C160.117 34.7108 159.902 32.3734 161.011 30.4974C161.351 29.9217 161.711 29.3568 162.061 28.7869C164.93 24.1135 167.786 19.4313 170.669 14.7664C171.718 13.0691 173.365 11.9741 175.418 12.128C176.574 12.2147 177.945 12.5593 178.899 13.2553C180.068 14.1077 180.464 15.3659 180.621 16.7467C180.06 16.595 179.5 16.4432 178.939 16.2914C179.295 15.7115 179.637 15.1204 180.01 14.5511C180.789 13.3612 182.023 12.5012 183.425 12.2274C186.498 11.6274 189.429 13.6256 189.827 16.7467C189.267 16.595 188.707 16.4432 188.146 16.2914C188.502 15.7115 188.844 15.1204 189.217 14.5511C189.996 13.3612 191.23 12.5012 192.632 12.2274C195.705 11.6274 198.636 13.6256 199.034 16.7467L197.353 16.2914C197.754 15.6384 198.126 14.9544 198.574 14.3318C199.48 13.0722 200.886 12.3041 202.421 12.1419C203.799 11.9964 205.164 12.369 206.204 13.279C207.15 14.1066 207.974 15.0469 208.695 16.076C211.978 20.761 212.891 26.8247 213.409 32.3891C213.929 37.9757 214.172 43.5791 214.131 49.1867C214.075 57.0237 213.844 64.8604 213.46 72.688C212.91 83.9043 212.047 95.1134 210.664 106.259C209.277 117.433 207.458 128.644 204.269 139.461C203.928 140.617 203.568 141.768 203.19 142.913C202.827 144.011 201.084 143.54 201.45 142.434C204.844 132.169 206.785 121.435 208.27 110.747C209.803 99.7202 210.757 88.6127 211.399 77.5006C211.886 69.0586 212.186 60.6045 212.297 52.1491C212.326 49.9216 212.343 47.6939 212.337 45.4662C212.332 43.3323 212.151 41.2062 212.045 39.0748C211.767 33.5099 211.477 27.816 209.765 22.4718C208.983 20.0297 207.855 17.6243 206.117 15.7113C205.744 15.3012 205.345 14.9195 204.928 14.5548C204.502 14.1817 204.084 14.0241 203.465 13.9405C202.172 13.7658 200.782 14.3052 200.03 15.387C199.626 15.9682 199.282 16.5987 198.911 17.202C198.404 18.0277 197.338 17.5917 197.23 16.7467C196.946 14.5207 194.414 13.4319 192.447 14.148C191.045 14.6581 190.433 16.015 189.704 17.202C189.197 18.0277 188.131 17.5917 188.023 16.7467C187.739 14.5207 185.207 13.4319 183.24 14.148C181.839 14.6581 181.226 16.015 180.497 17.202C179.996 18.0196 178.913 17.5998 178.816 16.7467C178.723 15.9247 178.441 15.0038 177.701 14.5893C176.904 14.1429 175.809 13.8915 174.901 13.9199C173.663 13.9587 172.816 14.7217 172.196 15.7265C171.126 17.4629 170.062 19.2031 168.995 20.9414C167.457 23.4461 165.92 25.9508 164.382 28.4555C163.888 29.2591 163.395 30.0627 162.902 30.8663C162.463 31.5806 162.065 32.2628 162.092 33.1459C162.124 34.1925 162.726 35.1573 163.607 35.7074C164.366 36.1813 165.277 36.602 166.189 36.4562C167.975 36.1704 168.793 34.3713 169.641 32.9897C170.148 32.164 171.214 32.6001 171.322 33.4451C171.607 35.671 174.139 36.7598 176.106 36.0437C177.507 35.5336 178.119 34.1768 178.848 32.9897C179.355 32.164 180.421 32.6001 180.529 33.4451C180.766 35.2986 183.099 36.8902 184.918 36.3824C186.514 35.9367 187.256 34.2909 188.055 32.9897C188.562 32.164 189.628 32.6001 189.736 33.4451C189.951 35.1294 191.826 36.4584 193.415 36.5363C194.946 36.6114 195.838 35.3083 196.552 34.1464C197.719 32.2447 198.887 30.3435 200.054 28.4414C200.72 27.355 201.386 26.2683 202.052 25.1817C202.658 24.1933 204.219 25.0988 203.61 26.0924Z" fill="black"/>
<path d="M167.102 36.6876C168.714 38.583 170.327 40.4784 171.939 42.3738C172.383 42.8951 173.308 43.6683 173.351 44.3978C173.395 45.1571 173.351 45.9321 173.351 46.6922C173.351 50.8562 173.258 55.0315 173.357 59.1943C173.43 62.2659 173.382 65.3414 173.284 68.4118C173.08 74.8465 172.606 81.2744 171.865 87.6695C170.911 95.9039 169.526 104.098 167.526 112.146C165.394 120.73 162.562 129.186 158.643 137.129C154.674 145.177 149.469 153.006 142.523 158.789C139.055 161.677 135.157 163.977 130.905 165.504C126.433 167.109 121.61 167.858 116.864 167.872C111.308 167.888 105.67 166.79 100.416 165.019C97.9065 164.174 95.4667 163.11 93.0457 162.04C90.6554 160.984 88.2935 159.861 85.989 158.628C81.4179 156.182 77.0352 153.282 73.298 149.668C71.4563 147.887 69.7844 145.927 68.3373 143.812C67.2124 142.168 65.8732 139.274 67.908 137.74C70.1219 136.071 72.3804 138.655 73.2804 140.509C73.7855 141.549 72.23 142.465 71.7224 141.419C71.3098 140.57 70.6726 139.412 69.7181 139.078C68.8841 138.787 68.608 139.651 68.6875 140.304C68.8096 141.308 69.3949 142.175 69.9527 142.985C70.5968 143.921 71.2893 144.821 72.0266 145.685C75.045 149.224 78.7044 152.141 82.6349 154.605C86.6497 157.121 90.9296 159.187 95.277 161.058C99.8247 163.015 104.452 164.567 109.344 165.403C117.969 166.877 127.177 165.9 134.963 161.748C142.243 157.865 147.875 151.509 152.314 144.662C156.594 138.058 159.825 130.818 162.361 123.383C164.9 115.938 166.763 108.27 168.162 100.533C169.397 93.7038 170.263 86.8104 170.827 79.8938C171.235 74.8851 171.49 69.8621 171.564 64.8372C171.593 62.8814 171.574 60.9281 171.546 58.9727C171.485 54.5967 171.546 50.2158 171.546 45.8393C171.546 45.3464 171.546 44.8535 171.546 44.3606L171.811 44.9985C169.816 42.6535 167.821 40.3084 165.826 37.9634C165.078 37.0837 166.348 35.8015 167.102 36.6876Z" fill="black"/>
<path d="M178.105 22.615C177.327 23.8968 176.549 25.1787 175.771 26.4605C174.523 28.5163 173.276 30.572 172.028 32.6278C171.743 33.0975 171.458 33.5671 171.173 34.0368C170.572 35.0282 169.011 34.1224 169.615 33.1262C170.393 31.8443 171.171 30.5625 171.949 29.2806C173.196 27.2249 174.444 25.1691 175.691 23.1133C175.976 22.6436 176.261 22.174 176.547 21.7043C177.148 20.7129 178.709 21.6187 178.105 22.615Z" fill="black"/>
<path d="M187.081 22.615C186.303 23.8968 185.525 25.1787 184.747 26.4605C183.5 28.5163 182.252 30.572 181.005 32.6278L180.15 34.0368C179.548 35.0282 177.987 34.1224 178.592 33.1262C179.37 31.8443 180.148 30.5625 180.926 29.2806C182.173 27.2249 183.421 25.1691 184.668 23.1133C184.953 22.6436 185.238 22.174 185.523 21.7043C186.125 20.7129 187.686 21.6187 187.081 22.615Z" fill="black"/>
<path d="M196.288 22.615C195.51 23.8968 194.732 25.1787 193.955 26.4605C192.707 28.5163 191.46 30.572 190.212 32.6278C189.927 33.0975 189.642 33.5671 189.357 34.0368C188.755 35.0282 187.194 34.1224 187.799 33.1262C188.577 31.8443 189.355 30.5625 190.133 29.2806C191.38 27.2249 192.628 25.1691 193.875 23.1133C194.16 22.6436 194.445 22.174 194.73 21.7043C195.332 20.7129 196.893 21.6187 196.288 22.615Z" fill="black"/>
<path d="M75.2151 100.071C77.9458 99.8251 80.688 99.7013 83.4275 99.6036C85.5281 99.5287 87.6636 99.3845 89.7652 99.4933C94.0435 99.7148 98.0933 101.404 101.628 103.758C105.376 106.255 108.641 109.434 111.556 112.851C114.34 116.114 116.841 119.618 119.126 123.246C120.783 125.876 122.328 128.577 123.767 131.332C123.882 131.552 123.996 131.773 124.11 131.994C124.332 132.427 124.222 132.973 123.786 133.228C123.382 133.464 122.775 133.339 122.552 132.904C121.246 130.366 119.851 127.874 118.363 125.438C116.232 121.95 113.859 118.496 111.363 115.427C109.963 113.706 108.487 112.045 106.915 110.479C106.127 109.694 105.315 108.933 104.476 108.203C104.078 107.857 103.675 107.518 103.264 107.186C102.804 106.815 102.547 106.616 102.061 106.257C100.366 105.011 98.5612 103.904 96.6424 103.036C96.523 102.982 96.4032 102.929 96.283 102.877C96.2296 102.854 96.1763 102.831 96.1227 102.809C96.2567 102.865 96.1199 102.808 96.0972 102.799C95.8564 102.7 95.6143 102.605 95.3703 102.514C94.8858 102.333 94.3951 102.169 93.899 102.024C93.4196 101.883 92.9352 101.76 92.4468 101.655C92.2101 101.604 91.9725 101.558 91.7341 101.516C91.6219 101.497 91.5095 101.478 91.397 101.46C91.3267 101.449 91.2563 101.439 91.1858 101.429C91.1203 101.419 90.9963 101.404 91.1294 101.421C89.1715 101.173 87.1813 101.293 85.2146 101.35C82.5085 101.429 79.8017 101.538 77.1008 101.726C76.4718 101.77 75.8432 101.819 75.2152 101.876C74.7292 101.919 74.313 101.43 74.313 100.973C74.313 100.449 74.7278 100.115 75.2151 100.071Z" fill="black"/>
<path d="M75.2151 100.973C79.636 101.237 86.2448 100.401 88.6455 100.373C88.6455 100.373 73.2103 115.408 59.5775 103.78C56.7708 100.572 53.1622 95.7607 53.1622 95.7607C53.1622 95.7607 61.7829 100.171 75.2151 100.973Z" fill="black"/>
<path d="M75.2148 100.072C78.9762 100.288 82.7542 99.8652 86.5016 99.588C87.2149 99.5353 87.9297 99.4813 88.6452 99.4713C89.4226 99.4603 89.8411 100.469 89.2831 101.011C88.4134 101.857 87.4376 102.609 86.4639 103.329C84.2853 104.939 81.9286 106.29 79.4236 107.324C76.3967 108.573 73.0819 109.285 69.7985 109.051C65.8543 108.77 61.9928 107.137 59.0365 104.501C58.6617 104.167 58.349 103.737 58.0256 103.353C57.6854 102.949 57.3486 102.542 57.0144 102.133C56.3701 101.345 55.7347 100.55 55.1053 99.7497C54.2324 98.6401 53.3688 97.5229 52.5181 96.3962C52.473 96.3364 52.4278 96.2766 52.3829 96.2167C52.1466 95.9017 52.2643 95.383 52.5239 95.1234C52.8176 94.8297 53.2582 94.799 53.6172 94.9824C53.9239 95.139 54.2395 95.2794 54.5546 95.4182C54.6335 95.453 54.7126 95.4875 54.7919 95.5217C54.8878 95.5631 55.1646 95.675 54.9039 95.5702C55.1177 95.6561 55.3296 95.7469 55.5435 95.8326C56.0612 96.0401 56.5828 96.2379 57.1073 96.4275C60.4037 97.6189 63.8134 98.5003 67.2611 99.1239C69.8914 99.5996 72.5469 99.9096 75.2148 100.072C75.7012 100.101 76.1169 100.465 76.1169 100.974C76.1169 101.439 75.7036 101.906 75.2147 101.876C70.6518 101.599 66.1056 100.9 61.6836 99.7354C59.0452 99.0405 56.4476 98.1819 53.9397 97.1048C53.5248 96.9267 53.1088 96.7458 52.7065 96.5403C53.1179 96.1289 53.5294 95.7174 53.9408 95.306C55.6449 97.5775 57.3695 99.7803 59.2642 102.033C59.5737 102.401 59.8714 102.806 60.2151 103.143C60.5686 103.489 60.9974 103.786 61.3979 104.075C62.1924 104.647 63.029 105.163 63.9031 105.605C65.4334 106.379 67.1315 106.912 68.8811 107.156C68.9878 107.171 68.9049 107.159 68.8833 107.156C68.9476 107.164 69.0121 107.172 69.0765 107.18C69.1729 107.191 69.2693 107.201 69.3658 107.21C69.5736 107.23 69.7818 107.247 69.9902 107.259C70.4021 107.284 70.8149 107.294 71.2275 107.289C71.6345 107.284 72.0414 107.266 72.4472 107.234C72.6482 107.218 72.849 107.199 73.0494 107.177C73.1416 107.167 73.2336 107.156 73.3255 107.144C73.3278 107.144 73.4784 107.124 73.389 107.137C73.3101 107.147 73.482 107.123 73.4976 107.121C75.0409 106.89 76.5527 106.487 78.016 105.947C78.794 105.659 79.2038 105.486 79.9306 105.145C80.5676 104.847 81.1937 104.526 81.8087 104.185C82.8846 103.587 83.9265 102.929 84.9316 102.22C85.1484 102.067 85.3635 101.911 85.5768 101.753C85.6769 101.679 85.7765 101.605 85.8757 101.53C85.9479 101.475 86.2278 101.257 86.0178 101.422C86.3377 101.171 86.6554 100.918 86.9668 100.657C87.3059 100.373 87.6211 100.056 87.9636 99.7773C87.979 99.7647 87.9929 99.7495 88.0072 99.7356C88.2199 100.249 88.4325 100.762 88.6451 101.276C87.197 101.296 85.7481 101.451 84.3053 101.563C82.3406 101.717 80.3735 101.86 78.403 101.91C77.3403 101.937 76.2763 101.937 75.2147 101.876C74.7282 101.848 74.3125 101.482 74.3125 100.974C74.3125 100.507 74.7259 100.044 75.2148 100.072Z" fill="black"/>
<path d="M87.2432 32.4086C87.2432 32.4086 95.4629 40.8288 92.8566 46.0413C88.8863 53.982 77.6201 50.4519 77.6201 50.4519C77.6201 50.4519 79.0234 59.4735 67.195 55.4639C67.195 59.8745 63.7868 64.686 57.7724 60.4759C51.758 56.2658 53.9632 77.1159 57.7724 81.326C53.9633 81.9274 50.5035 63.0249 45.1422 65.087C34.7171 69.0967 41.8115 80.2819 46.0782 83.3693C44.0582 85.975 33.9997 89.1732 34.1534 83.3353C33.0315 84.0747 31.4709 83.8105 30.3706 83.0394C29.2702 82.2683 28.5368 81.0872 27.8779 79.9163C24.2143 73.4062 21.7994 65.7718 22.4617 58.2339C22.9553 52.6159 26.4266 46.6589 32.3113 45.6404C36.1205 25.7927 71.6056 15.9691 87.2432 32.4086Z" fill="black"/>
<path d="M87.8815 31.7709C89.0569 32.9766 90.1119 34.3269 91.0724 35.7063C92.6643 37.9925 94.1811 40.7039 94.2668 43.5572C94.3568 46.5506 92.1793 49.2753 89.6479 50.6579C87.3441 51.9161 84.6333 52.2571 82.0431 52.1019C80.4866 52.0087 78.8752 51.7889 77.3806 51.3221C77.7506 50.9522 78.1205 50.5822 78.4904 50.2123C78.6595 51.3091 78.5842 52.4806 78.2507 53.5388C77.9628 54.4518 77.4678 55.3245 76.7425 55.961C75.7718 56.813 74.5732 57.2124 73.3043 57.3485C71.1712 57.5773 68.9601 57.0086 66.9556 56.3341C67.3363 56.0441 67.717 55.7542 68.0976 55.4642C68.0803 58.8444 66.2069 62.6671 62.4778 62.9844C61.5153 63.0663 60.5164 62.8602 59.6247 62.5044C59.0483 62.2744 58.4937 62.0036 57.9642 61.6795C57.626 61.4725 57.3109 61.2272 56.9657 61.032C56.8823 60.9849 56.792 60.9488 56.7098 60.9006C56.5935 60.8326 56.9231 60.9708 56.7547 60.9204C56.7052 60.9055 56.6572 60.8851 56.6076 60.8701C56.5327 60.8474 56.4508 60.8394 56.3775 60.8141C56.251 60.7704 56.6263 60.819 56.4644 60.8261C56.4222 60.8279 56.375 60.8224 56.3329 60.8203C56.2967 60.8184 56.2563 60.8294 56.2211 60.8244C56.1153 60.8095 56.4347 60.7685 56.3369 60.8075C56.2772 60.8314 56.1792 60.8548 56.1153 60.8658C55.9914 60.8869 56.2341 60.8035 56.2183 60.8211C56.199 60.8426 56.1489 60.8536 56.123 60.87C56.093 60.8892 56.0618 60.9095 56.0308 60.9269C55.8732 61.0155 56.1129 60.8964 56.099 60.87C56.0997 60.8713 55.9425 61.0133 55.9308 61.0255C55.9033 61.0543 55.8782 61.0853 55.851 61.1142C55.7206 61.2529 55.8948 61.0562 55.8936 61.0559C55.8543 61.0426 55.6385 61.4709 55.6171 61.5137C55.5956 61.5568 55.577 61.6016 55.5549 61.6444C55.4716 61.8053 55.6186 61.4653 55.5698 61.6057C55.5354 61.7047 55.4941 61.8012 55.4604 61.9005C55.387 62.1161 55.3258 62.3358 55.2729 62.5573C55.2146 62.8017 55.1667 63.0485 55.1263 63.2964C55.1156 63.3618 55.1064 63.4275 55.0958 63.493C55.0617 63.7049 55.1111 63.3489 55.0925 63.5123C55.0766 63.6514 55.059 63.7902 55.045 63.9294C54.9844 64.5328 54.9561 65.1392 54.9481 65.7455C54.9304 67.1039 55.0134 68.4636 55.1587 69.8139C55.1779 69.9926 55.1983 70.1712 55.2198 70.3497C55.2306 70.4392 55.2417 70.5287 55.253 70.6181C55.2587 70.6628 55.2899 70.9001 55.2771 70.8052C55.2629 70.6999 55.2978 70.9527 55.3034 70.9923C55.3161 71.0819 55.3291 71.1714 55.3424 71.2609C55.3689 71.4398 55.3966 71.6185 55.4253 71.797C55.5393 72.504 55.6709 73.2082 55.8214 73.9083C56.0999 75.2032 56.4391 76.4888 56.8843 77.737C56.9795 78.0038 57.0798 78.2689 57.1865 78.5314C57.1972 78.5577 57.2904 78.7792 57.2336 78.6464C57.1803 78.5216 57.2652 78.7177 57.282 78.7557C57.336 78.8779 57.3917 78.9995 57.4493 79.1201C57.6545 79.5499 57.8825 79.9714 58.1538 80.3635C58.2087 80.4429 58.4365 80.6861 58.2234 80.4664C58.2901 80.5352 58.3466 80.6168 58.4107 80.6884C58.8114 81.1358 58.7348 82.0918 58.0126 82.1962C56.8868 82.3591 55.995 81.7454 55.3077 80.9006C54.4647 79.8643 53.8446 78.669 53.2626 77.4729C51.8684 74.6081 50.7362 71.6004 49.1065 68.8546C48.9254 68.5495 48.737 68.2485 48.5383 67.9544C48.4472 67.8195 48.3539 67.6859 48.2579 67.5543C48.2114 67.4905 48.1631 67.4279 48.1165 67.3642C48.0456 67.2674 48.2262 67.5008 48.1509 67.4087C48.1207 67.3718 48.0917 67.3338 48.0616 67.2967C47.8742 67.0651 47.6763 66.8415 47.4636 66.6327C47.3681 66.539 47.2698 66.4482 47.1679 66.3614C47.1436 66.3407 46.958 66.1898 47.0911 66.2953C47.218 66.3959 47.0306 66.2524 46.9943 66.2273C46.8959 66.1593 46.7945 66.0956 46.6898 66.0378C46.6392 66.0099 46.5869 65.9855 46.536 65.9582C46.3456 65.8559 46.7027 66.005 46.5384 65.957C46.4395 65.9281 46.3449 65.8891 46.2443 65.8644C46.1924 65.8517 46.137 65.8464 46.0859 65.8313C45.9554 65.7929 46.204 65.862 46.2062 65.8464C46.2064 65.8452 46.0911 65.836 46.0861 65.8359C45.9784 65.8337 45.8693 65.8447 45.7624 65.8414C45.6195 65.8369 45.9924 65.7875 45.8181 65.8344C45.7571 65.8508 45.6937 65.8594 45.6324 65.8758C45.1905 65.9935 44.8412 66.1736 44.4261 66.3827C43.4934 66.8529 42.8413 67.2924 42.1668 68.0004C42.0931 68.0778 42.0212 68.1567 41.9512 68.2374C41.9167 68.2771 41.8831 68.3176 41.8491 68.3577C41.8328 68.377 41.7291 68.5054 41.7977 68.4187C41.8657 68.3327 41.7661 68.4606 41.7513 68.4813C41.7216 68.5228 41.6914 68.5639 41.6622 68.6058C41.5973 68.6989 41.5347 68.7936 41.4749 68.89C41.3706 69.058 41.2741 69.2311 41.1862 69.4083C41.1429 69.4957 41.1026 69.5844 41.0624 69.6733C41.1468 69.4864 41.0245 69.7747 41.005 69.828C40.8691 70.2009 40.7744 70.5835 40.7032 70.9736C40.6946 71.0207 40.6884 71.0683 40.6806 71.1155C40.6856 71.0851 40.7009 70.9189 40.6843 71.0896C40.675 71.1853 40.6637 71.2808 40.6563 71.3767C40.6412 71.5695 40.6336 71.7629 40.633 71.9563C40.6323 72.1516 40.6389 72.3469 40.6517 72.5418C40.6581 72.64 40.6663 72.7381 40.676 72.8361C40.6808 72.8853 40.6875 72.9344 40.6918 72.9836C40.7135 73.231 40.6588 72.7931 40.6982 73.0392C40.762 73.438 40.839 73.8326 40.9415 74.2235C41.0491 74.6344 41.1788 75.0394 41.3262 75.4377C41.3623 75.5353 41.3995 75.6325 41.4377 75.7293C41.4568 75.7778 41.4764 75.8261 41.4958 75.8745C41.5055 75.8984 41.5689 76.0508 41.5255 75.9476C41.482 75.8443 41.5468 75.9966 41.5572 76.0202C41.5784 76.0681 41.5994 76.116 41.6208 76.1638C41.6691 76.2715 41.7185 76.3786 41.7691 76.4852C42.1388 77.2639 42.5681 78.0143 43.0432 78.7334C43.2747 79.0837 43.5192 79.424 43.7698 79.7608C43.9 79.936 43.7215 79.7037 43.8562 79.8735C43.9096 79.9409 43.9628 80.0085 44.0168 80.0754C44.153 80.2442 44.2921 80.4108 44.434 80.5749C44.91 81.125 45.4174 81.65 45.9651 82.1293C46.0756 82.226 46.1878 82.3208 46.302 82.4133C46.3254 82.4323 46.5312 82.5927 46.4089 82.4993C46.2894 82.4081 46.5076 82.5714 46.534 82.5906C47.0433 82.9616 47.1011 83.5194 46.7166 84.0075C46.1467 84.7308 45.3083 85.2663 44.5093 85.7029C43.473 86.269 42.3554 86.713 41.2186 87.0305C39.243 87.5824 36.5787 87.979 34.789 86.6901C33.6938 85.9013 33.2268 84.6608 33.2517 83.3356C33.7042 83.5953 34.1566 83.8549 34.6092 84.1146C33.1352 85.0384 31.1758 84.7363 29.8136 83.7452C28.3629 82.6897 27.4764 81.091 26.6426 79.5424C24.9001 76.306 23.4861 72.8668 22.574 69.3028C20.9849 63.0934 20.5928 55.7566 24.2891 50.1877C26.0978 47.4627 28.8042 45.3544 32.0719 44.7707L31.4418 45.4008C32.2288 41.3449 34.3412 37.6682 37.1322 34.6572C40.1019 31.4534 43.8286 28.9617 47.7847 27.143C52.0261 25.1931 56.5579 23.9613 61.196 23.4491C65.7617 22.945 70.4516 23.1834 74.9036 24.3487C79.2676 25.491 83.3926 27.5773 86.727 30.6371C87.1246 31.0019 87.5089 31.3806 87.8815 31.7709C88.6833 32.6108 87.4094 33.8888 86.6057 33.0468C85.8439 32.2489 85.0302 31.5023 84.1671 30.8151C84.126 30.7824 83.8942 30.6013 84.0182 30.6969C83.9072 30.6114 83.7952 30.5271 83.6827 30.4437C83.4579 30.2769 83.2302 30.1141 82.9998 29.9551C82.5628 29.6534 82.1161 29.3658 81.661 29.0922C80.738 28.5374 79.7803 28.0408 78.7972 27.6016C78.6819 27.5501 78.5663 27.4996 78.4505 27.4495C78.2873 27.3789 78.3988 27.4269 78.4336 27.4416C78.3559 27.4088 78.278 27.3767 78.2001 27.3448C77.9399 27.2382 77.6781 27.1355 77.4149 27.0366C76.9131 26.8481 76.4061 26.6734 75.8949 26.5123C74.8645 26.1876 73.817 25.9178 72.7589 25.6997C72.2115 25.5868 71.6612 25.4878 71.1088 25.4021C70.9809 25.3822 70.8529 25.3631 70.7248 25.3446C70.6678 25.3364 70.6108 25.3285 70.5538 25.3205C70.2713 25.2804 70.7342 25.342 70.4509 25.3068C70.1787 25.273 69.9065 25.2399 69.6338 25.2111C67.401 24.9753 65.1474 24.9464 62.908 25.1002C62.351 25.1384 61.7948 25.188 61.2399 25.2487C60.5743 25.3215 60.2979 25.3581 59.6859 25.4517C58.581 25.6207 57.4828 25.8332 56.3946 26.0882C54.2081 26.6006 52.0608 27.2836 49.9836 28.1376C49.9302 28.1596 49.8769 28.1817 49.8236 28.2038C49.5672 28.31 49.9123 28.1656 49.76 28.2303C49.6408 28.2809 49.5218 28.3322 49.403 28.384C49.1399 28.4988 48.878 28.6165 48.6173 28.737C48.1251 28.9646 47.6376 29.2023 47.1553 29.4503C46.1789 29.9524 45.2239 30.4966 44.2965 31.0845C43.8517 31.3664 43.4131 31.6584 42.9818 31.9606C42.7791 32.1027 42.578 32.2469 42.3786 32.3934C42.2683 32.4745 42.1585 32.5563 42.0492 32.6387C42.0056 32.6717 41.9621 32.7048 41.9185 32.7378C41.7031 32.9015 42.055 32.6304 41.8419 32.7966C41.0246 33.4339 40.2382 34.1108 39.4915 34.8297C38.7625 35.5315 38.0712 36.273 37.4276 37.054C37.2792 37.234 37.1334 37.4161 36.9902 37.6003C37.1047 37.4529 36.8767 37.7512 36.8497 37.7873C36.7727 37.8905 36.6966 37.9943 36.6213 38.0986C36.3368 38.493 36.0647 38.8963 35.8062 39.3082C35.2813 40.1446 34.8123 41.0163 34.4103 41.9183C34.3692 42.0104 34.3292 42.1029 34.2893 42.1954C34.371 42.0061 34.2237 42.3563 34.2067 42.3986C34.1131 42.6323 34.0239 42.8678 33.9394 43.1049C33.7786 43.5559 33.6347 44.013 33.5084 44.4748C33.3815 44.9391 33.2734 45.408 33.1817 45.8805C33.1272 46.1614 32.8356 46.4598 32.5516 46.5106C30.0411 46.959 27.9177 48.3715 26.3927 50.3328C24.782 52.4042 23.8475 54.8563 23.4554 57.4437C23.2425 58.8489 23.2169 60.5886 23.2861 62.119C23.3616 63.7908 23.577 65.4496 23.9137 67.0885C24.5968 70.4135 25.7364 73.6392 27.2113 76.6937C27.6149 77.5298 28.0427 78.3542 28.4927 79.1663C28.9052 79.9108 29.3222 80.6798 29.8702 81.3354C30.8052 82.4538 32.3618 83.3944 33.6985 82.5566C34.2757 82.1949 35.0686 82.6639 35.056 83.3356C35.0534 83.4713 35.0543 83.6068 35.0626 83.7423C35.0662 83.8007 35.0733 83.8589 35.0768 83.9172C35.0905 84.1443 35.0263 83.7296 35.0817 83.9439C35.1083 84.0467 35.1234 84.1523 35.1522 84.2549C35.1747 84.3353 35.3201 84.6753 35.2025 84.4347C35.2864 84.6064 35.3789 84.7625 35.4849 84.9211C35.3341 84.6953 35.507 84.9379 35.5553 84.9879C35.6313 85.0665 35.714 85.1349 35.796 85.2068C35.5888 85.0251 35.8237 85.2193 35.8812 85.2551C35.9598 85.3042 36.0408 85.3494 36.1236 85.3912C36.1741 85.4167 36.2261 85.4389 36.277 85.4636C36.0715 85.3635 36.1688 85.4221 36.2204 85.4384C36.3323 85.4737 36.4412 85.5175 36.5542 85.55C36.7613 85.6095 36.9716 85.6501 37.1841 85.6846C37.3193 85.7066 36.9518 85.6676 37.1656 85.6811C37.2302 85.6852 37.2948 85.6942 37.3594 85.6993C37.4805 85.709 37.602 85.715 37.7235 85.7183C37.9641 85.7247 38.2049 85.7195 38.4451 85.7052C38.5631 85.6981 38.6809 85.6887 38.7986 85.6774C38.8627 85.6712 39.2936 85.6132 39.0613 85.649C39.5778 85.5694 40.0884 85.4659 40.5933 85.3305C41.1139 85.1908 41.6268 85.0227 42.1297 84.8288C42.256 84.7802 42.3815 84.7296 42.5066 84.6778C42.3114 84.7586 42.6367 84.6199 42.6912 84.5953C42.9266 84.489 43.1593 84.3765 43.3883 84.2571C43.8425 84.0202 44.2757 83.7532 44.693 83.4564C44.7243 83.4341 44.7544 83.4101 44.7854 83.3873C44.5674 83.5476 44.7771 83.3916 44.821 83.3551C44.8953 83.2933 44.9682 83.2298 45.0389 83.164C45.1834 83.0296 45.3186 82.8867 45.4408 82.7316L45.6233 84.1486C44.329 83.2058 43.2474 82.0305 42.2798 80.761C41.1933 79.3357 40.3 77.7732 39.6552 76.0998C39.0294 74.4754 38.6753 72.6867 38.8983 70.9468C39.1368 69.0869 40.0304 67.4009 41.4656 66.183C42.3746 65.4116 43.3967 64.8393 44.4938 64.382C45.1661 64.1018 45.7991 63.9662 46.5259 64.0849C47.6939 64.2757 48.6614 65.1752 49.3734 66.0652C51.3845 68.5796 52.5809 71.6883 53.9011 74.5935C54.5257 75.9679 55.1523 77.3543 55.9317 78.6498C56.0893 78.9118 56.2541 79.1697 56.4313 79.4189C56.4698 79.4731 56.5095 79.5265 56.5487 79.5803C56.6766 79.756 56.4784 79.5022 56.5543 79.5881C56.6392 79.6843 56.717 79.7865 56.8036 79.8814C56.879 79.9639 56.9569 80.0442 57.0384 80.1206C57.0815 80.161 57.1271 80.1986 57.1705 80.2386C57.3224 80.3786 57.0126 80.1393 57.1496 80.2248C57.2287 80.2742 57.3046 80.3275 57.3849 80.3753C57.4146 80.393 57.4801 80.41 57.5028 80.4347C57.4512 80.3787 57.2798 80.3723 57.4496 80.4073C57.4923 80.4161 57.5416 80.4292 57.5826 80.4432C57.7448 80.4985 57.5214 80.4237 57.4908 80.4335C57.5489 80.4149 57.96 80.3946 57.533 80.4564C57.4003 80.959 57.2676 81.4616 57.1349 81.9642C56.4157 81.161 55.9397 80.1933 55.5276 79.2064C55.0385 78.035 54.6674 76.8172 54.3598 75.5865C53.6582 72.7804 53.2412 69.8695 53.155 66.9776C53.1164 65.68 53.1617 64.385 53.3436 63.0989C53.4768 62.157 53.6986 61.1653 54.2018 60.3447C54.6693 59.5821 55.4221 59.0069 56.3491 59.016C56.8396 59.0208 57.3042 59.1794 57.7372 59.3991C58.5352 59.804 59.2182 60.389 60.0513 60.7429C60.9367 61.119 61.6553 61.2536 62.5643 61.1719C62.672 61.1622 62.5545 61.1742 62.5374 61.1769C62.5932 61.1683 62.6489 61.1586 62.7043 61.1478C62.7863 61.1318 62.8681 61.1135 62.949 61.0927C63.0422 61.0688 63.1344 61.0416 63.2257 61.0115C63.2883 60.9907 63.5155 60.9021 63.4597 60.9265C63.3684 60.9665 63.49 60.9107 63.4994 60.906C63.5474 60.882 63.5958 60.8589 63.6433 60.834C63.7144 60.7968 63.7845 60.7575 63.8534 60.7164C63.9337 60.6685 64.0123 60.6179 64.0894 60.565C64.1335 60.5348 64.1769 60.5037 64.22 60.4721C64.3324 60.3897 64.1204 60.5547 64.2274 60.4651C64.8837 59.916 65.1839 59.5035 65.5682 58.7335C65.6064 58.6569 65.6424 58.5792 65.6787 58.5017C65.754 58.3409 65.7061 58.4443 65.6908 58.4803C65.7077 58.4405 65.7236 58.4002 65.7393 58.3599C65.8185 58.157 65.8908 57.9517 65.9541 57.7432C66.0737 57.349 66.1592 56.9478 66.2254 56.5415C66.2265 56.535 66.246 56.3908 66.2337 56.4863C66.2202 56.5919 66.2418 56.4097 66.244 56.387C66.2542 56.2845 66.2641 56.1821 66.2714 56.0793C66.286 55.8745 66.2923 55.6695 66.2933 55.4642C66.2962 54.9055 66.8714 54.4045 67.4353 54.5943C68.4208 54.9259 69.4232 55.2119 70.4465 55.4004C70.6512 55.4381 70.8567 55.4726 71.0628 55.5012C70.9237 55.4819 71.1874 55.5155 71.2293 55.5202C71.345 55.533 71.4608 55.5442 71.5769 55.5536C71.9365 55.5827 72.2977 55.5957 72.6585 55.5863C72.8279 55.5819 72.9971 55.5726 73.1659 55.5577C73.2349 55.5516 73.3036 55.5428 73.3725 55.5366C73.4211 55.5321 73.5482 55.5077 73.333 55.5425C73.3763 55.5355 73.42 55.5303 73.4631 55.5222C73.7457 55.4697 74.0248 55.4102 74.2987 55.322C74.4154 55.2844 74.5287 55.2391 74.6437 55.1969C74.6722 55.1865 74.4706 55.2795 74.652 55.1906C74.7072 55.1636 74.7629 55.1375 74.8175 55.1092C75.0269 55.0008 75.2086 54.8562 75.4102 54.7381C75.4562 54.7112 75.2521 54.875 75.3774 54.7613C75.4178 54.7246 75.461 54.6908 75.5016 54.6542C75.5812 54.5827 75.6579 54.508 75.7315 54.4303C75.8035 54.3544 75.8674 54.2717 75.9379 54.1948C76.0375 54.0859 75.8252 54.3616 75.9046 54.2383C75.9358 54.1897 75.9727 54.1443 76.0053 54.0964C76.1168 53.9322 76.2167 53.7601 76.3053 53.5825C76.3329 53.5271 76.4535 53.2784 76.3813 53.4264C76.3088 53.5749 76.4249 53.3115 76.4471 53.2493C76.5661 52.9155 76.6515 52.5702 76.709 52.2207C76.7158 52.179 76.7212 52.137 76.7283 52.0953C76.7581 51.9225 76.707 52.307 76.7172 52.1769C76.7234 52.0974 76.7351 52.0181 76.742 51.9386C76.7544 51.7966 76.7626 51.6543 76.7668 51.5118C76.7741 51.2609 76.7695 51.0094 76.7505 50.7591C76.745 50.686 76.7353 50.6132 76.7298 50.5402C76.7165 50.3607 76.7682 50.8063 76.7506 50.692C76.6525 50.0557 77.1399 49.3573 77.8604 49.5823C78.177 49.6812 78.5011 49.7588 78.8243 49.8327C79.1848 49.9151 79.5475 49.9875 79.9118 50.0509C80.1316 50.0892 80.3521 50.1228 80.5728 50.1556C80.8194 50.1922 80.4287 50.1399 80.6884 50.1712C80.8329 50.1885 80.9774 50.2061 81.1221 50.2213C82.2409 50.3392 83.3713 50.37 84.4933 50.281C84.6188 50.271 84.7442 50.2596 84.8694 50.2465C84.9391 50.2392 85.3711 50.1825 85.1592 50.2137C85.4902 50.1649 85.8196 50.1082 86.1464 50.0363C86.748 49.904 87.3335 49.7224 87.9075 49.4999C87.9491 49.4837 88.1112 49.4134 87.9482 49.4843C88.0211 49.4526 88.0937 49.4204 88.1659 49.3871C88.311 49.3202 88.4544 49.2497 88.5958 49.1756C88.8819 49.0257 89.1601 48.861 89.4285 48.6813C89.5646 48.5902 89.6982 48.4953 89.8289 48.3965C89.6783 48.5103 89.8944 48.343 89.9066 48.3331C89.9712 48.2803 90.0349 48.2266 90.0979 48.1719C90.3553 47.9485 90.5991 47.7095 90.8277 47.4568C91.28 46.9568 91.63 46.4443 91.9886 45.7608C92.0308 45.6805 92.0712 45.5994 92.1114 45.5181C92.1256 45.4895 92.22 45.258 92.1419 45.4574C92.1966 45.3179 92.2465 45.177 92.2889 45.0332C92.324 44.9138 92.3543 44.793 92.3803 44.6713C92.3959 44.5982 92.406 44.5237 92.4221 44.4509C92.438 44.3466 92.4381 44.3522 92.4223 44.468C92.4285 44.4182 92.434 44.3683 92.4388 44.3183C92.4605 44.0387 92.4715 43.7606 92.4598 43.4801C92.4533 43.3245 92.4413 43.169 92.4245 43.0141C92.4213 42.9838 92.3818 42.7256 92.4163 42.9406C92.3994 42.8355 92.3827 42.7304 92.363 42.6256C92.2402 41.9745 92.0445 41.3382 91.806 40.7206C91.7753 40.6411 91.7435 40.5621 91.7117 40.4831C91.6095 40.2291 91.7517 40.5731 91.6868 40.4223C91.6244 40.2774 91.5598 40.1335 91.4932 39.9905C91.3348 39.6506 91.1651 39.3161 90.9865 38.9864C90.6675 38.3977 90.3202 37.8247 89.9528 37.265C89.5678 36.6785 89.1604 36.1067 88.7359 35.5481C88.6915 35.4897 88.6468 35.4314 88.602 35.3732C88.7386 35.5504 88.5486 35.3057 88.524 35.2744C88.426 35.1499 88.3271 35.0261 88.2274 34.903C88.0601 34.6963 87.8905 34.4915 87.7185 34.2888C87.3593 33.8653 86.9934 33.4446 86.6057 33.0468C85.7946 32.2148 87.0692 30.9376 87.8815 31.7709Z" fill="black"/>
<path d="M25.4549 157.602C26.2876 165.189 26.2222 172.866 25.2805 180.44C24.3341 188.051 22.546 195.547 19.8964 202.746C18.4107 206.783 16.6656 210.725 14.6698 214.535C14.1309 215.564 12.5731 214.653 13.1118 213.625C16.597 206.971 19.2864 199.919 21.1506 192.643C23.0198 185.348 24.052 177.85 24.2117 170.32C24.3018 166.074 24.1139 161.824 23.6506 157.602C23.5973 157.117 24.1033 156.7 24.5527 156.7C25.0847 156.7 25.4015 157.116 25.4549 157.602Z" fill="black"/>
<path d="M75.2009 78.992C74.8539 77.6784 73.2787 77.6637 72.5276 78.5758C71.8894 79.351 71.6273 81.1182 72.0477 82.0326C72.2567 82.4874 72.8454 82.6764 73.3296 82.5495C73.8439 82.4147 74.3162 81.964 74.6648 81.3996C75.1349 80.6387 75.3803 79.6711 75.2009 78.992Z" fill="black"/>
<path d="M74.6206 79.1521C74.6069 79.1029 74.5904 79.0551 74.5753 79.0063C74.5298 78.8591 74.6364 79.1007 74.5597 78.9733C74.5206 78.9083 74.485 78.8429 74.4414 78.7804C74.5314 78.9095 74.3902 78.7391 74.3641 78.7111C74.2708 78.6106 74.4714 78.7738 74.3564 78.7017C74.3217 78.68 74.2883 78.6567 74.2525 78.6366C74.2169 78.6165 74.1798 78.6003 74.1435 78.5819C74.27 78.646 74.2089 78.6075 74.1738 78.5981C74.0945 78.5771 74.0175 78.5563 73.9369 78.54C74.0917 78.5713 73.9162 78.5428 73.8508 78.5431C73.8161 78.5433 73.7816 78.5465 73.747 78.5472C73.5902 78.55 73.839 78.5214 73.7197 78.5493C73.6506 78.5654 73.5818 78.5791 73.514 78.6005C73.473 78.6134 73.4335 78.6297 73.3929 78.6435C73.5203 78.6002 73.4486 78.6183 73.4182 78.635C73.3413 78.6771 73.2672 78.7208 73.1921 78.7659C73.1657 78.7817 73.1063 78.8357 73.2075 78.7504C73.162 78.7887 73.1169 78.8267 73.0744 78.8684C73.0428 78.8995 72.8984 79.0797 72.9936 78.9475C72.9495 79.0088 72.9075 79.071 72.8692 79.1361C72.8284 79.2052 72.7912 79.2764 72.7568 79.3488C72.748 79.3673 72.6857 79.5202 72.7366 79.3901C72.7144 79.4467 72.6929 79.5035 72.673 79.561C72.6108 79.7407 72.5614 79.9247 72.5229 80.1108C72.5041 80.2016 72.4885 80.2929 72.4744 80.3846C72.4953 80.249 72.4698 80.4307 72.4683 80.4457C72.4627 80.5008 72.4581 80.556 72.4545 80.6113C72.4415 80.8082 72.4406 81.0062 72.4557 81.203C72.4584 81.2374 72.4623 81.2716 72.4651 81.3059C72.4789 81.473 72.4373 81.1845 72.4712 81.3452C72.491 81.4389 72.5081 81.5319 72.5353 81.624C72.5481 81.6674 72.5639 81.7096 72.5777 81.7526C72.6107 81.8549 72.5764 81.7464 72.5668 81.7293C72.5922 81.7742 72.6131 81.8194 72.6433 81.8618C72.5653 81.7523 72.6671 81.8736 72.6837 81.8897C72.6642 81.8708 72.588 81.8347 72.6828 81.8871C72.7278 81.912 72.7702 81.9393 72.8174 81.9604C72.7107 81.9127 72.7954 81.9498 72.8187 81.9545C72.849 81.9605 73.0585 81.9909 72.9149 81.9822C72.9585 81.9849 73.0024 81.9839 73.0458 81.9865C73.0804 81.9885 73.1947 81.9696 73.0679 81.9915C73.1563 81.9763 73.2445 81.9522 73.3276 81.918C73.2118 81.9657 73.3813 81.8851 73.3897 81.8804C73.4413 81.8514 73.4899 81.8187 73.5395 81.7865C73.5494 81.7801 73.6278 81.7192 73.563 81.771C73.6282 81.7189 73.6897 81.6613 73.7488 81.6025C74.0668 81.2858 74.3388 80.8135 74.4796 80.4079C74.522 80.2859 74.5586 80.1619 74.5889 80.0364C74.6037 79.9752 74.6169 79.9136 74.6283 79.8517C74.6291 79.8474 74.6539 79.6569 74.6424 79.7691C74.6543 79.6528 74.6605 79.5359 74.6572 79.419C74.6556 79.3634 74.6519 79.308 74.6462 79.2527C74.6606 79.392 74.6272 79.1788 74.6206 79.1521C74.5455 78.8472 74.7182 78.4857 75.0408 78.4122C75.3515 78.3415 75.7001 78.5055 75.7806 78.8323C76.074 80.023 75.5395 81.3572 74.7748 82.2621C74.3877 82.7202 73.8594 83.0887 73.2562 83.1698C72.6399 83.2526 72.0058 83.0159 71.635 82.5093C71.3434 82.1109 71.2655 81.5519 71.2453 81.0719C71.2236 80.5555 71.2922 80.022 71.4265 79.5235C71.6827 78.5729 72.2453 77.7134 73.2351 77.4283C73.7534 77.279 74.3033 77.3266 74.7875 77.5603C75.2942 77.8048 75.6324 78.3022 75.7806 78.8323C75.8653 79.1351 75.6764 79.5002 75.3606 79.5722C75.0416 79.6448 74.7113 79.4764 74.6206 79.1521Z" fill="black"/>
<path d="M75.2042 61.5626C74.5881 61.2822 73.7905 61.2313 73.1166 61.3901C72.3635 61.5675 71.7514 61.9307 71.2469 62.5338C71.0383 62.7832 70.6116 62.7492 70.3963 62.5338C70.1495 62.287 70.1873 61.9332 70.3963 61.6833C71.6973 60.1281 73.9943 59.6969 75.8113 60.5239C76.107 60.6585 76.1792 61.0868 76.0271 61.3468C75.8494 61.6507 75.501 61.6977 75.2042 61.5626Z" fill="black"/>
<path d="M88.7811 58.2196C88.7481 58.2027 88.7138 58.1879 88.6812 58.1704C88.6078 58.1309 88.7807 58.2068 88.7025 58.1783C88.6399 58.1555 88.5781 58.1318 88.5143 58.1123C88.4507 58.0929 88.3863 58.0763 88.3214 58.0621C88.2853 58.0542 88.2489 58.0482 88.2127 58.0407C88.13 58.0237 88.2084 58.0513 88.241 58.0428C88.1898 58.056 88.0969 58.0289 88.042 58.0264C87.9754 58.0234 87.9087 58.0228 87.8421 58.0247C87.7678 58.0268 87.6941 58.0329 87.6202 58.0401C87.5362 58.0483 87.6163 58.0292 87.6477 58.0364C87.6182 58.0296 87.5669 58.0504 87.5382 58.0561C87.4072 58.0823 87.2782 58.1179 87.1524 58.1628C87.1245 58.1727 87.0971 58.1842 87.0692 58.194C86.9991 58.2185 87.1722 58.1444 87.0698 58.1943C87.0099 58.2236 86.9502 58.2524 86.8919 58.2849C86.8338 58.3172 86.7769 58.3517 86.7215 58.3885C86.6969 58.4048 86.6729 58.4221 86.6485 58.4388C86.5305 58.5196 86.709 58.3841 86.6471 58.4389C86.5408 58.5329 86.4387 58.6257 86.3451 58.7328C86.1373 58.9705 85.7042 58.9612 85.4945 58.7328C85.2619 58.4795 85.2729 58.1357 85.4945 57.8822C86.4472 56.7924 88.1175 56.5302 89.3881 57.1809C89.6687 57.3246 89.7731 57.7413 89.6039 58.0038C89.4194 58.2901 89.0812 58.3732 88.7811 58.2196Z" fill="black"/>
<path d="M88.0177 63.8887C88.4506 64.6414 89.214 65.053 90.0541 64.9194C90.2128 64.8941 90.3734 64.8565 90.5087 64.7698C90.6749 64.6633 90.7887 64.4917 90.8756 64.3144C91.2267 63.5981 91.1896 62.7053 90.7803 62.0206C90.2241 61.0899 88.7508 61.0723 88.1041 61.935C87.69 62.4873 87.6736 63.2903 88.0177 63.8887Z" fill="black"/>
<path d="M88.5373 63.5848C88.5779 63.654 88.6232 63.7583 88.6847 63.8109C88.5766 63.7183 88.6751 63.7975 88.7002 63.8266C88.7285 63.8594 88.7577 63.8914 88.788 63.9224C88.8378 63.9736 88.8914 64.0198 88.9442 64.0677C89.0502 64.1638 88.8363 63.9993 88.9559 64.0764C89.0027 64.1066 89.0479 64.1386 89.0961 64.1668C89.1501 64.1984 89.2327 64.2214 89.2803 64.2616L89.2128 64.2331C89.2384 64.2432 89.2643 64.2528 89.2904 64.2618C89.3295 64.2754 89.3691 64.2876 89.4091 64.2985C89.4492 64.3094 89.4897 64.319 89.5305 64.3272L89.5716 64.335C89.6383 64.3457 89.6266 64.3444 89.5363 64.3313C89.5697 64.3648 89.7463 64.343 89.7919 64.3418C89.8356 64.3407 89.8788 64.3364 89.9224 64.3341C90.0722 64.3263 89.7857 64.3661 89.9421 64.331C89.9975 64.3186 90.1329 64.312 90.1764 64.2723L90.1214 64.2965C90.1504 64.2828 90.1784 64.2673 90.2054 64.25L90.1568 64.2905C90.18 64.2712 90.202 64.2507 90.223 64.229C90.3292 64.1425 90.1709 64.327 90.2429 64.2091C90.2708 64.1633 90.2998 64.1188 90.3252 64.0715C90.3435 64.0372 90.3597 64.002 90.3771 63.9673C90.4472 63.8273 90.343 64.0837 90.3896 63.9343C90.4181 63.8428 90.4495 63.7534 90.4714 63.6598C90.4804 63.621 90.4884 63.582 90.4956 63.5428C90.5028 63.5031 90.5375 63.4066 90.4985 63.5372C90.528 63.4384 90.5157 63.3052 90.5134 63.203C90.5117 63.1266 90.5151 63.0392 90.4967 62.9645C90.5343 63.1173 90.4939 62.9637 90.4884 62.9355C90.4791 62.8886 90.4685 62.842 90.4565 62.7957C90.4349 62.7124 90.4158 62.5958 90.3684 62.5231C90.4313 62.6197 90.3882 62.5656 90.3729 62.535C90.3443 62.4779 90.317 62.4205 90.2853 62.365C90.2653 62.3299 90.2445 62.2952 90.2219 62.2616L90.2012 62.2316C90.1636 62.1804 90.173 62.1925 90.2293 62.2677C90.1954 62.2577 90.1376 62.1673 90.1071 62.1391C90.0835 62.1172 90.0467 62.0956 90.0272 62.0704C90.106 62.1724 90.094 62.1207 90.0355 62.0826C89.9716 62.041 89.9021 62.012 89.8367 61.9738C89.7676 61.9333 89.9828 62.0246 89.8674 61.9879C89.834 61.9773 89.8013 61.9649 89.7676 61.955C89.7 61.935 89.6315 61.9215 89.5623 61.9079C89.4412 61.8842 89.6821 61.9111 89.5998 61.9136C89.571 61.9145 89.5406 61.9087 89.5117 61.9074C89.4286 61.9037 89.3469 61.9088 89.2641 61.9134C89.1345 61.9207 89.4104 61.8839 89.2834 61.9106C89.2603 61.9155 89.2369 61.9192 89.2137 61.9241C89.1444 61.939 89.0759 61.958 89.0089 61.9812C88.9417 62.0044 88.9178 62.0523 89.0206 61.9724C88.9955 61.992 88.9533 62.0036 88.9248 62.0185C88.8614 62.0516 88.8029 62.0905 88.7429 62.1292C88.6361 62.1983 88.845 62.0354 88.752 62.1228C88.7171 62.1557 88.6809 62.1867 88.6475 62.2213C88.6372 62.232 88.5873 62.3014 88.5749 62.3023L88.6236 62.2381C88.6056 62.262 88.5884 62.2865 88.5718 62.3115C88.5471 62.3488 88.524 62.3872 88.5026 62.4265C88.4884 62.4526 88.4749 62.4792 88.462 62.506C88.4344 62.5669 88.4371 62.56 88.4701 62.4855C88.4228 62.5376 88.4098 62.6725 88.3949 62.7426L88.3862 62.7865C88.3751 62.8543 88.3757 62.8453 88.3881 62.7597C88.3686 62.8063 88.3777 62.8889 88.3771 62.9391C88.3764 62.9841 88.3775 63.0291 88.3801 63.0741C88.3818 63.1041 88.3843 63.1341 88.3874 63.1639L88.3775 63.0935C88.3705 63.1865 88.4223 63.3128 88.4512 63.4C88.4611 63.4298 88.4935 63.572 88.4557 63.4243C88.4696 63.4788 88.51 63.536 88.5373 63.5848C88.6906 63.8596 88.6125 64.2538 88.3214 64.4076C88.038 64.5574 87.6623 64.4853 87.4985 64.1918C87.0018 63.3013 87.0737 62.121 87.7969 61.3707C88.3743 60.7716 89.3144 60.5576 90.1041 60.8002C90.5154 60.9266 90.8857 61.1645 91.1494 61.5059C91.4716 61.9229 91.633 62.4225 91.6964 62.9408C91.8185 63.9395 91.3979 65.2755 90.2856 65.4864C89.714 65.5948 89.1618 65.532 88.6354 65.2828C88.1553 65.0556 87.7648 64.6451 87.4985 64.1918C87.3391 63.9203 87.4276 63.5204 87.7143 63.3689C88.0031 63.2163 88.367 63.295 88.5373 63.5848Z" fill="black"/>
<path d="M73.383 66.6954C73.8158 67.4481 74.5792 67.8596 75.4193 67.726C75.5781 67.7008 75.7387 67.6631 75.874 67.5764C76.0401 67.4699 76.1539 67.2983 76.2408 67.1211C76.5919 66.4047 76.5548 65.512 76.1456 64.8272C75.5893 63.8965 74.116 63.8789 73.4693 64.7416C73.0552 65.294 73.0389 66.0969 73.383 66.6954Z" fill="black"/>
<path d="M73.9025 66.3915C73.9431 66.4606 73.9885 66.5649 74.0499 66.6176C73.9418 66.5249 74.0403 66.6042 74.0655 66.6333C74.0938 66.6661 74.123 66.6981 74.1532 66.7291C74.2031 66.7802 74.2566 66.8264 74.3095 66.8743C74.4154 66.9705 74.2015 66.806 74.3211 66.883C74.3679 66.9132 74.4132 66.9452 74.4613 66.9734C74.5154 67.005 74.5979 67.0281 74.6455 67.0682L74.578 67.0397C74.6036 67.0499 74.6295 67.0595 74.6556 67.0685C74.6947 67.082 74.7344 67.0942 74.7743 67.1051C74.8145 67.116 74.855 67.1256 74.8958 67.1338L74.9368 67.1416C75.0036 67.1523 74.9918 67.1511 74.9016 67.138C74.9349 67.1715 75.1116 67.1497 75.1571 67.1485C75.2008 67.1474 75.2441 67.1431 75.2876 67.1408C75.4375 67.1329 75.151 67.1727 75.3074 67.1377C75.3627 67.1253 75.4982 67.1186 75.5416 67.0789L75.4867 67.1031C75.5157 67.0894 75.5437 67.0739 75.5707 67.0567L75.522 67.0972C75.5452 67.0779 75.5673 67.0574 75.5882 67.0356C75.6945 66.9491 75.5361 67.1336 75.6081 67.0157C75.6361 66.9699 75.6651 66.9255 75.6904 66.8781C75.7088 66.8438 75.725 66.8087 75.7423 66.7739C75.8125 66.6339 75.7082 66.8903 75.7548 66.741C75.7833 66.6494 75.8148 66.5601 75.8366 66.4665C75.8457 66.4277 75.8536 66.3887 75.8608 66.3495C75.868 66.3098 75.9028 66.2133 75.8637 66.3439C75.8932 66.2451 75.8809 66.1119 75.8787 66.0097C75.8769 65.9333 75.8803 65.8459 75.8619 65.7712C75.8995 65.9239 75.8592 65.7703 75.8536 65.7421C75.8443 65.6952 75.8337 65.6486 75.8217 65.6023C75.8002 65.5191 75.781 65.4024 75.7337 65.3297C75.7966 65.4263 75.7534 65.3723 75.7381 65.3416C75.7095 65.2845 75.6823 65.2272 75.6506 65.1716C75.6305 65.1365 75.6097 65.1019 75.5872 65.0683L75.5665 65.0383C75.5289 64.9871 75.5382 64.9991 75.5945 65.0744C75.5606 65.0644 75.5028 64.974 75.4723 64.9457C75.4487 64.9239 75.4119 64.9022 75.3924 64.877C75.4713 64.9791 75.4592 64.9273 75.4007 64.8893C75.3368 64.8477 75.2673 64.8186 75.202 64.7804C75.1328 64.74 75.348 64.8313 75.2326 64.7946C75.1992 64.784 75.1665 64.7716 75.1329 64.7616C75.0652 64.7416 74.9967 64.7281 74.9275 64.7146C74.8064 64.6909 75.0473 64.7177 74.965 64.7203C74.9363 64.7212 74.9058 64.7154 74.8769 64.7141C74.7939 64.7104 74.7122 64.7154 74.6293 64.7201C74.4997 64.7273 74.7756 64.6905 74.6486 64.7173C74.6255 64.7222 74.6021 64.7258 74.579 64.7308C74.5096 64.7456 74.4412 64.7646 74.3741 64.7878C74.307 64.811 74.2831 64.8589 74.3858 64.779C74.3607 64.7986 74.3186 64.8102 74.29 64.8251C74.2266 64.8582 74.1681 64.8971 74.1082 64.9359C74.0014 65.005 74.2102 64.842 74.1173 64.9294C74.0823 64.9623 74.0461 64.9933 74.0127 65.0279C74.0024 65.0386 73.9525 65.108 73.9401 65.109L73.9888 65.0447C73.9709 65.0687 73.9536 65.0931 73.9371 65.1181C73.9123 65.1555 73.8893 65.1938 73.8678 65.2331C73.8536 65.2593 73.8401 65.2858 73.8273 65.3127C73.7996 65.3735 73.8023 65.3667 73.8354 65.2921C73.7881 65.3442 73.775 65.4792 73.7602 65.5492L73.7514 65.5931C73.7403 65.6609 73.7409 65.652 73.7533 65.5663C73.7338 65.6129 73.743 65.6956 73.7423 65.7457C73.7417 65.7907 73.7427 65.8358 73.7453 65.8807C73.7471 65.9108 73.7495 65.9407 73.7527 65.9706L73.7428 65.9001C73.7357 65.9931 73.7875 66.1194 73.8165 66.2066C73.8264 66.2364 73.8587 66.3787 73.8209 66.2309C73.8348 66.2854 73.8753 66.3427 73.9025 66.3915C74.0558 66.6662 73.9778 67.0604 73.6867 67.2142C73.4032 67.364 73.0275 67.2919 72.8638 66.9985C72.367 66.108 72.4389 64.9277 73.1621 64.1774C73.7395 63.5783 74.6797 63.3642 75.4693 63.6069C75.8807 63.7332 76.2509 63.9711 76.5146 64.3125C76.8368 64.7296 76.9982 65.2292 77.0616 65.7474C77.1838 66.7462 76.7631 68.0821 75.6508 68.2931C75.0793 68.4015 74.5271 68.3386 74.0007 68.0895C73.5206 67.8622 73.13 67.4517 72.8638 66.9985C72.7043 66.727 72.7928 66.3271 73.0795 66.1756C73.3683 66.023 73.7323 66.1016 73.9025 66.3915Z" fill="black"/>
<path d="M268.302 21.5626C270.438 18.3855 272.362 15.0657 274.056 11.6325C272.313 10.7469 270.449 10.1008 268.533 9.71777C268.438 14.325 268.009 18.9252 267.25 23.4704C267.822 22.5419 268.395 21.6134 268.968 20.6849" fill="#FF5A48"/>
<path d="M267.523 21.1072C269.657 17.9273 271.579 14.61 273.277 11.1771C273.385 11.5885 273.492 12 273.6 12.4114C271.92 11.5643 270.136 10.9624 268.293 10.5877L269.435 9.71771C269.335 14.4071 268.889 19.0834 268.119 23.7101C267.57 23.4784 267.02 23.2467 266.471 23.015C267.043 22.0865 267.616 21.158 268.189 20.2295C268.798 19.2432 270.359 20.1483 269.747 21.1402C269.174 22.0687 268.601 22.9972 268.029 23.9256C267.794 24.3056 267.316 24.4767 266.902 24.2948C266.464 24.1022 266.304 23.6874 266.38 23.2305C267.123 18.7629 267.534 14.2454 267.63 9.71774C267.643 9.10172 268.194 8.73029 268.772 8.8478C270.768 9.25335 272.693 9.937 274.511 10.8534C274.967 11.0834 275.04 11.6732 274.835 12.0877C273.137 15.5206 271.215 18.838 269.081 22.0178C268.81 22.4219 268.286 22.5983 267.847 22.3415C267.446 22.1069 267.25 21.5136 267.523 21.1072Z" fill="#FF5A48"/>
<path d="M243.664 8.4528C244.12 8.20029 254.182 19.688 255.033 20.7214C253.653 15.4994 252.093 10.7936 249.858 5.88401C249.762 5.67425 249.634 5.43866 249.407 5.39763C249.245 5.36842 249.087 5.4507 248.943 5.53024C247.183 6.50443 245.424 7.47865 243.664 8.4528Z" fill="#FF5A48"/>
<path d="M243.209 7.67385C244.11 7.28009 244.812 8.13702 245.395 8.71266C246.272 9.57791 247.11 10.4831 247.945 11.3885C249.97 13.5843 251.955 15.8173 253.923 18.0638C254.51 18.7331 255.105 19.3974 255.671 20.0836L254.164 20.9613C253.432 18.2 252.619 15.4598 251.666 12.7661C251.198 11.4409 250.696 10.1273 250.161 8.82774C249.899 8.19301 249.627 7.56258 249.348 6.93554C249.279 6.78084 249.21 6.62617 249.139 6.47203C249.132 6.45572 249.04 6.29519 249.036 6.24854C249.028 6.16509 248.996 6.19777 249.012 6.17818L249.26 6.21451C249.521 6.20259 249.585 6.22446 249.454 6.28005C249.404 6.34381 249.274 6.37824 249.201 6.41884C249.003 6.52842 248.805 6.63803 248.607 6.74761C247.111 7.57567 245.615 8.40373 244.12 9.23175C243.103 9.79465 242.192 8.23702 243.209 7.67385C244.661 6.87015 246.112 6.06635 247.564 5.26268C248.286 4.86293 249.156 4.17894 249.994 4.67187C250.642 5.05316 250.885 5.97078 251.168 6.61923C252.419 9.48679 253.509 12.4199 254.445 15.405C254.972 17.0852 255.453 18.7795 255.903 20.4816C256.12 21.2978 254.995 22.0846 254.396 21.3593C253.116 19.81 251.757 18.3203 250.422 16.8192C248.536 14.6984 246.647 12.5719 244.665 10.5389C244.323 10.1873 243.978 9.83651 243.614 9.50598C243.552 9.44898 243.489 9.39232 243.424 9.33756C243.397 9.31437 243.368 9.29223 243.341 9.26858C243.224 9.16563 243.438 9.34014 243.432 9.33833C243.39 9.32408 243.359 9.27521 243.315 9.26013C243.194 9.21803 243.511 9.33516 243.477 9.32561C243.669 9.37936 243.876 9.33854 244.12 9.23175C243.674 9.42671 243.152 9.36293 242.886 8.90811C242.662 8.52581 242.76 7.86998 243.209 7.67385Z" fill="#FF5A48"/>
<path d="M285.662 35.9553C283.201 38.0509 276.919 35.7797 274.185 35.7892C276.021 34.0416 278.437 33.0623 280.79 32.1219C282.239 31.5432 283.688 30.9644 285.136 30.3856C285.263 30.3349 285.396 30.2833 285.532 30.2972C285.925 30.3374 286.053 30.8403 286.072 31.2346C286.14 32.6436 286.072 34.0591 285.867 35.4549C285.841 35.6373 285.803 35.8357 285.662 35.9553Z" fill="#FF5A48"/>
<path d="M286.301 36.5931C285.012 37.6602 283.296 37.8144 281.682 37.724C279.883 37.6231 278.111 37.2469 276.339 36.9395C276.132 36.9035 275.925 36.8686 275.717 36.8358C275.618 36.8202 275.519 36.805 275.42 36.7906C275.365 36.7825 275.309 36.7746 275.254 36.7671C275.342 36.779 275.339 36.7774 275.253 36.7678C274.898 36.7277 274.543 36.6923 274.186 36.6913C273.423 36.6892 272.97 35.6943 273.548 35.1512C275.47 33.3443 277.895 32.3154 280.311 31.3477C281.652 30.8105 282.994 30.2756 284.336 29.7396C285.045 29.4563 285.846 29.1526 286.462 29.8111C286.922 30.3026 286.97 30.9744 286.989 31.6121C287.015 32.4429 286.994 33.2753 286.925 34.1036C286.856 34.9251 286.881 35.9503 286.301 36.5931C285.974 36.9548 285.357 36.9254 285.025 36.5931C284.665 36.2335 284.697 35.6799 285.025 35.3173C284.948 35.4731 284.933 35.4759 284.98 35.3256C284.994 35.2391 285.008 35.1524 285.019 35.0654C285.042 34.8957 285.06 34.7253 285.078 34.5551C285.12 34.1542 285.151 33.7522 285.17 33.3496C285.19 32.9471 285.198 32.544 285.195 32.141C285.194 31.9395 285.19 31.738 285.183 31.5365C285.179 31.4358 285.175 31.3352 285.17 31.2345C285.161 31.1256 285.161 31.1111 285.17 31.1911C285.158 31.1276 285.143 31.0652 285.123 31.0037C285.133 31.0398 285.154 31.0675 285.186 31.087C285.282 31.1586 285.388 31.1986 285.505 31.2069C285.415 31.24 285.325 31.2749 285.236 31.3115C284.862 31.459 284.488 31.6102 284.115 31.7596C283.39 32.049 282.666 32.3383 281.942 32.6277C279.455 33.6211 276.809 34.5607 274.823 36.4271C274.611 35.9138 274.398 35.4004 274.186 34.887C275.083 34.8895 275.983 35.0539 276.864 35.2075C277.913 35.3903 278.958 35.5953 280.012 35.7486C280.871 35.8737 282.023 35.9835 283.012 35.9244C283.132 35.9172 283.251 35.9045 283.371 35.8953C283.481 35.882 283.488 35.8821 283.393 35.8954C283.45 35.8874 283.506 35.8786 283.563 35.869C283.782 35.8319 283.999 35.7834 284.211 35.719C284.312 35.6882 284.412 35.6523 284.512 35.6157C284.319 35.6863 284.613 35.5669 284.648 35.5485C284.738 35.502 284.822 35.4486 284.909 35.3975C284.951 35.3705 284.992 35.3425 285.032 35.3134C284.949 35.3803 284.946 35.3816 285.025 35.3173C285.4 35.0068 285.933 34.95 286.301 35.3173C286.62 35.6371 286.678 36.2809 286.301 36.5931Z" fill="#FF5A48"/>
<path d="M240.158 119.735C241.067 117.409 240.918 115.404 241.333 113.014C241.588 111.547 243.871 106.66 243.423 105.493C245.244 110.228 245.842 115.29 247.454 120.127C245.158 120.253 242.862 120.379 240.565 120.504C240.44 120.511 240.304 120.515 240.201 120.444C239.991 120.298 240.065 119.974 240.158 119.735Z" fill="#FF5A48"/>
<path d="M239.288 119.496C239.769 118.241 239.979 116.941 240.113 115.611C240.224 114.504 240.274 113.347 240.585 112.274C241.058 110.64 241.764 109.081 242.251 107.45C242.375 107.036 242.468 106.62 242.558 106.198C242.587 106.064 242.55 106.364 242.566 106.134C242.572 106.062 242.578 105.99 242.579 105.917C242.579 105.862 242.543 105.635 242.582 105.803C242.622 105.979 242.568 105.775 242.553 105.733C242.391 105.274 242.737 104.746 243.183 104.623C243.691 104.484 244.118 104.797 244.293 105.254C246.104 109.996 246.732 115.078 248.324 119.888C248.518 120.474 248.008 120.999 247.454 121.03C245.847 121.118 244.239 121.206 242.632 121.294C241.876 121.335 241.067 121.464 240.314 121.395C239.328 121.305 238.984 120.338 239.288 119.496C239.454 119.038 239.902 118.729 240.398 118.866C240.84 118.987 241.194 119.515 241.028 119.975C241.004 120.038 240.983 120.101 240.966 120.166C240.981 119.999 240.915 119.848 240.769 119.714L240.314 119.591C240.889 119.659 241.519 119.55 242.096 119.519C242.683 119.486 243.27 119.454 243.857 119.422C245.056 119.357 246.255 119.291 247.454 119.225L246.584 120.367C244.992 115.558 244.365 110.476 242.553 105.733C243.133 105.573 243.713 105.413 244.293 105.254C244.525 105.915 244.313 106.73 244.145 107.38C243.919 108.253 243.614 109.105 243.308 109.952C243.012 110.771 242.697 111.584 242.43 112.414C242.137 113.323 242.051 114.266 241.957 115.213C241.796 116.834 241.615 118.444 241.028 119.975C240.854 120.43 240.421 120.744 239.918 120.606C239.483 120.486 239.113 119.953 239.288 119.496Z" fill="#FF5A48"/>
<path d="M229.562 117.321C228.023 116.478 227.459 114.57 225.465 114.189C226.123 111.019 231.504 109.604 234.106 108.651C232.609 109.198 230.538 116.107 230.036 117.532C229.868 117.473 229.71 117.402 229.562 117.321Z" fill="#FF5A48"/>
<path d="M229.106 118.1C228.32 117.655 227.742 116.984 227.142 116.326C226.543 115.669 226.068 115.235 225.224 115.06C224.73 114.957 224.495 114.401 224.594 113.95C225.027 111.99 226.826 110.703 228.516 109.853C230.231 108.989 232.067 108.437 233.866 107.782C234.324 107.616 234.854 107.97 234.976 108.412C235.117 108.924 234.801 109.343 234.346 109.522C234.434 109.487 234.522 109.402 234.433 109.493C234.413 109.513 234.256 109.626 234.393 109.514C234.521 109.408 234.393 109.517 234.367 109.545C234.323 109.592 234.276 109.637 234.232 109.686C234.197 109.725 234.165 109.767 234.13 109.807C234.119 109.819 234.229 109.666 234.116 109.831C234.038 109.946 233.962 110.06 233.89 110.178C233.522 110.779 233.226 111.422 232.947 112.067C232.929 112.107 232.912 112.147 232.895 112.187C232.903 112.17 232.941 112.077 232.901 112.174C232.861 112.27 232.822 112.365 232.783 112.461C232.71 112.641 232.638 112.822 232.568 113.003C232.421 113.38 232.28 113.758 232.142 114.139C231.895 114.822 231.66 115.509 231.43 116.198C231.255 116.723 231.089 117.251 230.906 117.773C230.756 118.201 230.278 118.583 229.796 118.403C229.561 118.315 229.329 118.217 229.106 118.1C228.077 117.563 228.988 116.005 230.017 116.542C230.103 116.587 230.186 116.629 230.276 116.663C229.906 116.873 229.536 117.083 229.166 117.293C229.584 116.099 229.957 114.891 230.387 113.701C230.934 112.186 231.499 110.614 232.349 109.238C232.731 108.621 233.175 108.055 233.866 107.782C234.026 108.362 234.186 108.942 234.346 109.522C233.586 109.799 232.816 110.048 232.055 110.32C231.142 110.646 230.417 110.925 229.597 111.326C229.189 111.526 228.788 111.742 228.402 111.982C227.972 112.251 227.753 112.408 227.443 112.687C227.297 112.818 227.157 112.956 227.026 113.101C227.004 113.126 226.792 113.381 226.907 113.232C226.842 113.317 226.781 113.405 226.723 113.494C226.624 113.648 226.536 113.81 226.461 113.977C226.546 113.789 226.425 114.089 226.413 114.126C226.382 114.226 226.357 114.327 226.334 114.429C226.124 114.06 225.914 113.69 225.704 113.32C226.704 113.528 227.53 114.11 228.224 114.84C228.519 115.151 228.794 115.481 229.091 115.79C229.425 116.138 229.633 116.325 230.017 116.542C231.027 117.115 230.119 118.674 229.106 118.1Z" fill="#FF5A48"/>
<path d="M253.875 98.252C256.521 99.5767 259.127 101.044 261.571 102.715C262.717 103.499 264.163 104.239 264.987 105.364C264.174 106.214 263.36 107.065 262.546 107.915C262.426 107.317 262.033 106.816 261.644 106.346C260.485 104.943 259.313 103.552 257.942 102.378C257.223 101.763 256.61 100.967 255.945 100.291C255.363 99.7002 254.615 98.6222 253.875 98.252Z" fill="#FF5A48"/>
<path d="M254.331 97.473C256.47 98.5466 258.571 99.701 260.59 100.988C261.514 101.577 262.423 102.19 263.342 102.788C264.257 103.385 265.104 104.032 265.766 104.909C266.007 105.228 265.879 105.737 265.625 106.002C264.811 106.852 263.998 107.703 263.184 108.553C262.725 109.032 261.83 108.813 261.676 108.155C261.569 107.701 261.298 107.34 261.006 106.984C260.651 106.552 260.292 106.122 259.927 105.698C259.186 104.838 258.414 104.001 257.565 103.245C256.743 102.511 256.032 101.69 255.273 100.894C254.681 100.273 254.145 99.4198 253.42 99.031C252.397 98.4817 253.307 96.9235 254.331 97.473C255.24 97.9607 255.823 98.852 256.515 99.5832C257.315 100.429 258.081 101.279 258.944 102.062C259.821 102.856 260.618 103.735 261.385 104.635C262.154 105.538 263.136 106.484 263.416 107.675L261.908 107.277C262.722 106.427 263.536 105.577 264.349 104.726C264.302 105.091 264.255 105.455 264.208 105.82C263.672 105.11 262.857 104.617 262.12 104.146C261.219 103.571 260.341 102.963 259.437 102.393C257.492 101.167 255.474 100.062 253.42 99.031C252.985 98.8125 252.862 98.198 253.096 97.7967C253.356 97.3536 253.894 97.2537 254.331 97.473Z" fill="#FF5A48"/>
</svg>
