<svg width="287" height="256" viewBox="0 0 287 256" fill="none" xmlns="http://www.w3.org/2000/svg">
<g clip-path="url(#clip0_3063_4339)">
<path d="M256.415 13H179.859V124.818H256.415V13Z" fill="#FF5A48"/>
<path d="M246.149 37.7501V133.507H169.594V21.6895H232.304L246.149 37.7501Z" fill="#83A2FF"/>
<path d="M181.884 76.9736H224.483C227.502 76.9736 230.522 76.9736 233.542 76.9736H234.443C235.451 76.9736 235.453 75.4072 234.443 75.4072H214.802C210.86 75.4072 206.918 75.4072 202.976 75.4072H181.884C180.877 75.4072 180.875 76.9736 181.884 76.9736Z" fill="white"/>
<path d="M181.884 84.8056H213.352C217.062 84.8056 220.772 84.8056 224.483 84.8056H234.443C235.451 84.8056 235.453 83.2393 234.443 83.2393C231.546 83.2393 228.648 83.2393 225.751 83.2393H191.845C188.825 83.2393 185.806 83.2393 182.786 83.2393H181.884C180.877 83.2393 180.875 84.8056 181.884 84.8056Z" fill="white"/>
<path d="M181.884 92.6367H201.526C205.468 92.6367 209.41 92.6367 213.352 92.6367H234.443C235.451 92.6367 235.453 91.0703 234.443 91.0703H225.751C222.101 91.0703 218.451 91.0703 214.802 91.0703H181.884C180.877 91.0703 180.875 92.6367 181.884 92.6367Z" fill="white"/>
<path d="M181.884 100.469C184.782 100.469 187.68 100.469 190.577 100.469H234.443C235.451 100.469 235.453 98.9023 234.443 98.9023H214.802C210.86 98.9023 206.918 98.9023 202.976 98.9023H181.884C180.877 98.9023 180.875 100.469 181.884 100.469Z" fill="white"/>
<path d="M181.884 108.301H224.483C227.502 108.301 230.522 108.301 233.542 108.301H234.443C235.451 108.301 235.453 106.734 234.443 106.734C231.546 106.734 228.648 106.734 225.751 106.734H202.976C199.266 106.734 195.555 106.734 191.845 106.734H181.884C180.877 106.734 180.875 108.301 181.884 108.301Z" fill="white"/>
<path d="M204.161 116.132C211.837 116.132 219.513 116.132 227.189 116.132H234.443C235.451 116.132 235.453 114.565 234.443 114.565C226.767 114.565 219.091 114.565 211.415 114.565H204.161C203.153 114.565 203.151 116.132 204.161 116.132Z" fill="white"/>
<path d="M167.497 79.8275C181.146 79.8275 192.21 68.7631 192.21 55.1145C192.21 41.4658 181.146 30.4014 167.497 30.4014C153.849 30.4014 142.784 41.4658 142.784 55.1145C142.784 68.7631 153.849 79.8275 167.497 79.8275Z" fill="#4367F5"/>
<path d="M167.497 72.6052C177.157 72.6052 184.988 64.7744 184.988 55.1146C184.988 45.4548 177.157 37.624 167.497 37.624C157.838 37.624 150.007 45.4548 150.007 55.1146C150.007 64.7744 157.838 72.6052 167.497 72.6052Z" fill="white"/>
<path d="M163.611 79.2188H171.269V107.413C171.269 109.526 169.553 111.241 167.44 111.241C165.327 111.241 163.611 109.526 163.611 107.413V79.2188Z" fill="#4367F5"/>
<path d="M168.795 88.0765C168.737 86.5014 168.32 84.6027 169.742 83.4845C170.394 82.9715 171.162 82.8396 171.965 82.8396H177.016C177.534 82.8396 178.088 82.7929 178.602 82.8684C179.795 83.0433 180.85 83.9404 181.059 85.1514C181.166 85.7755 181.091 86.4677 181.091 87.097C181.091 87.9425 181.104 88.7891 181.091 89.6346C181.07 90.9546 179.952 91.8619 178.679 91.8875C177.672 91.9077 177.67 93.4335 178.679 93.4538C179.915 93.4786 181.091 94.371 181.091 95.6806C181.091 96.9903 179.915 97.8827 178.679 97.9075C177.672 97.9277 177.67 99.4536 178.679 99.4738C179.915 99.4986 181.091 100.391 181.091 101.701C181.091 103.01 179.915 103.903 178.679 103.927C177.672 103.948 177.67 105.474 178.679 105.494C179.777 105.516 180.843 106.207 181.056 107.336C181.258 108.406 180.558 109.405 179.567 109.774C179.097 109.949 178.625 109.947 178.135 109.956L176.327 109.987C173.747 110.032 171.168 110.091 168.588 110.121C168.129 110.126 167.668 110.193 167.233 110.344C166.183 110.709 165.338 111.407 164.691 112.302C163.658 113.73 163.272 115.552 163.104 117.275C162.8 120.392 163.262 123.584 163.874 126.636C164.931 131.915 166.64 137.06 168.525 142.093C169.357 144.313 170.272 146.477 170.764 148.805C171.143 150.598 171.31 152.407 171.278 154.259C171.217 157.898 170.34 161.546 168.734 164.825C167.078 168.206 164.699 171.181 161.775 173.552C158.651 176.085 154.925 177.827 151.023 178.761C146.387 179.872 141.518 179.832 136.842 178.981C134.136 178.488 131.334 177.826 128.816 176.702C126.492 175.664 124.231 174.479 122.08 173.116C118.485 170.837 115.224 168.037 112.568 164.702C110.294 161.845 108.512 158.571 107.291 155.171C106.125 151.923 105.409 148.464 105.065 145.117C104.725 141.797 104.696 138.452 104.839 135.121C104.97 132.064 105.25 129.018 105.539 125.974C105.781 123.429 106.05 120.877 106.098 118.319C106.133 116.471 106.103 114.471 105.425 112.724C105.144 112 104.766 111.325 104.209 110.775C103.49 110.067 102.382 111.174 103.101 111.883C103.158 111.939 103.214 111.997 103.268 112.056C103.304 112.096 103.474 112.307 103.384 112.19C103.29 112.07 103.45 112.284 103.477 112.324C103.527 112.398 103.575 112.474 103.621 112.551C103.709 112.7 103.784 112.854 103.859 113.01C103.879 113.049 103.895 113.091 103.913 113.131C103.926 113.16 103.846 112.951 103.9 113.104C103.933 113.197 103.971 113.288 104.003 113.382C104.136 113.768 104.234 114.166 104.31 114.568C104.33 114.672 104.348 114.776 104.365 114.88C104.373 114.934 104.381 114.987 104.389 115.04C104.422 115.235 104.38 114.956 104.394 115.065C104.421 115.291 104.446 115.517 104.465 115.744C104.659 118.042 104.47 120.37 104.277 122.662C104.03 125.575 103.714 128.481 103.495 131.396C103.25 134.681 103.116 137.979 103.236 141.272C103.364 144.782 103.776 148.298 104.616 151.711C105.496 155.289 106.866 158.762 108.759 161.927C110.853 165.429 113.574 168.539 116.711 171.142C118.522 172.646 120.458 173.999 122.483 175.2C123.568 175.844 124.679 176.445 125.809 177.009C127.055 177.63 128.331 178.272 129.652 178.72C134.714 180.433 140.1 181.404 145.455 181.124C149.897 180.892 154.285 179.797 158.234 177.731C161.786 175.873 164.891 173.242 167.328 170.063C169.652 167.032 171.322 163.484 172.173 159.759C173.033 155.995 173.067 152.066 172.253 148.29C171.741 145.912 170.788 143.696 169.941 141.425C168.877 138.57 167.887 135.686 167.027 132.763C165.872 128.838 164.877 124.798 164.633 120.764C164.555 119.474 164.571 118.186 164.711 116.9C164.735 116.68 164.702 116.95 164.719 116.831C164.727 116.776 164.735 116.722 164.743 116.668C164.763 116.537 164.785 116.406 164.809 116.275C164.852 116.039 164.902 115.803 164.959 115.569C165.061 115.157 165.189 114.752 165.342 114.356C165.356 114.319 165.372 114.282 165.387 114.245C165.428 114.141 165.301 114.426 165.385 114.252C165.423 114.173 165.457 114.092 165.496 114.012C165.571 113.858 165.652 113.706 165.74 113.557C165.82 113.42 165.906 113.286 165.998 113.156C166.04 113.097 166.084 113.039 166.127 112.981C165.983 113.18 166.094 113.023 166.163 112.941C166.332 112.743 166.516 112.562 166.712 112.392C166.756 112.353 166.803 112.319 166.847 112.281C166.691 112.415 166.747 112.354 166.854 112.282C166.945 112.22 167.036 112.159 167.131 112.102C167.22 112.05 167.31 112.002 167.403 111.956C167.442 111.937 167.482 111.92 167.521 111.901C167.701 111.81 167.341 111.961 167.485 111.916C167.645 111.866 167.799 111.802 167.962 111.761C168.052 111.738 168.281 111.739 168.35 111.685C168.219 111.788 168.118 111.702 168.31 111.694C168.352 111.693 168.394 111.688 168.436 111.687C170.042 111.63 171.655 111.634 173.263 111.606C174.824 111.579 176.386 111.552 177.947 111.525C178.394 111.517 178.838 111.52 179.282 111.454C180.531 111.267 181.73 110.465 182.282 109.312C182.84 108.145 182.766 106.727 182.015 105.657C181.244 104.558 180.013 103.954 178.679 103.927V105.494C180.766 105.452 182.653 103.872 182.657 101.701C182.661 99.5294 180.76 97.9492 178.679 97.9075V99.4738C180.766 99.432 182.653 97.852 182.657 95.6807C182.661 93.5094 180.76 91.9292 178.679 91.8875V93.4538C180.32 93.4209 181.832 92.4845 182.426 90.9253C182.743 90.0922 182.657 89.1534 182.657 88.2778C182.657 87.4008 182.663 86.5237 182.657 85.6468C182.649 84.2563 182.007 82.9987 180.891 82.17C179.293 80.9838 177.151 81.2733 175.277 81.2733H172.365C171.485 81.2733 170.638 81.3016 169.81 81.654C168.248 82.3182 167.128 83.8585 167.136 85.5805C167.14 86.4116 167.198 87.2458 167.229 88.0765C167.267 89.0814 168.833 89.0862 168.795 88.0765Z" fill="black"/>
<path d="M164.676 88.0762C164.591 86.2501 163.568 84.4303 162.262 83.2016C159.947 81.0225 157.06 80.4837 154.08 81.4322C149.098 83.0178 144.509 86.8397 141.513 91.0462C136.791 97.6757 136.281 106.003 135.633 113.845C135.209 118.969 134.926 124.106 134.786 129.246C134.656 133.998 134.366 138.9 135.028 143.622C135.297 145.548 135.703 147.63 136.731 149.313C137.303 150.249 138.215 151.274 139.397 151.324C142.806 151.47 142.134 145.558 141.614 143.658C141.067 141.659 140.113 139.803 139.355 137.881C138.496 135.701 138.078 133.418 137.718 131.111C136.966 126.29 136.993 121.495 136.951 116.634C136.875 107.919 136.248 98.9579 132.72 90.8723C130.877 86.6472 128.32 82.6691 125.41 79.1029C123.926 77.2853 122.36 75.5373 120.872 73.7234C120.086 72.7647 119.323 71.788 118.599 70.7809C118.148 70.1531 117.704 69.4011 116.878 69.2463C115.628 69.0119 114.627 70.3695 115.462 71.4072C116.161 72.2762 117.605 72.3874 118.628 72.4878C122.076 72.8262 125.618 71.7372 128.421 69.7311C130.049 68.5665 131.435 67.1378 132.613 65.5235C133.225 64.6845 133.807 63.8161 134.344 62.9267C134.625 62.4595 134.845 61.8979 135.159 61.4576C135.564 60.8904 136.318 60.9691 136.939 60.7865C138.956 60.1942 137.835 57.9171 137.497 56.4655C136.924 54.0053 137.545 51.7232 137.715 49.2605C137.883 46.8257 137.687 44.3377 137.358 41.9244C137.066 39.7909 136.741 37.5453 135.86 35.5638C134.391 32.2587 131.381 29.9754 128.155 28.5254C121.176 25.388 113.046 25.6245 106.24 29.1158C102.82 30.8704 99.8034 33.4298 97.519 36.5213C95.53 39.213 94.545 42.2587 94.0043 45.5246C93.0387 51.3575 93.169 57.9873 89.4288 62.9167C88.4284 64.2352 87.1723 65.3505 85.7723 66.2283C84.5822 66.9746 83.3333 67.5645 82.1979 68.4029C79.8207 70.1583 77.7229 72.2737 75.7443 74.4597C72.1724 78.4061 68.9313 82.6696 65.9018 87.0434C64.7127 88.7603 63.7377 90.59 62.7926 92.4543C60.8087 96.368 59.1145 100.431 57.6958 104.583C54.8068 113.037 53.0678 121.872 52.3247 130.77C51.5826 139.656 51.8104 148.675 53.1637 157.493C54.4818 166.082 57.0194 174.892 61.8528 182.206C65.7164 188.053 72.0963 191.527 78.6588 193.517C85.9002 195.714 93.6683 196.398 101.208 196.238C110.457 196.042 119.627 194.461 128.681 192.66C130.746 192.249 133.605 191.789 135.054 190.093C136.816 188.031 134.198 185.719 132.217 185.311C128.962 184.639 125.559 185.964 122.471 186.841C117.789 188.171 113.011 189.158 108.193 189.84C98.4938 191.212 88.63 191.317 78.873 190.575C73.8672 190.195 68.9023 189.567 63.9627 188.671C58.9766 187.766 54.0199 186.663 49.0064 185.915C45.734 185.426 42.4897 185.774 39.6476 187.567C36.517 189.542 34.2833 192.616 32.0535 195.498C26.6889 202.431 21.3825 209.51 17.4478 217.377C15.5305 221.211 13.9424 225.227 12.9101 229.392C12.1335 232.525 10.5236 237.829 13.631 240.223C16.8507 242.704 21.9289 240.021 24.901 238.371C28.9662 236.114 32.8276 233.739 37.3771 232.55C42.0869 231.319 46.6145 231.543 51.2494 232.955C53.4003 233.611 55.5046 234.407 57.6388 235.114C59.8266 235.837 62.0658 236.373 64.2792 237.009C68.9734 238.36 73.6087 239.922 78.3576 241.078C82.9966 242.207 87.7335 242.775 92.4855 243.171C102.096 243.973 111.786 243.835 121.369 242.75C130.952 241.666 140.433 239.656 149.611 236.68C157.785 234.03 165.825 230.661 173.023 225.922C180.006 221.325 186.114 215.317 190.591 208.235C194.819 201.545 196.938 193.813 195.46 185.936C194.259 179.539 190.74 173.502 185.312 169.799C180.41 166.453 174.39 165.53 168.571 166.063C167.575 166.154 167.565 167.721 168.571 167.629C174.249 167.109 180.029 167.986 184.768 171.322C187.907 173.532 190.312 176.658 191.956 180.103C192.806 181.883 193.402 183.742 193.812 185.667C195.422 193.227 193.434 200.693 189.415 207.161C185.21 213.931 179.413 219.741 172.815 224.181C166.072 228.721 158.567 232.01 150.887 234.609C133.736 240.414 115.503 242.832 97.4282 241.934C92.8892 241.708 88.3148 241.341 83.8271 240.608C79.3905 239.883 75.0661 238.623 70.7707 237.321C66.5495 236.042 62.2399 234.988 58.0552 233.603C54.101 232.294 50.2084 230.683 46.0346 230.223C41.8962 229.766 37.6152 230.609 33.7469 232.067C29.802 233.553 26.3841 235.922 22.6397 237.8C20.7783 238.733 18.571 239.698 16.4417 239.586C14.0574 239.46 13.3351 237.512 13.4351 235.404C13.6224 231.453 14.9473 227.365 16.3509 223.697C19.3232 215.93 23.9664 208.906 28.8813 202.247C31.2683 199.014 33.6565 195.719 36.2934 192.683C38.3183 190.352 40.6911 188.22 43.7804 187.514C45.5016 187.12 47.2662 187.218 48.9969 187.489C51.299 187.85 53.5905 188.281 55.8788 188.719C60.4548 189.596 65.0232 190.53 69.6398 191.174C78.5667 192.418 87.6622 192.862 96.6663 192.457C105.718 192.049 114.757 190.717 123.465 188.185C126.149 187.405 129.606 185.995 132.393 186.979C133.09 187.226 134.495 188.149 133.908 189.034C133.413 189.78 132.124 190.137 131.334 190.39C128.754 191.215 125.988 191.6 123.335 192.09C118.619 192.962 113.88 193.72 109.106 194.188C101.24 194.959 93.2319 194.92 85.4348 193.517C78.9608 192.352 72.2716 190.232 67.1958 185.883C64.4151 183.501 62.4905 180.523 60.8367 177.284C58.9279 173.545 57.4959 169.581 56.4198 165.527C54.2633 157.404 53.4848 148.926 53.4848 140.539C53.4849 132.107 54.3809 123.673 56.2501 115.448C58.1019 107.3 60.9057 99.3488 64.8127 91.9547C66.568 88.6328 68.7424 85.6463 71.0139 82.6561C74.4382 78.1483 78.1301 73.5071 82.6338 70.0234C84.8308 68.324 87.4243 67.3238 89.4053 65.3199C91.4168 63.2852 92.7264 60.7049 93.5293 57.9792C95.1007 52.6445 94.7334 46.9 96.5433 41.6311C98.9168 34.7211 106.087 29.8144 113.012 28.3604C116.564 27.6143 120.288 27.7032 123.798 28.629C127.15 29.5128 130.604 31.1005 132.898 33.7804C134.132 35.2224 134.795 36.8823 135.202 38.7162C135.735 41.113 136.058 43.5511 136.157 46.0044C136.252 48.336 135.953 50.538 135.708 52.8469C135.481 54.9849 136.099 56.7415 136.466 58.81C136.531 59.1762 136.565 59.137 136.316 59.3216C136.126 59.4623 135.726 59.4498 135.489 59.5034C135.155 59.579 134.821 59.6478 134.526 59.8305C133.766 60.3021 133.435 61.3997 132.991 62.1362C131.939 63.8816 130.756 65.5767 129.282 66.9936C126.707 69.4689 123.146 71.1265 119.527 70.982C118.95 70.959 118.368 70.916 117.799 70.804C117.552 70.7552 117.291 70.7062 117.055 70.6138C116.707 70.4775 116.456 70.1573 116.792 70.9516C117.137 71.7653 117.995 72.5986 118.539 73.2978C119.262 74.2283 120.012 75.138 120.771 76.039C123.654 79.4591 126.494 82.8092 128.776 86.6762C130.941 90.3451 132.562 94.2027 133.569 98.3455C134.56 102.424 135.015 106.61 135.225 110.796C135.436 114.998 135.278 119.201 135.422 123.403C135.572 127.765 135.957 132.483 137.263 136.669C138.42 140.381 141.115 144.07 140.389 148.134C140.209 149.142 139.761 150.31 138.719 149.335C137.462 148.159 137.06 146.117 136.751 144.508C135.916 140.156 136.217 135.553 136.307 131.147C136.405 126.358 136.627 121.572 136.971 116.794C137.295 112.3 137.578 107.739 138.367 103.297C138.961 99.9487 139.948 96.663 141.66 93.7078C144.196 89.3282 148.245 85.7172 152.84 83.59C155.557 82.3326 158.29 81.9802 160.764 83.966C161.984 84.945 163.044 86.6772 163.11 88.0762C163.157 89.0798 164.724 89.0855 164.676 88.0762Z" fill="black"/>
<path d="M175.063 87.293H169.928C167.198 87.293 164.469 87.293 161.74 87.293H159.854C158.846 87.293 158.845 88.8593 159.854 88.8593H175.063C176.07 88.8593 176.072 87.293 175.063 87.293Z" fill="black"/>
<path d="M59.6244 175.809C56.4925 175.749 53.3748 175.417 50.3459 174.597C48.3535 174.058 46.45 173.278 44.4985 172.617C43.4416 172.259 42.3679 172 41.2758 171.772C39.306 171.36 37.2959 171.104 35.3036 171.518C32.0379 172.196 29.3758 174.474 27.1653 176.852C25.915 178.198 24.7529 179.624 23.5708 181.028C22.2414 182.608 20.9121 184.188 19.5828 185.767C16.8925 188.964 14.2022 192.161 11.5119 195.358C9.82654 197.361 8.03437 199.248 6.27816 201.188C4.41394 203.246 2.53665 205.408 1.21511 207.866C0.64808 208.921 0.18672 210.045 0.0364883 211.239C-0.135992 212.611 0.300601 213.888 1.39764 214.766C2.64179 215.763 4.18715 216.157 5.7449 216.316C7.77573 216.523 9.82313 216.394 11.8458 216.161C12.8716 216.043 13.8943 215.899 14.9168 215.755C15.336 215.696 15.5655 215.162 15.4638 214.792C15.3398 214.341 14.9209 214.186 14.5004 214.245C12.5233 214.523 10.5398 214.794 8.54117 214.845C6.9029 214.887 5.16329 214.862 3.61488 214.261C3.04473 214.039 2.50232 213.718 2.09396 213.283C1.76337 212.931 1.56884 212.48 1.55708 211.996C1.55151 211.767 1.5647 211.537 1.59361 211.31C1.57222 211.478 1.62454 211.145 1.635 211.093C1.66421 210.947 1.69884 210.803 1.73774 210.659C1.89268 210.088 2.06329 209.67 2.29168 209.197C3.41784 206.864 5.12161 204.839 6.82914 202.916C8.38812 201.159 10.0626 199.504 11.575 197.707C14.1862 194.604 16.7973 191.501 19.4085 188.398C21.9445 185.385 24.4499 182.342 27.0233 179.36C29.0212 177.045 31.2889 174.583 34.216 173.47C35.8208 172.86 37.4867 172.752 39.1821 172.981C40.5673 173.168 41.9672 173.47 43.3063 173.877C45.1279 174.43 46.8814 175.184 48.6996 175.75C51.3782 176.583 54.1504 177.053 56.946 177.256C57.8375 177.321 58.7307 177.358 59.6243 177.375C60.6326 177.394 60.6327 175.828 59.6244 175.809Z" fill="black"/>
<path d="M41.8744 195.475C39.6373 201.555 37.3957 207.651 34.5012 213.457C31.9071 218.66 28.7794 223.636 24.8117 227.907C22.636 230.248 20.223 232.366 17.561 234.139C17.2094 234.374 17.0576 234.831 17.2801 235.211C17.4842 235.56 17.998 235.727 18.3516 235.492C23.2397 232.235 27.3002 227.916 30.6487 223.114C34.2749 217.914 37.0164 212.167 39.4091 206.314C40.8161 202.871 42.1008 199.381 43.3847 195.892C43.5308 195.495 43.2212 195.034 42.8378 194.928C42.4007 194.808 42.021 195.077 41.8744 195.475Z" fill="black"/>
<path d="M167.538 93.454H178.627C179.635 93.454 179.637 91.8877 178.627 91.8877H167.538C166.53 91.8877 166.528 93.454 167.538 93.454Z" fill="black"/>
<path d="M167.617 99.4736H178.706C179.714 99.4736 179.716 97.9072 178.706 97.9072H167.617C166.609 97.9072 166.607 99.4736 167.617 99.4736Z" fill="black"/>
<path d="M166.953 105.493H178.042C179.05 105.493 179.052 103.927 178.042 103.927H166.953C165.945 103.927 165.943 105.493 166.953 105.493Z" fill="black"/>
<path d="M73.614 104.802C80.606 111.597 91.4994 110.963 99.0712 105.273C101.913 103.138 104.153 100.339 106.189 97.4534C108.1 94.7435 110.187 92.0001 111.259 88.8303C112.594 84.8787 112.732 80.6318 112.703 76.4608C112.655 69.4672 112.175 62.4768 111.267 55.5423C111.082 54.1299 110.88 52.6956 111.097 51.2879C111.315 49.8802 112.022 48.4747 113.26 47.7706C114.025 47.3355 114.929 47.2007 115.809 47.2124C119.337 47.2591 120.631 49.9401 121.022 53.148C121.274 55.2165 121.352 57.306 121.256 59.3876C121.716 56.8188 122.211 54.2232 123.314 51.8581C124.417 49.4931 126.206 47.347 128.612 46.3375C131.15 45.2729 133.25 46.0818 135.787 46.4372C138.203 46.7756 140.786 46.3398 142.765 44.9119C144.744 43.484 146.006 40.9889 145.645 38.5757C145.458 37.3268 144.51 35.9541 143.262 36.1506C145.167 34.3119 144.609 31.1288 142.318 29.9279C140.302 28.8714 139.14 30.1533 137.211 30.4155C134.777 30.7463 132.135 28.5696 130.214 27.3258C127.75 25.731 125.326 24.0208 122.587 22.9204C116.487 20.4696 109.332 21.4265 103.585 24.6177C98.3226 27.5393 92.4171 33.0946 90.4975 38.9378C89.441 42.1538 88.3774 45.3151 87.5854 48.6286C86.8078 51.8814 85.9994 55.1893 84.2792 58.0946C82.6456 60.8537 80.276 63.1015 77.7879 65.1242C72.6147 69.3297 66.7902 72.7363 61.9709 77.3429C57.9275 81.2078 52.0133 88.7248 54.1112 94.754C55.9383 100.005 61.5967 104.488 67.1421 104.583C71.3475 104.655 75.5567 102.383 77.6591 98.7405C78.0717 98.0256 78.3844 97.0613 77.8523 96.4304C77.5637 96.0884 77.1017 95.9531 76.662 95.8705C74.7472 95.5109 72.4891 95.9871 71.4564 97.6391C70.0233 99.9315 71.6753 102.918 73.614 104.802Z" fill="black"/>
<path d="M73.0598 105.356C75.3177 107.533 78.0993 109.108 81.1393 109.891C84.0789 110.649 87.1686 110.671 90.1419 110.098C93.1947 109.509 96.1406 108.259 98.7017 106.499C101.727 104.42 104.123 101.637 106.266 98.6853C108.423 95.7152 110.738 92.6883 111.962 89.1889C113.278 85.4253 113.487 81.3577 113.489 77.4045C113.491 73.2319 113.325 69.0573 113.013 64.8968C112.855 62.7925 112.658 60.6912 112.422 58.5943C112.19 56.5343 111.736 54.4257 111.789 52.3477C111.827 50.8125 112.363 49.0445 113.861 48.3391C115.075 47.7675 116.806 47.8557 117.96 48.5471C118.949 49.1397 119.516 50.1974 119.843 51.2703C120.34 52.9002 120.429 54.6601 120.489 56.352C120.525 57.3638 120.517 58.3761 120.473 59.3875C120.435 60.2542 121.854 60.4742 122.011 59.5957C122.542 56.6325 123.106 53.5655 124.683 50.9521C126.03 48.718 128.253 46.7021 130.985 46.596C132.429 46.54 133.834 46.9235 135.25 47.1434C136.696 47.3682 138.133 47.3902 139.575 47.1067C142.315 46.5676 144.768 44.8273 145.883 42.2263C146.453 40.8949 146.716 39.2954 146.29 37.8813C145.895 36.5675 144.778 35.1878 143.262 35.3673L143.816 36.7043C145.785 34.7429 145.579 31.4029 143.381 29.6934C142.129 28.7186 140.655 28.5405 139.17 29.0311C138.504 29.2511 137.845 29.5418 137.146 29.6386C136.462 29.7331 135.786 29.5841 135.145 29.355C133.724 28.8477 132.475 27.9091 131.238 27.0692C129.792 26.0871 128.323 25.1242 126.827 24.2181C123.829 22.4009 120.644 21.1624 117.136 20.8416C113.825 20.5388 110.427 21.0235 107.292 22.1121C104.225 23.1774 101.442 24.8313 98.8909 26.8247C96.3362 28.8208 94.0269 31.1735 92.1983 33.857C91.3225 35.1422 90.58 36.5128 90.0167 37.9636C89.3532 39.6727 88.8366 41.4565 88.29 43.2061C87.7273 45.0072 87.2129 46.8212 86.7733 48.6564C86.3635 50.3671 85.9424 52.0784 85.3775 53.7458C84.8195 55.393 84.1026 56.9788 83.1431 58.4331C82.2103 59.8468 81.0724 61.1116 79.8506 62.2805C74.72 67.1889 68.4011 70.65 63.0514 75.3012C60.8456 77.2189 58.8409 79.3435 57.1005 81.6939C55.3799 84.0175 53.8548 86.6434 53.203 89.4859C52.8912 90.8454 52.8009 92.2353 53.02 93.6152C53.2412 95.0088 53.848 96.354 54.5675 97.5586C56.1269 100.169 58.4681 102.362 61.167 103.762C63.8642 105.161 66.875 105.709 69.8701 105.105C72.8613 104.502 75.6346 102.803 77.4941 100.382C78.3388 99.2821 79.4695 97.5928 78.6371 96.1909C77.8484 94.8624 75.737 94.8647 74.3968 95.0576C72.9698 95.263 71.6153 95.9616 70.8143 97.1906C69.9767 98.476 69.9794 100.111 70.4914 101.517C71.0239 102.98 71.9556 104.27 73.0598 105.356C73.779 106.064 74.8874 104.957 74.1675 104.249C72.5537 102.661 70.4009 99.4103 72.6516 97.4357C73.581 96.6203 74.969 96.441 76.1554 96.5788C76.5811 96.6283 77.321 96.6888 77.3502 97.2342C77.3834 97.8544 76.9111 98.4976 76.5832 98.9834C75.0584 101.242 72.6154 102.82 69.9888 103.474C67.3525 104.13 64.6241 103.734 62.2023 102.534C59.7289 101.308 57.5691 99.3965 56.0972 97.0569C55.4103 95.965 54.832 94.7681 54.5824 93.4951C54.3504 92.3119 54.4454 91.0706 54.7134 89.9023C55.317 87.2701 56.7173 84.868 58.2925 82.703C59.8389 80.5777 61.6505 78.6477 63.6066 76.8958C68.5684 72.4523 74.3845 69.1032 79.4329 64.7669C81.881 62.6641 84.124 60.2546 85.5774 57.3459C87.0974 54.304 87.7711 50.9943 88.6164 47.7281C89.0605 46.0121 89.5752 44.3154 90.1152 42.6274C90.609 41.0837 91.0463 39.4877 91.6831 37.9956C92.8413 35.2817 94.6952 32.8874 96.7612 30.8045C100.986 26.5447 106.393 23.2627 112.422 22.4966C115.476 22.1084 118.603 22.3501 121.521 23.3555C124.635 24.4284 127.409 26.3914 130.127 28.2056C132.447 29.7538 135.006 31.778 137.976 31.0646C139.171 30.7777 140.349 29.9946 141.599 30.458C142.636 30.8427 143.37 31.771 143.579 32.8459C143.775 33.86 143.433 34.8746 142.708 35.5967C142.269 36.0344 142.56 37.0168 143.262 36.9337C144.275 36.8138 144.8 38.0006 144.895 38.849C145.026 40.0154 144.727 41.1953 144.151 42.2087C142.875 44.4583 140.403 45.6238 137.88 45.7493C135.065 45.8894 132.349 44.5789 129.535 45.2181C126.954 45.8043 124.859 47.7392 123.478 49.922C121.72 52.701 121.072 55.9905 120.501 59.1793C121.014 59.2487 121.526 59.3181 122.039 59.3875C122.13 57.3061 122.062 55.2161 121.805 53.1479C121.633 51.7685 121.338 50.3802 120.638 49.162C119.968 47.9948 118.925 47.1082 117.636 46.7016C116.083 46.2114 114.077 46.3012 112.689 47.2018C109.16 49.4912 110.358 54.3446 110.762 57.7858C111.258 62.0073 111.595 66.2473 111.774 70.494C111.946 74.5823 112.098 78.7337 111.701 82.8131C111.509 84.783 111.14 86.7452 110.503 88.622C109.909 90.3711 108.982 91.9854 107.973 93.5245C106.955 95.0759 105.869 96.5901 104.774 98.087C103.69 99.5677 102.533 100.999 101.247 102.309C98.9408 104.658 96.1781 106.525 93.0784 107.657C87.385 109.735 80.8621 109.337 75.879 105.704C75.273 105.263 74.7071 104.769 74.1675 104.249C73.4416 103.549 72.3325 104.655 73.0598 105.356Z" fill="black"/>
<path d="M131.511 49.3708C131.635 49.3201 131.762 49.2792 131.892 49.2509C131.925 49.2439 131.958 49.2395 131.99 49.2321C132.063 49.2155 131.861 49.2436 131.99 49.2315C132.056 49.2253 132.122 49.2202 132.189 49.2187C132.249 49.2174 132.309 49.2184 132.369 49.2215C132.402 49.2232 132.436 49.2256 132.469 49.2286C132.486 49.2302 132.598 49.2485 132.519 49.2336C132.439 49.2185 132.552 49.2405 132.568 49.2436C132.601 49.2498 132.634 49.2568 132.666 49.2643C132.731 49.2793 132.796 49.2969 132.86 49.317C132.917 49.3351 132.974 49.3557 133.03 49.3772C133.151 49.4231 132.968 49.345 133.035 49.3796C133.064 49.3951 133.095 49.408 133.125 49.4231C133.244 49.4837 133.357 49.5546 133.466 49.6319C133.546 49.6887 133.424 49.5935 133.471 49.6361C133.495 49.6586 133.522 49.6789 133.546 49.7011C133.596 49.7456 133.643 49.7922 133.689 49.8408C133.707 49.8603 133.725 49.8801 133.742 49.9002C133.744 49.902 133.824 49.9998 133.777 49.9402C133.73 49.8814 133.799 49.9717 133.807 49.984C133.83 50.0171 133.852 50.0509 133.873 50.085C134.017 50.3168 134.346 50.4281 134.587 50.2723C134.82 50.1226 134.929 49.8061 134.775 49.558C134.062 48.412 132.502 47.844 131.233 48.3639C130.982 48.467 130.775 48.7154 130.869 49.0061C130.947 49.2488 131.24 49.4817 131.511 49.3708Z" fill="black"/>
<path d="M132.769 51.9356C131.809 51.9414 131.757 53.8297 132.83 53.6077C133.629 53.4425 133.699 51.9299 132.769 51.9356Z" fill="black"/>
<path d="M132.769 51.4131C132.471 51.4179 132.205 51.5255 131.982 51.7196C131.796 51.8802 131.676 52.1044 131.597 52.3328C131.455 52.7433 131.484 53.2797 131.734 53.6447C131.889 53.8704 132.11 54.0531 132.383 54.1141C132.684 54.1816 133.001 54.1392 133.273 53.9928C133.737 53.7433 133.988 53.174 133.969 52.6625C133.956 52.3383 133.854 52.0396 133.644 51.791C133.43 51.5376 133.095 51.4144 132.769 51.4131C132.496 51.412 132.234 51.6541 132.247 51.9352C132.26 52.2191 132.476 52.4561 132.769 52.4574C132.808 52.4575 132.847 52.4599 132.885 52.4651L132.746 52.4464C132.802 52.455 132.855 52.4692 132.906 52.4904L132.782 52.4377C132.829 52.4585 132.873 52.4841 132.914 52.5155L132.808 52.4339C132.848 52.4654 132.882 52.5006 132.914 52.5401L132.832 52.4344C132.871 52.4861 132.903 52.5418 132.928 52.6017L132.875 52.4769C132.904 52.5484 132.923 52.6223 132.934 52.6985L132.916 52.5597C132.928 52.6586 132.928 52.7579 132.915 52.8568L132.934 52.718C132.92 52.8126 132.895 52.9043 132.859 52.9927L132.912 52.868C132.879 52.945 132.838 53.0172 132.787 53.0835L132.869 52.9779C132.829 53.0269 132.786 53.071 132.737 53.11L132.843 53.0284C132.796 53.0636 132.747 53.0929 132.694 53.1164L132.819 53.0638C132.757 53.0896 132.693 53.1054 132.626 53.115L132.765 53.0963C132.701 53.1042 132.638 53.1055 132.575 53.0979L132.713 53.1165C132.662 53.1092 132.612 53.0961 132.564 53.0761L132.688 53.1287C132.647 53.1106 132.609 53.0883 132.573 53.0612L132.679 53.1429C132.637 53.1104 132.601 53.0733 132.569 53.0317L132.651 53.1374C132.616 53.0906 132.588 53.0406 132.564 52.9873L132.617 53.112C132.583 53.0312 132.561 52.9469 132.55 52.8602L132.568 52.9989C132.556 52.899 132.557 52.7988 132.569 52.6989L132.551 52.8377C132.564 52.7377 132.59 52.6404 132.628 52.547L132.576 52.6717C132.607 52.598 132.646 52.5286 132.695 52.4648L132.613 52.5704C132.651 52.5227 132.693 52.4798 132.74 52.4418L132.634 52.5234C132.679 52.489 132.726 52.4605 132.778 52.4377L132.653 52.4904C132.708 52.4678 132.764 52.4528 132.822 52.4445L132.683 52.4632C132.712 52.4598 132.74 52.4578 132.769 52.4574C133.042 52.4529 133.304 52.2204 133.291 51.9353C133.279 51.6562 133.062 51.4084 132.769 51.4131Z" fill="black"/>
<path d="M128.4 63.2805C128.499 64.4777 130.89 64.6783 130.258 62.954C129.848 61.8348 128.299 62.0564 128.4 63.2805Z" fill="black"/>
<path d="M127.878 63.2804C127.909 63.6112 128.022 63.8917 128.235 64.1466C128.384 64.3235 128.584 64.4657 128.794 64.5582C129.27 64.7665 129.86 64.8262 130.32 64.5372C130.572 64.3784 130.758 64.1373 130.839 63.8485C130.924 63.5404 130.888 63.2007 130.791 62.9001C130.669 62.5197 130.459 62.201 130.133 61.968C129.884 61.7903 129.556 61.6931 129.251 61.7051C128.885 61.7194 128.516 61.8627 128.264 62.1358C127.98 62.445 127.847 62.8628 127.878 63.2804C127.899 63.5521 128.104 63.8158 128.401 63.8025C128.666 63.7906 128.944 63.5721 128.923 63.2804C128.916 63.1872 128.917 63.0947 128.929 63.0021L128.911 63.1409C128.918 63.0898 128.928 63.0393 128.943 62.9898C128.95 62.9662 128.959 62.9435 128.967 62.9201C128.991 62.8442 128.896 63.0607 128.95 62.9633C128.973 62.9228 128.996 62.8847 129.021 62.8459C129.063 62.781 128.918 62.9638 128.992 62.8864C129.007 62.8705 129.021 62.8542 129.037 62.8389C129.053 62.8238 129.07 62.8102 129.086 62.7955C129.142 62.7441 128.955 62.8846 129.045 62.8288C129.081 62.806 129.118 62.7858 129.156 62.7651C129.224 62.7282 129.005 62.8203 129.105 62.7866C129.126 62.7798 129.146 62.7725 129.166 62.7665C129.208 62.7545 129.25 62.7458 129.293 62.7394L129.154 62.758C129.241 62.7464 129.327 62.7461 129.415 62.7569L129.276 62.7382C129.331 62.746 129.385 62.7576 129.439 62.7742C129.463 62.7817 129.486 62.7913 129.51 62.7997C129.565 62.8188 129.376 62.7372 129.441 62.771C129.453 62.7777 129.467 62.7836 129.479 62.7903C129.502 62.8025 129.525 62.8156 129.547 62.8296C129.562 62.839 129.576 62.8501 129.591 62.8591C129.644 62.8903 129.53 62.8123 129.529 62.8097C129.534 62.8258 129.585 62.8574 129.598 62.8693C129.62 62.8908 129.642 62.9132 129.663 62.9365C129.671 62.946 129.679 62.956 129.688 62.9655C129.741 63.0264 129.62 62.8707 129.647 62.9135C129.665 62.9417 129.685 62.9681 129.703 62.9967C129.72 63.0263 129.737 63.0566 129.752 63.0876C129.757 63.097 129.768 63.1315 129.775 63.1359C129.771 63.1336 129.724 63.0069 129.747 63.0718C129.793 63.2017 129.832 63.3311 129.851 63.4678L129.833 63.329C129.844 63.421 129.846 63.5131 129.834 63.6052L129.853 63.4664C129.847 63.5084 129.839 63.5499 129.826 63.5905C129.821 63.6075 129.814 63.6239 129.808 63.6409C129.862 63.4671 129.857 63.5324 129.832 63.5807C129.823 63.5974 129.813 63.6132 129.803 63.6294C129.799 63.6364 129.793 63.6428 129.789 63.6499C129.758 63.7023 129.873 63.5517 129.845 63.5783C129.819 63.6032 129.796 63.6315 129.769 63.6563C129.707 63.7152 129.838 63.6066 129.828 63.612C129.812 63.6203 129.798 63.6326 129.782 63.6419C129.767 63.6513 129.751 63.6601 129.734 63.6684C129.727 63.6721 129.72 63.6752 129.712 63.6791C129.651 63.7121 129.803 63.6424 129.798 63.6436C129.723 63.6609 129.654 63.6895 129.577 63.7002L129.715 63.6816C129.613 63.6945 129.51 63.6932 129.408 63.6803L129.546 63.699C129.432 63.6834 129.324 63.6516 129.216 63.6119C129.165 63.5929 129.365 63.6796 129.289 63.6424C129.275 63.6351 129.259 63.6285 129.245 63.6211C129.22 63.6086 129.195 63.5952 129.171 63.581C129.146 63.5668 129.123 63.5518 129.099 63.536C129.088 63.5281 129.077 63.5197 129.065 63.5118C129.008 63.4723 129.181 63.6069 129.127 63.5593C129.084 63.5228 129.043 63.4864 129.005 63.445C128.967 63.4028 128.92 63.3131 129.026 63.4758C129.01 63.4526 128.994 63.4307 128.979 63.407C128.965 63.3833 128.951 63.3589 128.939 63.334C128.884 63.2227 128.984 63.4624 128.953 63.3683C128.933 63.3082 128.918 63.2489 128.909 63.1862L128.927 63.325C128.926 63.3101 128.924 63.2953 128.923 63.2804C128.91 63.1392 128.873 63.0145 128.77 62.9112C128.679 62.8206 128.531 62.7524 128.4 62.7582C128.139 62.77 127.852 62.9891 127.878 63.2804Z" fill="black"/>
<path d="M194.067 52.3788C201.513 52.3788 208.958 52.3788 216.404 52.3788H223.305C224.313 52.3788 224.315 50.8125 223.305 50.8125H194.067C193.059 50.8125 193.058 52.3788 194.067 52.3788Z" fill="white"/>
<path d="M192.954 61.3105H208.986C214.517 61.3105 220.047 61.3105 225.577 61.3105H234.443C235.451 61.3105 235.453 59.7441 234.443 59.7441C229.099 59.7441 223.755 59.7441 218.41 59.7441H192.954C191.946 59.7441 191.944 61.3105 192.954 61.3105Z" fill="white"/>
<path d="M192.954 69.1425H208.986C214.517 69.1425 220.047 69.1425 225.577 69.1425H234.443C235.451 69.1425 235.453 67.5762 234.443 67.5762H218.411C212.88 67.5762 207.35 67.5762 201.819 67.5762H192.954C191.946 67.5762 191.944 69.1425 192.954 69.1425Z" fill="white"/>
<path d="M246.104 37.7986H232.181V24.5719V21.6133L246.104 37.7986Z" fill="white"/>
<path d="M192.152 122.728H179.97V128.123H192.152V122.728Z" fill="white"/>
<path d="M259.786 79.781C259.684 79.935 259.507 80.1372 259.285 80.3242C259.235 80.3656 259.19 80.3988 259.063 80.4807C258.908 80.5813 258.745 80.671 258.578 80.7516C258.421 80.827 258.487 80.7994 258.32 80.862C258.194 80.9096 258.066 80.9529 257.937 80.9924C257.628 81.0868 257.313 81.1595 256.995 81.2159C256.948 81.2244 256.618 81.275 256.737 81.2591C256.599 81.2775 256.46 81.2919 256.321 81.3044C256.053 81.3287 255.785 81.3436 255.516 81.3504C255.142 81.3597 254.767 81.3541 254.394 81.3302C253.442 81.2693 252.48 81.3075 251.526 81.3075H245.251C244.453 81.3075 243.655 81.3075 242.856 81.3075C242.325 81.3075 241.801 81.2896 241.276 81.397C239.46 81.7684 238.09 83.5536 238.294 85.4096C238.505 87.3229 240.09 88.7582 242.014 88.791V87.2246C239.982 87.2596 238.269 88.9048 238.272 90.9664C238.276 93.028 239.977 94.6731 242.014 94.7082V93.1418C239.982 93.1768 238.269 94.822 238.272 96.8836C238.276 98.9452 239.977 100.59 242.014 100.625V99.0591C240.262 99.0892 238.663 100.327 238.344 102.083C238.017 103.886 239.009 105.656 240.722 106.31C241.32 106.538 241.937 106.543 242.563 106.543H256.188C259.771 106.543 263.276 105.729 266.426 103.999C267.31 103.514 266.521 102.161 265.636 102.647C262.817 104.194 259.646 104.974 256.436 104.976C255.132 104.977 253.828 104.976 252.524 104.976C249.067 104.976 245.61 104.984 242.153 104.976C241.198 104.974 240.324 104.495 239.981 103.584C239.441 102.15 240.514 100.651 242.014 100.625C243.022 100.608 243.024 99.0764 242.014 99.0591C240.823 99.0385 239.84 98.0884 239.839 96.8836C239.837 95.6774 240.825 94.7287 242.014 94.7082C243.022 94.6908 243.024 93.1592 242.014 93.1418C240.823 93.1213 239.84 92.1712 239.839 90.9664C239.837 89.7602 240.825 88.8114 242.014 88.791C243.022 88.7736 243.024 87.2418 242.014 87.2246C240.763 87.2033 239.771 86.1651 239.843 84.9001C239.908 83.7547 240.974 82.8902 242.097 82.8737C243.305 82.8561 244.514 82.8737 245.722 82.8737H251.77C252.649 82.8737 253.534 82.8429 254.411 82.8976C256.752 83.0434 259.733 82.6935 261.138 80.5715C261.372 80.2187 261.208 79.705 260.857 79.5C260.474 79.2759 260.02 79.4274 259.786 79.781Z" fill="black"/>
<path d="M171.961 137.056C179.511 141.297 187.554 144.689 195.929 146.916C203.33 148.885 210.99 149.946 218.652 149.963C225.604 149.978 232.573 149.133 239.306 147.392C245.477 145.795 251.471 143.44 257.033 140.319C262.047 137.506 266.739 134.051 270.785 129.959C274.399 126.304 277.537 122.105 279.734 117.445C281.748 113.171 282.977 108.519 282.999 103.777C283.029 97.3149 282.295 90.4928 279.378 84.6345C277.574 81.012 274.779 77.864 271.124 76.0494C269.671 75.3281 268.122 74.8039 266.53 74.4942C264.885 74.1741 263.353 73.6687 261.924 72.7733C260.584 71.9332 259.426 70.8217 258.51 69.5338C258.036 68.8671 257.564 68.1983 257.091 67.5306C256.513 66.7146 255.154 67.4961 255.739 68.3211C257.167 70.337 258.52 72.3092 260.577 73.7556C262.023 74.7724 263.697 75.5015 265.425 75.8715C266.237 76.0452 267.045 76.1906 267.841 76.4284C271.085 77.3964 273.989 79.4117 276.076 82.2241C279.36 86.6485 280.665 92.2734 281.169 97.6686C281.455 100.741 281.6 103.891 281.238 106.964C280.975 109.196 280.421 111.4 279.672 113.517C278.05 118.106 275.422 122.326 272.276 126.023C268.723 130.196 264.5 133.773 259.908 136.753C254.807 140.063 249.258 142.656 243.481 144.54C237.116 146.617 230.487 147.849 223.805 148.249C216.48 148.687 209.108 148.145 201.915 146.704C193.812 145.08 185.947 142.349 178.522 138.731C176.568 137.78 174.646 136.767 172.752 135.703C171.872 135.209 171.081 136.562 171.961 137.056Z" fill="black"/>
<path d="M242.014 88.79H253.501C254.509 88.79 254.51 87.2236 253.501 87.2236H242.014C241.006 87.2236 241.005 88.79 242.014 88.79Z" fill="black"/>
<path d="M242.101 94.7079H253.588C254.595 94.7079 254.597 93.1416 253.588 93.1416H242.101C241.093 93.1416 241.092 94.7079 242.101 94.7079Z" fill="black"/>
<path d="M242.188 100.625H253.675C254.682 100.625 254.684 99.0586 253.675 99.0586H242.188C241.18 99.0586 241.179 100.625 242.188 100.625Z" fill="black"/>
<path d="M183.421 55.1519C183.431 55.1413 183.441 55.1312 183.451 55.1206H183.394C182.378 53.9468 167.59 37.5015 151.315 55.1206H151.254C151.254 55.1206 151.264 55.1327 151.283 55.1551C151.273 55.1656 151.264 55.1758 151.254 55.1864H151.31C152.326 56.3602 167.114 72.8055 183.389 55.1864H183.451C183.451 55.1864 183.44 55.1743 183.421 55.1519Z" fill="#111F78"/>
<path d="M167.353 62.7583C171.553 62.7583 174.957 59.3535 174.957 55.1535C174.957 50.9536 171.553 47.5488 167.353 47.5488C163.153 47.5488 159.748 50.9536 159.748 55.1535C159.748 59.3535 163.153 62.7583 167.353 62.7583Z" fill="#83A2FF"/>
</g>
<defs>
<clipPath id="clip0_3063_4339">
<rect width="287" height="256" fill="white"/>
</clipPath>
</defs>
</svg>
