<svg width="287" height="256" viewBox="0 0 287 256" fill="none" xmlns="http://www.w3.org/2000/svg">
<g clip-path="url(#clip0_3063_4343)">
<path d="M188.05 44.9004L179.325 46.8955L186.954 80.2588L195.679 78.2637L188.05 44.9004Z" fill="#FF5A48"/>
<path d="M204.932 30.8525L196.207 32.8477L206.05 75.8923L214.775 73.8971L204.932 30.8525Z" fill="#FF5A48"/>
<path d="M222.326 19.0381L213.601 21.0332L225.146 71.525L233.871 69.5299L222.326 19.0381Z" fill="#FF5A48"/>
<path d="M182.241 46.2285L173.516 48.2236L181.145 81.5869L189.87 79.5918L182.241 46.2285Z" fill="#4367F5"/>
<path d="M171.735 63.7139L163.01 65.709L167.543 85.5324L176.268 83.5373L171.735 63.7139Z" fill="#FF5A48"/>
<path d="M165.926 65.044L157.201 67.0391L161.734 86.8625L170.459 84.8674L165.926 65.044Z" fill="#4367F5"/>
<path d="M199.123 32.1797L190.398 34.1748L200.241 77.2194L208.966 75.2243L199.123 32.1797Z" fill="#4367F5"/>
<path d="M216.517 20.3662L207.792 22.3613L219.338 72.8531L228.063 70.858L216.517 20.3662Z" fill="#4367F5"/>
<path d="M157.979 93.9045C157.613 92.685 158.355 91.4102 159.596 91.1254L237.987 73.1342C238.645 72.9837 239.056 72.3282 238.906 71.6701L225.878 14.6994C225.587 13.4243 226.384 12.1544 227.659 11.8628C228.934 11.5713 230.204 12.3685 230.495 13.6435L243.795 71.8059L244.579 75.2316C244.729 75.8897 244.318 76.5451 243.66 76.6956L160.573 95.4199C159.444 95.6742 158.312 95.0123 157.979 93.9045Z" fill="#4367F5"/>
<path d="M78.7421 111.693C99.6297 111.693 116.562 94.7605 116.562 73.873C116.562 52.9854 99.6297 36.0527 78.7421 36.0527C57.8546 36.0527 40.9219 52.9854 40.9219 73.873C40.9219 94.7605 57.8546 111.693 78.7421 111.693Z" fill="#4367F5"/>
<path d="M78.8311 73.8472L94.8334 108.104C100.461 105.464 105.517 101.401 109.412 96.0028C112.154 92.2028 114.086 88.065 115.246 83.795C108.949 72.5865 78.8311 73.8472 78.8311 73.8472Z" fill="#111F78"/>
<path d="M115.667 100.517C130.382 80.1247 125.779 51.6642 105.386 36.9492L78.7422 73.8737L115.667 100.517Z" fill="#FF5A48"/>
<path d="M226.281 208.952C241.957 200.981 256.946 190.79 265.45 174.913C274.18 158.615 274.918 139.571 271.027 121.789C268.817 111.684 265.176 101.925 260.629 92.646L260.481 93.7966C262.809 91.6084 265.157 89.4384 267.467 87.2312C269.212 85.5644 269.91 83.1061 268.808 80.86C267.619 78.4369 264.675 77.2983 262.164 78.285C260.44 78.9627 258.965 80.6184 257.57 81.7952L259.191 82.4666C259.987 75.4057 260.782 68.3449 261.577 61.284C261.703 60.1694 261.933 59.013 261.672 57.9022C260.98 54.9612 257.659 53.3283 254.905 54.5504C251.413 56.1006 251.671 61.1004 251.25 64.3206C250.744 68.1959 250.238 72.0713 249.731 75.9466H251.63C251.873 70.1862 252.212 64.4219 252.359 58.6584C252.485 53.7091 245.897 51.3901 243.232 55.8155C242.561 56.9279 242.541 58.1597 242.493 59.4077L242.301 64.3681C242.175 67.6048 242.05 70.8415 241.924 74.0783H243.823C243.378 68.7834 243.078 63.4556 242.487 58.1754C242.199 55.6079 240.143 53.6813 237.533 53.6608C235.143 53.642 232.998 55.168 232.687 57.6196C232.564 58.5849 232.761 59.6104 232.858 60.5716L233.398 65.8799C233.712 68.9744 234.026 72.0689 234.341 75.1634L236.206 74.911C235.189 70.4578 234.171 66.0047 233.154 61.5516C232.724 59.6674 232.517 57.4573 231.012 56.0805C227.871 53.2082 222.62 55.6103 222.778 59.8773C222.836 61.4403 223.426 63.0822 223.774 64.5905C224.426 67.4112 225.077 70.2319 225.728 73.0526C226.218 75.1767 226.713 77.3 227.199 79.425C228.031 83.0581 227.408 86.9092 227.787 90.619C229.557 107.952 241.122 124.703 235.571 142.415C232.622 151.822 225.859 159.342 217.911 164.913C210.163 170.344 201.403 174.038 193.51 179.213C185.258 184.623 178.206 191.675 172.302 199.552C166.43 207.386 161.194 216.168 159.194 225.86C158.224 230.563 158.021 235.529 159.361 240.182C159.959 242.259 160.854 244.355 162.518 245.806C163.871 246.985 166.086 247.795 167.74 246.7C170.023 245.189 168.702 240.972 168.113 238.93C167.122 235.489 165.702 232.175 164.267 228.9C162.681 225.283 160.965 221.964 158.297 218.995C155.026 215.353 151.061 212.249 147.065 209.442C138.634 203.52 128.973 199.283 118.888 197.156C108.446 194.954 97.7707 195.652 87.1833 195.048C77.1314 194.474 66.0443 192.742 58.0117 186.155C54.8253 183.542 52.2263 180.189 50.7607 176.318C49.0652 171.84 48.9307 167.019 49.6588 162.324C51.154 152.683 56.0717 144.02 60.648 135.549C61.9514 133.136 63.4477 129.971 66.0892 128.801C68.4713 127.746 70.8642 126.714 73.2515 125.671C73.9638 125.359 74.7186 125.088 75.4026 124.714C77.1536 123.758 78.2582 121.825 78.1928 119.831C78.0694 116.066 74.3444 113.895 70.927 114.969C68.8792 115.613 66.8436 116.298 64.8024 116.962L65.9704 118.13C67.6278 110.503 69.2852 102.876 70.9426 95.2484C71.6653 91.9227 73.2995 87.4803 69.3574 85.4506C66.4918 83.9751 63.1703 85.6436 62.3194 88.6524C61.9201 90.0645 61.6158 91.5107 61.2651 92.9354C60.2279 97.1485 59.1908 101.362 58.1536 105.575L60.0186 105.827C60.1218 100.953 60.2249 96.0788 60.328 91.2045C60.3728 89.089 60.7403 86.74 59.3248 84.9606C56.6019 81.5374 50.9997 83.264 50.586 87.5844C50.3462 90.0895 50.4098 92.6524 50.3276 95.1677H52.2265C51.9581 92.6737 51.6898 90.1797 51.4214 87.6858C51.2786 86.3589 51.1 85.1169 50.2011 84.0445C48.855 82.4389 46.5307 81.7608 44.6349 82.7626C42.7114 83.779 41.456 86.0049 41.6177 88.1764C41.6617 88.7668 41.7651 89.3565 41.8421 89.9431L43.0306 99.0044C43.333 101.31 43.6354 103.615 43.9377 105.92L45.8027 105.668C44.9109 101.109 44.019 96.5501 43.1272 91.9914C42.816 90.4009 42.5639 88.7846 42.1912 87.207C41.2075 83.043 35.6313 82.3587 33.3371 85.8576C31.9612 87.9559 32.7795 90.4637 33.1716 92.739C33.6895 95.7448 34.2343 98.7465 34.6805 101.764C35.1242 104.766 35.4592 107.788 35.5661 110.821C35.6615 113.528 35.7206 116.078 34.43 118.529C32.2379 122.692 28.5876 126.032 25.8546 129.842C22.6029 134.376 19.7146 139.155 17.5364 144.301C9.76048 162.672 10.0759 184.153 19.1144 202.018C26.4449 216.507 39.3139 227.456 54.4685 233.096C62.9784 236.263 72.1586 237.897 81.2392 237.477C92.0006 236.979 104.01 234.098 114.189 239.039C115.261 239.559 116.385 240.26 116.933 241.364C117.574 242.653 117.028 243.724 115.777 244.283H116.735C115.229 243.434 116.012 241.399 116.15 239.992C116.341 238.06 116.415 236.118 116.41 234.177C116.4 230.454 116.094 226.741 115.767 223.036C115.129 215.811 114.201 208.255 115.377 201.038C115.929 197.656 116.972 194.502 119.174 191.834C120.947 189.687 123.048 187.792 124.432 185.346C127.654 179.652 126.596 172.81 124.933 166.81C123.279 160.843 120.971 155.023 120.318 148.82C120.01 145.893 120.059 142.894 120.934 140.063C121.931 136.838 124.12 134.336 126.602 132.129C130.515 128.649 135.317 126.319 140.46 125.357C142.206 125.031 143.981 124.873 145.757 124.873C146.412 124.873 147.067 124.895 147.72 124.943C147.927 124.958 148.133 124.976 148.339 124.996C148.446 125.007 149.038 125.084 148.803 125.048C152.266 125.574 155.67 127.641 158.262 129.889C161.463 132.665 163.872 136.256 165.385 140.205C167.433 145.552 168.495 151.626 166.011 157.007C164.856 159.508 163.083 161.739 160.852 163.364C159.768 164.153 158.578 164.817 157.327 165.301C156.444 165.643 155.507 165.748 155.379 166.843C155.191 168.449 156.528 170.454 157.276 171.776C158.298 173.585 159.564 175.033 161.258 176.274C166.045 179.779 172.084 179.992 177.632 181.459C182.557 182.761 186.781 185.091 190.361 188.741C195.02 193.491 198.859 199.189 202.469 204.754C206.063 210.296 209.365 216.021 212.597 221.779C219.126 233.409 225.396 245.247 233.251 256.059C235.149 258.672 237.138 261.219 239.224 263.684C240.015 264.618 241.352 263.269 240.567 262.341C224.825 243.738 215.689 220.797 202.091 200.753C198.852 195.979 195.426 191.073 191.311 187.004C188.118 183.847 184.359 181.552 180.081 180.19C175.258 178.656 169.936 178.524 165.311 176.43C161.534 174.72 158.665 171.659 157.412 167.675C157.337 167.436 157.319 167.19 157.263 166.956C157.431 167.655 156.92 167.273 157.492 167.258C157.781 167.251 158.234 166.972 158.5 166.859C159.669 166.362 160.781 165.749 161.811 165.003C163.744 163.603 165.395 161.846 166.653 159.814C169.356 155.444 169.83 150.498 168.865 145.534C167.369 137.848 163.375 130.701 156.721 126.369C154.376 124.842 151.642 123.5 148.828 123.153C142.043 122.316 134.831 124.143 129.122 127.837C124.696 130.702 120.485 134.722 118.996 139.916C117.541 144.994 118.403 150.468 119.626 155.499C121 161.151 123.277 166.573 124.251 172.324C124.749 175.268 124.847 178.342 124.062 181.245C123.309 184.029 121.69 186.189 119.783 188.292C118.048 190.206 116.297 192.123 115.245 194.516C114.037 197.264 113.478 200.274 113.2 203.248C112.587 209.821 113.289 216.487 113.868 223.035C114.166 226.42 114.448 229.81 114.502 233.209C114.529 234.905 114.499 236.601 114.389 238.294C114.29 239.824 113.903 241.417 113.946 242.946C113.974 243.95 114.322 244.83 115.103 245.481C116.08 246.295 116.898 246.058 117.825 245.26C119.697 243.65 119.315 241.008 117.792 239.3C115.926 237.207 112.712 236.259 110.096 235.573C107.154 234.801 104.103 234.464 101.066 234.388C94.7356 234.231 88.4493 235.18 82.1409 235.532C71.6656 236.116 61.056 234.071 51.4552 229.84C34.1027 222.193 21.0326 207.236 16.1263 188.88C12.978 177.1 13.1407 164.605 16.5035 152.889C18.2952 146.646 20.9734 140.755 24.4579 135.277C26.1034 132.69 27.8499 130.117 29.7891 127.74C31.454 125.699 33.2566 123.769 34.7649 121.604C36.1916 119.556 37.313 117.297 37.4658 114.771C37.6733 111.343 37.3563 107.845 36.9428 104.444C36.5349 101.089 35.9634 97.758 35.384 94.4296C35.1011 92.8041 34.7938 91.1803 34.55 89.5485C34.3241 88.0366 34.6422 86.5354 36.1579 85.8195C38.1093 84.8978 39.9672 85.8635 40.401 87.9206C40.5916 88.8245 40.7559 89.7348 40.9333 90.6413C41.5746 93.9197 42.216 97.198 42.8573 100.476C43.2287 102.375 43.6002 104.274 43.9716 106.172C44.174 107.207 45.9766 106.987 45.8366 105.92C45.2579 101.508 44.6791 97.0954 44.1004 92.6832C43.8927 91.0998 43.5018 89.4335 43.5003 87.8301C43.4983 85.6097 45.7473 83.2564 47.9687 84.5912C49.1598 85.3069 49.3888 86.4433 49.5225 87.6857C49.7909 90.1797 50.0592 92.6737 50.3276 95.1677C50.4559 96.3594 52.1857 96.4158 52.2265 95.1677C52.2965 93.0268 52.3665 90.8859 52.4364 88.7451C52.4784 87.4604 52.6557 86.2466 53.8447 85.4733C55.7329 84.245 58.2779 85.543 58.4877 87.7516C58.6271 89.2189 58.4382 90.7794 58.4071 92.2478C58.3494 94.9729 58.2918 97.6978 58.2341 100.423C58.196 102.224 58.1579 104.026 58.1197 105.827C58.0972 106.891 59.7271 107.126 59.9847 106.08C60.7919 102.801 61.599 99.5223 62.4061 96.2436L63.8229 90.4882C64.2612 88.7074 64.8622 86.7408 67.1621 86.7974C69.1425 86.8462 70.351 88.6533 70.032 90.5078C69.9953 90.7214 69.9395 90.9336 69.8935 91.1454L69.0294 95.1216C68.0633 99.5673 67.0973 104.013 66.1312 108.459C65.4673 111.514 64.8033 114.57 64.1393 117.625C63.9938 118.295 64.5809 119.029 65.3073 118.793C67.3485 118.129 69.3841 117.444 71.4318 116.8C73.0059 116.305 74.6604 116.584 75.6703 118.004C77.0116 119.89 76.0686 122.299 74.1077 123.238C72.1303 124.185 70.0775 124.999 68.0687 125.878C66.227 126.682 64.2854 127.288 62.8752 128.785C60.434 131.376 58.8675 134.788 57.2827 137.934C55.3068 141.856 53.1163 145.639 51.4143 149.698C47.8371 158.231 45.5378 168.38 49.1155 177.296C56.559 195.847 80.1999 196.952 97.15 197.265C102.252 197.36 107.383 197.372 112.454 197.993C117.445 198.604 122.373 199.773 127.129 201.398C136.582 204.627 145.284 209.794 152.823 216.329C156.406 219.435 159.598 222.948 161.518 227.332C162.709 230.05 163.923 232.759 164.968 235.537C165.583 237.174 166.156 238.835 166.579 240.533C166.881 241.743 167.248 243.161 167.008 244.415C166.545 246.834 163.333 244.085 162.688 243.136C161.43 241.287 160.873 238.915 160.554 236.73C159.149 227.098 163.25 217.187 168.142 209.114C173.119 200.899 179.185 193.304 186.429 186.971C190.061 183.796 193.991 180.968 198.183 178.579C202.099 176.348 206.103 174.278 210.023 172.055C217.74 167.679 225.234 162.645 230.712 155.547C236.204 148.431 239.324 139.794 238.966 130.768C238.634 122.416 235.773 114.464 233.332 106.556C232.067 102.461 230.893 98.327 230.166 94.0983C229.785 91.8804 229.541 89.6405 229.464 87.3909C229.384 85.0457 229.7 82.6844 229.326 80.3573C228.643 76.0958 227.402 71.8691 226.432 67.6669L224.916 61.1004C224.762 60.4307 224.592 59.7968 224.733 59.0965C225.208 56.7345 228.29 55.886 229.912 57.6606C231.016 58.8687 231.165 61.3623 231.511 62.8765C232.126 65.57 232.741 68.2634 233.356 70.9569C233.696 72.4432 234.035 73.9295 234.375 75.4158C234.608 76.4386 236.349 76.2418 236.24 75.1634C235.704 69.8949 235.169 64.6263 234.634 59.3578C234.502 58.0587 234.522 56.7105 235.807 55.9515C237.757 54.7999 240.279 56.0715 240.595 58.2576C240.964 60.8059 241.03 63.4362 241.245 66.0013C241.472 68.6936 241.698 71.3859 241.924 74.0783C242.025 75.2838 243.775 75.3152 243.823 74.0783C244.025 68.8673 244.114 63.6392 244.43 58.4341C244.551 56.4358 246.268 54.8061 248.349 55.4533C249.978 55.9599 250.501 57.4547 250.446 58.9959C250.34 61.9485 250.197 64.9004 250.072 67.8522C249.959 70.5504 249.845 73.2485 249.731 75.9466C249.678 77.2002 251.477 77.1194 251.63 75.9466C252.008 73.0546 252.386 70.1626 252.764 67.2706C253.141 64.382 253.302 61.358 253.917 58.5085C254.736 54.7106 260.171 55.7027 259.881 59.487C259.825 60.2109 259.718 60.9344 259.637 61.6558C259.197 65.5544 258.758 69.453 258.319 73.3517C257.977 76.39 257.634 79.4283 257.292 82.4666C257.191 83.3665 258.357 83.6065 258.913 83.1379C260.164 82.0825 261.626 80.3237 263.267 79.9153C266.755 79.0471 268.657 83.347 266.295 85.7282C263.994 88.0482 261.519 90.2161 259.138 92.4539C258.814 92.758 258.807 93.2311 258.99 93.6044C266.795 109.534 272.067 127.297 271.367 145.177C271.017 154.109 269.068 163.005 265.244 171.107C261.519 178.999 256.134 185.904 249.59 191.658C242.328 198.043 233.91 202.945 225.322 207.312C224.233 207.866 225.193 209.505 226.281 208.952Z" fill="black"/>
<path d="M157.272 144.092C157.335 144.703 157.496 145.296 157.986 145.705C158.436 146.08 158.996 146.235 159.571 146.278C160.818 146.371 161.989 145.843 163.201 145.667C163.605 145.608 164.29 145.518 164.573 145.909C164.814 146.239 164.343 146.748 164.148 146.998C163.509 147.818 162.639 148.485 161.673 148.874C161.356 149.002 161.133 149.296 161.231 149.653C161.314 149.953 161.691 150.224 162.01 150.095C162.888 149.74 163.687 149.255 164.381 148.607C165.025 148.007 165.85 147.115 165.911 146.192C165.987 145.058 164.879 144.406 163.88 144.363C162.834 144.317 161.816 144.706 160.805 144.912C160.315 145.012 159.777 145.086 159.284 144.963C158.812 144.846 158.588 144.579 158.538 144.092C158.503 143.752 158.272 143.459 157.905 143.459C157.59 143.459 157.237 143.75 157.272 144.092Z" fill="black"/>
<path d="M50.0315 91.384C50.1516 92.9363 50.2716 94.4887 50.3917 96.041L50.9666 103.475C51.011 104.049 51.0554 104.623 51.0998 105.197C51.1394 105.708 51.5079 106.147 52.0493 106.147C52.5324 106.147 53.0385 105.711 52.9987 105.197C52.8786 103.645 52.7586 102.093 52.6385 100.54C52.4469 98.0621 52.2552 95.5841 52.0636 93.106C52.0192 92.532 51.9748 91.958 51.9304 91.384C51.8908 90.8727 51.5223 90.4346 50.9809 90.4346C50.4978 90.4346 49.9917 90.8699 50.0315 91.384Z" fill="black"/>
<path d="M258.239 81.5929C253.575 80.4427 248.669 80.4047 243.985 81.4676C242.672 81.7654 241.382 82.1554 240.122 82.6286C239.643 82.8088 239.315 83.2701 239.459 83.7966C239.586 84.2571 240.145 84.6409 240.627 84.4597C244.898 82.8557 249.478 82.2757 254.015 82.7575C255.264 82.8902 256.508 83.1217 257.734 83.424C258.232 83.5467 258.764 83.2646 258.902 82.7609C259.036 82.2754 258.739 81.7162 258.239 81.5929Z" fill="black"/>
<path d="M156.638 166.562C153.45 167.805 148.411 168.708 145.072 167.96C147.77 171.916 155.358 175.092 158.821 174.587C158.821 174.587 156.93 169.599 156.898 168.823C156.866 168.047 156.638 166.562 156.638 166.562Z" fill="black"/>
<path d="M156.386 165.648C154.582 166.346 152.683 166.8 150.771 167.077C149.954 167.196 148.871 167.279 147.946 167.283C147.463 167.286 146.979 167.269 146.497 167.226C146.398 167.218 146.299 167.208 146.2 167.197C146.135 167.19 146.07 167.182 146.005 167.173C146.097 167.186 146.085 167.183 145.97 167.167C145.754 167.13 145.539 167.092 145.325 167.046C144.58 166.883 143.751 167.713 144.253 168.44C145.555 170.329 147.456 171.754 149.434 172.874C151.414 173.995 153.597 174.903 155.835 175.344C156.913 175.556 157.984 175.655 159.074 175.504C159.552 175.437 159.901 174.769 159.737 174.336C159.411 173.476 159.095 172.612 158.788 171.745C158.559 171.1 158.334 170.453 158.128 169.8C158.049 169.549 157.972 169.297 157.906 169.043C157.883 168.953 157.863 168.863 157.843 168.773C157.78 168.5 157.857 169.045 157.844 168.752C157.81 167.936 157.677 167.117 157.554 166.311C157.476 165.804 156.839 165.523 156.386 165.648C155.844 165.797 155.645 166.307 155.722 166.816C155.732 166.876 155.74 166.935 155.749 166.995C155.759 167.062 155.769 167.13 155.778 167.197C155.786 167.253 155.82 167.5 155.807 167.405C155.793 167.3 155.829 167.576 155.835 167.621C155.848 167.727 155.86 167.833 155.872 167.939C155.897 168.158 155.92 168.377 155.936 168.597C155.973 169.112 156.075 169.58 156.225 170.073C156.612 171.345 157.073 172.595 157.533 173.841C157.656 174.175 157.78 174.508 157.906 174.841C158.127 174.451 158.348 174.062 158.569 173.673C158.879 173.629 158.574 173.668 158.502 173.674C158.42 173.68 158.338 173.685 158.256 173.688C158.049 173.695 157.841 173.692 157.634 173.681C157.445 173.671 157.257 173.655 157.07 173.633C157.021 173.628 156.972 173.621 156.924 173.616C157.14 173.64 157 173.627 156.953 173.619C156.826 173.599 156.7 173.58 156.573 173.557C155.59 173.381 154.626 173.1 153.688 172.76C153.441 172.671 153.196 172.577 152.953 172.48C152.898 172.458 152.583 172.326 152.703 172.377C152.557 172.315 152.413 172.252 152.269 172.187C151.775 171.963 151.289 171.723 150.812 171.466C150.308 171.195 149.814 170.904 149.333 170.594C149.122 170.458 148.914 170.318 148.709 170.174C148.595 170.094 148.482 170.013 148.37 169.93C148.32 169.894 148.271 169.857 148.222 169.82C148.18 169.788 148.057 169.692 148.16 169.773C147.697 169.41 147.252 169.022 146.838 168.602C146.643 168.404 146.454 168.199 146.275 167.986C146.24 167.945 146.206 167.903 146.171 167.861C146.156 167.843 146.02 167.669 146.096 167.768C146.181 167.879 146.026 167.672 146.027 167.674C145.981 167.61 145.937 167.546 145.892 167.482L144.82 168.877C146.869 169.324 148.99 169.221 151.053 168.939C153.041 168.668 155.017 168.204 156.89 167.479C157.368 167.294 157.699 166.841 157.554 166.311C157.428 165.854 156.866 165.462 156.386 165.648Z" fill="black"/>
<path d="M128.764 159.947C122.679 156.34 120.672 148.933 125.53 145.487C130.388 142.042 134.84 153.193 134.84 153.193L137.689 157.498C137.689 157.498 139.561 156.276 137.522 153.092C135.483 149.907 134.676 143.798 138.124 143.667C143.406 146.345 149.164 141.33 149.026 137.69C155.201 138.607 156.907 132.979 154.101 129.823C171.572 130.121 172.893 114.337 167.984 116.442C163.075 118.547 154.959 111.947 142.801 110.105C130.644 108.263 114.515 118.083 111.47 133.932C111.47 133.932 100.766 140.093 112.522 161.713C121.048 174.054 124.475 173.348 127.055 170.564C129.636 167.78 128.764 159.947 128.764 159.947Z" fill="black"/>
<path d="M129.243 159.128C128.403 158.626 127.81 158.191 127.126 157.558C126.812 157.267 126.512 156.961 126.228 156.641C126.094 156.49 125.964 156.336 125.837 156.179C125.799 156.131 125.76 156.083 125.723 156.034C125.735 156.05 125.796 156.131 125.732 156.044C125.659 155.946 125.587 155.849 125.517 155.749C125.277 155.408 125.055 155.055 124.853 154.69C124.762 154.525 124.675 154.357 124.592 154.187C124.548 154.097 124.505 154.006 124.464 153.914C124.441 153.865 124.343 153.629 124.407 153.788C124.262 153.426 124.133 153.059 124.031 152.682C123.984 152.512 123.942 152.34 123.906 152.167C123.887 152.075 123.869 151.983 123.852 151.89C123.84 151.822 123.799 151.538 123.826 151.748C123.78 151.386 123.758 151.02 123.763 150.655C123.766 150.489 123.774 150.322 123.788 150.156C123.795 150.081 123.806 150.005 123.811 149.929C123.822 149.788 123.779 150.093 123.808 149.955C123.819 149.906 123.824 149.855 123.833 149.806C123.894 149.459 123.983 149.117 124.101 148.786C124.13 148.703 124.162 148.621 124.194 148.539C124.134 148.695 124.184 148.563 124.218 148.489C124.297 148.317 124.385 148.148 124.481 147.984C124.564 147.84 124.654 147.7 124.749 147.564C124.793 147.5 124.839 147.437 124.886 147.375C124.762 147.539 124.948 147.304 124.983 147.262C125.23 146.974 125.504 146.709 125.797 146.469C125.829 146.442 125.862 146.416 125.895 146.39C126.01 146.298 125.784 146.469 125.905 146.383C125.968 146.339 126.029 146.293 126.093 146.25C126.226 146.16 126.364 146.077 126.507 146.004C126.561 145.977 126.619 145.955 126.672 145.925C126.452 146.051 126.618 145.947 126.691 145.921C126.816 145.876 126.943 145.839 127.072 145.811C127.106 145.804 127.226 145.761 127.262 145.776C127.184 145.743 127.047 145.792 127.252 145.783C127.376 145.778 127.5 145.774 127.625 145.782C127.665 145.784 127.785 145.773 127.81 145.798C127.771 145.759 127.586 145.757 127.768 145.797C127.9 145.826 128.029 145.856 128.158 145.896C128.219 145.915 128.278 145.937 128.338 145.958C128.466 146.002 128.428 146.001 128.315 145.945C128.433 146.003 128.553 146.055 128.668 146.117C128.909 146.248 129.131 146.403 129.354 146.561C129.489 146.657 129.213 146.442 129.377 146.58C129.431 146.627 129.487 146.671 129.541 146.718C129.652 146.813 129.76 146.911 129.865 147.012C130.083 147.219 130.29 147.436 130.489 147.661C130.583 147.768 130.675 147.876 130.766 147.986C130.815 148.045 130.864 148.105 130.912 148.165C130.937 148.197 131.081 148.382 131.002 148.278C130.916 148.166 131.067 148.365 131.088 148.394C131.135 148.456 131.181 148.519 131.226 148.582C131.317 148.707 131.407 148.834 131.494 148.962C132.132 149.892 132.692 150.875 133.197 151.882C133.378 152.242 133.552 152.606 133.718 152.974C133.776 153.102 133.833 153.231 133.889 153.36C134.008 153.634 133.794 153.131 133.899 153.384C134.154 153.997 134.593 154.538 134.958 155.089C135.554 155.991 136.151 156.892 136.747 157.793L136.869 157.978C137.14 158.387 137.721 158.615 138.169 158.319C138.738 157.942 139.135 157.317 139.308 156.663C139.711 155.141 138.989 153.69 138.223 152.421C138.082 152.187 137.951 151.946 137.83 151.701C137.764 151.569 137.701 151.434 137.641 151.299C137.63 151.274 137.525 151.023 137.607 151.224C137.576 151.147 137.545 151.071 137.515 150.993C137.281 150.393 137.092 149.775 136.951 149.146C136.884 148.849 136.831 148.55 136.785 148.249C136.819 148.47 136.766 148.081 136.76 148.019C136.744 147.861 136.732 147.703 136.725 147.544C136.711 147.266 136.71 146.987 136.726 146.709C136.734 146.564 136.748 146.421 136.764 146.277C136.735 146.537 136.792 146.136 136.81 146.054C136.838 145.925 136.871 145.798 136.911 145.673C136.93 145.613 136.956 145.554 136.973 145.493C137.016 145.336 136.875 145.669 136.997 145.437C137.052 145.332 137.111 145.23 137.17 145.128C137.202 145.072 137.332 144.929 137.156 145.133C137.193 145.091 137.227 145.046 137.266 145.005C137.304 144.964 137.346 144.927 137.385 144.886C137.534 144.732 137.358 144.892 137.388 144.877C137.494 144.822 137.6 144.752 137.704 144.692C137.459 144.832 137.774 144.675 137.868 144.652C137.928 144.637 137.99 144.629 138.051 144.615C137.772 144.676 138.054 144.621 138.125 144.617C137.965 144.574 137.805 144.531 137.646 144.488C139.775 145.548 142.205 145.643 144.409 144.739C146.362 143.937 148.122 142.512 149.161 140.655C149.664 139.756 150.005 138.73 149.976 137.691C149.576 137.996 149.175 138.301 148.774 138.606C150.933 138.916 153.295 138.644 154.877 136.988C156.162 135.642 156.601 133.727 156.216 131.928C155.995 130.891 155.468 129.945 154.773 129.152C154.549 129.693 154.325 130.233 154.101 130.773C157.764 130.829 161.518 130.21 164.751 128.415C167.006 127.164 168.991 125.309 170.21 123.021C171.082 121.384 171.688 119.393 171.282 117.534C171.121 116.799 170.734 116.104 170.103 115.677C169.484 115.257 168.673 115.211 167.973 115.436C167.901 115.46 167.831 115.487 167.761 115.515L167.534 115.611L167.683 115.548C167.683 115.548 167.575 115.591 167.584 115.588C167.508 115.616 167.433 115.644 167.357 115.669C167.08 115.761 166.792 115.79 166.515 115.869C166.492 115.875 166.724 115.848 166.52 115.867C166.446 115.873 166.372 115.881 166.297 115.886C166.136 115.898 165.973 115.903 165.811 115.903C165.491 115.902 165.171 115.881 164.853 115.845C164.724 115.83 164.65 115.812 164.825 115.843C164.741 115.828 164.656 115.818 164.572 115.804C164.388 115.774 164.205 115.739 164.023 115.701C163.661 115.626 163.301 115.537 162.944 115.438C162.155 115.221 161.378 114.961 160.608 114.684C156.655 113.266 152.815 111.574 148.764 110.435C146.486 109.795 144.142 109.259 141.784 109.03C140.117 108.868 138.436 108.921 136.777 109.138C133.087 109.621 129.532 110.86 126.278 112.657C122.864 114.543 119.762 117.054 117.233 120.024C114.562 123.16 112.504 126.792 111.289 130.734C110.991 131.702 110.747 132.686 110.555 133.68L110.991 133.113C110.579 133.351 110.203 133.678 109.857 134.002C109.039 134.768 108.349 135.694 107.81 136.674C106.993 138.161 106.486 139.806 106.253 141.483C105.904 144.001 106.087 146.534 106.581 149.021C107.286 152.573 108.622 155.987 110.188 159.241C110.672 160.247 111.14 161.31 111.742 162.25C112.33 163.168 113.005 164.045 113.659 164.918C114.739 166.358 115.862 167.773 117.093 169.089C118.56 170.656 120.281 172.29 122.371 172.962C123.705 173.391 125.144 173.223 126.319 172.45C126.876 172.083 127.401 171.625 127.834 171.116C128.715 170.08 129.18 168.762 129.449 167.445C129.921 165.135 129.946 162.719 129.753 160.375C129.742 160.233 129.73 160.09 129.714 159.947C129.657 159.438 129.318 158.998 128.764 158.998C128.295 158.998 127.758 159.435 127.815 159.947C128.037 161.958 128.026 164.037 127.773 166.042C127.801 165.823 127.765 166.099 127.757 166.15C127.743 166.243 127.728 166.336 127.713 166.428C127.682 166.613 127.648 166.796 127.61 166.979C127.534 167.348 127.442 167.714 127.33 168.074C127.281 168.229 127.229 168.384 127.172 168.536C127.158 168.572 127.063 168.814 127.111 168.696C127.156 168.587 127.044 168.843 127.028 168.879C126.89 169.169 126.728 169.444 126.544 169.708C126.525 169.735 126.504 169.761 126.485 169.787C126.489 169.782 126.606 169.655 126.533 169.723C126.479 169.774 126.434 169.839 126.385 169.894C126.326 169.958 126.265 170.021 126.204 170.083C126.092 170.198 125.977 170.309 125.858 170.417C125.804 170.466 125.749 170.514 125.694 170.562C125.648 170.601 125.427 170.774 125.583 170.655C125.741 170.535 125.542 170.684 125.495 170.718C125.428 170.765 125.361 170.81 125.292 170.854C125.166 170.934 125.035 171.008 124.901 171.074C124.868 171.09 124.834 171.105 124.801 171.122C124.666 171.19 124.87 171.086 124.911 171.077C124.837 171.093 124.76 171.137 124.688 171.161C124.547 171.209 124.402 171.248 124.256 171.277C124.219 171.284 124.181 171.289 124.144 171.297C123.99 171.327 124.226 171.274 124.267 171.281C124.195 171.269 124.093 171.298 124.019 171.301C123.857 171.308 123.697 171.301 123.536 171.289C123.495 171.286 123.451 171.273 123.411 171.275C123.467 171.272 123.675 171.319 123.518 171.288C123.426 171.27 123.333 171.254 123.24 171.232C123.057 171.189 122.876 171.134 122.698 171.07C122.566 171.022 122.37 170.921 122.601 171.037C122.505 170.989 122.405 170.949 122.309 170.902C121.869 170.685 121.451 170.424 121.052 170.139C120.996 170.099 120.941 170.058 120.885 170.017C120.856 169.996 120.666 169.853 120.787 169.944C120.907 170.035 120.709 169.883 120.685 169.864C120.627 169.817 120.568 169.77 120.51 169.722C120.262 169.517 120.02 169.305 119.783 169.087C118.548 167.954 117.443 166.681 116.396 165.376C115.739 164.557 115.125 163.739 114.494 162.866C114.132 162.364 113.763 161.864 113.421 161.348C113.074 160.825 112.805 160.234 112.519 159.674C111.513 157.707 110.629 155.755 109.884 153.696C109.277 152.02 108.77 150.306 108.42 148.558C108.344 148.178 108.276 147.797 108.216 147.414C108.201 147.322 108.187 147.229 108.173 147.137C108.166 147.084 108.128 146.81 108.158 147.038C108.135 146.859 108.113 146.68 108.094 146.501C108.02 145.833 107.975 145.161 107.963 144.489C107.952 143.886 107.968 143.282 108.016 142.68C108.038 142.403 108.072 142.127 108.103 141.85C108.07 142.143 108.094 141.915 108.104 141.846C108.114 141.781 108.124 141.715 108.134 141.65C108.154 141.522 108.177 141.394 108.2 141.267C108.371 140.348 108.634 139.458 108.98 138.591C109.045 138.427 108.927 138.71 108.952 138.655C108.973 138.61 108.992 138.562 109.013 138.516C109.056 138.419 109.1 138.323 109.146 138.227C109.227 138.056 109.313 137.886 109.403 137.719C109.568 137.413 109.747 137.114 109.941 136.825C110.029 136.693 110.12 136.563 110.214 136.436C110.255 136.38 110.301 136.326 110.34 136.268C110.134 136.574 110.293 136.329 110.355 136.253C110.521 136.05 110.694 135.853 110.875 135.665C111.025 135.509 111.181 135.358 111.342 135.214C111.409 135.154 111.478 135.095 111.547 135.038C111.598 134.996 111.824 134.819 111.637 134.963C111.455 135.103 111.645 134.958 111.697 134.921C111.736 134.893 111.776 134.865 111.816 134.838C111.857 134.81 111.902 134.785 111.943 134.756C112.278 134.525 112.376 134.221 112.453 133.845C112.549 133.379 112.656 132.916 112.775 132.456C113.002 131.581 113.271 130.717 113.581 129.869C113.652 129.674 113.726 129.48 113.801 129.286C113.842 129.183 113.883 129.079 113.925 128.976C113.943 128.931 113.961 128.887 113.979 128.843C113.989 128.82 114.068 128.628 114.012 128.762C114.184 128.354 114.367 127.951 114.559 127.552C114.939 126.761 115.356 125.988 115.806 125.235C116.252 124.49 116.731 123.764 117.241 123.061C117.358 122.898 117.478 122.737 117.599 122.577C117.622 122.546 117.79 122.327 117.703 122.439C117.778 122.342 117.855 122.245 117.931 122.149C118.199 121.813 118.474 121.482 118.755 121.158C119.869 119.873 121.09 118.68 122.396 117.591C122.558 117.456 122.721 117.323 122.885 117.191C122.955 117.135 123.026 117.079 123.097 117.023C123.144 116.986 123.191 116.949 123.238 116.912C123.16 116.973 123.211 116.933 123.26 116.896C123.593 116.643 123.929 116.394 124.271 116.153C124.949 115.676 125.645 115.224 126.358 114.8C127.061 114.382 127.781 113.991 128.515 113.628C128.878 113.449 129.244 113.277 129.614 113.112C129.705 113.071 129.798 113.031 129.89 112.991C129.938 112.97 130.183 112.866 130.019 112.935C130.204 112.857 130.389 112.782 130.575 112.708C132.044 112.127 133.56 111.662 135.106 111.335C135.479 111.256 135.854 111.185 136.23 111.123C136.403 111.094 136.576 111.067 136.75 111.042C136.803 111.034 136.856 111.027 136.91 111.019C136.899 111.021 136.745 111.041 136.857 111.027C136.963 111.013 137.07 111 137.176 110.988C137.911 110.903 138.65 110.852 139.39 110.838C140.112 110.824 140.835 110.846 141.555 110.908C141.72 110.922 141.885 110.938 142.049 110.956C142.138 110.966 142.226 110.977 142.314 110.988C142.541 111.015 142.211 110.97 142.437 111.004C142.977 111.087 143.516 111.175 144.053 111.276C146.161 111.671 148.237 112.22 150.279 112.874C153.699 113.97 156.986 115.417 160.37 116.61C162.675 117.423 165.405 118.298 167.836 117.509C167.947 117.473 168.055 117.432 168.163 117.389C168.226 117.364 168.288 117.337 168.35 117.31C168.643 117.187 168.33 117.333 168.295 117.334C168.329 117.333 168.375 117.302 168.408 117.291C168.534 117.25 168.659 117.222 168.787 117.191C168.954 117.149 168.494 117.201 168.725 117.202C168.786 117.202 168.847 117.202 168.907 117.201C169.144 117.197 168.718 117.15 168.839 117.188C168.887 117.203 168.942 117.213 168.991 117.224C169.195 117.273 168.956 117.21 168.928 117.191C168.968 117.218 169.02 117.239 169.063 117.262C169.21 117.342 169.137 117.411 169.014 117.214C169.038 117.252 169.098 117.286 169.13 117.318C169.167 117.355 169.199 117.402 169.237 117.436C169.316 117.505 169.095 117.225 169.146 117.318C169.161 117.345 169.184 117.369 169.2 117.396C169.261 117.496 169.31 117.6 169.366 117.702C169.428 117.814 169.272 117.44 169.316 117.584C169.325 117.614 169.339 117.643 169.348 117.673C169.368 117.734 169.389 117.795 169.406 117.857C169.443 117.99 169.466 118.124 169.492 118.259C169.525 118.433 169.475 118.101 169.477 118.144C169.478 118.181 169.486 118.218 169.488 118.254C169.494 118.33 169.501 118.405 169.504 118.481C169.512 118.64 169.511 118.8 169.504 118.96C169.497 119.13 169.477 119.299 169.461 119.469C169.448 119.608 169.504 119.203 169.472 119.386C169.464 119.431 169.458 119.476 169.45 119.52C169.435 119.611 169.418 119.701 169.399 119.792C169.318 120.185 169.206 120.571 169.071 120.949C169.038 121.04 169.004 121.131 168.968 121.222C168.949 121.271 168.927 121.32 168.909 121.37C168.876 121.462 168.969 121.235 168.96 121.249C168.94 121.281 168.929 121.321 168.914 121.355C168.823 121.558 168.729 121.758 168.627 121.955C168.41 122.373 168.166 122.776 167.898 123.163C167.833 123.257 167.767 123.35 167.699 123.442C167.662 123.493 167.623 123.541 167.587 123.592C167.529 123.676 167.659 123.499 167.653 123.507C167.625 123.542 167.598 123.578 167.569 123.613C167.407 123.814 167.241 124.012 167.067 124.204C166.701 124.608 166.308 124.987 165.893 125.341C165.792 125.427 165.69 125.511 165.587 125.594C165.564 125.613 165.371 125.764 165.489 125.673C165.599 125.588 165.401 125.739 165.36 125.769C165.12 125.947 164.874 126.117 164.622 126.279C164.089 126.623 163.533 126.931 162.961 127.205C162.811 127.276 162.659 127.346 162.506 127.413C162.475 127.427 162.273 127.513 162.386 127.465C162.491 127.422 162.24 127.524 162.194 127.543C161.866 127.673 161.534 127.793 161.199 127.902C160.482 128.137 159.75 128.326 159.01 128.474C158.627 128.551 158.243 128.613 157.857 128.671C157.824 128.676 157.671 128.697 157.844 128.674C157.8 128.68 157.755 128.686 157.71 128.691C157.605 128.704 157.5 128.716 157.395 128.728C157.197 128.75 156.997 128.77 156.798 128.787C155.901 128.863 155.001 128.888 154.101 128.874C153.234 128.861 152.908 129.9 153.43 130.495C153.491 130.565 153.548 130.639 153.609 130.708C153.453 130.533 153.628 130.736 153.667 130.791C153.783 130.957 153.889 131.13 153.985 131.309C154.027 131.387 154.065 131.467 154.105 131.547C154.124 131.587 154.141 131.628 154.16 131.668C154.149 131.644 154.084 131.466 154.14 131.623C154.203 131.798 154.267 131.971 154.316 132.15C154.362 132.317 154.396 132.485 154.427 132.655C154.472 132.894 154.416 132.478 154.436 132.72C154.444 132.815 154.453 132.91 154.457 133.005C154.465 133.174 154.463 133.343 154.453 133.512C154.448 133.596 154.438 133.679 154.431 133.763C154.417 133.93 154.436 133.718 154.44 133.697C154.428 133.758 154.42 133.821 154.408 133.882C154.375 134.046 154.335 134.208 154.285 134.367C154.26 134.446 154.232 134.524 154.204 134.603C154.19 134.642 154.173 134.68 154.158 134.719C154.193 134.629 154.227 134.57 154.166 134.693C154.097 134.834 154.026 134.973 153.945 135.107C153.901 135.179 153.856 135.249 153.808 135.318C153.784 135.353 153.758 135.387 153.734 135.421C153.613 135.599 153.873 135.272 153.726 135.43C153.609 135.556 153.499 135.686 153.373 135.805C153.31 135.864 153.24 135.918 153.177 135.978C153.141 136.012 153.034 136.083 153.213 135.954C153.168 135.986 153.124 136.02 153.078 136.052C152.928 136.157 152.771 136.253 152.61 136.339C152.526 136.384 152.442 136.424 152.356 136.465C152.327 136.479 152.184 136.538 152.304 136.489C152.434 136.436 152.239 136.512 152.213 136.522C151.985 136.605 151.752 136.672 151.515 136.724C151.397 136.751 151.278 136.771 151.159 136.792C150.977 136.825 151.127 136.797 151.164 136.792C151.079 136.802 150.995 136.811 150.91 136.818C150.642 136.839 150.372 136.846 150.103 136.838C149.944 136.834 149.785 136.824 149.626 136.811C149.561 136.806 149.495 136.799 149.43 136.793C149.401 136.79 149.129 136.754 149.279 136.775C148.696 136.692 148.058 137.01 148.077 137.691C148.081 137.802 148.08 137.914 148.074 138.025C148.071 138.07 148.064 138.116 148.064 138.161C148.06 138.383 148.101 138.011 148.068 138.148C148.011 138.38 147.975 138.612 147.902 138.841C147.868 138.948 147.828 139.051 147.79 139.156C147.707 139.386 147.847 139.035 147.784 139.174C147.757 139.233 147.731 139.291 147.703 139.349C147.588 139.587 147.458 139.818 147.316 140.041C147.249 140.144 147.181 140.246 147.11 140.346C147.07 140.403 147.029 140.459 146.987 140.514C147.01 140.484 147.097 140.38 146.982 140.521C146.801 140.743 146.613 140.958 146.413 141.162C146.228 141.351 146.035 141.531 145.834 141.702C145.778 141.751 145.72 141.797 145.663 141.845C145.632 141.87 145.479 141.988 145.608 141.89C145.489 141.981 145.366 142.068 145.242 142.153C145.004 142.316 144.758 142.466 144.505 142.605C144.384 142.671 144.262 142.735 144.139 142.795C144.07 142.829 144 142.86 143.931 142.893C143.889 142.912 143.847 142.931 143.805 142.949C143.876 142.92 143.881 142.918 143.819 142.943C143.259 143.169 142.676 143.331 142.079 143.426C142.12 143.419 142.247 143.409 142.053 143.429C141.975 143.437 141.897 143.445 141.819 143.452C141.678 143.463 141.536 143.47 141.395 143.473C141.076 143.48 140.757 143.465 140.44 143.427C140.59 143.445 140.428 143.424 140.404 143.42C140.307 143.402 140.211 143.386 140.115 143.366C139.985 143.339 139.856 143.308 139.728 143.273C139.436 143.194 139.067 143.067 138.893 142.987C138.644 142.872 138.409 142.724 138.125 142.718C137.996 142.716 137.862 142.741 137.735 142.758C137.498 142.79 137.275 142.836 137.052 142.923C136.591 143.102 136.173 143.368 135.849 143.747C135.188 144.521 134.931 145.496 134.843 146.491C134.652 148.638 135.299 150.943 136.28 152.838C136.587 153.429 137.06 154.091 137.269 154.619C137.328 154.769 137.379 154.923 137.422 155.079C137.442 155.15 137.46 155.221 137.476 155.293C137.482 155.323 137.528 155.583 137.509 155.451C137.488 155.303 137.517 155.546 137.517 155.553C137.522 155.624 137.525 155.696 137.525 155.767C137.524 155.87 137.483 156.158 137.53 155.903C137.509 156.016 137.489 156.127 137.455 156.237C137.445 156.271 137.433 156.304 137.422 156.338C137.362 156.53 137.454 156.338 137.443 156.294C137.452 156.333 137.347 156.478 137.327 156.511C137.31 156.539 137.289 156.567 137.272 156.596C137.199 156.721 137.206 156.577 137.332 156.523C137.269 156.55 137.173 156.693 137.12 156.747C136.97 156.901 137.329 156.6 137.21 156.679C137.643 156.793 138.076 156.906 138.509 157.02C138.009 156.264 137.509 155.508 137.008 154.752C136.675 154.249 136.342 153.746 136.009 153.243C135.915 153.099 135.824 152.951 135.724 152.811C135.583 152.615 135.727 152.87 135.75 152.927C135.077 151.268 134.243 149.655 133.246 148.168C131.921 146.195 129.838 143.656 127.171 143.891C125.567 144.032 124.24 145.113 123.293 146.355C122.326 147.624 121.854 149.222 121.864 150.81C121.886 154.505 124.198 157.816 127.067 159.956C127.459 160.248 127.866 160.517 128.285 160.767C128.725 161.03 129.327 160.866 129.584 160.427C129.846 159.979 129.685 159.392 129.243 159.128Z" fill="black"/>
<path d="M121.138 140.737C121.417 138.457 121.29 136.085 120.429 133.955C119.568 131.825 117.913 129.958 115.761 129.153C114.074 128.522 112.201 128.568 110.43 128.893C109.107 129.136 107.812 129.528 106.577 130.061C105.478 130.535 104.344 131.212 103.929 132.335C103.514 133.458 104.308 135.018 105.499 134.897C104.163 127.657 96.2758 124.982 89.974 128.044C85.8518 130.047 82.9461 134.066 81.539 138.428C80.1319 142.79 80.087 147.483 80.5533 152.043C81.131 157.69 82.4701 163.374 81.5855 168.982C80.701 174.59 76.7667 180.278 71.1178 180.843C68.3062 181.124 65.3891 180.03 63.4561 177.969C68.1611 181.319 73.1554 184.732 78.8911 185.41C85.9292 186.241 93.0536 182.58 97.3927 176.976C101.072 172.225 104.925 162.931 103.685 156.765C103.498 155.836 102.847 154.935 101.918 154.752C100.989 154.569 99.9189 155.405 100.106 156.333C100.258 157.09 101.061 157.509 101.791 157.758C105.639 159.074 110.059 158.598 113.54 156.495C117.02 154.391 119.496 150.698 120.12 146.68" fill="black"/>
<path d="M122.088 140.738C122.372 138.354 122.229 135.846 121.305 133.606C120.502 131.66 119.154 129.92 117.319 128.847C115.187 127.601 112.676 127.539 110.302 127.956C109.085 128.169 107.891 128.511 106.746 128.971C105.725 129.38 104.685 129.852 103.908 130.656C103.071 131.523 102.629 132.73 103.011 133.913C103.358 134.989 104.299 135.93 105.499 135.847C106.15 135.802 106.535 135.279 106.415 134.645C105.952 132.196 104.665 129.9 102.7 128.344C100.778 126.823 98.4404 125.996 95.9983 125.863C90.2265 125.549 85.1848 129.273 82.4096 134.115C78.8854 140.265 78.9997 147.582 79.8813 154.398C80.3578 158.083 80.9879 161.774 80.9265 165.502C80.8999 167.111 80.7503 168.722 80.348 170.284C79.9852 171.692 79.5373 172.825 78.8501 174.062C78.1712 175.284 77.4945 176.214 76.5128 177.179C75.5999 178.077 74.6607 178.752 73.4163 179.294C73.5819 179.222 73.2951 179.342 73.2922 179.343C73.2332 179.366 73.1739 179.389 73.1144 179.411C72.9655 179.465 72.815 179.516 72.6634 179.563C72.3271 179.667 71.9847 179.752 71.6386 179.817C71.575 179.829 71.5113 179.84 71.4475 179.851C71.4432 179.851 71.1275 179.895 71.3137 179.872C71.1409 179.894 70.9674 179.909 70.7936 179.92C70.4144 179.944 70.0338 179.943 69.6547 179.918C68.3035 179.831 66.8888 179.356 65.6899 178.596C65.0947 178.219 64.6353 177.832 64.128 177.298L62.9775 178.789C68.5569 182.76 74.7456 186.857 81.905 186.448C88.4328 186.075 94.4672 182.416 98.3652 177.257C100.111 174.947 101.448 172.333 102.544 169.66C103.711 166.812 104.569 163.798 104.815 160.72C104.926 159.324 104.894 157.887 104.601 156.513C104.252 154.871 102.631 153.292 100.856 153.912C100.073 154.186 99.3869 154.816 99.1925 155.643C98.963 156.619 99.4811 157.499 100.253 158.056C100.912 158.532 101.753 158.77 102.531 158.971C103.391 159.192 104.277 159.329 105.162 159.398C108.533 159.66 112.05 158.746 114.818 156.792C117.47 154.92 119.469 152.223 120.497 149.144C120.738 148.422 120.916 147.683 121.036 146.932C121.116 146.427 120.905 145.911 120.373 145.764C119.921 145.64 119.286 145.918 119.205 146.428C118.978 147.85 118.539 149.206 117.917 150.412C117.251 151.702 116.486 152.758 115.485 153.763C113.453 155.805 110.664 157.153 107.804 157.459C106.27 157.624 104.765 157.549 103.315 157.208C102.96 157.125 102.609 157.027 102.262 156.915C102.097 156.862 101.929 156.808 101.768 156.741C101.896 156.794 101.705 156.709 101.676 156.695C101.572 156.643 101.475 156.581 101.372 156.526C101.235 156.453 101.281 156.471 101.327 156.506C101.252 156.45 101.184 156.381 101.12 156.312C101.148 156.342 101.225 156.417 101.099 156.285C100.954 156.131 101.093 156.324 101.058 156.218L101.044 156.174C101.018 156.056 101.015 156.05 101.035 156.155L101.035 156.067C101.019 156.161 101.018 156.174 101.034 156.106C101.041 156.048 101.129 155.906 101.047 156.05C101.062 156.023 101.212 155.835 101.103 155.954C101.092 155.966 101.301 155.767 101.206 155.845C101.11 155.923 101.352 155.753 101.337 155.764C101.552 155.617 101.264 155.776 101.404 155.728C101.476 155.704 101.55 155.682 101.626 155.669C101.464 155.697 101.612 155.678 101.646 155.676C101.882 155.667 101.524 155.61 101.761 155.689C101.823 155.71 101.885 155.722 101.945 155.747C101.806 155.691 102.07 155.827 102.101 155.847C102.239 155.936 101.968 155.705 102.174 155.904C102.221 155.949 102.266 155.996 102.312 156.04C102.499 156.217 102.264 155.939 102.409 156.155C102.445 156.209 102.481 156.265 102.515 156.322C102.612 156.487 102.64 156.547 102.667 156.637C102.722 156.82 102.768 156.999 102.803 157.188C102.829 157.332 102.852 157.476 102.874 157.621C102.845 157.428 102.894 157.801 102.9 157.855C102.933 158.173 102.954 158.493 102.965 158.812C102.986 159.448 102.966 160.086 102.916 160.72C102.855 161.479 102.796 161.907 102.66 162.659C102.536 163.344 102.384 164.024 102.21 164.697C101.842 166.112 101.376 167.501 100.833 168.858C99.8978 171.196 98.6087 173.679 97.0804 175.816C96.997 175.932 96.9125 176.048 96.8269 176.163C96.7933 176.209 96.7595 176.254 96.7255 176.299C96.7233 176.302 96.5553 176.519 96.6553 176.391C96.4326 176.676 96.2022 176.956 95.9656 177.23C95.4792 177.793 94.965 178.333 94.4259 178.846C93.3543 179.866 92.3029 180.689 91.0551 181.478C89.819 182.26 88.5071 182.923 87.2067 183.403C86.5326 183.652 85.8458 183.866 85.1491 184.042C84.8018 184.13 84.452 184.208 84.1003 184.276C83.9246 184.31 83.7484 184.341 83.5718 184.37C83.5012 184.382 83.4305 184.393 83.3598 184.404C83.2245 184.425 83.1751 184.431 83.1339 184.437C80.0632 184.828 77.1052 184.352 74.2251 183.243C71.273 182.107 68.5153 180.34 65.9005 178.532C65.2418 178.077 64.5882 177.614 63.9359 177.15C63.555 176.879 62.9717 177.045 62.7111 177.394C62.4255 177.776 62.4523 178.29 62.7853 178.641C64.9246 180.894 68.1644 182.138 71.2649 181.777C74.0834 181.449 76.5861 179.995 78.4597 177.886C80.3352 175.775 81.6355 173.147 82.2741 170.401C83.0866 166.908 82.888 163.252 82.4785 159.72C82.0566 156.081 81.4117 152.467 81.27 148.801C81.1353 145.318 81.4124 141.803 82.5212 138.48C83.3985 135.851 84.8773 133.334 86.8894 131.378C88.7917 129.528 91.0116 128.305 93.6439 127.872C93.7154 127.86 93.787 127.85 93.8585 127.839C94.1337 127.796 93.7386 127.852 93.9066 127.833C94.0352 127.818 94.1638 127.803 94.2928 127.792C94.6058 127.764 94.9199 127.749 95.2341 127.745C95.5171 127.742 95.8003 127.75 96.0829 127.767C96.2232 127.776 96.3635 127.787 96.5035 127.801C96.5593 127.806 96.6151 127.812 96.6709 127.818C96.7266 127.825 96.7822 127.831 96.8377 127.838C96.7378 127.825 96.7229 127.823 96.7931 127.833C97.3556 127.918 97.9112 128.039 98.4552 128.206C98.7176 128.286 98.977 128.377 99.2325 128.477C99.2283 128.476 99.4773 128.577 99.347 128.523C99.2167 128.468 99.4631 128.574 99.4592 128.572C99.6084 128.639 99.7561 128.71 99.902 128.784C100.387 129.03 100.852 129.315 101.29 129.638C101.311 129.653 101.524 129.82 101.357 129.687C101.4 129.721 101.442 129.755 101.484 129.789C101.59 129.876 101.693 129.964 101.795 130.055C102.019 130.255 102.234 130.466 102.438 130.688C102.873 131.159 103 131.325 103.35 131.887C103.501 132.13 103.641 132.379 103.769 132.634C103.834 132.764 103.894 132.896 103.956 133.027C104.075 133.281 103.917 132.927 103.981 133.083C104.021 133.179 104.059 133.276 104.095 133.373C104.311 133.95 104.47 134.545 104.584 135.15C104.889 134.749 105.194 134.349 105.5 133.948C105.418 133.954 105.338 133.957 105.256 133.95C105.487 133.969 105.254 133.932 105.205 133.917C105.413 133.982 105.2 133.9 105.156 133.876C104.968 133.773 105.242 133.997 105.104 133.829C105.085 133.806 104.919 133.605 105.043 133.777C104.995 133.71 104.951 133.639 104.912 133.567C104.896 133.538 104.804 133.296 104.869 133.489C104.833 133.381 104.806 133.273 104.778 133.162C104.716 132.922 104.76 133.326 104.77 133.078C104.773 132.994 104.77 132.909 104.774 132.825C104.763 133.04 104.784 132.789 104.795 132.747C104.794 132.749 104.882 132.494 104.827 132.626C104.996 132.22 105.191 132.027 105.549 131.723C105.738 131.562 106.169 131.308 106.492 131.144C106.915 130.93 107.353 130.754 107.798 130.593C108.814 130.223 109.864 129.944 110.931 129.765C111.909 129.602 112.949 129.543 113.941 129.673C114.816 129.787 115.602 130.051 116.316 130.461C117.749 131.285 118.79 132.579 119.487 134.146C119.86 134.983 120.158 136.208 120.256 137.228C120.369 138.397 120.328 139.573 120.189 140.738C120.129 141.248 120.669 141.687 121.139 141.687C121.702 141.687 122.027 141.249 122.088 140.738Z" fill="black"/>
<path d="M155.702 155.376C157.068 155.456 158.515 155.483 159.733 154.759C160.017 154.59 160.146 154.182 159.96 153.893C159.775 153.607 159.398 153.485 159.094 153.666C159.024 153.708 158.953 153.748 158.88 153.785C158.86 153.795 158.645 153.892 158.756 153.847C158.626 153.9 158.492 153.944 158.356 153.982C158.201 154.026 158.042 154.061 157.883 154.088C157.857 154.092 157.683 154.117 157.809 154.1C157.728 154.111 157.646 154.119 157.564 154.126C156.945 154.178 156.322 154.147 155.702 154.11C155.371 154.091 155.054 154.415 155.069 154.743C155.085 155.103 155.347 155.355 155.702 155.376Z" fill="black"/>
<path d="M157.596 138.577C157.691 138.484 157.789 138.394 157.891 138.309C157.913 138.291 157.941 138.258 157.968 138.247C157.861 138.293 157.941 138.267 157.978 138.24C158.031 138.2 158.086 138.162 158.141 138.125C158.368 137.972 158.608 137.842 158.857 137.727C158.926 137.696 158.882 137.706 158.843 137.732C158.869 137.715 158.908 137.707 158.936 137.696C158.998 137.672 159.06 137.649 159.123 137.628C159.249 137.585 159.376 137.548 159.505 137.516C159.642 137.482 159.78 137.459 159.919 137.433C160.011 137.416 159.806 137.445 159.899 137.436C159.932 137.432 159.965 137.428 159.998 137.425C160.072 137.417 160.146 137.412 160.221 137.408C160.551 137.39 160.87 137.13 160.854 136.775C160.839 136.448 160.575 136.123 160.221 136.142C158.902 136.214 157.645 136.755 156.701 137.682C156.465 137.914 156.451 138.347 156.701 138.577C156.956 138.811 157.344 138.825 157.596 138.577Z" fill="black"/>
<path d="M148.424 144.447C148.626 144.226 148.843 144.019 149.076 143.831C149.086 143.823 149.173 143.754 149.112 143.801C149.043 143.854 149.171 143.758 149.171 143.758C149.226 143.718 149.282 143.678 149.339 143.64C149.466 143.553 149.596 143.472 149.73 143.396C149.856 143.323 149.985 143.256 150.116 143.193C150.186 143.16 150.256 143.129 150.326 143.098C150.204 143.152 150.371 143.082 150.413 143.066C150.701 142.957 150.997 142.872 151.298 142.809C151.623 142.741 151.841 142.341 151.74 142.03C151.629 141.687 151.309 141.515 150.962 141.588C149.653 141.862 148.43 142.564 147.529 143.552C147.306 143.796 147.269 144.208 147.529 144.447C147.772 144.67 148.186 144.708 148.424 144.447Z" fill="black"/>
<path d="M153.212 146.85C154.57 146.975 154.38 144.598 153.003 145.079C152.509 145.252 152.226 145.922 152.47 146.397C152.608 146.666 152.911 146.822 153.212 146.85Z" fill="black"/>
<path d="M153.212 147.482C153.751 147.528 154.285 147.254 154.554 146.784C154.784 146.382 154.836 145.862 154.694 145.421C154.54 144.945 154.174 144.518 153.664 144.417C152.971 144.28 152.228 144.62 151.927 145.273C151.713 145.738 151.69 146.229 151.914 146.696C152.024 146.927 152.233 147.123 152.449 147.253C152.687 147.396 152.94 147.454 153.212 147.482C153.363 147.498 153.556 147.4 153.659 147.297C153.769 147.187 153.852 147.007 153.845 146.849C153.837 146.686 153.784 146.516 153.659 146.402C153.528 146.282 153.388 146.235 153.212 146.216C153.194 146.215 153.177 146.213 153.16 146.21L153.328 146.233C153.233 146.218 153.142 146.193 153.053 146.156L153.204 146.22C153.133 146.188 153.066 146.149 153.003 146.102L153.131 146.201C153.078 146.158 153.03 146.111 152.987 146.058L153.086 146.186C153.046 146.133 153.015 146.077 152.989 146.016L153.053 146.167C153.028 146.105 153.011 146.041 153 145.974L153.023 146.143C153.011 146.053 153.012 145.964 153.024 145.875L153.001 146.043C153.015 145.953 153.04 145.866 153.075 145.782L153.011 145.933C153.047 145.85 153.092 145.772 153.147 145.699L153.048 145.827C153.099 145.762 153.156 145.704 153.22 145.653L153.092 145.752C153.151 145.707 153.214 145.67 153.282 145.641L153.13 145.705C153.219 145.669 153.312 145.645 153.407 145.632L153.239 145.655C153.313 145.646 153.387 145.645 153.462 145.655L153.293 145.632C153.356 145.641 153.416 145.657 153.474 145.681L153.323 145.617C153.377 145.641 153.428 145.671 153.476 145.707L153.348 145.608C153.401 145.65 153.448 145.697 153.489 145.751L153.39 145.623C153.437 145.685 153.475 145.752 153.505 145.823L153.441 145.672C153.479 145.762 153.504 145.856 153.517 145.952L153.495 145.784C153.509 145.891 153.509 145.998 153.494 146.105L153.517 145.937C153.504 146.028 153.48 146.117 153.444 146.203L153.507 146.052C153.478 146.119 153.442 146.182 153.397 146.241L153.496 146.113C153.456 146.164 153.411 146.209 153.36 146.249L153.488 146.15C153.438 146.188 153.385 146.219 153.328 146.244L153.479 146.18C153.412 146.207 153.343 146.225 153.271 146.236L153.44 146.213C153.364 146.222 153.288 146.223 153.212 146.216C153.058 146.203 152.87 146.296 152.764 146.402C152.654 146.512 152.572 146.692 152.579 146.849C152.586 147.013 152.64 147.183 152.764 147.297C152.894 147.416 153.036 147.467 153.212 147.482Z" fill="black"/>
<path d="M160.174 141.363C161.532 141.489 161.343 139.112 159.966 139.593C159.472 139.765 159.188 140.435 159.433 140.911C159.571 141.179 159.874 141.335 160.174 141.363Z" fill="black"/>
<path d="M160.175 141.997C160.714 142.043 161.248 141.769 161.517 141.298C161.747 140.897 161.799 140.376 161.657 139.936C161.503 139.46 161.137 139.032 160.627 138.931C159.934 138.794 159.191 139.134 158.89 139.788C158.675 140.253 158.653 140.744 158.877 141.211C158.987 141.442 159.196 141.638 159.412 141.768C159.65 141.911 159.903 141.969 160.175 141.997C160.326 142.013 160.519 141.915 160.622 141.812C160.732 141.702 160.815 141.522 160.808 141.364C160.8 141.2 160.746 141.03 160.622 140.916C160.491 140.796 160.351 140.749 160.175 140.731C160.157 140.729 160.14 140.727 160.123 140.725L160.291 140.748C160.196 140.733 160.105 140.708 160.016 140.67L160.167 140.734C160.095 140.702 160.029 140.664 159.966 140.617L160.094 140.716C160.04 140.673 159.993 140.626 159.95 140.572L160.049 140.7C160.009 140.647 159.977 140.592 159.952 140.531L160.015 140.682C159.991 140.619 159.974 140.555 159.963 140.489L159.986 140.657C159.974 140.568 159.975 140.479 159.987 140.389L159.964 140.558C159.978 140.468 160.003 140.381 160.038 140.297L159.974 140.448C160.01 140.364 160.055 140.287 160.11 140.214L160.011 140.342C160.062 140.277 160.118 140.219 160.183 140.168L160.055 140.267C160.114 140.222 160.176 140.185 160.244 140.156L160.093 140.219C160.182 140.184 160.275 140.16 160.37 140.147L160.201 140.169C160.276 140.161 160.35 140.16 160.424 140.169L160.256 140.147C160.318 140.156 160.378 140.172 160.437 140.196L160.285 140.132C160.34 140.156 160.391 140.185 160.439 140.222L160.311 140.123C160.364 140.164 160.411 140.212 160.452 140.266L160.353 140.137C160.4 140.199 160.437 140.267 160.468 140.338L160.404 140.187C160.442 140.277 160.466 140.37 160.48 140.467L160.458 140.299C160.472 140.405 160.472 140.513 160.457 140.619L160.48 140.451C160.466 140.543 160.443 140.632 160.407 140.718L160.47 140.566C160.441 140.634 160.405 140.697 160.36 140.756L160.459 140.628C160.419 140.678 160.374 140.724 160.323 140.764L160.451 140.665C160.401 140.702 160.348 140.733 160.291 140.758L160.442 140.694C160.375 140.722 160.306 140.74 160.234 140.75L160.403 140.728C160.327 140.737 160.251 140.737 160.175 140.731C160.021 140.718 159.832 140.811 159.727 140.916C159.617 141.026 159.535 141.206 159.542 141.364C159.549 141.528 159.603 141.697 159.727 141.812C159.857 141.93 159.999 141.982 160.175 141.997Z" fill="black"/>
<path d="M217.622 5.20577C216.861 4.63095 215.98 4.89532 215.375 5.52008C210.718 10.333 206.06 15.1459 201.402 19.9589C201.054 20.3181 200.707 20.6774 200.359 21.0367C198.513 20.1069 196.667 19.1771 194.821 18.2473C194.181 17.9254 193.347 18.2357 192.93 18.765C189.136 23.5837 185.341 28.4024 181.547 33.221C181.292 33.5454 181.036 33.8698 180.781 34.1942C178.93 33.2891 177.078 32.384 175.227 31.4789C174.574 31.1597 173.767 31.4688 173.337 31.9967C169.119 37.1663 164.902 42.3359 160.684 47.5055C160.095 48.2279 159.506 48.9505 158.916 49.6729C157.608 51.2764 160.173 53.2045 161.477 51.6055C165.695 46.4359 169.912 41.2663 174.13 36.0968C174.439 35.7179 174.748 35.3391 175.057 34.9602C176.915 35.8688 178.773 36.7773 180.631 37.6858C181.275 38.0007 182.101 37.7022 182.522 37.1681C186.316 32.3494 190.111 27.5308 193.905 22.7121C194.157 22.3914 194.41 22.0708 194.662 21.7502C196.466 22.6585 198.27 23.567 200.073 24.4753C200.764 24.8233 201.489 24.4478 201.964 23.9576C206.622 19.1447 211.279 14.3317 215.937 9.51876C216.604 8.83004 217.27 8.14137 217.937 7.45265C218.54 6.8295 218.254 5.68263 217.622 5.20577Z" fill="#111F78"/>
<path d="M218.857 12.8736L222.768 0L210.155 4.28975L216.599 7.01794L218.857 12.8736Z" fill="#111F78"/>
<path d="M147.613 64.6421L131.278 68.3774C129.784 68.7191 128.849 70.2075 129.191 71.7019L130.484 77.3543C130.825 78.8487 132.314 79.7831 133.808 79.4414L150.143 75.7061C151.637 75.3644 152.572 73.876 152.23 72.3816L150.938 66.7292C150.596 65.2348 149.107 64.3004 147.613 64.6421Z" fill="#111F78"/>
<path d="M146.572 18.4473H124.281C122.191 18.4473 120.497 20.1413 120.497 22.231V29.8549C120.497 31.9446 122.191 33.6386 124.281 33.6386H146.572C148.662 33.6386 150.356 31.9446 150.356 29.8549V22.231C150.356 20.1413 148.662 18.4473 146.572 18.4473Z" fill="#4367F5"/>
<path d="M127.132 25.0848H120.509C119.535 25.0848 118.561 25.0829 117.587 25.0848C115.634 25.0887 113.839 26.1895 113.068 28.0071C112.806 28.6254 112.714 29.268 112.596 29.9227L112.041 32.9816C111.524 35.8383 111.006 38.695 110.488 41.5518C110.156 43.3859 109.809 45.218 109.491 47.0547C109.486 47.0832 109.481 47.1116 109.476 47.1401C109.384 47.6441 109.613 48.1636 110.139 48.308C110.599 48.4345 111.215 48.1521 111.307 47.6449C111.577 46.1532 111.847 44.6615 112.118 43.1698C112.632 40.3341 113.145 37.4985 113.659 34.6628C113.971 32.9438 114.276 31.2234 114.594 29.5056C114.618 29.3765 114.644 29.2481 114.679 29.1213C114.791 28.7118 115.012 28.2937 115.252 28.0207C115.379 27.8756 115.617 27.649 115.694 27.5895C115.661 27.6145 115.849 27.4822 115.899 27.4505C116.03 27.3676 116.167 27.296 116.305 27.2267C116.328 27.2154 116.471 27.1587 116.335 27.2116C116.378 27.1947 116.422 27.1787 116.466 27.1633C116.585 27.1221 116.705 27.0867 116.827 27.0573C116.889 27.0425 116.951 27.0292 117.013 27.0174C117.035 27.0132 117.229 26.9853 117.123 26.9981C117.026 27.0097 117.184 26.9948 117.188 26.9947C117.285 26.9907 117.382 26.9847 117.48 26.9837C118.2 26.9763 118.92 26.9837 119.641 26.9837C122.084 26.9837 124.528 26.9837 126.971 26.9837H127.132C128.354 26.9837 128.356 25.0848 127.132 25.0848Z" fill="#4367F5"/>
<path d="M143.824 76.5179C144.507 77.6818 145.189 78.8457 145.871 80.0096C146.391 80.8958 147.071 81.6728 148.019 82.1167C149.047 82.5983 150.133 82.7053 151.241 82.4647C154.037 81.8573 156.83 81.2318 159.624 80.6153C160.693 80.3796 161.762 80.1438 162.831 79.9081C163.332 79.7976 163.625 79.2162 163.494 78.7401C163.352 78.2237 162.828 77.9662 162.326 78.077C159.824 78.6289 157.322 79.1808 154.82 79.7327C153.553 80.0122 152.286 80.2916 151.019 80.5711C150.509 80.6835 150.256 80.7491 149.695 80.6829C149.834 80.6993 149.669 80.6769 149.65 80.6725C149.552 80.6507 149.454 80.6314 149.357 80.605C149.23 80.57 149.102 80.5297 148.979 80.4798C149.107 80.5319 148.916 80.448 148.888 80.4336C148.813 80.3964 148.74 80.3572 148.668 80.3151C148.611 80.2814 148.555 80.2463 148.499 80.2097C148.499 80.2097 148.259 80.032 148.369 80.1203C148.003 79.8263 147.839 79.609 147.621 79.239C146.898 78.0148 146.183 76.786 145.464 75.5595C145.205 75.1174 144.608 74.9598 144.165 75.2188C143.721 75.4782 143.564 76.0739 143.824 76.5179Z" fill="#111F78"/>
<path d="M200.293 129.758C207.285 129.758 212.953 124.091 212.953 117.099C212.953 110.107 207.285 104.439 200.293 104.439C193.302 104.439 187.634 110.107 187.634 117.099C187.634 124.091 193.302 129.758 200.293 129.758Z" fill="#4367F5"/>
<path d="M193.983 113.406L200.973 118.331L207.833 99.6074L213.899 102.821L202.297 123L191.381 117.763L193.983 113.406Z" fill="#FF5A48"/>
<path d="M21.6192 64.5565C22.8096 65.866 24.0001 67.1754 25.1905 68.4849C25.5255 68.8534 26.1976 68.8505 26.5332 68.4849C26.8948 68.091 26.8906 67.5353 26.5332 67.1422C25.3428 65.8327 24.1524 64.5232 22.962 63.2138C22.627 62.8453 21.9548 62.8482 21.6192 63.2138C21.2576 63.6076 21.2619 64.1634 21.6192 64.5565Z" fill="#111F78"/>
<path d="M16.5762 81.2622C18.3619 81.2622 20.1475 81.2622 21.9331 81.2622C22.4298 81.2622 22.9056 80.8255 22.8826 80.3127C22.8596 79.7983 22.4654 79.3633 21.9331 79.3633C20.1475 79.3633 18.3619 79.3633 16.5762 79.3633C16.0796 79.3633 15.6038 79.8 15.6268 80.3127C15.6498 80.8271 16.044 81.2622 16.5762 81.2622Z" fill="#111F78"/>
<path d="M31.3745 53.0677C31.6126 53.6629 31.8506 54.2581 32.0887 54.8534C32.1181 54.9769 32.1747 55.0845 32.2587 55.1762C32.3256 55.2796 32.4144 55.3611 32.5251 55.4208C32.7286 55.5399 33.0285 55.5903 33.2567 55.5165C33.4864 55.4422 33.7081 55.2998 33.8241 55.0801C33.9357 54.8688 34.0127 54.5808 33.9198 54.3485C33.6817 53.7533 33.4436 53.1581 33.2056 52.5629C33.1762 52.4393 33.1195 52.3317 33.0356 52.24C32.9687 52.1366 32.8799 52.0551 32.7692 51.9955C32.5657 51.8764 32.2658 51.8259 32.0376 51.8998C31.8079 51.9741 31.5862 52.1165 31.4702 52.3361C31.3585 52.5474 31.2816 52.8354 31.3745 53.0677Z" fill="#111F78"/>
<path d="M269.023 35.2729C270.451 34.0825 271.88 32.892 273.308 31.7016C273.691 31.3824 273.663 30.6843 273.308 30.3589C272.901 29.985 272.374 30.0184 271.966 30.3589C270.537 31.5493 269.109 32.7397 267.68 33.9301C267.297 34.2494 267.326 34.9475 267.68 35.2729C268.087 35.6468 268.614 35.6134 269.023 35.2729Z" fill="#111F78"/>
<path d="M271.107 48.7437C271.902 48.5084 272.711 48.3251 273.531 48.2014C273.536 48.2006 273.837 48.1589 273.657 48.1823C273.752 48.17 273.847 48.1586 273.942 48.1479C274.164 48.1229 274.386 48.1021 274.609 48.0855C275.022 48.0546 275.436 48.0394 275.851 48.0366C276.347 48.0332 276.823 47.6023 276.8 47.0872C276.777 46.5756 276.383 46.1341 275.851 46.1377C274.078 46.1498 272.302 46.4098 270.602 46.9126C270.126 47.0534 269.779 47.5861 269.939 48.0806C270.095 48.5625 270.597 48.8946 271.107 48.7437Z" fill="#111F78"/>
<path d="M252.373 26.0263C252.135 27.812 251.897 29.5976 251.66 31.3833C251.594 31.8777 252.143 32.3536 252.609 32.3328C253.18 32.3072 253.488 31.913 253.559 31.3833C253.796 29.5976 254.034 27.812 254.272 26.0263C254.338 25.5319 253.788 25.0559 253.322 25.0768C252.752 25.1024 252.444 25.4965 252.373 26.0263Z" fill="#111F78"/>
</g>
<defs>
<clipPath id="clip0_3063_4343">
<rect width="287" height="256" fill="white"/>
</clipPath>
</defs>
</svg>
