<svg width="523" height="523" viewBox="0 0 523 523" fill="none" xmlns="http://www.w3.org/2000/svg">
<g clip-path="url(#clip0_5395_5906)">
<path d="M158.205 469.251C165.982 423.628 170.686 383.259 173.11 345.367C175.91 301.598 176.997 274.185 173.499 229.599C172.37 215.218 183.127 202.647 197.524 201.52C211.919 200.392 224.507 211.137 225.635 225.518C232.471 312.65 226.709 376.834 209.711 476.548C207.539 489.283 155.78 483.471 158.205 469.251Z" fill="white"/>
<path d="M191.226 484.473C179.847 484.473 166.641 481.399 160.747 476.518C158.072 474.302 156.895 471.739 157.344 469.104C164.857 425.034 169.729 384.54 172.239 345.311C174.884 303.975 176.23 275.564 172.629 229.666C171.465 214.83 182.602 201.814 197.455 200.651C204.647 200.086 211.633 202.357 217.12 207.041C222.607 211.725 225.939 218.262 226.503 225.449C229.882 268.518 230.193 306.942 227.48 346.374C224.963 382.95 219.906 421.924 210.569 476.693C210.134 479.246 208.068 481.224 204.429 482.571C200.907 483.875 196.243 484.473 191.226 484.473V484.473ZM158.203 469.25L159.063 469.396C158.719 471.411 159.661 473.356 161.86 475.178C167.413 479.777 180.328 482.713 191.321 482.714C196.109 482.714 200.53 482.157 203.823 480.938C206.836 479.823 208.527 478.296 208.851 476.4C225.017 381.57 231.917 316.742 224.765 225.585C224.238 218.862 221.12 212.746 215.987 208.365C210.854 203.982 204.316 201.86 197.591 202.387C183.696 203.475 173.278 215.652 174.366 229.531C177.977 275.544 176.628 304.01 173.979 345.422C171.465 384.714 166.586 425.266 159.063 469.396L158.203 469.25V469.25Z" fill="black"/>
<path d="M161.224 450.348C164.995 416.848 168.988 377.105 170.008 336.332C171.031 295.436 170.453 271.472 165.311 231.109C163.082 213.62 175.47 197.637 192.979 195.411C210.487 193.185 226.488 205.559 228.716 223.048C234.272 266.647 235.009 293.77 233.905 337.927C232.824 381.148 228.666 422.617 224.741 457.482C207.487 460.476 176.027 458.354 161.224 450.348L161.224 450.348Z" fill="#00B2FF"/>
<path d="M207.035 459.673C190.409 459.673 171.35 456.815 160.808 451.113C160.656 451.031 160.531 450.904 160.451 450.751C160.37 450.597 160.338 450.423 160.357 450.25C164.126 416.767 168.117 377.045 169.136 336.311C170.123 296.842 169.68 272.301 164.445 231.219C162.16 213.281 174.91 196.831 192.868 194.548C201.567 193.442 210.176 195.786 217.11 201.148C224.044 206.511 228.473 214.249 229.58 222.938C235.318 267.969 235.828 295.904 234.776 337.949C233.694 381.204 229.534 422.696 225.606 457.58C225.585 457.767 225.504 457.942 225.375 458.079C225.245 458.216 225.075 458.308 224.889 458.34C219.764 459.229 213.587 459.674 207.034 459.674L207.035 459.673ZM162.156 449.856C168.904 453.35 179.517 455.943 192.147 457.174C203.596 458.289 215.414 458.122 223.947 456.732C227.849 422.022 231.96 380.824 233.033 337.905C234.082 295.949 233.575 268.077 227.851 223.158C226.803 214.93 222.609 207.603 216.043 202.525C209.477 197.447 201.326 195.228 193.088 196.275C176.083 198.437 164.01 214.014 166.174 230.999C171.423 272.194 171.867 296.794 170.878 336.354C169.863 376.916 165.909 416.459 162.155 449.856L162.156 449.856Z" fill="black"/>
<path d="M158.205 469.251L154.66 495.584H248.025C248.025 495.584 251.17 478.219 240.705 473.279C227.605 467.095 217.02 464.071 207.134 462.053C198.541 460.299 197.609 468.484 197.609 468.484C184.52 465.641 173.86 471.526 158.205 469.251Z" fill="white"/>
<path d="M248.024 496.454H154.659C154.535 496.454 154.413 496.427 154.299 496.376C154.186 496.325 154.086 496.25 154.004 496.156C153.922 496.063 153.861 495.953 153.825 495.834C153.789 495.715 153.779 495.59 153.796 495.467L157.34 469.135C157.356 469.02 157.393 468.91 157.451 468.811C157.51 468.711 157.587 468.625 157.679 468.555C157.771 468.486 157.876 468.435 157.988 468.407C158.099 468.378 158.216 468.372 158.33 468.389C165.938 469.495 172.333 468.645 178.516 467.823C184.669 467.006 190.494 466.231 196.923 467.456C197.241 466.176 198.079 463.866 200.16 462.357C202.029 461.002 204.433 460.614 207.308 461.2C215.388 462.85 226.527 465.623 241.077 472.492C252.02 477.658 249.015 495.003 248.882 495.739C248.846 495.939 248.74 496.121 248.583 496.252C248.426 496.383 248.229 496.454 248.024 496.454L248.024 496.454ZM155.656 494.713H247.272C247.702 491.464 248.902 478.112 240.332 474.066C225.949 467.276 214.942 464.535 206.959 462.906C204.589 462.422 202.65 462.709 201.195 463.758C198.874 465.432 198.478 468.553 198.474 468.584C198.444 468.828 198.314 469.049 198.114 469.192C197.914 469.334 197.663 469.387 197.423 469.334C190.945 467.928 185.019 468.715 178.746 469.549C172.679 470.355 166.412 471.189 158.951 470.231L155.656 494.713Z" fill="black"/>
<path d="M249.402 501.21H192.901C190.52 501.21 188.269 500.502 186.529 499.096C183.739 496.84 179.672 495.659 174.075 495.765L173.355 501.21H152.162L153.56 490.837H178.404C180.376 490.837 182.273 491.24 183.982 492.02L189.188 494.399C190.898 495.181 192.797 495.584 194.769 495.584H250.097L249.402 501.21Z" fill="black"/>
<path d="M249.401 502.08H192.9C190.279 502.08 187.821 501.261 185.98 499.772C183.415 497.699 179.67 496.643 174.84 496.63L174.218 501.324C174.19 501.533 174.087 501.726 173.928 501.865C173.769 502.004 173.565 502.08 173.354 502.08H152.162C152.037 502.08 151.914 502.054 151.801 502.003C151.688 501.951 151.587 501.876 151.505 501.783C151.424 501.689 151.363 501.58 151.327 501.461C151.291 501.342 151.281 501.217 151.298 501.094L152.696 490.721C152.724 490.512 152.827 490.321 152.986 490.182C153.145 490.043 153.349 489.966 153.56 489.966H178.404C180.512 489.966 182.511 490.391 184.344 491.229L189.55 493.608C191.155 494.341 192.911 494.713 194.768 494.713H250.097C250.22 494.713 250.342 494.74 250.455 494.79C250.568 494.841 250.668 494.915 250.75 495.007C250.832 495.1 250.893 495.209 250.929 495.326C250.966 495.444 250.977 495.568 250.962 495.691L250.266 501.317C250.24 501.528 250.138 501.722 249.978 501.863C249.819 502.003 249.613 502.081 249.401 502.081L249.401 502.08ZM174.745 494.888C180.031 494.888 184.177 496.075 187.077 498.419C188.631 499.675 190.645 500.339 192.9 500.339H248.631L249.111 496.454H194.768C192.659 496.454 190.659 496.029 188.825 495.191L183.619 492.812C182.015 492.079 180.26 491.707 178.404 491.707H154.322L153.158 500.339H172.59L173.21 495.651C173.238 495.444 173.338 495.254 173.494 495.116C173.649 494.977 173.85 494.899 174.058 494.895C174.289 494.89 174.518 494.888 174.745 494.888H174.745ZM213.539 474.078C213.457 474.078 213.373 474.066 213.291 474.042L197.36 469.319C196.899 469.182 196.636 468.697 196.773 468.237C196.91 467.776 197.394 467.512 197.856 467.65L213.787 472.373C213.988 472.432 214.161 472.562 214.274 472.738C214.387 472.914 214.433 473.125 214.403 473.333C214.373 473.54 214.269 473.73 214.11 473.866C213.951 474.003 213.748 474.079 213.539 474.078Z" fill="black"/>
<mask id="mask0_5395_5906" style="mask-type:luminance" maskUnits="userSpaceOnUse" x="161" y="195" width="74" height="264">
<path d="M161.224 450.348C164.995 416.848 168.988 377.105 170.008 336.332C171.031 295.436 170.453 271.472 165.311 231.109C163.082 213.62 175.47 197.637 192.979 195.411C210.487 193.185 226.488 205.559 228.716 223.048C234.272 266.647 235.009 293.77 233.905 337.927C232.824 381.148 228.666 422.617 224.741 457.482C207.487 460.476 176.027 458.354 161.224 450.348L161.224 450.348Z" fill="white"/>
</mask>
<g mask="url(#mask0_5395_5906)">
<path d="M174.206 460.469C173.983 460.469 173.758 460.457 173.531 460.43C170.343 460.061 168.058 457.181 168.427 453.997C178.058 370.902 179.505 274.93 171.944 220.61C171.502 217.435 173.721 214.504 176.899 214.062C180.078 213.623 183.013 215.837 183.455 219.012C187.065 244.953 188.8 281.804 188.338 322.776C187.846 366.522 184.952 412.359 179.971 455.333C179.628 458.29 177.116 460.469 174.206 460.469Z" fill="white"/>
</g>
<path d="M207.035 459.673C190.409 459.673 171.35 456.815 160.808 451.113C160.656 451.031 160.531 450.904 160.451 450.751C160.37 450.597 160.338 450.423 160.357 450.25C164.126 416.767 168.117 377.045 169.136 336.311C170.123 296.842 169.68 272.301 164.445 231.219C162.16 213.281 174.91 196.831 192.868 194.548C201.567 193.442 210.176 195.786 217.11 201.148C224.044 206.511 228.473 214.249 229.58 222.938C235.318 267.969 235.828 295.904 234.776 337.949C233.694 381.204 229.534 422.696 225.606 457.58C225.585 457.767 225.504 457.942 225.375 458.079C225.245 458.216 225.075 458.308 224.889 458.34C219.764 459.229 213.587 459.674 207.034 459.674L207.035 459.673ZM162.156 449.856C168.904 453.35 179.517 455.943 192.147 457.174C203.596 458.289 215.414 458.122 223.947 456.732C227.849 422.022 231.96 380.824 233.033 337.905C234.082 295.949 233.575 268.077 227.851 223.158C226.803 214.93 222.609 207.603 216.043 202.525C209.477 197.447 201.326 195.228 193.088 196.275C176.083 198.437 164.01 214.014 166.174 230.999C171.423 272.194 171.867 296.794 170.878 336.354C169.863 376.916 165.909 416.459 162.155 449.856L162.156 449.856Z" fill="black"/>
<path d="M289.187 238.773C258.072 238.779 245.68 205.648 242.284 179.237C241.24 173.51 239.669 164.883 238.239 162.539C226.484 147.716 248.134 129.685 260.604 144.016C275.797 159.21 267.782 228.345 300.721 204.524C317.727 192.695 336.482 166.254 354.871 159.35C373.474 152.365 382.814 179.581 365.002 186.548C343.042 199.585 318.789 239.511 289.187 238.773Z" fill="white"/>
<path d="M289.986 239.654C289.716 239.654 289.448 239.651 289.177 239.644C274.841 239.643 263.21 232.826 254.607 219.38C246.296 206.393 242.851 190.459 241.423 179.371L241.421 179.362C240.461 174.096 238.858 165.306 237.52 163.035C231.136 154.939 234.218 146.287 239.792 141.666C245.361 137.05 254.445 135.634 261.242 143.423C266.936 149.142 269.351 161.574 271.907 174.735C274.789 189.568 277.768 204.906 285.656 208.018C289.463 209.521 294.225 208.148 300.21 203.819C306.989 199.104 313.941 192.156 321.301 184.8C332.158 173.951 343.383 162.733 354.564 158.535C364.436 154.829 371.702 160.355 374.277 167.058C377.058 174.297 374.893 183.575 365.387 187.333C357.832 191.835 349.972 199.578 341.651 207.775C326.471 222.73 309.291 239.653 289.986 239.654ZM289.189 237.903H289.209C289.466 237.909 289.725 237.912 289.982 237.912C308.578 237.912 325.484 221.256 340.427 206.535C348.847 198.24 356.801 190.405 364.557 185.8C364.598 185.776 364.64 185.755 364.684 185.738C373.189 182.411 375.129 174.136 372.649 167.681C370.297 161.557 363.983 156.859 355.177 160.164C344.349 164.23 333.259 175.313 322.534 186.031C315.118 193.443 308.112 200.444 301.22 205.238C294.726 209.935 289.421 211.376 285.015 209.638C276.239 206.174 273.167 190.36 270.196 175.067C267.799 162.726 265.32 149.965 259.987 144.632C259.973 144.617 259.959 144.603 259.946 144.587C253.915 137.656 245.848 138.908 240.905 143.006C235.952 147.112 233.219 154.807 238.922 161.999C238.944 162.027 238.965 162.056 238.983 162.086C240.379 164.374 241.744 171.416 243.136 179.05L243.142 179.081C243.145 179.097 243.147 179.112 243.149 179.126C245.132 194.552 249.723 208.515 256.076 218.443C264.338 231.355 275.476 237.902 289.179 237.903H289.189H289.189Z" fill="black"/>
<path d="M289.112 244.564C257.668 245.033 239.992 211.858 236.568 180.276C235.68 175.408 234.359 168.156 233.281 165.631C217.649 145.045 247.357 121.228 265.052 140.283C277.985 154.208 273.884 204.22 289.155 203.933C298.417 203.758 309.025 189.548 316.1 182.612C325.633 173.268 333.797 179.25 340.948 186.404C348.099 193.558 354.238 201.884 344.826 211.377C328.437 227.907 313.616 244.199 289.113 244.564L289.112 244.564Z" fill="white"/>
<path d="M288.462 245.439C274.017 245.439 261.292 238.365 251.625 224.947C243.211 213.269 237.558 197.45 235.705 180.401L235.699 180.367C234.84 175.662 233.547 168.581 232.518 166.067C228.851 161.196 227.378 155.788 228.257 150.422C229.044 145.62 231.689 141.122 235.705 137.755C239.865 134.266 245.005 132.378 250.167 132.434C255.974 132.499 261.343 135.008 265.691 139.69C271.729 146.193 274.098 159.96 276.389 173.274C279.037 188.666 281.538 203.204 289.138 203.062C296.037 202.932 304.032 194.259 310.455 187.291C312.254 185.34 313.953 183.496 315.489 181.991C320.076 177.494 324.712 176.02 329.664 177.486C334.17 178.821 338.208 182.432 341.564 185.789C344.935 189.162 348.566 193.222 349.932 197.763C351.438 202.771 349.97 207.424 345.444 211.989C344.63 212.811 343.817 213.633 343.005 214.457C327.453 230.206 312.764 245.082 289.125 245.435C288.904 245.438 288.682 245.44 288.462 245.44L288.462 245.439ZM249.979 134.164C245.048 134.164 240.355 136.129 236.826 139.088C229.951 144.853 226.403 155.133 233.975 165.104C234.018 165.161 234.054 165.223 234.082 165.289C235.194 167.893 236.477 174.923 237.414 180.055L237.425 180.119C237.429 180.14 237.432 180.161 237.434 180.182C239.252 196.949 244.794 212.486 253.04 223.93C262.364 236.873 274.604 243.697 288.466 243.698C288.677 243.698 288.887 243.696 289.099 243.693C312.024 243.351 326.47 228.722 341.764 213.233C342.575 212.412 343.389 211.588 344.206 210.764C352.413 202.486 348.592 195.285 340.33 187.019C332.166 178.851 325.025 175.082 316.71 183.233C315.205 184.708 313.521 186.535 311.738 188.47C305.089 195.682 296.816 204.659 289.171 204.803C289.121 204.804 289.07 204.804 289.02 204.804C280.045 204.804 277.434 189.63 274.671 173.569C272.424 160.506 270.1 146.997 264.413 140.874C259.967 136.087 254.857 134.163 249.979 134.163V134.164Z" fill="black"/>
<path d="M54.1139 449.641C44.0812 449.641 34.5113 443.841 30.1893 434.088C24.3443 420.897 28.1195 406.849 41.3249 401.011C57.1564 394.011 73.5905 382.392 85.8484 369.195C97.4224 356.733 107.554 341.317 115.963 323.375C131.086 291.101 139.057 264.451 144.254 217.807C145.851 203.471 158.781 193.143 173.133 194.738C187.486 196.333 197.826 209.248 196.229 223.585C190.346 276.391 181.082 307.631 163.327 345.52C140.474 394.287 107.285 428.564 64.6833 447.4C61.2425 448.921 57.6492 449.641 54.1139 449.641Z" fill="white"/>
<path d="M54.1142 450.512C43.4225 450.512 33.7187 444.204 29.3926 434.44C26.4167 427.724 25.8449 420.654 27.7825 414.53C29.8241 408.078 34.3852 403.128 40.9725 400.215C57.0134 393.123 73.1375 381.601 85.2101 368.603C96.7225 356.208 106.804 340.867 115.174 323.006C131.139 288.936 138.523 261.382 143.388 217.711C145.036 202.921 158.424 192.226 173.23 193.872C188.037 195.518 198.743 208.891 197.096 223.681C191.503 273.886 182.872 305.866 164.117 345.889C141.172 394.852 107.836 429.273 65.0362 448.196C61.56 449.733 57.8853 450.512 54.1142 450.512ZM170.224 195.446C157.527 195.446 146.557 205.011 145.121 217.903C142.534 241.123 139.213 259.65 134.672 276.21C130.421 291.709 124.895 306.369 116.753 323.744C108.306 341.769 98.1232 357.26 86.4881 369.787C74.2604 382.952 57.928 394.623 41.6785 401.807C29.4493 407.214 25.0526 420.343 30.9871 433.735C35.0345 442.869 44.1125 448.771 54.1148 448.771C57.6413 448.771 61.0786 448.042 64.3311 446.604C106.735 427.856 139.777 393.722 162.538 345.151C181.204 305.319 189.794 273.482 195.364 223.488C196.905 209.652 186.89 197.143 173.038 195.603C172.104 195.499 171.164 195.447 170.224 195.446Z" fill="black"/>
<path d="M195.995 246.068C190.102 287.292 183.889 309.048 171.821 340.044C153.127 388.057 125.49 424.029 89.6766 446.963C76.7812 439.135 60.325 412.619 55.3877 393.677C67.7749 385.745 78.7214 374.638 88.3346 361.575C97.5239 349.089 105.57 334.059 112.249 316.903C123.986 286.76 130.144 262.622 134.973 219.275C136.926 201.752 152.73 189.128 170.271 191.079C184.555 192.666 195.588 203.428 198.139 216.831" fill="#00B2FF"/>
<path d="M89.677 447.835C89.5201 447.835 89.3635 447.792 89.2244 447.708C76.6123 440.051 59.7587 413.9 54.5447 393.897C54.4984 393.719 54.5095 393.531 54.5765 393.36C54.6435 393.189 54.763 393.044 54.9178 392.945C66.5272 385.51 77.5341 374.782 87.6328 361.06C96.7765 348.635 104.786 333.673 111.438 316.588C123.815 284.797 129.536 260.218 134.108 219.179C135.078 210.473 139.384 202.666 146.233 197.195C153.082 191.725 161.653 189.245 170.368 190.214C177.485 191.005 183.998 194.005 189.203 198.89C194.235 203.614 197.713 209.928 198.996 216.67C199.039 216.896 198.99 217.131 198.86 217.322C198.73 217.513 198.53 217.644 198.303 217.688C198.075 217.731 197.84 217.682 197.649 217.552C197.458 217.422 197.327 217.222 197.283 216.995C194.721 203.529 183.826 193.462 170.175 191.945C161.922 191.027 153.806 193.375 147.321 198.555C140.836 203.736 136.759 211.128 135.84 219.372C131.25 260.58 125.502 285.27 113.062 317.22C106.355 334.447 98.2716 349.544 89.0373 362.092C78.9665 375.776 67.986 386.531 56.3934 394.066C58.8348 403.067 63.8747 413.942 70.2841 424.022C76.7936 434.259 83.8271 442.202 89.6698 445.934C125.1 423.088 152.464 387.36 171.009 339.73C182.483 310.261 189.019 288.711 195.133 245.946C195.149 245.833 195.187 245.724 195.246 245.626C195.304 245.527 195.381 245.441 195.473 245.373C195.564 245.304 195.668 245.254 195.779 245.226C195.89 245.197 196.006 245.191 196.119 245.207C196.232 245.224 196.341 245.262 196.44 245.32C196.538 245.378 196.624 245.455 196.693 245.547C196.762 245.638 196.812 245.742 196.84 245.853C196.868 245.964 196.875 246.079 196.859 246.192C190.721 289.126 184.157 310.766 172.634 340.361C153.872 388.549 126.12 424.662 90.1477 447.697C90.0073 447.787 89.8441 447.835 89.6773 447.835L89.677 447.835Z" fill="black"/>
<path d="M41.3252 401.012L17.1699 411.548L54.5576 497.069C54.5576 497.069 70.8691 491.04 70.9609 478.889C71.0759 463.658 69.4524 452.36 67.2336 442.221C65.3042 433.405 57.8183 436.815 57.8183 436.815C55.0265 423.303 45.6414 416.586 41.3255 401.012L41.3252 401.012Z" fill="white"/>
<path d="M54.5574 497.939C54.3878 497.939 54.2218 497.89 54.0799 497.797C53.938 497.704 53.8263 497.572 53.7585 497.417L16.3708 411.896C16.3249 411.791 16.3002 411.678 16.298 411.564C16.2958 411.45 16.3162 411.336 16.358 411.229C16.3998 411.123 16.4622 411.026 16.5416 410.944C16.621 410.861 16.7159 410.795 16.8208 410.75L40.9761 400.213C41.0905 400.163 41.2144 400.139 41.3393 400.141C41.4641 400.143 41.5871 400.172 41.6998 400.225C41.8126 400.279 41.9124 400.356 41.9927 400.452C42.073 400.547 42.1317 400.659 42.165 400.779C44.2632 408.35 47.5683 413.78 50.7645 419.031C53.9325 424.236 56.9328 429.165 58.4576 435.667C59.7164 435.305 61.9626 434.932 64.0582 435.979C66.0707 436.984 67.4255 439.022 68.0847 442.035C69.8965 450.314 71.9599 461.986 71.832 478.895C71.7367 491.502 55.5487 497.63 54.8599 497.885C54.7631 497.921 54.6607 497.939 54.5574 497.939ZM18.3171 411.997L55.015 495.94C58.1653 494.583 70.0139 488.818 70.0888 478.882C70.2152 462.146 68.1742 450.598 66.3816 442.407C65.8403 439.934 64.7962 438.295 63.2778 437.537C60.9466 436.371 58.2065 437.594 58.1792 437.607C58.0601 437.661 57.9303 437.688 57.7993 437.685C57.6684 437.683 57.5398 437.65 57.4231 437.591C57.3063 437.532 57.2044 437.447 57.1249 437.343C57.0454 437.239 56.9904 437.119 56.9639 436.991C55.5807 430.297 52.5176 425.264 49.2744 419.936C46.152 414.806 42.9279 409.509 40.7608 402.207L18.3171 411.997Z" fill="black"/>
<path d="M50.2462 501.21L27.6348 449.488C26.6821 447.309 26.3907 444.882 26.9058 442.56C27.7321 438.835 27.1214 434.497 24.7887 429.426L19.8127 431.596L11.332 412.197L20.8174 408.06L30.7714 430.828C31.5613 432.635 31.9743 434.583 31.9852 436.555L32.0184 442.56C32.0293 444.531 32.4424 446.48 33.2322 448.286L55.3887 498.967L50.2465 501.21L50.2462 501.21Z" fill="black"/>
<path d="M50.2464 502.081C50.0767 502.081 49.9107 502.031 49.7687 501.938C49.6268 501.846 49.515 501.713 49.4471 501.558L26.8357 449.836C25.7779 447.417 25.508 444.836 26.0545 442.371C26.8151 438.943 26.2396 434.976 24.3438 430.569L20.1613 432.394C20.0564 432.439 19.9435 432.464 19.829 432.466C19.7146 432.469 19.6008 432.448 19.4942 432.407C19.3876 432.365 19.2903 432.302 19.2078 432.223C19.1254 432.144 19.0594 432.049 19.0137 431.944L10.5327 412.546C10.4403 412.334 10.4358 412.094 10.5202 411.88C10.6045 411.665 10.7709 411.492 10.9827 411.4L20.4681 407.262C20.573 407.216 20.6859 407.192 20.8003 407.19C20.9148 407.187 21.0285 407.208 21.1351 407.25C21.2417 407.291 21.339 407.354 21.4214 407.433C21.5039 407.512 21.5699 407.607 21.6157 407.712L31.5697 430.48C32.4091 432.395 32.847 434.461 32.8562 436.55L32.8893 442.555C32.8974 444.408 33.2857 446.24 34.0302 447.938L56.1867 498.619C56.2325 498.724 56.2572 498.836 56.2594 498.951C56.2616 499.065 56.2412 499.179 56.1994 499.285C56.1576 499.391 56.0953 499.489 56.0159 499.571C55.9364 499.653 55.8416 499.719 55.7366 499.765L50.5945 502.008C50.4847 502.056 50.366 502.081 50.2461 502.081L50.2464 502.081ZM24.7881 428.555C25.1184 428.555 25.4339 428.743 25.5806 429.062C27.9136 434.135 28.6458 438.74 27.7567 442.749C27.2968 444.821 27.5374 447.09 28.4334 449.14L50.6962 500.063L54.2407 498.518L32.4329 448.635C31.5933 446.72 31.1555 444.655 31.1464 442.565L31.1133 436.56C31.105 434.707 30.7167 432.875 29.9723 431.177L20.3673 409.206L12.4796 412.647L20.263 430.45L24.44 428.628C24.5498 428.58 24.6681 428.555 24.7881 428.555ZM60.1156 454.774C59.9047 454.773 59.7011 454.697 59.5425 454.558C59.3839 454.419 59.281 454.228 59.253 454.019L56.9546 436.93C56.9393 436.817 56.9466 436.702 56.9759 436.591C57.0052 436.48 57.056 436.377 57.1255 436.286C57.1949 436.195 57.2816 436.119 57.3806 436.061C57.4796 436.004 57.5889 435.966 57.7024 435.951C58.1777 435.891 58.6182 436.222 58.6824 436.698L60.9808 453.787C60.9973 453.91 60.9873 454.035 60.9514 454.154C60.9155 454.273 60.8545 454.383 60.7726 454.476C60.6907 454.57 60.5897 454.645 60.4764 454.696C60.3631 454.747 60.2402 454.773 60.1159 454.773L60.1156 454.774Z" fill="black"/>
<mask id="mask1_5395_5906" style="mask-type:luminance" maskUnits="userSpaceOnUse" x="55" y="190" width="144" height="257">
<path d="M195.995 246.068C190.102 287.292 183.889 309.048 171.821 340.044C153.127 388.057 125.49 424.029 89.6766 446.963C76.7812 439.135 60.325 412.619 55.3877 393.677C67.7749 385.745 78.7214 374.638 88.3346 361.575C97.5239 349.089 105.57 334.059 112.249 316.903C123.986 286.76 130.144 262.622 134.973 219.275C136.926 201.752 152.73 189.128 170.271 191.079C184.555 192.666 195.588 203.428 198.139 216.831" fill="white"/>
</mask>
<g mask="url(#mask1_5395_5906)">
<path d="M60.1226 412.709C58.106 412.709 56.1461 411.659 55.0734 409.785C53.4801 407.003 54.4467 403.457 57.2324 401.865C101.349 376.663 131.878 311.567 140.994 223.27C143.004 203.811 152.164 197.635 161.023 191.662C163.683 189.87 167.295 190.569 169.09 193.226C170.885 195.883 170.185 199.491 167.524 201.284C159.384 206.772 154.006 210.398 152.554 224.461C150.304 246.254 146.71 267.055 141.871 286.288C136.955 305.821 130.735 323.815 123.382 339.769C115.804 356.209 106.971 370.594 97.1265 382.523C86.8465 394.981 75.3652 404.879 63.0018 411.942C62.1255 412.444 61.1327 412.709 60.1223 412.709L60.1226 412.709Z" fill="white"/>
</g>
<path d="M89.677 447.835C89.5201 447.835 89.3635 447.792 89.2244 447.708C76.6123 440.051 59.7587 413.9 54.5447 393.897C54.4984 393.719 54.5095 393.531 54.5765 393.36C54.6435 393.189 54.763 393.044 54.9178 392.945C66.5272 385.51 77.5341 374.782 87.6328 361.06C96.7765 348.635 104.786 333.673 111.438 316.588C123.815 284.797 129.536 260.218 134.108 219.179C135.078 210.473 139.384 202.666 146.233 197.195C153.082 191.725 161.653 189.245 170.368 190.214C177.485 191.005 183.998 194.005 189.203 198.89C194.235 203.614 197.713 209.928 198.996 216.67C199.039 216.896 198.99 217.131 198.86 217.322C198.73 217.513 198.53 217.644 198.303 217.688C198.075 217.731 197.84 217.682 197.649 217.552C197.458 217.422 197.327 217.222 197.283 216.995C194.721 203.529 183.826 193.462 170.175 191.945C161.922 191.027 153.806 193.375 147.321 198.555C140.836 203.736 136.759 211.128 135.84 219.372C131.25 260.58 125.502 285.27 113.062 317.22C106.355 334.447 98.2716 349.544 89.0373 362.092C78.9665 375.776 67.986 386.531 56.3934 394.066C58.8348 403.067 63.8747 413.942 70.2841 424.022C76.7936 434.259 83.8271 442.202 89.6698 445.934C125.1 423.088 152.464 387.36 171.009 339.73C182.483 310.261 189.019 288.711 195.133 245.946C195.149 245.833 195.187 245.724 195.246 245.626C195.304 245.527 195.381 245.441 195.473 245.373C195.564 245.304 195.668 245.254 195.779 245.226C195.89 245.197 196.006 245.191 196.119 245.207C196.232 245.224 196.341 245.262 196.44 245.32C196.538 245.378 196.624 245.455 196.693 245.547C196.762 245.638 196.812 245.742 196.84 245.853C196.868 245.964 196.875 246.079 196.859 246.192C190.721 289.126 184.157 310.766 172.634 340.361C153.872 388.549 126.12 424.662 90.1477 447.697C90.0073 447.787 89.8441 447.835 89.6773 447.835L89.677 447.835Z" fill="black"/>
<path d="M251.525 174.214C237.677 188.515 240.484 205.074 226.134 213.91C208.971 224.478 154.154 214.263 145.065 197.763C137.538 184.1 156.17 153.03 158.829 142.2C161.873 129.805 163.295 116.825 172.576 115.265C185.073 113.165 205.713 115.474 205.713 115.474L235.049 125.872C242.564 128.375 259.416 127.997 268.139 144.825" fill="white"/>
<path d="M204.497 219.089C204.254 219.089 204.016 219.087 203.779 219.086C194.527 219.013 184.101 217.57 174.42 215.022C158.928 210.944 147.95 204.807 144.301 198.183C138.672 187.964 146.94 168.827 152.977 154.854C155.274 149.539 157.257 144.948 157.983 141.993C158.419 140.217 158.826 138.407 159.221 136.657C161.632 125.952 163.909 115.84 172.432 114.407C184.905 112.31 204.963 114.514 205.81 114.609C205.877 114.616 205.942 114.631 206.005 114.654L235.341 125.052C236.796 125.536 238.647 125.914 240.789 126.351C249.142 128.057 261.764 130.634 268.914 144.425C268.966 144.527 268.998 144.638 269.008 144.752C269.018 144.866 269.005 144.98 268.97 145.089C268.936 145.198 268.88 145.299 268.806 145.387C268.732 145.474 268.642 145.546 268.54 145.599C268.439 145.651 268.328 145.683 268.214 145.693C268.1 145.703 267.985 145.69 267.876 145.655C267.767 145.621 267.665 145.565 267.578 145.491C267.49 145.418 267.418 145.327 267.366 145.226C260.6 132.173 248.948 129.794 240.44 128.057C238.243 127.609 236.344 127.221 234.774 126.698L205.518 116.328C203.959 116.161 184.515 114.141 172.722 116.124C165.353 117.363 163.201 126.92 160.922 137.039C160.526 138.798 160.116 140.616 159.676 142.408C158.916 145.505 156.906 150.157 154.578 155.544C148.684 169.187 140.611 187.872 145.829 197.344C149.198 203.46 160.053 209.44 174.865 213.339C192.458 217.97 215.561 219.398 225.677 213.17C233.115 208.59 235.754 201.961 238.809 194.285C241.404 187.766 244.346 180.376 250.899 173.609C250.978 173.526 251.074 173.46 251.179 173.414C251.284 173.368 251.397 173.343 251.512 173.341C251.627 173.338 251.741 173.359 251.848 173.401C251.955 173.443 252.052 173.506 252.135 173.585C252.217 173.665 252.283 173.76 252.329 173.866C252.374 173.971 252.399 174.084 252.4 174.199C252.402 174.314 252.381 174.428 252.338 174.534C252.295 174.641 252.232 174.738 252.152 174.82C245.838 181.34 243.088 188.248 240.428 194.928C237.39 202.56 234.521 209.769 226.591 214.652C220.684 218.289 211.457 219.089 204.497 219.089Z" fill="black"/>
<path d="M370.444 172.603C375.338 170.12 378.862 170.446 384.199 172.85C391.116 175.965 386.822 180.075 381.666 180.136C376.34 180.2 371.358 183.964 365.002 186.549" fill="white"/>
<path d="M365.002 187.419C364.799 187.42 364.603 187.35 364.447 187.221C364.291 187.093 364.184 186.914 364.145 186.716C364.106 186.518 364.138 186.312 364.234 186.134C364.33 185.957 364.485 185.818 364.673 185.742C366.71 184.913 368.606 183.961 370.44 183.039C374.257 181.122 377.862 179.31 381.656 179.265C384.482 179.232 386.649 177.925 386.9 176.726C387.107 175.735 385.992 174.611 383.841 173.642C378.419 171.2 375.259 171.136 370.838 173.378C370.736 173.43 370.625 173.461 370.511 173.47C370.397 173.478 370.282 173.465 370.173 173.429C370.064 173.394 369.964 173.337 369.877 173.263C369.79 173.188 369.718 173.098 369.666 172.996C369.615 172.894 369.583 172.783 369.575 172.669C369.566 172.555 369.579 172.44 369.615 172.331C369.65 172.223 369.707 172.122 369.782 172.035C369.856 171.948 369.947 171.877 370.049 171.825C375.556 169.033 379.539 169.795 384.558 172.055C388.613 173.882 388.835 175.989 388.607 177.082C388.148 179.278 385.169 180.964 381.677 181.006C378.286 181.046 375.013 182.691 371.224 184.595C369.36 185.532 367.432 186.5 365.331 187.355C365.223 187.398 365.112 187.419 365.002 187.419H365.002Z" fill="black"/>
<path d="M367.629 162.471C371.398 159.757 384.908 163.323 387.808 164.563C394.052 167.233 388.431 172.819 381.407 171.752C374.157 170.652 373.092 172.264 369.317 174.581" fill="white"/>
<path d="M369.319 175.453C369.129 175.453 368.944 175.391 368.792 175.277C368.64 175.163 368.53 175.002 368.479 174.819C368.427 174.637 368.436 174.442 368.505 174.266C368.574 174.089 368.699 173.939 368.861 173.84C369.365 173.531 369.817 173.236 370.254 172.951C373.08 171.108 374.946 169.892 381.538 170.892C385.748 171.532 389.111 169.569 389.577 167.937C389.946 166.642 388.412 165.769 387.465 165.364C383.968 163.869 371.297 160.905 368.139 163.178C368.046 163.246 367.94 163.296 367.828 163.323C367.716 163.351 367.6 163.356 367.486 163.338C367.372 163.321 367.262 163.281 367.164 163.22C367.065 163.16 366.98 163.081 366.913 162.987C366.845 162.894 366.797 162.788 366.771 162.675C366.745 162.563 366.741 162.447 366.76 162.333C366.779 162.219 366.821 162.111 366.883 162.013C366.944 161.916 367.025 161.831 367.119 161.765C371.534 158.586 385.935 162.816 388.151 163.763C391.714 165.287 391.507 167.524 391.253 168.414C390.498 171.059 386.31 173.378 381.275 172.613C375.341 171.713 373.873 172.67 371.207 174.409C370.76 174.7 370.298 175.002 369.774 175.324C369.637 175.408 369.479 175.453 369.318 175.452L369.319 175.453Z" fill="black"/>
<path d="M354.871 159.35C365.002 155.122 381.31 153.51 385.105 154.482C390.596 155.889 387.385 163.237 379.498 163.154C373.361 163.09 368.06 165.453 368.06 165.453" fill="white"/>
<path d="M368.06 166.324C367.861 166.324 367.667 166.256 367.512 166.131C367.357 166.005 367.249 165.83 367.208 165.635C367.166 165.44 367.193 165.237 367.283 165.059C367.373 164.881 367.522 164.74 367.704 164.659C367.925 164.56 373.104 162.283 379.246 162.283C379.333 162.283 379.42 162.283 379.507 162.284C384.185 162.342 386.711 159.637 386.953 157.8C387.113 156.586 386.38 155.708 384.888 155.326C381.192 154.379 365.121 156.016 355.207 160.154C355.101 160.199 354.987 160.223 354.872 160.224C354.757 160.225 354.643 160.203 354.536 160.16C354.43 160.117 354.333 160.053 354.251 159.972C354.169 159.891 354.104 159.795 354.06 159.689C354.015 159.583 353.992 159.469 353.992 159.354C353.992 159.239 354.015 159.125 354.059 159.019C354.103 158.913 354.168 158.816 354.25 158.735C354.331 158.654 354.428 158.59 354.535 158.547C364.931 154.208 381.338 152.618 385.321 153.639C387.671 154.241 388.959 155.922 388.682 158.027C388.291 160.992 384.804 164.025 379.629 164.026C379.582 164.026 379.536 164.026 379.489 164.025C373.619 163.964 368.466 166.226 368.415 166.249C368.3 166.3 368.179 166.324 368.061 166.324H368.06Z" fill="black"/>
<path d="M348.521 167.096C350.887 165.045 353.455 163.066 356.022 162.241C360.463 160.814 370.184 160.349 372.015 160.277C380.476 159.944 377.048 167.763 370.854 169.269C366.536 170.318 363.393 171.002 363.393 171.002C363.393 171.002 365.024 176.023 358.899 178.997" fill="white"/>
<path d="M358.9 179.869C358.703 179.869 358.511 179.802 358.357 179.68C358.202 179.557 358.094 179.386 358.05 179.193C358.006 179.001 358.028 178.8 358.113 178.622C358.198 178.444 358.341 178.301 358.519 178.215C363.851 175.626 362.618 171.443 362.563 171.267C362.49 171.034 362.518 170.778 362.641 170.567C362.764 170.356 362.969 170.204 363.208 170.152C363.239 170.145 366.392 169.458 370.648 168.423C374.022 167.603 376.428 164.728 376.172 162.895C376.002 161.688 374.502 161.051 372.05 161.147C370.909 161.192 360.777 161.629 356.289 163.071C353.775 163.878 351.241 165.891 349.093 167.754C348.918 167.903 348.691 167.978 348.462 167.961C348.232 167.944 348.019 167.837 347.868 167.663C347.717 167.49 347.641 167.263 347.656 167.034C347.672 166.805 347.777 166.591 347.95 166.439C350.232 164.461 352.942 162.317 355.755 161.413C360.464 159.901 370.816 159.454 371.981 159.408C376.882 159.212 377.752 161.614 377.898 162.655C378.309 165.589 375.05 169.146 371.06 170.115C368.845 170.654 366.625 171.173 364.4 171.672C364.598 173.441 364.367 177.312 359.281 179.781C359.162 179.839 359.032 179.869 358.9 179.869Z" fill="black"/>
<path d="M233.936 124.963L238.826 127.033C236.864 131.599 225.38 143.3 220.56 141.506C215.966 139.795 209.864 122.371 209.49 116.635L215.126 117.732L221.505 101.515L240.264 108.877L233.936 124.963V124.963Z" fill="white"/>
<path d="M221.624 142.552C221.135 142.552 220.677 142.478 220.256 142.321C215.12 140.409 208.996 122.469 208.62 116.691C208.611 116.558 208.634 116.425 208.685 116.301C208.736 116.178 208.814 116.069 208.914 115.981C209.014 115.893 209.133 115.829 209.262 115.794C209.391 115.759 209.526 115.754 209.657 115.78L214.58 116.739L220.693 101.196C220.778 100.981 220.944 100.808 221.156 100.716C221.368 100.624 221.608 100.619 221.823 100.704L240.582 108.066C240.688 108.107 240.786 108.17 240.868 108.249C240.951 108.328 241.017 108.423 241.062 108.528C241.108 108.633 241.133 108.746 241.135 108.86C241.137 108.974 241.116 109.088 241.074 109.194L235.057 124.492L239.166 126.23C239.271 126.275 239.367 126.341 239.447 126.422C239.528 126.504 239.591 126.601 239.634 126.708C239.677 126.814 239.698 126.928 239.697 127.042C239.696 127.157 239.672 127.27 239.627 127.376C237.676 131.915 227.493 142.551 221.624 142.552ZM210.486 117.715C211.449 124.239 217.039 139.265 220.865 140.69C224.702 142.121 234.887 132.402 237.634 127.473L233.596 125.764C233.387 125.676 233.221 125.509 233.133 125.3C233.045 125.091 233.042 124.856 233.125 124.645L239.134 109.368L221.998 102.643L215.937 118.051C215.863 118.24 215.724 118.397 215.545 118.495C215.367 118.593 215.159 118.625 214.959 118.587L210.486 117.715H210.486Z" fill="black"/>
<path d="M336.769 171.213C337.939 183.106 346.668 193.694 355.667 193.28L348.521 199.868C338.875 200.856 329.067 189.853 329.067 178.344L336.769 171.213Z" fill="white"/>
<path d="M347.302 200.8C343.523 200.8 339.642 199.157 336.241 196.09C331.279 191.615 328.196 184.815 328.196 178.343C328.196 178.101 328.297 177.869 328.476 177.705L336.177 170.574C336.296 170.464 336.443 170.389 336.603 170.358C336.762 170.327 336.927 170.341 337.078 170.398C337.23 170.456 337.363 170.555 337.462 170.683C337.56 170.812 337.621 170.966 337.637 171.127C338.183 176.673 340.483 182.203 343.949 186.299C347.389 190.366 351.645 192.595 355.628 192.41C355.987 192.389 356.331 192.606 356.472 192.944C356.541 193.109 356.557 193.29 356.519 193.465C356.481 193.639 356.391 193.798 356.259 193.919L349.113 200.507C348.975 200.635 348.798 200.714 348.611 200.733C348.176 200.778 347.74 200.8 347.303 200.8H347.302ZM329.943 178.72C330.06 184.601 332.898 190.73 337.409 194.797C340.746 197.806 344.546 199.302 348.148 199.026L353.544 194.052C345.428 192.965 337.831 183.883 336.119 173.001L329.943 178.719L329.943 178.72Z" fill="black"/>
<path d="M219.369 130.153C220.172 133.819 222.838 140.62 222.713 144.699L216.902 142.89C216.902 142.89 215.045 135.155 214.238 132.853C214.748 129.207 216.395 128.163 219.369 130.153Z" fill="white"/>
<path d="M222.712 145.569C222.624 145.569 222.537 145.556 222.453 145.53L216.642 143.721C216.498 143.676 216.368 143.595 216.265 143.484C216.161 143.374 216.089 143.239 216.054 143.093C216.035 143.016 214.198 135.374 213.415 133.141C213.369 133.01 213.355 132.87 213.374 132.733C213.694 130.447 214.441 129.071 215.659 128.526C216.79 128.021 218.201 128.324 219.853 129.43C220.04 129.555 220.172 129.747 220.22 129.967C220.468 131.103 220.915 132.594 221.388 134.172C222.459 137.75 223.673 141.805 223.584 144.726C223.577 144.952 223.482 145.166 223.319 145.324C223.157 145.481 222.939 145.57 222.712 145.57L222.712 145.569ZM217.633 142.205L221.804 143.504C221.589 140.922 220.564 137.499 219.717 134.671C219.281 133.214 218.867 131.831 218.598 130.692C217.866 130.242 216.971 129.847 216.372 130.115C215.798 130.372 215.36 131.312 215.131 132.771C215.856 134.948 217.223 140.518 217.632 142.205H217.633Z" fill="black"/>
<path d="M218.605 108.886C214.253 108.001 205.723 111.628 202.779 114.154C199.834 116.68 205.194 136.856 207.489 138.776C207.489 138.776 216.632 129.791 219.368 130.153C216.64 121.327 215.866 114.708 218.604 108.886L218.605 108.886Z" fill="white"/>
<path d="M207.489 139.646C207.285 139.646 207.087 139.574 206.93 139.443C204.716 137.591 201.087 124.227 201.046 117.776C201.032 115.548 201.402 114.187 202.211 113.493C205.133 110.986 213.929 107.048 218.779 108.033C218.908 108.059 219.03 108.114 219.135 108.194C219.239 108.275 219.325 108.377 219.384 108.495C219.443 108.613 219.475 108.743 219.476 108.875C219.478 109.006 219.45 109.137 219.394 109.256C217.006 114.333 217.24 120.313 220.201 129.896C220.244 130.036 220.251 130.184 220.222 130.327C220.193 130.47 220.128 130.603 220.034 130.715C219.94 130.827 219.819 130.913 219.682 130.965C219.546 131.018 219.398 131.035 219.253 131.016C217.816 130.825 212.352 135.219 208.1 139.396C207.938 139.557 207.718 139.646 207.489 139.646H207.489ZM217.101 109.619C212.859 109.619 205.943 112.587 203.347 114.814C203.251 114.896 202.775 115.424 202.789 117.765C202.829 124.031 205.958 134.62 207.582 137.471C210.008 135.139 215.176 130.425 218.245 129.452C215.615 120.611 215.336 114.7 217.338 109.622C217.259 109.62 217.18 109.619 217.101 109.619Z" fill="black"/>
<path d="M228.523 132.853C225.214 134.432 217.979 139.66 216.901 142.889L222.712 144.698C222.712 144.698 229.637 138.846 232.66 138.023C232.473 135.461 231.228 133.644 228.523 132.853V132.853Z" fill="white"/>
<path d="M222.712 145.569C222.625 145.569 222.538 145.557 222.452 145.53L216.641 143.721C216.531 143.687 216.428 143.63 216.34 143.556C216.251 143.481 216.178 143.39 216.125 143.287C216.072 143.184 216.041 143.071 216.032 142.956C216.023 142.84 216.037 142.724 216.074 142.615C217.327 138.86 225.104 133.52 228.147 132.068C228.34 131.975 228.561 131.957 228.767 132.018C231.702 132.876 233.303 134.875 233.528 137.96C233.543 138.162 233.487 138.362 233.371 138.527C233.254 138.691 233.083 138.81 232.888 138.864C230.563 139.497 225.161 143.77 223.275 145.363C223.118 145.496 222.918 145.569 222.712 145.569ZM218.115 142.356L222.518 143.726C223.903 142.581 228.771 138.645 231.714 137.433C231.41 135.579 230.404 134.407 228.594 133.789C225.536 135.342 219.828 139.51 218.115 142.356Z" fill="black"/>
<path d="M237.234 115.607C240.373 117.698 245.691 124.792 245.996 128.822C246.302 132.853 240.547 143.305 235.664 144.699C235.664 144.699 232.544 135.641 228.523 132.853C233.536 127.038 236.09 121.301 237.234 115.607Z" fill="white"/>
<path d="M235.664 145.569C235.482 145.569 235.305 145.513 235.158 145.407C235.01 145.302 234.899 145.153 234.84 144.982C234.809 144.894 231.765 136.16 228.026 133.568C227.926 133.499 227.841 133.409 227.778 133.305C227.714 133.2 227.674 133.084 227.658 132.963C227.643 132.842 227.653 132.719 227.688 132.602C227.723 132.486 227.783 132.377 227.862 132.285C232.365 127.062 235.151 121.551 236.379 115.436C236.407 115.296 236.469 115.165 236.56 115.055C236.651 114.944 236.768 114.858 236.9 114.804C237.032 114.749 237.176 114.728 237.318 114.741C237.461 114.755 237.598 114.804 237.717 114.883C241.006 117.073 246.528 124.312 246.865 128.757C247.2 133.173 241.292 143.998 235.903 145.536C235.825 145.558 235.745 145.57 235.664 145.57V145.569ZM229.77 132.729C232.912 135.505 235.344 141.369 236.179 143.569C240.47 141.489 245.389 132.336 245.127 128.888C244.877 125.585 240.724 119.747 237.787 117.146C236.438 122.752 233.804 127.87 229.77 132.729Z" fill="black"/>
<path d="M221.388 105.032C218.065 99.0029 216.221 91.9588 216.193 84.1235C216.114 62.3217 245.762 42.9845 264.468 60.1265C278.168 72.6811 280.15 100.302 273.618 113.266C267.527 125.354 252.092 128.43 239.569 122.173C235.67 120.225 232.164 117.803 229.123 114.957" fill="white"/>
<path d="M252.721 126.212C248.143 126.212 243.494 125.108 239.179 122.952C235.208 120.968 231.624 118.492 228.527 115.593C228.443 115.514 228.376 115.421 228.329 115.316C228.282 115.212 228.256 115.1 228.252 114.986C228.248 114.871 228.267 114.757 228.307 114.65C228.348 114.543 228.409 114.445 228.487 114.362C228.565 114.279 228.659 114.211 228.764 114.164C228.868 114.117 228.98 114.091 229.095 114.087C229.209 114.084 229.323 114.102 229.43 114.143C229.537 114.183 229.636 114.244 229.719 114.322C232.693 117.106 236.138 119.486 239.958 121.395C252.765 127.793 267.208 124.051 272.839 112.875C276.007 106.588 277.128 96.5442 275.766 86.6622C274.24 75.5912 270.019 66.3955 263.879 60.7687C256.411 53.9254 246.402 52.5275 236.418 56.934C224.983 61.9806 217.024 73.1604 217.064 84.1212C217.091 91.6424 218.803 98.5365 222.151 104.613C222.206 104.713 222.241 104.823 222.254 104.936C222.266 105.05 222.256 105.165 222.225 105.275C222.193 105.385 222.139 105.487 222.068 105.576C221.996 105.666 221.908 105.74 221.808 105.795C221.707 105.85 221.597 105.885 221.483 105.898C221.37 105.911 221.254 105.901 221.145 105.869C221.035 105.837 220.932 105.784 220.843 105.712C220.753 105.641 220.679 105.553 220.624 105.452C217.133 99.1184 215.349 91.9436 215.32 84.1276C215.278 72.4965 223.664 60.659 235.714 55.3413C246.36 50.6426 257.055 52.1534 265.057 59.486C271.495 65.3862 275.912 74.953 277.493 86.4251C278.901 96.638 277.714 107.073 274.396 113.658C271.394 119.615 266.001 123.801 259.21 125.446C257.093 125.958 254.915 126.212 252.72 126.212L252.721 126.212Z" fill="black"/>
<path d="M225.346 95.5119C230.134 93.6802 226.859 83.927 231.62 74.9893C240.073 59.1215 266.702 59.1691 272.728 72.122C277.973 64.0259 268.17 51.1821 258.671 50.5247C251.601 47.396 243.82 46.7843 240.915 50.5085C230.466 48.1021 218.166 54.3073 216.957 62.6277C211.509 69.3886 207.749 82.985 211.278 92.8644C215.296 104.107 222.406 96.6373 225.347 95.5122L225.346 95.5119Z" fill="#00B2FF"/>
<path d="M217.389 99.8567C216.78 99.8567 216.166 99.7641 215.554 99.5493C213.391 98.7922 211.724 96.701 210.457 93.1564C206.842 83.0376 210.573 69.3187 216.131 62.2648C216.702 58.8932 218.979 55.6989 222.568 53.2467C227.723 49.7236 234.58 48.3262 240.591 49.5471C244.202 45.679 252.259 46.769 258.885 49.6676C264.479 50.1275 270.423 54.5433 273.385 60.4597C275.583 64.8516 275.61 69.2746 273.459 72.5946C273.375 72.7253 273.256 72.8309 273.117 72.9005C272.978 72.9701 272.822 73.0011 272.667 72.9902C272.511 72.9794 272.362 72.9271 272.233 72.8388C272.105 72.7506 272.002 72.6295 271.937 72.4884C269.487 67.2217 263.036 63.8168 255.102 63.6026C245.265 63.3394 236.348 67.967 232.389 75.3979C230.191 79.5238 229.757 83.9526 229.408 87.5108C229.005 91.6244 228.657 95.1771 225.658 96.3249C225.195 96.5016 224.523 96.9166 223.812 97.356C222.047 98.4463 219.762 99.857 217.388 99.857L217.389 99.8567ZM236.163 50.8519C231.742 50.8519 227.191 52.1964 223.552 54.6837C220.287 56.9151 218.25 59.7806 217.819 62.752C217.796 62.9062 217.733 63.0515 217.635 63.1728C212.268 69.833 208.763 83.2349 212.099 92.5711C213.162 95.5468 214.518 97.3418 216.13 97.9062C218.346 98.6828 220.869 97.1258 222.896 95.8748C223.713 95.3701 224.419 94.9342 225.034 94.6986C226.935 93.9716 227.261 91.5533 227.673 87.341C228.037 83.6296 228.49 79.0104 230.85 74.5799C235.117 66.5705 244.658 61.5758 255.149 61.8619C263.004 62.0738 269.556 65.2547 272.713 70.2767C274.116 66.8323 272.818 63.2213 271.825 61.238C269.142 55.8774 263.584 51.737 258.61 51.3928C258.509 51.3859 258.41 51.3614 258.317 51.3203C251.024 48.0923 243.995 47.976 241.602 51.0431C241.5 51.174 241.363 51.273 241.206 51.3285C241.05 51.384 240.881 51.3938 240.719 51.3565C239.247 51.0176 237.712 50.8519 236.163 50.8519Z" fill="black"/>
<path d="M225.347 95.5111C224.049 91.9543 220.384 89.6837 216.492 90.2737C212.054 90.9467 209.002 95.0859 209.676 99.5188C210.35 103.952 214.494 107 218.932 106.327C220.44 106.101 221.854 105.453 223.01 104.459" fill="white"/>
<path d="M217.706 107.29C213.336 107.29 209.49 104.095 208.815 99.6493C208.07 94.749 211.456 90.1568 216.362 89.413C220.58 88.7734 224.706 91.2119 226.166 95.213C226.243 95.4296 226.232 95.668 226.134 95.8763C226.036 96.0845 225.86 96.2456 225.644 96.3244C225.427 96.4032 225.188 96.3932 224.979 96.2967C224.77 96.2002 224.608 96.025 224.528 95.8094C223.351 92.5846 220.026 90.6188 216.623 91.1345C212.667 91.7343 209.938 95.437 210.538 99.3882C211.139 103.34 214.846 106.065 218.801 105.466C220.147 105.263 221.409 104.686 222.441 103.799C222.617 103.654 222.843 103.583 223.07 103.603C223.298 103.622 223.508 103.729 223.657 103.902C223.806 104.075 223.881 104.299 223.866 104.526C223.852 104.754 223.748 104.966 223.578 105.118C222.298 106.219 220.733 106.936 219.063 107.187C218.614 107.256 218.16 107.29 217.706 107.29Z" fill="black"/>
<path d="M245.28 90.5892C247.644 89.6007 250.036 89.2769 252.939 89.018C254.8 88.852 254.95 86.7704 252.415 85.5486C250.031 84.4003 245.2 85.2752 243.567 87.4544C241.863 89.7279 243.35 91.396 245.28 90.5892Z" fill="#00B2FF"/>
<path d="M244.321 91.6658C243.559 91.6658 242.878 91.3651 242.43 90.7926C241.825 90.0171 241.622 88.596 242.868 86.9331C244.839 84.3033 250.13 83.4826 252.792 84.765C254.819 85.7413 255.347 87.1496 255.166 88.1424C254.988 89.1155 254.165 89.7832 253.016 89.8857C249.961 90.1579 247.77 90.4919 245.616 91.3927C245.177 91.5764 244.737 91.6658 244.321 91.6658ZM249.785 85.9215C247.725 85.9215 245.249 86.6609 244.264 87.9761C243.648 88.7983 243.59 89.4451 243.805 89.7214C243.996 89.9652 244.453 89.9916 244.943 89.7864C247.306 88.7983 249.635 88.4384 252.861 88.1511C252.988 88.1398 253.405 88.0832 253.451 87.8302C253.504 87.5405 253.166 86.878 252.035 86.3333C251.457 86.055 250.659 85.9218 249.785 85.9218V85.9215Z" fill="black"/>
<path d="M264.931 88.4226C267.494 88.3831 269.835 88.971 272.626 89.8092C274.416 90.3466 275.33 88.4699 273.431 86.3937C271.646 84.4424 266.835 83.4595 264.508 84.876C262.08 86.3534 262.84 88.4548 264.931 88.4226Z" fill="#00B2FF"/>
<path d="M273.222 90.7727C272.935 90.7709 272.65 90.7271 272.375 90.6427C269.438 89.7605 267.285 89.2608 264.945 89.2927C263.605 89.3136 262.523 88.6304 262.212 87.5523C261.938 86.6077 262.279 85.213 264.055 84.1323C266.863 82.4235 272.08 83.6261 274.075 85.8064C275.592 87.4653 275.558 88.9691 275.02 89.8232C274.632 90.4399 273.98 90.7727 273.222 90.7727ZM265.183 87.5497C267.639 87.5497 269.883 88.0761 272.877 88.9755C272.999 89.012 273.407 89.1145 273.544 88.8968C273.701 88.6476 273.634 87.9072 272.787 86.9812C271.334 85.3917 266.961 84.4019 264.961 85.6196C264.084 86.1538 263.789 86.7328 263.886 87.0694C263.972 87.3663 264.387 87.5631 264.918 87.5523C265.007 87.5509 265.095 87.5503 265.183 87.5503V87.5497Z" fill="black"/>
<path d="M250.586 96.3211C251.507 96.3073 252.24 95.4083 252.224 94.3131C252.208 93.2179 251.448 92.3413 250.527 92.355C249.606 92.3687 248.873 93.2677 248.889 94.3629C248.905 95.4581 249.665 96.3348 250.586 96.3211Z" fill="black"/>
<path d="M268.095 96.4314C269.016 96.4177 269.749 95.5187 269.733 94.4235C269.716 93.3283 268.957 92.4516 268.036 92.4653C267.115 92.4791 266.381 93.3781 266.398 94.4733C266.414 95.5685 267.174 96.4452 268.095 96.4314Z" fill="black"/>
<path d="M243.661 104.143C241.811 108.981 248.378 111.949 252.126 109.06L243.661 104.143Z" fill="white"/>
<path d="M248.641 111.059C247.193 111.059 245.734 110.622 244.557 109.749C242.62 108.31 241.98 106.098 242.846 103.832C242.891 103.714 242.961 103.607 243.052 103.519C243.142 103.431 243.251 103.363 243.37 103.321C243.489 103.279 243.616 103.264 243.742 103.275C243.868 103.287 243.989 103.326 244.099 103.39L252.565 108.307C252.688 108.379 252.792 108.48 252.867 108.601C252.943 108.723 252.987 108.861 252.996 109.003C253.005 109.145 252.98 109.288 252.921 109.418C252.862 109.548 252.772 109.662 252.659 109.749C251.526 110.622 250.089 111.059 248.641 111.059V111.059ZM244.224 105.477C244.077 106.952 244.971 107.886 245.598 108.351C246.783 109.232 248.68 109.653 250.365 109.044L244.224 105.477ZM219.399 101.742C219.189 101.742 218.978 101.666 218.811 101.513L214.84 97.8773C214.755 97.8003 214.686 97.7072 214.637 97.6034C214.587 97.4995 214.559 97.387 214.554 97.2722C214.548 97.1574 214.566 97.0427 214.605 96.9347C214.644 96.8266 214.704 96.7274 214.782 96.6427C214.86 96.558 214.953 96.4895 215.058 96.4412C215.162 96.3928 215.275 96.3656 215.39 96.361C215.505 96.3565 215.619 96.3747 215.727 96.4146C215.835 96.4546 215.934 96.5154 216.018 96.5937L219.989 100.229C220.118 100.348 220.209 100.503 220.249 100.673C220.289 100.844 220.276 101.023 220.212 101.187C220.148 101.35 220.037 101.491 219.892 101.59C219.747 101.689 219.575 101.742 219.399 101.742Z" fill="black"/>
<path d="M215.566 102.323C215.404 102.323 215.245 102.278 215.107 102.192C214.97 102.107 214.858 101.985 214.786 101.84C214.714 101.695 214.684 101.532 214.699 101.371C214.714 101.21 214.774 101.056 214.872 100.927L218.507 96.138C218.576 96.0461 218.662 95.9687 218.761 95.9103C218.86 95.8519 218.97 95.8136 219.084 95.7976C219.197 95.7816 219.313 95.7882 219.424 95.8171C219.536 95.846 219.64 95.8966 219.732 95.9659C219.823 96.0353 219.9 96.122 219.958 96.2212C220.016 96.3204 220.054 96.43 220.069 96.5438C220.084 96.6575 220.077 96.7732 220.047 96.8841C220.017 96.995 219.966 97.099 219.896 97.19L216.261 101.979C216.18 102.086 216.075 102.173 215.954 102.233C215.834 102.293 215.701 102.324 215.566 102.323L215.566 102.323Z" fill="black"/>
<path d="M268.716 67.1444C273.784 65.64 276.423 65.8434 279.492 59.6455C279.492 59.6455 282.967 69.6532 273.403 73.8559C272.547 71.2525 271.526 69.1694 268.716 67.1444H268.716Z" fill="#00B2FF"/>
<path d="M273.404 74.7268C273.22 74.7266 273.041 74.6687 272.893 74.5612C272.744 74.4537 272.633 74.3022 272.576 74.1281C271.721 71.5302 270.731 69.6703 268.206 67.8507C268.074 67.7556 267.971 67.6254 267.909 67.4748C267.847 67.3242 267.829 67.1593 267.856 66.9988C267.883 66.8383 267.955 66.6887 268.063 66.5669C268.171 66.4451 268.312 66.3561 268.468 66.31C269.211 66.0894 269.888 65.9089 270.542 65.7345C274.229 64.7513 276.26 64.2098 278.711 59.2598C278.787 59.106 278.907 58.9782 279.056 58.8923C279.205 58.8064 279.376 58.7663 279.547 58.7771C279.718 58.7879 279.883 58.849 280.02 58.9528C280.157 59.0565 280.26 59.1984 280.316 59.3605C280.353 59.4681 283.937 70.1787 273.755 74.6531C273.644 74.7016 273.524 74.7267 273.404 74.7268ZM270.575 67.528C272.255 69.0614 273.181 70.6996 273.905 72.6492C279.259 69.8389 279.512 64.9066 279.14 62.0765C276.746 65.8822 274.363 66.5175 270.991 67.4165L270.575 67.528Z" fill="black"/>
<path d="M237.654 68.0056C229.756 60.5355 209.903 56.6876 204.897 78.43C211.553 73.4623 221.836 74.0865 230.301 78.0104C231.437 74.6765 234.151 70.5249 237.654 68.0056Z" fill="#00B2FF"/>
<path d="M204.897 79.3006C204.766 79.3006 204.637 79.2711 204.519 79.2142C204.4 79.1574 204.297 79.0747 204.215 78.9723C204.134 78.8699 204.076 78.7504 204.047 78.6227C204.018 78.4951 204.018 78.3625 204.048 78.2349C206.556 67.3386 212.546 63.4035 217.128 62.0209C224.826 59.6984 233.582 62.9557 238.253 67.3735C238.346 67.4616 238.418 67.5691 238.465 67.6884C238.512 67.8078 238.532 67.9359 238.523 68.0638C238.514 68.1916 238.478 68.316 238.415 68.428C238.353 68.54 238.267 68.637 238.163 68.7119C234.71 71.1954 232.14 75.3123 231.125 78.2907C231.086 78.4062 231.022 78.5122 230.939 78.6018C230.856 78.6913 230.755 78.7624 230.643 78.8104C230.53 78.8585 230.409 78.8823 230.287 78.8805C230.165 78.8787 230.044 78.8513 229.933 78.8C220.912 74.6178 211.289 74.7458 205.419 79.1273C205.268 79.2397 205.085 79.3005 204.897 79.3006ZM216.847 74.0186C221.002 74.0186 225.465 74.9548 229.809 76.8359C230.912 74.1187 233.11 70.5492 236.287 67.9562C231.839 64.2401 224.295 61.677 217.632 63.6873C212.241 65.3136 208.357 69.7203 206.312 76.4902C209.315 74.8445 212.945 74.0186 216.847 74.0186ZM251.38 63.7384C251.256 63.7385 251.134 63.7125 251.022 63.662C250.909 63.6115 250.808 63.5378 250.727 63.4455C250.645 63.3533 250.583 63.2448 250.547 63.1271C250.51 63.0095 250.498 62.8853 250.513 62.763C251.354 55.8512 246.072 52.0132 240.809 51.3725C240.696 51.3586 240.586 51.3226 240.486 51.2664C240.386 51.2101 240.299 51.1349 240.228 51.0448C240.158 50.9548 240.106 50.8518 240.075 50.7416C240.044 50.6315 240.036 50.5164 240.05 50.4029C240.078 50.1738 240.196 49.9652 240.378 49.8229C240.56 49.6806 240.791 49.6163 241.02 49.644C248.472 50.5518 253.088 56.0328 252.244 62.9728C252.219 63.1838 252.116 63.3781 251.957 63.5192C251.798 63.6602 251.593 63.7383 251.38 63.7386L251.38 63.7384ZM264.254 65.4433C264.116 65.4433 263.98 65.4106 263.857 65.3481C263.735 65.2856 263.629 65.195 263.548 65.0837C263.467 64.9723 263.414 64.8434 263.392 64.7076C263.371 64.5717 263.382 64.4327 263.425 64.3019C265.297 58.58 263.467 53.9622 258.272 51.2987C258.17 51.2465 258.079 51.1748 258.005 51.0876C257.931 51.0005 257.875 50.8996 257.84 50.7907C257.805 50.6819 257.792 50.5672 257.801 50.4533C257.81 50.3393 257.842 50.2283 257.894 50.1266C257.947 50.0249 258.018 49.9345 258.106 49.8605C258.193 49.7865 258.294 49.7304 258.403 49.6954C258.512 49.6604 258.627 49.6471 258.741 49.6564C258.855 49.6658 258.966 49.6974 259.068 49.7496C265.029 52.8052 267.221 58.3066 265.082 64.8429C265.024 65.0173 264.914 65.1693 264.765 65.2771C264.616 65.385 264.437 65.4431 264.254 65.4433Z" fill="black"/>
<path d="M166.971 153.921C154.315 158.724 138.984 166.498 124.687 184.862C108.694 204.814 102.14 229.284 107.248 254.312C109.138 263.168 102.033 271.778 92.9903 271.683C69.5366 271.71 76.515 223.399 80.3088 208.927C84.4204 193.808 91.7079 179.624 101.97 166.769C111.472 154.866 123.033 144.679 136.333 136.492C143.857 132.422 157.947 124.336 170.462 121.266" fill="white"/>
<path d="M93.1388 272.554C93.0862 272.554 93.0339 272.554 92.9813 272.553H92.9604C88.2383 272.553 84.3864 270.676 81.5218 266.973C75.9479 259.768 75.1771 246.776 75.5118 237.145C75.8816 226.509 77.764 215.198 79.4657 208.707C83.611 193.464 90.9528 179.174 101.289 166.226C110.853 154.244 122.49 143.991 135.875 135.751C135.889 135.742 135.903 135.734 135.918 135.726C136.62 135.347 137.379 134.932 138.188 134.489C145.897 130.278 158.798 123.23 170.254 120.42C170.365 120.392 170.481 120.387 170.594 120.405C170.707 120.422 170.816 120.461 170.914 120.52C171.011 120.58 171.097 120.658 171.164 120.75C171.232 120.842 171.281 120.946 171.308 121.058C171.336 121.169 171.341 121.284 171.324 121.397C171.306 121.51 171.267 121.618 171.208 121.716C171.148 121.814 171.07 121.899 170.978 121.967C170.886 122.035 170.781 122.083 170.67 122.111C159.435 124.867 146.659 131.847 139.025 136.017C138.221 136.456 137.468 136.868 136.769 137.245C123.564 145.378 112.086 155.493 102.651 167.311C92.4647 180.072 85.2304 194.151 81.1499 209.155C77.6702 222.429 73.5167 253.779 82.9006 265.908C85.4181 269.162 88.8063 270.811 92.9706 270.811H92.9892C97.0529 270.864 100.909 269.02 103.563 265.779C106.206 262.553 107.238 258.439 106.395 254.493C101.338 229.713 107.593 204.793 124.006 184.317C138.719 165.418 154.531 157.71 166.661 153.107C166.768 153.066 166.882 153.047 166.997 153.05C167.111 153.054 167.224 153.08 167.328 153.127C167.433 153.173 167.527 153.24 167.605 153.324C167.684 153.407 167.745 153.505 167.786 153.611C167.826 153.718 167.846 153.832 167.842 153.946C167.839 154.061 167.813 154.173 167.766 154.278C167.719 154.382 167.652 154.476 167.569 154.554C167.485 154.633 167.388 154.694 167.281 154.735C155.363 159.257 139.829 166.829 125.374 185.396C109.283 205.471 103.151 229.881 108.102 254.137C109.053 258.596 107.892 263.244 104.912 266.882C101.956 270.492 97.6717 272.554 93.1382 272.554H93.1388Z" fill="black"/>
<path d="M100.976 262.393C103.395 266.52 105.293 268.491 107.872 269.937C111.85 272.167 115.136 270.027 113.916 266.727C112.695 263.426 108.745 261.496 107.248 254.312" fill="white"/>
<path d="M111.033 271.729C109.912 271.729 108.673 271.384 107.445 270.695C104.608 269.105 102.651 266.975 100.223 262.833C100.165 262.734 100.127 262.625 100.112 262.512C100.096 262.399 100.103 262.283 100.132 262.173C100.161 262.062 100.211 261.958 100.28 261.867C100.35 261.776 100.436 261.699 100.535 261.642C100.633 261.584 100.743 261.546 100.856 261.531C100.969 261.515 101.085 261.522 101.195 261.551C101.306 261.58 101.41 261.63 101.501 261.699C101.592 261.768 101.669 261.854 101.727 261.953C103.981 265.798 105.761 267.755 108.297 269.177C110.399 270.355 111.982 270.058 112.7 269.446C113.324 268.914 113.469 268.033 113.097 267.028C112.699 265.951 111.935 264.988 111.051 263.872C109.418 261.811 107.385 259.247 106.394 254.488C106.347 254.262 106.392 254.027 106.518 253.834C106.645 253.641 106.843 253.506 107.07 253.459C107.296 253.412 107.532 253.457 107.725 253.583C107.918 253.71 108.053 253.908 108.1 254.134C109.008 258.489 110.819 260.775 112.418 262.791C113.354 263.972 114.238 265.088 114.733 266.425C115.362 268.127 115.025 269.752 113.832 270.771C113.082 271.41 112.111 271.729 111.033 271.729H111.033Z" fill="black"/>
<path d="M105.055 257.468C104.886 261.714 106.96 265.834 106.232 271.778C105.661 276.431 101.202 281.957 99.6323 283.321C95.4208 286.98 91.1479 282.187 94.3836 276.115C96.3426 272.439 95.3086 264.02 95.3086 264.02" fill="white"/>
<path d="M96.6995 285.466C95.8021 285.467 94.9308 285.164 94.2282 284.607C92.4155 283.166 91.4501 279.766 93.6137 275.705C95.4226 272.311 94.453 264.207 94.4429 264.125C94.4277 264.011 94.4353 263.895 94.4653 263.784C94.4952 263.673 94.5469 263.569 94.6174 263.478C94.6879 263.387 94.7757 263.311 94.8758 263.254C94.9759 263.197 95.0863 263.161 95.2007 263.146C95.315 263.132 95.431 263.141 95.5419 263.172C95.6529 263.203 95.7565 263.256 95.8469 263.327C95.9374 263.399 96.0127 263.487 96.0687 263.588C96.1247 263.688 96.1601 263.799 96.173 263.913C96.2166 264.268 97.2169 272.65 95.1524 276.523C93.532 279.564 94.0068 282.206 95.313 283.244C96.3197 284.044 97.7204 283.827 99.0598 282.663C100.588 281.335 104.842 275.944 105.366 271.672C105.772 268.352 105.276 265.653 104.795 263.043C104.442 261.123 104.108 259.31 104.183 257.432C104.202 256.952 104.606 256.587 105.089 256.597C105.32 256.606 105.537 256.707 105.694 256.876C105.851 257.046 105.934 257.271 105.925 257.501C105.858 259.185 106.174 260.906 106.51 262.729C106.99 265.34 107.535 268.299 107.096 271.883C106.499 276.75 101.986 282.429 100.204 283.977C98.9653 285.053 97.7584 285.466 96.6989 285.466H96.6995Z" fill="black"/>
<path d="M98.4264 260.276C98.4886 262.385 98.8851 269.938 96.7654 274.785C95.3856 277.94 91.4016 282.116 88.8818 283.492C84.5972 285.832 82.0998 278.34 86.4445 273.668C89.5081 270.374 88.1455 261.851 88.1455 261.851" fill="white"/>
<path d="M87.3009 284.808C86.2436 284.808 85.2741 284.318 84.5309 283.364C82.7055 281.021 82.7825 276.327 85.8069 273.076C88.0789 270.633 87.6448 264.244 87.2857 261.988C87.2509 261.76 87.3075 261.529 87.4432 261.343C87.5789 261.157 87.7827 261.032 88.01 260.996C88.2374 260.96 88.4699 261.015 88.6567 261.15C88.8435 261.284 88.9695 261.487 89.0072 261.714C89.0656 262.079 90.3985 270.697 87.0838 274.261C84.4783 277.062 84.734 280.789 85.9066 282.295C86.5704 283.147 87.431 283.292 88.4642 282.728C90.7713 281.467 94.6328 277.488 95.9672 274.436C97.8839 270.053 97.6555 263.28 97.5695 260.73L97.5556 260.302C97.5521 260.188 97.5713 260.074 97.612 259.967C97.6526 259.86 97.7139 259.762 97.7924 259.679C97.871 259.596 97.9651 259.529 98.0695 259.482C98.1739 259.435 98.2866 259.409 98.401 259.406C98.8824 259.388 99.2837 259.77 99.2979 260.25L99.3115 260.671C99.401 263.329 99.639 270.389 97.5646 275.133C96.0735 278.543 91.898 282.837 89.3006 284.255C88.6225 284.626 87.9453 284.808 87.3009 284.808V284.808Z" fill="black"/>
<path d="M90.5932 259.822C90.2579 261.907 91.9575 267.697 89.1963 271.194C86.6163 274.462 79.6136 276.352 78.0624 276.057C73.9395 275.272 74.5072 268.978 79.038 267.479C82.1279 266.456 78.8135 260.713 78.3126 258.217" fill="white"/>
<path d="M78.4259 276.953C78.2214 276.953 78.045 276.94 77.9003 276.912C75.8924 276.53 74.5592 274.986 74.4203 272.884C74.2663 270.552 75.7094 267.663 78.765 266.652C79.1246 266.533 79.2536 266.346 79.3257 266.197C79.8289 265.155 78.9367 262.728 78.285 260.956C77.9335 260 77.6011 259.097 77.459 258.388C77.4362 258.276 77.4357 258.16 77.4577 258.047C77.4797 257.935 77.5236 257.828 77.5871 257.733C77.6505 257.637 77.7322 257.555 77.8274 257.492C77.9226 257.428 78.0295 257.383 78.1419 257.361C78.2543 257.338 78.3701 257.338 78.4825 257.36C78.595 257.383 78.702 257.427 78.7973 257.49C78.8927 257.554 78.9745 257.636 79.0382 257.731C79.1018 257.826 79.146 257.933 79.1682 258.046C79.2839 258.623 79.5936 259.465 79.9213 260.356C80.7641 262.648 81.7197 265.247 80.8957 266.953C80.5846 267.598 80.0372 268.066 79.3132 268.305C77.0979 269.038 76.0502 271.105 76.1597 272.769C76.2007 273.39 76.4843 274.87 78.2266 275.201C79.3658 275.419 86.0542 273.769 88.513 270.655C90.2646 268.436 89.9892 264.995 89.7878 262.482C89.6978 261.359 89.6202 260.39 89.7338 259.684C89.7518 259.571 89.792 259.463 89.8519 259.365C89.9119 259.268 89.9906 259.183 90.0834 259.116C90.1761 259.049 90.2813 259.001 90.3927 258.975C90.5041 258.948 90.6196 258.944 90.7326 258.962C90.8457 258.981 90.954 259.021 91.0515 259.081C91.1489 259.141 91.2336 259.219 91.3007 259.312C91.3677 259.404 91.4159 259.509 91.4423 259.621C91.4688 259.732 91.4731 259.847 91.4549 259.96C91.3747 260.46 91.4479 261.375 91.5255 262.344C91.7498 265.143 92.0569 268.978 89.8817 271.733C87.3029 275 80.878 276.953 78.4262 276.953L78.4259 276.953Z" fill="black"/>
<path d="M170.462 157.987C167.567 159.039 164.553 160.377 161.476 161.981C153.579 166.099 145.635 171.806 138.503 178.485C123.221 192.797 116.161 204.493 112.294 220.219C109.85 230.157 100.486 238.258 90.5305 238.258C78.2821 238.348 69.4818 229.583 71.3267 217.458C75.0584 190.937 90.4032 167.74 110.683 148.846C121.572 137.755 150.427 118.365 172.577 115.265" fill="white"/>
<path d="M90.3306 239.129C83.8419 239.129 78.2212 236.768 74.4927 232.467C71.0191 228.46 69.5882 223.083 70.4642 217.327C72.258 204.578 76.8289 191.965 84.0493 179.847C90.6032 168.847 99.3584 158.208 110.073 148.223C121.758 136.329 150.683 117.45 172.455 114.403C172.569 114.387 172.684 114.394 172.795 114.422C172.906 114.451 173.01 114.501 173.101 114.57C173.193 114.639 173.27 114.725 173.328 114.824C173.386 114.922 173.424 115.031 173.44 115.144C173.455 115.258 173.449 115.373 173.42 115.483C173.391 115.594 173.341 115.698 173.272 115.789C173.203 115.881 173.117 115.957 173.019 116.015C172.92 116.073 172.811 116.111 172.697 116.127C151.295 119.123 122.811 137.736 111.304 149.456C111.295 149.466 111.285 149.475 111.276 149.483C88.7435 170.476 75.5927 193.387 72.1888 217.579C71.3895 222.833 72.6763 227.712 75.8103 231.327C79.2372 235.28 84.4677 237.437 90.5227 237.388C99.8622 237.388 109.05 229.755 111.446 220.012C115.443 203.76 122.861 191.94 137.906 177.851C145.095 171.118 153.106 165.364 161.072 161.21C164.165 159.597 167.223 158.238 170.163 157.17C170.38 157.093 170.618 157.104 170.826 157.202C171.035 157.3 171.195 157.476 171.274 157.692C171.353 157.908 171.343 158.146 171.246 158.355C171.15 158.563 170.975 158.725 170.76 158.806C167.892 159.848 164.904 161.176 161.879 162.754C154.051 166.835 146.173 172.495 139.098 179.121C124.325 192.955 117.047 204.537 113.14 220.427C110.561 230.914 100.629 239.128 90.5297 239.128C90.4634 239.129 90.3969 239.129 90.3306 239.129Z" fill="black"/>
<path d="M76.5827 233.243C84.1761 237.281 100.975 236.664 105.778 231.518C105.532 234.537 105.462 237.588 105.603 240.675C99.8165 245.567 86.5585 246.389 76.33 242.733C76.2806 239.59 76.3666 236.426 76.5827 233.243Z" fill="white"/>
<path d="M89.8736 245.87C85.2596 245.87 80.4088 245.115 76.036 243.552C75.869 243.492 75.7243 243.383 75.621 243.239C75.5178 243.095 75.4609 242.923 75.4581 242.746C75.4106 239.556 75.4955 236.366 75.7126 233.183C75.7225 233.038 75.7685 232.898 75.8465 232.776C75.9244 232.653 76.0319 232.552 76.1591 232.481C76.2862 232.411 76.4291 232.373 76.5745 232.372C76.72 232.37 76.8634 232.406 76.9918 232.474C84.4966 236.465 100.807 235.567 105.14 230.924C105.264 230.792 105.425 230.701 105.603 230.665C105.78 230.629 105.964 230.649 106.129 230.722C106.295 230.795 106.434 230.917 106.526 231.072C106.619 231.228 106.661 231.408 106.647 231.588C106.398 234.645 106.339 237.688 106.474 240.635C106.48 240.768 106.455 240.9 106.402 241.023C106.348 241.145 106.268 241.253 106.166 241.339C102.655 244.307 96.5105 245.87 89.8736 245.87ZM77.1932 242.111C86.8863 245.375 99.2084 244.552 104.713 240.274C104.627 238.006 104.646 235.735 104.772 233.468C102.017 235.27 97.6143 236.421 92.271 236.693C86.5879 236.983 81.1474 236.2 77.3721 234.583C77.2291 237.09 77.1694 239.6 77.1932 242.111Z" fill="black"/>
</g>
<g clip-path="url(#clip1_5395_5906)">
<path d="M451.274 502.081H393.23C392.999 502.081 392.777 501.989 392.613 501.825C392.449 501.662 392.357 501.44 392.357 501.208V267.503C392.357 267.378 392.385 267.254 392.437 267.139C392.489 267.025 392.566 266.924 392.661 266.842C392.756 266.76 392.868 266.7 392.988 266.665C393.109 266.63 393.235 266.622 393.36 266.641L451.403 275.365C451.61 275.396 451.798 275.5 451.935 275.658C452.071 275.817 452.146 276.019 452.146 276.228V501.209C452.146 501.44 452.054 501.662 451.89 501.826C451.727 501.989 451.505 502.081 451.274 502.081V502.081ZM394.102 500.336H450.401V276.978L394.102 268.516V500.336Z" fill="black"/>
<path d="M393.23 268.375C392.999 268.375 392.777 268.283 392.613 268.12C392.449 267.956 392.357 267.734 392.357 267.503V259.164C392.357 258.933 392.449 258.711 392.613 258.547C392.777 258.384 392.999 258.292 393.23 258.292C393.461 258.292 393.683 258.384 393.847 258.547C394.01 258.711 394.102 258.933 394.102 259.164V267.503C394.102 267.734 394.01 267.956 393.847 268.12C393.683 268.283 393.461 268.375 393.23 268.375ZM451.274 277.099C451.042 277.099 450.82 277.007 450.657 276.844C450.493 276.68 450.401 276.458 450.401 276.227V267.503C450.401 267.271 450.493 267.049 450.657 266.886C450.82 266.722 451.042 266.63 451.274 266.63C451.505 266.63 451.727 266.722 451.89 266.886C452.054 267.049 452.146 267.271 452.146 267.503V276.227C452.146 276.458 452.054 276.68 451.89 276.844C451.727 277.007 451.505 277.099 451.274 277.099ZM415.342 271.698C415.111 271.698 414.889 271.606 414.725 271.443C414.561 271.279 414.469 271.057 414.469 270.826V253.123C414.469 252.892 414.561 252.67 414.725 252.507C414.889 252.343 415.111 252.251 415.342 252.251C415.573 252.251 415.795 252.343 415.959 252.507C416.122 252.67 416.214 252.892 416.214 253.123V270.826C416.214 271.057 416.122 271.279 415.959 271.443C415.795 271.606 415.573 271.698 415.342 271.698Z" fill="black"/>
<path d="M451.275 277.099C451.232 277.099 451.188 277.096 451.144 277.089L393.1 268.365C392.987 268.348 392.878 268.309 392.78 268.25C392.682 268.191 392.596 268.113 392.528 268.021C392.46 267.929 392.411 267.824 392.383 267.713C392.356 267.602 392.35 267.486 392.367 267.373C392.384 267.259 392.423 267.151 392.482 267.052C392.542 266.954 392.619 266.869 392.712 266.801C392.804 266.733 392.908 266.683 393.02 266.656C393.131 266.628 393.246 266.623 393.36 266.64L451.403 275.364C451.621 275.396 451.818 275.51 451.956 275.682C452.093 275.854 452.161 276.072 452.144 276.291C452.128 276.511 452.029 276.716 451.868 276.866C451.707 277.016 451.495 277.099 451.275 277.099ZM393.23 276.226L451.274 284.951V307.572L393.23 298.847V276.226Z" fill="black"/>
<path d="M451.274 308.444C451.231 308.444 451.187 308.441 451.144 308.435L393.1 299.71C392.894 299.679 392.705 299.575 392.569 299.417C392.432 299.258 392.358 299.056 392.358 298.848V276.227C392.357 276.101 392.385 275.977 392.437 275.863C392.489 275.749 392.565 275.647 392.661 275.566C392.756 275.484 392.868 275.423 392.988 275.389C393.109 275.354 393.236 275.346 393.36 275.364L451.403 284.089C451.61 284.12 451.799 284.224 451.935 284.382C452.071 284.54 452.146 284.742 452.146 284.951V307.572C452.146 307.803 452.054 308.025 451.891 308.189C451.727 308.353 451.505 308.445 451.274 308.445V308.444ZM394.103 298.096L450.401 306.559V285.702L394.103 277.24V298.096ZM451.275 314.26C451.232 314.26 451.188 314.257 451.144 314.251L393.1 305.527C392.987 305.51 392.878 305.47 392.78 305.411C392.682 305.352 392.596 305.274 392.528 305.182C392.46 305.09 392.411 304.985 392.383 304.874C392.356 304.763 392.35 304.647 392.367 304.534C392.384 304.421 392.423 304.312 392.482 304.213C392.541 304.115 392.619 304.029 392.711 303.961C392.803 303.893 392.908 303.844 393.019 303.816C393.131 303.789 393.246 303.784 393.36 303.801L451.403 312.525C451.621 312.558 451.818 312.671 451.956 312.843C452.093 313.015 452.161 313.233 452.144 313.452C452.128 313.672 452.029 313.877 451.868 314.027C451.707 314.177 451.495 314.26 451.275 314.26Z" fill="black"/>
<path d="M500.626 501.208H412.434V337.758L500.626 289.392V501.208Z" fill="white"/>
<path d="M500.626 502.08H412.434C412.203 502.08 411.981 501.988 411.817 501.825C411.653 501.661 411.562 501.439 411.562 501.208V337.757C411.562 337.439 411.735 337.146 412.015 336.993L500.206 288.626C500.339 288.553 500.489 288.516 500.64 288.519C500.792 288.521 500.94 288.563 501.071 288.64C501.201 288.718 501.309 288.827 501.384 288.959C501.459 289.091 501.499 289.24 501.499 289.391V501.208C501.499 501.439 501.407 501.661 501.243 501.825C501.079 501.988 500.858 502.08 500.626 502.08L500.626 502.08ZM413.306 500.335H499.753V290.865L413.306 338.274V500.335Z" fill="black"/>
<path d="M500.626 501.208H424.291V359.734L500.626 317.87V501.208Z" fill="white"/>
<path d="M500.626 502.08H424.291C424.06 502.08 423.838 501.988 423.674 501.825C423.511 501.661 423.419 501.439 423.419 501.208V359.733C423.419 359.414 423.593 359.121 423.872 358.968L500.207 317.105C500.34 317.032 500.489 316.995 500.641 316.997C500.792 317 500.94 317.042 501.071 317.119C501.201 317.196 501.309 317.306 501.384 317.437C501.459 317.569 501.499 317.718 501.499 317.869V501.208C501.499 501.439 501.407 501.661 501.243 501.825C501.08 501.988 500.858 502.08 500.626 502.08H500.626ZM425.164 500.335H499.754V319.343L425.164 360.249V500.335Z" fill="black"/>
<path d="M500.626 333.325L424.291 375.188V359.734L500.626 317.87V333.325Z" fill="black"/>
<path d="M424.292 376.06C424.06 376.06 423.838 375.969 423.675 375.805C423.511 375.641 423.419 375.419 423.419 375.188V359.733C423.419 359.414 423.593 359.121 423.872 358.968L500.207 317.105C500.34 317.032 500.489 316.995 500.641 316.997C500.792 317 500.941 317.042 501.071 317.119C501.202 317.196 501.31 317.306 501.385 317.437C501.46 317.569 501.499 317.718 501.499 317.87V333.325C501.499 333.481 501.457 333.635 501.377 333.769C501.298 333.904 501.183 334.014 501.046 334.09L424.711 375.953C424.583 376.023 424.438 376.061 424.292 376.06ZM425.164 360.25V373.714L499.754 332.808V319.343L425.164 360.25ZM357.734 257.831H284.569C284.337 257.831 284.115 257.74 283.952 257.576C283.788 257.412 283.696 257.19 283.696 256.959V217.627C283.696 217.396 283.788 217.174 283.952 217.01C284.115 216.847 284.337 216.755 284.569 216.755H357.734C357.965 216.755 358.187 216.847 358.351 217.01C358.514 217.174 358.606 217.396 358.606 217.627V256.959C358.606 257.19 358.514 257.412 358.351 257.576C358.187 257.74 357.965 257.831 357.734 257.831ZM285.441 256.087H356.861V218.5H285.441V256.087Z" fill="black"/>
<path d="M291.92 223.288H302.096V251.298H291.92V223.288Z" fill="black"/>
<path d="M302.095 252.171H291.919C291.688 252.171 291.466 252.079 291.302 251.916C291.139 251.752 291.047 251.53 291.047 251.299V223.288C291.047 223.057 291.139 222.835 291.302 222.672C291.466 222.508 291.688 222.416 291.919 222.416H302.095C302.327 222.416 302.549 222.508 302.712 222.672C302.876 222.835 302.968 223.057 302.968 223.288V251.299C302.968 251.53 302.876 251.752 302.712 251.916C302.549 252.079 302.327 252.171 302.095 252.171ZM292.792 250.426H301.223V224.161H292.792V250.426ZM308.015 223.288H318.191V251.298H308.015V223.288Z" fill="black"/>
<path d="M318.191 252.171H308.015C307.784 252.171 307.562 252.079 307.398 251.916C307.234 251.752 307.143 251.53 307.143 251.299V223.288C307.143 223.057 307.234 222.835 307.398 222.672C307.562 222.508 307.784 222.416 308.015 222.416H318.191C318.423 222.416 318.644 222.508 318.808 222.672C318.972 222.835 319.064 223.057 319.064 223.288V251.299C319.064 251.53 318.972 251.752 318.808 251.916C318.644 252.079 318.423 252.171 318.191 252.171ZM308.887 250.426H317.318V224.161H308.887V250.426ZM324.11 223.288H334.287V251.298H324.11V223.288Z" fill="black"/>
<path d="M334.287 252.171H324.111C323.879 252.171 323.657 252.079 323.494 251.916C323.33 251.752 323.238 251.53 323.238 251.299V223.288C323.238 223.057 323.33 222.835 323.494 222.672C323.657 222.508 323.879 222.416 324.111 222.416H334.287C334.518 222.416 334.74 222.508 334.904 222.672C335.067 222.835 335.159 223.057 335.159 223.288V251.299C335.159 251.53 335.067 251.752 334.904 251.916C334.74 252.079 334.518 252.171 334.287 252.171ZM324.983 250.426H333.414V224.161H324.983V250.426ZM340.206 223.288H350.382V251.298H340.206V223.288Z" fill="black"/>
<path d="M350.382 252.171H340.206C339.974 252.171 339.753 252.079 339.589 251.916C339.425 251.752 339.333 251.53 339.333 251.299V223.288C339.333 223.057 339.425 222.835 339.589 222.672C339.753 222.508 339.974 222.416 340.206 222.416H350.382C350.613 222.416 350.835 222.508 350.999 222.672C351.163 222.835 351.254 223.057 351.254 223.288V251.299C351.254 251.53 351.163 251.752 350.999 251.916C350.835 252.079 350.613 252.171 350.382 252.171ZM341.078 250.426H349.509V224.161H341.078V250.426ZM271.379 256.959V501.208H277.129V458.607H365.258V501.208H370.922V256.959H271.379ZM365.258 451.554H277.129V426.174H365.258V451.554ZM365.258 419.122H277.129V393.742H365.258V419.122ZM365.258 386.689H277.129V361.309H365.258V386.689ZM365.258 354.257H277.129V328.877H365.258V354.257ZM365.258 321.824H277.129V296.444H365.258V321.824ZM365.258 289.392H277.129V264.012H365.258V289.392Z" fill="black"/>
<path d="M370.922 502.081H365.258C365.027 502.081 364.805 501.989 364.641 501.825C364.477 501.662 364.386 501.44 364.386 501.208V459.479H278.001V501.208C278.001 501.44 277.91 501.662 277.746 501.825C277.582 501.989 277.36 502.081 277.129 502.081H271.379C271.148 502.081 270.926 501.989 270.762 501.825C270.599 501.662 270.507 501.44 270.507 501.208V256.959C270.507 256.728 270.599 256.506 270.762 256.342C270.926 256.179 271.148 256.087 271.379 256.087H370.922C371.154 256.087 371.376 256.179 371.539 256.342C371.703 256.506 371.795 256.728 371.795 256.959V501.208C371.795 501.44 371.703 501.662 371.539 501.825C371.376 501.989 371.154 502.081 370.922 502.081ZM366.13 500.336H370.05V257.832H272.252V500.336H276.257V458.607C276.257 458.375 276.349 458.153 276.512 457.99C276.676 457.826 276.898 457.734 277.129 457.734H365.258C365.49 457.734 365.712 457.826 365.875 457.99C366.039 458.153 366.131 458.375 366.131 458.607V500.336H366.13ZM365.258 452.426H277.129C276.898 452.426 276.676 452.335 276.512 452.171C276.348 452.007 276.257 451.785 276.257 451.554V426.174C276.257 425.943 276.348 425.721 276.512 425.558C276.676 425.394 276.898 425.302 277.129 425.302H365.258C365.489 425.302 365.711 425.394 365.875 425.558C366.039 425.721 366.13 425.943 366.13 426.174V451.554C366.13 451.785 366.039 452.007 365.875 452.171C365.711 452.335 365.489 452.426 365.258 452.426ZM278.001 450.682H364.386V427.047H278.001V450.682ZM365.258 419.994H277.129C276.898 419.994 276.676 419.902 276.512 419.739C276.348 419.575 276.257 419.353 276.257 419.122V393.742C276.257 393.511 276.348 393.289 276.512 393.125C276.676 392.962 276.898 392.87 277.129 392.87H365.258C365.489 392.87 365.711 392.962 365.875 393.125C366.039 393.289 366.13 393.511 366.13 393.742V419.122C366.13 419.353 366.039 419.575 365.875 419.739C365.711 419.902 365.489 419.994 365.258 419.994ZM278.001 418.249H364.386V394.615H278.001V418.249ZM365.258 387.562H277.129C276.898 387.562 276.676 387.47 276.512 387.306C276.348 387.142 276.257 386.921 276.257 386.689V361.309C276.257 361.078 276.348 360.856 276.512 360.692C276.676 360.529 276.898 360.437 277.129 360.437H365.258C365.489 360.437 365.711 360.529 365.875 360.692C366.039 360.856 366.13 361.078 366.13 361.309V386.689C366.13 386.921 366.039 387.142 365.875 387.306C365.711 387.47 365.489 387.562 365.258 387.562ZM278.001 385.817H364.386V362.182H278.001V385.817ZM365.258 355.129H277.129C276.898 355.129 276.676 355.037 276.512 354.874C276.348 354.71 276.257 354.488 276.257 354.257V328.877C276.257 328.646 276.348 328.424 276.512 328.26C276.676 328.096 276.898 328.004 277.129 328.004H365.258C365.489 328.004 365.711 328.096 365.875 328.26C366.039 328.424 366.13 328.646 366.13 328.877V354.257C366.13 354.488 366.039 354.71 365.875 354.874C365.711 355.037 365.489 355.129 365.258 355.129ZM278.001 353.384H364.386V329.749H278.001V353.384ZM365.258 322.697H277.129C276.898 322.697 276.676 322.605 276.512 322.441C276.348 322.278 276.257 322.056 276.257 321.824V296.445C276.257 296.213 276.348 295.991 276.512 295.828C276.676 295.664 276.898 295.572 277.129 295.572H365.258C365.489 295.572 365.711 295.664 365.875 295.828C366.039 295.991 366.13 296.213 366.13 296.445V321.824C366.13 322.056 366.039 322.278 365.875 322.441C365.711 322.605 365.489 322.697 365.258 322.697ZM278.001 320.952H364.386V297.317H278.001V320.952ZM365.258 290.264H277.129C276.898 290.264 276.676 290.172 276.512 290.009C276.348 289.845 276.257 289.623 276.257 289.392V264.012C276.257 263.781 276.348 263.559 276.512 263.395C276.676 263.231 276.898 263.14 277.129 263.14H365.258C365.489 263.14 365.711 263.231 365.875 263.395C366.039 263.559 366.13 263.781 366.13 264.012V289.392C366.13 289.623 366.039 289.845 365.875 290.009C365.711 290.172 365.489 290.264 365.258 290.264ZM278.001 288.519H364.386V264.884H278.001V288.519Z" fill="black"/>
<path d="M307.124 349.908H378.64V501.208H307.124V349.908Z" fill="white"/>
<path d="M378.64 502.081H307.123C306.892 502.081 306.67 501.989 306.507 501.825C306.343 501.661 306.251 501.44 306.251 501.208V349.909C306.251 349.677 306.343 349.455 306.507 349.292C306.67 349.128 306.892 349.036 307.123 349.036H378.64C378.871 349.036 379.093 349.128 379.257 349.292C379.42 349.455 379.512 349.677 379.512 349.909V501.208C379.512 501.44 379.42 501.661 379.257 501.825C379.093 501.989 378.871 502.081 378.64 502.081ZM307.996 500.336H377.767V350.781H307.996V500.336Z" fill="black"/>
<path d="M314.841 349.908H370.922L342.882 323.93L314.841 349.908Z" fill="white"/>
<path d="M370.922 350.781H314.841C314.666 350.781 314.494 350.728 314.35 350.629C314.205 350.53 314.093 350.39 314.029 350.227C313.965 350.064 313.952 349.885 313.991 349.714C314.03 349.543 314.119 349.388 314.248 349.269L342.289 323.29C342.45 323.141 342.662 323.058 342.882 323.058C343.102 323.058 343.314 323.141 343.475 323.29L371.515 349.269C371.644 349.388 371.734 349.543 371.773 349.714C371.812 349.885 371.799 350.064 371.735 350.227C371.671 350.39 371.559 350.53 371.414 350.629C371.269 350.728 371.098 350.781 370.922 350.781ZM317.066 349.036H368.697L342.882 325.119L317.066 349.036H317.066Z" fill="black"/>
<path d="M300.59 369.314H359.978V501.208H300.59V369.314Z" fill="white"/>
<path d="M359.978 502.081H300.59C300.359 502.081 300.137 501.989 299.973 501.825C299.81 501.662 299.718 501.44 299.718 501.208V369.315C299.718 369.083 299.81 368.862 299.973 368.698C300.137 368.534 300.359 368.442 300.59 368.442H359.978C360.209 368.442 360.431 368.534 360.595 368.698C360.759 368.862 360.851 369.083 360.851 369.315V501.208C360.851 501.44 360.759 501.662 360.595 501.825C360.431 501.989 360.209 502.081 359.978 502.081ZM301.463 500.336H359.106V370.187H301.463V500.336Z" fill="black"/>
<path d="M307.627 377.018H318.634V493.504H307.627V377.018Z" fill="black"/>
<path d="M318.635 494.377H307.627C307.396 494.377 307.174 494.285 307.01 494.121C306.847 493.958 306.755 493.736 306.755 493.504V377.018C306.755 376.787 306.847 376.565 307.01 376.401C307.174 376.237 307.396 376.146 307.627 376.146H318.635C318.866 376.146 319.088 376.237 319.252 376.401C319.415 376.565 319.507 376.787 319.507 377.018V493.504C319.507 493.736 319.415 493.958 319.252 494.121C319.088 494.285 318.866 494.377 318.635 494.377ZM308.5 492.632H317.762V377.89H308.5V492.632ZM324.78 377.018H335.788V493.504H324.78V377.018Z" fill="black"/>
<path d="M335.787 494.377H324.78C324.548 494.377 324.326 494.285 324.163 494.121C323.999 493.958 323.907 493.736 323.907 493.504V377.018C323.907 376.787 323.999 376.565 324.163 376.401C324.326 376.237 324.548 376.146 324.78 376.146H335.787C336.019 376.146 336.241 376.237 336.404 376.401C336.568 376.565 336.66 376.787 336.66 377.018V493.504C336.66 493.736 336.568 493.958 336.404 494.121C336.241 494.285 336.019 494.377 335.787 494.377ZM325.652 492.632H334.915V377.89H325.652V492.632ZM341.933 377.018H352.94V493.504H341.933V377.018Z" fill="black"/>
<path d="M352.941 494.377H341.933C341.702 494.377 341.48 494.285 341.316 494.121C341.152 493.958 341.061 493.736 341.061 493.504V377.018C341.061 376.787 341.152 376.565 341.316 376.401C341.48 376.237 341.702 376.146 341.933 376.146H352.941C353.172 376.146 353.394 376.237 353.558 376.401C353.721 376.565 353.813 376.787 353.813 377.018V493.504C353.813 493.736 353.721 493.958 353.558 494.121C353.394 494.285 353.172 494.377 352.941 494.377ZM342.806 492.632H352.068V377.89H342.806V492.632Z" fill="black"/>
</g>
<g clip-path="url(#clip2_5395_5906)">
<path d="M363.712 190.846C363.505 190.846 363.305 190.772 363.148 190.638C362.99 190.503 362.886 190.316 362.853 190.112L356.813 152.16C356.776 151.931 356.832 151.698 356.967 151.51C357.103 151.323 357.307 151.197 357.535 151.161L414.675 142.011C414.903 141.975 415.135 142.031 415.322 142.166C415.509 142.302 415.634 142.506 415.671 142.735L423.082 189.302C423.102 189.426 423.095 189.552 423.061 189.673C423.028 189.794 422.968 189.906 422.888 190.002C422.807 190.098 422.706 190.175 422.593 190.229C422.48 190.282 422.356 190.31 422.231 190.311L363.72 190.846H363.712ZM358.668 152.747L364.453 189.095L421.205 188.576L414.09 143.871L358.668 152.747Z" fill="black"/>
<path d="M403.845 144.628L368.638 150.266L372.293 117.894L390.323 115.007L403.845 144.628Z" fill="black"/>
<path d="M368.638 151.139C368.516 151.139 368.395 151.113 368.283 151.063C368.171 151.013 368.071 150.939 367.989 150.848C367.908 150.756 367.847 150.648 367.809 150.531C367.772 150.414 367.76 150.29 367.774 150.168L371.43 117.796C371.451 117.607 371.534 117.43 371.665 117.292C371.796 117.154 371.969 117.063 372.157 117.033L390.186 114.146C390.374 114.116 390.566 114.148 390.734 114.238C390.902 114.328 391.035 114.471 391.114 114.644L404.637 144.265C404.693 144.388 404.72 144.521 404.716 144.656C404.711 144.79 404.676 144.922 404.613 145.041C404.55 145.159 404.46 145.261 404.351 145.339C404.241 145.417 404.116 145.469 403.983 145.49L368.775 151.128C368.73 151.135 368.684 151.139 368.638 151.139ZM373.084 118.651L369.631 149.224L402.579 143.948L389.808 115.973L373.084 118.651Z" fill="black"/>
<path d="M377.523 117.929C377.311 117.929 377.105 117.851 376.946 117.709C376.787 117.567 376.685 117.372 376.659 117.16L365.332 21.6051C365.304 21.3809 365.365 21.1549 365.5 20.9745C365.636 20.7941 365.836 20.6735 366.058 20.6379C366.28 20.6023 366.508 20.6545 366.692 20.7837C366.877 20.9128 367.005 21.1087 367.048 21.3303L385.946 115.673C385.968 115.788 385.968 115.907 385.944 116.022C385.92 116.137 385.874 116.246 385.807 116.342C385.74 116.439 385.654 116.521 385.555 116.583C385.456 116.646 385.345 116.688 385.23 116.706L377.661 117.918C377.615 117.925 377.569 117.929 377.523 117.929ZM369.628 43.0682L378.28 116.052L384.061 115.126L369.628 43.0682Z" fill="black"/>
<path d="M366.632 209.2C366.425 209.2 366.225 209.126 366.068 208.991C365.911 208.856 365.806 208.67 365.774 208.465L362.853 190.112C362.824 189.887 362.884 189.66 363.019 189.478C363.155 189.296 363.356 189.175 363.579 189.139C363.802 189.103 364.031 189.156 364.216 189.286C364.401 189.417 364.528 189.614 364.571 189.837L367.492 208.19C367.512 208.315 367.504 208.442 367.47 208.564C367.436 208.685 367.376 208.798 367.294 208.894C367.212 208.99 367.111 209.067 366.996 209.12C366.882 209.173 366.758 209.2 366.632 209.2ZM425.083 208.284C424.876 208.283 424.676 208.209 424.519 208.075C424.362 207.94 424.258 207.754 424.225 207.549L421.364 189.576C421.328 189.348 421.384 189.114 421.519 188.927C421.654 188.74 421.858 188.614 422.086 188.577C422.314 188.541 422.547 188.597 422.734 188.733C422.92 188.868 423.046 189.073 423.082 189.301L425.943 207.274C425.963 207.398 425.955 207.526 425.921 207.648C425.887 207.769 425.827 207.882 425.745 207.978C425.663 208.074 425.562 208.151 425.448 208.204C425.333 208.257 425.209 208.284 425.083 208.284ZM387.45 199.749C387.243 199.749 387.044 199.675 386.886 199.54C386.729 199.406 386.625 199.219 386.592 199.014L385.143 189.908C385.107 189.679 385.162 189.446 385.298 189.258C385.433 189.071 385.637 188.945 385.865 188.909C386.093 188.873 386.325 188.929 386.512 189.064C386.699 189.2 386.824 189.404 386.861 189.633L388.31 198.739C388.33 198.864 388.323 198.992 388.289 199.113C388.254 199.235 388.194 199.347 388.113 199.443C388.031 199.539 387.929 199.616 387.815 199.669C387.701 199.722 387.576 199.749 387.45 199.749Z" fill="black"/>
</g>
<g clip-path="url(#clip3_5395_5906)">
<path d="M348.084 166.874C350.444 164.837 353.007 162.871 355.568 162.052C360 160.634 369.7 160.172 371.527 160.1C379.97 159.769 376.55 167.537 370.368 169.033C366.06 170.076 362.924 170.756 362.924 170.756C362.924 170.756 364.551 175.744 358.44 178.699" fill="white"/>
<path d="M358.44 179.564C358.243 179.564 358.052 179.498 357.898 179.376C357.744 179.254 357.636 179.084 357.592 178.893C357.548 178.703 357.57 178.503 357.655 178.326C357.74 178.149 357.883 178.007 358.06 177.921C363.38 175.349 362.15 171.194 362.095 171.018C362.059 170.903 362.047 170.782 362.061 170.663C362.074 170.543 362.113 170.428 362.173 170.323C362.234 170.219 362.315 170.129 362.413 170.058C362.51 169.987 362.621 169.937 362.739 169.911C362.77 169.904 365.916 169.221 370.163 168.193C373.529 167.378 375.931 164.522 375.675 162.701C375.506 161.502 374.006 160.869 371.562 160.965C370.424 161.009 360.316 161.442 355.835 162.876C353.327 163.678 350.797 165.678 348.654 167.528C348.479 167.671 348.255 167.741 348.029 167.722C347.803 167.703 347.593 167.597 347.444 167.427C347.296 167.257 347.22 167.036 347.233 166.81C347.246 166.585 347.347 166.374 347.514 166.222C349.79 164.257 352.496 162.127 355.302 161.229C360.003 159.725 370.331 159.281 371.493 159.236C376.382 159.04 377.251 161.428 377.397 162.462C377.807 165.377 374.555 168.91 370.574 169.874C368.363 170.409 366.148 170.925 363.928 171.42C364.126 173.177 363.895 177.024 358.82 179.477C358.702 179.534 358.572 179.564 358.44 179.564L358.44 179.564Z" fill="black"/>
</g>
<g clip-path="url(#clip4_5395_5906)">
<path d="M286.832 88.0743C285.109 86.5207 282.788 85.6108 280.147 85.6582L252.99 86.1441C246.944 86.2523 241.512 91.3367 240.859 97.5002L240.402 101.807C239.984 105.749 241.621 109.178 244.438 111.11L237.474 105.824C235.154 103.826 233.862 100.69 234.239 97.1377L234.696 92.831C235.349 86.6675 240.78 81.5834 246.827 81.475L273.984 80.9891C276.252 80.9486 278.283 81.6133 279.903 82.7854L286.832 88.0746V88.0743Z" fill="black"/>
<path d="M244.437 112.015C244.273 112.015 244.106 111.967 243.959 111.866C243.693 111.683 243.435 111.488 243.186 111.281L236.961 106.556C236.947 106.545 236.933 106.534 236.919 106.522C234.269 104.238 232.976 100.782 233.373 97.0382L233.83 92.7315C234.529 86.1406 240.353 80.6847 246.812 80.569L273.969 80.0831C276.349 80.0387 278.571 80.7176 280.4 82.0414L286.14 86.423C286.585 86.7102 287.007 87.0335 287.402 87.3897C287.572 87.543 287.678 87.7586 287.699 87.9914C287.719 88.2243 287.652 88.4564 287.512 88.6391C287.372 88.8219 287.169 88.9412 286.946 88.9721C286.724 89.003 286.498 88.9431 286.317 88.805L285.168 87.9279C283.724 87.0095 281.987 86.532 280.162 86.5643L253.004 87.0503C247.391 87.1508 242.331 91.8831 241.724 97.5999L241.267 101.907C240.932 105.075 242.04 107.983 244.255 109.849L244.952 110.378C245.1 110.491 245.21 110.649 245.267 110.831C245.323 111.013 245.323 111.209 245.266 111.391C245.209 111.573 245.098 111.731 244.949 111.843C244.8 111.956 244.621 112.016 244.437 112.016V112.015ZM238.01 105.109L240.044 106.653C239.534 105.128 239.351 103.45 239.536 101.707L239.993 97.4006C240.692 90.8097 246.515 85.3535 252.974 85.2382L280.132 84.7522C280.432 84.747 280.733 84.7535 281.033 84.7716L279.388 83.5158C277.878 82.4237 276.011 81.8629 273.999 81.8949L246.841 82.3808C241.228 82.4814 236.168 87.2137 235.561 92.9302L235.104 97.2369C234.774 100.354 235.833 103.221 238.01 105.109Z" fill="black"/>
<path d="M209.301 80.5696C213.406 83.1908 232.126 88.1142 235.224 89.0393C241.458 90.9009 239.244 100.3 234.14 98.6872C231.374 97.8131 225.053 95.539 225.053 95.539C223.38 88.4486 214.645 87.2586 210.672 93.0144C209.04 94.6565 207.131 79.5219 209.301 80.5696Z" fill="black"/>
<path d="M235.292 99.7805C234.836 99.7805 234.365 99.7059 233.886 99.5546C231.136 98.6854 224.832 96.4188 224.768 96.3958C224.631 96.3464 224.507 96.2619 224.409 96.15C224.311 96.0382 224.242 95.9026 224.207 95.7556C223.544 92.9447 221.547 90.9445 218.863 90.4045C215.983 89.824 213.116 91.0278 211.379 93.5436C211.348 93.5876 211.314 93.6287 211.277 93.6662C210.805 94.1419 210.143 94.173 209.631 93.7426C207.943 92.3241 206.722 82.4038 207.977 80.3066C208.365 79.6585 209.03 79.4399 209.668 79.7482C209.699 79.763 209.728 79.7796 209.757 79.798C213.062 81.9085 226.819 85.7468 232.694 87.3858C233.946 87.7353 234.935 88.011 235.465 88.1693C237.661 88.8249 239.211 90.4425 239.717 92.6068C240.223 94.7668 239.605 97.1605 238.179 98.5628C237.362 99.367 236.367 99.7805 235.292 99.7805ZM225.772 94.8389C227.246 95.3666 232.093 97.0938 234.393 97.8207C235.646 98.2167 236.493 97.7268 236.982 97.246C237.953 96.2913 238.381 94.5596 238.025 93.0356C237.665 91.4987 236.585 90.3888 234.984 89.911C234.469 89.757 233.486 89.483 232.243 89.136C226.058 87.4103 213.465 83.897 209.333 81.6289C209.167 82.4077 209.109 84.2189 209.421 86.8685C209.706 89.291 210.136 91.0004 210.462 91.8252C212.626 89.1822 215.903 87.9624 219.194 88.6253C222.406 89.2719 224.834 91.5778 225.772 94.8389Z" fill="black"/>
<path d="M277.323 112.285L250.165 112.771C244.119 112.879 239.748 107.97 240.402 101.807L240.859 97.5C241.512 91.3365 246.944 86.2524 252.99 86.1439L280.147 85.658C286.193 85.5499 290.565 90.4585 289.911 96.622L289.454 100.929C288.8 107.092 283.369 112.176 277.323 112.285Z" fill="#00B2FF"/>
<path d="M249.967 113.679C246.845 113.679 244.05 112.447 242.078 110.195C240.098 107.935 239.195 104.921 239.536 101.707L239.993 97.4005C240.692 90.8097 246.516 85.3535 252.975 85.2381L280.132 84.7522C283.354 84.6906 286.218 85.9316 288.235 88.2344C290.215 90.4944 291.118 93.5085 290.776 96.7216L290.319 101.029C289.621 107.619 283.797 113.075 277.338 113.191L250.18 113.677C250.109 113.678 250.038 113.679 249.967 113.679ZM280.344 86.5622C280.284 86.5622 280.223 86.5628 280.163 86.5637L253.005 87.0496C247.391 87.1502 242.331 91.8824 241.725 97.5993L241.268 101.906C240.983 104.594 241.728 107.105 243.366 108.974C245.041 110.886 247.447 111.917 250.151 111.865L277.309 111.379C282.922 111.278 287.982 106.546 288.589 100.829L289.046 96.5223C289.33 93.8341 288.586 91.324 286.948 89.4542C285.31 87.5851 282.971 86.5622 280.344 86.5622Z" fill="black"/>
<path d="M238.413 111.339C236.565 116.374 243.127 119.463 246.872 116.456L238.413 111.339Z" fill="white"/>
<path d="M243.39 118.537C241.942 118.537 240.484 118.083 239.309 117.173C237.373 115.676 236.734 113.374 237.599 111.015C237.644 110.893 237.715 110.782 237.805 110.69C237.896 110.598 238.004 110.528 238.123 110.484C238.242 110.441 238.369 110.424 238.494 110.437C238.62 110.449 238.742 110.489 238.851 110.555L247.31 115.673C247.434 115.747 247.538 115.853 247.613 115.979C247.688 116.105 247.732 116.249 247.742 116.397C247.751 116.545 247.725 116.693 247.666 116.829C247.607 116.964 247.518 117.082 247.405 117.173C246.273 118.082 244.836 118.536 243.39 118.536V118.537ZM238.976 112.728C238.829 114.263 239.723 115.235 240.348 115.719C241.533 116.635 243.429 117.073 245.113 116.44L238.976 112.728Z" fill="black"/>
</g>
<defs>
<clipPath id="clip0_5395_5906">
<rect width="380.918" height="455.01" fill="white" transform="translate(10.46 47.0703)"/>
</clipPath>
<clipPath id="clip1_5395_5906">
<rect width="230.992" height="285.326" fill="white" transform="translate(270.507 216.755)"/>
</clipPath>
<clipPath id="clip2_5395_5906">
<rect width="69.1522" height="188.571" fill="white" transform="translate(356.802 20.6299)"/>
</clipPath>
<clipPath id="clip3_5395_5906">
<rect width="30.2178" height="20.3389" fill="white" transform="translate(347.214 159.225)"/>
</clipPath>
<clipPath id="clip4_5395_5906">
<rect width="83.3895" height="38.9344" fill="white" transform="translate(207.457 79.6123)"/>
</clipPath>
</defs>
</svg>
