<svg width="45" height="45" viewBox="0 0 45 45" fill="none" xmlns="http://www.w3.org/2000/svg">
<g id="image" clip-path="url(#clip0_5395_6340)">
<path id="Vector" d="M40.8743 14.3334C41.9573 14.3334 42.9959 14.7636 43.7617 15.5294C44.5275 16.2952 44.9577 17.3338 44.9577 18.4167V26.5834C44.9577 27.6664 44.5275 28.705 43.7617 29.4708C42.9959 30.2365 41.9573 30.6667 40.8743 30.6667H38.7061C38.2084 34.6139 36.2873 38.2437 33.3033 40.8751C30.3194 43.5064 26.4778 44.9584 22.4993 44.9584V40.8751C25.7482 40.8751 28.8641 39.5845 31.1614 37.2871C33.4587 34.9898 34.7493 31.874 34.7493 28.6251V16.3751C34.7493 13.1262 33.4587 10.0103 31.1614 7.71302C28.8641 5.4157 25.7482 4.12508 22.4993 4.12508C19.2504 4.12508 16.1346 5.4157 13.8373 7.71302C11.54 10.0103 10.2493 13.1262 10.2493 16.3751V30.6667H4.12435C3.04138 30.6667 2.00277 30.2365 1.237 29.4708C0.471223 28.705 0.0410156 27.6664 0.0410156 26.5834V18.4167C0.0410156 17.3338 0.471223 16.2952 1.237 15.5294C2.00277 14.7636 3.04138 14.3334 4.12435 14.3334H6.2926C6.79083 10.3867 8.71214 6.75735 11.696 4.12646C14.6799 1.49558 18.5213 0.0439453 22.4993 0.0439453C26.4774 0.0439453 30.3188 1.49558 33.3027 4.12646C36.2866 6.75735 38.2079 10.3867 38.7061 14.3334H40.8743ZM13.8427 30.2278L16.0068 26.7651C17.9527 27.9841 20.2032 28.6288 22.4993 28.6251C24.7955 28.6288 27.046 27.9841 28.9918 26.7651L31.156 30.2278C28.5616 31.8533 25.5609 32.7131 22.4993 32.7084C19.4378 32.7131 16.4371 31.8533 13.8427 30.2278Z" fill="#2D2D2D"/>
</g>
<defs>
<clipPath id="clip0_5395_6340">
<rect width="45" height="45" fill="white"/>
</clipPath>
</defs>
</svg>
