<svg width="48" height="34" viewBox="0 0 48 34" fill="none" xmlns="http://www.w3.org/2000/svg">
<g id="image" clip-path="url(#clip0_5395_6345)">
<path id="Vector" d="M22 10C22 14.42 18.42 18 14 18C9.58 18 6 14.42 6 10C6 5.58 9.58 2 14 2C18.42 2 22 5.58 22 10ZM22 23.44V34H0V30C0 25.58 6.26 22 14 22C17 22 19.74 22.54 22 23.44ZM48 34H26V0H48V34ZM32 17C32 15.6739 32.5268 14.4021 33.4645 13.4645C34.4021 12.5268 35.6739 12 37 12C38.3261 12 39.5979 12.5268 40.5355 13.4645C41.4732 14.4021 42 15.6739 42 17C42 18.3261 41.4732 19.5979 40.5355 20.5355C39.5979 21.4732 38.3261 22 37 22C35.6739 22 34.4021 21.4732 33.4645 20.5355C32.5268 19.5979 32 18.3261 32 17ZM44 8C42.9391 8 41.9217 7.57857 41.1716 6.82843C40.4214 6.07828 40 5.06087 40 4H34C34 6.22 32.22 8 30 8V26C31.0609 26 32.0783 26.4214 32.8284 27.1716C33.5786 27.9217 34 28.9391 34 30H40C40 27.8 41.8 26 44 26V8Z" fill="#2D2D2D"/>
</g>
<defs>
<clipPath id="clip0_5395_6345">
<rect width="48" height="34" fill="white"/>
</clipPath>
</defs>
</svg>
