<svg width="60" height="32" viewBox="0 0 60 32" fill="none" xmlns="http://www.w3.org/2000/svg">
<g id="image" clip-path="url(#clip0_5395_6350)">
<path id="Vector" d="M44.2267 10.5233C42.7742 9.07083 40.8041 8.25482 38.75 8.25482C36.6959 8.25482 34.7258 9.07083 33.2733 10.5233C31.8208 11.9758 31.0048 13.9459 31.0048 16C31.0048 18.0541 31.8208 20.0242 33.2733 21.4767C33.9925 22.1959 34.8464 22.7664 35.786 23.1556C36.7257 23.5448 37.7329 23.7452 38.75 23.7452C39.7671 23.7452 40.7743 23.5448 41.7139 23.1556C42.6536 22.7664 43.5075 22.1959 44.2267 21.4767C44.9459 20.7575 45.5164 19.9036 45.9056 18.964C46.2948 18.0243 46.4952 17.0171 46.4952 16C46.4952 14.9829 46.2948 13.9757 45.9056 13.036C45.5164 12.0964 44.9459 11.2425 44.2267 10.5233ZM18.0833 0.5V31.5H59.4167V0.5H18.0833ZM54.25 21.1667C52.8808 21.1667 51.5633 21.7092 50.6075 22.6908C49.6258 23.6467 49.0833 24.9642 49.0833 26.3333H28.4167C28.4167 24.9642 27.8742 23.6467 26.8925 22.6908C25.9367 21.7092 24.6192 21.1667 23.25 21.1667V10.8333C24.6192 10.8333 25.9367 10.2908 26.8925 9.30917C27.8742 8.35333 28.4167 7.03583 28.4167 5.66667H49.0833C49.0833 7.03583 49.6258 8.35333 50.6075 9.30917C51.5633 10.2908 52.8808 10.8333 54.25 10.8333V21.1667ZM12.9167 5.66667H7.75C6.32917 5.66667 5.16667 4.50417 5.16667 3.08333C5.16667 1.6625 6.32917 0.5 7.75 0.5H12.9167V5.66667ZM12.9167 18.5833H5.16667C3.74583 18.5833 2.58333 17.4208 2.58333 16C2.58333 14.5792 3.74583 13.4167 5.16667 13.4167H12.9167V18.5833ZM12.9167 31.5H2.58333C1.15733 31.5 0 30.3375 0 28.9167C0 27.4958 1.15733 26.3333 2.58333 26.3333H12.9167V31.5Z" fill="#2D2D2D"/>
</g>
<defs>
<clipPath id="clip0_5395_6350">
<rect width="60" height="32" fill="white"/>
</clipPath>
</defs>
</svg>
