<svg width="480" height="695" viewBox="0 0 480 695" fill="none" xmlns="http://www.w3.org/2000/svg">
<g filter="url(#filter0_ddd_6867_3549)">
<rect x="89.4883" y="23.9502" width="298.272" height="627.348" rx="37.5657" fill="#F8F8F8"/>
</g>
<path fill-rule="evenodd" clip-rule="evenodd" d="M379.474 337.693C379.474 429.673 379.47 521.653 379.482 613.632C379.483 619.252 378.097 624.472 375.089 629.211C370.274 636.795 363.349 641.266 354.479 642.721C353.11 642.945 351.703 643.021 350.314 643.021C275.869 643.035 201.424 643.036 126.979 643.03C112.649 643.029 100.379 632.6 98.1206 618.488C97.8543 616.825 97.7788 615.116 97.778 613.428C97.7601 570.11 97.7639 526.792 97.7639 483.474C97.7639 342.92 97.767 202.366 97.752 61.8122C97.7514 56.4274 98.9505 51.378 101.718 46.7644C106.359 39.03 113.137 34.2794 122.071 32.6927C123.522 32.4348 125.008 32.2481 126.478 32.2421C136.198 32.202 145.918 32.216 155.638 32.223C158.109 32.2247 159.531 33.5033 159.788 35.9468C159.888 36.8916 159.946 37.8443 159.956 38.794C159.976 40.8146 160.283 42.7822 161.087 44.6384C163.605 50.4576 167.983 53.8716 174.334 54.6513C175.454 54.7888 176.592 54.8247 177.722 54.8248C218.78 54.8333 259.838 54.8314 300.897 54.8328C303.858 54.8328 306.718 54.3462 309.316 52.8698C314.703 49.8092 317.557 45.1825 317.799 38.9822C317.843 37.8585 317.873 36.7316 317.986 35.614C318.177 33.7368 319.639 32.3719 321.542 32.2289C321.845 32.2061 322.152 32.22 322.457 32.2199C331.653 32.2198 340.85 32.2118 350.047 32.2219C363.971 32.237 375.776 41.6274 378.798 55.164C379.211 57.0148 379.277 58.9454 379.462 60.843C379.529 61.5317 379.474 62.2323 379.474 62.9275C379.474 154.516 379.474 246.105 379.474 337.693Z" fill="#F8F8F8"/>
<mask id="mask0_6867_3549" style="mask-type:luminance" maskUnits="userSpaceOnUse" x="98" y="33" width="283" height="611">
<path fill-rule="evenodd" clip-rule="evenodd" d="M379.985 338.368C379.985 430.237 379.982 522.107 379.994 613.976C379.994 619.589 378.608 624.803 375.6 629.536C370.786 637.111 363.861 641.577 354.99 643.03C353.622 643.254 352.215 643.329 350.826 643.33C276.381 643.344 201.936 643.345 127.491 643.339C113.161 643.338 100.89 632.921 98.6323 618.826C98.3661 617.165 98.2905 615.458 98.2897 613.772C98.2718 570.506 98.2756 527.24 98.2756 483.974C98.2756 343.588 98.2787 203.203 98.2637 62.8168C98.2631 57.4385 99.4622 52.3951 102.23 47.787C106.871 40.0619 113.649 35.317 122.583 33.7321C124.034 33.4746 125.52 33.2881 126.99 33.2821C136.71 33.2421 146.43 33.256 156.149 33.2631C158.62 33.2647 160.043 34.5418 160.3 36.9824C160.4 37.926 160.458 38.8776 160.467 39.8261C160.487 41.8444 160.795 43.8096 161.598 45.6635C164.117 51.4758 168.495 54.8857 174.846 55.6645C175.966 55.8018 177.104 55.8376 178.234 55.8378C219.292 55.8462 260.35 55.8444 301.408 55.8457C304.37 55.8457 307.229 55.3597 309.828 53.8852C315.215 50.8281 318.069 46.207 318.311 40.0141C318.354 38.8918 318.385 37.7663 318.498 36.65C318.689 34.775 320.151 33.4117 322.053 33.2689C322.357 33.2461 322.663 33.2601 322.968 33.2599C332.165 33.2598 341.362 33.2519 350.558 33.2619C364.483 33.277 376.287 42.6561 379.31 56.1765C379.723 58.0251 379.789 59.9534 379.973 61.8487C380.041 62.5366 379.985 63.2364 379.985 63.9307C379.985 155.41 379.985 246.889 379.985 338.368Z" fill="white"/>
</mask>
<g mask="url(#mask0_6867_3549)">
</g>
<g clip-path="url(#clip0_6867_3549)">
<mask id="mask1_6867_3549" style="mask-type:luminance" maskUnits="userSpaceOnUse" x="98" y="33" width="283" height="612">
<path fill-rule="evenodd" clip-rule="evenodd" d="M379.985 338.743C379.985 430.723 379.982 522.702 379.994 614.682C379.994 620.302 378.608 625.522 375.6 630.261C370.786 637.845 363.861 642.316 354.99 643.771C353.622 643.995 352.215 644.071 350.826 644.071C276.381 644.085 201.936 644.086 127.491 644.08C113.161 644.079 100.89 633.65 98.6323 619.538C98.3661 617.875 98.2905 616.166 98.2897 614.478C98.2718 571.16 98.2756 527.842 98.2756 484.524C98.2756 343.97 98.2787 203.416 98.2637 62.862C98.2631 57.4772 99.4622 52.4278 102.23 47.8142C106.871 40.0799 113.649 35.3292 122.583 33.7425C124.034 33.4846 125.52 33.2979 126.99 33.2919C136.71 33.2518 146.43 33.2658 156.149 33.2728C158.62 33.2745 160.043 34.5531 160.3 36.9966C160.4 37.9414 160.458 38.8941 160.467 39.8438C160.487 41.8644 160.795 43.832 161.598 45.6882C164.117 51.5074 168.495 54.9214 174.846 55.7011C175.966 55.8386 177.104 55.8745 178.234 55.8746C219.292 55.8831 260.35 55.8813 301.408 55.8826C304.37 55.8826 307.229 55.396 309.828 53.9197C315.215 50.859 318.069 46.2323 318.311 40.032C318.354 38.9083 318.385 37.7814 318.498 36.6638C318.689 34.7866 320.151 33.4217 322.053 33.2787C322.357 33.2559 322.663 33.2698 322.968 33.2697C332.165 33.2696 341.362 33.2616 350.558 33.2717C364.483 33.2868 376.287 42.6772 379.31 56.2138C379.723 58.0646 379.789 59.9952 379.973 61.8928C380.041 62.5815 379.985 63.2821 379.985 63.9773C379.985 155.566 379.985 247.155 379.985 338.743Z" fill="white"/>
</mask>
<g mask="url(#mask1_6867_3549)">
</g>
<mask id="mask2_6867_3549" style="mask-type:luminance" maskUnits="userSpaceOnUse" x="98" y="33" width="283" height="612">
<path fill-rule="evenodd" clip-rule="evenodd" d="M379.985 338.743C379.985 430.723 379.982 522.702 379.994 614.682C379.994 620.302 378.608 625.522 375.6 630.261C370.786 637.845 363.861 642.316 354.99 643.771C353.622 643.995 352.215 644.071 350.826 644.071C276.381 644.085 201.936 644.086 127.491 644.08C113.161 644.079 100.89 633.65 98.6323 619.538C98.3661 617.875 98.2905 616.166 98.2897 614.478C98.2718 571.16 98.2756 527.842 98.2756 484.524C98.2756 343.97 98.2787 203.416 98.2637 62.862C98.2631 57.4772 99.4622 52.4278 102.23 47.8142C106.871 40.0799 113.649 35.3292 122.583 33.7425C124.034 33.4846 125.52 33.2979 126.99 33.2919C136.71 33.2518 146.43 33.2658 156.149 33.2728C158.62 33.2745 160.043 34.5531 160.3 36.9966C160.4 37.9414 160.458 38.8941 160.467 39.8438C160.487 41.8644 160.795 43.832 161.598 45.6882C164.117 51.5074 168.495 54.9214 174.846 55.7011C175.966 55.8386 177.104 55.8745 178.234 55.8746C219.292 55.8831 260.35 55.8813 301.408 55.8826C304.37 55.8826 307.229 55.396 309.828 53.9197C315.215 50.859 318.069 46.2323 318.311 40.032C318.354 38.9083 318.385 37.7814 318.498 36.6638C318.689 34.7866 320.151 33.4217 322.053 33.2787C322.357 33.2559 322.663 33.2698 322.968 33.2697C332.165 33.2696 341.362 33.2616 350.558 33.2717C364.483 33.2868 376.287 42.6772 379.31 56.2138C379.723 58.0646 379.789 59.9952 379.973 61.8928C380.041 62.5815 379.985 63.2821 379.985 63.9773C379.985 155.566 379.985 247.155 379.985 338.743Z" fill="white"/>
</mask>
<g mask="url(#mask2_6867_3549)">
<rect x="98.2637" y="33.2646" width="281.743" height="610.068" rx="37.57" fill="white"/>
<rect x="98.2637" y="33.2646" width="281.743" height="610" rx="37.57" fill="white"/>
</g>
<g clip-path="url(#clip1_6867_3549)">
<path d="M199.872 97.0039H200.808C204.055 97.0743 207.249 98.3758 209.544 100.68C208.697 101.542 207.832 102.369 207.002 103.23C205.714 102.07 204.161 101.172 202.467 100.856C199.961 100.328 197.26 100.803 195.16 102.228C192.866 103.723 191.313 106.256 190.978 108.964C190.607 111.638 191.366 114.452 193.113 116.528C194.79 118.55 197.349 119.817 199.996 119.905C202.467 120.045 205.043 119.289 206.843 117.565C208.255 116.352 208.908 114.505 209.12 112.711C206.19 112.711 203.261 112.728 200.331 112.711V109.087H212.667C213.303 112.975 212.385 117.354 209.42 120.133C207.443 122.103 204.708 123.264 201.92 123.493C199.219 123.757 196.431 123.247 194.031 121.945C191.154 120.415 188.86 117.829 187.73 114.786C186.671 111.99 186.654 108.824 187.642 106.009C188.542 103.441 190.272 101.172 192.495 99.5895C194.631 98.0241 197.225 97.1622 199.872 97.0039Z" fill="#3C84FC"/>
<path d="M270.643 97.918H274.419V123.035C273.166 123.035 271.896 123.053 270.643 123.017C270.66 114.663 270.643 106.29 270.643 97.918Z" fill="#5CBC5D"/>
<path d="M221.068 106.624C223.397 106.184 225.921 106.677 227.845 108.066C229.592 109.297 230.809 111.232 231.18 113.343C231.657 115.788 231.057 118.461 229.468 120.396C227.756 122.559 224.95 123.72 222.215 123.544C219.709 123.404 217.273 122.155 215.791 120.114C214.114 117.863 213.708 114.767 214.626 112.129C215.544 109.297 218.138 107.134 221.068 106.624ZM221.597 109.966C220.644 110.212 219.762 110.757 219.126 111.531C217.414 113.571 217.52 116.896 219.409 118.795C220.485 119.886 222.109 120.396 223.609 120.097C225.003 119.851 226.221 118.918 226.892 117.687C228.056 115.594 227.721 112.71 225.939 111.074C224.791 110.018 223.115 109.579 221.597 109.966Z" fill="#F73B25"/>
<path d="M239.775 106.624C242.44 106.114 245.352 106.853 247.346 108.717C250.593 111.619 250.946 117.054 248.176 120.396C246.499 122.507 243.781 123.668 241.099 123.545C238.54 123.474 236.016 122.208 234.498 120.115C232.786 117.811 232.416 114.645 233.386 111.954C234.357 109.21 236.898 107.117 239.775 106.624ZM240.304 109.966C239.351 110.212 238.469 110.758 237.834 111.514C236.139 113.519 236.21 116.791 238.028 118.708C239.104 119.851 240.781 120.414 242.334 120.097C243.71 119.833 244.946 118.919 245.617 117.688C246.764 115.577 246.428 112.692 244.628 111.057C243.481 110.001 241.804 109.579 240.304 109.966Z" fill="#FBBC2E"/>
<path d="M255.64 107.645C257.67 106.378 260.37 106.027 262.559 107.117C263.247 107.416 263.812 107.926 264.359 108.436C264.376 107.961 264.359 107.469 264.376 106.976C265.559 106.994 266.741 106.976 267.941 106.994V122.507C267.924 124.847 267.324 127.327 265.629 129.033C263.776 130.915 260.935 131.495 258.376 131.108C255.64 130.704 253.258 128.716 252.199 126.201C253.258 125.691 254.37 125.287 255.464 124.812C256.082 126.254 257.335 127.485 258.905 127.767C260.476 128.048 262.294 127.661 263.317 126.359C264.412 125.023 264.412 123.193 264.359 121.558C263.547 122.349 262.612 123.053 261.482 123.317C259.029 124.003 256.329 123.158 254.44 121.505C252.534 119.852 251.405 117.301 251.511 114.768C251.564 111.901 253.187 109.14 255.64 107.645ZM259.294 109.896C258.217 110.072 257.211 110.67 256.523 111.497C254.864 113.467 254.864 116.615 256.541 118.55C257.494 119.693 259.029 120.326 260.511 120.168C261.906 120.027 263.194 119.148 263.882 117.934C265.047 115.876 264.853 113.08 263.282 111.286C262.312 110.178 260.758 109.632 259.294 109.896Z" fill="#3C84FC"/>
<path d="M278.953 108.541C281.071 106.571 284.336 105.903 287.054 106.941C289.63 107.908 291.272 110.353 292.101 112.868C288.272 114.451 284.459 116.016 280.63 117.599C281.159 118.602 281.971 119.517 283.065 119.886C284.601 120.431 286.436 120.238 287.724 119.218C288.236 118.831 288.642 118.321 289.03 117.828C290.001 118.479 290.972 119.112 291.942 119.763C290.566 121.821 288.254 123.263 285.765 123.492C283.012 123.826 280.083 122.771 278.3 120.625C275.371 117.248 275.653 111.584 278.953 108.541ZM280.842 111.795C280.242 112.657 279.994 113.712 280.012 114.75C282.571 113.695 285.13 112.639 287.689 111.566C287.266 110.581 286.242 109.983 285.201 109.825C283.524 109.526 281.777 110.423 280.842 111.795Z" fill="#F73B25"/>
</g>
<rect x="116.671" y="160.487" width="245.68" height="35.3118" rx="17.6559" fill="white"/>
<rect x="116.671" y="160.487" width="245.68" height="35.3118" rx="17.6559" stroke="#D7D9DA" stroke-width="0.751315"/>
<g clip-path="url(#clip2_6867_3549)">
<rect x="128.316" y="169.096" width="18.0316" height="18.0316" rx="9.01578" fill="white"/>
<g clip-path="url(#clip3_6867_3549)">
<path d="M142.777 178.237C142.777 177.774 142.74 177.436 142.66 177.085H137.441V179.176H140.505C140.443 179.696 140.109 180.478 139.368 181.004L139.358 181.074L141.008 182.37L141.122 182.382C142.172 181.399 142.777 179.952 142.777 178.237" fill="#4285F4"/>
<path d="M137.442 183.746C138.943 183.746 140.202 183.245 141.123 182.381L139.369 181.004C138.899 181.336 138.269 181.567 137.442 181.567C135.972 181.567 134.725 180.584 134.28 179.226L134.215 179.231L132.499 180.577L132.477 180.641C133.391 182.481 135.268 183.746 137.442 183.746Z" fill="#34A853"/>
<path d="M134.281 179.226C134.164 178.875 134.096 178.5 134.096 178.112C134.096 177.723 134.164 177.348 134.275 176.997L134.272 176.922L132.534 175.555L132.478 175.582C132.101 176.346 131.885 177.204 131.885 178.112C131.885 179.019 132.101 179.877 132.478 180.641L134.281 179.226" fill="#FBBC05"/>
<path d="M137.442 174.655C138.486 174.655 139.19 175.112 139.591 175.494L141.16 173.942C140.196 173.034 138.943 172.477 137.442 172.477C135.268 172.477 133.391 173.741 132.477 175.582L134.274 176.997C134.725 175.638 135.972 174.655 137.442 174.655" fill="#EB4335"/>
</g>
</g>
<line x1="267.374" y1="169.879" x2="267.374" y2="186.408" stroke="black" stroke-width="0.751315"/>
<g clip-path="url(#clip4_6867_3549)">
<path d="M341.242 180.122C340.172 180.122 339.307 179.218 339.307 178.102V173.386C339.307 172.269 340.172 171.365 341.242 171.365C342.311 171.365 343.177 172.269 343.177 173.386V178.102C343.177 179.218 342.311 180.122 341.242 180.122Z" fill="#4285F4"/>
<path d="M341.889 182.418H340.598V184.889H341.889V182.418Z" fill="#34A853"/>
<path d="M344.473 178.127C344.47 179.986 343.021 181.499 341.241 181.499C340.348 181.499 339.537 181.118 338.951 180.503L338.049 181.445C338.866 182.298 339.993 182.827 341.241 182.827C343.729 182.827 345.746 180.722 345.749 178.124H344.473V178.127Z" fill="#EA4335"/>
<path d="M338.952 180.502C338.372 179.894 338.01 179.053 338.01 178.127H336.734C336.734 179.421 337.239 180.594 338.05 181.444L338.952 180.502Z" fill="#FBBC05"/>
</g>
<path d="M168.41 173.805H169.595L172.38 180.608H172.476L175.262 173.805H176.446V182.001H175.518V175.774H175.438L172.877 182.001H171.98L169.419 175.774H169.339V182.001H168.41V173.805ZM180.58 182.129C180.025 182.129 179.538 181.997 179.119 181.733C178.703 181.469 178.378 181.099 178.143 180.624C177.911 180.149 177.795 179.594 177.795 178.959C177.795 178.319 177.911 177.76 178.143 177.283C178.378 176.805 178.703 176.434 179.119 176.17C179.538 175.906 180.025 175.774 180.58 175.774C181.135 175.774 181.621 175.906 182.037 176.17C182.456 176.434 182.781 176.805 183.013 177.283C183.248 177.76 183.366 178.319 183.366 178.959C183.366 179.594 183.248 180.149 183.013 180.624C182.781 181.099 182.456 181.469 182.037 181.733C181.621 181.997 181.135 182.129 180.58 182.129ZM180.58 181.281C181.002 181.281 181.349 181.173 181.621 180.956C181.893 180.74 182.094 180.456 182.225 180.104C182.356 179.752 182.421 179.37 182.421 178.959C182.421 178.549 182.356 178.166 182.225 177.811C182.094 177.456 181.893 177.169 181.621 176.95C181.349 176.732 181.002 176.622 180.58 176.622C180.159 176.622 179.812 176.732 179.54 176.95C179.268 177.169 179.066 177.456 178.935 177.811C178.805 178.166 178.739 178.549 178.739 178.959C178.739 179.37 178.805 179.752 178.935 180.104C179.066 180.456 179.268 180.74 179.54 180.956C179.812 181.173 180.159 181.281 180.58 181.281ZM186.903 182.129C186.391 182.129 185.939 182 185.546 181.741C185.154 181.479 184.847 181.111 184.626 180.636C184.405 180.159 184.294 179.594 184.294 178.943C184.294 178.298 184.405 177.737 184.626 177.263C184.847 176.788 185.156 176.421 185.55 176.162C185.945 175.903 186.402 175.774 186.919 175.774C187.319 175.774 187.635 175.841 187.868 175.974C188.102 176.105 188.281 176.254 188.404 176.422C188.529 176.588 188.627 176.724 188.696 176.83H188.776V173.805H189.721V182.001H188.808V181.056H188.696C188.627 181.169 188.528 181.31 188.4 181.481C188.272 181.649 188.089 181.8 187.852 181.933C187.614 182.064 187.298 182.129 186.903 182.129ZM187.031 181.281C187.41 181.281 187.73 181.182 187.992 180.984C188.253 180.784 188.452 180.508 188.588 180.156C188.724 179.801 188.792 179.392 188.792 178.927C188.792 178.469 188.725 178.067 188.592 177.723C188.459 177.376 188.261 177.106 188 176.914C187.738 176.72 187.415 176.622 187.031 176.622C186.631 176.622 186.297 176.725 186.031 176.93C185.767 177.133 185.568 177.409 185.434 177.759C185.304 178.106 185.238 178.495 185.238 178.927C185.238 179.365 185.305 179.763 185.438 180.12C185.574 180.475 185.775 180.758 186.039 180.968C186.305 181.177 186.636 181.281 187.031 181.281ZM193.933 182.129C193.341 182.129 192.83 181.998 192.401 181.737C191.974 181.473 191.644 181.105 191.412 180.632C191.183 180.157 191.068 179.605 191.068 178.975C191.068 178.346 191.183 177.791 191.412 177.311C191.644 176.828 191.967 176.451 192.381 176.182C192.797 175.91 193.282 175.774 193.837 175.774C194.158 175.774 194.474 175.827 194.786 175.934C195.098 176.041 195.382 176.214 195.638 176.454C195.894 176.692 196.098 177.006 196.251 177.399C196.403 177.791 196.479 178.274 196.479 178.847V179.248H191.74V178.431H195.518C195.518 178.084 195.449 177.775 195.31 177.503C195.174 177.231 194.979 177.016 194.726 176.858C194.475 176.701 194.179 176.622 193.837 176.622C193.461 176.622 193.136 176.716 192.861 176.902C192.589 177.086 192.379 177.327 192.233 177.623C192.086 177.919 192.012 178.236 192.012 178.575V179.12C192.012 179.584 192.092 179.977 192.253 180.3C192.415 180.62 192.641 180.864 192.929 181.032C193.217 181.198 193.552 181.281 193.933 181.281C194.182 181.281 194.406 181.246 194.606 181.177C194.809 181.105 194.983 180.998 195.13 180.856C195.277 180.712 195.39 180.534 195.47 180.32L196.383 180.576C196.287 180.886 196.125 181.158 195.898 181.393C195.672 181.625 195.391 181.806 195.058 181.937C194.724 182.065 194.35 182.129 193.933 182.129ZM197.69 182.001V175.854H198.602V176.782H198.667C198.779 176.478 198.981 176.231 199.275 176.042C199.568 175.853 199.899 175.758 200.267 175.758C200.337 175.758 200.423 175.759 200.527 175.762C200.632 175.764 200.71 175.768 200.764 175.774V176.734C200.732 176.726 200.658 176.714 200.543 176.698C200.431 176.68 200.313 176.67 200.187 176.67C199.888 176.67 199.622 176.733 199.387 176.858C199.155 176.981 198.971 177.152 198.835 177.371C198.701 177.587 198.635 177.834 198.635 178.111V182.001H197.69ZM202.602 178.303V182.001H201.658V175.854H202.57V176.814H202.65C202.794 176.502 203.013 176.251 203.307 176.062C203.6 175.87 203.979 175.774 204.443 175.774C204.859 175.774 205.224 175.859 205.536 176.03C205.848 176.198 206.091 176.454 206.264 176.798C206.438 177.14 206.524 177.572 206.524 178.095V182.001H205.58V178.159C205.58 177.676 205.454 177.3 205.204 177.03C204.953 176.758 204.609 176.622 204.171 176.622C203.87 176.622 203.6 176.688 203.363 176.818C203.128 176.949 202.942 177.14 202.806 177.391C202.67 177.641 202.602 177.946 202.602 178.303ZM213.706 175.854V176.654H210.393V175.854H213.706ZM211.385 182.001V175.005C211.385 174.653 211.468 174.36 211.633 174.125C211.799 173.89 212.013 173.714 212.278 173.597C212.542 173.479 212.821 173.421 213.114 173.421C213.346 173.421 213.536 173.439 213.682 173.477C213.829 173.514 213.938 173.549 214.01 173.581L213.738 174.397C213.69 174.381 213.624 174.361 213.538 174.337C213.456 174.313 213.346 174.301 213.21 174.301C212.898 174.301 212.672 174.38 212.534 174.537C212.398 174.695 212.33 174.925 212.33 175.23V182.001H211.385ZM218.679 179.488V175.854H219.623V182.001H218.679V180.96H218.615C218.47 181.273 218.246 181.538 217.942 181.757C217.638 181.973 217.254 182.081 216.79 182.081C216.405 182.081 216.064 181.997 215.765 181.829C215.466 181.658 215.231 181.402 215.061 181.06C214.89 180.716 214.805 180.283 214.805 179.76V175.854H215.749V179.696C215.749 180.144 215.874 180.502 216.125 180.768C216.379 181.035 216.702 181.169 217.094 181.169C217.329 181.169 217.567 181.109 217.81 180.988C218.056 180.868 218.261 180.684 218.426 180.436C218.595 180.188 218.679 179.872 218.679 179.488ZM221.128 182.001V175.854H222.04V176.782H222.104C222.216 176.478 222.419 176.231 222.712 176.042C223.006 175.853 223.337 175.758 223.705 175.758C223.774 175.758 223.861 175.759 223.965 175.762C224.069 175.764 224.148 175.768 224.201 175.774V176.734C224.169 176.726 224.096 176.714 223.981 176.698C223.869 176.68 223.75 176.67 223.625 176.67C223.326 176.67 223.059 176.733 222.824 176.858C222.592 176.981 222.408 177.152 222.272 177.371C222.139 177.587 222.072 177.834 222.072 178.111V182.001H221.128ZM226.04 178.303V182.001H225.095V175.854H226.008V176.814H226.088C226.232 176.502 226.451 176.251 226.744 176.062C227.038 175.87 227.416 175.774 227.881 175.774C228.297 175.774 228.661 175.859 228.973 176.03C229.285 176.198 229.528 176.454 229.702 176.798C229.875 177.14 229.962 177.572 229.962 178.095V182.001H229.017V178.159C229.017 177.676 228.892 177.3 228.641 177.03C228.39 176.758 228.046 176.622 227.609 176.622C227.307 176.622 227.038 176.688 226.8 176.818C226.565 176.949 226.38 177.14 226.244 177.391C226.108 177.641 226.04 177.946 226.04 178.303ZM231.462 182.001V175.854H232.407V182.001H231.462ZM231.942 174.829C231.758 174.829 231.6 174.767 231.466 174.641C231.335 174.516 231.27 174.365 231.27 174.189C231.27 174.013 231.335 173.862 231.466 173.737C231.6 173.611 231.758 173.549 231.942 173.549C232.127 173.549 232.284 173.611 232.415 173.737C232.548 173.862 232.615 174.013 232.615 174.189C232.615 174.365 232.548 174.516 232.415 174.641C232.284 174.767 232.127 174.829 231.942 174.829ZM236.585 175.854V176.654H233.399V175.854H236.585ZM234.327 174.381H235.272V180.24C235.272 180.507 235.311 180.707 235.388 180.84C235.468 180.971 235.569 181.059 235.692 181.105C235.817 181.147 235.95 181.169 236.088 181.169C236.192 181.169 236.278 181.163 236.344 181.153C236.411 181.139 236.464 181.129 236.504 181.121L236.697 181.969C236.633 181.993 236.543 182.017 236.428 182.041C236.314 182.068 236.168 182.081 235.992 182.081C235.725 182.081 235.464 182.024 235.208 181.909C234.954 181.794 234.744 181.619 234.576 181.385C234.41 181.15 234.327 180.854 234.327 180.496V174.381ZM241.654 179.488V175.854H242.598V182.001H241.654V180.96H241.59C241.446 181.273 241.222 181.538 240.917 181.757C240.613 181.973 240.229 182.081 239.765 182.081C239.381 182.081 239.039 181.997 238.74 181.829C238.442 181.658 238.207 181.402 238.036 181.06C237.865 180.716 237.78 180.283 237.78 179.76V175.854H238.724V179.696C238.724 180.144 238.85 180.502 239.101 180.768C239.354 181.035 239.677 181.169 240.069 181.169C240.304 181.169 240.543 181.109 240.785 180.988C241.031 180.868 241.236 180.684 241.402 180.436C241.57 180.188 241.654 179.872 241.654 179.488ZM244.103 182.001V175.854H245.015V176.782H245.079C245.191 176.478 245.394 176.231 245.688 176.042C245.981 175.853 246.312 175.758 246.68 175.758C246.749 175.758 246.836 175.759 246.94 175.762C247.044 175.764 247.123 175.768 247.176 175.774V176.734C247.144 176.726 247.071 176.714 246.956 176.698C246.844 176.68 246.725 176.67 246.6 176.67C246.301 176.67 246.034 176.733 245.8 176.858C245.568 176.981 245.383 177.152 245.247 177.371C245.114 177.587 245.047 177.834 245.047 178.111V182.001H244.103ZM250.461 182.129C249.868 182.129 249.358 181.998 248.928 181.737C248.501 181.473 248.172 181.105 247.939 180.632C247.71 180.157 247.595 179.605 247.595 178.975C247.595 178.346 247.71 177.791 247.939 177.311C248.172 176.828 248.494 176.451 248.908 176.182C249.324 175.91 249.81 175.774 250.365 175.774C250.685 175.774 251.001 175.827 251.313 175.934C251.625 176.041 251.909 176.214 252.166 176.454C252.422 176.692 252.626 177.006 252.778 177.399C252.93 177.791 253.006 178.274 253.006 178.847V179.248H248.268V178.431H252.046C252.046 178.084 251.976 177.775 251.837 177.503C251.701 177.231 251.507 177.016 251.253 176.858C251.002 176.701 250.706 176.622 250.365 176.622C249.988 176.622 249.663 176.716 249.388 176.902C249.116 177.086 248.907 177.327 248.76 177.623C248.613 177.919 248.54 178.236 248.54 178.575V179.12C248.54 179.584 248.62 179.977 248.78 180.3C248.943 180.62 249.168 180.864 249.456 181.032C249.744 181.198 250.079 181.281 250.461 181.281C250.709 181.281 250.933 181.246 251.133 181.177C251.336 181.105 251.511 180.998 251.657 180.856C251.804 180.712 251.917 180.534 251.998 180.32L252.91 180.576C252.814 180.886 252.653 181.158 252.426 181.393C252.199 181.625 251.919 181.806 251.585 181.937C251.252 182.065 250.877 182.129 250.461 182.129Z" fill="black"/>
<path opacity="0.35" d="M353.911 47.9176H364.028C364.596 47.9176 364.998 47.9179 365.314 47.9437C365.625 47.9691 365.817 48.0174 365.97 48.0951C366.276 48.2511 366.525 48.5002 366.681 48.8065C366.759 48.959 366.807 49.1514 366.832 49.4623C366.858 49.7775 366.858 50.1804 366.858 50.7476V53.3497C366.858 53.9169 366.858 54.3198 366.832 54.635C366.807 54.9459 366.759 55.1383 366.681 55.2908C366.525 55.5971 366.276 55.8461 365.97 56.0022C365.817 56.0799 365.625 56.1282 365.314 56.1536C364.998 56.1793 364.596 56.1796 364.028 56.1796H353.911C353.343 56.1796 352.941 56.1793 352.625 56.1536C352.315 56.1282 352.122 56.0799 351.97 56.0022C351.663 55.8461 351.414 55.5971 351.258 55.2908C351.18 55.1383 351.132 54.9459 351.107 54.635C351.081 54.3198 351.081 53.9169 351.081 53.3497V50.7476C351.081 50.1804 351.081 49.7775 351.107 49.4623C351.132 49.1514 351.18 48.959 351.258 48.8065C351.414 48.5002 351.663 48.2511 351.97 48.0951C352.122 48.0174 352.315 47.9691 352.625 47.9437C352.941 47.9179 353.343 47.9176 353.911 47.9176Z" stroke="#5F6368" stroke-width="0.751315"/>
<path opacity="0.4" d="M367.984 50.458V53.6392C368.589 53.3698 368.982 52.743 368.982 52.0486C368.982 51.3542 368.589 50.7274 367.984 50.458" fill="#5F6368"/>
<path d="M352.207 50.7346C352.207 50.1736 352.207 49.8931 352.316 49.6788C352.412 49.4903 352.566 49.3371 352.754 49.241C352.968 49.1318 353.249 49.1318 353.81 49.1318H364.128C364.689 49.1318 364.969 49.1318 365.184 49.241C365.372 49.3371 365.525 49.4903 365.622 49.6788C365.731 49.8931 365.731 50.1736 365.731 50.7346V53.3612C365.731 53.9222 365.731 54.2027 365.622 54.417C365.525 54.6055 365.372 54.7588 365.184 54.8548C364.969 54.964 364.689 54.964 364.128 54.964H353.81C353.249 54.964 352.968 54.964 352.754 54.8548C352.566 54.7588 352.412 54.6055 352.316 54.417C352.207 54.2027 352.207 53.9222 352.207 53.3612V50.7346Z" fill="#5F6368"/>
<path fill-rule="evenodd" clip-rule="evenodd" d="M341.187 49.3502C342.852 49.3503 344.453 50.0274 345.659 51.2417C345.75 51.3354 345.895 51.3342 345.985 51.239L346.853 50.3112C346.899 50.2629 346.924 50.1975 346.924 50.1294C346.923 50.0614 346.897 49.9963 346.851 49.9485C343.685 46.7359 338.688 46.7359 335.522 49.9485C335.476 49.9962 335.45 50.0613 335.449 50.1294C335.449 50.1974 335.474 50.2629 335.519 50.3112L336.388 51.239C336.477 51.3344 336.623 51.3356 336.714 51.2417C337.92 50.0273 339.522 49.3502 341.187 49.3502ZM341.187 52.3685C342.102 52.3684 342.984 52.7283 343.662 53.3783C343.754 53.4705 343.898 53.4685 343.988 53.3737L344.855 52.4459C344.901 52.3972 344.926 52.3312 344.926 52.2626C344.925 52.194 344.898 52.1285 344.852 52.0809C342.787 50.0478 339.589 50.0478 337.525 52.0809C337.478 52.1285 337.451 52.194 337.451 52.2627C337.45 52.3313 337.476 52.3973 337.521 52.4459L338.389 53.3737C338.478 53.4685 338.623 53.4705 338.714 53.3783C339.392 52.7288 340.273 52.3689 341.187 52.3685ZM342.925 54.3996C342.926 54.4684 342.901 54.5348 342.855 54.583L341.354 56.186C341.31 56.2331 341.25 56.2596 341.187 56.2596C341.125 56.2596 341.065 56.2331 341.021 56.186L339.52 54.583C339.474 54.5347 339.448 54.4684 339.449 54.3996C339.451 54.3308 339.479 54.2656 339.527 54.2195C340.486 53.3615 341.889 53.3615 342.848 54.2195C342.896 54.2657 342.924 54.3308 342.925 54.3996Z" fill="#5F6368"/>
<path fill-rule="evenodd" clip-rule="evenodd" d="M330.921 47.8066H330.17C329.755 47.8066 329.419 48.1627 329.419 48.6019V55.4945C329.419 55.9337 329.755 56.2898 330.17 56.2898H330.921C331.336 56.2898 331.673 55.9337 331.673 55.4945V48.6019C331.673 48.1627 331.336 47.8066 330.921 47.8066ZM326.664 49.6622H327.416C327.831 49.6622 328.167 50.0182 328.167 50.4575V55.4943C328.167 55.9335 327.831 56.2896 327.416 56.2896H326.664C326.25 56.2896 325.913 55.9335 325.913 55.4943V50.4575C325.913 50.0182 326.25 49.6622 326.664 49.6622ZM323.909 51.5177H323.157C322.742 51.5177 322.406 51.8738 322.406 52.313V55.4942C322.406 55.9334 322.742 56.2895 323.157 56.2895H323.909C324.324 56.2895 324.66 55.9334 324.66 55.4942V52.313C324.66 51.8738 324.324 51.5177 323.909 51.5177ZM320.403 53.1084H319.652C319.237 53.1084 318.9 53.4645 318.9 53.9037V55.4943C318.9 55.9335 319.237 56.2896 319.652 56.2896H320.403C320.818 56.2896 321.154 55.9335 321.154 55.4943V53.9037C321.154 53.4645 320.818 53.1084 320.403 53.1084Z" fill="#5F6368"/>
<path d="M126.275 58.2287C128.295 58.2287 129.495 56.6494 129.495 53.9751C129.495 51.3502 128.218 49.8975 126.32 49.8975C124.592 49.8975 123.37 51.0586 123.37 52.6874C123.37 54.2117 124.471 55.3233 125.984 55.3233C126.914 55.3233 127.668 54.894 128.042 54.1402H128.135C128.119 55.9781 127.453 57.0401 126.292 57.0401C125.61 57.0401 125.065 56.6714 124.894 56.0771H123.48C123.711 57.3758 124.823 58.2287 126.275 58.2287ZM126.325 54.2007C125.401 54.2007 124.762 53.5624 124.762 52.6434C124.762 51.7574 125.434 51.0806 126.331 51.0806C127.227 51.0806 127.899 51.7685 127.899 52.6709C127.899 53.5569 127.244 54.2007 126.325 54.2007ZM131.762 56.9411C132.285 56.9411 132.642 56.5669 132.642 56.0716C132.642 55.5709 132.285 55.2022 131.762 55.2022C131.245 55.2022 130.882 55.5709 130.882 56.0716C130.882 56.5669 131.245 56.9411 131.762 56.9411ZM131.762 52.924C132.285 52.924 132.642 52.5554 132.642 52.0601C132.642 51.5593 132.285 51.1907 131.762 51.1907C131.245 51.1907 130.882 51.5593 130.882 52.0601C130.882 52.5554 131.245 52.924 131.762 52.924ZM137.903 58.0361H139.263V56.5229H140.336V55.3233H139.263V50.0956H137.26C136.181 51.7354 135.053 53.5459 134.024 55.3398V56.5229H137.903V58.0361ZM135.339 55.2792C136.115 53.9421 137.034 52.4838 137.848 51.2512H137.925V55.3563H135.339V55.2792ZM143.362 58.0361H144.782V50.0956H143.368L141.293 51.5483V52.913L143.269 51.5263H143.362V58.0361Z" fill="#5F6368"/>
<rect x="98.2637" y="582.476" width="281.743" height="60.8565" rx="30.4282" fill="white"/>
<g clip-path="url(#clip5_6867_3549)">
<path d="M129.319 598.299L127.981 596.969L120.551 604.407L127.989 611.845L129.319 610.515L123.21 604.407L129.319 598.299Z" fill="#D7D9DA"/>
<path d="M173.144 598.299L174.482 596.969L181.912 604.407L174.474 611.845L173.144 610.515L179.252 604.407L173.144 598.299Z" fill="#D7D9DA"/>
<circle cx="238.384" cy="604.407" r="16.9046" fill="white" stroke="#F2F2F2" stroke-width="0.751315"/>
<g clip-path="url(#clip6_6867_3549)">
<path d="M245.284 604.575C245.284 603.957 245.237 603.507 245.136 603.039H238.525V605.827H242.405C242.327 606.52 241.905 607.564 240.966 608.265L240.953 608.358L243.043 610.086L243.188 610.101C244.518 608.791 245.284 606.862 245.284 604.575" fill="#4285F4"/>
<path d="M238.524 611.921C240.425 611.921 242.02 611.253 243.186 610.101L240.964 608.264C240.37 608.707 239.572 609.016 238.524 609.016C236.662 609.016 235.082 607.705 234.519 605.894L234.436 605.901L232.263 607.696L232.234 607.78C233.392 610.234 235.77 611.921 238.524 611.921Z" fill="#34A853"/>
<path d="M234.52 605.894C234.371 605.427 234.285 604.926 234.285 604.408C234.285 603.891 234.371 603.39 234.512 602.922L234.508 602.823L232.307 600.999L232.235 601.036C231.758 602.054 231.484 603.198 231.484 604.408C231.484 605.619 231.758 606.762 232.235 607.781L234.52 605.894" fill="#FBBC05"/>
<path d="M238.524 599.8C239.846 599.8 240.738 600.409 241.246 600.918L243.233 598.848C242.013 597.638 240.425 596.895 238.524 596.895C235.77 596.895 233.392 598.581 232.234 601.035L234.511 602.922C235.082 601.11 236.662 599.8 238.524 599.8" fill="#EB4335"/>
</g>
<path d="M299.24 597.646L301.148 601.782L305.671 602.318L302.327 605.41L303.215 609.878L299.24 607.653L295.266 609.878L296.154 605.41L292.809 602.318L297.333 601.782L299.24 597.646Z" stroke="#5F6368" stroke-width="1.12697" stroke-linecap="round" stroke-linejoin="round"/>
<ellipse cx="345.154" cy="603.844" rx="1.66959" ry="1.66959" fill="#5F6368"/>
<ellipse cx="351.832" cy="603.844" rx="1.66959" ry="1.66959" fill="#5F6368"/>
<ellipse cx="358.509" cy="603.844" rx="1.66959" ry="1.66959" fill="#5F6368"/>
</g>
</g>
<g filter="url(#filter1_ddd_6867_3549)">
<rect x="26" y="263" width="428" height="152" rx="20" fill="white"/>
<path d="M69.1609 296L72.7334 288.111H73.8491L77.4329 296H76.2496L73.0602 288.742H73.511L70.3217 296H69.1609ZM70.6823 294.028L70.9866 293.126H75.4269L75.7537 294.028H70.6823ZM80.6395 296.068C80.061 296.068 79.5426 295.94 79.0843 295.684C78.6335 295.429 78.2767 295.072 78.0137 294.614C77.7507 294.156 77.6193 293.622 77.6193 293.014C77.6193 292.405 77.7507 291.875 78.0137 291.424C78.2767 290.966 78.6335 290.609 79.0843 290.354C79.5426 290.098 80.061 289.971 80.6395 289.971C81.1429 289.971 81.5975 290.083 82.0032 290.309C82.4089 290.534 82.732 290.872 82.9724 291.323C83.2203 291.774 83.3443 292.337 83.3443 293.014C83.3443 293.69 83.2241 294.253 82.9837 294.704C82.7507 295.155 82.4314 295.497 82.0257 295.73C81.62 295.955 81.158 296.068 80.6395 296.068ZM80.7297 295.121C81.1054 295.121 81.4435 295.035 81.744 294.862C82.052 294.689 82.2924 294.445 82.4652 294.129C82.6456 293.806 82.7357 293.434 82.7357 293.014C82.7357 292.585 82.6456 292.217 82.4652 291.909C82.2924 291.594 82.052 291.349 81.744 291.177C81.4435 291.004 81.1054 290.917 80.7297 290.917C80.3465 290.917 80.0047 291.004 79.7042 291.177C79.4036 291.349 79.1632 291.594 78.9829 291.909C78.8026 292.217 78.7124 292.585 78.7124 293.014C78.7124 293.434 78.8026 293.806 78.9829 294.129C79.1632 294.445 79.4036 294.689 79.7042 294.862C80.0047 295.035 80.3465 295.121 80.7297 295.121ZM82.7695 296V294.388L82.8371 293.002L82.7244 291.616V287.638H83.8063V296H82.7695Z" fill="black"/>
<path d="M77.245 387V380.092H74.5403V379.111H81.0654V380.092H78.3607V387H77.245ZM85.099 380.971C85.5874 380.971 86.0156 381.065 86.3838 381.252C86.7594 381.44 87.0525 381.726 87.2628 382.109C87.4732 382.492 87.5784 382.977 87.5784 383.563V387H86.4965V383.687C86.4965 383.108 86.3537 382.672 86.0682 382.379C85.7902 382.086 85.3958 381.94 84.8849 381.94C84.5017 381.94 84.1674 382.015 83.8819 382.165C83.5964 382.316 83.3748 382.537 83.217 382.83C83.0667 383.123 82.9916 383.488 82.9916 383.923V387H81.9097V378.638H82.9916V382.639L82.7775 382.21C82.9728 381.82 83.2733 381.515 83.679 381.298C84.0848 381.08 84.5581 380.971 85.099 380.971ZM92.0149 387.068C91.3762 387.068 90.8128 386.936 90.3244 386.673C89.8436 386.41 89.4679 386.05 89.1974 385.591C88.9345 385.133 88.803 384.607 88.803 384.014C88.803 383.42 88.9307 382.894 89.1862 382.436C89.4491 381.977 89.806 381.621 90.2568 381.365C90.7151 381.102 91.2297 380.971 91.8007 380.971C92.3792 380.971 92.8901 381.098 93.3334 381.354C93.7767 381.609 94.1223 381.97 94.3702 382.436C94.6257 382.894 94.7534 383.431 94.7534 384.047C94.7534 384.092 94.7496 384.145 94.7421 384.205C94.7421 384.265 94.7384 384.322 94.7309 384.374H89.6482V383.597H94.1674L93.7279 383.867C93.7354 383.484 93.6565 383.142 93.4912 382.841C93.3259 382.541 93.0968 382.308 92.8037 382.143C92.5182 381.97 92.1839 381.884 91.8007 381.884C91.4251 381.884 91.0907 381.97 90.7977 382.143C90.5047 382.308 90.2756 382.545 90.1103 382.853C89.945 383.153 89.8623 383.499 89.8623 383.89V384.07C89.8623 384.468 89.9525 384.825 90.1328 385.14C90.3206 385.449 90.5798 385.689 90.9104 385.862C91.241 386.035 91.6204 386.121 92.0487 386.121C92.4018 386.121 92.7211 386.061 93.0066 385.941C93.2996 385.82 93.5551 385.64 93.7729 385.4L94.3702 386.098C94.0998 386.414 93.7617 386.654 93.356 386.82C92.9578 386.985 92.5107 387.068 92.0149 387.068ZM101.998 387.068C101.487 387.068 101.025 386.955 100.612 386.73C100.206 386.497 99.8833 386.155 99.6429 385.704C99.41 385.253 99.2935 384.69 99.2935 384.014C99.2935 383.337 99.4137 382.774 99.6541 382.323C99.9021 381.872 100.229 381.534 100.635 381.309C101.048 381.083 101.502 380.971 101.998 380.971C102.584 380.971 103.103 381.098 103.553 381.354C104.004 381.609 104.361 381.966 104.624 382.424C104.887 382.875 105.019 383.405 105.019 384.014C105.019 384.622 104.887 385.156 104.624 385.614C104.361 386.072 104.004 386.429 103.553 386.684C103.103 386.94 102.584 387.068 101.998 387.068ZM98.8315 387V378.638H99.9133V382.616L99.8006 384.002L99.8683 385.388V387H98.8315ZM101.908 386.121C102.291 386.121 102.633 386.035 102.934 385.862C103.242 385.689 103.482 385.445 103.655 385.129C103.835 384.806 103.925 384.434 103.925 384.014C103.925 383.585 103.835 383.217 103.655 382.909C103.482 382.594 103.242 382.349 102.934 382.177C102.633 382.004 102.291 381.917 101.908 381.917C101.532 381.917 101.191 382.004 100.883 382.177C100.582 382.349 100.342 382.594 100.161 382.909C99.9885 383.217 99.9021 383.585 99.9021 384.014C99.9021 384.434 99.9885 384.806 100.161 385.129C100.342 385.445 100.582 385.689 100.883 385.862C101.191 386.035 101.532 386.121 101.908 386.121ZM108.948 387.068C108.309 387.068 107.746 386.936 107.257 386.673C106.776 386.41 106.401 386.05 106.13 385.591C105.867 385.133 105.736 384.607 105.736 384.014C105.736 383.42 105.863 382.894 106.119 382.436C106.382 381.977 106.739 381.621 107.19 381.365C107.648 381.102 108.162 380.971 108.733 380.971C109.312 380.971 109.823 381.098 110.266 381.354C110.709 381.609 111.055 381.97 111.303 382.436C111.558 382.894 111.686 383.431 111.686 384.047C111.686 384.092 111.682 384.145 111.675 384.205C111.675 384.265 111.671 384.322 111.664 384.374H106.581V383.597H111.1L110.661 383.867C110.668 383.484 110.589 383.142 110.424 382.841C110.259 382.541 110.03 382.308 109.736 382.143C109.451 381.97 109.117 381.884 108.733 381.884C108.358 381.884 108.023 381.97 107.73 382.143C107.437 382.308 107.208 382.545 107.043 382.853C106.878 383.153 106.795 383.499 106.795 383.89V384.07C106.795 384.468 106.885 384.825 107.066 385.14C107.253 385.449 107.513 385.689 107.843 385.862C108.174 386.035 108.553 386.121 108.981 386.121C109.335 386.121 109.654 386.061 109.939 385.941C110.232 385.82 110.488 385.64 110.706 385.4L111.303 386.098C111.033 386.414 110.694 386.654 110.289 386.82C109.891 386.985 109.443 387.068 108.948 387.068ZM114.676 387.068C114.18 387.068 113.707 387 113.256 386.865C112.813 386.73 112.463 386.564 112.208 386.369L112.659 385.512C112.914 385.685 113.23 385.832 113.605 385.952C113.981 386.072 114.364 386.132 114.755 386.132C115.258 386.132 115.619 386.061 115.837 385.918C116.062 385.775 116.175 385.576 116.175 385.321C116.175 385.133 116.107 384.986 115.972 384.881C115.837 384.776 115.657 384.697 115.431 384.645C115.213 384.592 114.969 384.547 114.699 384.509C114.428 384.464 114.158 384.412 113.887 384.352C113.617 384.284 113.369 384.194 113.143 384.081C112.918 383.961 112.738 383.799 112.602 383.597C112.467 383.386 112.4 383.108 112.4 382.763C112.4 382.402 112.501 382.086 112.704 381.816C112.907 381.545 113.192 381.339 113.56 381.196C113.936 381.046 114.379 380.971 114.89 380.971C115.281 380.971 115.675 381.02 116.074 381.117C116.479 381.207 116.81 381.339 117.065 381.512L116.603 382.368C116.333 382.188 116.051 382.064 115.758 381.996C115.465 381.929 115.172 381.895 114.879 381.895C114.406 381.895 114.052 381.974 113.82 382.131C113.587 382.282 113.47 382.477 113.47 382.718C113.47 382.92 113.538 383.078 113.673 383.191C113.816 383.296 113.996 383.379 114.214 383.439C114.439 383.499 114.687 383.551 114.958 383.597C115.228 383.634 115.499 383.687 115.769 383.754C116.04 383.814 116.284 383.901 116.502 384.014C116.727 384.126 116.907 384.284 117.043 384.487C117.185 384.69 117.257 384.96 117.257 385.298C117.257 385.659 117.152 385.971 116.941 386.234C116.731 386.497 116.434 386.703 116.051 386.853C115.668 386.996 115.209 387.068 114.676 387.068ZM120.435 387.068C119.834 387.068 119.368 386.906 119.037 386.583C118.707 386.26 118.541 385.798 118.541 385.197V379.72H119.623V385.152C119.623 385.475 119.702 385.723 119.86 385.896C120.025 386.068 120.258 386.155 120.559 386.155C120.897 386.155 121.178 386.061 121.404 385.873L121.742 386.651C121.577 386.793 121.378 386.899 121.145 386.966C120.919 387.034 120.683 387.068 120.435 387.068ZM117.527 381.917V381.027H121.336V381.917H117.527ZM133.097 380.971C133.578 380.971 134.003 381.065 134.371 381.252C134.739 381.44 135.025 381.726 135.227 382.109C135.438 382.492 135.543 382.977 135.543 383.563V387H134.461V383.687C134.461 383.108 134.326 382.672 134.055 382.379C133.785 382.086 133.406 381.94 132.917 381.94C132.557 381.94 132.241 382.015 131.971 382.165C131.7 382.316 131.49 382.537 131.339 382.83C131.197 383.123 131.125 383.488 131.125 383.923V387H130.043V383.687C130.043 383.108 129.908 382.672 129.638 382.379C129.375 382.086 128.995 381.94 128.499 381.94C128.146 381.94 127.835 382.015 127.564 382.165C127.294 382.316 127.083 382.537 126.933 382.83C126.783 383.123 126.708 383.488 126.708 383.923V387H125.626V381.027H126.662V382.616L126.493 382.21C126.681 381.82 126.971 381.515 127.361 381.298C127.752 381.08 128.206 380.971 128.725 380.971C129.296 380.971 129.788 381.113 130.201 381.399C130.614 381.677 130.885 382.101 131.013 382.672L130.573 382.492C130.753 382.034 131.069 381.666 131.52 381.388C131.971 381.11 132.496 380.971 133.097 380.971ZM139.867 387.068C139.265 387.068 138.732 386.936 138.266 386.673C137.8 386.41 137.432 386.05 137.162 385.591C136.891 385.125 136.756 384.6 136.756 384.014C136.756 383.42 136.891 382.894 137.162 382.436C137.432 381.977 137.8 381.621 138.266 381.365C138.732 381.102 139.265 380.971 139.867 380.971C140.46 380.971 140.99 381.102 141.456 381.365C141.929 381.621 142.297 381.977 142.56 382.436C142.83 382.887 142.966 383.412 142.966 384.014C142.966 384.607 142.83 385.133 142.56 385.591C142.297 386.05 141.929 386.41 141.456 386.673C140.99 386.936 140.46 387.068 139.867 387.068ZM139.867 386.121C140.25 386.121 140.592 386.035 140.892 385.862C141.2 385.689 141.441 385.445 141.613 385.129C141.786 384.806 141.873 384.434 141.873 384.014C141.873 383.585 141.786 383.217 141.613 382.909C141.441 382.594 141.2 382.349 140.892 382.177C140.592 382.004 140.25 381.917 139.867 381.917C139.483 381.917 139.142 382.004 138.841 382.177C138.54 382.349 138.3 382.594 138.12 382.909C137.939 383.217 137.849 383.585 137.849 384.014C137.849 384.434 137.939 384.806 138.12 385.129C138.3 385.445 138.54 385.689 138.841 385.862C139.142 386.035 139.483 386.121 139.867 386.121ZM146.705 387.068C146.126 387.068 145.608 386.94 145.149 386.684C144.699 386.429 144.342 386.072 144.079 385.614C143.816 385.156 143.684 384.622 143.684 384.014C143.684 383.405 143.816 382.875 144.079 382.424C144.342 381.966 144.699 381.609 145.149 381.354C145.608 381.098 146.126 380.971 146.705 380.971C147.208 380.971 147.663 381.083 148.068 381.309C148.474 381.534 148.797 381.872 149.037 382.323C149.285 382.774 149.409 383.337 149.409 384.014C149.409 384.69 149.289 385.253 149.049 385.704C148.816 386.155 148.497 386.497 148.091 386.73C147.685 386.955 147.223 387.068 146.705 387.068ZM146.795 386.121C147.17 386.121 147.509 386.035 147.809 385.862C148.117 385.689 148.358 385.445 148.53 385.129C148.711 384.806 148.801 384.434 148.801 384.014C148.801 383.585 148.711 383.217 148.53 382.909C148.358 382.594 148.117 382.349 147.809 382.177C147.509 382.004 147.17 381.917 146.795 381.917C146.412 381.917 146.07 382.004 145.769 382.177C145.469 382.349 145.228 382.594 145.048 382.909C144.868 383.217 144.777 383.585 144.777 384.014C144.777 384.434 144.868 384.806 145.048 385.129C145.228 385.445 145.469 385.689 145.769 385.862C146.07 386.035 146.412 386.121 146.795 386.121ZM148.835 387V385.388L148.902 384.002L148.79 382.616V378.638H149.871V387H148.835ZM154.353 387.068C153.714 387.068 153.151 386.936 152.662 386.673C152.181 386.41 151.806 386.05 151.535 385.591C151.272 385.133 151.141 384.607 151.141 384.014C151.141 383.42 151.269 382.894 151.524 382.436C151.787 381.977 152.144 381.621 152.595 381.365C153.053 381.102 153.568 380.971 154.139 380.971C154.717 380.971 155.228 381.098 155.671 381.354C156.115 381.609 156.46 381.97 156.708 382.436C156.964 382.894 157.091 383.431 157.091 384.047C157.091 384.092 157.087 384.145 157.08 384.205C157.08 384.265 157.076 384.322 157.069 384.374H151.986V383.597H156.505L156.066 383.867C156.073 383.484 155.994 383.142 155.829 382.841C155.664 382.541 155.435 382.308 155.142 382.143C154.856 381.97 154.522 381.884 154.139 381.884C153.763 381.884 153.429 381.97 153.136 382.143C152.843 382.308 152.613 382.545 152.448 382.853C152.283 383.153 152.2 383.499 152.2 383.89V384.07C152.2 384.468 152.29 384.825 152.471 385.14C152.658 385.449 152.918 385.689 153.248 385.862C153.579 386.035 153.958 386.121 154.387 386.121C154.74 386.121 155.059 386.061 155.344 385.941C155.637 385.82 155.893 385.64 156.111 385.4L156.708 386.098C156.438 386.414 156.1 386.654 155.694 386.82C155.296 386.985 154.849 387.068 154.353 387.068ZM158.368 387V381.027H159.405V382.65L159.304 382.244C159.469 381.831 159.747 381.515 160.138 381.298C160.528 381.08 161.009 380.971 161.58 380.971V382.019C161.535 382.011 161.49 382.008 161.445 382.008C161.407 382.008 161.37 382.008 161.332 382.008C160.754 382.008 160.295 382.18 159.957 382.526C159.619 382.872 159.45 383.371 159.45 384.025V387H158.368ZM165.877 380.971C166.366 380.971 166.794 381.065 167.162 381.252C167.538 381.44 167.831 381.726 168.041 382.109C168.252 382.492 168.357 382.977 168.357 383.563V387H167.275V383.687C167.275 383.108 167.132 382.672 166.847 382.379C166.569 382.086 166.174 381.94 165.663 381.94C165.28 381.94 164.946 382.015 164.66 382.165C164.375 382.316 164.153 382.537 163.995 382.83C163.845 383.123 163.77 383.488 163.77 383.923V387H162.688V381.027H163.725V382.639L163.556 382.21C163.751 381.82 164.052 381.515 164.457 381.298C164.863 381.08 165.336 380.971 165.877 380.971ZM173.092 387V380.497C173.092 379.911 173.262 379.446 173.6 379.1C173.945 378.747 174.434 378.57 175.065 378.57C175.298 378.57 175.519 378.6 175.73 378.66C175.947 378.713 176.132 378.799 176.282 378.92L175.955 379.742C175.842 379.652 175.715 379.585 175.572 379.539C175.429 379.487 175.279 379.461 175.121 379.461C174.805 379.461 174.565 379.551 174.4 379.731C174.234 379.904 174.152 380.163 174.152 380.509V381.309L174.174 381.805V387H173.092ZM172.078 381.917V381.027H175.887V381.917H172.078ZM179.195 387.068C178.685 387.068 178.234 386.974 177.843 386.786C177.46 386.598 177.159 386.313 176.942 385.929C176.731 385.539 176.626 385.05 176.626 384.464V381.027H177.708V384.34C177.708 384.926 177.847 385.366 178.125 385.659C178.41 385.952 178.809 386.098 179.319 386.098C179.695 386.098 180.022 386.023 180.3 385.873C180.578 385.715 180.792 385.49 180.942 385.197C181.093 384.896 181.168 384.536 181.168 384.115V381.027H182.25V387H181.224V385.388L181.393 385.817C181.198 386.215 180.905 386.523 180.514 386.741C180.123 386.959 179.684 387.068 179.195 387.068ZM184.084 387V381.027H185.121V382.65L185.019 382.244C185.184 381.831 185.462 381.515 185.853 381.298C186.244 381.08 186.725 380.971 187.296 380.971V382.019C187.251 382.011 187.206 382.008 187.16 382.008C187.123 382.008 187.085 382.008 187.048 382.008C186.469 382.008 186.011 382.18 185.673 382.526C185.335 382.872 185.166 383.371 185.166 384.025V387H184.084ZM191.593 380.971C192.081 380.971 192.51 381.065 192.878 381.252C193.253 381.44 193.546 381.726 193.757 382.109C193.967 382.492 194.072 382.977 194.072 383.563V387H192.991V383.687C192.991 383.108 192.848 382.672 192.562 382.379C192.284 382.086 191.89 381.94 191.379 381.94C190.996 381.94 190.661 382.015 190.376 382.165C190.09 382.316 189.869 382.537 189.711 382.83C189.561 383.123 189.486 383.488 189.486 383.923V387H188.404V381.027H189.441V382.639L189.272 382.21C189.467 381.82 189.767 381.515 190.173 381.298C190.579 381.08 191.052 380.971 191.593 380.971ZM195.849 387V381.027H196.931V387H195.849ZM196.39 379.878C196.18 379.878 196.003 379.81 195.86 379.675C195.725 379.539 195.658 379.374 195.658 379.179C195.658 378.976 195.725 378.807 195.86 378.672C196.003 378.536 196.18 378.469 196.39 378.469C196.601 378.469 196.773 378.536 196.909 378.672C197.051 378.799 197.123 378.961 197.123 379.156C197.123 379.359 197.055 379.532 196.92 379.675C196.785 379.81 196.608 379.878 196.39 379.878ZM200.823 387.068C200.221 387.068 199.756 386.906 199.425 386.583C199.094 386.26 198.929 385.798 198.929 385.197V379.72H200.011V385.152C200.011 385.475 200.09 385.723 200.248 385.896C200.413 386.068 200.646 386.155 200.946 386.155C201.285 386.155 201.566 386.061 201.792 385.873L202.13 386.651C201.965 386.793 201.765 386.899 201.533 386.966C201.307 387.034 201.07 387.068 200.823 387.068ZM197.915 381.917V381.027H201.724V381.917H197.915ZM205.726 387.068C205.215 387.068 204.764 386.974 204.373 386.786C203.99 386.598 203.689 386.313 203.472 385.929C203.261 385.539 203.156 385.05 203.156 384.464V381.027H204.238V384.34C204.238 384.926 204.377 385.366 204.655 385.659C204.94 385.952 205.339 386.098 205.85 386.098C206.225 386.098 206.552 386.023 206.83 385.873C207.108 385.715 207.322 385.49 207.472 385.197C207.623 384.896 207.698 384.536 207.698 384.115V381.027H208.78V387H207.754V385.388L207.923 385.817C207.728 386.215 207.435 386.523 207.044 386.741C206.653 386.959 206.214 387.068 205.726 387.068ZM210.614 387V381.027H211.651V382.65L211.549 382.244C211.715 381.831 211.993 381.515 212.383 381.298C212.774 381.08 213.255 380.971 213.826 380.971V382.019C213.781 382.011 213.736 382.008 213.691 382.008C213.653 382.008 213.615 382.008 213.578 382.008C212.999 382.008 212.541 382.18 212.203 382.526C211.865 382.872 211.696 383.371 211.696 384.025V387H210.614ZM217.538 387.068C216.9 387.068 216.336 386.936 215.848 386.673C215.367 386.41 214.991 386.05 214.721 385.591C214.458 385.133 214.327 384.607 214.327 384.014C214.327 383.42 214.454 382.894 214.71 382.436C214.973 381.977 215.33 381.621 215.78 381.365C216.239 381.102 216.753 380.971 217.324 380.971C217.903 380.971 218.414 381.098 218.857 381.354C219.3 381.609 219.646 381.97 219.894 382.436C220.149 382.894 220.277 383.431 220.277 384.047C220.277 384.092 220.273 384.145 220.266 384.205C220.266 384.265 220.262 384.322 220.254 384.374H215.172V383.597H219.691L219.251 383.867C219.259 383.484 219.18 383.142 219.015 382.841C218.849 382.541 218.62 382.308 218.327 382.143C218.042 381.97 217.707 381.884 217.324 381.884C216.949 381.884 216.614 381.97 216.321 382.143C216.028 382.308 215.799 382.545 215.634 382.853C215.469 383.153 215.386 383.499 215.386 383.89V384.07C215.386 384.468 215.476 384.825 215.656 385.14C215.844 385.449 216.103 385.689 216.434 385.862C216.765 386.035 217.144 386.121 217.572 386.121C217.925 386.121 218.245 386.061 218.53 385.941C218.823 385.82 219.079 385.64 219.297 385.4L219.894 386.098C219.623 386.414 219.285 386.654 218.88 386.82C218.481 386.985 218.034 387.068 217.538 387.068ZM224.513 387V380.497C224.513 379.911 224.682 379.446 225.02 379.1C225.366 378.747 225.854 378.57 226.485 378.57C226.718 378.57 226.94 378.6 227.15 378.66C227.368 378.713 227.552 378.799 227.702 378.92L227.375 379.742C227.263 379.652 227.135 379.585 226.992 379.539C226.849 379.487 226.699 379.461 226.541 379.461C226.226 379.461 225.985 379.551 225.82 379.731C225.655 379.904 225.572 380.163 225.572 380.509V381.309L225.595 381.805V387H224.513ZM223.499 381.917V381.027H227.308V381.917H223.499ZM230.573 387.068C229.972 387.068 229.438 386.936 228.973 386.673C228.507 386.41 228.139 386.05 227.868 385.591C227.598 385.125 227.462 384.6 227.462 384.014C227.462 383.42 227.598 382.894 227.868 382.436C228.139 381.977 228.507 381.621 228.973 381.365C229.438 381.102 229.972 380.971 230.573 380.971C231.166 380.971 231.696 381.102 232.162 381.365C232.635 381.621 233.003 381.977 233.266 382.436C233.537 382.887 233.672 383.412 233.672 384.014C233.672 384.607 233.537 385.133 233.266 385.591C233.003 386.05 232.635 386.41 232.162 386.673C231.696 386.936 231.166 387.068 230.573 387.068ZM230.573 386.121C230.956 386.121 231.298 386.035 231.598 385.862C231.906 385.689 232.147 385.445 232.32 385.129C232.492 384.806 232.579 384.434 232.579 384.014C232.579 383.585 232.492 383.217 232.32 382.909C232.147 382.594 231.906 382.349 231.598 382.177C231.298 382.004 230.956 381.917 230.573 381.917C230.19 381.917 229.848 382.004 229.547 382.177C229.247 382.349 229.006 382.594 228.826 382.909C228.646 383.217 228.556 383.585 228.556 384.014C228.556 384.434 228.646 384.806 228.826 385.129C229.006 385.445 229.247 385.689 229.547 385.862C229.848 386.035 230.19 386.121 230.573 386.121ZM234.943 387V381.027H235.98V382.65L235.878 382.244C236.044 381.831 236.322 381.515 236.712 381.298C237.103 381.08 237.584 380.971 238.155 380.971V382.019C238.11 382.011 238.065 382.008 238.019 382.008C237.982 382.008 237.944 382.008 237.907 382.008C237.328 382.008 236.87 382.18 236.532 382.526C236.194 382.872 236.025 383.371 236.025 384.025V387H234.943ZM242.4 389.254C242.115 389.254 241.837 389.205 241.566 389.107C241.296 389.017 241.063 388.882 240.867 388.702L241.33 387.89C241.48 388.033 241.645 388.142 241.825 388.217C242.006 388.292 242.197 388.33 242.4 388.33C242.663 388.33 242.881 388.262 243.054 388.127C243.227 387.992 243.388 387.751 243.538 387.406L243.91 386.583L244.023 386.448L246.367 381.027H247.426L244.53 387.597C244.357 388.018 244.162 388.349 243.944 388.589C243.734 388.829 243.501 388.998 243.245 389.096C242.99 389.201 242.708 389.254 242.4 389.254ZM243.82 387.192L241.093 381.027H242.22L244.541 386.346L243.82 387.192ZM250.604 387.068C250.003 387.068 249.469 386.936 249.004 386.673C248.538 386.41 248.17 386.05 247.899 385.591C247.629 385.125 247.493 384.6 247.493 384.014C247.493 383.42 247.629 382.894 247.899 382.436C248.17 381.977 248.538 381.621 249.004 381.365C249.469 381.102 250.003 380.971 250.604 380.971C251.197 380.971 251.727 381.102 252.193 381.365C252.666 381.621 253.034 381.977 253.297 382.436C253.568 382.887 253.703 383.412 253.703 384.014C253.703 384.607 253.568 385.133 253.297 385.591C253.034 386.05 252.666 386.41 252.193 386.673C251.727 386.936 251.197 387.068 250.604 387.068ZM250.604 386.121C250.987 386.121 251.329 386.035 251.629 385.862C251.937 385.689 252.178 385.445 252.351 385.129C252.523 384.806 252.61 384.434 252.61 384.014C252.61 383.585 252.523 383.217 252.351 382.909C252.178 382.594 251.937 382.349 251.629 382.177C251.329 382.004 250.987 381.917 250.604 381.917C250.221 381.917 249.879 382.004 249.578 382.177C249.278 382.349 249.037 382.594 248.857 382.909C248.677 383.217 248.587 383.585 248.587 384.014C248.587 384.434 248.677 384.806 248.857 385.129C249.037 385.445 249.278 385.689 249.578 385.862C249.879 386.035 250.221 386.121 250.604 386.121ZM257.487 387.068C256.976 387.068 256.525 386.974 256.135 386.786C255.752 386.598 255.451 386.313 255.233 385.929C255.023 385.539 254.918 385.05 254.918 384.464V381.027H255.999V384.34C255.999 384.926 256.138 385.366 256.416 385.659C256.702 385.952 257.1 386.098 257.611 386.098C257.987 386.098 258.313 386.023 258.591 385.873C258.869 385.715 259.084 385.49 259.234 385.197C259.384 384.896 259.459 384.536 259.459 384.115V381.027H260.541V387H259.516V385.388L259.685 385.817C259.489 386.215 259.196 386.523 258.806 386.741C258.415 386.959 257.975 387.068 257.487 387.068ZM262.375 387V381.027H263.412V382.65L263.311 382.244C263.476 381.831 263.754 381.515 264.145 381.298C264.535 381.08 265.016 380.971 265.587 380.971V382.019C265.542 382.011 265.497 382.008 265.452 382.008C265.414 382.008 265.377 382.008 265.339 382.008C264.761 382.008 264.302 382.18 263.964 382.526C263.626 382.872 263.457 383.371 263.457 384.025V387H262.375ZM272.763 380.971C273.251 380.971 273.679 381.065 274.048 381.252C274.423 381.44 274.716 381.726 274.927 382.109C275.137 382.492 275.242 382.977 275.242 383.563V387H274.16V383.687C274.16 383.108 274.017 382.672 273.732 382.379C273.454 382.086 273.06 381.94 272.549 381.94C272.165 381.94 271.831 382.015 271.546 382.165C271.26 382.316 271.039 382.537 270.881 382.83C270.73 383.123 270.655 383.488 270.655 383.923V387H269.573V378.638H270.655V382.639L270.441 382.21C270.637 381.82 270.937 381.515 271.343 381.298C271.749 381.08 272.222 380.971 272.763 380.971ZM279.577 387.068C278.976 387.068 278.443 386.936 277.977 386.673C277.511 386.41 277.143 386.05 276.872 385.591C276.602 385.125 276.467 384.6 276.467 384.014C276.467 383.42 276.602 382.894 276.872 382.436C277.143 381.977 277.511 381.621 277.977 381.365C278.443 381.102 278.976 380.971 279.577 380.971C280.171 380.971 280.7 381.102 281.166 381.365C281.64 381.621 282.008 381.977 282.271 382.436C282.541 382.887 282.676 383.412 282.676 384.014C282.676 384.607 282.541 385.133 282.271 385.591C282.008 386.05 281.64 386.41 281.166 386.673C280.7 386.936 280.171 387.068 279.577 387.068ZM279.577 386.121C279.96 386.121 280.302 386.035 280.603 385.862C280.911 385.689 281.151 385.445 281.324 385.129C281.497 384.806 281.583 384.434 281.583 384.014C281.583 383.585 281.497 383.217 281.324 382.909C281.151 382.594 280.911 382.349 280.603 382.177C280.302 382.004 279.96 381.917 279.577 381.917C279.194 381.917 278.852 382.004 278.552 382.177C278.251 382.349 278.011 382.594 277.83 382.909C277.65 383.217 277.56 383.585 277.56 384.014C277.56 384.434 277.65 384.806 277.83 385.129C278.011 385.445 278.251 385.689 278.552 385.862C278.852 386.035 279.194 386.121 279.577 386.121ZM291.419 380.971C291.9 380.971 292.324 381.065 292.693 381.252C293.061 381.44 293.346 381.726 293.549 382.109C293.759 382.492 293.865 382.977 293.865 383.563V387H292.783V383.687C292.783 383.108 292.647 382.672 292.377 382.379C292.106 382.086 291.727 381.94 291.239 381.94C290.878 381.94 290.563 382.015 290.292 382.165C290.022 382.316 289.811 382.537 289.661 382.83C289.518 383.123 289.447 383.488 289.447 383.923V387H288.365V383.687C288.365 383.108 288.23 382.672 287.959 382.379C287.696 382.086 287.317 381.94 286.821 381.94C286.468 381.94 286.156 382.015 285.886 382.165C285.615 382.316 285.405 382.537 285.254 382.83C285.104 383.123 285.029 383.488 285.029 383.923V387H283.947V381.027H284.984V382.616L284.815 382.21C285.003 381.82 285.292 381.515 285.683 381.298C286.073 381.08 286.528 380.971 287.046 380.971C287.617 380.971 288.109 381.113 288.523 381.399C288.936 381.677 289.206 382.101 289.334 382.672L288.895 382.492C289.075 382.034 289.39 381.666 289.841 381.388C290.292 381.11 290.818 380.971 291.419 380.971ZM298.29 387.068C297.651 387.068 297.087 386.936 296.599 386.673C296.118 386.41 295.743 386.05 295.472 385.591C295.209 385.133 295.078 384.607 295.078 384.014C295.078 383.42 295.205 382.894 295.461 382.436C295.724 381.977 296.081 381.621 296.531 381.365C296.99 381.102 297.504 380.971 298.075 380.971C298.654 380.971 299.165 381.098 299.608 381.354C300.051 381.609 300.397 381.97 300.645 382.436C300.9 382.894 301.028 383.431 301.028 384.047C301.028 384.092 301.024 384.145 301.017 384.205C301.017 384.265 301.013 384.322 301.006 384.374H295.923V383.597H300.442L300.003 383.867C300.01 383.484 299.931 383.142 299.766 382.841C299.601 382.541 299.371 382.308 299.078 382.143C298.793 381.97 298.459 381.884 298.075 381.884C297.7 381.884 297.365 381.97 297.072 382.143C296.779 382.308 296.55 382.545 296.385 382.853C296.22 383.153 296.137 383.499 296.137 383.89V384.07C296.137 384.468 296.227 384.825 296.407 385.14C296.595 385.449 296.854 385.689 297.185 385.862C297.516 386.035 297.895 386.121 298.323 386.121C298.676 386.121 298.996 386.061 299.281 385.941C299.574 385.82 299.83 385.64 300.048 385.4L300.645 386.098C300.374 386.414 300.036 386.654 299.631 386.82C299.232 386.985 298.785 387.068 298.29 387.068Z" fill="#5F6368"/>
<path d="M99.9009 345V333.8H101.613L106.509 341.976H105.613L110.429 333.8H112.141L112.157 345H110.189L110.173 336.888H110.589L106.493 343.72H105.565L101.405 336.888H101.885V345H99.9009ZM118.605 345.112C117.73 345.112 116.951 344.925 116.269 344.552C115.586 344.168 115.047 343.645 114.653 342.984C114.258 342.323 114.061 341.571 114.061 340.728C114.061 339.875 114.258 339.123 114.653 338.472C115.047 337.811 115.586 337.293 116.269 336.92C116.951 336.547 117.73 336.36 118.605 336.36C119.49 336.36 120.274 336.547 120.957 336.92C121.65 337.293 122.189 337.805 122.573 338.456C122.967 339.107 123.165 339.864 123.165 340.728C123.165 341.571 122.967 342.323 122.573 342.984C122.189 343.645 121.65 344.168 120.957 344.552C120.274 344.925 119.49 345.112 118.605 345.112ZM118.605 343.4C119.095 343.4 119.533 343.293 119.917 343.08C120.301 342.867 120.599 342.557 120.813 342.152C121.037 341.747 121.149 341.272 121.149 340.728C121.149 340.173 121.037 339.699 120.813 339.304C120.599 338.899 120.301 338.589 119.917 338.376C119.533 338.163 119.101 338.056 118.621 338.056C118.13 338.056 117.693 338.163 117.309 338.376C116.935 338.589 116.637 338.899 116.413 339.304C116.189 339.699 116.077 340.173 116.077 340.728C116.077 341.272 116.189 341.747 116.413 342.152C116.637 342.557 116.935 342.867 117.309 343.08C117.693 343.293 118.125 343.4 118.605 343.4ZM128.468 345.112C127.647 345.112 126.905 344.931 126.244 344.568C125.593 344.195 125.081 343.683 124.708 343.032C124.335 342.381 124.148 341.613 124.148 340.728C124.148 339.843 124.335 339.075 124.708 338.424C125.081 337.773 125.593 337.267 126.244 336.904C126.905 336.541 127.647 336.36 128.468 336.36C129.183 336.36 129.823 336.52 130.388 336.84C130.953 337.149 131.401 337.624 131.732 338.264C132.063 338.904 132.228 339.725 132.228 340.728C132.228 341.72 132.068 342.541 131.748 343.192C131.428 343.832 130.985 344.312 130.42 344.632C129.855 344.952 129.204 345.112 128.468 345.112ZM128.708 343.4C129.188 343.4 129.615 343.293 129.988 343.08C130.372 342.867 130.676 342.557 130.9 342.152C131.135 341.747 131.252 341.272 131.252 340.728C131.252 340.173 131.135 339.699 130.9 339.304C130.676 338.899 130.372 338.589 129.988 338.376C129.615 338.163 129.188 338.056 128.708 338.056C128.228 338.056 127.796 338.163 127.412 338.376C127.039 338.589 126.735 338.899 126.5 339.304C126.276 339.699 126.164 340.173 126.164 340.728C126.164 341.272 126.276 341.747 126.5 342.152C126.735 342.557 127.039 342.867 127.412 343.08C127.796 343.293 128.228 343.4 128.708 343.4ZM131.3 345V342.984L131.38 340.712L131.22 338.44V333.128H133.204V345H131.3ZM139.627 345.112C138.678 345.112 137.846 344.925 137.131 344.552C136.427 344.168 135.878 343.645 135.483 342.984C135.099 342.323 134.907 341.571 134.907 340.728C134.907 339.875 135.094 339.123 135.467 338.472C135.851 337.811 136.374 337.293 137.035 336.92C137.707 336.547 138.47 336.36 139.323 336.36C140.155 336.36 140.896 336.541 141.547 336.904C142.198 337.267 142.71 337.779 143.083 338.44C143.456 339.101 143.643 339.88 143.643 340.776C143.643 340.861 143.638 340.957 143.627 341.064C143.627 341.171 143.622 341.272 143.611 341.368H136.491V340.04H142.555L141.771 340.456C141.782 339.965 141.68 339.533 141.467 339.16C141.254 338.787 140.96 338.493 140.587 338.28C140.224 338.067 139.803 337.96 139.323 337.96C138.832 337.96 138.4 338.067 138.027 338.28C137.664 338.493 137.376 338.792 137.163 339.176C136.96 339.549 136.859 339.992 136.859 340.504V340.824C136.859 341.336 136.976 341.789 137.211 342.184C137.446 342.579 137.776 342.883 138.203 343.096C138.63 343.309 139.12 343.416 139.675 343.416C140.155 343.416 140.587 343.341 140.971 343.192C141.355 343.043 141.696 342.808 141.995 342.488L143.067 343.72C142.683 344.168 142.198 344.515 141.611 344.76C141.035 344.995 140.374 345.112 139.627 345.112ZM145.339 345V336.456H147.243V338.808L147.019 338.12C147.275 337.544 147.675 337.107 148.219 336.808C148.773 336.509 149.461 336.36 150.283 336.36V338.264C150.197 338.243 150.117 338.232 150.043 338.232C149.968 338.221 149.893 338.216 149.819 338.216C149.061 338.216 148.459 338.44 148.011 338.888C147.563 339.325 147.339 339.981 147.339 340.856V345H145.339ZM156.602 336.36C157.284 336.36 157.892 336.493 158.426 336.76C158.97 337.027 159.396 337.437 159.706 337.992C160.015 338.536 160.17 339.24 160.17 340.104V345H158.17V340.36C158.17 339.603 157.988 339.037 157.626 338.664C157.274 338.291 156.778 338.104 156.138 338.104C155.668 338.104 155.252 338.2 154.89 338.392C154.527 338.584 154.244 338.872 154.042 339.256C153.85 339.629 153.754 340.104 153.754 340.68V345H151.754V336.456H153.658V338.76L153.322 338.056C153.62 337.512 154.052 337.096 154.618 336.808C155.194 336.509 155.855 336.36 156.602 336.36ZM170.294 345.112C169.473 345.112 168.731 344.931 168.07 344.568C167.419 344.195 166.907 343.683 166.534 343.032C166.161 342.381 165.974 341.613 165.974 340.728C165.974 339.843 166.161 339.075 166.534 338.424C166.907 337.773 167.419 337.267 168.07 336.904C168.731 336.541 169.473 336.36 170.294 336.36C171.009 336.36 171.649 336.52 172.214 336.84C172.779 337.149 173.227 337.624 173.558 338.264C173.889 338.904 174.054 339.725 174.054 340.728C174.054 341.72 173.894 342.541 173.574 343.192C173.254 343.832 172.811 344.312 172.246 344.632C171.681 344.952 171.03 345.112 170.294 345.112ZM170.534 343.4C171.014 343.4 171.441 343.293 171.814 343.08C172.198 342.867 172.502 342.557 172.726 342.152C172.961 341.747 173.078 341.272 173.078 340.728C173.078 340.173 172.961 339.699 172.726 339.304C172.502 338.899 172.198 338.589 171.814 338.376C171.441 338.163 171.014 338.056 170.534 338.056C170.054 338.056 169.622 338.163 169.238 338.376C168.865 338.589 168.561 338.899 168.326 339.304C168.102 339.699 167.99 340.173 167.99 340.728C167.99 341.272 168.102 341.747 168.326 342.152C168.561 342.557 168.865 342.867 169.238 343.08C169.622 343.293 170.054 343.4 170.534 343.4ZM173.126 345V342.984L173.206 340.712L173.046 338.44V333.128H175.03V345H173.126ZM181.453 345.112C180.504 345.112 179.672 344.925 178.957 344.552C178.253 344.168 177.704 343.645 177.309 342.984C176.925 342.323 176.733 341.571 176.733 340.728C176.733 339.875 176.92 339.123 177.293 338.472C177.677 337.811 178.2 337.293 178.861 336.92C179.533 336.547 180.296 336.36 181.149 336.36C181.981 336.36 182.722 336.541 183.373 336.904C184.024 337.267 184.536 337.779 184.909 338.44C185.282 339.101 185.469 339.88 185.469 340.776C185.469 340.861 185.464 340.957 185.453 341.064C185.453 341.171 185.448 341.272 185.437 341.368H178.317V340.04H184.381L183.597 340.456C183.608 339.965 183.506 339.533 183.293 339.16C183.08 338.787 182.786 338.493 182.413 338.28C182.05 338.067 181.629 337.96 181.149 337.96C180.658 337.96 180.226 338.067 179.853 338.28C179.49 338.493 179.202 338.792 178.989 339.176C178.786 339.549 178.685 339.992 178.685 340.504V340.824C178.685 341.336 178.802 341.789 179.037 342.184C179.272 342.579 179.602 342.883 180.029 343.096C180.456 343.309 180.946 343.416 181.501 343.416C181.981 343.416 182.413 343.341 182.797 343.192C183.181 343.043 183.522 342.808 183.821 342.488L184.893 343.72C184.509 344.168 184.024 344.515 183.437 344.76C182.861 344.995 182.2 345.112 181.453 345.112ZM189.805 345.112C189.09 345.112 188.402 345.021 187.741 344.84C187.09 344.648 186.573 344.419 186.189 344.152L186.957 342.632C187.341 342.877 187.799 343.08 188.333 343.24C188.866 343.4 189.399 343.48 189.933 343.48C190.562 343.48 191.015 343.395 191.293 343.224C191.581 343.053 191.725 342.824 191.725 342.536C191.725 342.301 191.629 342.125 191.437 342.008C191.245 341.88 190.994 341.784 190.685 341.72C190.375 341.656 190.029 341.597 189.645 341.544C189.271 341.491 188.893 341.421 188.509 341.336C188.135 341.24 187.794 341.107 187.485 340.936C187.175 340.755 186.925 340.515 186.733 340.216C186.541 339.917 186.445 339.523 186.445 339.032C186.445 338.488 186.599 338.019 186.909 337.624C187.218 337.219 187.65 336.909 188.205 336.696C188.77 336.472 189.437 336.36 190.205 336.36C190.781 336.36 191.362 336.424 191.949 336.552C192.535 336.68 193.021 336.861 193.405 337.096L192.637 338.616C192.231 338.371 191.821 338.205 191.405 338.12C190.999 338.024 190.594 337.976 190.189 337.976C189.581 337.976 189.127 338.067 188.829 338.248C188.541 338.429 188.397 338.659 188.397 338.936C188.397 339.192 188.493 339.384 188.685 339.512C188.877 339.64 189.127 339.741 189.437 339.816C189.746 339.891 190.087 339.955 190.461 340.008C190.845 340.051 191.223 340.12 191.597 340.216C191.97 340.312 192.311 340.445 192.621 340.616C192.941 340.776 193.197 341.005 193.389 341.304C193.581 341.603 193.677 341.992 193.677 342.472C193.677 343.005 193.517 343.469 193.197 343.864C192.887 344.259 192.445 344.568 191.869 344.792C191.293 345.005 190.605 345.112 189.805 345.112ZM195.174 345V336.456H197.174V345H195.174ZM196.182 335.048C195.808 335.048 195.499 334.931 195.254 334.696C195.019 334.461 194.902 334.179 194.902 333.848C194.902 333.507 195.019 333.224 195.254 333C195.499 332.765 195.808 332.648 196.182 332.648C196.555 332.648 196.859 332.76 197.094 332.984C197.339 333.197 197.462 333.469 197.462 333.8C197.462 334.152 197.344 334.451 197.11 334.696C196.875 334.931 196.566 335.048 196.182 335.048ZM203.445 348.216C202.656 348.216 201.883 348.109 201.125 347.896C200.379 347.693 199.765 347.395 199.285 347L200.181 345.496C200.555 345.805 201.024 346.051 201.589 346.232C202.165 346.424 202.747 346.52 203.333 346.52C204.272 346.52 204.96 346.301 205.397 345.864C205.835 345.437 206.053 344.792 206.053 343.928V342.408L206.213 340.472L206.149 338.536V336.456H208.053V343.704C208.053 345.251 207.659 346.387 206.869 347.112C206.08 347.848 204.939 348.216 203.445 348.216ZM203.189 344.616C202.379 344.616 201.643 344.445 200.981 344.104C200.331 343.752 199.813 343.267 199.429 342.648C199.056 342.029 198.869 341.304 198.869 340.472C198.869 339.651 199.056 338.931 199.429 338.312C199.813 337.693 200.331 337.213 200.981 336.872C201.643 336.531 202.379 336.36 203.189 336.36C203.915 336.36 204.565 336.504 205.141 336.792C205.717 337.08 206.176 337.528 206.517 338.136C206.869 338.744 207.045 339.523 207.045 340.472C207.045 341.421 206.869 342.205 206.517 342.824C206.176 343.432 205.717 343.885 205.141 344.184C204.565 344.472 203.915 344.616 203.189 344.616ZM203.493 342.92C203.995 342.92 204.443 342.819 204.837 342.616C205.232 342.403 205.536 342.115 205.749 341.752C205.973 341.379 206.085 340.952 206.085 340.472C206.085 339.992 205.973 339.571 205.749 339.208C205.536 338.835 205.232 338.552 204.837 338.36C204.443 338.157 203.995 338.056 203.493 338.056C202.992 338.056 202.539 338.157 202.133 338.36C201.739 338.552 201.429 338.835 201.205 339.208C200.992 339.571 200.885 339.992 200.885 340.472C200.885 340.952 200.992 341.379 201.205 341.752C201.429 342.115 201.739 342.403 202.133 342.616C202.539 342.819 202.992 342.92 203.493 342.92ZM215.305 336.36C215.988 336.36 216.596 336.493 217.129 336.76C217.673 337.027 218.1 337.437 218.409 337.992C218.719 338.536 218.873 339.24 218.873 340.104V345H216.873V340.36C216.873 339.603 216.692 339.037 216.329 338.664C215.977 338.291 215.481 338.104 214.841 338.104C214.372 338.104 213.956 338.2 213.593 338.392C213.231 338.584 212.948 338.872 212.745 339.256C212.553 339.629 212.457 340.104 212.457 340.68V345H210.457V336.456H212.361V338.76L212.025 338.056C212.324 337.512 212.756 337.096 213.321 336.808C213.897 336.509 214.559 336.36 215.305 336.36ZM225.574 345V333.8H227.654V343.24H233.51V345H225.574ZM237.872 345.112C236.933 345.112 236.208 344.872 235.696 344.392C235.184 343.901 234.928 343.181 234.928 342.232V334.568H236.928V342.184C236.928 342.589 237.029 342.904 237.232 343.128C237.445 343.352 237.739 343.464 238.112 343.464C238.56 343.464 238.933 343.347 239.232 343.112L239.792 344.536C239.557 344.728 239.269 344.872 238.928 344.968C238.587 345.064 238.235 345.112 237.872 345.112ZM233.52 338.12V336.52H239.216V338.12H233.52ZM244.547 345.112C243.725 345.112 242.984 344.931 242.323 344.568C241.672 344.195 241.16 343.683 240.787 343.032C240.413 342.381 240.227 341.613 240.227 340.728C240.227 339.843 240.413 339.075 240.787 338.424C241.16 337.773 241.672 337.267 242.323 336.904C242.984 336.541 243.725 336.36 244.547 336.36C245.261 336.36 245.901 336.52 246.467 336.84C247.032 337.149 247.48 337.624 247.811 338.264C248.141 338.904 248.307 339.725 248.307 340.728C248.307 341.72 248.147 342.541 247.827 343.192C247.507 343.832 247.064 344.312 246.499 344.632C245.933 344.952 245.283 345.112 244.547 345.112ZM244.787 343.4C245.267 343.4 245.693 343.293 246.067 343.08C246.451 342.867 246.755 342.557 246.979 342.152C247.213 341.747 247.331 341.272 247.331 340.728C247.331 340.173 247.213 339.699 246.979 339.304C246.755 338.899 246.451 338.589 246.067 338.376C245.693 338.163 245.267 338.056 244.787 338.056C244.307 338.056 243.875 338.163 243.491 338.376C243.117 338.589 242.813 338.899 242.579 339.304C242.355 339.699 242.243 340.173 242.243 340.728C242.243 341.272 242.355 341.747 242.579 342.152C242.813 342.557 243.117 342.867 243.491 343.08C243.875 343.293 244.307 343.4 244.787 343.4ZM247.379 345V342.984L247.459 340.712L247.299 338.44V333.128H249.283V345H247.379Z" fill="#00B2FF"/>
</g>
<defs>
<filter id="filter0_ddd_6867_3549" x="63.9436" y="0.659435" width="349.361" height="694.215" filterUnits="userSpaceOnUse" color-interpolation-filters="sRGB">
<feFlood flood-opacity="0" result="BackgroundImageFix"/>
<feColorMatrix in="SourceAlpha" type="matrix" values="0 0 0 0 0 0 0 0 0 0 0 0 0 0 0 0 0 0 127 0" result="hardAlpha"/>
<feOffset dy="2.25394"/>
<feGaussianBlur stdDeviation="12.7724"/>
<feColorMatrix type="matrix" values="0 0 0 0 0 0 0 0 0 0 0 0 0 0 0 0 0 0 0.15 0"/>
<feBlend mode="normal" in2="BackgroundImageFix" result="effect1_dropShadow_6867_3549"/>
<feColorMatrix in="SourceAlpha" type="matrix" values="0 0 0 0 0 0 0 0 0 0 0 0 0 0 0 0 0 0 127 0" result="hardAlpha"/>
<feOffset dy="18.0316"/>
<feGaussianBlur stdDeviation="12.7724"/>
<feColorMatrix type="matrix" values="0 0 0 0 0 0 0 0 0 0 0 0 0 0 0 0 0 0 0.09 0"/>
<feBlend mode="normal" in2="effect1_dropShadow_6867_3549" result="effect2_dropShadow_6867_3549"/>
<feColorMatrix in="SourceAlpha" type="matrix" values="0 0 0 0 0 0 0 0 0 0 0 0 0 0 0 0 0 0 127 0" result="hardAlpha"/>
<feOffset dy="3.00526"/>
<feGaussianBlur stdDeviation="5.2592"/>
<feColorMatrix type="matrix" values="0 0 0 0 0 0 0 0 0 0 0 0 0 0 0 0 0 0 0.03 0"/>
<feBlend mode="normal" in2="effect2_dropShadow_6867_3549" result="effect3_dropShadow_6867_3549"/>
<feBlend mode="normal" in="SourceGraphic" in2="effect3_dropShadow_6867_3549" result="shape"/>
</filter>
<filter id="filter1_ddd_6867_3549" x="0.455296" y="239.709" width="479.089" height="218.867" filterUnits="userSpaceOnUse" color-interpolation-filters="sRGB">
<feFlood flood-opacity="0" result="BackgroundImageFix"/>
<feColorMatrix in="SourceAlpha" type="matrix" values="0 0 0 0 0 0 0 0 0 0 0 0 0 0 0 0 0 0 127 0" result="hardAlpha"/>
<feOffset dy="2.25394"/>
<feGaussianBlur stdDeviation="12.7724"/>
<feColorMatrix type="matrix" values="0 0 0 0 0 0 0 0 0 0 0 0 0 0 0 0 0 0 0.15 0"/>
<feBlend mode="normal" in2="BackgroundImageFix" result="effect1_dropShadow_6867_3549"/>
<feColorMatrix in="SourceAlpha" type="matrix" values="0 0 0 0 0 0 0 0 0 0 0 0 0 0 0 0 0 0 127 0" result="hardAlpha"/>
<feOffset dy="18.0316"/>
<feGaussianBlur stdDeviation="12.7724"/>
<feColorMatrix type="matrix" values="0 0 0 0 0 0 0 0 0 0 0 0 0 0 0 0 0 0 0.09 0"/>
<feBlend mode="normal" in2="effect1_dropShadow_6867_3549" result="effect2_dropShadow_6867_3549"/>
<feColorMatrix in="SourceAlpha" type="matrix" values="0 0 0 0 0 0 0 0 0 0 0 0 0 0 0 0 0 0 127 0" result="hardAlpha"/>
<feOffset dy="3.00526"/>
<feGaussianBlur stdDeviation="5.2592"/>
<feColorMatrix type="matrix" values="0 0 0 0 0 0 0 0 0 0 0 0 0 0 0 0 0 0 0.03 0"/>
<feBlend mode="normal" in2="effect2_dropShadow_6867_3549" result="effect3_dropShadow_6867_3549"/>
<feBlend mode="normal" in="SourceGraphic" in2="effect3_dropShadow_6867_3549" result="shape"/>
</filter>
<clipPath id="clip0_6867_3549">
<rect x="98.2637" y="33.2646" width="281.743" height="610.068" rx="37.57" fill="white"/>
</clipPath>
<clipPath id="clip1_6867_3549">
<rect width="105.184" height="34.2165" fill="white" transform="translate(186.918 97)"/>
</clipPath>
<clipPath id="clip2_6867_3549">
<rect width="18.0316" height="18.0316" fill="white" transform="translate(128.316 169.096)"/>
</clipPath>
<clipPath id="clip3_6867_3549">
<rect width="11.2697" height="11.2697" fill="white" transform="translate(131.697 172.477)"/>
</clipPath>
<clipPath id="clip4_6867_3549">
<rect width="9.01578" height="13.5237" fill="white" transform="translate(336.734 171.365)"/>
</clipPath>
<clipPath id="clip5_6867_3549">
<rect width="247.183" height="34.5605" fill="white" transform="translate(115.92 587.127)"/>
</clipPath>
<clipPath id="clip6_6867_3549">
<rect width="14.275" height="15.0263" fill="white" transform="translate(231.246 596.895)"/>
</clipPath>
</defs>
</svg>
