<svg width="232" height="233" viewBox="0 0 232 233" fill="none" xmlns="http://www.w3.org/2000/svg">
<path d="M218.269 130.639L218.587 129.008L230.518 136.228L230.205 137.834L216.437 140.051L216.755 138.419L228.319 136.685L228.338 136.585L218.269 130.639ZM223.171 132.219L221.891 138.794L220.511 138.525L221.791 131.95L223.171 132.219Z" fill="white"/>
<path d="M222.503 153.846C223.141 153.981 223.717 153.846 224.23 153.444C224.744 153.041 225.127 152.464 225.38 151.713C225.566 151.164 225.639 150.654 225.6 150.182C225.56 149.714 225.423 149.313 225.19 148.978C224.955 148.647 224.64 148.415 224.244 148.281C223.913 148.17 223.601 148.153 223.31 148.23C223.021 148.312 222.756 148.452 222.514 148.649C222.277 148.848 222.061 149.068 221.867 149.308C221.678 149.55 221.514 149.776 221.376 149.986L220.612 151.131C220.418 151.426 220.18 151.746 219.897 152.091C219.613 152.44 219.28 152.753 218.9 153.03C218.521 153.311 218.092 153.504 217.612 153.607C217.132 153.711 216.601 153.665 216.02 153.469C215.349 153.243 214.803 152.863 214.38 152.329C213.956 151.799 213.698 151.146 213.604 150.368C213.51 149.594 213.623 148.731 213.945 147.778C214.244 146.889 214.647 146.168 215.153 145.615C215.657 145.065 216.228 144.691 216.867 144.493C217.503 144.298 218.169 144.291 218.864 144.471L218.341 146.022C217.859 145.904 217.418 145.931 217.019 146.102C216.622 146.279 216.277 146.554 215.985 146.927C215.695 147.307 215.468 147.742 215.302 148.235C215.108 148.808 215.028 149.355 215.06 149.873C215.095 150.394 215.236 150.844 215.481 151.223C215.731 151.604 216.082 151.871 216.534 152.023C216.946 152.162 217.32 152.16 217.656 152.017C217.992 151.874 218.304 151.642 218.592 151.321C218.88 150.999 219.158 150.641 219.426 150.246L220.377 148.867C220.982 147.991 221.639 147.358 222.346 146.967C223.054 146.576 223.825 146.521 224.661 146.803C225.356 147.037 225.898 147.429 226.288 147.979C226.681 148.534 226.914 149.179 226.985 149.914C227.06 150.654 226.963 151.42 226.697 152.211C226.427 153.011 226.044 153.673 225.548 154.198C225.056 154.725 224.502 155.087 223.887 155.284C223.27 155.486 222.646 155.491 222.013 155.3L222.503 153.846Z" fill="white"/>
<path d="M211.14 156.406L222.872 162.214L222.169 163.635L216.349 160.753L216.281 160.891L219.492 169.042L218.573 170.898L215.719 163.351L206.841 165.09L207.692 163.372L215.164 161.993L214.241 159.71L210.437 157.826L211.14 156.406Z" fill="white"/>
<path d="M200.916 174.837L201.932 173.522L209.349 185.331L208.348 186.626L195.051 182.422L196.068 181.108L207.179 184.752L207.242 184.672L200.916 174.837ZM204.586 178.45L200.489 183.75L199.376 182.89L203.473 177.59L204.586 178.45Z" fill="white"/>
<path d="M187.048 196.357L185.724 197.485L183.371 196.97L182.747 196.829L179.22 196.038L180.543 194.911L182.877 195.443L183.464 195.58L187.048 196.357ZM183.85 202.304C182.955 201.253 182.371 200.183 182.099 199.094C181.826 198.005 181.844 196.971 182.152 195.992C182.461 195.013 183.04 194.162 183.89 193.438C184.74 192.714 185.673 192.278 186.688 192.13C187.704 191.981 188.727 192.128 189.759 192.571C190.79 193.013 191.754 193.76 192.649 194.811C193.544 195.862 194.128 196.932 194.4 198.021C194.673 199.11 194.655 200.144 194.347 201.123C194.039 202.102 193.46 202.953 192.609 203.677C191.759 204.401 190.827 204.837 189.811 204.986C188.796 205.134 187.772 204.987 186.741 204.544C185.709 204.102 184.746 203.355 183.85 202.304ZM185.018 201.309C185.753 202.172 186.518 202.778 187.312 203.126C188.103 203.476 188.874 203.595 189.623 203.483C190.37 203.374 191.045 203.062 191.648 202.548C192.251 202.034 192.668 201.416 192.898 200.694C193.125 199.975 193.13 199.195 192.914 198.356C192.693 197.519 192.216 196.669 191.481 195.806C190.746 194.943 189.983 194.336 189.192 193.985C188.398 193.638 187.627 193.518 186.881 193.628C186.131 193.74 185.455 194.053 184.851 194.567C184.248 195.081 183.833 195.698 183.606 196.417C183.376 197.139 183.37 197.919 183.591 198.756C183.807 199.595 184.283 200.446 185.018 201.309Z" fill="white"/>
<path d="M175.302 216.007L173.955 216.843L169.383 209.48C168.911 208.72 168.669 207.929 168.656 207.11C168.643 206.296 168.853 205.515 169.287 204.769C169.724 204.026 170.379 203.384 171.251 202.842C172.124 202.301 172.99 201.999 173.849 201.937C174.711 201.878 175.505 202.035 176.232 202.406C176.958 202.783 177.556 203.352 178.028 204.112L182.601 211.476L181.254 212.312L176.749 205.057C176.412 204.514 175.992 204.105 175.491 203.829C174.991 203.558 174.445 203.438 173.853 203.469C173.259 203.507 172.653 203.718 172.033 204.102C171.414 204.487 170.956 204.937 170.659 205.452C170.365 205.971 170.23 206.514 170.256 207.08C170.28 207.652 170.46 208.209 170.797 208.752L175.302 216.007Z" fill="white"/>
<path d="M162.77 208.09L168.094 220.05L160.876 223.263L160.304 221.978L166.074 219.41L164.275 215.369L158.879 217.771L158.307 216.486L163.703 214.084L161.894 210.02L156.031 212.629L155.459 211.345L162.77 208.09Z" fill="white"/>
<path d="M146.674 224.727C146.933 225.326 147.376 225.718 148.001 225.905C148.626 226.091 149.319 226.07 150.078 225.843C150.633 225.676 151.092 225.441 151.454 225.137C151.813 224.834 152.061 224.49 152.2 224.106C152.334 223.723 152.341 223.332 152.222 222.932C152.121 222.597 151.955 222.333 151.724 222.14C151.49 221.952 151.222 221.816 150.922 221.733C150.622 221.654 150.318 221.605 150.01 221.586C149.703 221.571 149.424 221.568 149.173 221.576L147.797 221.615C147.444 221.627 147.046 221.618 146.6 221.587C146.151 221.557 145.703 221.466 145.258 221.315C144.809 221.169 144.404 220.93 144.042 220.598C143.68 220.266 143.411 219.806 143.235 219.219C143.032 218.541 143.026 217.876 143.217 217.222C143.404 216.57 143.788 215.981 144.369 215.456C144.946 214.931 145.716 214.525 146.68 214.236C147.578 213.967 148.399 213.879 149.143 213.972C149.883 214.066 150.518 214.316 151.049 214.722C151.576 215.129 151.967 215.668 152.221 216.339L150.654 216.809C150.471 216.347 150.194 216.003 149.824 215.776C149.45 215.554 149.027 215.432 148.553 215.41C148.076 215.392 147.589 215.458 147.091 215.608C146.511 215.781 146.019 216.031 145.614 216.357C145.21 216.687 144.924 217.062 144.756 217.482C144.59 217.905 144.575 218.346 144.712 218.803C144.837 219.219 145.054 219.523 145.365 219.715C145.676 219.906 146.046 220.027 146.475 220.076C146.903 220.126 147.356 220.146 147.834 220.136L149.509 220.114C150.573 220.103 151.469 220.272 152.197 220.623C152.925 220.975 153.416 221.573 153.669 222.418C153.879 223.12 153.873 223.789 153.65 224.425C153.424 225.067 153.032 225.629 152.474 226.112C151.913 226.601 151.233 226.965 150.433 227.205C149.624 227.447 148.862 227.517 148.147 227.416C147.433 227.318 146.817 227.076 146.301 226.688C145.78 226.301 145.415 225.794 145.205 225.168L146.674 224.727Z" fill="white"/>
<path d="M140.693 228.283L140.919 229.671L131.229 231.251L131.002 229.864L135.065 229.201L133.184 217.669L134.749 217.413L136.63 228.946L140.693 228.283Z" fill="white"/>
<path d="M124.162 231.89L123.354 218.824L124.937 218.726L125.744 231.792L124.162 231.89Z" fill="white"/>
<path d="M105.932 225.225C106.006 223.846 106.319 222.668 106.872 221.691C107.424 220.714 108.149 219.976 109.046 219.478C109.944 218.981 110.95 218.762 112.065 218.822C113.179 218.883 114.156 219.208 114.995 219.8C115.833 220.392 116.474 221.203 116.918 222.234C117.362 223.265 117.546 224.47 117.471 225.849C117.397 227.228 117.084 228.406 116.531 229.383C115.979 230.36 115.254 231.098 114.357 231.595C113.459 232.093 112.453 232.312 111.338 232.251C110.224 232.191 109.247 231.865 108.408 231.274C107.57 230.682 106.929 229.871 106.485 228.84C106.041 227.808 105.857 226.604 105.932 225.225ZM107.463 225.308C107.402 226.44 107.54 227.405 107.876 228.204C108.209 229.003 108.685 229.62 109.306 230.055C109.923 230.489 110.627 230.728 111.418 230.771C112.21 230.813 112.938 230.652 113.602 230.287C114.262 229.922 114.802 229.36 115.223 228.601C115.64 227.843 115.878 226.898 115.94 225.766C116.001 224.634 115.865 223.669 115.533 222.87C115.196 222.071 114.72 221.454 114.103 221.019C113.482 220.585 112.776 220.346 111.985 220.303C111.193 220.26 110.467 220.422 109.807 220.787C109.143 221.152 108.603 221.714 108.186 222.473C107.766 223.231 107.525 224.176 107.463 225.308Z" fill="white"/>
<path d="M88.5714 228.936L91.2202 216.116L92.7226 216.426L97.6288 227.935L97.754 227.961L99.8337 217.895L101.386 218.216L98.7373 231.036L97.2349 230.726L92.3089 219.186L92.1837 219.16L90.0988 229.251L88.5714 228.936Z" fill="white"/>
<path d="M76.3236 213.698C76.7985 213.899 77.1832 214.198 77.4777 214.596C77.7706 214.997 77.9517 215.444 78.0212 215.936C78.0868 216.427 78.0191 216.909 77.8183 217.384C77.6157 217.863 77.3165 218.248 76.9206 218.538C76.5191 218.831 76.0732 219.011 75.5828 219.076C75.0907 219.146 74.6072 219.08 74.1323 218.879C73.6535 218.676 73.2696 218.375 72.9807 217.975C72.6862 217.578 72.5061 217.134 72.4405 216.644C72.3694 216.155 72.4351 215.672 72.6376 215.193C72.8385 214.718 73.1397 214.334 73.5411 214.041C73.9387 213.747 74.3835 213.565 74.8756 213.495C75.3621 213.428 75.8447 213.496 76.3236 213.698Z" fill="white"/>
<path d="M52.404 197.138L53.6574 198.229L41.4362 204.946L40.202 203.872L45.1725 190.842L46.426 191.933L42.1404 202.813L42.2175 202.881L52.404 197.138ZM48.5834 200.592L43.531 196.193L44.4544 195.132L49.5068 199.531L48.5834 200.592Z" fill="white"/>
<path d="M30.2536 189.24C29.819 189.727 29.6481 190.293 29.741 190.939C29.8339 191.584 30.1427 192.204 30.6675 192.798C31.0512 193.233 31.4572 193.551 31.8855 193.752C32.311 193.951 32.7271 194.032 33.1338 193.997C33.5377 193.959 33.8962 193.801 34.2091 193.525C34.471 193.293 34.6411 193.032 34.7195 192.741C34.7919 192.45 34.8029 192.15 34.7525 191.842C34.6989 191.537 34.6161 191.24 34.5041 190.953C34.3889 190.668 34.2748 190.413 34.1619 190.189L33.5499 188.955C33.3912 188.641 33.2327 188.274 33.0744 187.857C32.9132 187.437 32.8079 186.992 32.7583 186.524C32.7028 186.056 32.7498 185.588 32.8995 185.12C33.0492 184.652 33.354 184.215 33.8139 183.809C34.344 183.341 34.9458 183.056 35.6192 182.956C36.2897 182.853 36.9854 182.955 37.706 183.262C38.4238 183.566 39.1157 184.095 39.7815 184.848C40.4023 185.551 40.8264 186.26 41.0539 186.974C41.2786 187.685 41.3179 188.367 41.1719 189.019C41.0231 189.668 40.6973 190.249 40.1947 190.761L39.1113 189.535C39.4535 189.176 39.65 188.78 39.7009 188.349C39.7457 187.917 39.6791 187.481 39.501 187.041C39.3169 186.601 39.0527 186.186 38.7085 185.797C38.3079 185.343 37.8747 185.001 37.409 184.77C36.94 184.541 36.4799 184.439 36.0287 184.462C35.5742 184.489 35.1681 184.66 34.8104 184.976C34.4847 185.264 34.3 185.589 34.2565 185.951C34.2129 186.314 34.2585 186.7 34.3931 187.11C34.5278 187.52 34.6995 187.94 34.9085 188.369L35.6301 189.881C36.0869 190.842 36.3084 191.727 36.2946 192.535C36.2808 193.343 35.9434 194.039 35.2823 194.623C34.7331 195.109 34.1228 195.383 33.4517 195.448C32.7745 195.511 32.0996 195.391 31.4271 195.087C30.7486 194.782 30.1328 194.317 29.5798 193.691C29.0211 193.059 28.6379 192.396 28.4302 191.704C28.2192 191.015 28.1816 190.355 28.3173 189.723C28.4501 189.088 28.757 188.544 29.2379 188.091L30.2536 189.24Z" fill="white"/>
<path d="M33.8169 178.228L22.9561 185.536L22.071 184.221L27.459 180.595L27.3734 180.468L18.7023 179.215L17.546 177.497L25.5151 178.76L28.4069 170.188L29.4775 171.779L26.9697 178.952L29.4106 179.282L32.9319 176.912L33.8169 178.228Z" fill="white"/>
<path d="M22.8326 160.056L23.4628 161.594L9.52685 162.11L8.90634 160.596L19.1968 151.184L19.827 152.722L11.1135 160.52L11.1523 160.615L22.8326 160.056ZM17.8682 161.427L15.328 155.228L16.6292 154.695L19.1694 160.894L17.8682 161.427Z" fill="white"/>
<path d="M11.1876 137.522L10.8749 135.811L12.4991 134.033L12.9332 133.564L15.3844 130.906L15.6971 132.616L14.0683 134.37L13.6548 134.809L11.1876 137.522ZM7.64186 131.776C9.00003 131.527 10.2186 131.558 11.2975 131.868C12.3765 132.177 13.2624 132.711 13.9553 133.468C14.6482 134.225 15.0951 135.152 15.2959 136.251C15.4966 137.349 15.4069 138.375 15.0267 139.328C14.6465 140.281 14.0066 141.093 13.1069 141.765C12.2073 142.436 11.0784 142.896 9.72026 143.144C8.36209 143.392 7.14353 143.362 6.06458 143.052C4.98563 142.743 4.09971 142.209 3.4068 141.452C2.7139 140.695 2.26706 139.768 2.06627 138.669C1.86548 137.571 1.9552 136.545 2.33542 135.592C2.71564 134.639 3.35556 133.827 4.25518 133.155C5.1548 132.484 6.28369 132.024 7.64186 131.776ZM7.91776 133.285C6.80272 133.489 5.89574 133.847 5.19683 134.361C4.49716 134.87 4.00816 135.477 3.72985 136.182C3.45077 136.883 3.3825 137.623 3.52505 138.403C3.66759 139.182 3.99374 139.853 4.5035 140.414C5.01249 140.97 5.68465 141.365 6.51997 141.598C7.35453 141.827 8.32933 141.839 9.44437 141.635C10.5594 141.431 11.4668 141.075 12.1664 140.566C12.8654 140.052 13.3543 139.445 13.6334 138.744C13.9117 138.039 13.9796 137.297 13.8371 136.517C13.6945 135.738 13.3688 135.069 12.8598 134.513C12.35 133.952 11.6779 133.557 10.8433 133.328C10.008 133.096 9.0328 133.081 7.91776 133.285Z" fill="white"/>
<path d="M0.0492355 117.532L0.00029652 115.948L8.66378 115.68C9.55824 115.653 10.3634 115.839 11.0792 116.239C11.7906 116.635 12.3604 117.207 12.7886 117.957C13.2125 118.707 13.4403 119.596 13.472 120.622C13.5038 121.649 13.3312 122.549 12.9544 123.324C12.5733 124.099 12.04 124.708 11.3545 125.151C10.6646 125.591 9.8724 125.824 8.97794 125.852L0.314453 126.119L0.265514 124.535L8.80122 124.271C9.44012 124.251 10.0044 124.093 10.4941 123.797C10.9795 123.5 11.3568 123.088 11.6261 122.559C11.8911 122.027 12.0123 121.396 11.9898 120.668C11.9673 119.94 11.8074 119.318 11.5101 118.803C11.2086 118.288 10.8065 117.899 10.3038 117.638C9.7968 117.372 9.22384 117.249 8.58494 117.269L0.0492355 117.532Z" fill="white"/>
<path d="M13.17 110.245L0.155273 108.835L1.00641 100.98L2.40447 101.132L1.72412 107.41L6.12167 107.887L6.75795 102.015L8.15602 102.167L7.51974 108.038L11.9427 108.518L12.6341 102.137L14.0321 102.289L13.17 110.245Z" fill="white"/>
<path d="M6.7942 88.1781C6.14636 88.1024 5.58505 88.2883 5.11026 88.7358C4.63548 89.1832 4.3061 89.7924 4.12213 90.5634C3.98762 91.1271 3.96111 91.6421 4.0426 92.1085C4.12508 92.5706 4.29771 92.9579 4.5605 93.2703C4.82428 93.5786 5.15927 93.7812 5.56548 93.8782C5.90536 93.9593 6.21687 93.9482 6.5 93.8449C6.77998 93.7364 7.03145 93.573 7.25443 93.3546C7.47326 93.1352 7.66812 92.8969 7.839 92.6398C8.00574 92.3817 8.14839 92.1419 8.26694 91.9205L8.92371 90.7103C9.08989 90.3995 9.29812 90.0593 9.54841 89.6897C9.7997 89.3159 10.1025 88.9741 10.4568 88.6644C10.8079 88.3495 11.2179 88.1188 11.6866 87.9721C12.1553 87.8255 12.6881 87.8234 13.2849 87.9658C13.973 88.13 14.5517 88.4587 15.0211 88.9518C15.4915 89.4408 15.8083 90.0684 15.9716 90.8346C16.1358 91.5967 16.1012 92.4668 15.8678 93.4451C15.6502 94.357 15.3146 95.1115 14.8611 95.7086C14.4086 96.3016 13.8736 96.7259 13.2562 96.9816C12.6397 97.2332 11.9774 97.3008 11.2692 97.1844L11.649 95.5927C12.1397 95.666 12.5762 95.5993 12.9585 95.3926C13.3376 95.1808 13.6558 94.8755 13.913 94.4769C14.1671 94.0731 14.3544 93.6184 14.4751 93.1127C14.6155 92.5241 14.6463 91.9729 14.5674 91.459C14.4844 90.9441 14.3035 90.5089 14.0247 90.1532C13.7418 89.7966 13.3682 89.5629 12.904 89.4521C12.4812 89.3512 12.109 89.3872 11.7873 89.5602C11.4657 89.7331 11.176 89.9926 10.9182 90.3385C10.6604 90.6844 10.4159 91.0664 10.1847 91.4844L9.3632 92.9444C8.83982 93.8709 8.24361 94.561 7.57458 95.0147C6.90555 95.4684 6.14203 95.5929 5.28401 95.3882C4.57108 95.218 3.99532 94.8769 3.55675 94.3648C3.11502 93.8476 2.82514 93.2264 2.68713 92.5013C2.54595 91.771 2.5723 90.9997 2.76616 90.1873C2.962 89.3666 3.28322 88.6722 3.72984 88.1041C4.17231 87.535 4.69089 87.1242 5.2856 86.8719C5.8813 86.6153 6.50285 86.5534 7.15027 86.6859L6.7942 88.1781Z" fill="white"/>
<path d="M6.67218 81.2363L5.35742 80.7373L8.84108 71.5579L10.1558 72.0569L8.69524 75.9055L19.6196 80.0515L19.0572 81.5335L8.13277 77.3876L6.67218 81.2363Z" fill="white"/>
<path d="M11.8033 65.123L23.5136 70.9745L22.805 72.3926L11.0947 66.541L11.8033 65.123Z" fill="white"/>
<path d="M26.4813 53.0021C27.6379 53.7561 28.5014 54.6165 29.0716 55.5833C29.6418 56.5502 29.9181 57.5467 29.9003 58.5728C29.8826 59.5989 29.5688 60.5796 28.9592 61.5149C28.3495 62.4502 27.5788 63.1331 26.6472 63.5635C25.7155 63.9939 24.6923 64.1434 23.5776 64.0119C22.4628 63.8804 21.3271 63.4377 20.1704 62.6837C19.0138 61.9298 18.1503 61.0694 17.5801 60.1025C17.0099 59.1357 16.7336 58.1392 16.7514 57.1131C16.7691 56.087 17.0828 55.1062 17.6925 54.1709C18.3022 53.2356 19.0729 52.5527 20.0045 52.1223C20.9362 51.6919 21.9594 51.5425 23.0741 51.674C24.1889 51.8054 25.3246 52.2482 26.4813 53.0021ZM25.6435 54.2873C24.6939 53.6683 23.7889 53.3048 22.9285 53.1966C22.0705 53.0849 21.298 53.1893 20.611 53.5096C19.9264 53.8263 19.3677 54.3167 18.9349 54.9807C18.502 55.6447 18.2777 56.3556 18.2619 57.1134C18.2484 57.8676 18.4648 58.6165 18.911 59.3601C19.3595 60.1001 20.0586 60.7796 21.0082 61.3986C21.9578 62.0175 22.8616 62.3829 23.7197 62.4946C24.5801 62.6027 25.3526 62.4984 26.0372 62.1816C26.7241 61.8613 27.284 61.3691 27.7168 60.7051C28.1497 60.0411 28.3728 59.332 28.3863 58.5778C28.4021 57.82 28.1857 57.0711 27.7372 56.3311C27.291 55.5875 26.5931 54.9063 25.6435 54.2873Z" fill="white"/>
<path d="M31.9189 36.0913L41.6978 44.7944L40.6779 45.9404L28.2574 44.4358L28.1724 44.5313L35.8504 51.3646L34.7965 52.5488L25.0176 43.8457L26.0375 42.6997L38.4941 44.2021L38.5791 44.1067L30.882 37.2564L31.9189 36.0913Z" fill="white"/>
<path d="M51.4877 32.8115C51.0764 33.1224 50.6249 33.306 50.1334 33.3623C49.6392 33.4153 49.1617 33.3488 48.7008 33.163C48.2433 32.9746 47.8591 32.6747 47.5482 32.2634C47.2348 31.8486 47.0512 31.3971 46.9974 30.909C46.9445 30.4148 47.0122 29.939 47.2006 29.4815C47.3864 29.0206 47.685 28.6347 48.0964 28.3238C48.5111 28.0104 48.9639 27.8285 49.4546 27.7781C49.9462 27.7218 50.4207 27.7878 50.8782 27.9762C51.3366 28.1586 51.7225 28.4572 52.0359 28.872C52.3468 29.2834 52.5287 29.7361 52.5816 30.2302C52.638 30.7218 52.5732 31.198 52.3874 31.6589C52.2024 32.1139 51.9025 32.4981 51.4877 32.8115Z" fill="white"/>
<path d="M77.6625 20.3388L76.0896 20.8756L76.4105 6.93375L77.9592 6.40521L86.7366 17.2419L85.1638 17.7787L77.9022 8.61298L77.8054 8.64601L77.6625 20.3388ZM76.5915 15.301L82.9314 13.1373L83.3856 14.4682L77.0458 16.6319L76.5915 15.301Z" fill="white"/>
<path d="M95.6388 5.09966C95.4373 4.47929 95.0342 4.04671 94.4295 3.8019C93.8247 3.5571 93.1336 3.51192 92.3562 3.66637C91.7878 3.7793 91.3086 3.97006 90.9189 4.23867C90.5332 4.50644 90.2533 4.82491 90.079 5.19408C89.9089 5.56241 89.8645 5.95139 89.9459 6.36099C90.014 6.70373 90.154 6.9822 90.366 7.19642C90.5813 7.40563 90.8348 7.56599 91.1263 7.67752C91.417 7.78486 91.7148 7.86255 92.0198 7.91057C92.324 7.95442 92.6014 7.98403 92.8521 7.99939L94.2259 8.09141C94.5777 8.11275 94.9738 8.16006 95.4141 8.23333C95.8586 8.30577 96.2955 8.43838 96.7249 8.63114C97.1575 8.8189 97.5383 9.09517 97.8671 9.45997C98.1959 9.82477 98.4201 10.3081 98.5396 10.91C98.6775 11.6038 98.6202 12.2669 98.3679 12.8992C98.1197 13.5307 97.6815 14.0804 97.0532 14.5485C96.4292 15.0157 95.624 15.3473 94.6376 15.5432C93.718 15.7259 92.8923 15.7357 92.1604 15.5727C91.4327 15.4088 90.8239 15.0996 90.3339 14.6452C89.8481 14.1899 89.5104 13.6162 89.3207 12.924L90.9257 12.6051C91.0638 13.0816 91.3065 13.4505 91.6539 13.7117C92.0045 13.9679 92.4147 14.1297 92.8843 14.1972C93.3572 14.2596 93.8486 14.2402 94.3586 14.1389C94.9521 14.021 95.4659 13.819 95.9 13.5329C96.3333 13.2426 96.6534 12.8966 96.8603 12.4949C97.0664 12.089 97.123 11.652 97.03 11.1838C96.9453 10.7575 96.7572 10.4343 96.4658 10.2141C96.1745 9.99392 95.8178 9.83885 95.3959 9.74889C94.9739 9.65893 94.5248 9.59609 94.0485 9.56038L92.3789 9.42286C91.3185 9.33375 90.4426 9.07982 89.7511 8.66107C89.0597 8.24233 88.628 7.60036 88.4561 6.73516C88.3133 6.01626 88.3831 5.35069 88.6655 4.73847C88.9513 4.12124 89.3949 3.59864 89.9963 3.17069C90.6011 2.73772 91.3131 2.43986 92.1323 2.27711C92.9599 2.1127 93.725 2.11493 94.4276 2.28381C95.1294 2.44851 95.7191 2.74845 96.1965 3.18364C96.6782 3.618 96.9938 4.15703 97.1434 4.80072L95.6388 5.09966Z" fill="white"/>
<path d="M103.135 13.6975L102.277 0.634766L103.859 0.530871L104.285 7.01123L104.438 7.00117L109.88 0.135401L111.947 -0.00033268L106.849 6.2535L112.805 13.0624L110.891 13.1881L105.951 7.41425L104.439 9.35844L104.717 13.5936L103.135 13.6975Z" fill="white"/>
<path d="M124.42 13.2336L122.773 13.0102L129.296 0.684268L130.918 0.904245L133.921 14.5225L132.274 14.2991L129.879 2.85335L129.778 2.83961L124.42 13.2336ZM125.716 8.24886L132.354 9.14939L132.165 10.5429L125.527 9.64234L125.716 8.24886Z" fill="white"/>
<path d="M150.508 14.5816L152.142 15.174L152.859 17.4735L153.046 18.0849L154.104 21.5417L152.47 20.9493L151.777 18.6586L151.606 18.0799L150.508 14.5816ZM157.258 14.4171C156.787 15.7152 156.146 16.752 155.335 17.5276C154.523 18.3032 153.616 18.7993 152.613 19.0159C151.61 19.2325 150.583 19.1506 149.534 18.7702C148.484 18.3898 147.643 17.7951 147.012 16.986C146.381 16.177 146.002 15.2148 145.876 14.0994C145.75 12.984 145.922 11.7773 146.392 10.4793C146.863 9.1812 147.504 8.14436 148.315 7.36875C149.127 6.59313 150.034 6.09702 151.037 5.88042C152.04 5.66381 153.067 5.74572 154.116 6.12615C155.166 6.50657 156.006 7.1013 156.638 7.91032C157.269 8.71934 157.648 9.68155 157.774 10.7969C157.9 11.9123 157.728 13.119 157.258 14.4171ZM155.815 13.8944C156.202 12.8287 156.349 11.8646 156.258 11.0023C156.172 10.1413 155.894 9.41292 155.425 8.81707C154.961 8.22267 154.356 7.79043 153.611 7.52036C152.866 7.25029 152.122 7.19392 151.381 7.35127C150.644 7.51006 149.964 7.89143 149.341 8.49536C148.723 9.10075 148.221 9.93629 147.835 11.002C147.448 12.0677 147.299 13.031 147.386 13.8919C147.476 14.7543 147.754 15.4827 148.218 16.0771C148.687 16.673 149.294 17.1059 150.039 17.376C150.784 17.6461 151.525 17.7017 152.263 17.5429C153.004 17.3856 153.684 17.0042 154.303 16.3988C154.925 15.7949 155.429 14.9601 155.815 13.8944Z" fill="white"/>
<path d="M173.066 14.8468L174.46 15.6022L170.33 23.2224C169.903 24.0091 169.337 24.6111 168.631 25.0282C167.931 25.4436 167.149 25.6475 166.286 25.6399C165.424 25.6286 164.542 25.3782 163.639 24.8888C162.736 24.3994 162.045 23.7969 161.565 23.0812C161.087 22.3618 160.83 21.5944 160.792 20.779C160.76 19.9618 160.957 19.1599 161.383 18.3731L165.514 10.7529L166.907 11.5083L162.838 19.0161C162.533 19.5781 162.386 20.1453 162.395 20.7176C162.407 21.2862 162.573 21.8199 162.894 22.3186C163.221 22.8157 163.705 23.2378 164.346 23.5851C164.986 23.9323 165.604 24.1072 166.199 24.1097C166.796 24.1085 167.334 23.9566 167.813 23.654C168.298 23.3497 168.692 22.9165 168.997 22.3546L173.066 14.8468Z" fill="white"/>
<path d="M172.374 29.563L180.113 19.0049L186.485 23.6757L185.654 24.8099L180.56 21.0762L177.945 24.6437L182.709 28.1355L181.878 29.2697L177.114 25.7779L174.484 29.366L179.66 33.1601L178.828 34.2943L172.374 29.563Z" fill="white"/>
<path d="M194.978 35.3429C195.369 34.8205 195.49 34.2417 195.341 33.6065C195.192 32.9713 194.83 32.3806 194.256 31.8346C193.836 31.4354 193.404 31.154 192.959 30.9904C192.518 30.8299 192.097 30.7848 191.694 30.8553C191.295 30.9288 190.952 31.1169 190.664 31.4196C190.424 31.6729 190.277 31.9479 190.224 32.2446C190.177 32.5412 190.193 32.8407 190.27 33.1432C190.35 33.4426 190.458 33.7307 190.595 34.0075C190.734 34.2813 190.87 34.525 191.002 34.7387L191.719 35.9141C191.905 36.2138 192.094 36.5646 192.288 36.9666C192.486 37.3715 192.629 37.8049 192.719 38.2668C192.816 38.7286 192.809 39.199 192.701 39.678C192.593 40.157 192.327 40.6189 191.904 41.0637C191.417 41.5764 190.842 41.912 190.18 42.0706C189.521 42.232 188.819 42.1911 188.075 41.9478C187.333 41.7074 186.598 41.2409 185.869 40.548C185.189 39.9022 184.705 39.2333 184.416 38.5414C184.13 37.8523 184.032 37.1767 184.12 36.5143C184.212 35.8549 184.486 35.2481 184.942 34.6939L186.128 35.8212C185.819 36.2088 185.657 36.6199 185.644 37.0543C185.637 37.4885 185.742 37.9169 185.957 38.3394C186.179 38.7618 186.478 39.152 186.855 39.5102C187.294 39.927 187.755 40.2303 188.239 40.4199C188.726 40.6065 189.194 40.6684 189.641 40.6058C190.092 40.5401 190.481 40.3343 190.81 39.9883C191.109 39.6732 191.265 39.3332 191.277 38.9682C191.289 38.6031 191.21 38.2224 191.04 37.8258C190.87 37.4292 190.662 37.0261 190.417 36.6164L189.566 35.1731C189.027 34.2554 188.73 33.3934 188.673 32.587C188.616 31.7806 188.892 31.0578 189.499 30.4183C190.004 29.8871 190.588 29.5602 191.251 29.4379C191.92 29.3154 192.603 29.3764 193.3 29.6209C194.002 29.8652 194.656 30.2751 195.262 30.8505C195.873 31.4318 196.313 32.0581 196.58 32.7295C196.85 33.3978 196.945 34.0525 196.865 34.6935C196.788 35.3375 196.53 35.9062 196.09 36.3997L194.978 35.3429Z" fill="white"/>
<path d="M201.161 38.8354L202.251 37.9473L208.452 45.5594L207.362 46.4476L204.762 43.256L195.703 50.6358L194.701 49.4068L203.761 42.027L201.161 38.8354Z" fill="white"/>
<path d="M212.451 51.2064L201.536 58.4351L200.661 57.1135L211.575 49.8848L212.451 51.2064Z" fill="white"/>
<path d="M215.659 70.0206C214.428 70.6469 213.252 70.966 212.129 70.9778C211.007 70.9897 210.005 70.732 209.125 70.2046C208.245 69.6773 207.551 68.9162 207.045 67.9212C206.538 66.9262 206.331 65.9176 206.423 64.8954C206.514 63.8733 206.895 62.9119 207.566 62.0114C208.236 61.1109 209.186 60.3475 210.416 59.7212C211.647 59.0949 212.823 58.7758 213.946 58.764C215.068 58.7521 216.07 59.0098 216.95 59.5371C217.83 60.0645 218.524 60.8256 219.03 61.8206C219.537 62.8156 219.744 63.8242 219.652 64.8464C219.561 65.8685 219.18 66.8299 218.51 67.7304C217.839 68.6309 216.889 69.3943 215.659 70.0206ZM214.963 68.6534C215.973 68.1392 216.74 67.5363 217.262 66.8446C217.787 66.1566 218.082 65.4351 218.147 64.6799C218.215 63.9285 218.068 63.1997 217.709 62.4933C217.349 61.7869 216.845 61.2379 216.196 60.8461C215.549 60.4581 214.792 60.272 213.925 60.2878C213.06 60.3073 212.122 60.5742 211.112 61.0884C210.102 61.6025 209.335 62.2036 208.81 62.8915C208.287 63.5833 207.992 64.3048 207.925 65.0562C207.86 65.8113 208.007 66.5421 208.366 67.2485C208.726 67.9549 209.229 68.502 209.876 68.89C210.525 69.2817 211.282 69.4678 212.147 69.4483C213.014 69.4326 213.953 69.1676 214.963 68.6534Z" fill="white"/>
<path d="M227.696 83.553L215.259 87.6409L214.78 86.1836L222.317 76.1971L222.277 76.0756L212.513 79.2853L212.018 77.7794L224.454 73.6914L224.933 75.1488L217.38 85.1675L217.42 85.289L227.209 82.0713L227.696 83.553Z" fill="white"/>
<path d="M220.567 101.507C220.504 100.996 220.571 100.513 220.768 100.059C220.969 99.6048 221.266 99.2245 221.657 98.9184C222.049 98.6165 222.501 98.4338 223.013 98.3704C223.529 98.3064 224.011 98.3733 224.461 98.5709C224.915 98.7722 225.293 99.0688 225.595 99.4608C225.901 99.8523 226.086 100.304 226.15 100.816C226.214 101.331 226.145 101.815 225.943 102.265C225.746 102.718 225.451 103.096 225.059 103.398C224.672 103.704 224.22 103.889 223.704 103.953C223.193 104.016 222.71 103.947 222.255 103.746C221.802 103.549 221.422 103.254 221.115 102.863C220.814 102.475 220.631 102.023 220.567 101.507Z" fill="white"/>
</svg>
