<svg width="601" height="450" viewBox="0 0 601 450" fill="none" xmlns="http://www.w3.org/2000/svg">
<g clip-path="url(#clip0_2086_4616)">
<path d="M523.58 104.099H197.317C188.748 104.099 181.801 111.033 181.801 119.587V355.313C181.801 363.867 188.748 370.801 197.317 370.801H523.58C532.15 370.801 539.097 363.867 539.097 355.313V119.587C539.097 111.033 532.15 104.099 523.58 104.099Z" fill="#00B2FF"/>
<path d="M523.58 372H197.317C188.099 372 180.6 364.514 180.6 355.313V119.587C180.6 110.386 188.099 102.9 197.317 102.9H523.58C532.798 102.9 540.298 110.386 540.298 119.587V355.313C540.298 364.514 532.798 372 523.58 372ZM197.317 105.298C189.424 105.298 183.002 111.708 183.002 119.587V355.313C183.002 363.192 189.424 369.602 197.317 369.602H523.58C531.474 369.602 537.896 363.192 537.896 355.313V119.587C537.896 111.708 531.474 105.298 523.58 105.298H197.317Z" fill="#292B32"/>
</g>
<g clip-path="url(#clip1_2086_4616)">
<path d="M257.893 46.1982H50.72C45.2784 46.1982 40.8672 50.5975 40.8672 56.0243V205.575C40.8672 211.002 45.2784 215.401 50.72 215.401H257.893C263.334 215.401 267.745 211.002 267.745 205.575V56.0243C267.745 50.5975 263.334 46.1982 257.893 46.1982Z" fill="white"/>
<path d="M257.893 216.6H50.7202C44.6249 216.6 39.666 211.654 39.666 205.576V56.0244C39.666 49.9457 44.6249 45 50.7202 45H257.893C263.988 45 268.947 49.9457 268.947 56.0244V205.576C268.947 211.655 263.988 216.6 257.893 216.6V216.6ZM50.7202 47.3967C45.95 47.3967 42.069 51.2672 42.069 56.0244V205.576C42.069 210.333 45.95 214.204 50.7202 214.204H257.893C262.663 214.204 266.544 210.333 266.544 205.576V56.0244C266.544 51.2672 262.663 47.3967 257.893 47.3967H50.7202Z" fill="#292B32"/>
<path d="M203.502 123.439C203.332 123.439 203.163 123.403 203.008 123.333L138.125 94.071L105.911 122.773C105.701 122.959 105.433 123.067 105.152 123.076C104.871 123.086 104.595 122.997 104.373 122.825L71.5759 97.43C71.3242 97.2351 71.1605 96.9485 71.1207 96.6332C71.081 96.3179 71.1684 95.9997 71.3638 95.7487C71.5593 95.4977 71.8467 95.3344 72.1629 95.2947C72.479 95.2551 72.7981 95.3423 73.0497 95.5372L105.056 120.32L137.107 91.7644C137.281 91.6097 137.496 91.5086 137.726 91.4735C137.956 91.4383 138.191 91.4706 138.403 91.5664L203.113 120.75L227.271 88.1199C227.364 87.9933 227.482 87.8863 227.617 87.8051C227.753 87.7239 227.902 87.6701 228.058 87.6466C228.215 87.6232 228.374 87.6307 228.527 87.6686C228.68 87.7065 228.824 87.7741 228.951 87.8676C229.078 87.9611 229.185 88.0786 229.267 88.2134C229.348 88.3482 229.402 88.4977 229.426 88.6533C229.449 88.809 229.442 88.9677 229.404 89.1204C229.366 89.2732 229.298 89.4169 229.204 89.5435L204.47 122.953C204.358 123.104 204.212 123.227 204.044 123.312C203.876 123.396 203.69 123.44 203.502 123.44V123.439Z" fill="#292B32"/>
<path d="M236.301 77.9404L231.227 97.9173L227.635 89.6458L218.652 88.6584L236.301 77.9404Z" fill="#292B32"/>
<path d="M64.4688 124.179H80.1555V183.66H64.4688V124.179Z" fill="#00B2FF"/>
<path d="M80.156 184.858H64.4692C64.1505 184.858 63.8449 184.732 63.6195 184.507C63.3942 184.282 63.2676 183.977 63.2676 183.66V124.178C63.2676 123.861 63.3942 123.556 63.6195 123.331C63.8449 123.106 64.1505 122.98 64.4692 122.98H80.156C80.4747 122.98 80.7803 123.106 81.0057 123.331C81.231 123.556 81.3576 123.861 81.3576 124.178V183.66C81.3576 183.977 81.231 184.282 81.0057 184.507C80.7803 184.732 80.4747 184.858 80.156 184.858ZM65.6709 182.461H78.9544V125.377H65.6709V182.461Z" fill="#292B32"/>
<path d="M97.2676 149.574H112.954V183.66H97.2676V149.574Z" fill="#00B2FF"/>
<path d="M112.955 184.858H97.268C96.9493 184.858 96.6437 184.732 96.4184 184.507C96.193 184.282 96.0664 183.978 96.0664 183.66V149.574C96.0664 149.256 96.193 148.951 96.4184 148.726C96.6437 148.502 96.9493 148.375 97.268 148.375H112.955C113.274 148.375 113.579 148.502 113.805 148.726C114.03 148.951 114.156 149.256 114.156 149.574V183.66C114.156 183.978 114.03 184.282 113.805 184.507C113.579 184.732 113.274 184.858 112.955 184.858ZM98.4697 182.461H111.753V150.772H98.4697V182.461Z" fill="#292B32"/>
<path d="M228.457 105.635H244.144V183.659H228.457V105.635Z" fill="#00B2FF"/>
<path d="M244.144 184.858H228.457C228.139 184.858 227.833 184.732 227.608 184.507C227.382 184.283 227.256 183.978 227.256 183.66V105.635C227.256 105.318 227.382 105.013 227.608 104.788C227.833 104.563 228.139 104.437 228.457 104.437H244.144C244.463 104.437 244.769 104.563 244.994 104.788C245.219 105.013 245.346 105.318 245.346 105.635V183.66C245.346 183.978 245.219 184.283 244.994 184.507C244.769 184.732 244.463 184.858 244.144 184.858ZM229.659 182.462H242.943V106.834H229.659V182.462Z" fill="#292B32"/>
<path d="M195.66 149.936H211.347V183.66H195.66V149.936Z" fill="#00B2FF"/>
<path d="M211.345 184.858H195.659C195.34 184.858 195.034 184.732 194.809 184.507C194.584 184.282 194.457 183.977 194.457 183.66V149.936C194.457 149.618 194.584 149.313 194.809 149.088C195.034 148.864 195.34 148.737 195.659 148.737H211.345C211.664 148.737 211.97 148.864 212.195 149.088C212.42 149.313 212.547 149.618 212.547 149.936V183.66C212.547 183.977 212.42 184.282 212.195 184.507C211.97 184.732 211.664 184.858 211.345 184.858ZM196.86 182.461H210.144V151.134H196.86V182.461Z" fill="#292B32"/>
<path d="M162.861 135.549H178.548V183.66H162.861V135.549Z" fill="#00B2FF"/>
<path d="M178.549 184.858H162.862C162.543 184.858 162.237 184.732 162.012 184.507C161.787 184.282 161.66 183.978 161.66 183.66V135.549C161.66 135.231 161.787 134.926 162.012 134.702C162.237 134.477 162.543 134.351 162.862 134.351H178.549C178.867 134.351 179.173 134.477 179.398 134.702C179.624 134.926 179.75 135.231 179.75 135.549V183.66C179.75 183.978 179.624 184.282 179.398 184.507C179.173 184.732 178.867 184.858 178.549 184.858ZM164.063 182.461H177.347V136.747H164.063V182.461Z" fill="#292B32"/>
<path d="M130.064 120.353H145.751V183.659H130.064V120.353Z" fill="#00B2FF"/>
<path d="M145.752 184.858H130.065C129.746 184.858 129.441 184.732 129.215 184.507C128.99 184.282 128.863 183.978 128.863 183.66V120.353C128.863 120.035 128.99 119.73 129.215 119.505C129.441 119.281 129.746 119.154 130.065 119.154H145.752C146.07 119.154 146.376 119.281 146.601 119.505C146.827 119.73 146.953 120.035 146.953 120.353V183.66C146.953 183.978 146.827 184.282 146.601 184.507C146.376 184.732 146.07 184.858 145.752 184.858ZM131.267 182.461H144.55V121.551H131.267V182.461Z" fill="#292B32"/>
</g>
<g clip-path="url(#clip2_2086_4616)">
<path d="M292.757 344.99C268.333 344.991 245.722 335.643 226.832 317.618C208.403 300.031 193.535 274.366 182.642 241.333C178.496 228.759 185.346 215.211 197.943 211.072C210.54 206.934 224.113 213.771 228.259 226.345C236.544 251.466 247.526 271.046 260.019 282.967C306.286 325.368 345.467 263.772 376.275 232.645C391.55 216.438 422.747 207.881 430.153 238.074C432.06 250.423 424.162 262.022 412.246 264.98C411.435 265.558 409.707 266.935 406.729 269.955C376.776 303.715 342.418 346.201 292.757 344.99Z" fill="white"/>
<path d="M294.832 346.214C294.137 346.214 293.44 346.205 292.743 346.189C280.423 346.187 268.484 343.826 257.259 339.171C246.018 334.508 235.502 327.548 226.003 318.484C207.43 300.761 192.458 274.929 181.502 241.708C177.156 228.527 184.363 214.273 197.568 209.934C210.776 205.595 225.054 212.789 229.401 225.97C237.623 250.905 248.498 270.314 260.849 282.101C271.775 292.113 282.675 296.71 294.156 296.139C318.534 294.926 340.613 270.219 360.093 248.421C365.452 242.425 370.514 236.762 375.421 231.803C380.314 226.611 386.713 222.27 393.419 219.601C400.749 216.683 407.811 215.978 413.844 217.563C419.946 219.166 427.932 223.976 431.32 237.789C431.329 237.823 431.336 237.857 431.341 237.891C432.305 244.137 430.899 250.466 427.382 255.715C423.93 260.865 418.747 264.541 412.766 266.085C411.958 266.682 410.327 268.016 407.607 270.773C405.892 272.707 404.161 274.669 402.414 276.651C387.695 293.347 372.475 310.611 354.632 324.035C334.812 338.945 315.227 346.213 294.832 346.213L294.832 346.214ZM205.435 211.067C203.017 211.068 200.615 211.454 198.319 212.21C186.372 216.136 179.851 229.032 183.784 240.958C194.615 273.802 209.378 299.302 227.663 316.751C246.202 334.442 268.712 343.793 292.758 343.791H292.787C293.473 343.808 294.161 343.817 294.841 343.817C340.006 343.819 372.175 307.323 400.612 275.067C402.349 273.095 404.089 271.126 405.831 269.16C405.845 269.144 405.86 269.128 405.875 269.113C408.799 266.148 410.575 264.698 411.551 264.004C411.673 263.917 411.811 263.854 411.958 263.817C423.447 260.964 430.756 250.003 428.976 238.308C426.51 228.31 421.067 221.938 413.233 219.88C400.984 216.662 385.809 224.279 377.15 233.466C372.265 238.402 367.224 244.044 361.886 250.017C342.093 272.166 319.658 297.27 294.276 298.533C282.29 299.129 270.491 294.19 259.208 283.85C246.555 271.776 235.466 252.026 227.121 226.72C223.965 217.15 215.02 211.067 205.435 211.067H205.435Z" fill="#292B32"/>
<path d="M292.71 350.984C249.753 350.726 217.684 330.024 197.807 290.604C184.59 264.392 236.34 239.79 250.047 261.082C259.319 275.487 274.018 292.911 297.507 290.801C339.758 285.455 361.188 223.95 400.162 213.683C436.271 204.17 452.868 267.288 417.109 277.44C413.481 280.159 406.092 288.091 401.064 293.489C376.435 322.348 332.792 353.18 292.711 350.984H292.71Z" fill="white"/>
<path d="M296.759 352.292C295.391 352.292 294.032 352.256 292.673 352.183C271.137 352.048 252.053 346.768 235.957 336.489C219.949 326.267 206.752 311.01 196.734 291.143C193.618 284.963 193.718 278.37 197.024 272.076C199.869 266.657 205.071 261.602 211.668 257.842C225.046 250.219 243.398 248.537 251.057 260.435C259.763 273.959 274.041 291.694 297.378 289.61C319.252 286.83 335.811 268.267 351.823 250.317C366.232 234.162 381.133 217.457 399.856 212.525C419.032 207.473 432.364 221.915 436.636 237.47C438.998 246.069 438.706 254.822 435.814 262.116C432.551 270.347 426.276 276.018 417.658 278.529C414.055 281.304 406.798 289.093 401.961 294.286C376.923 323.616 335.182 352.291 296.76 352.293L296.759 352.292ZM233.013 254.177C226.383 254.177 219.062 256.389 212.858 259.923C202.403 265.881 192.468 277.35 198.879 290.065C218.733 329.438 250.304 349.53 292.718 349.786C292.737 349.786 292.757 349.786 292.776 349.787C294.107 349.86 295.443 349.896 296.782 349.896C334.433 349.897 375.478 321.621 400.15 292.712C400.161 292.699 400.173 292.686 400.184 292.673C405.455 287.015 412.673 279.265 416.388 276.481C416.506 276.393 416.639 276.327 416.781 276.287C434.644 271.216 438.395 252.939 434.321 238.104C430.351 223.651 418.065 210.206 400.469 214.842C382.445 219.59 368.442 235.289 353.616 251.91C337.304 270.198 320.437 289.107 297.657 291.99C297.643 291.992 297.628 291.993 297.614 291.995C286.846 292.963 276.786 289.966 267.719 283.089C261.143 278.101 255.206 271.314 249.037 261.73C245.604 256.398 239.655 254.178 233.013 254.178V254.177Z" fill="#292B32"/>
<path d="M400.162 213.683C411.756 209.865 432.72 207.425 440.932 207.749C449.143 208.074 483.065 207.749 483.065 207.749C491.72 207.714 513.288 213.487 523.801 219.219C533.12 224.299 515.658 347.554 501.871 375.58C456.876 390.029 387.681 387.023 369.52 371.753C369.52 371.753 396.438 276.001 395.515 250.939" fill="white"/>
<path d="M434.569 386.16C431.576 386.16 428.584 386.11 425.593 386.008C398.854 385.102 377.603 380.115 368.747 372.669C368.571 372.521 368.441 372.325 368.373 372.105C368.306 371.885 368.303 371.65 368.365 371.429C368.634 370.473 395.223 275.572 394.317 250.983C394.305 250.665 394.42 250.356 394.637 250.123C394.854 249.89 395.154 249.753 395.472 249.741C395.63 249.734 395.788 249.759 395.936 249.813C396.084 249.868 396.22 249.951 396.336 250.059C396.451 250.166 396.545 250.295 396.61 250.438C396.675 250.582 396.712 250.737 396.717 250.895C397.604 274.958 373.606 361.599 370.89 371.317C379.696 378.162 400.051 382.744 425.675 383.613C452.634 384.528 480.054 381.242 501.016 374.595C508.064 359.786 515.768 320.895 520.314 288.627C522.844 270.665 524.525 254.035 525.047 241.801C525.879 222.292 523.501 220.419 523.227 220.27C512.685 214.523 491.424 208.947 483.146 208.947H483.072C482.738 208.95 449.033 209.267 440.886 208.946C432.979 208.632 412.092 211.016 400.54 214.821C400.39 214.87 400.232 214.889 400.075 214.878C399.918 214.866 399.764 214.824 399.623 214.753C399.483 214.682 399.357 214.584 399.254 214.465C399.151 214.346 399.073 214.208 399.023 214.058C398.974 213.909 398.955 213.751 398.966 213.594C398.978 213.437 399.02 213.284 399.091 213.144C399.162 213.003 399.26 212.878 399.379 212.775C399.499 212.672 399.637 212.594 399.787 212.545C411.575 208.662 432.902 206.234 440.981 206.551C449.068 206.87 482.716 206.553 483.055 206.55H483.137C491.868 206.55 513.361 212.16 524.378 218.166C525.468 218.761 528.365 220.34 527.446 241.903C526.921 254.212 525.232 270.924 522.691 288.961C518.071 321.755 510.175 361.42 502.95 376.108C502.879 376.252 502.779 376.381 502.657 376.486C502.535 376.591 502.393 376.671 502.24 376.72C483.282 382.808 459.034 386.159 434.57 386.159L434.569 386.16Z" fill="#292B32"/>
<path d="M339.256 338.659C339.256 332.152 331.135 331.756 327.668 326.891C323.126 320.518 328.439 314.164 334.12 316.242C346.201 320.661 358.09 325.23 362.881 337.477L365.175 338.025" fill="white"/>
<path d="M339.256 339.857C338.937 339.857 338.632 339.731 338.407 339.506C338.182 339.281 338.055 338.977 338.055 338.659C338.055 335.59 335.989 334.237 332.618 332.284C330.457 331.031 328.222 329.736 326.69 327.586C323.783 323.506 324.57 319.669 326.275 317.438C328.214 314.903 331.456 313.992 334.533 315.117C345.787 319.233 358.519 323.89 363.762 336.455L365.454 336.859C365.764 336.933 366.031 337.127 366.198 337.398C366.365 337.669 366.417 337.994 366.343 338.303C366.306 338.457 366.24 338.601 366.147 338.729C366.055 338.856 365.938 338.964 365.803 339.047C365.669 339.129 365.52 339.184 365.364 339.209C365.208 339.233 365.049 339.227 364.895 339.19L362.601 338.643C362.413 338.598 362.238 338.508 362.092 338.381C361.946 338.253 361.833 338.093 361.762 337.913C357.068 325.912 345.192 321.568 333.707 317.367C331.638 316.611 329.471 317.21 328.184 318.892C326.997 320.444 326.496 323.178 328.647 326.197C329.877 327.924 331.884 329.086 333.824 330.211C336.933 332.013 340.457 334.055 340.457 338.658C340.457 338.976 340.33 339.281 340.105 339.506C339.88 339.731 339.575 339.857 339.256 339.857L339.256 339.857Z" fill="#292B32"/>
<path d="M525.192 227.765C567.633 254.529 556.9 334.787 527.647 368.92C509.258 390.719 477.163 398.033 446.827 397.773C427.644 397.857 406.274 395.154 386.246 391.515L394.421 344.297C430.609 351.066 473.388 354.792 491.184 337.725C502.046 325.324 510.762 288.444 501.511 271.325" fill="white"/>
<path d="M448.304 398.977C447.8 398.977 447.305 398.975 446.818 398.971C429.809 399.038 409.364 396.934 386.032 392.694C385.721 392.637 385.445 392.46 385.263 392.201C385.082 391.942 385.011 391.622 385.064 391.31L393.239 344.092C393.266 343.936 393.324 343.786 393.409 343.652C393.495 343.518 393.606 343.403 393.737 343.312C393.867 343.222 394.015 343.158 394.17 343.125C394.326 343.092 394.487 343.089 394.643 343.119C444.118 352.374 476.306 350.28 490.316 336.897C495.488 330.963 500.351 318.875 502.71 306.077C505.332 291.856 504.51 279.397 500.455 271.893C500.378 271.754 500.33 271.602 500.312 271.444C500.295 271.287 500.309 271.127 500.354 270.975C500.399 270.823 500.473 270.682 500.573 270.559C500.673 270.436 500.796 270.333 500.936 270.258C501.076 270.183 501.229 270.136 501.387 270.12C501.545 270.105 501.704 270.121 501.856 270.167C502.008 270.213 502.149 270.289 502.271 270.39C502.394 270.491 502.495 270.615 502.569 270.755C512.183 288.548 503.045 326.005 492.089 338.514C492.067 338.54 492.043 338.565 492.017 338.589C483.749 346.518 469.52 350.744 449.725 351.148C434.926 351.449 416.653 349.616 395.398 345.697L387.633 390.547C410.334 394.619 430.23 396.653 446.823 396.574C467.565 396.752 505.516 393.297 526.731 368.149C545.673 346.046 555.875 306.59 550.995 274.325C547.837 253.446 538.693 237.696 524.551 228.778C524.282 228.608 524.092 228.339 524.021 228.029C523.951 227.719 524.008 227.393 524.178 227.125C524.348 226.856 524.618 226.666 524.929 226.596C525.239 226.526 525.565 226.582 525.834 226.752C540.583 236.052 550.104 252.379 553.369 273.967C555.795 290.008 554.56 308.567 549.891 326.227C545.309 343.557 537.734 358.997 528.561 369.7C507.222 394.996 469.744 398.977 448.304 398.978L448.304 398.977Z" fill="#292B32"/>
<path d="M362.468 337.378C371.72 339.603 382.727 342.108 394.422 344.296L386.248 391.514C367.399 388.089 349.74 383.834 336.211 380.291C309.602 372.693 315.893 338.659 336.211 335.401" fill="white"/>
<path d="M386.247 392.713C386.175 392.713 386.103 392.706 386.032 392.694C370.434 389.859 353.569 386.077 335.906 381.451C321.393 377.306 316.825 365.917 317.38 356.637C317.697 351.348 319.623 346.209 322.803 342.169C326.24 337.803 330.81 335.053 336.019 334.218C336.332 334.172 336.65 334.25 336.905 334.436C337.16 334.623 337.331 334.902 337.382 335.213C337.432 335.525 337.357 335.843 337.173 336.1C336.99 336.357 336.712 336.531 336.401 336.584C326.183 338.223 320.304 347.984 319.777 356.78C319.277 365.132 323.418 375.392 336.541 379.139C353.671 383.625 370.066 387.319 385.27 390.117L393.037 345.255C383.596 343.466 373.755 341.325 362.186 338.543C361.877 338.469 361.609 338.275 361.443 338.004C361.277 337.733 361.226 337.407 361.3 337.098C361.337 336.945 361.404 336.8 361.496 336.673C361.589 336.546 361.706 336.438 361.841 336.356C361.975 336.274 362.124 336.219 362.28 336.194C362.436 336.17 362.595 336.176 362.748 336.213C374.753 339.099 384.887 341.293 394.643 343.118C394.953 343.176 395.228 343.354 395.408 343.613C395.587 343.871 395.658 344.19 395.604 344.5L387.43 391.718C387.382 391.997 387.237 392.249 387.021 392.431C386.804 392.613 386.53 392.713 386.247 392.713H386.247Z" fill="#292B32"/>
<path d="M523.802 219.219C529.533 222.214 535.553 226.673 541.337 233.218C572.22 268.164 560.166 338.499 532.207 372.821C515.124 393.791 487.351 403.799 452.594 403.788C435.137 403.782 423.341 404.29 402.003 399.62C371.554 392.955 385.201 335.85 412.532 340.571C436.812 344.765 441.953 344.664 457.724 343.432C489.04 340.753 495.616 327.029 499.458 296.765C500.516 288.437 499.757 279.143 496.464 273.102" fill="white"/>
<path d="M443.927 404.999C430.814 404.999 419.481 404.673 401.745 400.791C394.389 399.18 388.924 394.618 385.941 387.596C383.364 381.529 382.789 373.891 384.321 366.089C387.305 350.898 398.029 336.849 412.736 339.39C437.062 343.592 442.122 343.449 457.629 342.237C472.692 340.948 482.048 337.08 487.955 329.695C493.985 322.158 496.438 311.02 498.267 296.615C499.391 287.761 498.296 278.971 495.408 273.675C495.333 273.537 495.286 273.385 495.269 273.229C495.252 273.072 495.267 272.914 495.312 272.763C495.356 272.612 495.43 272.471 495.529 272.349C495.628 272.226 495.751 272.125 495.889 272.049C496.028 271.974 496.18 271.927 496.337 271.91C496.493 271.894 496.652 271.908 496.803 271.953C496.954 271.997 497.095 272.071 497.218 272.17C497.341 272.269 497.443 272.391 497.518 272.529C500.681 278.331 501.851 287.447 500.649 296.916C498.77 311.722 496.211 323.217 489.832 331.19C483.479 339.132 473.608 343.275 457.826 344.626C442.072 345.857 436.938 346.003 412.327 341.752C399.132 339.474 389.437 352.502 386.678 366.55C384.007 380.146 387.79 395.281 402.26 398.449C421.501 402.66 433.148 402.631 447.893 402.596C449.42 402.592 450.986 402.588 452.594 402.589H452.654C487.823 402.589 515.007 392.035 531.275 372.065C559.77 337.084 570.211 267.702 540.436 234.01C535.266 228.16 529.482 223.54 523.245 220.28C523.104 220.208 522.979 220.108 522.877 219.987C522.775 219.866 522.697 219.727 522.65 219.576C522.602 219.425 522.585 219.267 522.598 219.109C522.612 218.952 522.657 218.799 522.731 218.659C522.804 218.519 522.905 218.394 523.026 218.293C523.148 218.192 523.289 218.116 523.44 218.07C523.591 218.023 523.75 218.007 523.908 218.021C524.066 218.036 524.219 218.082 524.359 218.157C530.857 221.553 536.872 226.354 542.237 232.425C556.679 248.768 563 273.964 560.032 303.373C557.349 329.952 547.296 356.196 533.138 373.577C524.617 384.036 513.285 392.015 499.456 397.292C486.077 402.397 470.329 404.986 452.655 404.986H452.282C450.782 404.986 449.325 404.99 447.899 404.993C446.553 404.996 445.23 404.999 443.927 404.999Z" fill="#292B32"/>
<path d="M442.102 173.66L484.988 176.267L482.725 213.354L439.84 210.748L442.102 173.66Z" fill="white"/>
<path d="M482.727 214.552C482.702 214.552 482.678 214.552 482.653 214.55L439.767 211.944C439.449 211.925 439.152 211.78 438.941 211.542C438.73 211.304 438.623 210.992 438.642 210.675L440.904 173.587C440.913 173.43 440.954 173.276 441.023 173.135C441.092 172.993 441.188 172.867 441.306 172.762C441.424 172.658 441.562 172.578 441.711 172.527C441.86 172.475 442.018 172.454 442.175 172.463L485.061 175.07C485.218 175.079 485.372 175.12 485.514 175.189C485.656 175.258 485.783 175.354 485.887 175.472C485.992 175.589 486.072 175.727 486.123 175.876C486.175 176.024 486.196 176.182 486.186 176.339L483.924 213.427C483.906 213.731 483.771 214.017 483.549 214.226C483.327 214.435 483.032 214.552 482.727 214.552ZM441.111 209.624L481.6 212.085L483.717 177.39L443.228 174.929L441.111 209.624ZM484.819 96.611C485.619 87.9464 477.538 78.297 468.616 79.8861C458.407 81.7047 449.018 75.3614 449.432 68.998C449.432 68.998 443.411 73.3001 446.064 78.5028C446.064 78.5028 428.128 69.3324 422.432 82.1241C419.812 88.0084 416.567 90.3633 411.524 87.3634C404.173 82.9912 396.804 88.9935 399.591 97.7573C401.575 103.996 404.736 106.015 398.497 111.227C389.422 118.808 390.406 128.062 400.292 131.553C395.855 124.507 401.152 120.816 410.288 126.176C421.606 132.816 450.256 136.983 465.89 125.113C477.115 116.59 484.098 104.428 484.819 96.611Z" fill="#292B32"/>
<path d="M439.042 133.832C438.179 133.832 437.308 133.816 436.427 133.783C426.354 133.412 415.856 130.831 409.681 127.209C404.923 124.418 401.547 124.393 400.422 125.548C399.489 126.508 399.83 128.564 401.31 130.915C401.443 131.126 401.507 131.373 401.493 131.621C401.479 131.87 401.388 132.108 401.232 132.302C401.076 132.497 400.863 132.638 400.623 132.706C400.383 132.774 400.128 132.766 399.893 132.683C395.005 130.957 391.919 127.82 391.202 123.851C390.394 119.383 392.773 114.447 397.727 110.308C401.944 106.786 401.367 105.412 399.825 101.739C399.387 100.696 398.891 99.5147 398.447 98.1194C396.974 93.4866 398.031 89.0479 401.205 86.5357C404.189 84.1742 408.379 84.0966 412.14 86.3338C413.91 87.3869 415.39 87.7021 416.662 87.2991C418.349 86.7643 419.878 84.9122 421.336 81.6372C422.813 78.3208 425.18 76.0684 428.372 74.943C433.978 72.9662 440.706 74.9952 444.22 76.3814C443.911 72.6235 446.806 69.4021 448.734 68.0236C448.919 67.8914 449.138 67.8143 449.365 67.8013C449.592 67.7883 449.818 67.8399 450.017 67.9502C450.215 68.0604 450.379 68.2247 450.488 68.424C450.596 68.6233 450.646 68.8493 450.631 69.0758C450.502 71.0592 451.544 73.1448 453.565 74.9481C457.198 78.1902 463.023 79.666 468.407 78.7064C472.517 77.9751 476.694 79.329 480.174 82.5195C484.241 86.249 486.48 91.6908 486.016 96.7209C485.296 104.532 478.401 117.12 466.618 126.066C459.977 131.109 450.257 133.832 439.042 133.832H439.042ZM402.676 122.43C404.976 122.43 407.836 123.346 410.898 125.143C421.04 131.092 449.387 136.138 465.165 124.159C476.395 115.632 482.953 103.791 483.625 96.501C484.016 92.2648 482.024 87.4696 478.55 84.2845C475.635 81.6117 472.183 80.4681 468.829 81.0658C462.652 82.1657 456.191 80.5061 451.965 76.7347C450.19 75.1507 449.009 73.3446 448.502 71.4826C447.201 72.9536 445.802 75.3433 447.135 77.9592C447.25 78.1848 447.29 78.441 447.251 78.691C447.211 78.941 447.092 79.1719 446.913 79.3507C446.733 79.5295 446.502 79.6469 446.251 79.6862C446.001 79.7255 445.744 79.6845 445.518 79.5693C445.424 79.5216 436.005 74.7884 429.167 77.2048C426.624 78.103 424.728 79.9216 423.531 82.6106C421.753 86.6028 419.802 88.8184 417.39 89.5833C415.452 90.1978 413.272 89.7972 410.911 88.3927C407.984 86.6517 404.914 86.6601 402.698 88.4137C400.324 90.2922 399.573 93.7332 400.737 97.3944C401.148 98.6872 401.621 99.8161 402.04 100.812C403.667 104.689 404.843 107.489 399.269 112.146C394.994 115.717 392.915 119.828 393.565 123.426C393.975 125.695 395.453 127.639 397.812 129.076C397.182 126.956 397.472 125.141 398.699 123.879C399.644 122.908 401.014 122.43 402.676 122.43L402.676 122.43Z" fill="#292B32"/>
<path d="M484.82 96.6114C491.754 90.74 503.06 91.6206 503.082 98.5041C503.101 104.377 504.125 106.788 509.197 109.356C515.847 112.722 521.624 122.339 515.248 134.508C523.667 140.509 522.843 152.619 514.485 155.003C520.487 161.304 515.889 178.671 499.505 175.669C481.298 172.334 461.45 157.907 469.56 131.354C477.67 104.801 479.482 101.131 484.82 96.6114Z" fill="#292B32"/>
<path d="M503.155 177.213C501.915 177.213 500.624 177.093 499.29 176.848C486.922 174.582 476.301 167.919 470.877 159.023C466.005 151.031 465.176 141.604 468.413 131.004C476.401 104.849 478.301 100.56 484.044 95.6972C488.693 91.7612 495.665 90.3878 500.26 92.5031C502.846 93.6937 504.275 95.8233 504.284 98.5003C504.301 103.865 505.056 105.915 509.741 108.287C513.772 110.327 516.907 114.065 518.343 118.543C519.442 121.97 520.02 127.407 516.768 134.159C520.93 137.55 523.044 142.765 522.189 147.712C521.571 151.286 519.463 154.113 516.427 155.551C518.802 159.283 518.825 165.016 516.305 169.663C513.645 174.571 508.964 177.212 503.155 177.213V177.213ZM495.314 93.9235C492.221 93.9235 488.541 95.0335 485.597 97.5251C480.581 101.772 478.886 104.936 470.71 131.703C467.68 141.621 468.427 150.394 472.929 157.777C478.002 166.098 488.018 172.346 499.723 174.491C506.22 175.68 511.492 173.505 514.194 168.522C516.536 164.203 516.282 158.627 513.617 155.829C513.475 155.68 513.373 155.496 513.322 155.296C513.272 155.096 513.274 154.887 513.328 154.688C513.382 154.489 513.487 154.307 513.632 154.161C513.778 154.014 513.958 153.907 514.157 153.851C517.188 152.986 519.253 150.6 519.823 147.304C520.577 142.943 518.508 138.303 514.552 135.483C514.316 135.315 514.149 135.068 514.082 134.786C514.014 134.505 514.051 134.209 514.185 133.952C516.855 128.857 517.502 123.781 516.056 119.274C514.833 115.459 512.066 112.151 508.655 110.424C502.884 107.503 501.902 104.387 501.883 98.5078C501.877 96.7677 500.993 95.4799 499.254 94.6797C498.182 94.1862 496.817 93.9238 495.314 93.9238L495.314 93.9235Z" fill="#292B32"/>
<path d="M485.151 176.695C491.619 168.68 496.241 158.82 498.489 147.337C504.924 114.465 465.761 76.7262 432.552 97.1873C408.23 112.172 397.236 153.274 403.344 174.72C409.038 194.718 431.452 203.817 452.172 197.994C457.708 196.438 462.909 194.272 467.695 191.53" fill="white"/>
<path d="M439.604 200.943C433.332 200.943 427.199 199.663 421.625 197.13C411.886 192.704 404.983 184.862 402.187 175.047C399.093 164.179 400.323 148.124 405.398 133.146C411.099 116.325 420.517 103.192 431.92 96.1667C439.308 91.6145 447.259 89.6443 455.55 90.3148C462.988 90.9152 470.499 93.7058 477.271 98.3844C493.88 109.857 503.089 130.082 499.666 147.566C497.427 158.999 492.858 169.052 486.085 177.446C485.885 177.693 485.595 177.851 485.278 177.885C484.962 177.919 484.644 177.826 484.396 177.627C484.148 177.428 483.99 177.138 483.956 176.822C483.922 176.506 484.015 176.189 484.215 175.942C490.741 167.854 495.147 158.153 497.31 147.106C500.555 130.527 491.753 111.303 475.905 100.355C462.059 90.7906 446.487 90.008 433.181 98.2062C422.253 104.939 413.194 117.62 407.673 133.914C402.745 148.456 401.528 163.966 404.497 174.391C409.784 192.955 430.581 202.816 451.845 196.839C457.275 195.313 462.406 193.176 467.096 190.489C467.233 190.409 467.385 190.356 467.542 190.335C467.699 190.313 467.859 190.323 468.013 190.363C468.166 190.404 468.31 190.474 468.436 190.571C468.562 190.667 468.668 190.788 468.747 190.925C468.826 191.063 468.877 191.214 468.897 191.372C468.917 191.529 468.905 191.689 468.863 191.841C468.82 191.994 468.748 192.137 468.65 192.262C468.552 192.386 468.43 192.49 468.292 192.568C463.43 195.353 458.116 197.566 452.496 199.146C448.225 200.346 443.882 200.942 439.604 200.942V200.943Z" fill="#292B32"/>
<path d="M481.368 161.875C474.669 157.728 478.371 139.448 475.309 130.334C468.763 110.848 444.453 99.3564 432.551 97.1864C443.258 90.4422 459.589 86.7358 477.948 95.9876C501.703 107.959 509.067 127.351 503.699 151.267C499.682 169.162 485.482 164.421 481.368 161.875Z" fill="#00B2FF"/>
<path d="M490.43 165.596C486.356 165.596 482.593 164.043 480.735 162.893C476.129 160.041 475.886 152.244 475.628 143.988C475.477 139.146 475.321 134.139 474.171 130.715C467.551 111.011 442.67 100.249 432.335 98.3655C432.097 98.3223 431.878 98.2084 431.706 98.0386C431.534 97.8689 431.417 97.6513 431.371 97.4143C431.326 97.1773 431.352 96.932 431.448 96.7105C431.545 96.489 431.706 96.3016 431.91 96.173C438.044 92.3098 445.089 89.9657 452.285 89.3941C461.025 88.7002 469.838 90.5586 478.489 94.9179C490.302 100.871 498.495 108.86 502.843 118.663C506.987 128.007 507.668 139.064 504.871 151.529C503.355 158.282 500.281 162.672 495.734 164.578C493.993 165.309 492.183 165.596 490.43 165.596ZM435.804 96.6928C441.392 98.1665 449.062 101.249 456.605 106.27C463.589 110.918 472.701 118.8 476.447 129.953C477.71 133.712 477.872 138.898 478.028 143.914C478.255 151.174 478.489 158.682 482.001 160.856C484.293 162.275 489.919 164.417 494.804 162.368C498.593 160.78 501.191 156.957 502.527 151.005C508.052 126.393 499.6 108.242 477.407 97.0577C458.642 87.6015 443.395 92.6801 435.804 96.6928Z" fill="#292B32"/>
<path d="M481.367 161.874C484.357 156.883 490.549 154.515 496.253 156.529C502.759 158.827 506.168 165.953 503.866 172.447C501.565 178.941 494.425 182.343 487.919 180.046C485.707 179.269 483.76 177.883 482.303 176.049" fill="white"/>
<path d="M492.096 181.966C490.536 181.964 488.988 181.697 487.518 181.176C485.094 180.322 482.961 178.804 481.362 176.794C481.173 176.544 481.09 176.231 481.129 175.92C481.169 175.61 481.328 175.327 481.574 175.132C481.82 174.938 482.132 174.847 482.444 174.879C482.756 174.911 483.043 175.064 483.243 175.304C484.561 176.961 486.32 178.213 488.319 178.916C491.164 179.921 494.229 179.759 496.952 178.462C499.674 177.164 501.727 174.886 502.733 172.047C503.74 169.208 503.578 166.148 502.278 163.431C500.978 160.713 498.696 158.664 495.852 157.66C490.801 155.875 485.142 157.907 482.397 162.49C482.317 162.627 482.211 162.747 482.084 162.843C481.958 162.939 481.813 163.009 481.659 163.049C481.505 163.089 481.345 163.098 481.187 163.075C481.03 163.052 480.878 162.999 480.742 162.917C480.605 162.836 480.486 162.728 480.392 162.6C480.297 162.473 480.229 162.327 480.192 162.173C480.154 162.019 480.147 161.859 480.172 161.702C480.197 161.545 480.253 161.395 480.336 161.259C483.666 155.701 490.528 153.237 496.653 155.4C500.102 156.618 502.869 159.103 504.445 162.398C506.021 165.694 506.217 169.404 504.998 172.847C503.778 176.289 501.288 179.052 497.986 180.625C496.115 181.516 494.11 181.965 492.096 181.966ZM446.418 85.1855C431.335 86.0035 434.536 96.0921 429.045 98.311C422.817 100.827 422.339 105.678 423.529 109.333C424.749 113.081 423.34 117.166 419.496 115.939C422.544 120.883 429.466 122.562 432.648 117.871C435.83 113.18 439.332 115.613 444.772 119.556C450.213 123.5 457.68 121.35 461.918 113.8C464.793 108.679 466.558 104.973 470.667 103.69L468.67 97.586L474.168 102.192L474.2 98.1025L479.289 101.266C479.289 101.266 485.012 101.508 484.858 94.8083" fill="#292B32"/>
<path d="M450.64 122.691C448.307 122.691 446.035 121.952 444.067 120.526C440.862 118.203 438.095 116.195 436.144 116.537C435.273 116.69 434.454 117.346 433.642 118.543C432.161 120.726 429.884 121.906 427.203 121.839C423.829 121.765 420.403 119.696 418.473 116.567C418.345 116.358 418.283 116.116 418.297 115.871C418.311 115.627 418.399 115.392 418.55 115.2C418.701 115.007 418.908 114.865 419.143 114.793C419.377 114.721 419.628 114.723 419.862 114.797C421.23 115.234 421.771 114.692 421.949 114.514C422.824 113.636 423.008 111.613 422.386 109.703C421.712 107.631 420.167 100.606 428.594 97.2004C430.109 96.5883 430.822 95.1074 431.726 93.2321C433.489 89.5703 435.904 84.5555 446.352 83.989C447.009 83.9545 447.581 84.4597 447.616 85.1206C447.634 85.4379 447.524 85.7492 447.311 85.9858C447.099 86.2224 446.801 86.365 446.483 86.3822C437.453 86.8718 435.56 90.8026 433.89 94.2706C432.897 96.331 431.871 98.4618 429.495 99.4217C423.397 101.886 423.855 106.457 424.671 108.962C425.583 111.767 425.174 114.678 423.651 116.205C423.189 116.667 422.648 116.993 422.048 117.178C423.524 118.558 425.407 119.403 427.256 119.443C428.542 119.474 430.362 119.105 431.654 117.199C432.85 115.436 434.183 114.447 435.729 114.176C438.68 113.658 441.83 115.943 445.478 118.587C447.589 120.118 450.035 120.637 452.545 120.086C455.831 119.366 458.787 116.926 460.871 113.214C461.101 112.805 461.323 112.405 461.54 112.014C463.834 107.891 465.69 104.554 469.171 102.979L467.529 97.9581C467.448 97.7106 467.45 97.4435 467.534 97.1971C467.619 96.9508 467.782 96.7387 467.998 96.5928C468.214 96.4472 468.472 96.3758 468.732 96.3893C468.993 96.4029 469.242 96.5007 469.442 96.668L472.987 99.6383L473 98.093C473.001 97.8801 473.06 97.6716 473.169 97.4888C473.279 97.3061 473.435 97.1556 473.622 97.053C473.808 96.9504 474.019 96.8993 474.232 96.9049C474.446 96.9106 474.654 96.9727 474.835 97.0851L479.617 100.058C480.171 100.016 481.441 99.8166 482.383 98.8818C483.271 98.0016 483.7 96.6402 483.658 94.8356C483.654 94.6783 483.682 94.5218 483.739 94.375C483.796 94.2283 483.881 94.0942 483.99 93.9804C484.099 93.8665 484.229 93.7753 484.374 93.7117C484.518 93.6481 484.673 93.6136 484.831 93.61C485.487 93.5989 486.043 94.1187 486.059 94.7805C486.116 97.2855 485.439 99.2465 484.048 100.609C482.056 102.559 479.354 102.468 479.239 102.463C479.032 102.455 478.831 102.393 478.655 102.283L475.384 100.25L475.369 102.201C475.367 102.428 475.3 102.651 475.177 102.842C475.053 103.033 474.878 103.184 474.671 103.28C474.464 103.375 474.235 103.41 474.009 103.379C473.783 103.349 473.571 103.256 473.396 103.11L471.116 101.199L471.809 103.318C471.858 103.469 471.877 103.628 471.864 103.786C471.852 103.944 471.808 104.098 471.735 104.239C471.662 104.38 471.562 104.505 471.44 104.607C471.319 104.709 471.178 104.786 471.026 104.834C467.705 105.871 466.088 108.778 463.641 113.177C463.422 113.57 463.197 113.973 462.966 114.385C460.543 118.702 457.025 121.558 453.06 122.426C452.254 122.603 451.443 122.691 450.641 122.691L450.64 122.691ZM452.697 148.691C449.414 146.517 445.897 145.337 441.589 144.108C438.826 143.32 439.203 140.136 443.386 139.025C447.317 137.981 454.358 140.697 456.193 144.456C458.106 148.378 455.377 150.466 452.697 148.691Z" fill="#292B32"/>
<path d="M454.621 150.529C453.777 150.529 452.878 150.249 452.035 149.69C449.028 147.699 445.807 146.558 441.26 145.261C439.618 144.793 438.606 143.598 438.619 142.144C438.633 140.645 439.812 138.735 443.078 137.867C447.33 136.738 455.126 139.53 457.273 143.931C458.638 146.73 457.949 148.754 456.849 149.715C456.229 150.257 455.451 150.529 454.621 150.529ZM453.362 147.693C454.107 148.186 454.855 148.272 455.268 147.912C455.681 147.551 455.888 146.567 455.114 144.981C453.482 141.634 447.014 139.302 443.696 140.184C441.742 140.703 441.025 141.654 441.021 142.166C441.016 142.66 441.708 142.896 441.92 142.956C446.694 144.318 450.096 145.53 453.362 147.693ZM423.656 139.745C419.799 138.946 416.093 139.157 411.637 139.615C408.779 139.909 407.942 136.814 411.411 134.23C414.671 131.802 422.219 131.708 425.322 134.517C428.56 137.447 426.804 140.398 423.656 139.745Z" fill="#292B32"/>
<path d="M424.507 141.034C424.153 141.034 423.786 140.997 423.411 140.919C419.878 140.186 416.464 140.324 411.759 140.808C410.06 140.983 408.676 140.249 408.147 138.895C407.601 137.498 407.983 135.287 410.692 133.269C414.218 130.643 422.495 130.34 426.128 133.629C428.438 135.72 428.553 137.855 427.89 139.156C427.28 140.353 426.011 141.034 424.507 141.034ZM423.9 138.572C424.774 138.753 425.501 138.556 425.75 138.069C425.999 137.58 425.825 136.589 424.516 135.404C421.753 132.904 414.882 133.139 412.128 135.19C410.508 136.397 410.197 137.546 410.384 138.024C410.563 138.483 411.293 138.445 411.513 138.423C416.451 137.915 420.062 137.776 423.9 138.572V138.572Z" fill="#292B32"/>
<path d="M446.158 153.345C446.5 151.697 445.653 150.129 444.267 149.843C442.88 149.556 441.479 150.659 441.137 152.307C440.795 153.954 441.642 155.522 443.028 155.809C444.415 156.096 445.816 154.993 446.158 153.345Z" fill="#292B32"/>
<path d="M419.689 148.455C420.031 146.807 419.184 145.239 417.798 144.952C416.411 144.666 415.01 145.769 414.668 147.417C414.326 149.064 415.173 150.632 416.559 150.919C417.946 151.206 419.347 150.103 419.689 148.455Z" fill="#292B32"/>
<path d="M451.216 169.607C452.725 176.015 443.032 180.763 437.01 174.582L451.216 169.607Z" fill="white"/>
<path d="M443.592 178.657C441.086 178.657 438.402 177.731 436.148 175.417C436.008 175.273 435.906 175.095 435.852 174.901C435.798 174.707 435.794 174.503 435.841 174.307C435.887 174.111 435.982 173.93 436.116 173.78C436.251 173.631 436.422 173.517 436.612 173.451L450.818 168.476C450.977 168.421 451.146 168.399 451.314 168.413C451.482 168.426 451.645 168.475 451.793 168.556C451.941 168.637 452.07 168.748 452.172 168.882C452.273 169.016 452.346 169.169 452.384 169.333C453.136 172.526 451.565 175.714 448.383 177.454C447.012 178.203 445.346 178.657 443.592 178.657V178.657ZM439.41 175.011C442.075 176.726 445.119 176.505 447.23 175.351C448.661 174.569 450.03 173.136 450.163 171.246L439.41 175.011V175.011ZM488.795 172.878C488.534 172.878 488.279 172.793 488.07 172.636C487.862 172.479 487.71 172.258 487.638 172.007C487.567 171.756 487.58 171.488 487.674 171.245C487.769 171.001 487.941 170.796 488.164 170.659L495.212 166.32C495.483 166.157 495.807 166.107 496.115 166.182C496.422 166.256 496.688 166.448 496.854 166.717C497.02 166.986 497.073 167.31 497.002 167.617C496.93 167.925 496.74 168.192 496.472 168.36L489.424 172.699C489.235 172.816 489.018 172.877 488.795 172.878Z" fill="#292B32"/>
<path d="M494.413 174.862C494.189 174.862 493.97 174.8 493.779 174.682C493.589 174.564 493.436 174.395 493.337 174.194L489.236 165.919C489.099 165.635 489.08 165.308 489.183 165.01C489.287 164.712 489.503 164.467 489.786 164.327C490.069 164.187 490.396 164.164 490.696 164.263C490.996 164.362 491.244 164.576 491.388 164.856L495.489 173.132C495.579 173.314 495.622 173.517 495.612 173.721C495.602 173.924 495.541 174.122 495.433 174.295C495.325 174.468 495.175 174.611 494.997 174.71C494.818 174.81 494.618 174.862 494.413 174.862ZM490.665 178.308L486.695 176.565L481.367 183.913L490.946 187.131L490.665 178.308Z" fill="#292B32"/>
<path d="M490.946 188.33C490.818 188.33 490.689 188.309 490.563 188.267L480.984 185.049C480.805 184.989 480.644 184.888 480.511 184.754C480.379 184.62 480.281 184.458 480.223 184.279C480.166 184.1 480.151 183.91 480.181 183.724C480.211 183.539 480.284 183.363 480.394 183.21L485.723 175.863C485.884 175.641 486.116 175.481 486.381 175.409C486.646 175.337 486.928 175.358 487.179 175.469L491.149 177.212C491.356 177.303 491.534 177.451 491.661 177.638C491.787 177.825 491.859 178.045 491.866 178.271L492.147 187.094C492.152 187.254 492.125 187.414 492.067 187.564C492.009 187.714 491.921 187.85 491.809 187.966C491.697 188.081 491.563 188.173 491.415 188.235C491.267 188.298 491.108 188.33 490.947 188.33L490.946 188.33ZM483.296 183.297L489.691 185.445L489.489 179.101L487.099 178.052L483.296 183.297Z" fill="#292B32"/>
<path d="M423.528 110.531C423.274 110.531 423.027 110.451 422.822 110.302C422.617 110.153 422.465 109.944 422.386 109.703C421.712 107.63 420.166 100.605 428.594 97.2C430.109 96.5879 430.822 95.1069 431.725 93.2317C433.489 89.5699 435.904 84.555 446.352 83.9885C447.009 83.954 447.58 84.4592 447.616 85.1201C447.633 85.4375 447.524 85.7487 447.311 85.9853C447.098 86.2219 446.8 86.3645 446.482 86.3817C437.452 86.8713 435.559 90.8021 433.889 94.2701C432.897 96.3305 431.87 98.4613 429.495 99.4212C423.397 101.885 423.854 106.456 424.67 108.962C424.729 109.142 424.744 109.333 424.714 109.52C424.685 109.707 424.611 109.884 424.5 110.037C424.388 110.19 424.242 110.315 424.073 110.401C423.905 110.486 423.718 110.531 423.528 110.531H423.528ZM437.008 200.034C444.614 205.69 466.113 209.32 487.598 194.721V208.534C487.598 208.534 479.039 225.228 454.049 223.872C432.638 222.711 436.119 207.795 436.119 207.795L437.009 200.034L437.008 200.034Z" fill="white"/>
<path d="M456.86 225.147C455.926 225.147 454.969 225.122 453.985 225.068C446.05 224.638 440.446 222.317 437.328 218.171C433.846 213.54 434.783 208.318 434.934 207.599L435.817 199.897C435.841 199.688 435.919 199.488 436.045 199.319C436.171 199.15 436.339 199.017 436.533 198.933C436.726 198.85 436.939 198.818 437.148 198.843C437.358 198.867 437.558 198.946 437.727 199.072C445.686 204.991 466.825 207.386 486.924 193.729C487.104 193.607 487.315 193.535 487.533 193.523C487.751 193.511 487.968 193.559 488.161 193.661C488.354 193.762 488.515 193.915 488.628 194.102C488.74 194.288 488.8 194.502 488.8 194.72V208.533C488.8 208.723 488.755 208.91 488.668 209.079C488.576 209.26 486.342 213.542 480.924 217.664C476.328 221.159 468.527 225.147 456.86 225.147ZM437.982 202.091L437.313 207.931C437.308 207.977 437.3 208.022 437.289 208.067C437.28 208.11 436.264 212.79 439.27 216.76C441.946 220.296 446.941 222.286 454.116 222.675C466.597 223.352 474.736 219.329 479.368 215.834C483.696 212.57 485.865 209.141 486.399 208.223V196.941C474.855 204.237 464.19 206.006 457.128 206.171C448.576 206.368 441.938 204.352 437.983 202.091L437.982 202.091Z" fill="#292B32"/>
<path d="M199.449 216.62C193.021 204.625 190.038 195.24 188.098 188.939C185.292 179.82 198.236 176.614 203.829 187.725C208.474 196.952 214.351 211.579 214.351 211.579" fill="white"/>
<path d="M199.451 217.819C199.234 217.819 199.02 217.761 198.833 217.649C198.647 217.537 198.494 217.377 198.391 217.186C191.683 204.668 188.605 194.665 186.952 189.291C185.673 185.135 187.199 181.507 190.841 180.047C195.063 178.355 201.427 180.282 204.903 187.187C209.517 196.353 215.408 210.987 215.467 211.133C215.585 211.428 215.582 211.758 215.456 212.051C215.331 212.343 215.095 212.574 214.799 212.692C214.504 212.81 214.173 212.806 213.88 212.681C213.587 212.556 213.356 212.32 213.238 212.025C213.179 211.88 207.326 197.339 202.758 188.263C199.925 182.637 194.965 180.977 191.735 182.271C189.302 183.247 188.348 185.667 189.247 188.587C191.503 195.919 194.42 204.693 200.509 216.055C200.607 216.238 200.656 216.443 200.651 216.65C200.646 216.857 200.587 217.059 200.481 217.236C200.374 217.414 200.223 217.561 200.043 217.663C199.862 217.766 199.659 217.819 199.451 217.819V217.819Z" fill="#292B32"/>
<path d="M185.125 225.538C181.546 218.584 173.453 203.16 171.468 198.236C167.194 187.635 182.181 186.895 188.478 197.065C194.775 207.235 199.737 212.95 201.635 217.248" fill="white"/>
<path d="M185.126 226.737C184.906 226.737 184.689 226.676 184.5 226.561C184.312 226.446 184.159 226.282 184.058 226.086C183.38 224.771 182.701 223.456 182.02 222.143C178.046 214.467 172.041 202.866 170.355 198.684C168.674 194.517 169.556 191.078 172.712 189.485C177.211 187.214 185.212 189.511 189.5 196.435C192.397 201.113 195.047 204.898 197.177 207.939C199.784 211.66 201.667 214.349 202.734 216.765C202.8 216.91 202.837 217.066 202.842 217.224C202.847 217.383 202.82 217.541 202.764 217.689C202.707 217.837 202.622 217.973 202.512 218.088C202.403 218.203 202.272 218.295 202.126 218.359C201.981 218.423 201.824 218.458 201.665 218.461C201.506 218.464 201.348 218.435 201.2 218.377C201.052 218.319 200.918 218.232 200.804 218.121C200.69 218.01 200.599 217.878 200.537 217.732C199.565 215.53 197.643 212.786 195.209 209.312C193.062 206.246 190.39 202.431 187.458 197.695C183.668 191.574 176.946 190.034 173.796 191.624C171.121 192.973 171.888 196.066 172.582 197.789C174.226 201.866 180.2 213.406 184.153 221.042C184.921 222.526 185.616 223.868 186.194 224.99C186.288 225.173 186.333 225.377 186.326 225.582C186.318 225.787 186.258 225.987 186.151 226.162C186.044 226.338 185.893 226.482 185.714 226.583C185.535 226.684 185.332 226.737 185.126 226.737Z" fill="#292B32"/>
<path d="M182.643 241.333C181.853 236.757 164.696 218.509 161.043 209.74C158.948 204.711 169.209 197.904 177.701 209.258C184.049 217.745 186.581 219.61 191.314 225.619" fill="white"/>
<path d="M182.64 242.532C182.357 242.531 182.083 242.431 181.867 242.249C181.651 242.067 181.506 241.815 181.458 241.536C181.128 239.62 176.718 233.952 172.454 228.47C167.499 222.1 161.882 214.88 159.933 210.201C158.88 207.673 160.195 204.658 163.058 203.03C166.774 200.918 173.091 201.093 178.661 208.542C182.331 213.447 184.704 216.11 186.999 218.685C188.676 220.566 190.259 222.343 192.256 224.878C192.453 225.128 192.542 225.446 192.505 225.761C192.467 226.077 192.305 226.365 192.054 226.561C191.804 226.758 191.486 226.847 191.17 226.809C190.854 226.771 190.565 226.61 190.368 226.36C188.417 223.882 186.857 222.131 185.205 220.278C182.876 217.665 180.468 214.964 176.737 209.976C172.104 203.78 167.112 203.483 164.246 205.113C162.451 206.134 161.569 207.886 162.15 209.28C163.976 213.664 169.487 220.749 174.35 227C179.957 234.207 183.413 238.745 183.825 241.13C183.854 241.302 183.846 241.479 183.8 241.647C183.754 241.816 183.672 241.973 183.559 242.106C183.446 242.24 183.305 242.347 183.147 242.421C182.988 242.494 182.815 242.532 182.64 242.532L182.64 242.532Z" fill="#292B32"/>
<path d="M229.694 230.559C232.925 221.71 227.863 207.009 226.908 202.041C224.289 188.411 212.458 198.279 213.627 208.941C214.255 214.671 214.535 217.89 214.535 217.89C214.535 217.89 205.382 225.013 212.431 234.883" fill="white"/>
<path d="M212.432 236.081C212.24 236.082 212.051 236.036 211.881 235.948C211.711 235.861 211.564 235.734 211.453 235.578C204.859 226.346 211.34 219.211 213.285 217.394C213.176 216.213 212.9 213.325 212.433 209.071C211.625 201.693 216.439 194.931 220.964 194.252C222.62 194.003 226.632 194.243 228.087 201.815C228.264 202.737 228.602 204.06 228.993 205.591C230.7 212.281 233.557 223.478 230.822 230.97C230.711 231.267 230.488 231.508 230.2 231.641C229.912 231.773 229.583 231.787 229.285 231.679C228.987 231.57 228.744 231.348 228.609 231.062C228.475 230.775 228.459 230.447 228.566 230.149C231.048 223.353 228.305 212.605 226.666 206.183C226.266 204.614 225.92 203.26 225.729 202.267C225.289 199.978 224.13 196.204 221.321 196.623C217.922 197.133 214.18 202.974 214.82 208.811C215.443 214.489 215.729 217.754 215.732 217.787C215.749 217.986 215.716 218.186 215.636 218.369C215.556 218.552 215.432 218.713 215.274 218.836C214.941 219.098 207.129 225.395 213.408 234.187C213.536 234.367 213.612 234.578 213.628 234.797C213.644 235.017 213.599 235.236 213.498 235.432C213.397 235.628 213.245 235.792 213.056 235.906C212.868 236.021 212.652 236.082 212.432 236.082V236.081Z" fill="#292B32"/>
<path d="M336.21 380.291C321.58 377.027 305.168 369.103 298.004 360.269C291.973 352.831 299.135 348.156 309.538 353.774C318.509 358.618 324.423 360.145 324.423 360.145" fill="white"/>
<path d="M336.212 381.49C336.125 381.49 336.037 381.48 335.949 381.461C319.916 377.883 303.929 369.479 297.072 361.023C294.375 357.696 293.853 354.402 295.678 352.21C298.179 349.204 303.979 349.409 310.111 352.72C318.823 357.425 324.667 358.97 324.725 358.985C325.028 359.07 325.286 359.27 325.443 359.542C325.6 359.814 325.644 360.137 325.565 360.44C325.486 360.744 325.291 361.005 325.021 361.167C324.751 361.329 324.429 361.379 324.123 361.306C323.876 361.242 317.964 359.687 308.968 354.828C303.376 351.808 298.978 351.995 297.524 353.742C296.489 354.987 297.017 357.145 298.939 359.515C305.486 367.589 320.92 375.652 336.473 379.122C336.762 379.187 337.016 379.355 337.188 379.595C337.36 379.835 337.438 380.13 337.405 380.423C337.373 380.716 337.233 380.987 337.013 381.184C336.793 381.381 336.508 381.49 336.212 381.49L336.212 381.49Z" fill="#292B32"/>
<path d="M327.667 363.396C318.402 361.037 301.953 352.099 294.336 340.583C289.714 333.597 303.306 328.931 310.69 337.021C316.834 343.75 327.58 345.493 327.58 345.493" fill="white"/>
<path d="M327.668 364.595C327.568 364.595 327.468 364.582 327.37 364.557C318.343 362.259 301.282 353.26 293.334 341.244C291.495 338.465 291.922 335.521 294.446 333.56C298.517 330.398 306.554 330.71 311.578 336.214C317.358 342.545 327.67 344.294 327.774 344.31C328.088 344.362 328.369 344.536 328.555 344.793C328.741 345.051 328.816 345.373 328.765 345.686C328.74 345.842 328.684 345.99 328.601 346.124C328.519 346.258 328.41 346.374 328.282 346.466C328.154 346.558 328.009 346.624 327.856 346.66C327.703 346.696 327.543 346.702 327.388 346.676C326.932 346.602 316.155 344.786 309.803 337.828C305.448 333.058 298.782 333.229 295.921 335.451C294.853 336.28 293.886 337.729 295.337 339.923C302.937 351.412 319.299 360.028 327.964 362.235C328.248 362.307 328.495 362.479 328.66 362.721C328.825 362.962 328.896 363.255 328.86 363.545C328.823 363.835 328.682 364.102 328.463 364.295C328.244 364.488 327.961 364.595 327.668 364.595H327.668Z" fill="#292B32"/>
<path d="M329.206 350.429C315.893 347.345 304.589 332.372 301.29 327.543C297.229 321.598 308.314 313.557 317.93 324.073C326.33 333.258 343.185 334.697 343.185 334.697" fill="white"/>
<path d="M329.208 351.628C329.118 351.628 329.027 351.618 328.935 351.597C314.973 348.363 303.486 332.885 300.298 328.218C298.42 325.47 299.085 321.99 301.915 319.757C305.745 316.733 312.668 316.541 318.817 323.265C326.796 331.991 343.124 333.489 343.288 333.504C343.6 333.537 343.887 333.691 344.086 333.933C344.286 334.175 344.383 334.485 344.356 334.798C344.329 335.11 344.181 335.399 343.943 335.604C343.705 335.808 343.397 335.912 343.083 335.892C342.376 335.831 325.661 334.305 317.044 324.881C311.931 319.29 306.389 319.28 303.404 321.637C301.997 322.748 300.859 324.784 302.282 326.868C304.464 330.061 316.025 346.146 329.478 349.262C329.766 349.328 330.019 349.498 330.189 349.738C330.36 349.979 330.435 350.273 330.402 350.566C330.368 350.859 330.228 351.129 330.008 351.325C329.788 351.521 329.503 351.629 329.208 351.628Z" fill="#292B32"/>
<path d="M382.533 341.916L401.755 345.729C404.502 362.381 401.811 378.119 393.44 392.904L374.941 389.354C383.343 376.104 385.356 360.065 382.534 341.916H382.533Z" fill="white"/>
<path d="M393.439 394.102C393.363 394.102 393.288 394.095 393.212 394.08L374.713 390.531C374.52 390.494 374.34 390.411 374.188 390.289C374.035 390.167 373.915 390.009 373.837 389.83C373.759 389.651 373.727 389.455 373.742 389.261C373.757 389.066 373.82 388.878 373.925 388.713C381.851 376.211 384.279 360.964 381.345 342.099C381.315 341.909 381.332 341.714 381.394 341.531C381.456 341.348 381.561 341.183 381.7 341.05C381.84 340.917 382.009 340.819 382.195 340.765C382.38 340.711 382.576 340.702 382.766 340.74L401.987 344.553C402.227 344.601 402.446 344.72 402.616 344.895C402.786 345.07 402.898 345.293 402.938 345.534C405.738 362.505 402.894 378.641 394.484 393.493C394.379 393.678 394.227 393.831 394.044 393.938C393.86 394.045 393.652 394.102 393.439 394.102L393.439 394.102ZM376.866 388.503L392.813 391.563C400.489 377.645 403.14 362.575 400.699 346.741L383.967 343.422C385.188 352.157 385.244 360.3 384.132 367.65C382.979 375.269 380.536 382.275 376.866 388.503Z" fill="#292B32"/>
<path d="M232.275 237.55L239.934 255.022C238.916 268.318 220.26 278.994 196.547 275.487L188.855 258.319C210.753 262.796 230.758 251.944 232.275 237.55H232.275Z" fill="white"/>
<path d="M205.507 277.352C202.518 277.352 199.458 277.129 196.37 276.672C196.171 276.642 195.982 276.563 195.821 276.442C195.66 276.32 195.533 276.16 195.45 275.976L187.759 258.808C187.669 258.606 187.636 258.384 187.664 258.166C187.692 257.947 187.78 257.74 187.918 257.568C188.056 257.396 188.239 257.266 188.447 257.191C188.655 257.116 188.879 257.1 189.096 257.144C201.319 259.644 213.73 257.4 222.295 251.14C227.423 247.393 230.543 242.522 231.08 237.424C231.108 237.161 231.222 236.915 231.404 236.723C231.587 236.532 231.828 236.406 232.09 236.366C232.352 236.325 232.619 236.372 232.852 236.499C233.084 236.627 233.267 236.827 233.374 237.069L241.033 254.542C241.112 254.722 241.145 254.918 241.13 255.113C240.734 260.284 237.928 265.086 233.015 269.001C226.215 274.419 216.331 277.352 205.507 277.352ZM197.372 274.393C210.755 276.229 223.481 273.531 231.517 267.127C235.8 263.714 238.283 259.603 238.711 255.223L232.662 241.423C231.232 245.79 228.149 249.833 223.714 253.074C215.145 259.336 203.016 261.829 190.88 259.904L197.372 274.393V274.393Z" fill="#292B32"/>
</g>
<g clip-path="url(#clip3_2086_4616)">
<path d="M452.881 315.334C452.64 320.823 458.915 326.253 458.097 343.461C421.291 347.393 410.982 333.824 397.602 344.888C391.378 343.769 381.531 341.832 373.574 339.953C373.574 339.953 376.024 320.11 380.229 309.835C384.433 299.559 453.261 306.669 452.881 315.334L452.881 315.334Z" fill="white"/>
<path d="M397.603 346.088C397.532 346.088 397.46 346.081 397.389 346.069C391.331 344.98 381.386 343.031 373.297 341.121C373.009 341.053 372.756 340.881 372.587 340.638C372.417 340.396 372.344 340.1 372.38 339.807C372.481 338.99 374.898 319.686 379.115 309.381C380.692 305.525 388.643 303.566 402.746 303.556H402.844C414.459 303.556 428.137 304.968 438.569 307.246C443.163 308.249 446.8 309.352 449.379 310.524C452.624 311.997 454.162 313.588 454.083 315.387C454.008 317.114 454.729 318.988 455.643 321.362C457.412 325.958 459.835 332.254 459.299 343.518C459.286 343.804 459.17 344.076 458.973 344.284C458.776 344.493 458.511 344.624 458.226 344.655C440.84 346.512 429.147 344.474 420.608 342.986C410.916 341.297 405.064 340.277 398.371 345.812C398.153 345.992 397.881 346.088 397.603 346.088L397.603 346.088ZM374.909 339.033C382.504 340.795 391.477 342.559 397.273 343.609C404.642 337.766 411.197 338.909 421.022 340.621C429.249 342.055 440.454 344.008 456.936 342.375C457.257 332.255 455.034 326.477 453.396 322.221C452.382 319.587 451.581 317.507 451.679 315.282C451.72 314.351 448.925 311.964 438.054 309.59C427.935 307.38 414.123 305.956 402.84 305.956H402.747C388.269 305.966 382.197 308.2 381.343 310.288C377.8 318.946 375.485 334.79 374.909 339.033Z" fill="#292B32"/>
<path d="M399.381 270.625C396.681 262.428 386.379 255.158 384.302 256.194C382.225 257.229 376.864 274.087 378.153 279.96" fill="#00B2FF"/>
<path d="M378.152 281.16C377.877 281.159 377.612 281.066 377.398 280.894C377.185 280.722 377.036 280.483 376.978 280.216C376.104 276.238 377.966 268.905 378.807 265.936C379.453 263.656 381.72 256.14 383.764 255.12C384.507 254.75 385.512 254.837 386.836 255.387C390.999 257.118 398.27 263.406 400.524 270.249C400.575 270.399 400.596 270.558 400.585 270.716C400.574 270.874 400.532 271.029 400.461 271.17C400.39 271.312 400.291 271.439 400.171 271.542C400.051 271.646 399.911 271.724 399.76 271.774C399.609 271.823 399.45 271.843 399.291 271.83C399.133 271.818 398.979 271.775 398.837 271.702C398.695 271.63 398.57 271.531 398.467 271.41C398.364 271.289 398.286 271.149 398.238 270.998C397.172 267.763 394.596 264.176 391.17 261.157C388.025 258.386 385.541 257.291 384.835 257.291H384.833C384.155 257.974 382.518 261.566 381.025 266.939C379.475 272.517 378.825 277.408 379.328 279.702C379.367 279.878 379.365 280.059 379.324 280.234C379.283 280.409 379.203 280.572 379.09 280.712C378.977 280.852 378.834 280.964 378.672 281.042C378.509 281.119 378.332 281.159 378.152 281.159V281.16Z" fill="#292B32"/>
<path d="M385.493 262.769C386.514 264.255 393.158 271.082 393.361 272.315C393.565 273.548 384.202 277.297 382.99 277.839C381.779 278.381 384.832 261.807 385.493 262.769Z" fill="white"/>
<path d="M382.939 279.051C382.456 279.051 381.996 278.783 381.751 278.315C381.57 277.971 381.091 277.055 382.388 269.749C383.7 262.355 384.346 261.968 384.773 261.712C385.36 261.361 386.096 261.524 386.485 262.09C386.819 262.576 388.039 263.938 389.219 265.255C393.079 269.565 394.39 271.161 394.549 272.12C394.773 273.481 393.839 274.561 384.33 278.573C383.935 278.739 383.639 278.864 383.483 278.934C383.312 279.011 383.127 279.051 382.939 279.051ZM385.82 265.052C385.104 267.877 384.088 273.522 383.92 276.139C389.295 273.854 391.27 272.744 391.971 272.212C391.192 271.06 388.793 268.381 387.425 266.854C386.887 266.256 386.352 265.655 385.82 265.052Z" fill="#292B32"/>
<path d="M424.596 321.898C413.353 324.562 399.425 324.87 384.086 321.776C357.115 316.336 360.663 289.226 385.734 274.654C403.242 264.479 435.534 266.912 446.973 279.343C451.37 284.122 454.63 291.804 452.88 315.334" fill="white"/>
<path d="M405.566 325.201C398.582 325.201 391.278 324.451 383.848 322.952C372.73 320.71 365.823 314.755 364.4 306.185C363.499 300.757 364.934 294.824 368.551 289.027C372.247 283.102 377.98 277.773 385.129 273.617C403.206 263.111 436.037 265.683 447.86 278.531C452.839 283.943 455.802 292.287 454.081 315.423C454.07 315.58 454.027 315.733 453.956 315.874C453.885 316.015 453.787 316.141 453.667 316.244C453.548 316.347 453.409 316.425 453.258 316.474C453.108 316.523 452.95 316.542 452.792 316.53C452.474 316.507 452.178 316.358 451.97 316.117C451.761 315.876 451.658 315.562 451.681 315.245C453.436 291.655 450.03 284.439 446.087 280.154C440.92 274.539 430.622 270.637 418.539 269.717C406.401 268.792 394.367 271.026 386.342 275.691C372.942 283.478 365.078 295.576 366.775 305.793C368.022 313.31 374.256 318.569 384.326 320.6C398.653 323.491 412.483 323.536 424.318 320.731C424.472 320.694 424.632 320.688 424.788 320.713C424.944 320.738 425.093 320.794 425.228 320.876C425.362 320.959 425.479 321.067 425.572 321.195C425.664 321.323 425.731 321.467 425.767 321.621C425.804 321.774 425.81 321.933 425.784 322.088C425.759 322.244 425.704 322.393 425.621 322.527C425.538 322.661 425.429 322.778 425.301 322.87C425.173 322.963 425.028 323.029 424.875 323.065C418.868 324.489 412.37 325.2 405.566 325.2L405.566 325.201Z" fill="#292B32"/>
<mask id="mask0_2086_4616" style="mask-type:luminance" maskUnits="userSpaceOnUse" x="365" y="268" width="89" height="56">
<path d="M424.596 321.898C413.353 324.562 399.425 324.87 384.086 321.776C357.115 316.336 360.663 289.226 385.734 274.654C403.242 264.479 435.534 266.912 446.973 279.343C451.37 284.122 454.63 291.804 452.88 315.334" fill="white"/>
</mask>
<g mask="url(#mask0_2086_4616)">
<path d="M457.257 304.107C466.224 285.28 446.45 252.175 423.394 261.537C407.643 267.933 405.401 289.929 414.802 301.182C429.614 318.909 454.007 310.931 457.257 304.107ZM400.41 262.769C389.582 252.989 367.252 269.694 367.696 281.383C368.205 294.764 385.354 289.88 394.397 284.121C408.644 275.049 404.334 266.314 400.41 262.769L400.41 262.769Z" fill="#00B2FF"/>
</g>
<path d="M405.566 325.201C398.582 325.201 391.278 324.451 383.848 322.952C372.73 320.71 365.823 314.755 364.4 306.185C363.499 300.757 364.934 294.824 368.551 289.027C372.247 283.102 377.98 277.773 385.129 273.617C403.206 263.111 436.037 265.683 447.86 278.531C452.839 283.943 455.802 292.287 454.081 315.423C454.07 315.58 454.027 315.733 453.956 315.874C453.885 316.015 453.787 316.141 453.667 316.244C453.548 316.347 453.409 316.425 453.258 316.474C453.108 316.523 452.95 316.542 452.792 316.53C452.474 316.507 452.178 316.358 451.97 316.117C451.761 315.876 451.658 315.562 451.681 315.245C453.436 291.655 450.03 284.439 446.087 280.154C440.92 274.539 430.622 270.637 418.539 269.717C406.401 268.792 394.367 271.026 386.342 275.691C372.942 283.478 365.078 295.576 366.775 305.793C368.022 313.31 374.256 318.569 384.326 320.6C398.653 323.491 412.483 323.536 424.318 320.731C424.472 320.694 424.632 320.688 424.788 320.713C424.944 320.738 425.093 320.794 425.228 320.876C425.362 320.959 425.479 321.067 425.572 321.195C425.664 321.323 425.731 321.467 425.767 321.621C425.804 321.774 425.81 321.933 425.784 322.088C425.759 322.244 425.704 322.393 425.621 322.527C425.538 322.661 425.429 322.778 425.301 322.87C425.173 322.963 425.028 323.029 424.875 323.065C418.868 324.489 412.37 325.2 405.566 325.2L405.566 325.201Z" fill="#292B32"/>
<path d="M428.252 272.991C434.391 262.851 449.022 252.9 451.307 255.385C453.591 257.871 454.215 282.108 451.307 286.249L452.083 289.629" fill="#00B2FF"/>
<path d="M452.081 290.83C451.809 290.829 451.545 290.737 451.332 290.567C451.119 290.398 450.97 290.162 450.909 289.897L450.133 286.516C450.096 286.353 450.093 286.183 450.125 286.018C450.158 285.854 450.224 285.698 450.321 285.56C451.435 283.973 452.131 277.838 452.051 270.292C451.963 261.98 451.047 257.027 450.44 256.222C449.753 255.957 446.466 257.012 441.399 260.818C436.376 264.593 431.846 269.375 429.281 273.611C429.201 273.749 429.094 273.869 428.967 273.965C428.839 274.062 428.694 274.131 428.539 274.171C428.384 274.211 428.223 274.219 428.065 274.196C427.907 274.173 427.755 274.118 427.618 274.036C427.482 273.954 427.363 273.845 427.268 273.716C427.174 273.587 427.107 273.441 427.07 273.286C427.033 273.131 427.027 272.97 427.053 272.813C427.079 272.656 427.137 272.505 427.222 272.37C432.533 263.597 444.605 254.334 449.739 253.823C451.074 253.69 451.811 254.159 452.193 254.575C454.204 256.762 454.431 267.96 454.456 270.183C454.49 273.189 454.446 282.885 452.586 286.448L453.255 289.362C453.295 289.538 453.295 289.72 453.255 289.896C453.215 290.072 453.135 290.237 453.023 290.378C452.91 290.519 452.767 290.633 452.604 290.711C452.441 290.789 452.262 290.83 452.081 290.83Z" fill="#292B32"/>
<path d="M423.136 294.732C423.238 293.051 422.173 291.618 420.757 291.532C419.34 291.446 418.109 292.739 418.006 294.421C417.904 296.103 418.969 297.536 420.385 297.622C421.802 297.708 423.033 296.414 423.136 294.732Z" fill="#292B32"/>
<path d="M391.228 294.732C391.33 293.051 390.265 291.618 388.849 291.532C387.432 291.446 386.201 292.739 386.098 294.421C385.995 296.103 387.06 297.536 388.477 297.622C389.893 297.708 391.125 296.414 391.228 294.732Z" fill="#292B32"/>
<path d="M403.809 301.426C403.876 300.328 402.136 299.329 399.922 299.195C397.708 299.06 395.858 299.841 395.791 300.939C395.724 302.036 397.465 303.035 399.679 303.17C401.893 303.304 403.742 302.523 403.809 301.426Z" fill="#292B32"/>
<path d="M399.801 308.233C399.482 308.233 399.176 308.106 398.95 307.881C398.724 307.656 398.598 307.351 398.598 307.033V301.182C398.598 300.864 398.724 300.559 398.95 300.334C399.176 300.109 399.482 299.982 399.801 299.982C400.12 299.982 400.426 300.109 400.652 300.334C400.877 300.559 401.004 300.864 401.004 301.182V307.033C401.004 307.351 400.877 307.656 400.652 307.881C400.426 308.106 400.12 308.233 399.801 308.233Z" fill="#292B32"/>
<path d="M400.736 308.528C398.614 308.528 396.619 308.172 394.991 307.635C394.841 307.585 394.702 307.507 394.583 307.404C394.463 307.301 394.365 307.175 394.294 307.035C394.223 306.894 394.181 306.74 394.169 306.583C394.158 306.426 394.177 306.268 394.227 306.119C394.277 305.969 394.355 305.831 394.459 305.711C394.562 305.592 394.688 305.494 394.829 305.424C394.97 305.353 395.124 305.311 395.281 305.299C395.439 305.288 395.597 305.307 395.747 305.357C399.418 306.568 405.214 306.726 409.474 303.186C409.595 303.082 409.736 303.003 409.887 302.954C410.039 302.905 410.199 302.887 410.358 302.9C410.517 302.913 410.672 302.958 410.813 303.031C410.955 303.105 411.08 303.206 411.182 303.328C411.285 303.45 411.361 303.591 411.408 303.743C411.455 303.895 411.471 304.055 411.456 304.213C411.44 304.372 411.393 304.525 411.317 304.665C411.241 304.805 411.139 304.929 411.014 305.029C407.916 307.603 404.159 308.528 400.736 308.528Z" fill="#292B32"/>
<path d="M435.092 274.207C436.744 271.131 445.857 263.332 446.973 262.783C448.09 262.234 448.39 277.559 446.973 279.343C445.556 281.127 435.092 274.207 435.092 274.207Z" fill="white"/>
<path d="M446.191 280.834C444.845 280.834 442.847 280.074 439.929 278.499C437.12 276.984 434.535 275.278 434.427 275.206C434.177 275.041 433.998 274.789 433.925 274.499C433.852 274.209 433.89 273.903 434.032 273.64C435.83 270.292 445.059 262.386 446.441 261.706C447.016 261.424 447.684 261.579 448.102 262.095C448.998 263.202 449.131 268.092 449.13 270.909C449.129 274.401 448.918 278.827 447.917 280.088C447.524 280.582 446.966 280.834 446.192 280.834H446.191ZM436.765 273.861C440.861 276.472 444.867 278.447 446.09 278.447H446.106C446.849 276.695 446.86 267.991 446.416 264.656C444.032 266.554 438.789 271.228 436.765 273.861Z" fill="#292B32"/>
<path d="M431.071 300.954C430.788 300.954 430.513 300.854 430.296 300.672C430.079 300.491 429.934 300.238 429.885 299.96C429.836 299.682 429.888 299.395 430.03 299.151C430.172 298.907 430.397 298.72 430.663 298.625L445.554 293.281C445.703 293.226 445.861 293.201 446.02 293.207C446.179 293.213 446.335 293.251 446.479 293.318C446.623 293.385 446.753 293.479 446.86 293.596C446.967 293.713 447.05 293.85 447.104 294C447.158 294.149 447.181 294.307 447.174 294.465C447.166 294.624 447.126 294.779 447.058 294.922C446.99 295.065 446.894 295.193 446.775 295.299C446.657 295.405 446.519 295.486 446.369 295.539L431.478 300.883C431.348 300.93 431.21 300.954 431.071 300.954ZM432.733 304.918C432.425 304.919 432.128 304.801 431.904 304.589C431.68 304.377 431.547 304.088 431.531 303.781C431.515 303.473 431.618 303.172 431.818 302.938C432.019 302.704 432.302 302.556 432.609 302.525L442.232 301.517C442.547 301.486 442.862 301.582 443.108 301.782C443.354 301.982 443.51 302.271 443.543 302.586C443.577 302.901 443.484 303.216 443.285 303.462C443.086 303.709 442.798 303.868 442.483 303.903L432.86 304.912C432.818 304.916 432.776 304.918 432.733 304.918L432.733 304.918ZM443.996 312.176C443.875 312.176 443.752 312.158 443.629 312.119L431.265 308.175C431.115 308.127 430.975 308.05 430.855 307.949C430.734 307.847 430.635 307.722 430.562 307.582C430.49 307.442 430.446 307.289 430.433 307.132C430.42 306.975 430.438 306.817 430.486 306.667C430.534 306.517 430.611 306.378 430.713 306.258C430.816 306.137 430.94 306.038 431.081 305.966C431.221 305.894 431.375 305.85 431.532 305.837C431.69 305.824 431.848 305.842 431.999 305.89L444.362 309.834C444.636 309.921 444.869 310.102 445.02 310.346C445.171 310.589 445.23 310.879 445.186 311.162C445.142 311.445 444.997 311.703 444.779 311.889C444.561 312.075 444.283 312.177 443.996 312.177L443.996 312.176Z" fill="#292B32"/>
<path d="M357.595 309.007C357.298 309.007 357.011 308.898 356.79 308.7C356.568 308.501 356.428 308.228 356.397 307.933C356.366 307.638 356.446 307.342 356.62 307.102C356.795 306.862 357.053 306.695 357.344 306.633L370.084 303.91C370.396 303.843 370.722 303.903 370.99 304.075C371.258 304.248 371.446 304.52 371.513 304.831C371.58 305.143 371.52 305.468 371.347 305.735C371.174 306.002 370.901 306.19 370.589 306.256L357.849 308.98C357.764 308.998 357.679 309.007 357.595 309.007ZM370.338 302.789C370.264 302.789 370.188 302.783 370.113 302.768L360.375 300.933C360.218 300.905 360.068 300.847 359.934 300.762C359.8 300.676 359.684 300.564 359.593 300.434C359.502 300.303 359.439 300.156 359.405 300C359.372 299.845 359.371 299.684 359.4 299.528C359.43 299.372 359.49 299.223 359.578 299.09C359.666 298.958 359.779 298.844 359.911 298.755C360.044 298.666 360.192 298.605 360.349 298.574C360.505 298.543 360.666 298.543 360.822 298.575L370.56 300.411C370.854 300.466 371.117 300.629 371.297 300.868C371.477 301.106 371.562 301.403 371.534 301.701C371.506 301.998 371.368 302.274 371.147 302.476C370.926 302.677 370.637 302.789 370.338 302.789ZM372.146 299.21C371.968 299.21 371.792 299.17 371.632 299.094L359.092 293.163C358.806 293.025 358.587 292.78 358.482 292.482C358.377 292.183 358.394 291.855 358.53 291.57C358.666 291.284 358.91 291.063 359.208 290.955C359.506 290.848 359.835 290.862 360.123 290.995L372.663 296.926C372.91 297.043 373.11 297.24 373.229 297.485C373.349 297.73 373.382 298.008 373.322 298.274C373.261 298.54 373.112 298.778 372.899 298.948C372.685 299.118 372.42 299.21 372.146 299.21Z" fill="#292B32"/>
<path d="M428.541 332.622C421.912 332.622 417.118 342.081 419.288 351.612C422.05 363.745 434.893 359.889 436.274 352.315C437.655 344.74 439.177 344.003 439.177 344.003L441.333 344.175" fill="white"/>
<path d="M427.413 360.6C422.829 360.6 419.361 357.356 418.114 351.878C416.749 345.884 417.985 339.367 421.261 335.276C423.251 332.79 425.836 331.422 428.54 331.422C428.859 331.422 429.165 331.548 429.391 331.773C429.617 331.998 429.743 332.304 429.743 332.622C429.743 332.94 429.617 333.245 429.391 333.47C429.165 333.695 428.859 333.822 428.54 333.822C426.031 333.822 424.22 335.427 423.141 336.773C420.304 340.317 419.252 346.037 420.461 351.347C421.47 355.777 424.069 358.268 427.573 358.199C431.119 358.122 434.491 355.386 435.09 352.1C436.387 344.989 437.878 343.299 438.651 342.924C438.844 342.83 439.058 342.79 439.272 342.807L441.428 342.979C441.586 342.991 441.739 343.035 441.88 343.106C442.021 343.178 442.146 343.277 442.248 343.397C442.351 343.517 442.428 343.656 442.477 343.805C442.526 343.955 442.544 344.113 442.532 344.27C442.478 344.931 441.893 345.422 441.236 345.371L439.656 345.245C439.257 345.841 438.348 347.645 437.457 352.529C436.651 356.952 432.332 360.496 427.625 360.598C427.554 360.599 427.483 360.6 427.413 360.6L427.413 360.6Z" fill="#292B32"/>
<path d="M424.901 360.178C424.61 360.177 424.329 360.072 424.109 359.88C423.89 359.689 423.748 359.424 423.71 359.137L422.796 352.314C422.753 351.999 422.839 351.679 423.032 351.426C423.226 351.174 423.513 351.008 423.829 350.966C424.145 350.923 424.466 351.008 424.719 351.202C424.973 351.395 425.139 351.681 425.181 351.996L426.095 358.819C426.118 358.988 426.104 359.161 426.055 359.325C426.005 359.488 425.921 359.64 425.808 359.769C425.695 359.897 425.555 360 425.399 360.071C425.242 360.142 425.073 360.178 424.901 360.178ZM429.821 360.178C429.529 360.177 429.248 360.072 429.029 359.88C428.81 359.689 428.668 359.424 428.629 359.137L427.716 352.314C427.673 351.999 427.758 351.679 427.952 351.426C428.146 351.174 428.432 351.008 428.749 350.966C429.065 350.923 429.385 351.008 429.639 351.202C429.892 351.395 430.059 351.681 430.101 351.996L431.015 358.819C431.038 358.988 431.024 359.161 430.974 359.325C430.925 359.488 430.84 359.64 430.727 359.769C430.614 359.897 430.475 360 430.318 360.071C430.162 360.142 429.992 360.178 429.821 360.178Z" fill="#292B32"/>
<path d="M379.364 341.233C379.985 329.928 392.978 328.191 398.629 331.948C402.47 334.501 403.623 338.705 403.623 341.524C403.623 348.026 389.673 349.918 386.715 342.802L379.364 341.233Z" fill="white"/>
<path d="M394.926 348.539C391.328 348.539 387.593 347.185 385.876 343.85L379.112 342.406C378.831 342.347 378.582 342.189 378.407 341.962C378.233 341.735 378.146 341.453 378.162 341.168C378.426 336.371 380.839 332.598 384.956 330.543C389.5 328.276 395.531 328.446 399.296 330.949C403.373 333.66 404.826 338.189 404.826 341.524C404.826 344.762 402.028 347.409 397.699 348.269C396.811 348.445 395.873 348.539 394.926 348.539ZM380.66 340.283L386.966 341.629C387.157 341.669 387.335 341.755 387.485 341.88C387.634 342.004 387.752 342.163 387.826 342.343C389.198 345.641 393.594 346.637 397.229 345.915C399.623 345.44 402.419 344.005 402.419 341.524C402.419 338.81 401.248 335.131 397.961 332.946C394.92 330.924 389.792 330.814 386.033 332.689C383.855 333.776 381.238 335.964 380.66 340.283H380.66Z" fill="#292B32"/>
<path d="M400.409 347.027C400.154 347.027 399.906 346.946 399.701 346.796C399.495 346.647 399.342 346.436 399.264 346.194L396.971 339.08C396.922 338.93 396.904 338.772 396.917 338.615C396.93 338.458 396.973 338.305 397.046 338.165C397.118 338.024 397.217 337.9 397.337 337.798C397.458 337.696 397.597 337.619 397.748 337.57C397.898 337.522 398.057 337.504 398.214 337.517C398.372 337.529 398.525 337.573 398.666 337.645C398.806 337.717 398.931 337.816 399.033 337.936C399.136 338.056 399.213 338.195 399.261 338.346L401.555 345.46C401.613 345.64 401.627 345.831 401.597 346.017C401.567 346.204 401.493 346.381 401.382 346.534C401.27 346.687 401.124 346.811 400.955 346.897C400.786 346.982 400.599 347.027 400.409 347.027H400.409ZM395.544 347.893C395.289 347.893 395.041 347.812 394.835 347.663C394.629 347.513 394.476 347.302 394.398 347.06L392.105 339.946C392.056 339.796 392.038 339.638 392.051 339.481C392.064 339.324 392.107 339.171 392.18 339.031C392.252 338.891 392.351 338.766 392.471 338.664C392.592 338.562 392.731 338.485 392.882 338.437C393.032 338.388 393.191 338.37 393.348 338.383C393.506 338.396 393.659 338.439 393.8 338.511C393.94 338.583 394.065 338.682 394.167 338.803C394.27 338.923 394.347 339.062 394.395 339.212L396.689 346.326C396.747 346.506 396.762 346.697 396.732 346.884C396.702 347.071 396.628 347.248 396.516 347.4C396.404 347.553 396.258 347.677 396.089 347.763C395.92 347.849 395.733 347.893 395.543 347.893H395.544Z" fill="#292B32"/>
</g>
<g clip-path="url(#clip4_2086_4616)">
<path d="M346.78 394.023L261.474 389.953C259.847 353.342 253.437 316.554 242.482 279.6L327.789 283.67C338.757 319.348 345.191 356.108 346.781 394.023H346.78Z" fill="#00B2FF"/>
<path d="M346.781 395.224C346.762 395.224 346.743 395.223 346.724 395.222L261.417 391.153C261.118 391.138 260.836 391.013 260.625 390.801C260.414 390.589 260.289 390.306 260.276 390.007C258.675 353.974 252.301 316.942 241.333 279.941C241.278 279.758 241.269 279.564 241.304 279.375C241.34 279.187 241.421 279.01 241.539 278.86C241.657 278.709 241.809 278.588 241.983 278.509C242.158 278.429 242.348 278.392 242.539 278.401L327.846 282.471C328.093 282.483 328.329 282.57 328.524 282.722C328.719 282.873 328.863 283.081 328.935 283.317C340.003 319.319 346.41 356.549 347.979 393.973C347.986 394.135 347.96 394.296 347.902 394.448C347.845 394.599 347.758 394.737 347.646 394.854C347.534 394.971 347.4 395.064 347.251 395.127C347.103 395.191 346.943 395.224 346.781 395.224ZM262.622 388.807L345.526 392.762C343.884 356.264 337.617 319.964 326.89 284.828L244.109 280.879C254.731 317.153 260.957 353.451 262.622 388.807Z" fill="#292B32"/>
<path d="M342.899 398.4L257.496 398.234C254.199 361.735 246.117 325.279 233.486 288.864L293.519 288.98C301.909 289.058 323.947 304.516 325.132 308.501C334.675 340.592 339.919 364.448 342.9 398.4L342.899 398.4Z" fill="#292B32"/>
<path d="M342.9 399.6H342.897L257.494 399.434C257.195 399.434 256.907 399.321 256.687 399.119C256.466 398.917 256.329 398.64 256.302 398.342C253.057 362.419 244.999 325.717 232.353 289.257C232.291 289.076 232.272 288.883 232.299 288.694C232.326 288.504 232.398 288.324 232.509 288.168C232.62 288.012 232.767 287.885 232.937 287.797C233.107 287.71 233.295 287.664 233.486 287.664H233.489L293.521 287.781C299.143 287.832 308.793 293.735 312.682 296.27C317.319 299.293 325.401 305.199 326.281 308.159C335.177 338.077 340.944 362.417 344.094 398.296C344.109 398.461 344.089 398.628 344.035 398.786C343.982 398.944 343.896 399.088 343.784 399.211C343.672 399.334 343.535 399.432 343.383 399.499C343.231 399.566 343.066 399.601 342.9 399.6V399.6ZM258.591 397.036L341.589 397.198C338.432 362.234 332.726 338.249 323.982 308.843C323.634 307.672 319.386 303.505 311.372 298.281C303.757 293.316 296.912 290.212 293.507 290.181L235.17 290.067C247.436 325.817 255.313 361.792 258.59 397.037L258.591 397.036Z" fill="#292B32"/>
<path d="M293.518 288.98C300.329 294.914 302.903 302.865 304.641 307.598C304.641 307.598 316.449 304.145 325.131 308.501C322.584 303.683 303.56 289.625 293.518 288.98Z" fill="#00B2FF"/>
<path d="M325.131 309.701C324.944 309.701 324.76 309.657 324.593 309.574C316.446 305.486 305.09 308.717 304.976 308.75C304.685 308.835 304.372 308.806 304.1 308.669C303.829 308.532 303.62 308.297 303.515 308.012C303.406 307.714 303.293 307.404 303.176 307.082C301.466 302.368 298.882 295.244 292.73 289.886C292.541 289.721 292.408 289.501 292.351 289.257C292.293 289.012 292.313 288.756 292.409 288.524C292.503 288.291 292.668 288.094 292.881 287.961C293.094 287.828 293.344 287.766 293.594 287.783C303.936 288.447 323.398 302.658 326.191 307.94C326.287 308.122 326.335 308.327 326.329 308.534C326.323 308.741 326.264 308.943 326.157 309.12C326.051 309.297 325.9 309.444 325.72 309.545C325.54 309.647 325.337 309.701 325.13 309.701H325.131ZM297.149 290.906C301.719 296.089 303.884 302 305.395 306.164C308.004 305.546 314.81 304.268 321.314 305.853C319.073 303.705 315.665 300.956 311.473 298.176C306.093 294.609 301.089 292.084 297.149 290.906Z" fill="#292B32"/>
</g>
<g clip-path="url(#clip5_2086_4616)">
<path d="M362.351 336.454C371.604 338.683 382.61 341.194 394.304 343.387L386.13 390.707C367.283 387.274 349.624 383.01 336.096 379.459C309.49 371.844 315.78 337.737 336.096 334.472" fill="white"/>
<path d="M386.13 391.908C386.057 391.908 385.985 391.901 385.914 391.889C370.317 389.048 353.454 385.257 335.792 380.621C321.28 376.469 316.712 365.054 317.267 355.755C317.584 350.453 319.51 345.304 322.69 341.255C326.126 336.879 330.696 334.124 335.905 333.287C336.218 333.24 336.536 333.319 336.791 333.506C337.046 333.692 337.217 333.972 337.267 334.284C337.318 334.596 337.243 334.916 337.059 335.173C336.875 335.43 336.598 335.605 336.286 335.658C326.069 337.3 320.19 347.083 319.664 355.898C319.164 364.268 323.305 374.55 336.426 378.305C353.555 382.801 369.95 386.502 385.153 389.307L392.919 344.348C383.481 342.556 373.64 340.41 362.07 337.622C361.764 337.544 361.501 337.349 361.338 337.078C361.175 336.808 361.125 336.484 361.199 336.177C361.273 335.87 361.464 335.604 361.733 335.438C362.001 335.271 362.324 335.217 362.632 335.287C374.638 338.18 384.772 340.378 394.524 342.207C394.834 342.265 395.109 342.443 395.289 342.702C395.469 342.961 395.54 343.281 395.486 343.592L387.313 390.912C387.264 391.191 387.119 391.444 386.903 391.626C386.687 391.808 386.413 391.909 386.13 391.909L386.13 391.908Z" fill="#292B32"/>
<path d="M336.096 379.459C321.467 376.188 305.056 368.247 297.893 359.394C291.862 351.94 299.023 347.255 309.425 352.885C318.396 357.74 324.31 359.27 324.31 359.27" fill="white"/>
<path d="M336.096 380.661C336.01 380.661 335.921 380.652 335.833 380.631C319.801 377.046 303.815 368.624 296.959 360.149C294.262 356.815 293.74 353.514 295.564 351.317C298.065 348.305 303.865 348.51 309.996 351.828C318.708 356.543 324.552 358.092 324.61 358.107C324.918 358.187 325.182 358.386 325.343 358.661C325.505 358.935 325.551 359.263 325.471 359.571C325.39 359.879 325.191 360.143 324.917 360.304C324.643 360.466 324.316 360.512 324.008 360.433C323.761 360.368 317.849 358.81 308.854 353.941C303.262 350.915 298.864 351.102 297.411 352.852C296.375 354.1 296.904 356.263 298.825 358.638C305.372 366.729 320.806 374.81 336.358 378.287C336.511 378.322 336.657 378.386 336.786 378.477C336.915 378.568 337.025 378.683 337.109 378.816C337.194 378.949 337.251 379.098 337.278 379.253C337.305 379.408 337.301 379.568 337.267 379.721C337.207 379.988 337.059 380.226 336.846 380.396C336.634 380.567 336.369 380.66 336.097 380.661L336.096 380.661Z" fill="#292B32"/>
<path d="M327.554 362.528C318.289 360.164 301.841 351.206 294.224 339.666C289.603 332.665 303.194 327.989 310.578 336.096C316.721 342.84 327.467 344.586 327.467 344.586" fill="white"/>
<path d="M327.555 363.729C327.456 363.729 327.356 363.717 327.257 363.691C318.23 361.388 301.171 352.369 293.222 340.328C291.384 337.543 291.81 334.592 294.335 332.627C298.406 329.458 306.442 329.772 311.466 335.287C317.245 341.632 327.556 343.384 327.66 343.401C327.974 343.452 328.255 343.626 328.441 343.885C328.627 344.143 328.702 344.465 328.651 344.78C328.626 344.935 328.571 345.084 328.488 345.219C328.405 345.353 328.296 345.469 328.169 345.561C328.041 345.654 327.896 345.72 327.742 345.756C327.589 345.792 327.43 345.797 327.274 345.772C326.819 345.698 316.043 343.878 309.691 336.905C305.336 332.124 298.671 332.295 295.809 334.523C294.742 335.354 293.775 336.805 295.226 339.004C302.826 350.518 319.186 359.153 327.851 361.364C328.134 361.436 328.382 361.609 328.547 361.851C328.712 362.093 328.783 362.387 328.746 362.677C328.71 362.968 328.569 363.235 328.35 363.429C328.13 363.622 327.848 363.729 327.555 363.729L327.555 363.729Z" fill="#292B32"/>
<path d="M329.091 349.533C315.779 346.443 304.475 331.437 301.176 326.598C297.115 320.64 308.2 312.581 317.816 323.12C326.215 332.325 343.069 333.767 343.069 333.767" fill="white"/>
<path d="M329.093 350.734C329.003 350.734 328.911 350.724 328.82 350.703C314.858 347.462 303.373 331.951 300.185 327.274C298.307 324.52 298.972 321.033 301.801 318.794C305.632 315.764 312.555 315.571 318.703 322.31C326.682 331.055 343.008 332.557 343.172 332.571C343.489 332.598 343.783 332.75 343.988 332.994C344.193 333.237 344.293 333.553 344.266 333.87C344.239 334.187 344.087 334.481 343.843 334.686C343.6 334.891 343.285 334.991 342.967 334.964C342.26 334.904 325.547 333.374 316.93 323.93C311.817 318.326 306.275 318.316 303.291 320.678C301.884 321.791 300.746 323.833 302.169 325.921C304.35 329.121 315.911 345.24 329.363 348.363C329.65 348.429 329.904 348.599 330.074 348.84C330.244 349.081 330.32 349.377 330.286 349.67C330.253 349.963 330.113 350.234 329.893 350.43C329.672 350.626 329.388 350.735 329.093 350.734Z" fill="#292B32"/>
<path d="M382.414 341L401.634 344.822C404.381 361.51 401.691 377.282 393.32 392.098L374.822 388.541C383.223 375.262 385.236 359.189 382.414 341H382.414Z" fill="white"/>
<path d="M393.32 393.3C393.245 393.3 393.169 393.293 393.093 393.278L374.595 389.721C374.403 389.684 374.223 389.6 374.07 389.478C373.918 389.356 373.797 389.198 373.72 389.018C373.642 388.839 373.609 388.643 373.625 388.448C373.64 388.253 373.703 388.064 373.807 387.899C381.733 375.371 384.16 360.09 381.227 341.184C381.197 340.993 381.214 340.798 381.276 340.615C381.338 340.432 381.443 340.267 381.583 340.133C381.722 340 381.892 339.902 382.077 339.847C382.262 339.793 382.458 339.785 382.648 339.822L401.867 343.644C402.107 343.692 402.326 343.811 402.496 343.987C402.666 344.162 402.779 344.385 402.818 344.626C405.618 361.634 402.774 377.805 394.365 392.689C394.26 392.874 394.108 393.028 393.925 393.135C393.741 393.243 393.533 393.299 393.32 393.299L393.32 393.3ZM376.749 387.689L392.694 390.755C400.37 376.807 403.021 361.705 400.58 345.836L383.85 342.51C385.07 351.264 385.126 359.425 384.013 366.791C382.861 374.426 380.419 381.447 376.749 387.689Z" fill="#292B32"/>
</g>
<defs>
<clipPath id="clip0_2086_4616">
<rect width="359.699" height="269.1" fill="white" transform="translate(180.6 102.9)"/>
</clipPath>
<clipPath id="clip1_2086_4616">
<rect width="229.281" height="171.6" fill="white" transform="translate(39.666 45)"/>
</clipPath>
<clipPath id="clip2_2086_4616">
<rect width="401.168" height="337.2" fill="white" transform="translate(159.566 67.7998)"/>
</clipPath>
<clipPath id="clip3_2086_4616">
<rect width="103.072" height="106.8" fill="white" transform="translate(356.393 253.8)"/>
</clipPath>
<clipPath id="clip4_2086_4616">
<rect width="115.692" height="121.2" fill="white" transform="translate(232.287 278.4)"/>
</clipPath>
<clipPath id="clip5_2086_4616">
<rect width="111.786" height="76.5" fill="white" transform="translate(292.086 316.8)"/>
</clipPath>
</defs>
</svg>
