<svg width="321" height="321" viewBox="0 0 321 321" fill="none" xmlns="http://www.w3.org/2000/svg">
<path d="M79.4311 223.702C79.4311 223.702 55.6067 222.57 37.6768 237.83C39.508 237.36 46.662 239.203 46.662 239.203L26.4767 250.5L40.8261 248.057L8.02539 269.872L48.9835 258.2L38.7547 268.219L58.7947 257.673L54.8997 268.093C54.8997 268.093 81.9759 250.299 89.6588 237.818" fill="#FF5A48"/>
<path d="M181.704 208.244L174.697 222.249C165.023 244.452 144.759 261.545 120.551 267.776C98.8078 273.373 72.8742 278.229 52.8125 272.102C79.7259 260.34 124.558 233.55 124.558 233.55" fill="black"/>
<path d="M156.047 160.494L140.501 158.608C116.647 154.421 91.2085 161.885 72.6515 178.633C55.9841 193.675 37.6213 212.621 31.6582 232.732C56.3201 216.781 103.404 194.181 103.404 194.181" fill="black"/>
<path d="M281.332 159.216L312.976 106.94L251.918 104.475C232.18 103.678 212.747 109.544 196.747 121.129L85.2443 201.864C82.1648 204.094 81.2095 208.258 83.0091 211.607L77.3756 214.634C74.0584 216.417 72.8143 220.551 74.5967 223.868L83.9031 241.188C85.6855 244.505 89.8195 245.749 93.1366 243.967L98.7702 240.939C100.57 244.289 104.569 245.79 108.128 244.453L236.994 196.031C255.486 189.082 271.103 176.115 281.332 159.216Z" fill="#4367F5"/>
<path d="M147.311 185.919L41.79 251.589L155.559 201.551C160.289 199.47 162.242 193.799 159.796 189.247C157.375 184.742 151.653 183.217 147.311 185.919Z" fill="black"/>
<path d="M229.17 171.263C239.825 171.263 248.462 162.626 248.462 151.971C248.462 141.316 239.825 132.679 229.17 132.679C218.515 132.679 209.878 141.316 209.878 151.971C209.878 162.626 218.515 171.263 229.17 171.263Z" fill="white"/>
<path d="M114.942 65.9116C114.823 66.4409 114.817 66.9943 115.141 67.4562C115.433 67.8725 115.861 68.135 116.33 68.311C117.246 68.6549 118.236 68.5616 119.183 68.7375C119.497 68.7958 120.032 68.8787 120.176 69.2217C120.294 69.5032 119.911 69.7086 119.714 69.8454C118.962 70.3683 118.084 70.6844 117.168 70.7397C116.855 70.7586 116.588 70.9924 116.588 71.319C116.588 71.6181 116.854 71.9173 117.168 71.8984C118.007 71.8477 118.81 71.641 119.567 71.274C119.925 71.0999 120.259 70.8856 120.574 70.6422C120.914 70.3801 121.237 70.0688 121.332 69.6318C121.534 68.6998 120.774 67.9947 119.962 67.7349C119.179 67.4844 118.342 67.5185 117.535 67.4126C117.136 67.3601 116.717 67.2697 116.371 67.0549C116.039 66.8487 115.975 66.5922 116.059 66.2196C116.222 65.4933 115.105 65.1831 114.942 65.9116Z" fill="black"/>
<path d="M201.473 60.2085C204.353 57.3221 207.278 54.4752 210.115 51.5463C211.065 50.5648 211.558 49.2566 211.193 47.8936C210.682 45.9807 208.642 44.7937 206.726 45.3059C205.269 45.6955 204.137 47.2031 203.112 48.2299C199.459 51.8924 195.805 55.5549 192.151 59.2174C190.965 60.4056 189.891 61.5446 188.856 62.8791C186.119 66.4087 184.092 70.3843 181.453 73.9752C173.513 84.7768 161.411 91.6074 148.403 94.2793C142.824 95.4253 137.081 95.8361 131.396 95.4661C126.984 95.1789 122.47 94.449 118.358 92.7667C116.977 92.2017 115.521 91.4561 114.416 90.5376C113.503 89.7784 112.876 89.0222 112.622 88.039C112.296 86.7801 112.587 84.5517 113.846 83.4611C115.03 82.4347 116.707 82.118 118.147 81.6142C119.863 81.014 121.497 80.1812 122.521 78.6164C123.991 76.3681 123.833 73.4095 123.464 70.8729C122.412 63.6357 117.122 54.4438 108.547 56.3235C104.427 57.2266 100.687 60.1096 98.1193 63.3743C95.1672 67.1278 93.8813 71.8104 93.2203 76.4661C92.5628 81.097 91.8042 86.0445 92.4515 90.7093C92.6566 92.1878 93.0219 95.4857 95.1156 95.4384C96.943 95.3971 97.5819 93.0032 96.5967 91.733C95.418 90.2134 93.0187 90.0603 91.2545 89.8871C89.1889 89.6843 87.1106 89.7625 85.0557 90.0375C80.7069 90.6194 76.5308 92.0894 72.6011 94.012C64.7822 97.8374 57.6499 103.502 51.9855 110.101C45.7558 117.358 41.2237 126.038 38.7684 135.279C37.5487 139.87 36.8399 144.607 36.6826 149.354C36.6083 151.596 36.5335 153.838 36.4577 156.08C36.3422 159.498 36.1888 162.913 36.0489 166.33C35.8847 170.34 35.5353 174.39 35.5545 178.404C35.563 180.203 36.764 181.79 38.5736 182.108C40.4475 182.438 42.0761 181.282 42.6976 179.557H41.0217C41.7561 182.456 45.5151 183.463 47.4391 181.045C48.3788 179.864 48.2314 178.438 48.2303 177.032C48.2278 173.843 48.2253 170.655 48.2229 167.466C47.6539 167.543 47.0849 167.62 46.5159 167.697C47.0671 171.648 47.4244 175.678 48.176 179.594C48.5027 181.296 50.0031 182.589 51.7532 182.592C53.713 182.595 55.3414 180.959 55.3986 179.012C55.4194 178.303 55.2305 177.55 55.1188 176.854C54.918 175.601 54.7171 174.348 54.5163 173.095C54.1558 170.847 53.7953 168.598 53.4348 166.35C52.8762 166.504 52.3175 166.658 51.7589 166.812C52.8039 169.388 53.8488 171.965 54.8938 174.541C55.375 175.728 55.846 176.919 56.3376 178.101C57.0829 179.893 58.8498 181.047 60.8215 180.486C62.8969 179.895 63.9275 177.626 63.2076 175.648C62.93 174.885 62.5953 174.139 62.2903 173.387C60.9727 170.138 59.6551 166.889 58.3374 163.641C57.3611 161.233 56.3848 158.826 55.4084 156.419C55.0521 156.775 54.6958 157.132 54.3395 157.488C56.0524 157.993 57.7654 158.497 59.4783 159.002C60.3323 159.254 61.1494 159.491 62.0571 159.382C63.6206 159.196 64.9757 158.17 65.5875 156.722C66.2056 155.258 65.9782 153.545 64.9955 152.296C64.4188 151.563 63.6603 151.151 62.8692 150.707C61.902 150.165 60.9349 149.622 59.9678 149.08C59.5703 148.857 59.1729 148.634 58.7755 148.411C58.3565 148.176 58.3682 148.015 58.6277 148.481C58.746 148.693 58.6311 148.725 58.7273 148.401C58.8112 148.118 58.9174 147.845 59.0357 147.575C59.4164 146.706 59.881 145.869 60.3453 145.042C61.5063 142.976 62.7653 140.963 64.0459 138.969C65.0981 137.33 66.1673 135.702 67.2741 134.1C67.424 133.883 67.5761 133.668 67.7276 133.452C67.7782 133.38 67.8304 133.309 67.8833 133.238C67.9208 133.188 67.9896 133.103 67.8146 133.327C67.9977 133.092 68.1926 132.865 68.3841 132.637C69.6896 131.081 71.0854 129.6 72.5783 128.223C76.0334 125.034 80.1318 122.313 84.595 120.764C86.7754 120.008 88.8596 119.751 91.1465 120.005C93.2465 120.238 94.9343 120.006 96.643 118.679C97.0211 118.386 96.9335 117.757 96.643 117.45C95.7952 116.556 94.4744 116.518 93.4398 117.128C92.2051 117.856 91.8235 119.32 91.8766 120.67C91.9446 122.4 92.3602 124.165 92.7039 125.857C93.0491 127.557 93.4514 129.246 93.9125 130.918C95.7671 137.645 98.5856 144.097 102.212 150.056C105.722 155.823 109.84 161.435 114.604 166.231C119.444 171.105 125.083 174.657 131.567 176.918C138.127 179.206 145.017 180.38 151.856 181.482C157.737 182.429 163.901 182.753 169.59 184.61C175.846 186.653 180.202 191.281 183.451 196.865C187.023 203.002 189.057 210.114 189.199 217.218C189.343 224.423 187.68 231.689 185.602 238.545C184.78 241.259 183.934 244.267 184.59 247.108C185.186 249.69 187.222 251.314 189.464 252.495C191.925 253.791 194.589 254.642 197.198 255.583C199.71 256.489 202.194 257.409 204.776 258.105C210.363 259.611 216.866 260.874 222.562 259.217C225.241 258.437 227.733 256.703 228.783 254.031C229.986 250.967 228.402 248.234 226.551 245.857C224.448 243.156 222.843 240.399 222.248 236.981C221.684 233.74 222.017 230.385 222.611 227.173C223.799 220.746 226.065 214.515 226.284 207.93C226.511 201.099 225.822 194.194 224.023 187.592C222.229 181.009 219.292 174.723 215.118 169.309C211.154 164.166 206.152 159.887 200.574 156.579C194.826 153.17 188.473 150.749 181.949 149.327C174.708 147.749 167.272 147.31 160.039 145.693C156.393 144.878 152.828 143.748 149.463 142.111C148.462 141.623 147.579 143.122 148.586 143.611C161.409 149.85 176.202 148.536 189.489 153.296C201.62 157.641 212.201 165.846 218.211 177.377C221.291 183.287 223.163 189.813 224.017 196.41C224.854 202.876 224.869 209.418 223.456 215.798C222.107 221.886 220.021 228.01 220.246 234.322C220.354 237.33 221.049 240.289 222.459 242.957C223.199 244.356 224.153 245.59 225.124 246.833C226.036 248.001 227.026 249.259 227.366 250.734C228.091 253.886 225.343 256.466 222.602 257.384C219.969 258.266 217.11 258.303 214.368 258.093C208.756 257.662 203.368 256.012 198.118 254.073C195.591 253.14 193 252.352 190.594 251.125C188.223 249.916 186.255 248.35 186.113 245.501C185.97 242.634 187.035 239.807 187.865 237.109C188.854 233.894 189.494 230.549 190.062 227.237C191.259 220.26 191.226 213.289 189.334 206.436C187.606 200.178 184.503 194.085 180.086 189.289C176.26 185.135 171.221 182.917 165.756 181.842C159.794 180.669 153.71 180.086 147.721 179.041C141.158 177.896 134.493 176.519 128.371 173.813C122.32 171.137 117.315 166.908 112.998 161.945C104.15 151.772 97.4811 139.674 94.6027 126.454C94.2557 124.86 93.9419 123.252 93.7113 121.637C93.5995 120.854 93.4717 119.931 93.837 119.195C94.1084 118.648 94.8895 118.126 95.4141 118.679V117.45C93.8194 118.688 92.115 118.338 90.2562 118.171C88.2993 117.995 86.3474 118.358 84.4903 118.967C80.7871 120.182 77.2992 122.196 74.2237 124.57C70.1445 127.718 66.886 131.492 64.0675 135.756C61.7067 139.327 59.1341 142.987 57.4321 146.933C56.9987 147.937 56.5464 149.1 57.6749 149.786C59.2794 150.763 60.9661 151.612 62.5952 152.547C63.945 153.321 64.7021 154.89 63.8435 156.353C63.0826 157.651 61.6976 157.837 60.376 157.455C58.5151 156.917 56.6596 156.36 54.8015 155.812C54.2186 155.64 53.4777 156.253 53.7325 156.881C55.6946 161.719 57.6567 166.557 59.6188 171.394L61.0452 174.911C61.2694 175.464 61.6282 176.104 61.7114 176.704C62.0376 179.057 58.8934 179.553 57.9919 177.586C57.5091 176.532 57.1163 175.427 56.6807 174.353C55.5988 171.685 54.5168 169.018 53.4348 166.35C53.0144 165.313 51.5801 165.697 51.7589 166.812C52.3608 170.567 52.9627 174.321 53.5646 178.076C53.7178 179.031 53.6631 180.04 52.7064 180.601C51.3226 181.411 50.0403 180.281 49.8234 178.927C49.5071 176.954 49.2704 174.965 48.9942 172.986C48.7268 171.069 48.4593 169.152 48.1918 167.235C48.0542 166.249 46.4841 166.512 46.4848 167.466C46.4868 169.989 46.4888 172.511 46.4907 175.033C46.4916 176.24 46.5337 177.455 46.4935 178.661C46.4163 180.983 43.2876 181.424 42.6976 179.095C42.4737 178.212 41.2974 178.331 41.0217 179.095C40.2567 181.218 37.3223 180.555 37.2928 178.397C37.2877 178.022 37.3238 177.642 37.3391 177.267C37.4243 175.187 37.5095 173.106 37.5947 171.025C37.7733 166.664 37.9559 162.303 38.1306 157.941C38.2847 154.092 38.2758 150.219 38.5925 146.379C39.3435 137.272 42.1957 128.342 46.7717 120.439C51.0779 113.002 56.9534 106.589 63.8352 101.458C70.4845 96.4995 78.4147 92.2257 86.8279 91.5863C88.8253 91.4345 90.8525 91.4898 92.8266 91.843C93.4909 91.9619 95.2327 92.1631 95.3678 93.0439C95.3883 93.1775 95.3316 93.4398 95.2426 93.5275C94.968 93.7982 94.9522 93.5286 94.8253 93.2423C94.5579 92.6389 94.421 91.9215 94.2947 91.2757C93.4271 86.8398 94.2423 82.0201 94.8083 77.5881C95.3879 73.0494 96.4891 68.3666 99.3076 64.6576C101.724 61.4774 105.436 58.5969 109.449 57.9113C117.499 56.5362 121.775 66.906 121.964 73.375C122.022 75.3483 121.705 77.4958 120.043 78.775C118.849 79.6944 117.314 80.0483 115.913 80.5225C114.371 81.0449 112.831 81.7174 111.86 83.0881C110.826 84.5456 110.546 86.7069 110.93 88.4309C111.488 90.9398 114.019 92.6088 116.163 93.6718C119.707 95.428 123.653 96.3068 127.551 96.8241C132.611 97.4956 137.758 97.4869 142.827 96.9104C154.704 95.5595 166.283 91.081 175.342 83.1661C177.845 80.9785 180.121 78.5437 182.153 75.9128C184.6 72.7444 186.445 69.2065 188.743 65.9392C191.235 62.3957 194.29 59.5348 197.338 56.4796C200.284 53.5262 203.164 50.4826 206.188 47.6085C207.207 46.6394 208.925 46.6975 209.46 48.1903C209.844 49.2638 209.202 50.0007 208.513 50.6912C206.877 52.331 205.241 53.9708 203.605 55.6105C202.485 56.7336 201.364 57.8567 200.244 58.9798C199.453 59.7726 200.682 61.0018 201.473 60.2085Z" fill="black"/>
<path d="M118.298 80.6381C118.298 80.6381 109.458 82.9303 105.564 80.335C106.306 82.9303 111.868 85.3403 111.868 85.3403C111.868 85.3403 112.322 82.6834 114.227 82.158C116.131 81.6327 118.298 80.6381 118.298 80.6381Z" fill="black"/>
<path d="M118.067 79.8003C117.051 80.063 116.01 80.2484 114.973 80.4025C114.528 80.4686 114.179 80.5131 113.624 80.5686C113.101 80.6209 112.576 80.6599 112.051 80.6824C111.512 80.7054 110.972 80.7112 110.433 80.6936C110.173 80.6851 109.913 80.6713 109.653 80.651C109.525 80.641 109.397 80.6294 109.268 80.6161C109.142 80.6029 108.985 80.5837 108.978 80.5828C108.418 80.5041 107.862 80.3858 107.323 80.2124C106.833 80.0547 106.501 79.9106 106.003 79.5848C105.368 79.1691 104.513 79.8581 104.727 80.5662C105.257 82.3226 106.964 83.5515 108.44 84.4883C109.391 85.0923 110.394 85.6413 111.429 86.0909C111.89 86.2912 112.599 86.1823 112.706 85.5716C112.769 85.213 112.885 84.8603 113.019 84.523C112.947 84.7039 113.032 84.4937 113.05 84.4554C113.091 84.3723 113.13 84.289 113.174 84.2074C113.258 84.0485 113.352 83.896 113.453 83.7473C113.559 83.5916 113.413 83.785 113.525 83.6521C113.59 83.575 113.659 83.5008 113.731 83.4301C113.892 83.272 113.852 83.2936 114.075 83.1612C114.266 83.0475 114.276 83.0516 114.458 82.9962C114.758 82.9049 115.059 82.8208 115.357 82.7225C115.89 82.5465 116.417 82.3521 116.94 82.1462C117.544 81.908 118.146 81.6592 118.737 81.3887C119.164 81.1933 119.269 80.576 119.049 80.1997C118.792 79.7614 118.288 79.6918 117.86 79.888C117.229 80.1766 116.735 80.3769 116.018 80.6477C115.478 80.8517 114.933 81.0429 114.38 81.2093C113.885 81.3584 113.401 81.5012 112.976 81.8083C111.936 82.5603 111.25 83.8536 111.03 85.1095C111.455 84.9364 111.881 84.7633 112.307 84.5902C111.355 84.1766 110.432 83.6764 109.549 83.1326C108.792 82.6662 108.173 82.2394 107.559 81.6745C107.407 81.5345 107.26 81.3895 107.12 81.2379C107.062 81.1751 107.005 81.1114 106.949 81.0463C106.913 81.0038 106.877 80.9608 106.842 80.9173C106.893 80.9849 106.888 80.9784 106.828 80.8978C106.729 80.7598 106.636 80.6174 106.555 80.4681C106.513 80.3917 106.473 80.3139 106.438 80.2339C106.52 80.4246 106.414 80.1411 106.403 80.1042L105.126 81.0856C106.968 82.2915 109.371 82.4803 111.513 82.4374C113.468 82.3983 115.425 82.1331 117.339 81.7435C117.737 81.6625 118.136 81.578 118.529 81.4763C119.611 81.1966 119.153 79.5198 118.067 79.8003Z" fill="black"/>
<path d="M205.805 59.6684C204.706 60.7969 203.607 61.9255 202.508 63.054C202.011 63.5649 201.511 64.0738 201.016 64.5866C200.058 65.5778 199.614 67.0024 200.028 68.3471C200.638 70.3341 202.914 71.4434 204.849 70.6466L203.867 69.37C203.236 70.8348 203.455 72.5765 204.699 73.6677C205.901 74.722 207.602 74.8876 208.993 74.1062C208.597 73.7098 208.2 73.3135 207.804 72.9172C207.029 74.252 207.142 75.9056 208.11 77.11C209.016 78.2364 210.602 78.7243 211.985 78.2932C213.215 77.91 214.073 76.8086 214.947 75.9214C216.158 74.6929 217.37 73.4644 218.581 72.2359C219.049 71.7613 219.517 71.2867 219.985 70.8121C220.298 70.494 220.62 70.1874 220.877 69.8186C221.836 68.441 221.652 66.5534 220.557 65.3157C219.415 64.0243 217.483 63.799 216.01 64.6263C216.406 65.0226 216.803 65.4189 217.199 65.8153C217.996 64.4424 217.849 62.7376 216.818 61.5289C215.837 60.3778 214.125 59.9747 212.73 60.5489L213.712 61.8255C214.228 60.6275 214.216 59.2369 213.425 58.1487C213.019 57.5896 212.476 57.1389 211.979 56.6641C210.615 55.3625 208.988 54.4492 207.076 54.2854C205.863 54.1814 204.608 54.5286 203.76 55.4356C202.997 56.2522 204.223 57.4838 204.989 56.6646C205.229 56.4076 205.484 56.2302 205.756 56.1456C206.169 56.0169 206.379 55.9924 206.823 56.0077C207.556 56.0329 208.397 56.2922 209.074 56.6392C210.117 57.1732 210.87 57.9826 211.745 58.8426C212.297 59.3853 212.521 60.2285 212.211 60.9483C212.069 61.2767 212.04 61.614 212.279 61.9134C212.475 62.1595 212.872 62.3567 213.192 62.2249C214.006 61.8898 214.897 61.9851 215.509 62.667C216.086 63.3094 216.118 64.2154 215.698 64.9381C215.257 65.6977 216.133 66.5506 216.887 66.1271C217.709 65.6653 218.765 65.814 219.372 66.5941C219.948 67.3344 219.902 68.3882 219.253 69.0775C218.699 69.6661 218.118 70.2304 217.55 70.8058C215.808 72.5726 214.088 74.3634 212.323 76.1077C211.729 76.6953 210.89 76.8883 210.149 76.5494C209.072 76.057 208.735 74.7767 209.305 73.7945C209.746 73.0347 208.87 72.182 208.116 72.6055C207.418 72.9972 206.564 72.9681 205.928 72.4388C205.3 71.9162 205.045 70.998 205.368 70.2473C205.51 69.9188 205.539 69.5816 205.3 69.2821C205.104 69.0361 204.707 68.8388 204.387 68.9707C203.213 69.4539 201.831 68.8977 201.626 67.5678C201.517 66.8639 201.854 66.2168 202.382 65.6744C203.545 64.481 204.707 63.2876 205.869 62.0942C206.257 61.6953 206.646 61.2964 207.034 60.8974C207.815 60.0956 206.587 58.8653 205.805 59.6684Z" fill="black"/>
<path d="M209.281 63.8604C207.738 65.3787 206.195 66.897 204.653 68.4153C204.434 68.6308 204.215 68.8464 203.996 69.0619C203.671 69.3813 203.652 69.9751 203.996 70.2909C204.345 70.6114 204.879 70.6317 205.225 70.2909C206.768 68.7725 208.31 67.2542 209.853 65.7359L210.51 65.0894C210.834 64.77 210.854 64.1761 210.51 63.8604C210.161 63.5398 209.627 63.5196 209.281 63.8604Z" fill="black"/>
<path d="M212.856 67.625C211.313 69.1433 209.771 70.6616 208.228 72.18C208.009 72.3955 207.79 72.611 207.571 72.8265C207.247 73.1459 207.227 73.7397 207.571 74.0555C207.92 74.3761 208.454 74.3963 208.8 74.0555C210.343 72.5372 211.885 71.0189 213.428 69.5006C213.647 69.285 213.866 69.0695 214.085 68.854C214.41 68.5346 214.429 67.9408 214.085 67.625C213.736 67.3045 213.202 67.2842 212.856 67.625Z" fill="black"/>
<path d="M41.0595 166.903C41.0213 170.723 40.9832 174.542 40.945 178.361C40.9396 178.903 40.9342 179.445 40.9288 179.988C40.9176 181.106 42.6556 181.107 42.6668 179.988C42.705 176.168 42.7431 172.349 42.7813 168.53C42.7867 167.988 42.7921 167.446 42.7975 166.903C42.8087 165.785 41.0707 165.784 41.0595 166.903Z" fill="black"/>
<path d="M208.14 76.813C208.152 76.9519 208.147 76.7003 208.166 76.6541C208.136 76.7288 208.134 76.8197 208.108 76.8971C208.055 77.0569 207.999 77.214 207.94 77.3714C207.836 77.6443 207.983 77.2877 207.873 77.529C207.808 77.672 207.743 77.8153 207.675 77.9572C206.486 80.4516 204.955 82.7978 203.452 85.1098C200.428 89.7618 197.353 94.4454 193.512 98.4721C189.589 102.585 185.078 106.104 180.231 109.063C170.76 114.846 160.114 118.509 148.975 118.847C147.023 118.907 145.04 118.876 143.114 118.534C141.426 118.234 139.605 117.724 138.322 116.524C137.714 115.955 137.243 115.244 137.035 114.432C136.766 113.385 137.232 112.083 138.504 112.738C139.736 113.373 139.88 115.089 140.152 116.289C140.415 117.455 140.758 118.603 141.202 119.713C142.74 123.557 145.456 126.834 149.259 128.589C154.023 130.789 159.289 130.253 164.391 130.356C170.882 130.487 177.389 130.889 183.791 132.015C189.565 133.031 195.204 134.669 200.621 136.91C210.893 141.161 220.252 147.461 228.671 154.67C232.936 158.322 236.985 162.223 240.854 166.291C244.73 170.366 248.338 174.69 252.275 178.707C254.247 180.72 256.308 182.653 258.528 184.391C260.714 186.102 263.045 187.504 265.459 188.864C267.862 190.217 270.486 191.536 273.325 191.357C276.293 191.17 279.048 189.607 282.047 189.704C283.156 189.739 284.308 190.008 285.229 190.65C286.354 191.433 286.78 192.697 286.81 194.024C286.876 196.931 286.053 199.968 285.082 202.684C284.104 205.42 282.754 208.013 281.21 210.471C279.728 212.831 278.522 215.323 277.23 217.788C275.944 220.243 274.502 222.592 272.544 224.572C272.826 224.498 273.108 224.423 273.39 224.349C261.854 220.804 249.55 219.735 238.438 214.823C235.376 213.469 232.451 211.812 229.798 209.764C228.913 209.081 228.047 210.59 228.92 211.265C238.712 218.821 251.475 220.861 263.223 223.52C266.482 224.257 269.733 225.043 272.928 226.025C273.22 226.115 273.56 226.016 273.773 225.801C275.832 223.718 277.378 221.248 278.73 218.665C280.085 216.079 281.384 213.501 282.919 211.015C284.499 208.455 285.852 205.746 286.844 202.903C287.814 200.123 288.623 196.99 288.548 194.024C288.479 191.241 286.934 189.083 284.241 188.299C281.376 187.466 278.544 188.431 275.77 189.146C274.214 189.548 272.703 189.801 271.113 189.441C269.732 189.128 268.453 188.519 267.215 187.85C264.663 186.47 262.151 185.02 259.855 183.239C255.193 179.623 251.255 175.168 247.333 170.788C243.469 166.472 239.502 162.258 235.284 158.284C226.875 150.359 217.562 143.244 207.214 138.037C202.089 135.458 196.717 133.344 191.172 131.861C184.704 130.131 178.027 129.28 171.352 128.885C167.972 128.685 164.586 128.601 161.2 128.574C158.529 128.554 155.841 128.695 153.216 128.104C149.04 127.163 145.62 124.615 143.612 120.822C143.068 119.794 142.639 118.714 142.298 117.602C141.9 116.305 141.745 114.927 141.279 113.654C140.824 112.411 140.006 111.354 138.699 110.952C137.514 110.587 136.209 111.021 135.594 112.126C134.542 114.016 135.694 116.476 137.147 117.803C138.567 119.1 140.451 119.779 142.31 120.146C146.341 120.941 150.634 120.651 154.688 120.157C161.067 119.38 167.236 117.492 173.073 114.828C183.675 109.99 193.382 102.731 200.107 93.1337C202.798 89.293 205.475 85.413 207.825 81.3506C208.548 80.1006 209.423 78.7347 209.795 77.3197C209.837 77.1602 209.893 76.9757 209.878 76.813C209.781 75.7075 208.042 75.6972 208.14 76.813Z" fill="black"/>
<path d="M191.672 65.0273C193.902 66.3615 196.132 67.6957 198.362 69.0299C198.987 69.4035 199.455 69.9634 199.552 70.6827C199.696 71.7435 199.016 72.7506 198.063 73.0458C197.474 73.2283 196.978 73.1156 196.38 72.9463C195.692 72.7519 195.005 72.5574 194.318 72.363C192.907 71.9636 191.496 71.5641 190.085 71.1647C189.007 70.8596 188.546 72.5361 189.623 72.8407C190.933 73.2117 192.244 73.5827 193.555 73.9537C194.315 74.1688 195.075 74.3838 195.835 74.5989C196.588 74.8122 197.318 74.9557 198.11 74.819C199.568 74.5676 200.789 73.4209 201.17 71.9976C201.562 70.5314 201.05 68.9062 199.862 67.9555C199.469 67.6416 199.024 67.4005 198.594 67.1431C197.88 66.7156 197.165 66.2881 196.451 65.8606C195.15 65.0826 193.85 64.3046 192.549 63.5266C191.587 62.9509 190.712 64.453 191.672 65.0273Z" fill="black"/>
<path d="M87.3915 70.9556C86.7773 73.0102 87.3639 75.2363 88.2397 77.1936C88.8626 78.5856 89.6317 79.9121 90.5305 81.1441C90.9971 81.7838 91.5878 82.4481 92.3766 82.5164C93.7018 82.6311 96.4305 78.8165 96.7319 77.5697C97.0723 76.1615 96.0109 74.2699 96.0813 72.7383C96.1385 71.4956 96.9129 70.1276 98.0975 69.6204C100.362 68.6509 101.775 71.6549 102.296 73.3916C101.572 70.9763 101.593 68.3434 102.356 65.94C102.928 64.1351 103.951 62.4202 105.496 61.3263C108.723 59.0425 115.416 61.4334 117.108 57.4748C119.165 52.6638 115.152 48.2171 110.733 47.0474C108.386 46.4263 105.923 46.4413 103.497 46.5333C102.751 46.5617 101.976 46.6049 101.321 46.9637C100.667 47.3225 100.176 48.0946 100.386 48.811C100.531 49.3094 100.971 49.6657 101.426 49.9157C102.541 50.5278 103.898 50.6838 105.123 50.3408C105.295 50.2925 105.498 50.1921 105.499 50.013C105.499 49.8008 105.227 49.7174 105.016 49.6964C102.476 49.4435 99.9841 48.9858 97.4752 49.3992C94.6187 49.8699 91.9145 49.3983 89.3445 51.1678C88.6007 51.6798 87.9011 52.3616 87.7054 53.2431C87.5064 54.1395 87.9177 55.1393 88.6898 55.6363C89.462 56.1332 90.5424 56.0934 91.2758 55.5409C90.6977 54.5715 89.2609 54.7648 88.1782 55.0839C87.1381 55.3905 86.098 55.6972 85.0579 56.0038C82.5263 56.7501 79.5926 57.9008 78.9912 60.4708C78.6157 62.0755 79.3906 63.8313 80.7181 64.8078C82.0456 65.7843 83.8311 66.0243 85.4349 65.6451C86.4907 65.3954 87.6556 64.594 87.4861 63.5224C85.6852 63.8938 83.8227 64.3296 82.3828 65.4731C80.9428 66.6167 80.0615 68.6768 80.8294 70.3476C81.388 71.5629 82.7247 72.3164 84.0611 72.3734C84.7863 72.4043 87.1677 72.5284 87.7548 72.1007C88.181 71.7903 88.4453 71.3091 88.6746 70.8343C88.735 70.7092 88.7953 70.5764 88.7855 70.4379C88.7606 70.0848 88.2727 69.9254 87.9607 70.0927C87.6486 70.26 87.4929 70.6164 87.3915 70.9556Z" fill="black"/>
<path d="M86.5539 70.7245C85.6572 73.8656 87.0572 77.1833 88.6437 79.8583C89.0354 80.5186 89.4593 81.1636 89.9244 81.7746C90.3509 82.335 90.8334 82.8672 91.4883 83.1592C92.5585 83.6362 93.4496 83.2064 94.2806 82.5056C95.0722 81.8379 95.73 80.9959 96.3217 80.1515C96.8031 79.4646 97.3063 78.7023 97.5461 77.8895C98.2389 75.5421 95.7737 72.9111 97.7815 70.8806C97.9657 70.6943 98.2087 70.5135 98.4241 70.4196C98.5526 70.3637 98.7019 70.325 98.8397 70.3026C98.9884 70.2783 98.7291 70.3068 98.8743 70.3034C98.946 70.3018 99.0172 70.301 99.0889 70.3053C98.9475 70.2969 99.2372 70.3414 99.307 70.3607C99.3277 70.3665 99.4858 70.4298 99.3967 70.3908C99.3085 70.3522 99.5008 70.4483 99.5177 70.458C99.7412 70.5853 99.8021 70.6366 100.023 70.8655C100.718 71.5875 101.159 72.6386 101.458 73.6225C101.782 74.6893 103.45 74.2386 103.134 73.1604C102.238 70.1023 102.518 66.5695 104.277 63.8578C104.67 63.2522 105.151 62.7037 105.711 62.2467C105.9 62.0929 106.102 61.9567 106.315 61.8379C106.41 61.7841 106.509 61.736 106.607 61.6872C106.64 61.6709 106.805 61.5997 106.666 61.6575C106.731 61.6304 106.797 61.6059 106.863 61.5817C107.919 61.1943 108.819 61.117 109.881 61.0359C111.981 60.8755 114.454 60.9763 116.281 59.7554C118.491 58.2777 118.953 55.0492 118.19 52.662C117.348 50.0267 115.152 47.9224 112.657 46.8194C111.148 46.1523 109.54 45.8445 107.901 45.705C106.993 45.6277 106.08 45.6096 105.169 45.6198C104.288 45.6296 103.39 45.627 102.514 45.7351C101.66 45.8405 100.795 46.1006 100.194 46.7538C99.6268 47.3696 99.3227 48.2133 99.548 49.0418C100.002 50.7095 102.262 51.3788 103.778 51.3882C104.522 51.3928 105.621 51.3259 106.122 50.6933C106.413 50.3259 106.437 49.8198 106.191 49.4224C105.934 49.0077 105.469 48.8807 105.016 48.8272C103.205 48.6131 101.373 48.3531 99.5467 48.3644C98.6399 48.37 97.7623 48.5011 96.8659 48.6175C96.0935 48.7178 95.3143 48.757 94.538 48.814C92.9121 48.9333 91.3087 49.1475 89.8299 49.8755C88.404 50.5776 86.9566 51.7859 86.7996 53.4689C86.6484 55.0902 87.8667 56.5955 89.4648 56.8143C90.248 56.9216 91.0651 56.7516 91.7149 56.2911C92.0845 56.0292 92.2996 55.5246 92.0266 55.1021C90.7079 53.0609 87.8945 54.2614 86.0904 54.7933C84.1488 55.3656 82.0764 55.8937 80.4149 57.1048C78.7268 58.3352 77.7096 60.2012 78.1395 62.3222C78.5824 64.5072 80.4685 66.1461 82.6177 66.5503C83.8663 66.7851 85.2268 66.7316 86.4043 66.2258C87.4678 65.7689 88.5043 64.7806 88.3557 63.5222C88.287 62.9411 87.8577 62.5596 87.2556 62.6842C85.2179 63.106 83.0749 63.6399 81.5001 65.0883C80.1374 66.3417 79.2648 68.4235 79.8647 70.2541C80.4836 72.1426 82.3189 73.1676 84.2236 73.2493C84.9002 73.2783 85.5787 73.2994 86.2556 73.2675C86.9821 73.2333 87.7804 73.1851 88.3698 72.7151C89.1652 72.0808 90.1679 70.5149 89.305 69.5968C88.8783 69.1429 88.1544 69.0399 87.6039 69.3071C87.0333 69.584 86.7385 70.1423 86.5539 70.7245C86.2152 71.7932 87.8926 72.2505 88.2299 71.1865C88.2342 71.1728 88.3822 70.8567 88.3792 70.8481C88.3852 70.865 88.2153 70.8954 88.1435 70.8696C87.9883 70.8139 87.9815 70.6858 87.9561 70.556C87.9019 70.2788 87.9103 70.428 87.8435 70.5598C87.752 70.7406 87.6568 70.9252 87.5382 71.09C87.4636 71.1937 87.3794 71.2883 87.2814 71.3714C87.1811 71.4566 87.3678 71.3619 87.2737 71.3833C87.1819 71.4042 87.0917 71.4343 86.9995 71.4551C86.9478 71.4667 86.8946 71.4748 86.8425 71.4835C86.972 71.4618 86.8298 71.4858 86.7731 71.4916C85.824 71.5876 84.7713 71.6184 83.8222 71.4866C82.6685 71.3264 81.552 70.4962 81.4268 69.2973C81.2984 68.0661 82.038 66.8235 82.9977 66.0874C84.3448 65.0542 86.0928 64.6965 87.7176 64.3602C87.3509 64.0809 86.9842 63.8016 86.6176 63.5222C86.6549 63.8382 86.6341 63.9387 86.4212 64.1643C86.2052 64.3933 85.9189 64.5637 85.6291 64.6783C84.9053 64.9645 84.0316 65.0106 83.267 64.9068C81.684 64.6917 80.2818 63.6713 79.8683 62.0879C79.0224 58.8486 83.0931 57.4891 85.5123 56.7759C86.6091 56.4526 87.7042 56.0768 88.8169 55.8131C89.2158 55.7185 89.5489 55.6602 89.9681 55.7015C90.2045 55.7248 90.4204 55.816 90.5259 55.9793L90.8377 54.7903C89.9588 55.4132 88.7117 55.0464 88.5362 53.9252C88.338 52.659 89.9196 51.7264 90.8933 51.2875C92.1568 50.718 93.5693 50.6191 94.9323 50.5241C96.4977 50.415 98.0537 50.1044 99.6234 50.1019C100.547 50.1005 101.469 50.1762 102.387 50.273C102.85 50.3219 103.313 50.3765 103.776 50.4297C104.034 50.4594 104.292 50.4889 104.55 50.5167C104.643 50.5268 104.772 50.5581 104.861 50.5495C105.169 50.52 104.783 50.893 104.661 50.2439V49.7818C104.714 49.5053 105.052 49.4845 104.761 49.5375C104.627 49.5619 104.496 49.6011 104.361 49.6193C104.146 49.648 103.926 49.6531 103.709 49.6488C103.213 49.6389 102.715 49.5404 102.254 49.3538C101.613 49.0947 100.829 48.6062 101.463 47.9386C102.103 47.2659 103.418 47.4006 104.256 47.3766C105.421 47.3432 106.588 47.3401 107.75 47.4308C109.674 47.5807 111.544 48.0274 113.183 49.0715C114.522 49.9243 115.707 51.1645 116.328 52.6131C116.955 54.0761 116.975 55.853 116.248 57.272C116.073 57.614 115.994 57.7155 115.796 57.9192C115.522 58.2011 115.512 58.2031 115.17 58.3985C114.707 58.6638 114.135 58.8367 113.463 58.9649C113.102 59.0338 112.901 59.0594 112.622 59.09C112.249 59.131 111.875 59.1611 111.501 59.1878C110.772 59.2396 110.042 59.2768 109.314 59.3458C107.905 59.4794 106.405 59.6962 105.193 60.4845C103.279 61.7288 102.06 63.8363 101.433 65.9871C100.711 68.466 100.733 71.1479 101.458 73.6225L103.134 73.1604C102.562 71.2778 101.4 68.7901 99.1728 68.5748C97.8654 68.4484 96.6696 69.3267 95.9797 70.3668C95.1962 71.5478 95.0958 72.9088 95.3826 74.2634C95.5964 75.273 96.1749 76.5465 95.8386 77.5239C95.8187 77.5817 95.7203 77.7909 95.8175 77.5871C95.7838 77.6577 95.7521 77.7291 95.7174 77.7992C95.6207 77.9949 95.5146 78.1859 95.4036 78.3739C95.1575 78.7907 94.8865 79.1931 94.5992 79.5825C94.3537 79.9153 94.0425 80.2928 93.7062 80.6497C93.5553 80.8098 93.3997 80.9655 93.237 81.1136C93.1564 81.187 93.0739 81.2575 92.9903 81.3275C92.8854 81.4153 93.0904 81.2555 92.9845 81.3337C92.9356 81.3698 92.8864 81.4054 92.8359 81.4392C92.7608 81.4896 92.6817 81.5324 92.6052 81.5804C92.5787 81.597 92.5478 81.6071 92.5214 81.6237C92.4217 81.6866 92.6743 81.578 92.566 81.6071C92.535 81.6153 92.2875 81.6883 92.451 81.6532C92.5924 81.6229 92.4182 81.652 92.3773 81.6405C91.8581 81.4949 91.499 81.0082 91.1947 80.5858C90.1867 79.1861 89.302 77.6485 88.6939 76.0311C88.1116 74.4827 87.766 72.8112 88.2299 71.1865C88.5375 70.109 86.8609 69.6491 86.5539 70.7245Z" fill="black"/>
<path d="M117.568 60.9863C116.909 60.9897 116.251 61.1723 115.687 61.5148C115.428 61.6722 115.308 62.0413 115.479 62.3074C115.647 62.5674 115.995 62.6838 116.272 62.5153C116.399 62.438 116.531 62.37 116.668 62.311L116.529 62.3694C116.787 62.261 117.056 62.1874 117.333 62.1499L117.179 62.1706C117.308 62.1543 117.437 62.1457 117.568 62.145C117.871 62.1434 118.161 61.8797 118.147 61.5657C118.133 61.2531 117.892 60.9846 117.568 60.9863Z" fill="black"/>
<path d="M111.465 62.3228C110.878 62.0697 110.275 61.9991 109.645 62.1155C109.077 62.2203 108.537 62.5127 108.131 62.9208C107.917 63.1359 107.9 63.5281 108.131 63.7401C108.362 63.952 108.722 63.9697 108.95 63.7401C108.991 63.6992 109.032 63.6593 109.076 63.6214C109.095 63.6045 109.116 63.5888 109.135 63.5719C109.192 63.5217 109.045 63.6342 109.109 63.5923C109.2 63.5321 109.288 63.4709 109.385 63.4195C109.436 63.3923 109.489 63.3687 109.541 63.344C109.61 63.3111 109.436 63.3822 109.509 63.3583C109.533 63.3503 109.557 63.3401 109.581 63.3317C109.69 63.2934 109.802 63.2628 109.915 63.2401C109.94 63.2351 109.965 63.2304 109.99 63.2261C110.009 63.223 110.099 63.209 110.009 63.2225C109.918 63.2359 110.008 63.2238 110.027 63.2221C110.059 63.2192 110.091 63.2169 110.123 63.2152C110.232 63.2098 110.341 63.2114 110.45 63.2205C110.475 63.2227 110.501 63.2259 110.526 63.2281C110.604 63.2351 110.41 63.2065 110.486 63.2236C110.542 63.2361 110.599 63.2445 110.655 63.2583C110.705 63.2705 110.754 63.2843 110.803 63.2999C110.843 63.3126 111.035 63.3902 110.88 63.3233C111.029 63.3875 111.163 63.4266 111.327 63.3817C111.461 63.3447 111.607 63.2408 111.673 63.1154C111.805 62.8659 111.762 62.4509 111.465 62.3228Z" fill="black"/>
<path d="M115.688 73.2821C115.466 73.3077 115.242 73.3163 115.017 73.3049C114.958 73.3018 114.898 73.2975 114.839 73.2918C114.809 73.2889 114.779 73.2858 114.75 73.2823C114.83 73.2937 114.836 73.2946 114.77 73.285C114.667 73.2676 114.564 73.2496 114.462 73.2259C114.246 73.1757 114.027 73.1113 113.823 73.0208C113.953 73.0784 113.826 73.0204 113.798 73.0068C113.743 72.9815 113.69 72.9549 113.637 72.9271C113.531 72.8715 113.428 72.8107 113.328 72.7462C113.072 72.5824 112.677 72.6851 112.535 72.954C112.383 73.2411 112.47 73.5719 112.743 73.7467C113.604 74.2983 114.671 74.5574 115.688 74.4408C115.988 74.4064 116.283 74.199 116.268 73.8614C116.255 73.5772 116.011 73.2451 115.688 73.2821Z" fill="black"/>
<path d="M110.587 66.1541C110.606 66.1371 110.626 66.1207 110.647 66.1047L110.53 66.1953C110.618 66.1286 110.714 66.0741 110.816 66.0309L110.677 66.0892C110.786 66.045 110.899 66.015 111.015 65.9988L110.861 66.0195C110.978 66.005 111.094 66.0048 111.211 66.0198L111.057 65.999C111.141 66.0111 111.222 66.0307 111.303 66.0583C111.439 66.1056 111.627 66.0712 111.749 65.9999C111.869 65.9296 111.984 65.7918 112.015 65.6537C112.049 65.5054 112.042 65.3389 111.957 65.2073C111.872 65.0758 111.759 64.9924 111.611 64.9411C111.295 64.832 110.955 64.8318 110.63 64.894C110.307 64.9559 110.015 65.122 109.767 65.3348C109.66 65.4274 109.598 65.6071 109.598 65.7445C109.598 65.8866 109.661 66.0563 109.767 66.1542C109.878 66.2555 110.023 66.3307 110.177 66.3238C110.337 66.3167 110.465 66.2588 110.587 66.1541Z" fill="black"/>
<path d="M117.169 65.0622C117.289 64.9927 117.413 64.9307 117.54 64.8764L117.402 64.9348C117.623 64.8422 117.852 64.7738 118.088 64.7308C118.224 64.706 118.367 64.5794 118.434 64.4645C118.507 64.3403 118.538 64.1573 118.493 64.0181C118.447 63.8779 118.36 63.7427 118.226 63.6719L118.088 63.6135C117.985 63.5859 117.883 63.5859 117.78 63.6135C117.361 63.6899 116.952 63.8483 116.585 64.0618C116.459 64.1348 116.357 64.268 116.318 64.408C116.28 64.5467 116.297 64.7313 116.377 64.8544C116.456 64.9781 116.575 65.087 116.723 65.1206C116.875 65.1553 117.032 65.1422 117.169 65.0622Z" fill="black"/>
<path d="M215.361 233.256C214.71 234.667 214.087 236.341 214.786 237.854C215.101 238.535 215.678 239.031 216.455 239.043C217.287 239.055 217.992 238.401 217.756 237.536C217.624 237.053 217.149 236.846 216.687 236.929C214.656 237.293 213.176 239.337 213.194 241.355C213.212 243.534 214.99 245.113 217.065 245.366C218.226 245.508 219.326 245.178 220.242 244.466C220.613 244.177 220.545 243.54 220.242 243.237C219.876 242.871 219.385 242.948 219.013 243.237C218.459 243.668 217.601 243.753 216.911 243.587C216.129 243.398 215.456 242.96 215.111 242.22C214.807 241.567 214.902 240.694 215.27 240.012C215.682 239.251 216.305 238.756 217.149 238.605C216.792 238.402 216.436 238.2 216.08 237.998C216.042 237.682 216.139 237.473 216.37 237.37C216.506 237.304 216.521 237.288 216.413 237.322C216.409 237.338 216.562 237.249 216.415 237.303C216.498 237.315 216.507 237.313 216.445 237.298C216.386 237.28 216.392 237.283 216.463 237.309C216.464 237.292 216.528 237.487 216.453 237.288C216.335 236.976 216.212 236.756 216.212 236.413C216.21 235.623 216.536 234.839 216.861 234.133C217.058 233.707 216.982 233.197 216.55 232.944C216.175 232.725 215.558 232.827 215.361 233.256Z" fill="black"/>
<path d="M259.82 193.975C261.672 195.428 264.413 195.61 266.33 194.146C265.979 193.691 265.628 193.236 265.277 192.781C264.662 193.537 264.49 194.492 264.823 195.418C265.183 196.415 265.932 197.104 266.915 197.47C269.106 198.286 271.29 196.968 273.498 197.155C273.966 197.195 274.367 196.727 274.367 196.286C274.367 195.783 273.967 195.457 273.498 195.417C271.68 195.263 269.953 196.161 268.145 195.979C267.541 195.918 266.948 195.679 266.645 195.214C266.522 195.025 266.41 194.728 266.395 194.592C266.375 194.421 266.388 194.32 266.41 194.235C266.43 194.159 266.472 194.051 266.506 194.01C266.779 193.674 266.861 193.23 266.574 192.869C266.331 192.564 265.801 192.379 265.453 192.645C264.206 193.597 262.329 193.75 261.049 192.746C260.68 192.457 260.18 192.386 259.82 192.746C259.519 193.047 259.449 193.684 259.82 193.975Z" fill="black"/>
</svg>
