<svg width="590" height="476" viewBox="0 0 590 476" fill="none" xmlns="http://www.w3.org/2000/svg">
<g clip-path="url(#clip0_5372_2671)">
<path d="M579.486 114.646L588.486 141.188C589.485 145.162 588.528 150.063 585.317 155.345L422.638 422.927C413.626 437.751 393.273 449.599 377.235 449.299L242.536 446.784C234.516 446.634 229.227 443.478 227.151 438.508L217.963 411.589L579.486 114.646V114.646Z" fill="#00B2FF"/>
<path d="M377.825 450.44C377.619 450.44 377.417 450.439 377.213 450.435L242.514 447.919C234.284 447.765 228.455 444.578 226.103 438.945C226.093 438.922 226.084 438.898 226.076 438.874L216.887 411.955C216.813 411.737 216.807 411.501 216.87 411.279C216.933 411.056 217.063 410.859 217.241 410.712L578.764 113.769C578.906 113.653 579.074 113.573 579.254 113.535C579.434 113.498 579.62 113.505 579.797 113.555C579.974 113.606 580.136 113.698 580.269 113.825C580.402 113.951 580.503 114.108 580.562 114.282L589.563 140.824C589.573 140.853 589.581 140.882 589.589 140.912C590.704 145.353 589.563 150.548 586.288 155.934L423.61 423.516C414.515 438.476 394.101 450.44 377.825 450.44L377.825 450.44ZM228.214 438.105C230.209 442.835 235.301 445.514 242.557 445.65L377.256 448.165C377.449 448.169 377.644 448.171 377.839 448.171C393.4 448.171 412.941 436.692 421.668 422.338L584.346 154.756C587.288 149.918 588.342 145.338 587.396 141.508L578.938 116.566L219.293 411.967L228.214 438.105Z" fill="#2D2D2D"/>
<path d="M531.764 211.588L557.068 169.967C558.914 166.93 561.431 167.591 562.69 171.442C563.949 175.294 563.473 180.877 561.627 183.914L536.323 225.535C534.477 228.572 531.96 227.912 530.701 224.06C529.442 220.209 529.918 214.625 531.764 211.588Z" fill="#00B2FF"/>
<path d="M533.76 228.577C533.638 228.577 533.526 228.57 533.425 228.558C531.784 228.369 530.432 226.896 529.62 224.412C528.251 220.224 528.766 214.332 530.792 210.999L556.096 169.377C557.519 167.036 559.132 166.847 559.965 166.944C561.606 167.133 562.958 168.606 563.77 171.09C565.139 175.278 564.624 181.17 562.598 184.503L537.294 226.124C536.043 228.182 534.646 228.576 533.76 228.576V228.577ZM532.734 212.177C531.069 214.916 530.633 220.196 531.78 223.708C532.376 225.53 533.179 226.245 533.686 226.303C534.176 226.356 534.801 225.853 535.352 224.946L560.656 183.325C562.321 180.587 562.758 175.306 561.61 171.794C561.014 169.973 560.211 169.258 559.704 169.199C559.21 169.144 558.589 169.65 558.038 170.556L532.734 212.177H532.734Z" fill="#2D2D2D"/>
<path d="M508.588 249.708L520.294 230.454C522.14 227.417 524.657 228.078 525.916 231.93C527.176 235.781 526.7 241.365 524.854 244.402L513.148 263.656C511.302 266.692 508.785 266.032 507.526 262.18C506.266 258.329 506.742 252.745 508.588 249.708Z" fill="#00B2FF"/>
<path d="M510.585 266.696C510.463 266.696 510.351 266.688 510.25 266.677C508.609 266.488 507.258 265.015 506.446 262.531C505.076 258.343 505.591 252.451 507.618 249.118L519.324 229.864C520.747 227.522 522.358 227.333 523.193 227.431C524.834 227.62 526.185 229.092 526.997 231.576C528.366 235.764 527.852 241.656 525.825 244.989L514.12 264.244C512.869 266.301 511.472 266.696 510.585 266.696ZM509.559 250.296C507.894 253.035 507.458 258.315 508.605 261.827C509.201 263.649 510.004 264.364 510.51 264.422C511.003 264.478 511.626 263.972 512.177 263.066L523.882 243.811C525.547 241.073 525.984 235.792 524.836 232.281C524.241 230.459 523.438 229.744 522.931 229.685C522.44 229.63 521.816 230.136 521.265 231.042L509.559 250.296ZM317.435 439.176L295.708 438.77C293.769 438.733 291.634 436.981 290.94 434.854C290.245 432.728 291.252 431.034 293.191 431.071L314.918 431.477C316.856 431.513 318.991 433.266 319.686 435.392C320.381 437.518 319.373 439.212 317.435 439.176Z" fill="#2D2D2D"/>
<path d="M317.496 440.312C317.468 440.312 317.44 440.312 317.413 440.311L295.686 439.905C293.265 439.86 290.705 437.797 289.859 435.208C289.377 433.736 289.534 432.309 290.287 431.292C290.951 430.395 291.984 429.898 293.212 429.937L314.938 430.343C317.359 430.388 319.919 432.451 320.766 435.04C321.247 436.512 321.091 437.939 320.337 438.956C319.688 439.832 318.681 440.312 317.496 440.312ZM293.128 432.205C292.67 432.205 292.328 432.352 292.114 432.642C291.808 433.054 291.773 433.751 292.019 434.503C292.565 436.174 294.264 437.609 295.729 437.636L317.455 438.041C317.936 438.045 318.29 437.904 318.511 437.606C318.816 437.193 318.851 436.497 318.605 435.744C318.059 434.074 316.36 432.639 314.896 432.612L293.169 432.206L293.128 432.205Z" fill="#2D2D2D"/>
<path d="M368.367 423.244L233.668 420.728C217.63 420.428 212.512 408.104 222.179 393.293L396.666 125.931C405.121 112.976 423.992 102.758 438.864 103.036L563.76 105.368C578.631 105.646 584.333 116.323 576.449 129.289L413.771 396.872C404.759 411.695 384.406 423.543 368.367 423.244Z" fill="white"/>
<path d="M368.957 424.384C368.752 424.384 368.549 424.382 368.346 424.378L233.647 421.863C226.017 421.72 220.368 418.913 217.74 413.957C214.776 408.368 216.046 400.611 221.226 392.673L395.714 125.312C404.324 112.119 423.689 101.618 438.885 101.901L563.78 104.234C571.313 104.375 576.915 107.089 579.553 111.878C582.254 116.78 581.497 123.173 577.42 129.879L414.741 397.461C405.646 412.421 385.233 424.384 368.957 424.385L368.957 424.384ZM438.266 104.165C423.855 104.165 405.74 114.106 397.618 126.551L223.13 393.913C218.415 401.138 217.182 408.056 219.748 412.895C221.972 417.088 226.923 419.467 233.689 419.593L368.388 422.109C368.581 422.112 368.777 422.114 368.971 422.114C384.533 422.115 404.073 410.636 412.8 396.282L575.479 128.7C579.116 122.718 579.856 117.132 577.563 112.972C575.333 108.925 570.423 106.628 563.738 106.503L438.843 104.17C438.65 104.167 438.458 104.165 438.266 104.165L438.266 104.165Z" fill="#2D2D2D"/>
<path d="M507.909 127.264L466.134 126.484C462.002 126.407 460.506 123.435 462.789 119.852C465.069 116.275 470.253 113.443 474.372 113.52L516.014 114.298C520.133 114.375 521.668 117.333 519.439 120.91C517.205 124.494 512.042 127.341 507.909 127.264L507.909 127.264Z" fill="#00B2FF"/>
<path d="M508.077 128.4C508.013 128.4 507.951 128.4 507.888 128.399L466.113 127.619C463.727 127.574 461.944 126.676 461.091 125.088C460.21 123.449 460.473 121.374 461.831 119.242C464.336 115.313 469.843 112.302 474.394 112.385L516.036 113.163C518.423 113.208 520.214 114.108 521.077 115.696C521.964 117.326 521.724 119.391 520.403 121.51C517.976 125.404 512.595 128.4 508.077 128.401V128.4ZM474.21 114.653C470.531 114.653 465.772 117.286 463.748 120.462C462.864 121.849 462.625 123.144 463.093 124.015C463.54 124.847 464.627 125.321 466.155 125.349L507.93 126.129C511.63 126.195 516.465 123.534 518.474 120.31C519.331 118.935 519.552 117.648 519.081 116.78C518.624 115.94 517.527 115.461 515.993 115.432L474.351 114.655C474.304 114.654 474.257 114.653 474.21 114.653ZM241.749 141.881C240.768 132.251 285.199 125.512 286.965 137.307C288.731 149.102 242.73 151.51 241.749 141.881Z" fill="#2D2D2D"/>
<path d="M259.934 148.973C253.861 148.973 248.436 148.177 245.049 146.72C242.309 145.541 240.818 143.952 240.619 141.995C240.015 136.072 251.92 131.846 263.237 130.427C274.034 129.072 287.022 130.018 288.088 137.139C288.32 138.689 287.998 140.996 285.146 143.191C281.438 146.044 274.305 148.071 265.577 148.751C263.663 148.901 261.769 148.973 259.934 148.973V148.973ZM242.879 141.765C243.015 143.105 244.623 144.066 245.948 144.635C254.263 148.211 276.378 147.072 283.759 141.392C285.369 140.154 286.05 138.872 285.841 137.475C285.108 132.58 274.057 131.358 263.52 132.679C251.778 134.152 242.518 138.228 242.879 141.765Z" fill="#2D2D2D"/>
<path d="M295.058 209.438C250.668 207.496 246.179 145.649 250.054 109.524C253.843 84.7706 289.741 88.9771 287.666 113.955C285.609 131.078 286.733 156.531 294.405 169.674C300.751 152.931 302.43 135.382 316.815 120.493C324.159 113.054 336.148 112.971 343.594 120.306C351.041 127.641 351.125 139.618 343.782 147.057C339.725 151.166 337.035 160.32 334.662 168.396C328.883 191.521 317.502 209.588 295.058 209.438Z" fill="white"/>
<path d="M295.333 210.574C295.238 210.574 295.145 210.574 295.05 210.573L295.008 210.572C283.179 210.054 273.335 205.323 265.749 196.51C248.594 176.577 245.81 138.444 248.925 109.403L248.932 109.353C250.999 95.8485 261.921 90.8733 271.196 91.9636C280.467 93.0547 289.93 100.431 288.799 114.049L288.795 114.09C286.754 131.084 288.033 154.005 294.215 166.886C295.511 163.215 296.635 159.482 297.727 155.849C301.429 143.546 305.257 130.823 315.998 119.705C319.771 115.883 324.797 113.762 330.159 113.724L330.303 113.724C335.611 113.724 340.609 115.771 344.393 119.498C348.21 123.258 350.333 128.279 350.371 133.634C350.408 138.99 348.356 144.04 344.591 147.853C340.739 151.756 338.093 160.752 335.759 168.693C332.556 181.502 327.916 191.493 321.97 198.385C314.994 206.473 306.033 210.573 295.333 210.573L295.333 210.574ZM295.086 208.303C314.185 208.432 326.774 195.278 333.56 168.122L333.572 168.077C335.984 159.87 338.716 150.572 342.973 146.26C346.311 142.878 348.132 138.4 348.098 133.651C348.065 128.901 346.182 124.449 342.797 121.114C339.411 117.78 334.935 115.95 330.174 115.995C325.42 116.028 320.963 117.909 317.625 121.291C307.274 132.003 303.694 143.904 299.903 156.503C298.562 160.964 297.174 165.575 295.468 170.076C295.392 170.277 295.261 170.452 295.089 170.581C294.918 170.71 294.713 170.788 294.499 170.805C294.285 170.824 294.071 170.781 293.88 170.682C293.69 170.582 293.532 170.431 293.424 170.246C285.641 156.913 284.398 131.666 286.536 113.841C287.531 101.737 279.146 95.1846 270.93 94.2176C262.714 93.2522 253.03 97.6739 251.181 109.67C248.121 138.235 250.794 175.652 267.473 195.029C274.628 203.343 283.919 207.809 295.086 208.303L295.086 208.303Z" fill="#2D2D2D"/>
<path d="M295.227 213.22C282.775 213.22 272.624 203.195 272.509 190.731C272.406 179.598 280.343 170.264 290.91 168.233C292.176 165.23 293.638 160.254 294.689 156.676C298.259 144.525 302.703 129.401 314.118 117.837C322.93 108.911 337.318 108.81 346.254 117.613C355.19 126.415 355.29 140.787 346.479 149.713C343.091 153.145 340.543 161.814 338.296 169.462C335.846 177.801 333.313 186.423 328.558 194.089C320.985 206.298 309.224 213.092 295.442 213.219L295.227 213.22H295.227Z" fill="white"/>
<path d="M295.227 214.355C282.194 214.355 271.493 203.762 271.373 190.742C271.268 179.433 279.103 169.649 290.088 167.243C291.276 164.265 292.609 159.725 293.599 156.357C297.205 144.083 301.694 128.808 313.31 117.041C317.784 112.508 323.759 109.987 330.132 109.942C336.508 109.9 342.514 112.335 347.052 116.805C351.59 121.275 354.113 127.243 354.158 133.609C354.202 139.975 351.763 145.977 347.288 150.51C344.1 153.739 341.596 162.262 339.386 169.782C336.914 178.194 334.359 186.891 329.524 194.687C321.738 207.239 309.638 214.224 295.452 214.355L295.227 214.355ZM330.303 112.211L330.147 112.211C324.381 112.252 318.976 114.533 314.927 118.634C303.713 129.995 299.314 144.966 295.779 156.995C294.711 160.631 293.248 165.609 291.957 168.673C291.884 168.845 291.77 168.996 291.625 169.114C291.48 169.231 291.308 169.311 291.125 169.347C280.9 171.312 273.548 180.301 273.645 190.72C273.754 202.501 283.435 212.085 295.227 212.085L295.432 212.084C308.81 211.961 320.231 205.358 327.592 193.491C332.265 185.956 334.777 177.41 337.205 169.145C339.491 161.366 342.081 152.552 345.669 148.916C349.718 144.815 351.926 139.384 351.885 133.624C351.845 127.864 349.562 122.465 345.456 118.421C341.387 114.413 336.011 112.211 330.303 112.211L330.303 112.211Z" fill="#2D2D2D"/>
<path d="M295.065 213.221C284.187 213.27 276.324 210.756 268.531 204.712C262.641 200.144 257.583 193.818 253.5 185.909C246.005 171.394 242.973 153.955 241.749 141.881C256.185 150.323 279.291 145.766 286.965 137.308C288.715 154.575 293.019 164.524 295.533 167.884" fill="white"/>
<path d="M294.756 214.356C283.796 214.356 275.73 211.732 267.834 205.608C261.812 200.938 256.65 194.485 252.49 186.428C244.913 171.756 241.852 154.167 240.618 141.995C240.597 141.786 240.634 141.576 240.725 141.387C240.816 141.198 240.957 141.038 241.134 140.925C241.311 140.812 241.515 140.749 241.725 140.745C241.935 140.741 242.142 140.795 242.322 140.901C256.694 149.305 279.107 144.278 286.122 136.545C286.27 136.382 286.461 136.266 286.674 136.21C286.886 136.154 287.11 136.161 287.319 136.23C287.527 136.298 287.712 136.426 287.849 136.597C287.987 136.767 288.072 136.975 288.095 137.193C289.839 154.409 294.163 164.158 296.442 167.204C296.623 167.445 296.7 167.748 296.657 168.046C296.614 168.344 296.454 168.613 296.213 168.793C296.093 168.882 295.957 168.947 295.812 168.984C295.668 169.02 295.517 169.028 295.37 169.007C295.072 168.964 294.803 168.804 294.622 168.563C291.758 164.735 287.893 154.956 286.085 139.706C281.785 143.28 274.754 146.026 267.043 147.057C258.263 148.23 249.68 147.077 243.107 143.89C244.454 155.728 247.524 171.861 254.509 185.388C258.516 193.149 263.468 199.349 269.227 203.815C276.764 209.66 284.5 212.136 295.059 212.085H295.065C295.366 212.085 295.655 212.204 295.869 212.416C296.082 212.628 296.203 212.917 296.203 213.218C296.204 213.519 296.085 213.808 295.873 214.021C295.66 214.234 295.371 214.355 295.07 214.355L294.756 214.356H294.756Z" fill="#2D2D2D"/>
<path d="M265.414 97.3852C258.567 85.3884 264.444 76.7946 272.835 80.8793C281.227 84.9636 280.277 93.31 280.703 96.111C281.129 98.9121 273.808 101.793 270.234 94.9594C268.831 92.2772 267.703 89.5609 267.703 89.5609" fill="white"/>
<path d="M276.357 100.315C273.909 100.315 271.106 99.078 269.226 95.4847C267.817 92.7892 266.7 90.1085 266.653 89.9957C266.595 89.8579 266.565 89.71 266.564 89.5605C266.564 89.411 266.593 89.2629 266.649 89.1246C266.706 88.9863 266.79 88.8606 266.896 88.7547C267.001 88.6488 267.127 88.5648 267.265 88.5075C267.403 88.4502 267.552 88.4208 267.701 88.4209C267.851 88.421 267.999 88.4506 268.137 88.5081C268.275 88.5655 268.401 88.6497 268.506 88.7558C268.612 88.8618 268.695 88.9876 268.752 89.126C268.763 89.1525 269.879 91.8298 271.241 94.4341C273.067 97.9264 275.95 98.436 277.861 97.8106C278.973 97.4478 279.647 96.7267 279.579 96.2814C279.507 95.807 279.472 95.2305 279.432 94.5628C279.219 91.0149 278.864 85.0761 272.338 81.8994C269.472 80.5049 266.886 80.7088 265.244 82.4597C263.065 84.7822 262.578 90.124 266.401 96.8232C266.547 97.0845 266.584 97.393 266.504 97.6815C266.424 97.97 266.233 98.2151 265.972 98.3635C265.712 98.5118 265.403 98.5513 265.114 98.4734C264.824 98.3955 264.577 98.2065 264.427 97.9476C260.56 91.1727 260.23 84.4844 263.586 80.9074C265.923 78.4174 269.566 78.025 273.333 79.8591C281.053 83.6169 281.474 90.6491 281.701 94.4273C281.738 95.0394 281.769 95.5683 281.826 95.9406C282.078 97.6029 280.739 99.2588 278.568 99.9681C277.897 100.188 277.145 100.316 276.357 100.316V100.315Z" fill="#2D2D2D"/>
<path d="M255.056 101.577C248.721 89.3646 255.777 82.4237 263.449 87.7591C269.488 91.9588 269.653 97.2915 269.978 100.083C270.721 106.482 261.436 108.819 259.138 101.459C258.236 98.5695 256.85 95.3886 256.85 95.3886" fill="white"/>
<path d="M264.684 107.158C262.039 107.158 259.24 105.598 258.053 101.797C257.181 99.0023 255.822 95.8729 255.809 95.8415C255.691 95.5659 255.687 95.2549 255.798 94.9764C255.909 94.6979 256.126 94.4744 256.401 94.3549C256.676 94.2354 256.987 94.2294 257.267 94.3383C257.546 94.4472 257.771 94.6621 257.893 94.9362C257.95 95.0686 259.313 98.2071 260.223 101.121C261.263 104.452 263.773 105.18 265.607 104.792C267.44 104.404 269.154 102.838 268.849 100.215C268.827 100.025 268.806 99.824 268.784 99.6129C268.476 96.7067 268.011 92.3148 262.8 88.6913C260.065 86.7888 257.279 86.5588 255.532 88.0917C253.568 89.813 252.53 94.2412 256.065 101.056C256.204 101.323 256.23 101.634 256.139 101.921C256.048 102.208 255.847 102.447 255.579 102.586C255.312 102.724 255 102.751 254.713 102.66C254.426 102.569 254.186 102.368 254.048 102.1C249.913 94.1296 251.329 88.7568 254.033 86.3859C256.605 84.13 260.462 84.2998 264.099 86.8289C270.161 91.0452 270.735 96.4635 271.043 99.3746C271.065 99.5781 271.085 99.7715 271.106 99.9538C271.573 103.974 268.827 106.431 266.078 107.014C265.619 107.111 265.152 107.16 264.684 107.16V107.158Z" fill="#2D2D2D"/>
<path d="M249.185 120.842C249.523 114.023 247.689 108.744 246.863 103.911C245.09 93.5322 251.207 90.3865 257.56 93.7153C263.815 96.9931 264.09 107.963 264.405 110.74C264.719 113.518 256.449 116.116 253.107 109.177C251.796 106.453 251.478 103.477 251.478 103.477C252.329 107.228 252.533 109.95 255.775 112.398" fill="white"/>
<path d="M249.185 121.977C249.167 121.977 249.147 121.977 249.128 121.975C248.979 121.968 248.833 121.931 248.698 121.868C248.563 121.804 248.443 121.714 248.342 121.604C248.242 121.493 248.165 121.364 248.115 121.224C248.065 121.083 248.043 120.934 248.05 120.786C248.291 115.931 247.375 111.784 246.567 108.125C246.259 106.73 245.967 105.414 245.743 104.102C244.826 98.7343 245.87 94.6546 248.682 92.6132C251.139 90.8302 254.567 90.8654 258.087 92.71C264.263 95.9462 265.085 105.492 265.437 109.569C265.473 109.987 265.503 110.34 265.534 110.612C265.718 112.238 264.303 113.772 262.014 114.431C259.87 115.049 257.301 114.816 255.148 113.344C254.499 112.898 253.914 112.363 253.412 111.756C252.318 110.501 251.722 109.165 251.3 107.733C250.566 105.565 250.359 103.698 250.349 103.598C250.317 103.31 250.397 103.02 250.572 102.788C250.747 102.557 251.005 102.402 251.291 102.354C251.578 102.307 251.872 102.37 252.113 102.533C252.353 102.695 252.523 102.943 252.586 103.226C252.691 103.687 252.786 104.133 252.878 104.564C253.067 105.451 253.237 106.25 253.446 106.985C253.639 107.565 253.868 108.133 254.132 108.685C254.429 109.303 254.769 109.833 255.139 110.282C255.502 110.696 255.936 111.097 256.46 111.492L256.488 111.515C258.096 112.589 259.946 112.665 261.384 112.251C262.662 111.883 263.313 111.2 263.276 110.868C263.243 110.58 263.211 110.206 263.173 109.764C262.854 106.058 262.106 97.3796 257.032 94.7212C254.305 93.2923 251.749 93.1939 250.018 94.4503C247.942 95.9575 247.219 99.2496 247.983 103.721C248.198 104.979 248.483 106.27 248.786 107.637C249.625 111.436 250.576 115.741 250.319 120.9C250.305 121.19 250.179 121.464 249.968 121.665C249.757 121.866 249.477 121.978 249.185 121.978V121.977Z" fill="#2D2D2D"/>
<path d="M287.044 120.842C291.561 112.595 287.305 101.977 285.852 96.1058C283.272 85.6794 274.06 95.0776 276.331 103.063C277.143 105.916 277.763 109.083 277.763 109.083C277.763 109.083 270.023 114.646 274.444 121.642" fill="white"/>
<path d="M274.445 122.777C274.253 122.777 274.064 122.729 273.895 122.636C273.727 122.544 273.585 122.41 273.483 122.248C269.788 116.401 273.568 111.036 276.508 108.618C276.283 107.541 275.805 105.366 275.238 103.373C273.981 98.9547 275.838 94.4989 278.094 92.2287C279.627 90.6874 281.416 90.0552 283.004 90.4933C284.291 90.8489 286.021 92.0641 286.955 95.8336C287.171 96.706 287.457 97.7101 287.76 98.7735C289.486 104.831 292.095 113.984 288.04 121.387C287.895 121.651 287.652 121.847 287.362 121.932C287.073 122.016 286.762 121.983 286.498 121.838C286.234 121.694 286.037 121.45 285.953 121.161C285.868 120.873 285.902 120.562 286.046 120.298C289.654 113.711 287.296 105.436 285.574 99.3951C285.266 98.3124 284.974 97.2894 284.749 96.3788C284.226 94.2685 283.392 92.9558 282.398 92.6815C281.624 92.4681 280.644 92.8858 279.707 93.8286C277.844 95.7027 276.461 99.3701 277.424 102.753C278.239 105.619 278.852 108.735 278.878 108.866C278.92 109.079 278.899 109.299 278.819 109.501C278.739 109.703 278.603 109.878 278.427 110.005C278.149 110.206 271.615 115.041 275.404 121.036C275.512 121.208 275.573 121.405 275.579 121.608C275.585 121.811 275.537 122.012 275.439 122.19C275.341 122.368 275.197 122.516 275.022 122.619C274.847 122.723 274.647 122.777 274.444 122.777L274.445 122.777ZM260.763 168.186C255.319 168.186 249.77 167.189 244.904 164.635C244.77 164.567 244.652 164.472 244.555 164.358C244.458 164.243 244.384 164.111 244.339 163.968C244.294 163.825 244.277 163.674 244.291 163.525C244.304 163.375 244.347 163.23 244.417 163.097C244.486 162.964 244.582 162.847 244.698 162.751C244.813 162.655 244.947 162.584 245.09 162.54C245.234 162.496 245.385 162.481 245.534 162.496C245.684 162.51 245.829 162.555 245.961 162.626C255.479 167.623 267.92 166.21 276.389 163.222C282.822 160.953 287.672 157.57 289.046 154.394C289.104 154.256 289.19 154.13 289.297 154.025C289.404 153.92 289.53 153.837 289.67 153.781C289.809 153.725 289.958 153.697 290.108 153.699C290.258 153.701 290.407 153.732 290.545 153.792C290.682 153.851 290.807 153.938 290.911 154.046C291.016 154.154 291.098 154.281 291.152 154.421C291.207 154.561 291.233 154.71 291.23 154.86C291.226 155.01 291.193 155.158 291.132 155.295C289.49 159.089 284.261 162.853 277.145 165.363C272.495 167.003 266.691 168.186 260.763 168.186ZM392.879 196.896C398.628 194.626 404.973 193.603 411.55 194.138C434.482 196.003 451.559 216.084 449.692 238.992C449.207 244.944 449.608 255.247 451.231 268.076C452.149 275.333 375.094 301.788 370.412 291.344C362.203 273.036 354.805 247.524 357.608 229.075" fill="#2D2D2D"/>
<path d="M377.894 294.883C373.535 294.883 370.365 294.018 369.374 291.808C361.269 273.73 353.627 247.712 356.485 228.904C356.506 228.756 356.557 228.614 356.634 228.485C356.71 228.357 356.812 228.245 356.932 228.156C357.053 228.067 357.189 228.002 357.335 227.966C357.48 227.93 357.631 227.923 357.779 227.945C357.927 227.968 358.07 228.019 358.198 228.097C358.326 228.174 358.437 228.276 358.526 228.397C358.614 228.518 358.678 228.655 358.713 228.8C358.748 228.946 358.754 229.097 358.731 229.245C355.947 247.567 363.475 273.097 371.448 290.88C371.818 291.704 374.225 294.165 389.684 291.22C400.842 289.095 415.921 284.603 429.036 279.498C446.204 272.815 450.064 269.081 450.103 268.206C448.583 256.198 448.02 245.511 448.559 238.899C450.372 216.652 433.728 197.079 411.457 195.269C405.201 194.759 399.092 195.663 393.297 197.951C393.017 198.062 392.704 198.057 392.427 197.937C392.151 197.818 391.933 197.593 391.822 197.313C391.712 197.033 391.717 196.721 391.837 196.445C391.956 196.168 392.181 195.951 392.461 195.84C398.583 193.423 405.036 192.47 411.641 193.006C435.161 194.918 452.739 215.589 450.824 239.083C450.305 245.451 450.879 256.236 452.358 267.933C452.491 268.981 452.843 271.764 437.046 278.658C428.026 282.595 416.116 286.773 405.188 289.834C395.869 292.445 385.208 294.882 377.894 294.882V294.883Z" fill="#2D2D2D"/>
<path d="M385.793 100.771C389.888 99.9744 419.925 93.4927 430.026 103.052C440.127 112.611 440.885 204.71 436.405 213.777C433.337 219.987 409.616 221.437 377.312 212.956C360.879 208.642 347.646 211.345 340.085 212.715C340.085 212.715 344.167 165.186 336.326 152.174C328.484 139.163 330.818 112.094 338.054 109.955C345.29 107.817 359.601 106.009 359.601 106.009L385.793 100.771V100.771Z" fill="#00B2FF"/>
<path d="M417.159 220.013C405.906 220.013 391.69 217.904 377.023 214.054C361.451 209.965 348.752 212.286 341.165 213.672L340.288 213.832C340.117 213.863 339.94 213.854 339.772 213.806C339.605 213.758 339.45 213.672 339.321 213.554C339.192 213.437 339.092 213.291 339.028 213.129C338.964 212.967 338.939 212.792 338.953 212.618C338.994 212.147 342.915 165.308 335.353 152.76C329.303 142.722 328.976 124.442 332.725 114.804C334.024 111.462 335.709 109.465 337.732 108.867C344.851 106.763 358.405 105.017 359.419 104.888L385.571 99.6581L385.577 99.657L386.192 99.5352C401.929 96.3947 422.444 94.3125 430.808 102.228C437.371 108.439 439.297 143.691 439.82 158.559C440.641 181.904 439.97 209.129 437.425 214.28C435.017 219.155 424.115 219.963 417.832 220.01C417.609 220.012 417.384 220.013 417.159 220.013L417.159 220.013ZM359.085 209.475C364.607 209.475 370.832 210.081 377.601 211.858C410.935 220.61 432.928 218.252 435.387 213.275C437.454 209.092 438.443 184.072 437.548 158.639C436.495 128.71 433.313 107.726 429.245 103.876C423.27 98.2213 408.138 97.4699 386.637 101.761L386.011 101.885L359.825 107.122C359.798 107.127 359.772 107.132 359.745 107.135C359.603 107.153 345.44 108.956 338.377 111.044C337.1 111.421 335.845 113.049 334.843 115.626C331.357 124.588 331.671 142.249 337.3 151.59C344.544 163.61 341.97 203.031 341.336 211.334C345.785 210.523 351.825 209.475 359.085 209.475Z" fill="#2D2D2D"/>
<path d="M385.793 100.771C382.166 118.497 355.589 118.846 359.602 106.009L354.705 81.579L380.897 76.3408L385.793 100.771Z" fill="white"/>
<path d="M368.085 116.073C364.742 116.073 361.778 115.105 359.98 113.283C358.158 111.437 357.613 108.844 358.432 105.956L353.591 81.8017C353.532 81.5066 353.593 81.2001 353.76 80.9497C353.927 80.6992 354.187 80.5253 354.483 80.4663L380.674 75.2281C380.97 75.1691 381.277 75.2297 381.527 75.3966C381.778 75.5636 381.952 75.8232 382.011 76.1183L386.908 100.548C386.938 100.697 386.937 100.85 386.907 100.998C385.502 107.864 380.497 113.197 373.52 115.264C371.68 115.809 369.831 116.073 368.085 116.073H368.085ZM356.042 82.4691L360.715 105.787C360.753 105.973 360.742 106.166 360.686 106.348C359.99 108.574 360.297 110.371 361.598 111.69C363.762 113.883 368.293 114.445 372.873 113.088C378.956 111.286 383.337 106.688 384.633 100.765L380.005 77.6769L356.042 82.4691Z" fill="#2D2D2D"/>
<path d="M329.152 153.053C331.435 163.869 338.549 194.127 327.69 211.411L344.929 215.387C344.929 215.387 359.529 195.38 359.529 171.179C359.529 150.83 357.923 138.739 357.923 138.739C353.702 125.692 354.142 113.61 358.904 102.422C354.426 103.845 324.433 107.279 314.118 117.837" fill="white"/>
<path d="M344.929 216.522C344.845 216.522 344.759 216.512 344.674 216.492L327.434 212.517C327.258 212.476 327.094 212.394 326.955 212.277C326.817 212.16 326.709 212.011 326.64 211.844C326.571 211.677 326.542 211.496 326.558 211.315C326.573 211.135 326.631 210.961 326.728 210.808C336.88 194.648 330.906 166.704 328.356 154.771C328.243 154.243 328.137 153.748 328.04 153.287C327.978 152.993 328.035 152.685 328.2 152.433C328.364 152.181 328.622 152.004 328.917 151.942C329.212 151.88 329.519 151.938 329.772 152.102C330.024 152.266 330.201 152.524 330.263 152.818C330.36 153.277 330.466 153.771 330.578 154.297C333.118 166.178 338.976 193.582 329.458 210.653L344.434 214.107C346.814 210.594 358.393 192.401 358.393 171.179C358.393 152.109 356.96 140.186 356.809 138.987C352.857 126.707 352.936 114.961 357.036 104.032C356.07 104.231 354.883 104.455 353.505 104.715C343.563 106.592 322.874 110.499 314.931 118.629C314.827 118.738 314.703 118.825 314.565 118.886C314.428 118.946 314.279 118.979 314.129 118.981C313.979 118.984 313.829 118.957 313.69 118.902C313.55 118.846 313.422 118.764 313.315 118.659C313.207 118.554 313.121 118.429 313.063 118.291C313.004 118.152 312.973 118.004 312.972 117.854C312.971 117.703 313 117.554 313.057 117.416C313.114 117.277 313.199 117.15 313.305 117.044C321.748 108.402 342.132 104.552 353.083 102.485C355.665 101.997 357.704 101.612 358.559 101.34C358.766 101.275 358.988 101.27 359.198 101.326C359.408 101.382 359.597 101.498 359.743 101.658C359.89 101.819 359.987 102.018 360.023 102.232C360.06 102.446 360.034 102.666 359.949 102.866C355.26 113.883 354.942 125.835 359.003 138.389C359.024 138.455 359.039 138.522 359.049 138.589C359.064 138.711 360.665 150.987 360.665 171.178C360.665 195.469 345.995 215.851 345.847 216.054C345.741 216.199 345.603 216.316 345.444 216.397C345.284 216.479 345.108 216.521 344.929 216.521L344.929 216.522ZM73.0671 375.071C63.9872 391.12 133.598 433.56 143.289 418.001C152.98 402.442 83.3116 356.964 73.0671 375.071Z" fill="#2D2D2D"/>
<path d="M135.27 422.499C132.978 422.499 130.33 422.13 127.351 421.389C120.09 419.58 111.121 415.639 102.095 410.289C83.9677 399.546 66.8422 383.767 72.0781 374.513C73.8812 371.325 77.2817 369.708 82.2086 369.745C90.4893 369.785 103.19 374.704 116.184 382.903C128.986 390.982 139.103 400.279 143.247 407.772C145.666 412.146 146.005 415.79 144.254 418.601C142.642 421.19 139.587 422.499 135.269 422.499H135.27ZM82.1021 372.015C78.1199 372.015 75.4139 373.231 74.0565 375.63C72.186 378.936 74.3535 384.215 80.1604 390.493C85.5682 396.34 93.9857 402.844 103.255 408.338C122.179 419.553 138.61 423.366 142.324 417.402C143.608 415.342 143.249 412.471 141.258 408.869C137.35 401.803 127.277 392.588 114.97 384.823C102.322 376.841 90.0701 372.053 82.1976 372.015H82.1021V372.015Z" fill="#2D2D2D"/>
<path d="M110.912 445.524C104.243 446.162 97.3198 444.848 91.0327 441.33C74.6093 432.14 68.7531 411.391 77.9527 394.985C86.4997 379.743 104.102 349.659 125.962 319.413C154.391 280.077 181.475 252.3 206.461 236.853C232.184 220.951 264.291 212.067 301.89 210.446C329.551 209.254 353.107 212.317 366.81 214.763C370.246 215.376 356.548 282.085 353.165 281.511C343.015 279.791 325.358 277.595 304.828 278.48C279.397 279.574 257.789 285.204 242.335 294.758C208.432 315.717 165.914 377.466 137.428 428.264C131.75 438.39 121.663 444.495 110.912 445.524Z" fill="white"/>
<path d="M107.642 446.815C101.649 446.815 95.7747 445.284 90.4771 442.32C73.533 432.838 67.4697 411.355 76.9612 394.43C85.5211 379.165 103.15 349.036 125.04 318.747C153.556 279.291 180.75 251.412 205.863 235.887C231.753 219.882 264.045 210.941 301.841 209.312C329.069 208.139 352.308 211.021 367.01 213.645C368.469 213.905 368.776 215.698 368.274 221.023C367.938 224.597 367.208 229.65 366.164 235.637C364.435 245.558 361.966 257.303 359.721 266.289C358.518 271.107 357.44 274.915 356.517 277.609C355.14 281.63 354.281 282.853 352.975 282.63C342.055 280.779 324.847 278.754 304.877 279.613C279.643 280.699 258.223 286.269 242.933 295.722C209.215 316.568 166.836 378.143 138.419 428.818C132.775 438.883 122.531 445.55 111.021 446.653C109.898 446.76 108.771 446.814 107.643 446.815H107.642ZM314.427 211.313C310.374 211.313 306.207 211.396 301.939 211.58C264.536 213.192 232.614 222.019 207.059 237.818C182.2 253.186 155.224 280.862 126.883 320.077C105.059 350.273 87.4799 380.318 78.9438 395.539C70.065 411.373 75.7372 431.47 91.5879 440.34C97.4721 443.633 104.117 445.035 110.803 444.394C121.573 443.363 131.156 437.126 136.436 427.71C164.992 376.787 207.65 314.865 241.737 293.793C257.357 284.136 279.157 278.448 304.779 277.346C324.69 276.487 341.881 278.471 352.928 280.321C354.291 278.386 357.622 266.93 361.415 248.43C365.197 229.988 366.639 218.166 366.153 215.799C353.874 213.63 335.765 211.314 314.427 211.314L314.427 211.313Z" fill="#2D2D2D"/>
<path d="M392.405 283.333C383.124 290.069 371.116 292.968 359.025 290.334C333.226 284.712 279.346 282.965 244.591 302.205C215.367 318.383 168.626 374.673 143.289 418.001C134.173 397.041 82.7778 365.903 73.0674 375.071C88.0277 349.488 117.062 306.542 135.987 285.636C158.22 261.075 181.172 242.157 204.204 229.406C231.234 214.443 264.005 205.819 301.603 203.776C327.225 202.383 355.794 206.979 377.312 212.956" fill="#2D2D2D"/>
<path d="M143.289 419.136C143.068 419.136 142.851 419.071 142.666 418.95C142.481 418.829 142.335 418.656 142.247 418.453C138.95 410.873 129.592 401.223 116.571 391.977C104.373 383.315 91.3884 376.829 82.6849 375.049C78.4141 374.176 75.3582 374.469 73.8474 375.895C73.6487 376.083 73.3891 376.192 73.116 376.204C72.843 376.216 72.5748 376.129 72.3608 375.959C72.1468 375.789 72.0012 375.548 71.9507 375.28C71.9002 375.011 71.9483 374.734 72.086 374.498C88.0132 347.262 117.152 304.749 135.143 284.875C157.461 260.221 180.511 241.225 203.653 228.413C230.836 213.365 263.77 204.695 301.541 202.642C333.911 200.881 365.526 208.504 377.616 211.862C377.907 211.943 378.153 212.135 378.301 212.397C378.449 212.659 378.487 212.969 378.406 213.259C378.367 213.403 378.299 213.538 378.207 213.655C378.115 213.773 378.001 213.871 377.871 213.944C377.741 214.017 377.598 214.064 377.45 214.082C377.301 214.1 377.151 214.089 377.007 214.049C365.025 210.721 333.697 203.17 301.665 204.909C264.24 206.942 231.635 215.518 204.755 230.398C181.832 243.088 158.978 261.929 136.829 286.397C119.606 305.423 92.0879 345.347 75.8963 372.513C77.8358 372.133 80.2562 372.236 83.1406 372.825C101.356 376.549 134.317 398.723 143.383 415.603C168.644 373.05 214.591 317.514 244.04 301.211C279.069 281.82 333.307 283.567 359.267 289.224C370.551 291.684 382.386 289.2 391.736 282.414C391.856 282.323 391.994 282.258 392.14 282.221C392.286 282.184 392.438 282.177 392.587 282.199C392.736 282.221 392.879 282.273 393.008 282.351C393.137 282.429 393.249 282.532 393.337 282.654C393.426 282.776 393.489 282.914 393.524 283.061C393.558 283.207 393.564 283.359 393.539 283.507C393.514 283.656 393.46 283.798 393.38 283.925C393.3 284.053 393.195 284.163 393.072 284.25C383.197 291.417 370.699 294.039 358.782 291.442C333.146 285.855 279.624 284.107 245.141 303.196C215.596 319.551 169.13 376.058 144.27 418.573C144.169 418.744 144.026 418.886 143.854 418.984C143.682 419.083 143.487 419.135 143.289 419.135L143.289 419.136Z" fill="#2D2D2D"/>
<path d="M90.3262 377.296C90.1925 377.296 90.057 377.273 89.9248 377.223C81.9875 374.227 76.1283 373.743 73.8476 375.896C73.6286 376.103 73.3363 376.214 73.0351 376.206C72.7339 376.197 72.4484 376.069 72.2414 375.851C72.0345 375.632 71.923 375.34 71.9315 375.039C71.94 374.738 72.0679 374.453 72.2869 374.246C76.1059 370.64 84.4235 372.719 90.7281 375.099C90.977 375.193 91.1851 375.371 91.3161 375.602C91.4471 375.833 91.4926 376.103 91.4448 376.365C91.397 376.626 91.2588 376.863 91.0544 377.033C90.85 377.203 90.5923 377.296 90.3262 377.296ZM137.428 428.264L118.79 465.243L5.78271 408.407C5.78271 408.407 13.5337 390.142 29.3741 390.889C49.2295 391.825 60.9354 395.132 76.4657 397.772C76.4657 397.772 81.1055 389.503 84.3996 383.711C97.7852 388.206 90.3262 407.028 90.3262 407.028C97.5583 413.241 122.457 427.45 137.428 428.264Z" fill="white"/>
<path d="M118.789 466.377C118.612 466.377 118.437 466.336 118.279 466.256L5.2718 409.42C5.0141 409.291 4.8154 409.068 4.71602 408.798C4.61664 408.527 4.62402 408.229 4.73667 407.964C5.06578 407.188 12.9898 388.994 29.4279 389.755C44.1485 390.449 54.2843 392.414 65.0158 394.494C68.4974 395.168 72.0899 395.865 75.8673 396.518C77.058 394.398 80.7082 387.904 83.4119 383.15C83.5422 382.921 83.7481 382.745 83.9943 382.651C84.2405 382.557 84.5118 382.551 84.7616 382.635C88.2148 383.795 90.6902 385.941 92.1195 389.015C95.1182 395.465 92.5736 404.047 91.6673 406.667C99.3872 412.928 123.254 426.356 137.489 427.131C137.678 427.141 137.861 427.198 138.022 427.296C138.183 427.395 138.316 427.532 138.411 427.695C138.506 427.858 138.558 428.042 138.563 428.231C138.569 428.419 138.527 428.606 138.442 428.774L119.805 465.752C119.71 465.94 119.565 466.099 119.385 466.209C119.206 466.319 118.999 466.378 118.789 466.377ZM7.28434 407.891L118.286 463.718L135.656 429.255C119.833 427.503 96.1642 413.539 89.5858 407.888C89.4069 407.734 89.2804 407.528 89.2238 407.299C89.1672 407.07 89.1833 406.83 89.27 406.61C89.3093 406.511 93.1519 396.614 90.0566 389.966C89.0223 387.744 87.2926 386.115 84.909 385.115C82.4158 389.514 79.932 393.918 77.4576 398.327C77.3433 398.532 77.1682 398.696 76.9565 398.797C76.7447 398.898 76.5068 398.931 76.2756 398.891C72.182 398.195 68.319 397.446 64.5829 396.722C53.9347 394.659 43.8773 392.709 29.3207 392.023C16.4972 391.412 9.12001 404.236 7.28434 407.891Z" fill="#2D2D2D"/>
<path d="M114.23 474.28L1.13232 417.399L5.68836 408.359L118.786 465.24L114.23 474.28Z" fill="#2D2D2D"/>
<path d="M114.234 475.417C114.058 475.417 113.882 475.377 113.723 475.296L0.625308 418.415C0.356191 418.279 0.151902 418.043 0.0573718 417.757C-0.0371587 417.471 -0.0141897 417.16 0.121227 416.891L4.67727 407.851C4.74423 407.718 4.83685 407.599 4.94982 407.502C5.0628 407.404 5.1939 407.33 5.33564 407.283C5.47738 407.236 5.62696 407.218 5.77581 407.229C5.92467 407.24 6.06989 407.28 6.20314 407.347L119.3 464.229C119.57 464.364 119.774 464.601 119.868 464.886C119.963 465.172 119.94 465.484 119.805 465.753L115.249 474.793C115.154 474.98 115.009 475.138 114.83 475.249C114.651 475.359 114.444 475.417 114.234 475.417ZM2.66208 416.898L113.73 472.758L117.264 465.745L6.19633 409.885L2.66208 416.898ZM82.6999 410.916C77.2736 410.916 70.7364 409.61 67.615 408.907C61.0279 407.425 53.5136 405.058 51.5746 403.111C47.6794 399.198 47.5446 392.956 47.5408 392.693C47.5386 392.544 47.5658 392.396 47.6209 392.257C47.6759 392.118 47.7578 391.992 47.8617 391.885C47.9657 391.778 48.0897 391.693 48.2267 391.634C48.3638 391.575 48.5111 391.543 48.6603 391.541C49.2871 391.548 49.804 392.033 49.8127 392.659C49.8135 392.714 49.9468 398.257 53.1856 401.51C55.8318 404.168 79.0543 410.362 87.103 408.19C87.96 407.958 89.0242 407.52 89.2265 406.742C89.3083 406.457 89.4982 406.216 89.7557 406.069C90.0132 405.922 90.318 405.882 90.6049 405.957C90.8919 406.031 91.1383 406.215 91.2917 406.468C91.445 406.722 91.4931 407.025 91.4257 407.313C91.0428 408.784 89.7877 409.816 87.696 410.381C86.2815 410.763 84.5553 410.916 82.6999 410.916Z" fill="#2D2D2D"/>
<path d="M97.6671 455.819C97.4735 455.819 97.2831 455.77 97.114 455.675C96.945 455.581 96.8029 455.445 96.7012 455.28C96.5995 455.116 96.5416 454.928 96.533 454.735C96.5244 454.541 96.5654 454.349 96.6521 454.176C99.2922 448.906 103.585 445.553 109.066 444.479C114.45 443.424 120.823 444.63 127.495 447.965C127.631 448.031 127.752 448.122 127.852 448.235C127.952 448.348 128.028 448.479 128.077 448.621C128.125 448.764 128.145 448.914 128.135 449.064C128.125 449.215 128.085 449.361 128.017 449.496C127.95 449.63 127.856 449.75 127.742 449.848C127.628 449.946 127.496 450.021 127.352 450.067C127.209 450.114 127.058 450.131 126.908 450.119C126.758 450.106 126.612 450.064 126.478 449.995C120.259 446.886 114.389 445.75 109.503 446.707C104.739 447.64 100.998 450.574 98.684 455.192C98.5896 455.381 98.4444 455.54 98.2648 455.651C98.0852 455.761 97.8782 455.82 97.6671 455.819ZM71.9158 404.529C71.6503 404.529 71.3932 404.436 71.189 404.267L62.1387 396.748L63.1961 399.814C63.2447 399.955 63.2651 400.104 63.256 400.252C63.2469 400.401 63.2086 400.547 63.1432 400.681C63.0778 400.815 62.9867 400.934 62.8749 401.033C62.7632 401.132 62.6331 401.208 62.492 401.256C62.351 401.305 62.2018 401.325 62.0528 401.317C61.9039 401.308 61.7582 401.269 61.624 401.204C61.4899 401.139 61.37 401.048 61.2711 400.936C61.1723 400.824 61.0964 400.694 61.048 400.553L58.6666 393.649C58.5857 393.415 58.5838 393.161 58.6612 392.926C58.7385 392.69 58.8909 392.486 59.095 392.346C59.2991 392.205 59.5437 392.135 59.7915 392.146C60.0393 392.157 60.2767 392.249 60.4674 392.407L69.8181 400.175C69.1708 398.125 68.2676 395.643 67.2912 394.116C67.2109 393.99 67.1562 393.85 67.1301 393.703C67.1041 393.556 67.1072 393.406 67.1394 393.26C67.2043 392.966 67.3835 392.71 67.6376 392.548C67.8916 392.386 68.1996 392.331 68.4939 392.396C68.7882 392.461 69.0446 392.64 69.2068 392.894C71.2981 396.166 72.9501 402.841 73.0194 403.124C73.0604 403.291 73.0628 403.465 73.0265 403.633C72.9902 403.801 72.9161 403.959 72.8099 404.094C72.7036 404.23 72.5679 404.339 72.4131 404.414C72.2583 404.49 72.0884 404.529 71.9162 404.529H71.9158Z" fill="#2D2D2D"/>
<path d="M80.3193 409.703C85.0389 417.389 80.6745 432.293 75.4966 443.399L57.0513 434.122C57.0513 434.122 68.0047 419.718 63.9717 406.874C70.1532 408.423 74.465 409.151 80.3193 409.703Z" fill="#00B2FF"/>
<path d="M75.4961 444.534C75.3204 444.534 75.1454 444.494 74.9852 444.413L56.5399 435.136C56.391 435.061 56.2604 434.955 56.1574 434.824C56.0544 434.693 55.9815 434.541 55.9439 434.379C55.9062 434.217 55.9048 434.048 55.9397 433.885C55.9745 433.722 56.0448 433.569 56.1456 433.437C56.2513 433.297 66.6942 419.339 62.8869 407.214C62.8264 407.021 62.8184 406.816 62.8637 406.62C62.909 406.423 63.0059 406.242 63.1445 406.095C63.283 405.949 63.4583 405.841 63.6521 405.785C63.8459 405.728 64.0514 405.724 64.2473 405.773C70.272 407.283 74.5053 408.016 80.4252 408.573C80.6006 408.59 80.7698 408.647 80.9194 408.74C81.069 408.833 81.1947 408.96 81.2868 409.11C87.3248 418.943 79.1689 438.208 76.5255 443.878C76.434 444.074 76.2885 444.24 76.1061 444.356C75.9238 444.472 75.7124 444.534 75.4961 444.534ZM58.7429 433.703L74.9545 441.856C79.7957 431.119 83.3739 417.75 79.6268 410.777C74.497 410.274 70.5678 409.623 65.5501 408.429C67.8054 419.174 61.1175 430.214 58.7433 433.703L58.7429 433.703Z" fill="#2D2D2D"/>
<path d="M133.754 406.091C133.554 406.091 133.358 406.038 133.185 405.938C133.013 405.838 132.869 405.694 132.77 405.521C132.67 405.348 132.618 405.152 132.619 404.952C132.62 404.753 132.673 404.557 132.774 404.384C137.006 397.137 152.532 371.454 174.658 345.238C198.38 317.131 221.195 298.3 242.469 289.27C270.838 277.227 315.15 268.441 350.195 275.957C369.384 280.074 384.943 281.045 398.504 272.408C398.759 272.247 399.067 272.192 399.361 272.257C399.655 272.322 399.912 272.502 400.074 272.755C400.236 273.009 400.29 273.317 400.225 273.611C400.16 273.905 399.98 274.161 399.726 274.323C391.825 279.355 383.35 281.291 373.994 281.292C366.519 281.292 358.483 280.057 349.718 278.177C315.159 270.764 271.397 279.456 243.358 291.359C189.141 314.373 140.145 396.267 134.737 405.528C134.637 405.7 134.493 405.842 134.321 405.941C134.148 406.04 133.953 406.092 133.754 406.091Z" fill="white"/>
<path d="M369.401 254.25C368.072 273.08 369.61 289.307 373.609 308.719C378.475 332.332 387.817 367.293 404.692 399.749C405.6 401.496 406.526 403.242 407.461 404.986C409.905 402.433 412.047 399.708 413.771 396.872L461.705 318.027C459.239 309.618 457.056 300.862 455.218 291.941C450.347 268.297 448.932 248.311 449.692 238.992" fill="#2D2D2D"/>
<path d="M407.461 406.121C407.256 406.121 407.054 406.066 406.877 405.96C406.701 405.854 406.557 405.703 406.46 405.522C405.412 403.566 404.504 401.849 403.684 400.272C386.748 367.7 377.376 332.631 372.496 308.947C368.27 288.434 367.005 272.052 368.268 254.17C368.294 253.874 368.436 253.6 368.663 253.408C368.889 253.215 369.183 253.119 369.48 253.14C369.776 253.161 370.053 253.297 370.25 253.52C370.448 253.742 370.55 254.033 370.535 254.33C369.288 271.993 370.54 288.19 374.723 308.49C379.573 332.033 388.885 366.885 405.701 399.226C406.366 400.503 407.037 401.777 407.714 403.048C409.697 400.848 411.405 398.579 412.8 396.283L460.475 317.866C458.042 309.52 455.9 300.878 454.106 292.17C449.211 268.416 447.793 248.3 448.56 238.9C448.584 238.6 448.727 238.322 448.957 238.128C449.186 237.933 449.484 237.837 449.784 237.861C450.085 237.886 450.363 238.028 450.558 238.258C450.753 238.487 450.849 238.785 450.825 239.085C450.071 248.322 451.482 268.178 456.331 291.712C458.147 300.527 460.322 309.273 462.796 317.708C462.886 318.014 462.842 318.344 462.676 318.616L414.742 397.461C413.016 400.301 410.843 403.097 408.282 405.771C408.176 405.882 408.049 405.97 407.908 406.03C407.767 406.091 407.615 406.121 407.461 406.121Z" fill="#2D2D2D"/>
<path d="M370.774 293.732C370.5 293.731 370.236 293.632 370.029 293.453C369.823 293.273 369.688 293.026 369.65 292.755C367.783 279.521 367.344 267.26 368.267 254.17C368.294 253.874 368.436 253.601 368.662 253.408C368.889 253.215 369.182 253.119 369.479 253.14C369.776 253.161 370.053 253.297 370.25 253.52C370.447 253.742 370.549 254.033 370.534 254.33C369.622 267.256 370.056 279.366 371.9 292.438C371.923 292.599 371.911 292.763 371.865 292.919C371.819 293.075 371.739 293.219 371.633 293.342C371.526 293.464 371.394 293.563 371.246 293.63C371.098 293.697 370.936 293.732 370.774 293.732ZM452.052 335.039C451.587 335.039 451.15 334.751 450.983 334.289C434.659 289.118 432.76 248.799 434.041 222.93C434.048 222.781 434.085 222.634 434.148 222.5C434.212 222.365 434.302 222.244 434.412 222.144C434.523 222.044 434.653 221.966 434.793 221.916C434.934 221.866 435.083 221.844 435.232 221.852C435.381 221.859 435.527 221.896 435.662 221.96C435.797 222.024 435.918 222.113 436.018 222.224C436.118 222.334 436.196 222.463 436.246 222.604C436.296 222.744 436.318 222.893 436.311 223.042C435.04 248.704 436.925 288.701 453.121 333.519C453.183 333.69 453.203 333.874 453.179 334.054C453.154 334.235 453.087 334.407 452.982 334.556C452.877 334.705 452.738 334.827 452.576 334.911C452.414 334.995 452.234 335.039 452.052 335.039Z" fill="white"/>
<path d="M384.899 96.8422C393.614 94.6658 423.208 89.4882 440.289 92.6588C450.981 94.6435 447.199 145.335 453.508 168.923C463.365 205.776 480.639 217.334 485.649 240.451C482.273 250.772 446.903 247.054 415.688 263.139C417.557 250.807 411.936 227.442 395.55 211.46C377.927 194.272 375.799 160.982 378.146 140.144C380.399 120.142 384.899 96.8422 384.899 96.8422Z" fill="white"/>
<path d="M415.688 264.275C415.525 264.275 415.363 264.24 415.214 264.171C415.066 264.103 414.933 264.004 414.827 263.88C414.72 263.756 414.641 263.611 414.596 263.453C414.551 263.296 414.54 263.131 414.565 262.97C416.285 251.619 411.277 228.385 394.756 212.272C377.547 195.488 374.445 162.859 377.017 140.017C379.249 120.2 383.739 96.8609 383.784 96.6275C383.825 96.4152 383.926 96.2191 384.074 96.0621C384.223 95.9051 384.414 95.7939 384.624 95.7415C393.56 93.5105 423.401 88.37 440.497 91.5433C447.76 92.8916 448.951 111.108 450.33 132.202C451.2 145.504 452.099 159.259 454.606 168.631C459.891 188.391 467.309 200.795 473.854 211.74C479.522 221.218 484.417 229.403 486.759 240.211C486.802 240.408 486.791 240.612 486.729 240.803C484.862 246.512 475.291 248.235 462.044 250.619C448.639 253.031 431.957 256.033 416.209 264.149C416.048 264.232 415.87 264.275 415.688 264.275ZM385.879 97.7719C385.11 101.84 381.278 122.488 379.275 140.271C376.76 162.604 379.722 194.435 396.344 210.648C405.916 219.984 410.979 230.839 413.54 238.3C416.34 246.458 417.587 254.653 417.057 261.183C432.534 253.623 448.618 250.729 461.641 248.384C473.394 246.269 482.728 244.59 484.468 240.371C482.177 230.083 477.412 222.115 471.903 212.904C465.282 201.832 457.777 189.283 452.41 169.217C449.846 159.63 448.939 145.761 448.063 132.35C446.912 114.75 445.608 94.801 440.082 93.7754C423.779 90.7488 395.455 95.4937 385.879 97.7719Z" fill="#2D2D2D"/>
<path d="M412.812 179.402C407.154 179.402 391.943 175.307 390.295 167.988C388.758 161.165 386.358 145.134 386.334 144.972C386.307 144.787 386.325 144.598 386.389 144.421C386.452 144.245 386.559 144.087 386.698 143.961C389.011 141.883 397.14 139.992 403.975 138.914C410.825 137.835 419.262 137.128 422.394 138.382C422.618 138.472 422.807 138.63 422.935 138.835C426.907 145.193 429.462 156.425 430.14 162.011C430.488 164.882 428.305 168.164 426.411 170.411C422.892 174.588 416.883 179.209 413.313 179.39C413.155 179.398 412.989 179.402 412.812 179.402ZM388.682 145.301C389.152 148.4 391.17 161.535 392.512 167.49C393.811 173.255 408.185 177.381 413.198 177.123C415.461 177.008 420.849 173.488 424.673 168.949C426.906 166.298 428.077 163.869 427.885 162.284C427.195 156.604 424.683 146.174 421.214 140.374C415.881 138.786 393.456 142.221 388.682 145.301Z" fill="#2D2D2D"/>
<path d="M383.546 89.555C391.248 88.1893 399.906 108.138 401.565 116.576C401.565 116.576 387.323 112.095 385.793 114.947C384.263 117.798 378.846 132.288 378.146 140.144C378.846 117.973 385.212 102.922 383.546 89.5554V89.555Z" fill="white"/>
<path d="M378.147 141.279C377.995 141.279 377.844 141.249 377.704 141.19C377.564 141.131 377.437 141.044 377.331 140.935C377.225 140.825 377.142 140.696 377.087 140.554C377.032 140.412 377.006 140.261 377.011 140.109C377.344 129.53 378.956 120.572 380.377 112.668C381.932 104.027 383.274 96.5642 382.418 89.6959C382.382 89.4073 382.458 89.1159 382.631 88.8819C382.804 88.6479 383.06 88.4891 383.347 88.4383C388.273 87.5648 392.843 93.6069 395.809 98.8295C399.407 105.164 401.893 112.356 402.68 116.358C402.718 116.551 402.705 116.751 402.642 116.937C402.58 117.124 402.47 117.291 402.323 117.422C402.176 117.554 401.998 117.645 401.805 117.686C401.612 117.727 401.412 117.718 401.224 117.659C401.19 117.648 397.788 116.583 394.208 115.842C387.75 114.505 386.799 115.478 386.792 115.489C385.255 118.352 379.95 132.702 379.278 140.245C379.253 140.527 379.123 140.79 378.914 140.981C378.705 141.173 378.431 141.279 378.147 141.279ZM384.805 90.6545C385.414 97.5001 384.11 104.749 382.614 113.069C381.931 116.865 381.204 120.906 380.599 125.249C382.236 120.277 383.978 115.927 384.792 114.411C385.729 112.664 388.718 112.408 394.48 113.581C396.592 114.011 398.624 114.546 400.027 114.941C397.694 105.823 390.593 91.427 384.805 90.6553V90.6545Z" fill="#2D2D2D"/>
<path d="M357.174 94.2305C354.553 96.5 344.679 108.018 342.664 111.514C341.159 114.125 340.085 122.964 340.085 122.964L347.211 119.283L357.922 138.739C355.888 125.028 356.364 114.947 359.601 106.009L357.174 94.2305Z" fill="white"/>
<path d="M357.923 139.874C357.518 139.874 357.131 139.657 356.927 139.286L346.749 120.799L340.607 123.972C340.423 124.067 340.217 124.11 340.011 124.097C339.805 124.083 339.606 124.014 339.437 123.896C339.267 123.778 339.132 123.617 339.048 123.428C338.964 123.24 338.932 123.032 338.957 122.827C339.07 121.899 340.104 113.679 341.679 110.947C343.816 107.24 353.827 95.627 356.43 93.3726C356.58 93.2431 356.761 93.1549 356.956 93.1169C357.15 93.0788 357.351 93.0922 357.539 93.1558C357.727 93.2193 357.894 93.3308 358.026 93.4792C358.157 93.6275 358.247 93.8075 358.287 94.0014L360.714 105.78C360.756 105.985 360.741 106.198 360.669 106.395C357.531 115.06 357.03 124.984 359.046 138.573C359.07 138.734 359.059 138.899 359.014 139.055C358.968 139.212 358.889 139.357 358.783 139.481C358.676 139.604 358.544 139.704 358.395 139.771C358.247 139.839 358.085 139.875 357.922 139.874H357.923ZM347.211 118.148C347.612 118.148 348.001 118.361 348.207 118.736L356.056 132.993C354.955 122.088 355.719 113.563 358.424 105.927L356.479 96.4888C352.757 100.345 345.282 109.246 343.648 112.08C342.764 113.615 341.961 117.961 341.51 120.951L346.689 118.275C346.85 118.192 347.029 118.148 347.21 118.149L347.211 118.148Z" fill="#2D2D2D"/>
<path d="M347.212 120.418C346.993 120.418 346.778 120.355 346.594 120.236C346.41 120.117 346.265 119.948 346.175 119.748L343.893 114.671C343.769 114.397 343.76 114.084 343.867 113.803C343.974 113.522 344.189 113.294 344.464 113.171C344.739 113.048 345.051 113.038 345.333 113.145C345.615 113.252 345.842 113.467 345.966 113.741L348.248 118.818C348.326 118.991 348.359 119.18 348.345 119.369C348.33 119.558 348.269 119.74 348.166 119.9C348.063 120.059 347.922 120.189 347.755 120.28C347.588 120.371 347.402 120.418 347.212 120.418Z" fill="#2D2D2D"/>
<path d="M382.692 83.531C388.955 77.1012 393.712 68.8845 396.461 59.046C404.108 31.6707 373.54 -2.87676 344.094 12.2075C322.529 23.2547 310.475 57.2872 314.197 75.8376C317.668 93.1354 336.002 102.334 353.907 98.7953C359.481 97.6937 364.728 95.8607 369.534 93.334" fill="white"/>
<path d="M346.203 100.69C339.773 100.69 333.531 99.1384 328.088 96.1232C320.122 91.7101 314.794 84.5853 313.083 76.0611C311.193 66.6384 313.314 53.1124 318.619 40.7619C324.578 26.8891 333.441 16.3896 343.575 11.198C356.171 4.7462 370.136 6.54207 381.89 16.1252C395.193 26.9715 401.635 44.7467 397.555 59.3516C394.813 69.1663 390.086 77.5679 383.506 84.3231C383.403 84.4318 383.279 84.5189 383.141 84.5793C383.004 84.6397 382.856 84.6723 382.705 84.6752C382.555 84.678 382.406 84.6511 382.266 84.5959C382.126 84.5408 381.999 84.4585 381.891 84.3538C381.784 84.2492 381.698 84.1243 381.639 83.9862C381.58 83.8482 381.549 83.6999 381.548 83.5499C381.546 83.3998 381.575 83.251 381.632 83.112C381.688 82.973 381.772 82.8467 381.878 82.7403C388.19 76.2608 392.728 68.1864 395.366 58.7418C399.211 44.979 393.078 28.1776 380.453 17.8836C369.431 8.89671 356.367 7.19618 344.613 13.2178C334.948 18.1689 326.458 28.2688 320.707 41.657C315.574 53.6073 313.507 66.6194 315.311 75.6154C318.52 91.608 335.375 101.301 353.687 97.6826C359.15 96.6029 364.304 94.8021 369.005 92.3302C369.271 92.1902 369.583 92.1616 369.871 92.2508C370.158 92.34 370.399 92.5396 370.539 92.8057C370.68 93.0721 370.708 93.3832 370.619 93.6706C370.53 93.958 370.33 94.1983 370.063 94.3387C365.168 96.9127 359.807 98.7865 354.128 99.909C351.518 100.427 348.864 100.688 346.203 100.69Z" fill="#2D2D2D"/>
<path d="M381.013 70.1977C375.629 66.2413 383.123 55.1143 380.233 42.2356C375.103 19.3713 341.618 10.232 329.56 24.4309C325.771 12.4428 342.538 -0.314355 354.705 2.1413C364.673 0.650729 374.665 2.56993 377.026 8.25451C390.992 8.83938 404.304 20.888 402.943 31.7635C407.45 42.1433 407.468 60.5318 399.611 71.7295C390.67 84.4735 384.32 72.6277 381.013 70.1977Z" fill="#00B2FF"/>
<path d="M391.437 78.6726C387.534 78.6726 384.524 75.435 382.302 73.0456C381.56 72.2477 380.859 71.4937 380.339 71.112C376.967 68.6336 377.759 64.0481 378.677 58.7384C379.471 54.1453 380.458 48.4293 379.124 42.484C376.722 31.7766 367.12 22.8774 354.662 19.8123C344.615 17.3404 335.329 19.392 330.426 25.1651C330.295 25.3196 330.124 25.4361 329.932 25.5026C329.741 25.569 329.534 25.5829 329.335 25.5428C329.136 25.5027 328.952 25.4101 328.801 25.2746C328.65 25.1392 328.538 24.9657 328.476 24.7724C326.922 19.8562 328.488 14.3063 332.771 9.54518C338.542 3.13196 347.542 -0.364439 354.731 0.989555C364.064 -0.365196 374.566 1.04933 377.766 7.158C385.744 7.70051 393.878 11.8253 399.137 18.0346C402.798 22.3561 404.554 27.1577 404.105 31.5931C408.649 42.3796 408.588 60.9118 400.541 72.3809C397.722 76.3986 394.903 78.4509 391.922 78.6556C391.759 78.667 391.597 78.6726 391.437 78.6726ZM346.498 16.516C349.292 16.516 352.221 16.8739 355.206 17.6082C368.493 20.8773 378.753 30.4468 381.342 41.9873C382.775 48.3714 381.744 54.3337 380.916 59.1247C379.977 64.5611 379.549 67.7132 381.686 69.2836C382.378 69.7924 383.114 70.5842 383.967 71.5009C386.08 73.7734 388.713 76.6055 391.767 76.3914C393.988 76.2389 396.314 74.4514 398.681 71.0783C406.105 60.4964 406.34 42.4402 401.9 32.215C401.819 32.0287 401.79 31.8241 401.815 31.6226C402.301 27.7384 400.734 23.4335 397.403 19.5006C392.388 13.5807 384.562 9.70558 376.979 9.38818C376.762 9.37906 376.553 9.30843 376.375 9.18458C376.198 9.06073 376.06 8.88881 375.976 8.68905C374.031 4.00738 365.156 1.72614 354.873 3.26324C354.742 3.28267 354.609 3.27935 354.479 3.2534C348.108 1.96788 339.69 5.25204 334.461 11.063C332.527 13.2126 329.645 17.3033 330.217 22.1174C334.21 18.4628 339.984 16.516 346.498 16.516Z" fill="#2D2D2D"/>
<path d="M381.012 70.1978C383.875 66.1759 389.268 64.5877 393.954 66.6738C399.299 69.0526 401.701 75.3092 399.32 80.6484C396.939 85.9876 390.675 88.3872 385.33 86.0084C383.513 85.2029 381.96 83.9005 380.852 82.2513" fill="white"/>
<path d="M389.625 88.0588C388.032 88.0588 386.414 87.7331 384.868 87.0445C382.855 86.1515 381.136 84.7091 379.908 82.8834C379.744 82.6336 379.685 82.329 379.744 82.036C379.803 81.7429 379.976 81.485 380.224 81.3183C380.473 81.1515 380.777 81.0894 381.071 81.1455C381.365 81.2015 381.625 81.3712 381.794 81.6176C382.785 83.0888 384.17 84.2511 385.792 84.971C390.556 87.0911 396.159 84.9449 398.282 80.186C400.404 75.4272 398.255 69.8304 393.492 67.7099C389.393 65.8861 384.534 67.2083 381.938 70.8549C381.852 70.9784 381.743 71.0836 381.616 71.1646C381.49 71.2455 381.348 71.3006 381.2 71.3265C381.052 71.3525 380.9 71.3488 380.753 71.3157C380.607 71.2825 380.468 71.2207 380.346 71.1337C380.223 71.0466 380.119 70.9362 380.039 70.8087C379.96 70.6812 379.907 70.5392 379.882 70.391C379.858 70.2427 379.864 70.0911 379.899 69.945C379.934 69.7989 379.997 69.6612 380.086 69.5399C383.306 65.0152 389.333 63.3744 394.416 65.6368C400.325 68.2664 402.99 75.2078 400.357 81.1103C398.414 85.4673 394.118 88.0588 389.625 88.0588Z" fill="#2D2D2D"/>
<path d="M357.664 57.126C355.036 55.0672 352.141 53.8335 348.582 52.5052C346.3 51.6537 346.832 48.9854 350.442 48.3256C353.835 47.7059 359.605 50.4741 360.903 53.7775C362.257 57.2236 359.81 58.8065 357.664 57.126Z" fill="#00B2FF"/>
<path d="M359.416 58.9368C358.601 58.9368 357.74 58.6273 356.963 58.0186C354.567 56.1421 351.93 54.9656 348.184 53.5677C346.776 53.0422 345.971 51.9182 346.085 50.6339C346.202 49.3237 347.353 47.7356 350.238 47.2086C354.028 46.5181 360.394 49.376 361.961 53.3623C362.951 55.8826 362.204 57.5987 361.174 58.3644C360.659 58.7472 360.052 58.9364 359.416 58.9364L359.416 58.9368ZM358.365 56.2326C358.91 56.6597 359.494 56.7845 359.817 56.5439C360.184 56.2711 360.335 55.4381 359.845 54.1919C358.729 51.3527 353.41 48.936 350.646 49.4418C349.036 49.7357 348.382 50.4519 348.349 50.834C348.319 51.1684 348.824 51.3833 348.98 51.4412C352.934 52.917 355.738 54.1745 358.365 56.2326Z" fill="#2D2D2D"/>
<path d="M333.716 47.6125C330.509 46.6776 327.363 46.608 323.565 46.6973C321.13 46.7544 320.63 44.0797 323.736 42.1265C326.655 40.2905 333.041 40.7169 335.476 43.3012C338.016 45.9971 336.333 48.3755 333.716 47.6125Z" fill="#00B2FF"/>
<path d="M334.674 48.8906C334.242 48.8884 333.812 48.8248 333.398 48.7018C330.475 47.8499 327.589 47.7371 323.592 47.8317C322.089 47.8718 320.924 47.1224 320.551 45.8879C320.172 44.6285 320.649 42.7267 323.131 41.1662C326.392 39.1145 333.366 39.4047 336.304 42.5232C338.161 44.495 338.107 46.3657 337.436 47.4587C336.869 48.3833 335.85 48.8906 334.674 48.8906ZM334.034 46.5227C334.7 46.7164 335.288 46.6158 335.498 46.2723C335.737 45.883 335.567 45.0534 334.649 44.0784C332.556 41.857 326.719 41.591 324.342 43.0865C322.956 43.9578 322.616 44.8653 322.727 45.2327C322.824 45.5542 323.374 45.5641 323.538 45.5626C327.759 45.4623 330.829 45.5883 334.034 46.5227Z" fill="#2D2D2D"/>
<path d="M351.822 60.6239C352.222 59.253 351.612 57.8698 350.459 57.5344C349.306 57.199 348.048 58.0384 347.648 59.4094C347.248 60.7803 347.859 62.1635 349.011 62.4989C350.164 62.8343 351.423 61.9949 351.822 60.6239Z" fill="#2D2D2D"/>
<path d="M329.777 54.7138C330.177 53.3429 329.567 51.9596 328.414 51.6242C327.261 51.2888 326.003 52.1283 325.603 53.4992C325.203 54.8701 325.814 56.2533 326.967 56.5887C328.119 56.9241 329.378 56.0847 329.777 54.7138Z" fill="#2D2D2D"/>
<path d="M355.007 74.7197C355.657 81.4398 346.375 82.9027 342.664 77.9763L355.007 74.7197Z" fill="white"/>
<path d="M348.824 82.0281C346.096 82.0281 343.372 80.8039 341.757 78.6588C341.645 78.5102 341.571 78.3363 341.542 78.1525C341.513 77.9687 341.53 77.7806 341.591 77.6048C341.652 77.429 341.755 77.2709 341.892 77.1444C342.028 77.0179 342.194 76.9268 342.374 76.8792L354.716 73.6227C354.875 73.5806 355.042 73.5736 355.204 73.6022C355.366 73.6309 355.52 73.6944 355.655 73.7884C355.791 73.8824 355.904 74.0046 355.987 74.1467C356.07 74.2887 356.121 74.4471 356.137 74.6108C356.442 77.7584 354.872 80.3177 351.939 81.4568C350.943 81.8435 349.883 82.0281 348.824 82.0281ZM344.883 78.5646C346.791 79.9122 349.321 80.0378 351.116 79.3409C352.064 78.9728 353.512 78.1076 353.837 76.202L344.883 78.5646ZM386.633 80.124C386.378 80.124 386.13 80.0384 385.93 79.8808C385.729 79.7232 385.588 79.5029 385.528 79.2553C385.468 79.0077 385.493 78.7472 385.6 78.5156C385.706 78.284 385.887 78.0949 386.114 77.9786L392.363 74.7807C392.496 74.7127 392.64 74.6716 392.789 74.6595C392.938 74.6475 393.087 74.6649 393.229 74.7106C393.372 74.7563 393.503 74.8296 393.617 74.9261C393.73 75.0227 393.824 75.1406 393.892 75.2733C393.96 75.4059 394.001 75.5507 394.013 75.6992C394.025 75.8478 394.008 75.9972 393.962 76.1391C393.916 76.281 393.843 76.4124 393.746 76.526C393.65 76.6395 393.532 76.7329 393.399 76.8009L387.15 79.9988C386.99 80.0811 386.813 80.1241 386.633 80.124H386.633Z" fill="#2D2D2D"/>
<path d="M391.248 82.1789C391.021 82.1789 390.799 82.1109 390.611 81.9835C390.422 81.8562 390.277 81.6755 390.193 81.4647L387.282 74.19C387.174 73.9113 387.181 73.6014 387.3 73.3274C387.419 73.0534 387.642 72.8375 387.92 72.7266C388.198 72.6157 388.508 72.6187 388.784 72.7349C389.059 72.8512 389.278 73.0713 389.392 73.3475L392.302 80.6222C392.371 80.7943 392.397 80.9807 392.377 81.1651C392.357 81.3494 392.293 81.5261 392.189 81.6797C392.084 81.8332 391.944 81.959 391.78 82.046C391.616 82.1329 391.434 82.1785 391.248 82.1785V82.1789Z" fill="#2D2D2D"/>
<path d="M336.326 19.5611C330.477 15.9194 327.09 15.2634 325.378 6.41309C325.378 6.41309 317.546 17.7913 328.111 26.3776C330.089 23.4014 332.092 21.1353 336.326 19.5611Z" fill="#00B2FF"/>
<path d="M328.111 27.5127C327.85 27.5126 327.597 27.4227 327.394 27.2581C316.146 18.1168 324.358 5.89266 324.442 5.77008C324.569 5.58552 324.747 5.44253 324.955 5.3591C325.163 5.27568 325.391 5.25555 325.61 5.30124C325.83 5.34694 326.031 5.45643 326.188 5.61592C326.345 5.77541 326.451 5.97779 326.494 6.19758C327.861 13.2664 330.226 14.6488 334.52 17.1582C335.282 17.6034 336.07 18.0638 336.927 18.5977C337.107 18.7098 337.252 18.8702 337.346 19.0606C337.44 19.2509 337.478 19.4637 337.457 19.6748C337.435 19.8858 337.355 20.0867 337.225 20.2546C337.096 20.4225 336.921 20.5507 336.722 20.6247C332.918 22.0396 331.031 24.0356 329.057 27.0054C328.954 27.1614 328.813 27.2894 328.648 27.3779C328.483 27.4664 328.298 27.5127 328.111 27.5127H328.111ZM324.98 9.59032C323.532 13.0179 322.142 19.3051 327.898 24.6874C329.483 22.4875 331.214 20.748 333.857 19.4008L333.372 19.1171C329.445 16.8222 326.67 15.2 324.98 9.58994V9.59032Z" fill="#2D2D2D"/>
<path d="M375.067 31.3739C387.579 24.7129 413.864 26.735 412.628 55.7919C405.982 47.2488 392.843 44.481 380.845 46.4891C380.572 41.9062 378.597 35.7503 375.067 31.3739Z" fill="#00B2FF"/>
<path d="M412.628 56.9272C412.283 56.9272 411.95 56.7702 411.73 56.4887C405.87 48.9542 393.821 45.468 381.033 47.6089C380.876 47.6349 380.715 47.6277 380.561 47.5878C380.406 47.5479 380.262 47.4762 380.137 47.3774C380.013 47.2782 379.91 47.1539 379.837 47.0126C379.763 46.8713 379.721 46.7161 379.711 46.5572C379.467 42.463 377.662 36.4009 374.182 32.0866C374.077 31.9565 374.002 31.8049 373.963 31.6426C373.923 31.4803 373.92 31.3113 373.954 31.1476C373.987 30.9839 374.056 30.8296 374.156 30.6958C374.256 30.5619 374.385 30.4518 374.532 30.3732C381.932 26.4338 394.065 25.3647 402.936 30.9425C408.217 34.2634 414.382 41.2785 413.763 55.8407C413.75 56.133 413.625 56.4092 413.414 56.6117C413.202 56.8141 412.921 56.9272 412.628 56.9272ZM388.372 44.7208C397.714 44.7208 406.133 47.6433 411.521 52.866C411.294 43.6506 407.938 36.7701 401.725 32.8633C394.047 28.0356 383.678 28.6507 376.801 31.7847C379.897 36.1414 381.423 41.3867 381.868 45.1835C384.023 44.8774 386.196 44.7228 388.372 44.7208ZM359.598 21.3102C359.434 21.3104 359.273 21.2754 359.124 21.2075C358.975 21.1396 358.843 21.0405 358.736 20.9169C358.629 20.7933 358.551 20.6481 358.505 20.4912C358.46 20.3344 358.448 20.1696 358.472 20.0081C359.815 10.9936 367.513 5.69902 377.194 7.13208C377.341 7.15394 377.483 7.20463 377.611 7.28125C377.739 7.35788 377.851 7.45894 377.94 7.57866C378.028 7.69838 378.093 7.83442 378.129 7.97902C378.165 8.12361 378.173 8.27393 378.151 8.42138C378.129 8.56884 378.078 8.71054 378.002 8.8384C377.925 8.96627 377.824 9.07779 377.704 9.1666C377.584 9.25541 377.448 9.31976 377.303 9.356C377.158 9.39223 377.008 9.39963 376.86 9.37777C370.025 8.36615 362.057 11.3647 360.72 20.3421C360.68 20.611 360.545 20.8565 360.339 21.0341C360.133 21.2118 359.87 21.3098 359.598 21.3102ZM342.823 19.0052C342.531 19.0049 342.251 18.8925 342.04 18.6912C341.829 18.4899 341.703 18.2151 341.689 17.9239C341.264 8.96956 345.923 2.81209 354.473 1.0306C354.768 0.969374 355.075 1.02757 355.327 1.19241C355.58 1.35724 355.756 1.61525 355.818 1.9098C355.879 2.20447 355.821 2.51144 355.656 2.76326C355.491 3.01508 355.232 3.19116 354.937 3.25283C347.486 4.80544 343.587 9.97778 343.959 17.8165C343.967 17.97 343.943 18.1233 343.889 18.2672C343.835 18.4112 343.753 18.5427 343.646 18.6538C343.54 18.765 343.413 18.8534 343.271 18.9138C343.13 18.9742 342.977 19.0053 342.823 19.0052ZM444.856 168.924C434.574 167.757 438.694 211.572 448.728 212.288C458.763 213.005 455.978 170.186 444.856 168.924Z" fill="#2D2D2D"/>
<path d="M448.995 213.432C448.88 213.432 448.765 213.428 448.648 213.42C446.177 213.243 443.989 211.162 442.145 207.233C437.463 197.253 435.805 176.612 440.587 169.961C442.05 167.925 443.785 167.661 444.985 167.796C449.877 168.352 452.62 174.912 454.058 180.318C455.759 186.709 456.442 194.714 455.84 201.209C455.108 209.115 452.683 213.433 448.995 213.433V213.432ZM444.447 170.035C443.904 170.035 443.184 170.239 442.432 171.285C438.54 176.699 439.532 196.317 444.203 206.27C445.629 209.31 447.265 211.046 448.81 211.156C451.154 211.322 452.983 207.432 453.578 201C454.777 188.061 450.7 170.729 444.728 170.052C444.635 170.041 444.541 170.035 444.448 170.035L444.447 170.035Z" fill="#2D2D2D"/>
<path d="M450.588 99.6758C480.688 110.449 519.919 137.871 518.626 172.588C516.46 202.686 480.95 213.615 456.968 212.798C444.716 212.798 432.16 210.88 421.141 207.289C411.199 204.05 405.768 193.372 409.011 183.44C412.254 173.508 422.943 168.084 432.886 171.322C444.62 175.911 473.107 176.821 480.867 169.278C479.13 159.685 458.412 144.393 443.535 137.307" fill="white"/>
<path d="M459.532 213.976C458.667 213.976 457.805 213.961 456.948 213.932C444.459 213.93 431.955 212.006 420.789 208.368C410.267 204.939 404.499 193.599 407.931 183.088C411.364 172.577 422.717 166.816 433.238 170.243C433.259 170.25 433.28 170.257 433.3 170.266C444.555 174.666 471.658 175.536 479.615 168.879C477.322 160.236 458.725 145.799 443.046 138.331C442.911 138.267 442.79 138.177 442.69 138.067C442.59 137.956 442.512 137.826 442.462 137.686C442.412 137.545 442.39 137.396 442.398 137.247C442.406 137.098 442.443 136.952 442.507 136.817C442.571 136.682 442.662 136.562 442.773 136.462C442.884 136.362 443.013 136.285 443.154 136.235C443.295 136.186 443.445 136.164 443.594 136.172C443.743 136.18 443.889 136.218 444.024 136.282C458.348 143.104 480.108 158.708 481.985 169.077C482.018 169.259 482.006 169.448 481.949 169.625C481.892 169.802 481.793 169.962 481.659 170.092C476.617 174.993 464.912 175.887 458.384 175.984C448.629 176.129 438.479 174.719 432.503 172.392C423.181 169.373 413.132 174.482 410.091 183.792C407.047 193.113 412.163 203.17 421.493 206.21C432.284 209.726 444.883 211.662 456.967 211.662C456.98 211.662 456.993 211.662 457.006 211.663C479.241 212.42 515.319 202.464 517.491 172.526C518.2 153.293 505.98 137.688 495.603 127.982C483.509 116.669 466.962 106.742 450.205 100.744C450.064 100.694 449.935 100.617 449.825 100.516C449.714 100.416 449.625 100.295 449.561 100.161C449.497 100.026 449.461 99.8799 449.453 99.731C449.446 99.5822 449.468 99.4334 449.519 99.2931C449.569 99.1528 449.646 99.0237 449.747 98.9134C449.847 98.803 449.968 98.7134 450.103 98.6497C450.238 98.5861 450.384 98.5496 450.533 98.5424C450.682 98.5351 450.831 98.5573 450.971 98.6076C468.01 104.706 484.844 114.809 497.156 126.325C512.537 140.711 520.354 156.724 519.761 172.63C519.761 172.643 519.76 172.656 519.759 172.669C518.762 186.529 510.721 197.81 496.507 205.29C486.052 210.793 472.409 213.976 459.531 213.976H459.532Z" fill="#2D2D2D"/>
<path d="M440.289 92.6592C455.718 95.6339 475.326 105.477 491.462 118.346C513.255 135.728 523.952 154.595 522.399 172.908C521.427 184.374 515.252 193.283 505.581 200.88C498.361 206.552 472.974 215.635 448.728 212.288C456.927 199.532 453.745 176.757 444.856 168.924C457.6 171.947 472.554 168.706 473.95 167.994C472.076 164.684 469.55 158.555 460.558 151.861C452.789 146.077 444.87 141.871 438.731 139.435" fill="white"/>
<path d="M459.508 214.138C455.872 214.138 452.206 213.913 448.573 213.412C448.384 213.385 448.204 213.312 448.051 213.199C447.898 213.085 447.776 212.935 447.696 212.762C447.616 212.589 447.582 212.398 447.595 212.208C447.608 212.018 447.669 211.835 447.772 211.674C455.794 199.193 452.453 177.132 444.104 169.775C443.915 169.607 443.786 169.381 443.74 169.132C443.693 168.884 443.731 168.626 443.848 168.402C443.965 168.177 444.153 167.998 444.383 167.892C444.613 167.787 444.872 167.761 445.119 167.819C455.899 170.377 468.396 168.316 472.296 167.333C472.272 167.288 472.248 167.244 472.224 167.199C470.372 163.734 467.573 158.499 459.879 152.771C453.076 147.706 445.215 143.23 438.312 140.49C438.038 140.375 437.82 140.157 437.705 139.883C437.59 139.609 437.587 139.301 437.696 139.025C437.806 138.749 438.02 138.527 438.292 138.406C438.564 138.286 438.872 138.276 439.151 138.38C443.311 140.031 451.713 143.86 461.237 150.951C469.338 156.982 472.4 162.708 474.228 166.13C474.46 166.568 474.697 167.003 474.939 167.436C475.014 167.569 475.062 167.716 475.079 167.868C475.096 168.02 475.082 168.174 475.038 168.321C474.994 168.467 474.92 168.603 474.822 168.721C474.724 168.839 474.603 168.935 474.467 169.005C473.107 169.699 460.361 172.621 448.016 170.696C451.265 174.986 453.559 181.413 454.33 188.639C455.24 197.181 453.88 205.349 450.587 211.378C453.597 211.721 456.624 211.877 459.624 211.877C479.684 211.878 498.641 204.888 504.879 199.988C515.032 192.013 520.393 183.123 521.267 172.812C522.786 154.895 512.235 136.367 490.753 119.233C474.752 106.471 455.333 96.7157 440.074 93.7736C439.781 93.7141 439.523 93.5412 439.356 93.2927C439.189 93.0441 439.128 92.7399 439.185 92.4462C439.241 92.1525 439.412 91.8931 439.659 91.7243C439.906 91.5555 440.21 91.4911 440.505 91.5449C456.103 94.5522 475.9 104.482 492.171 117.46C514.274 135.089 525.118 154.296 523.532 173.004C522.601 183.976 516.959 193.387 506.284 201.773C499.805 206.863 480.175 214.138 459.508 214.139L459.508 214.138Z" fill="#2D2D2D"/>
<path d="M420.824 177.646C416.012 173.676 413.869 170.825 412.544 167.209C410.501 161.63 413.942 157.852 417.939 160.109C421.937 162.366 423.943 167.901 432.886 171.323" fill="white"/>
<path d="M420.823 178.78C420.568 178.78 420.312 178.695 420.1 178.52C415.271 174.537 412.934 171.576 411.477 167.598C410.239 164.219 410.713 161.067 412.712 159.373C414.273 158.051 416.435 157.956 418.498 159.12C420.098 160.024 421.391 161.385 422.76 162.827C425.14 165.334 427.838 168.175 433.292 170.262C433.431 170.315 433.559 170.395 433.667 170.498C433.776 170.6 433.863 170.723 433.923 170.859C433.984 170.996 434.018 171.142 434.022 171.291C434.026 171.44 434 171.589 433.947 171.728C433.893 171.867 433.813 171.994 433.711 172.103C433.608 172.211 433.485 172.298 433.349 172.358C433.212 172.419 433.066 172.453 432.916 172.457C432.767 172.461 432.619 172.435 432.479 172.382C426.545 170.111 423.532 166.938 421.112 164.389C419.809 163.018 418.684 161.833 417.38 161.097C416.163 160.41 414.997 160.412 414.182 161.104C413.244 161.898 412.532 163.872 413.611 166.818C414.913 170.375 417.064 173.072 421.547 176.77C421.727 176.919 421.857 177.12 421.919 177.345C421.981 177.57 421.971 177.809 421.892 178.029C421.813 178.249 421.668 178.439 421.477 178.574C421.285 178.708 421.057 178.78 420.823 178.78L420.823 178.78Z" fill="#2D2D2D"/>
<path d="M428.02 173.429C422.514 172.761 417.639 169.236 409.83 168.933C403.716 168.696 395.668 173.275 393.584 175.008C387.993 179.659 393.276 186.151 401.773 183.258C406.917 181.506 417.547 184.59 417.547 184.59" fill="white"/>
<path d="M417.547 185.725C417.442 185.725 417.335 185.711 417.23 185.68C417.127 185.65 406.884 182.716 402.139 184.332C396.457 186.266 392.278 184.316 390.8 181.686C389.72 179.762 389.692 176.768 392.857 174.136C395.222 172.168 403.483 167.554 409.873 167.798C414.582 167.981 418.281 169.298 421.544 170.46C423.822 171.271 425.973 172.037 428.156 172.302C428.455 172.339 428.728 172.492 428.914 172.729C429.099 172.966 429.183 173.267 429.147 173.566C429.129 173.714 429.082 173.857 429.009 173.987C428.936 174.117 428.838 174.231 428.72 174.323C428.603 174.415 428.468 174.483 428.324 174.523C428.181 174.563 428.03 174.574 427.882 174.556C425.448 174.26 423.181 173.453 420.781 172.599C417.519 171.437 414.146 170.236 409.785 170.066C404.174 169.853 396.34 174.193 394.31 175.88C392.532 177.36 391.961 179.115 392.782 180.575C393.847 182.471 397.151 183.632 401.405 182.183C406.826 180.337 417.415 183.37 417.863 183.5C418.126 183.577 418.352 183.745 418.5 183.975C418.649 184.204 418.709 184.48 418.671 184.75C418.632 185.021 418.497 185.268 418.291 185.447C418.084 185.627 417.82 185.725 417.547 185.725Z" fill="#2D2D2D"/>
<path d="M423.019 181.363C420.316 180.843 410.669 178.759 403.982 180.473C399.63 181.588 393.421 185.839 391.122 188.791C387.215 193.81 396.346 198.582 403.269 193.972C408.151 190.72 418.847 194.249 418.847 194.249" fill="white"/>
<path d="M397.156 196.96C394.373 196.96 391.847 195.988 390.38 194.411C388.65 192.553 388.593 190.191 390.225 188.094C392.594 185.052 398.996 180.58 403.7 179.374C410.246 177.696 419.291 179.474 422.696 180.144L423.234 180.249C423.53 180.306 423.791 180.478 423.96 180.727C424.129 180.976 424.192 181.282 424.135 181.578C424.078 181.874 423.906 182.134 423.656 182.303C423.407 182.472 423.1 182.535 422.804 182.478L422.257 182.371C418.99 181.729 410.312 180.023 404.265 181.573C400.055 182.652 394.124 186.785 392.019 189.488C391.077 190.699 391.085 191.835 392.044 192.866C393.738 194.687 398.487 195.793 402.639 193.028C407.921 189.509 418.745 193.02 419.203 193.171C419.49 193.266 419.727 193.47 419.862 193.739C419.998 194.008 420.021 194.319 419.926 194.605C419.832 194.891 419.628 195.128 419.358 195.263C419.089 195.398 418.777 195.421 418.491 195.327C415.66 194.396 407.519 192.506 403.899 194.916C401.902 196.247 399.556 196.958 397.156 196.96Z" fill="#2D2D2D"/>
<path d="M421.971 191.526C419.215 191.522 412.112 188.13 407.03 190.951C402.283 193.586 398.388 202.193 398.445 204.248C398.596 209.711 406.823 210.294 409.699 204.782C411.66 201.024 416.291 206.032 421.142 207.289" fill="white"/>
<path d="M403.389 209.771C402.829 209.771 402.285 209.71 401.772 209.592C399.093 208.976 397.382 206.94 397.308 204.279C397.24 201.789 401.336 192.812 406.478 189.959C410.48 187.737 415.356 188.931 418.917 189.803C420.149 190.105 421.312 190.39 421.972 190.391C422.274 190.392 422.563 190.511 422.776 190.724C422.989 190.937 423.108 191.226 423.108 191.527C423.108 191.828 422.988 192.117 422.775 192.329C422.561 192.542 422.272 192.661 421.971 192.661H421.969C421.036 192.66 419.803 192.358 418.375 192.008C415.18 191.226 410.805 190.154 407.582 191.943C403.057 194.454 399.538 202.705 399.58 204.217C399.644 206.525 401.491 207.198 402.283 207.38C404.404 207.868 407.285 206.953 408.691 204.258C409.187 203.307 409.879 202.689 410.746 202.422C412.542 201.867 414.531 202.931 416.834 204.161C418.334 204.963 419.884 205.791 421.427 206.191C421.573 206.227 421.711 206.291 421.832 206.38C421.953 206.47 422.055 206.582 422.133 206.711C422.21 206.84 422.261 206.984 422.282 207.132C422.303 207.281 422.295 207.433 422.257 207.579C422.219 207.724 422.153 207.861 422.062 207.981C421.971 208.1 421.856 208.201 421.726 208.276C421.596 208.351 421.452 208.4 421.302 208.419C421.153 208.438 421.001 208.428 420.856 208.388C419.051 207.92 417.304 206.986 415.762 206.163C414.063 205.255 412.305 204.316 411.417 204.591C411.244 204.644 410.983 204.776 410.706 205.308C409.101 208.383 406.07 209.771 403.389 209.771ZM473.95 169.13C473.682 169.13 473.422 169.036 473.217 168.863C473.012 168.691 472.874 168.452 472.829 168.188C472.783 167.924 472.832 167.653 472.967 167.422C473.103 167.191 473.315 167.015 473.568 166.925C478.893 165.028 482.015 161.446 482.046 161.41C482.242 161.181 482.521 161.04 482.821 161.017C483.121 160.994 483.419 161.091 483.648 161.286C483.876 161.481 484.018 161.759 484.042 162.059C484.065 162.359 483.969 162.655 483.774 162.884C483.632 163.049 480.253 166.952 474.331 169.063C474.209 169.107 474.08 169.129 473.95 169.129V169.13ZM467.9 213.758C467.687 213.758 467.478 213.698 467.298 213.585C467.117 213.473 466.972 213.311 466.879 213.12C466.786 212.928 466.748 212.714 466.771 212.503C466.794 212.291 466.876 212.09 467.008 211.922C473.229 204.011 473.326 192.534 471.342 184.431C469.696 177.709 466.46 172.533 462.897 170.921C462.624 170.795 462.413 170.567 462.308 170.286C462.204 170.006 462.214 169.695 462.338 169.422C462.462 169.149 462.688 168.936 462.968 168.83C463.248 168.723 463.559 168.731 463.833 168.853C468.082 170.774 471.714 176.396 473.549 183.892C475.66 192.513 475.519 204.773 468.794 213.325C468.688 213.46 468.552 213.569 468.397 213.644C468.242 213.719 468.072 213.758 467.9 213.758L467.9 213.758Z" fill="#2D2D2D"/>
</g>
<defs>
<clipPath id="clip0_5372_2671">
<rect width="590" height="474.895" fill="white" transform="translate(0 0.521484)"/>
</clipPath>
</defs>
</svg>
