<svg width="502" height="502" viewBox="0 0 502 502" fill="none" xmlns="http://www.w3.org/2000/svg">
<g clip-path="url(#clip0_5360_20768)">
<path d="M151.852 450.409C159.317 406.617 163.832 367.869 166.158 331.499C168.846 289.487 169.889 263.175 166.532 220.379C165.449 206.576 175.773 194.509 189.592 193.428C203.409 192.345 215.492 202.658 216.575 216.462C223.136 300.095 217.606 361.702 201.29 457.412C199.206 469.637 149.525 464.058 151.852 450.409Z" fill="white"/>
<path d="M183.548 465.02C172.626 465.02 159.95 462.069 154.293 457.385C151.725 455.258 150.596 452.797 151.027 450.268C158.238 407.967 162.915 369.1 165.324 331.446C167.862 291.769 169.154 264.5 165.698 220.445C164.581 206.204 175.27 193.71 189.527 192.595C196.431 192.053 203.136 194.232 208.403 198.727C213.669 203.224 216.868 209.498 217.409 216.397C220.653 257.736 220.95 294.618 218.346 332.466C215.931 367.574 211.077 404.983 202.115 457.553C201.697 460.003 199.715 461.901 196.221 463.195C192.84 464.446 188.364 465.02 183.548 465.02V465.02ZM151.852 450.408L152.677 450.549C152.347 452.483 153.25 454.35 155.361 456.098C160.691 460.512 173.088 463.331 183.639 463.332C188.235 463.332 192.479 462.797 195.64 461.627C198.531 460.557 200.155 459.091 200.465 457.272C215.983 366.249 222.605 304.024 215.741 216.527C215.234 210.074 212.242 204.204 207.315 199.998C202.388 195.792 196.113 193.755 189.658 194.261C176.321 195.305 166.321 206.993 167.366 220.314C170.831 264.48 169.537 291.803 166.993 331.553C164.581 369.266 159.898 408.19 152.677 450.549L151.852 450.408V450.408Z" fill="#3375E0"/>
<path d="M154.75 432.265C158.37 400.111 162.202 361.964 163.181 322.828C164.163 283.574 163.609 260.572 158.673 221.83C156.534 205.043 168.424 189.702 185.23 187.566C202.035 185.428 217.394 197.305 219.533 214.093C224.865 255.941 225.573 281.975 224.513 324.359C223.475 365.844 219.484 405.648 215.717 439.113C199.156 441.987 168.959 439.95 154.75 432.265L154.75 432.265Z" fill="#A8CFFB"/>
<path d="M198.722 441.216C182.764 441.216 164.47 438.473 154.351 433C154.205 432.921 154.085 432.799 154.008 432.652C153.931 432.504 153.9 432.337 153.918 432.172C157.536 400.032 161.367 361.906 162.345 322.807C163.292 284.923 162.867 261.368 157.843 221.935C155.649 204.718 167.887 188.928 185.124 186.736C193.474 185.675 201.737 187.925 208.393 193.072C215.049 198.219 219.299 205.647 220.362 213.987C225.87 257.209 226.359 284.022 225.349 324.38C224.311 365.897 220.317 405.723 216.548 439.207C216.528 439.386 216.45 439.555 216.325 439.686C216.201 439.818 216.038 439.906 215.859 439.937C210.94 440.79 205.011 441.217 198.721 441.217L198.722 441.216ZM155.645 431.793C162.122 435.147 172.309 437.636 184.432 438.817C195.421 439.888 206.765 439.727 214.955 438.393C218.7 405.076 222.646 365.533 223.676 324.338C224.683 284.066 224.196 257.313 218.702 214.198C217.696 206.3 213.671 199.267 207.368 194.393C201.066 189.519 193.242 187.389 185.335 188.394C169.013 190.469 157.425 205.421 159.502 221.724C164.54 261.264 164.967 284.877 164.017 322.849C163.043 361.782 159.247 399.737 155.644 431.793L155.645 431.793Z" fill="#3375E0"/>
<path d="M151.851 450.409L148.449 475.684H238.065C238.065 475.684 241.084 459.017 231.039 454.275C218.465 448.339 208.305 445.437 198.816 443.5C190.568 441.817 189.674 449.673 189.674 449.673C177.11 446.944 166.878 452.593 151.851 450.409Z" fill="white"/>
<path d="M238.065 476.52H148.45C148.33 476.52 148.213 476.494 148.104 476.445C147.996 476.396 147.899 476.324 147.82 476.234C147.742 476.145 147.683 476.039 147.649 475.925C147.615 475.811 147.605 475.691 147.621 475.573L151.023 450.298C151.037 450.188 151.074 450.082 151.13 449.987C151.185 449.891 151.26 449.808 151.348 449.741C151.436 449.675 151.537 449.626 151.644 449.599C151.752 449.572 151.863 449.566 151.973 449.582C159.276 450.644 165.413 449.828 171.349 449.039C177.254 448.254 182.846 447.511 189.016 448.686C189.322 447.458 190.126 445.241 192.124 443.792C193.917 442.492 196.225 442.119 198.985 442.682C206.739 444.265 217.431 446.927 231.398 453.52C241.901 458.479 239.017 475.127 238.889 475.833C238.854 476.026 238.753 476.201 238.602 476.326C238.452 476.452 238.262 476.52 238.066 476.52L238.065 476.52ZM149.406 474.849H237.344C237.756 471.73 238.908 458.915 230.682 455.031C216.877 448.514 206.311 445.883 198.649 444.319C196.375 443.855 194.513 444.13 193.117 445.136C190.888 446.744 190.508 449.739 190.504 449.769C190.477 450.003 190.351 450.216 190.159 450.352C189.967 450.489 189.726 450.54 189.496 450.489C183.278 449.139 177.591 449.895 171.569 450.695C165.745 451.469 159.731 452.269 152.569 451.35L149.406 474.849Z" fill="#3375E0"/>
<path d="M239.388 481.085H185.155C182.87 481.085 180.709 480.405 179.04 479.055C176.362 476.89 172.458 475.757 167.086 475.859L166.394 481.085H146.053L147.395 471.128H171.241C173.133 471.128 174.955 471.515 176.595 472.264L181.592 474.548C183.233 475.298 185.056 475.685 186.949 475.685H240.056L239.388 481.085Z" fill="#3375E0"/>
<path d="M239.388 481.921H185.155C182.639 481.921 180.28 481.134 178.513 479.705C176.051 477.715 172.456 476.701 167.82 476.689L167.223 481.195C167.197 481.396 167.098 481.58 166.945 481.713C166.793 481.847 166.597 481.921 166.394 481.921H146.052C145.933 481.921 145.815 481.895 145.707 481.846C145.598 481.797 145.501 481.725 145.423 481.635C145.344 481.545 145.286 481.44 145.251 481.326C145.217 481.212 145.207 481.092 145.223 480.974L146.565 471.017C146.592 470.817 146.691 470.633 146.844 470.5C146.996 470.366 147.192 470.293 147.395 470.293H171.241C173.265 470.293 175.183 470.701 176.943 471.505L181.939 473.788C183.48 474.492 185.165 474.849 186.948 474.849H240.055C240.174 474.849 240.291 474.874 240.399 474.923C240.507 474.972 240.604 475.043 240.682 475.132C240.761 475.22 240.819 475.325 240.854 475.438C240.889 475.551 240.9 475.67 240.885 475.787L240.218 481.188C240.193 481.39 240.094 481.576 239.941 481.711C239.788 481.846 239.591 481.921 239.387 481.921L239.388 481.921ZM167.729 475.017C172.803 475.017 176.783 476.156 179.566 478.406C181.057 479.612 182.99 480.249 185.155 480.249H238.648L239.109 476.52H186.948C184.923 476.52 183.004 476.112 181.243 475.308L176.247 473.025C174.707 472.321 173.023 471.964 171.241 471.964H148.126L147.009 480.249H165.66L166.256 475.749C166.282 475.551 166.379 475.369 166.528 475.236C166.677 475.102 166.869 475.027 167.07 475.023C167.291 475.019 167.511 475.017 167.729 475.017H167.729ZM204.965 455.043C204.886 455.043 204.806 455.031 204.727 455.008L189.436 450.474C188.993 450.343 188.741 449.878 188.872 449.436C189.004 448.994 189.468 448.74 189.912 448.872L205.203 453.406C205.396 453.463 205.562 453.587 205.671 453.756C205.779 453.926 205.823 454.128 205.794 454.327C205.766 454.526 205.666 454.708 205.513 454.84C205.361 454.971 205.166 455.043 204.965 455.043Z" fill="#3375E0"/>
<mask id="mask0_5360_20768" style="mask-type:luminance" maskUnits="userSpaceOnUse" x="154" y="187" width="71" height="254">
<path d="M154.75 432.265C158.37 400.111 162.202 361.964 163.181 322.828C164.163 283.574 163.609 260.572 158.673 221.83C156.534 205.043 168.424 189.702 185.23 187.566C202.035 185.428 217.394 197.305 219.533 214.093C224.865 255.941 225.573 281.975 224.513 324.359C223.475 365.844 219.484 405.648 215.717 439.113C199.156 441.987 168.959 439.95 154.75 432.265L154.75 432.265Z" fill="white"/>
</mask>
<g mask="url(#mask0_5360_20768)">
<path d="M167.211 441.981C166.997 441.981 166.78 441.969 166.562 441.943C163.503 441.589 161.309 438.825 161.663 435.768C170.908 356.01 172.297 263.892 165.039 211.753C164.615 208.705 166.745 205.892 169.796 205.468C172.847 205.046 175.664 207.171 176.088 210.219C179.554 235.118 181.218 270.489 180.775 309.817C180.303 351.806 177.525 395.802 172.744 437.051C172.415 439.889 170.004 441.981 167.211 441.981Z" fill="white"/>
</g>
<path d="M198.722 441.216C182.764 441.216 164.47 438.473 154.351 433C154.205 432.921 154.085 432.799 154.008 432.652C153.931 432.504 153.9 432.337 153.918 432.172C157.536 400.032 161.367 361.906 162.345 322.807C163.292 284.923 162.867 261.368 157.843 221.935C155.649 204.718 167.887 188.928 185.124 186.736C193.474 185.675 201.737 187.925 208.393 193.072C215.049 198.219 219.299 205.647 220.362 213.987C225.87 257.209 226.359 284.022 225.349 324.38C224.311 365.897 220.317 405.723 216.548 439.207C216.528 439.386 216.45 439.555 216.325 439.686C216.201 439.818 216.038 439.906 215.859 439.937C210.94 440.79 205.011 441.217 198.721 441.217L198.722 441.216ZM155.645 431.793C162.122 435.147 172.309 437.636 184.432 438.817C195.421 439.888 206.765 439.727 214.955 438.393C218.7 405.076 222.646 365.533 223.676 324.338C224.683 284.066 224.196 257.313 218.702 214.198C217.696 206.3 213.671 199.267 207.368 194.393C201.066 189.519 193.242 187.389 185.335 188.394C169.013 190.469 157.425 205.421 159.502 221.724C164.54 261.264 164.967 284.877 164.017 322.849C163.043 361.782 159.247 399.737 155.644 431.793L155.645 431.793Z" fill="#3375E0"/>
<path d="M277.576 229.186C247.71 229.191 235.816 197.39 232.556 172.04C231.554 166.543 230.046 158.262 228.673 156.012C217.39 141.784 238.171 124.478 250.14 138.233C264.723 152.817 257.03 219.176 288.647 196.311C304.969 184.958 322.971 159.578 340.622 152.951C358.478 146.247 367.443 172.37 350.346 179.058C329.268 191.571 305.989 229.894 277.576 229.186Z" fill="white"/>
<path d="M278.342 230.031C278.083 230.031 277.825 230.028 277.565 230.021C263.805 230.021 252.641 223.477 244.383 210.571C236.406 198.106 233.099 182.811 231.729 172.168L231.727 172.16C230.805 167.105 229.267 158.668 227.983 156.488C221.855 148.717 224.812 140.413 230.163 135.977C235.508 131.546 244.228 130.188 250.752 137.663C256.217 143.153 258.535 155.086 260.989 167.719C263.755 181.956 266.615 196.678 274.185 199.665C277.84 201.108 282.41 199.79 288.155 195.634C294.662 191.109 301.335 184.44 308.4 177.38C318.82 166.966 329.595 156.198 340.327 152.169C349.802 148.612 356.776 153.916 359.248 160.349C361.918 167.299 359.839 176.203 350.715 179.811C343.463 184.132 335.919 191.564 327.932 199.432C313.361 213.787 296.872 230.03 278.342 230.031ZM277.577 228.35H277.596C277.843 228.356 278.091 228.359 278.338 228.359C296.187 228.359 312.415 212.371 326.758 198.242C334.839 190.28 342.474 182.759 349.918 178.339C349.957 178.316 349.998 178.296 350.041 178.28C358.204 175.086 360.066 167.143 357.686 160.948C355.428 155.07 349.367 150.56 340.915 153.733C330.522 157.635 319.877 168.273 309.583 178.561C302.464 185.676 295.74 192.395 289.124 196.997C282.891 201.505 277.8 202.888 273.571 201.22C265.147 197.895 262.198 182.716 259.346 168.037C257.046 156.192 254.666 143.943 249.547 138.824C249.534 138.81 249.52 138.796 249.508 138.781C243.719 132.128 235.976 133.331 231.231 137.263C226.477 141.204 223.854 148.59 229.328 155.494C229.349 155.521 229.369 155.549 229.387 155.578C230.726 157.774 232.037 164.533 233.373 171.86L233.379 171.89C233.382 171.905 233.384 171.919 233.385 171.934C235.289 186.74 239.695 200.142 245.793 209.671C253.723 222.065 264.415 228.349 277.567 228.35H277.576H277.577Z" fill="#3375E0"/>
<path d="M277.504 234.744C247.322 235.194 230.356 203.351 227.069 173.037C226.217 168.365 224.949 161.404 223.914 158.98C208.91 139.221 237.425 116.36 254.41 134.649C266.823 148.016 262.886 196.02 277.545 195.744C286.435 195.576 296.617 181.936 303.408 175.279C312.557 166.31 320.394 172.052 327.258 178.919C334.122 185.786 340.014 193.777 330.98 202.889C315.249 218.755 301.023 234.393 277.504 234.744L277.504 234.744Z" fill="white"/>
<path d="M276.879 235.584C263.014 235.584 250.8 228.794 241.521 215.915C233.446 204.706 228.019 189.522 226.24 173.157L226.235 173.125C225.41 168.609 224.17 161.812 223.182 159.399C219.662 154.724 218.248 149.533 219.092 144.382C219.848 139.774 222.386 135.456 226.24 132.224C230.234 128.875 235.168 127.063 240.122 127.116C245.696 127.179 250.849 129.587 255.022 134.081C260.819 140.323 263.092 153.537 265.291 166.317C267.833 181.091 270.233 195.045 277.528 194.909C284.151 194.784 291.824 186.459 297.99 179.771C299.716 177.898 301.346 176.129 302.821 174.683C307.224 170.367 311.674 168.952 316.427 170.36C320.753 171.641 324.628 175.107 327.849 178.329C331.085 181.567 334.57 185.464 335.881 189.822C337.327 194.629 335.918 199.096 331.574 203.477C330.792 204.266 330.012 205.055 329.232 205.846C314.305 220.963 300.205 235.242 277.516 235.58C277.304 235.583 277.091 235.585 276.88 235.585L276.879 235.584ZM239.941 128.777C235.208 128.777 230.704 130.663 227.316 133.504C220.718 139.037 217.313 148.904 224.58 158.475C224.621 158.53 224.656 158.589 224.683 158.652C225.75 161.152 226.981 167.899 227.881 172.826L227.892 172.887C227.896 172.907 227.898 172.927 227.901 172.947C229.646 189.041 234.965 203.954 242.879 214.939C251.83 227.362 263.578 233.912 276.883 233.913C277.086 233.913 277.287 233.911 277.491 233.908C299.495 233.58 313.361 219.538 328.041 204.672C328.82 203.883 329.601 203.093 330.385 202.301C338.263 194.355 334.595 187.443 326.665 179.51C318.829 171.67 311.974 168.052 303.993 175.876C302.549 177.292 300.932 179.045 299.221 180.902C292.839 187.825 284.898 196.441 277.56 196.579C277.512 196.58 277.463 196.581 277.415 196.581C268.8 196.581 266.295 182.016 263.642 166.6C261.485 154.061 259.254 141.095 253.796 135.218C249.529 130.623 244.623 128.777 239.941 128.777V128.777Z" fill="#3375E0"/>
<path d="M51.9416 431.587C42.3117 431.587 33.1261 426.02 28.9776 416.658C23.3674 403.997 26.991 390.514 39.6661 384.909C54.8619 378.191 70.6361 367.039 82.4019 354.371C93.5112 342.41 103.236 327.613 111.307 310.391C125.823 279.413 133.474 253.832 138.462 209.062C139.995 195.301 152.406 185.388 166.182 186.919C179.958 188.45 189.883 200.846 188.35 214.607C182.704 265.293 173.812 295.279 156.769 331.647C134.834 378.456 102.978 411.356 62.0866 429.436C58.7839 430.896 55.3349 431.587 51.9416 431.587Z" fill="white"/>
<path d="M51.9413 432.423C41.6789 432.423 32.3647 426.368 28.2124 416.996C25.3559 410.55 24.8071 403.764 26.6669 397.886C28.6265 391.693 33.0044 386.941 39.3272 384.146C54.7241 377.338 70.2007 366.279 81.7886 353.803C92.8387 341.906 102.515 327.181 110.549 310.037C125.874 277.335 132.961 250.887 137.631 208.97C139.212 194.774 152.063 184.508 166.274 186.088C180.487 187.668 190.763 200.503 189.182 214.7C183.813 262.889 175.529 293.585 157.527 332.001C135.503 378.998 103.506 412.037 62.4248 430.2C59.0881 431.675 55.561 432.423 51.9413 432.423ZM163.389 187.599C151.202 187.599 140.672 196.78 139.293 209.154C136.81 231.442 133.624 249.225 129.265 265.12C125.184 279.996 119.88 294.068 112.065 310.745C103.957 328.046 94.1832 342.915 83.0153 354.939C71.2786 367.576 55.602 378.778 40.0049 385.674C28.2667 390.863 24.0466 403.466 29.7428 416.32C33.6277 425.087 42.3412 430.752 51.9418 430.752C55.3267 430.752 58.626 430.052 61.748 428.672C102.45 410.676 134.165 377.913 156.012 331.293C173.928 293.06 182.173 262.502 187.519 214.515C188.998 201.234 179.385 189.227 166.09 187.749C165.193 187.65 164.291 187.6 163.389 187.599Z" fill="#3375E0"/>
<path d="M188.126 236.188C182.469 275.757 176.506 296.64 164.922 326.391C146.979 372.475 120.451 407.003 86.0761 429.017C73.6985 421.502 57.9032 396.051 53.1641 377.87C65.0539 370.256 75.5608 359.595 84.788 347.057C93.6084 335.072 101.331 320.646 107.743 304.179C119.008 275.246 124.919 252.078 129.554 210.47C131.428 193.652 146.598 181.535 163.434 183.407C177.145 184.931 187.735 195.26 190.184 208.125" fill="#A8CFFB"/>
<path d="M86.0758 429.852C85.9252 429.852 85.7749 429.812 85.6413 429.731C73.5356 422.381 57.3587 397.28 52.3542 378.08C52.3097 377.91 52.3203 377.73 52.3847 377.565C52.449 377.401 52.5636 377.262 52.7122 377.167C63.8555 370.03 74.4205 359.733 84.1136 346.562C92.8902 334.636 100.578 320.275 106.963 303.876C118.843 273.361 124.334 249.769 128.723 210.378C129.654 202.022 133.787 194.528 140.361 189.277C146.935 184.026 155.162 181.646 163.527 182.576C170.358 183.335 176.61 186.215 181.605 190.904C186.435 195.438 189.774 201.498 191.005 207.969C191.047 208.187 191 208.412 190.875 208.595C190.75 208.779 190.558 208.905 190.34 208.946C190.122 208.988 189.896 208.941 189.713 208.816C189.529 208.692 189.403 208.499 189.361 208.281C186.901 195.356 176.445 185.694 163.342 184.237C155.419 183.356 147.63 185.61 141.405 190.582C135.181 195.555 131.267 202.65 130.385 210.563C125.979 250.116 120.462 273.815 108.522 304.482C102.084 321.017 94.3253 335.508 85.4617 347.552C75.7953 360.687 65.2557 371.01 54.1286 378.243C56.4719 386.882 61.3095 397.321 67.4616 406.996C73.7096 416.821 80.4608 424.446 86.0688 428.028C120.076 406.099 146.342 371.806 164.142 326.088C175.155 297.803 181.429 277.118 187.297 236.07C187.313 235.962 187.35 235.857 187.406 235.763C187.461 235.668 187.536 235.586 187.623 235.52C187.711 235.454 187.811 235.406 187.918 235.379C188.024 235.352 188.135 235.346 188.244 235.361C188.352 235.377 188.457 235.413 188.552 235.469C188.646 235.525 188.729 235.599 188.795 235.687C188.861 235.775 188.909 235.875 188.936 235.981C188.963 236.087 188.969 236.198 188.954 236.306C183.062 277.516 176.762 298.287 165.702 326.694C147.693 372.947 121.055 407.61 86.5275 429.721C86.3928 429.807 86.2361 429.853 86.076 429.853L86.0758 429.852Z" fill="#3375E0"/>
<path d="M39.6659 384.91L16.4805 395.023L52.3669 477.11C52.3669 477.11 68.0234 471.323 68.1116 459.66C68.222 445.04 66.6637 434.196 64.534 424.465C62.682 416.002 55.4967 419.275 55.4967 419.275C52.817 406.306 43.8087 399.858 39.6661 384.91L39.6659 384.91Z" fill="white"/>
<path d="M52.3669 477.945C52.2041 477.945 52.0448 477.898 51.9085 477.809C51.7723 477.72 51.6651 477.593 51.6 477.444L15.7135 395.357C15.6695 395.256 15.6458 395.148 15.6437 395.038C15.6416 394.929 15.6612 394.819 15.7013 394.717C15.7414 394.615 15.8013 394.522 15.8775 394.443C15.9537 394.364 16.0448 394.301 16.1455 394.257L39.3309 384.144C39.4408 384.096 39.5596 384.072 39.6795 384.074C39.7993 384.076 39.9174 384.104 40.0256 384.155C40.1338 384.206 40.2296 384.28 40.3067 384.372C40.3837 384.464 40.4401 384.571 40.472 384.686C42.486 391.954 45.6584 397.165 48.7263 402.206C51.7671 407.201 54.6469 411.933 56.1104 418.174C57.3188 417.826 59.4747 417.468 61.4862 418.473C63.4179 419.438 64.7183 421.394 65.351 424.285C67.09 432.232 69.0706 443.436 68.9479 459.666C68.8564 471.767 53.3184 477.649 52.6572 477.893C52.5643 477.928 52.466 477.945 52.3669 477.945ZM17.5817 395.454L52.8061 476.026C55.8299 474.724 67.2027 469.19 67.2747 459.653C67.396 443.589 65.4369 432.505 63.7163 424.643C63.1968 422.269 62.1945 420.696 60.7371 419.968C58.4995 418.85 55.8695 420.023 55.8433 420.036C55.7289 420.088 55.6043 420.113 55.4786 420.111C55.353 420.108 55.2295 420.077 55.1175 420.02C55.0054 419.964 54.9076 419.882 54.8313 419.783C54.755 419.683 54.7022 419.567 54.6768 419.444C53.3491 413.019 50.409 408.188 47.296 403.074C44.299 398.15 41.2044 393.066 39.1243 386.058L17.5817 395.454Z" fill="#3375E0"/>
<path d="M48.2286 481.084L26.5251 431.44C25.6107 429.348 25.331 427.018 25.8254 424.789C26.6185 421.214 26.0323 417.05 23.7933 412.182L19.0171 414.266L10.877 395.646L19.9815 391.674L29.5358 413.529C30.2939 415.263 30.6903 417.133 30.7009 419.025L30.7327 424.789C30.7432 426.681 31.1396 428.552 31.8978 430.286L53.1646 478.931L48.2289 481.084L48.2286 481.084Z" fill="#3375E0"/>
<path d="M48.2289 481.92C48.0661 481.92 47.9067 481.873 47.7705 481.784C47.6342 481.695 47.5269 481.568 47.4618 481.419L25.7583 431.774C24.7429 429.452 24.4838 426.974 25.0084 424.609C25.7385 421.318 25.186 417.51 23.3664 413.28L19.3518 415.031C19.2512 415.075 19.1428 415.099 19.0329 415.101C18.923 415.103 18.8138 415.084 18.7115 415.044C18.6092 415.004 18.5158 414.944 18.4367 414.868C18.3575 414.792 18.2942 414.701 18.2503 414.6L10.1099 395.98C10.0211 395.777 10.0168 395.547 10.0978 395.341C10.1788 395.135 10.3385 394.969 10.5418 394.88L19.6463 390.909C19.747 390.865 19.8554 390.842 19.9652 390.84C20.0751 390.837 20.1843 390.857 20.2866 390.897C20.3888 390.937 20.4822 390.997 20.5614 391.073C20.6405 391.149 20.7039 391.24 20.7478 391.341L30.3022 413.195C31.1079 415.033 31.5281 417.015 31.537 419.021L31.5688 424.785C31.5766 426.564 31.9493 428.322 32.6639 429.952L53.9307 478.598C53.9747 478.698 53.9984 478.806 54.0005 478.916C54.0026 479.026 53.9831 479.135 53.9429 479.237C53.9028 479.339 53.8429 479.432 53.7667 479.511C53.6905 479.59 53.5994 479.654 53.4987 479.698L48.563 481.851C48.4576 481.897 48.3438 481.921 48.2287 481.921L48.2289 481.92ZM23.7928 411.347C24.1099 411.347 24.4127 411.528 24.5536 411.834C26.7929 416.703 27.4956 421.123 26.6423 424.971C26.2008 426.96 26.4317 429.138 27.2918 431.105L48.6606 479.984L52.0628 478.5L31.1307 430.62C30.3248 428.783 29.9046 426.8 29.8958 424.794L29.8641 419.031C29.8561 417.252 29.4834 415.493 28.7689 413.864L19.5495 392.775L11.9785 396.077L19.4494 413.166L23.4587 411.417C23.5641 411.371 23.6777 411.347 23.7928 411.347ZM57.7018 436.513C57.4994 436.513 57.304 436.439 57.1518 436.306C56.9995 436.173 56.9008 435.989 56.8739 435.788L54.6677 419.386C54.6531 419.277 54.66 419.166 54.6882 419.06C54.7164 418.954 54.7651 418.855 54.8318 418.768C54.8985 418.68 54.9817 418.607 55.0767 418.552C55.1717 418.497 55.2766 418.461 55.3855 418.446C55.8418 418.388 56.2645 418.706 56.3262 419.163L58.5323 435.566C58.5482 435.684 58.5385 435.804 58.5041 435.918C58.4696 436.032 58.4111 436.138 58.3325 436.228C58.2538 436.317 58.1569 436.389 58.0482 436.438C57.9394 436.487 57.8214 436.513 57.7021 436.513L57.7018 436.513Z" fill="#3375E0"/>
<mask id="mask1_5360_20768" style="mask-type:luminance" maskUnits="userSpaceOnUse" x="53" y="183" width="138" height="247">
<path d="M188.126 236.188C182.469 275.757 176.506 296.64 164.922 326.391C146.979 372.475 120.451 407.003 86.0761 429.017C73.6985 421.502 57.9032 396.051 53.1641 377.87C65.0539 370.256 75.5608 359.595 84.788 347.057C93.6084 335.072 101.331 320.646 107.743 304.179C119.008 275.246 124.919 252.078 129.554 210.47C131.428 193.652 146.598 181.535 163.434 183.407C177.145 184.931 187.735 195.26 190.184 208.125" fill="white"/>
</mask>
<g mask="url(#mask1_5360_20768)">
<path d="M57.7084 396.137C55.7727 396.137 53.8915 395.13 52.8619 393.331C51.3326 390.66 52.2604 387.257 54.9342 385.729C97.279 361.539 126.583 299.057 135.333 214.305C137.261 195.627 146.054 189.7 154.557 183.967C157.111 182.246 160.577 182.918 162.3 185.468C164.024 188.018 163.351 191.481 160.798 193.202C152.984 198.47 147.822 201.95 146.429 215.449C144.269 236.367 140.819 256.333 136.174 274.792C131.456 293.542 125.485 310.813 118.427 326.126C111.154 341.906 102.675 355.714 93.2265 367.164C83.3593 379.122 72.3389 388.622 60.472 395.402C59.6308 395.884 58.6779 396.137 57.7081 396.137L57.7084 396.137Z" fill="white"/>
</g>
<path d="M86.0758 429.852C85.9252 429.852 85.7749 429.812 85.6413 429.731C73.5356 422.381 57.3587 397.28 52.3542 378.08C52.3097 377.91 52.3203 377.73 52.3847 377.565C52.449 377.401 52.5636 377.262 52.7122 377.167C63.8555 370.03 74.4205 359.733 84.1136 346.562C92.8902 334.636 100.578 320.275 106.963 303.876C118.843 273.361 124.334 249.769 128.723 210.378C129.654 202.022 133.787 194.528 140.361 189.277C146.935 184.026 155.162 181.646 163.527 182.576C170.358 183.335 176.61 186.215 181.605 190.904C186.435 195.438 189.774 201.498 191.005 207.969C191.047 208.187 191 208.412 190.875 208.595C190.75 208.779 190.558 208.905 190.34 208.946C190.122 208.988 189.896 208.941 189.713 208.816C189.529 208.692 189.403 208.499 189.361 208.281C186.901 195.356 176.445 185.694 163.342 184.237C155.419 183.356 147.63 185.61 141.405 190.582C135.181 195.555 131.267 202.65 130.385 210.563C125.979 250.116 120.462 273.815 108.522 304.482C102.084 321.017 94.3253 335.508 85.4617 347.552C75.7953 360.687 65.2557 371.01 54.1286 378.243C56.4719 386.882 61.3095 397.321 67.4616 406.996C73.7096 416.821 80.4608 424.446 86.0688 428.028C120.076 406.099 146.342 371.806 164.142 326.088C175.155 297.803 181.429 277.118 187.297 236.07C187.313 235.962 187.35 235.857 187.406 235.763C187.461 235.668 187.536 235.586 187.623 235.52C187.711 235.454 187.811 235.406 187.918 235.379C188.024 235.352 188.135 235.346 188.244 235.361C188.352 235.377 188.457 235.413 188.552 235.469C188.646 235.525 188.729 235.599 188.795 235.687C188.861 235.775 188.909 235.875 188.936 235.981C188.963 236.087 188.969 236.198 188.954 236.306C183.062 277.516 176.762 298.287 165.702 326.694C147.693 372.947 121.055 407.61 86.5275 429.721C86.3928 429.807 86.2361 429.853 86.076 429.853L86.0758 429.852Z" fill="#3375E0"/>
<path d="M241.426 167.219C228.134 180.945 230.829 196.839 217.054 205.321C200.581 215.464 147.965 205.659 139.24 189.822C132.016 176.707 149.899 146.885 152.452 136.49C155.374 124.592 156.738 112.134 165.647 110.636C177.642 108.62 197.453 110.837 197.453 110.837L225.611 120.817C232.825 123.22 249 122.857 257.373 139.01" fill="white"/>
<path d="M196.286 210.291C196.053 210.291 195.824 210.29 195.597 210.288C186.717 210.219 176.708 208.834 167.417 206.388C152.547 202.474 142.009 196.583 138.507 190.225C133.104 180.417 141.04 162.048 146.835 148.635C149.039 143.534 150.943 139.128 151.64 136.291C152.058 134.586 152.449 132.849 152.828 131.17C155.142 120.894 157.328 111.188 165.509 109.813C177.481 107.799 196.733 109.915 197.547 110.006C197.61 110.013 197.673 110.028 197.733 110.049L225.891 120.03C227.288 120.495 229.064 120.857 231.121 121.277C239.138 122.914 251.254 125.388 258.116 138.626C258.167 138.723 258.197 138.83 258.207 138.939C258.216 139.048 258.204 139.158 258.17 139.263C258.137 139.368 258.084 139.465 258.013 139.548C257.942 139.632 257.855 139.701 257.758 139.752C257.66 139.802 257.554 139.833 257.444 139.843C257.335 139.852 257.224 139.84 257.12 139.806C257.015 139.773 256.918 139.72 256.834 139.649C256.75 139.578 256.681 139.491 256.63 139.394C250.136 126.865 238.952 124.582 230.786 122.915C228.676 122.484 226.854 122.112 225.347 121.61L197.266 111.657C195.769 111.496 177.106 109.557 165.787 111.46C158.714 112.65 156.648 121.823 154.46 131.536C154.08 133.224 153.687 134.969 153.265 136.689C152.535 139.662 150.606 144.127 148.372 149.298C142.714 162.393 134.965 180.328 139.973 189.419C143.208 195.29 153.626 201.03 167.843 204.772C184.73 209.217 206.906 210.588 216.615 204.61C223.755 200.214 226.288 193.851 229.22 186.483C231.711 180.226 234.535 173.133 240.825 166.638C240.901 166.558 240.992 166.494 241.093 166.45C241.194 166.406 241.303 166.382 241.413 166.38C241.523 166.378 241.633 166.398 241.736 166.438C241.838 166.478 241.932 166.538 242.011 166.615C242.09 166.691 242.153 166.783 242.197 166.884C242.241 166.985 242.264 167.094 242.266 167.204C242.267 167.314 242.247 167.423 242.206 167.526C242.165 167.628 242.104 167.721 242.027 167.8C235.967 174.058 233.328 180.688 230.775 187.101C227.859 194.426 225.104 201.345 217.493 206.032C211.823 209.524 202.966 210.291 196.286 210.291Z" fill="#3375E0"/>
<path d="M355.57 165.671C360.268 163.289 363.651 163.602 368.773 165.908C375.412 168.899 371.291 172.844 366.342 172.903C361.229 172.963 356.448 176.576 350.347 179.058" fill="white"/>
<path d="M350.347 179.894C350.152 179.895 349.964 179.827 349.814 179.704C349.664 179.581 349.562 179.41 349.524 179.219C349.487 179.029 349.517 178.832 349.61 178.661C349.702 178.49 349.851 178.357 350.031 178.284C351.986 177.489 353.806 176.575 355.566 175.69C359.23 173.85 362.69 172.111 366.332 172.067C369.045 172.035 371.125 170.782 371.366 169.631C371.565 168.68 370.494 167.601 368.429 166.671C363.225 164.326 360.192 164.265 355.949 166.417C355.851 166.466 355.744 166.496 355.635 166.505C355.525 166.513 355.415 166.5 355.31 166.466C355.206 166.432 355.109 166.378 355.026 166.306C354.942 166.235 354.874 166.148 354.824 166.05C354.774 165.952 354.744 165.845 354.736 165.736C354.727 165.627 354.74 165.517 354.775 165.412C354.809 165.308 354.863 165.211 354.934 165.128C355.006 165.045 355.093 164.976 355.191 164.926C360.477 162.246 364.3 162.978 369.117 165.147C373.01 166.9 373.223 168.923 373.004 169.972C372.564 172.08 369.704 173.699 366.352 173.739C363.097 173.777 359.956 175.356 356.319 177.183C354.53 178.082 352.679 179.012 350.662 179.832C350.559 179.874 350.452 179.894 350.347 179.894H350.347Z" fill="#3375E0"/>
<path d="M352.868 155.947C356.486 153.343 369.454 156.765 372.237 157.955C378.23 160.518 372.835 165.879 366.093 164.856C359.134 163.799 358.112 165.347 354.489 167.571" fill="white"/>
<path d="M354.489 168.407C354.307 168.407 354.129 168.348 353.983 168.238C353.838 168.129 353.732 167.974 353.683 167.799C353.633 167.624 353.642 167.437 353.708 167.268C353.775 167.098 353.895 166.955 354.05 166.859C354.533 166.563 354.967 166.279 355.387 166.006C358.099 164.237 359.891 163.069 366.217 164.03C370.258 164.644 373.487 162.76 373.934 161.193C374.288 159.951 372.816 159.112 371.906 158.724C368.55 157.288 356.388 154.443 353.356 156.625C353.267 156.691 353.166 156.738 353.058 156.765C352.951 156.791 352.839 156.796 352.73 156.779C352.62 156.762 352.515 156.724 352.421 156.666C352.326 156.608 352.244 156.532 352.179 156.442C352.115 156.352 352.068 156.251 352.043 156.143C352.018 156.035 352.015 155.923 352.033 155.814C352.052 155.705 352.092 155.601 352.151 155.507C352.21 155.414 352.287 155.333 352.378 155.269C356.616 152.217 370.438 156.278 372.565 157.187C375.985 158.649 375.787 160.796 375.543 161.651C374.818 164.19 370.798 166.416 365.965 165.682C360.27 164.817 358.861 165.736 356.302 167.405C355.873 167.685 355.429 167.975 354.926 168.283C354.794 168.364 354.643 168.407 354.489 168.407L354.489 168.407Z" fill="#3375E0"/>
<path d="M340.621 152.951C350.346 148.893 365.998 147.345 369.641 148.279C374.912 149.63 371.83 156.682 364.259 156.603C358.369 156.541 353.281 158.809 353.281 158.809" fill="white"/>
<path d="M353.282 159.645C353.09 159.645 352.904 159.58 352.755 159.459C352.606 159.339 352.503 159.171 352.463 158.984C352.423 158.797 352.449 158.602 352.535 158.431C352.622 158.26 352.765 158.125 352.94 158.047C353.152 157.952 358.123 155.766 364.019 155.766C364.102 155.766 364.185 155.766 364.268 155.767C368.758 155.823 371.184 153.227 371.416 151.463C371.569 150.298 370.865 149.455 369.434 149.088C365.886 148.18 350.461 149.751 340.944 153.722C340.843 153.766 340.733 153.789 340.623 153.79C340.512 153.791 340.403 153.77 340.301 153.728C340.198 153.687 340.105 153.626 340.026 153.548C339.948 153.47 339.886 153.378 339.843 153.276C339.8 153.174 339.778 153.065 339.778 152.955C339.778 152.844 339.8 152.735 339.842 152.633C339.885 152.531 339.947 152.439 340.025 152.361C340.104 152.283 340.197 152.222 340.299 152.18C350.278 148.016 366.026 146.49 369.849 147.469C372.105 148.047 373.341 149.661 373.075 151.681C372.7 154.527 369.353 157.439 364.385 157.439C364.34 157.439 364.296 157.439 364.251 157.438C358.617 157.38 353.671 159.551 353.622 159.573C353.512 159.622 353.396 159.645 353.282 159.645H353.282Z" fill="#3375E0"/>
<path d="M334.527 160.386C336.798 158.418 339.263 156.519 341.727 155.727C345.989 154.357 355.32 153.911 357.078 153.841C365.199 153.521 361.909 161.027 355.963 162.472C351.819 163.48 348.802 164.136 348.802 164.136C348.802 164.136 350.367 168.956 344.489 171.81" fill="white"/>
<path d="M344.49 172.646C344.3 172.646 344.116 172.582 343.968 172.464C343.82 172.347 343.716 172.182 343.673 171.998C343.631 171.813 343.652 171.62 343.734 171.449C343.816 171.279 343.953 171.141 344.123 171.058C349.242 168.573 348.058 164.559 348.005 164.389C347.935 164.165 347.962 163.92 348.08 163.718C348.198 163.515 348.395 163.369 348.624 163.319C348.655 163.313 351.681 162.653 355.765 161.66C359.004 160.872 361.314 158.113 361.068 156.354C360.905 155.195 359.465 154.584 357.111 154.676C356.016 154.719 346.291 155.138 341.983 156.522C339.571 157.298 337.138 159.23 335.076 161.017C334.908 161.161 334.691 161.232 334.47 161.216C334.25 161.2 334.045 161.097 333.9 160.93C333.755 160.764 333.682 160.547 333.697 160.326C333.712 160.106 333.813 159.901 333.979 159.755C336.169 157.857 338.771 155.799 341.471 154.931C345.991 153.479 355.927 153.05 357.045 153.006C361.749 152.819 362.585 155.124 362.724 156.123C363.119 158.94 359.991 162.353 356.161 163.284C354.035 163.801 351.904 164.299 349.769 164.778C349.959 166.476 349.737 170.192 344.855 172.562C344.741 172.617 344.616 172.646 344.49 172.646Z" fill="#3375E0"/>
<path d="M224.543 119.945L229.236 121.931C227.352 126.314 216.329 137.546 211.704 135.823C207.294 134.181 201.436 117.457 201.078 111.951L206.488 113.005L212.61 97.438L230.616 104.504L224.543 119.945V119.945Z" fill="white"/>
<path d="M212.725 136.828C212.256 136.828 211.816 136.757 211.411 136.607C206.482 134.771 200.604 117.552 200.243 112.005C200.235 111.878 200.256 111.75 200.305 111.632C200.354 111.514 200.429 111.408 200.525 111.324C200.622 111.239 200.736 111.178 200.859 111.145C200.983 111.111 201.113 111.106 201.238 111.131L205.963 112.051L211.832 97.1325C211.913 96.9263 212.073 96.7607 212.276 96.6721C212.479 96.5836 212.71 96.5794 212.916 96.6604L230.922 103.727C231.024 103.767 231.117 103.827 231.196 103.903C231.275 103.979 231.339 104.07 231.383 104.17C231.427 104.271 231.45 104.379 231.452 104.489C231.454 104.599 231.434 104.708 231.394 104.81L225.619 119.493L229.562 121.162C229.663 121.205 229.755 121.268 229.832 121.346C229.91 121.425 229.97 121.518 230.012 121.62C230.053 121.722 230.073 121.831 230.072 121.941C230.071 122.051 230.048 122.16 230.005 122.261C228.132 126.618 218.358 136.827 212.725 136.828ZM202.034 112.989C202.958 119.251 208.324 133.673 211.996 135.041C215.679 136.414 225.455 127.085 228.092 122.355L224.216 120.715C224.016 120.63 223.856 120.47 223.771 120.269C223.687 120.068 223.684 119.843 223.764 119.64L229.531 104.977L213.083 98.5217L207.267 113.311C207.195 113.492 207.062 113.643 206.89 113.737C206.719 113.831 206.52 113.862 206.328 113.825L202.034 112.989H202.034Z" fill="#3375E0"/>
<path d="M323.247 164.338C324.37 175.754 332.749 185.916 341.386 185.519L334.527 191.842C325.268 192.79 315.854 182.23 315.854 171.182L323.247 164.338Z" fill="white"/>
<path d="M333.357 192.737C329.73 192.737 326.005 191.16 322.74 188.216C317.977 183.921 315.019 177.394 315.019 171.182C315.019 170.949 315.116 170.727 315.287 170.569L322.679 163.725C322.793 163.619 322.934 163.547 323.087 163.517C323.24 163.488 323.398 163.501 323.544 163.556C323.69 163.612 323.817 163.706 323.912 163.83C324.006 163.954 324.065 164.101 324.08 164.256C324.604 169.579 326.812 174.887 330.139 178.819C333.441 182.722 337.526 184.861 341.349 184.684C341.693 184.664 342.023 184.872 342.159 185.196C342.225 185.355 342.241 185.529 342.204 185.697C342.168 185.864 342.081 186.016 341.955 186.133L335.096 192.456C334.963 192.578 334.793 192.655 334.614 192.673C334.196 192.716 333.777 192.737 333.358 192.737H333.357ZM316.695 171.543C316.807 177.188 319.531 183.071 323.861 186.975C327.064 189.863 330.712 191.299 334.17 191.035L339.348 186.26C331.558 185.216 324.266 176.499 322.623 166.054L316.695 171.543L316.695 171.543Z" fill="#3375E0"/>
<path d="M210.56 124.927C211.331 128.445 213.89 134.973 213.77 138.888L208.192 137.152C208.192 137.152 206.41 129.727 205.636 127.518C206.125 124.018 207.706 123.016 210.56 124.927Z" fill="white"/>
<path d="M213.769 139.724C213.685 139.724 213.601 139.711 213.52 139.686L207.943 137.95C207.804 137.907 207.68 137.829 207.581 137.723C207.482 137.617 207.412 137.488 207.378 137.347C207.361 137.273 205.598 129.938 204.846 127.795C204.802 127.669 204.789 127.535 204.807 127.403C205.113 125.209 205.83 123.888 206.999 123.365C208.086 122.88 209.44 123.171 211.025 124.233C211.205 124.353 211.331 124.537 211.377 124.748C211.616 125.838 212.045 127.269 212.498 128.785C213.527 132.219 214.692 136.111 214.606 138.914C214.599 139.131 214.508 139.337 214.352 139.488C214.196 139.64 213.987 139.724 213.77 139.725L213.769 139.724ZM208.894 136.495L212.898 137.742C212.692 135.264 211.708 131.977 210.895 129.263C210.476 127.865 210.079 126.537 209.82 125.444C209.118 125.012 208.259 124.633 207.683 124.891C207.133 125.137 206.713 126.039 206.493 127.44C207.189 129.53 208.501 134.875 208.894 136.495H208.894Z" fill="#3375E0"/>
<path d="M209.827 104.514C205.65 103.665 197.463 107.145 194.637 109.57C191.811 111.995 196.955 131.361 199.158 133.203C199.158 133.203 207.934 124.579 210.56 124.927C207.942 116.456 207.199 110.102 209.827 104.514L209.827 104.514Z" fill="white"/>
<path d="M199.158 134.039C198.962 134.039 198.772 133.97 198.622 133.844C196.497 132.067 193.013 119.239 192.974 113.047C192.96 110.909 193.316 109.602 194.092 108.936C196.897 106.53 205.339 102.75 209.995 103.695C210.119 103.72 210.236 103.773 210.336 103.85C210.437 103.927 210.518 104.026 210.575 104.139C210.632 104.252 210.662 104.376 210.664 104.503C210.666 104.63 210.639 104.755 210.585 104.869C208.293 109.742 208.517 115.482 211.359 124.68C211.401 124.814 211.408 124.957 211.38 125.094C211.352 125.231 211.29 125.359 211.199 125.466C211.109 125.574 210.993 125.656 210.862 125.707C210.731 125.757 210.589 125.774 210.45 125.755C209.071 125.572 203.826 129.789 199.745 133.799C199.589 133.953 199.378 134.039 199.158 134.039H199.158ZM208.384 105.217C204.312 105.217 197.674 108.066 195.183 110.204C195.091 110.283 194.633 110.79 194.647 113.036C194.685 119.051 197.688 129.215 199.247 131.951C201.576 129.713 206.536 125.188 209.482 124.254C206.958 115.768 206.69 110.095 208.612 105.22C208.536 105.218 208.46 105.217 208.384 105.217Z" fill="#3375E0"/>
<path d="M219.348 127.519C216.171 129.035 209.227 134.053 208.192 137.152L213.77 138.888C213.77 138.888 220.417 133.271 223.318 132.482C223.139 130.023 221.944 128.278 219.348 127.519V127.519Z" fill="white"/>
<path d="M213.77 139.724C213.686 139.724 213.602 139.712 213.521 139.686L207.943 137.95C207.837 137.917 207.738 137.863 207.653 137.791C207.568 137.72 207.498 137.632 207.447 137.533C207.397 137.434 207.366 137.326 207.358 137.215C207.349 137.105 207.363 136.993 207.398 136.888C208.601 133.284 216.066 128.159 218.986 126.764C219.172 126.675 219.384 126.658 219.582 126.716C222.398 127.54 223.936 129.459 224.152 132.42C224.166 132.614 224.113 132.806 224 132.964C223.888 133.122 223.725 133.237 223.538 133.288C221.306 133.895 216.12 137.997 214.31 139.526C214.159 139.654 213.968 139.724 213.77 139.724ZM209.357 136.639L213.583 137.955C214.913 136.855 219.585 133.078 222.41 131.914C222.118 130.135 221.153 129.01 219.416 128.416C216.48 129.907 211.002 133.908 209.357 136.639Z" fill="#3375E0"/>
<path d="M227.708 110.965C230.721 112.972 235.825 119.781 236.119 123.65C236.413 127.519 230.889 137.551 226.202 138.888C226.202 138.888 223.207 130.194 219.348 127.519C224.159 121.937 226.611 116.43 227.708 110.965Z" fill="white"/>
<path d="M226.2 139.724C226.026 139.724 225.856 139.669 225.715 139.568C225.573 139.467 225.466 139.325 225.409 139.16C225.38 139.076 222.458 130.693 218.869 128.205C218.773 128.138 218.692 128.052 218.631 127.952C218.57 127.852 218.531 127.74 218.516 127.624C218.502 127.508 218.511 127.39 218.545 127.278C218.579 127.166 218.636 127.062 218.712 126.973C223.034 121.96 225.708 116.67 226.887 110.801C226.914 110.666 226.974 110.541 227.061 110.435C227.148 110.329 227.26 110.246 227.387 110.193C227.514 110.141 227.652 110.121 227.789 110.134C227.925 110.147 228.057 110.194 228.171 110.27C231.328 112.372 236.628 119.32 236.952 123.587C237.274 127.825 231.603 138.216 226.43 139.692C226.356 139.713 226.278 139.724 226.2 139.724V139.724ZM220.543 127.399C223.559 130.064 225.893 135.692 226.695 137.804C230.813 135.808 235.535 127.022 235.284 123.713C235.043 120.542 231.057 114.938 228.238 112.442C226.943 117.823 224.416 122.735 220.543 127.399Z" fill="#3375E0"/>
<path d="M212.499 100.814C209.309 95.0274 207.539 88.2662 207.512 80.7455C207.436 59.819 235.894 41.2583 253.849 57.7121C266.999 69.7625 268.901 96.2745 262.632 108.717C256.785 120.32 241.97 123.273 229.95 117.267C226.207 115.397 222.842 113.073 219.923 110.341" fill="white"/>
<path d="M242.573 121.143C238.18 121.143 233.717 120.084 229.575 118.015C225.764 116.11 222.324 113.733 219.351 110.951C219.271 110.876 219.206 110.786 219.161 110.686C219.116 110.586 219.091 110.478 219.087 110.368C219.084 110.258 219.102 110.149 219.14 110.046C219.179 109.944 219.238 109.85 219.313 109.77C219.388 109.689 219.478 109.625 219.578 109.58C219.678 109.534 219.786 109.509 219.896 109.506C220.006 109.502 220.115 109.52 220.218 109.559C220.321 109.598 220.415 109.656 220.495 109.731C223.35 112.404 226.657 114.688 230.324 116.52C242.616 122.662 256.479 119.069 261.884 108.342C264.924 102.308 266.001 92.6671 264.694 83.1819C263.229 72.5554 259.177 63.729 253.283 58.3281C246.116 51.7596 236.509 50.4178 226.926 54.6473C215.949 59.4913 208.31 70.2223 208.348 80.7429C208.374 87.9621 210.017 94.5794 213.231 100.411C213.284 100.508 213.318 100.613 213.33 100.722C213.342 100.831 213.332 100.942 213.302 101.047C213.271 101.153 213.22 101.251 213.151 101.337C213.083 101.422 212.998 101.494 212.902 101.547C212.805 101.6 212.7 101.633 212.59 101.645C212.481 101.657 212.371 101.648 212.265 101.617C212.16 101.587 212.061 101.536 211.975 101.467C211.89 101.399 211.818 101.314 211.765 101.218C208.415 95.1379 206.702 88.2513 206.675 80.749C206.634 69.5849 214.684 58.2228 226.249 53.1186C236.468 48.6086 246.734 50.0587 254.414 57.0969C260.594 62.7601 264.833 71.9429 266.351 82.9543C267.703 92.7571 266.563 102.773 263.378 109.094C260.497 114.811 255.321 118.83 248.802 120.408C246.77 120.9 244.679 121.144 242.573 121.144L242.573 121.143Z" fill="#3375E0"/>
<path d="M216.299 91.6765C220.894 89.9183 217.75 80.5567 222.32 71.9779C230.434 56.7473 255.994 56.7929 261.778 69.2258C266.812 61.4548 257.403 49.1266 248.285 48.4957C241.499 45.4926 234.031 44.9055 231.242 48.4801C221.213 46.1704 209.406 52.1264 208.246 60.1127C203.016 66.6021 199.407 79.6526 202.795 89.1353C206.651 99.927 213.476 92.7568 216.299 91.6768L216.299 91.6765Z" fill="#A8CFFB"/>
<path d="M208.66 95.8472C208.076 95.8472 207.487 95.7583 206.899 95.5522C204.823 94.8254 203.223 92.8182 202.007 89.416C198.537 79.7034 202.118 66.5354 207.453 59.7647C208.001 56.5285 210.187 53.4624 213.631 51.1087C218.579 47.727 225.161 46.3858 230.931 47.5577C234.397 43.8449 242.13 44.8911 248.49 47.6733C253.86 48.1148 259.565 52.3532 262.408 58.0321C264.518 62.2477 264.544 66.4931 262.48 69.6797C262.398 69.8052 262.285 69.9066 262.151 69.9734C262.017 70.0402 261.868 70.0699 261.719 70.0595C261.57 70.0491 261.426 69.9989 261.303 69.9142C261.179 69.8294 261.081 69.7133 261.018 69.5778C258.667 64.5226 252.475 61.2544 244.859 61.0488C235.417 60.7961 226.858 65.2379 223.058 72.3705C220.948 76.3307 220.532 80.5817 220.197 83.997C219.81 87.9455 219.476 91.3555 216.597 92.4572C216.154 92.6268 215.509 93.0251 214.826 93.4469C213.131 94.4934 210.938 95.8474 208.66 95.8474L208.66 95.8472ZM226.681 48.8101C222.437 48.8101 218.069 50.1006 214.576 52.4881C211.442 54.6298 209.488 57.3803 209.073 60.2324C209.052 60.3803 208.991 60.5198 208.897 60.6363C203.746 67.029 200.381 79.8928 203.583 88.8541C204.603 91.7104 205.905 93.4332 207.452 93.975C209.58 94.7204 212.001 93.226 213.946 92.0251C214.731 91.5407 215.408 91.1224 215.999 90.8962C217.823 90.1984 218.136 87.8772 218.532 83.834C218.881 80.2717 219.316 75.8379 221.581 71.5853C225.677 63.8975 234.835 59.1034 244.904 59.378C252.444 59.5814 258.733 62.6346 261.763 67.4549C263.11 64.1488 261.864 60.6828 260.911 58.7791C258.336 53.6337 253.001 49.6596 248.227 49.3293C248.129 49.3227 248.034 49.2991 247.945 49.2596C240.945 46.1613 234.198 46.0496 231.902 48.9936C231.804 49.1192 231.672 49.2143 231.522 49.2676C231.371 49.3209 231.209 49.3302 231.054 49.2945C229.641 48.9691 228.168 48.8101 226.681 48.8101Z" fill="#3375E0"/>
<path d="M216.299 91.6759C215.053 88.262 211.535 86.0826 207.8 86.6489C203.54 87.2949 200.611 91.2678 201.257 95.5227C201.904 99.7776 205.882 102.704 210.141 102.058C211.589 101.84 212.946 101.219 214.056 100.264" fill="white"/>
<path d="M208.965 102.982C204.77 102.983 201.079 99.9155 200.431 95.6483C199.716 90.9447 202.966 86.5369 207.674 85.823C211.724 85.209 215.684 87.5497 217.085 91.3901C217.159 91.598 217.149 91.8268 217.055 92.0267C216.961 92.2266 216.791 92.3813 216.584 92.4569C216.376 92.5325 216.147 92.5229 215.946 92.4303C215.746 92.3377 215.59 92.1695 215.513 91.9625C214.383 88.8673 211.192 86.9803 207.925 87.4753C204.129 88.0511 201.508 91.6051 202.085 95.3976C202.661 99.1904 206.22 101.807 210.016 101.232C211.308 101.037 212.519 100.482 213.51 99.6313C213.679 99.492 213.896 99.4243 214.114 99.4428C214.332 99.4612 214.534 99.5644 214.677 99.7302C214.82 99.8959 214.892 100.111 214.878 100.329C214.864 100.548 214.765 100.752 214.602 100.898C213.373 101.954 211.87 102.642 210.267 102.884C209.836 102.949 209.401 102.982 208.965 102.982Z" fill="#3375E0"/>
<path d="M235.431 86.9519C237.7 86.0031 239.996 85.6923 242.783 85.4438C244.569 85.2845 244.713 83.2864 242.279 82.1137C239.992 81.0115 235.354 81.8513 233.787 83.943C232.151 86.1252 233.579 87.7263 235.431 86.9519Z" fill="#A8CFFB"/>
<path d="M234.511 87.9849C233.779 87.9849 233.126 87.6963 232.696 87.1468C232.115 86.4025 231.921 85.0384 233.117 83.4423C235.008 80.9181 240.087 80.1303 242.642 81.3612C244.587 82.2983 245.094 83.6501 244.921 84.603C244.75 85.537 243.959 86.178 242.857 86.2763C239.924 86.5376 237.822 86.8582 235.754 87.7228C235.333 87.8991 234.91 87.9849 234.511 87.9849ZM239.756 82.4713C237.779 82.4713 235.402 83.181 234.456 84.4434C233.865 85.2326 233.809 85.8534 234.016 86.1186C234.199 86.3526 234.637 86.378 235.108 86.181C237.376 85.2325 239.612 84.8871 242.708 84.6114C242.83 84.6005 243.23 84.5462 243.274 84.3033C243.325 84.0253 243.001 83.3894 241.915 82.8665C241.361 82.5994 240.594 82.4715 239.756 82.4715V82.4713Z" fill="#3375E0"/>
<path d="M254.293 84.8714C256.752 84.8335 259 85.3979 261.679 86.2023C263.396 86.7182 264.274 84.9168 262.451 82.9241C260.738 81.0511 256.12 80.1076 253.886 81.4672C251.556 82.8853 252.286 84.9023 254.293 84.8714Z" fill="#A8CFFB"/>
<path d="M262.251 87.1274C261.975 87.1256 261.702 87.0835 261.438 87.0026C258.619 86.1558 256.552 85.6761 254.306 85.7068C253.021 85.7268 251.982 85.0711 251.683 84.0363C251.421 83.1296 251.747 81.7909 253.452 80.7535C256.147 79.1134 261.155 80.2678 263.069 82.3605C264.526 83.9527 264.493 85.3962 263.977 86.2159C263.605 86.8079 262.979 87.1274 262.251 87.1274ZM254.535 84.0338C256.893 84.0338 259.046 84.5391 261.92 85.4023C262.037 85.4374 262.429 85.5357 262.561 85.3268C262.711 85.0875 262.647 84.3769 261.834 83.4881C260.439 81.9625 256.242 81.0123 254.322 82.1811C253.48 82.6939 253.197 83.2496 253.29 83.5728C253.373 83.8577 253.771 84.0466 254.281 84.0363C254.366 84.0349 254.45 84.0343 254.535 84.0343V84.0338Z" fill="#3375E0"/>
<path d="M240.524 92.4533C241.408 92.4402 242.111 91.5773 242.096 90.526C242.08 89.4748 241.351 88.6333 240.467 88.6465C239.583 88.6597 238.879 89.5226 238.895 90.5738C238.91 91.625 239.64 92.4665 240.524 92.4533Z" fill="#3375E0"/>
<path d="M257.33 92.5598C258.214 92.5466 258.918 91.6837 258.902 90.6325C258.887 89.5813 258.157 88.7398 257.273 88.753C256.389 88.7662 255.686 89.629 255.701 90.6803C255.717 91.7315 256.446 92.573 257.33 92.5598Z" fill="#3375E0"/>
<path d="M233.877 99.9609C232.101 104.605 238.405 107.454 242.003 104.681L233.877 99.9609Z" fill="white"/>
<path d="M238.657 106.6C237.267 106.6 235.867 106.18 234.737 105.342C232.877 103.961 232.263 101.838 233.095 99.6626C233.138 99.5494 233.206 99.447 233.292 99.3624C233.379 99.2778 233.483 99.2131 233.598 99.1728C233.712 99.1324 233.834 99.1174 233.955 99.1287C234.075 99.14 234.192 99.1774 234.297 99.2383L242.423 103.958C242.542 104.027 242.641 104.124 242.714 104.241C242.786 104.357 242.828 104.49 242.837 104.626C242.846 104.763 242.821 104.9 242.765 105.025C242.708 105.149 242.622 105.259 242.514 105.342C241.426 106.18 240.047 106.599 238.657 106.599V106.6ZM234.417 101.241C234.276 102.658 235.135 103.555 235.736 104.001C236.874 104.846 238.695 105.25 240.312 104.666L234.417 101.241ZM210.59 97.6564C210.388 97.6564 210.185 97.5837 210.025 97.4367L206.214 93.9473C206.132 93.8734 206.065 93.784 206.018 93.6843C205.971 93.5846 205.944 93.4766 205.938 93.3664C205.933 93.2563 205.95 93.1462 205.987 93.0425C206.025 92.9388 206.083 92.8435 206.157 92.7622C206.232 92.6809 206.322 92.6152 206.422 92.5688C206.522 92.5224 206.631 92.4962 206.741 92.4919C206.851 92.4875 206.961 92.505 207.065 92.5433C207.168 92.5817 207.263 92.6401 207.344 92.7152L211.155 96.2046C211.279 96.3184 211.367 96.4671 211.405 96.6311C211.443 96.7951 211.431 96.9669 211.37 97.1238C211.309 97.2808 211.201 97.4156 211.062 97.5107C210.923 97.6057 210.758 97.6565 210.59 97.6564Z" fill="#3375E0"/>
<path d="M206.91 98.2146C206.755 98.2145 206.602 98.171 206.47 98.089C206.337 98.007 206.231 97.8898 206.161 97.7505C206.092 97.6113 206.063 97.4555 206.078 97.3006C206.092 97.1458 206.15 96.9981 206.244 96.8742L209.733 92.2778C209.799 92.1896 209.882 92.1153 209.977 92.0592C210.072 92.0032 210.177 91.9664 210.286 91.951C210.395 91.9357 210.507 91.942 210.613 91.9698C210.72 91.9975 210.82 92.0461 210.908 92.1126C210.996 92.1792 211.07 92.2625 211.126 92.3577C211.181 92.4529 211.217 92.5581 211.232 92.6673C211.247 92.7765 211.24 92.8875 211.211 92.994C211.183 93.1004 211.133 93.2002 211.066 93.2876L207.577 97.884C207.499 97.9869 207.398 98.0704 207.283 98.1278C207.167 98.1853 207.039 98.2151 206.91 98.2149L206.91 98.2146Z" fill="#3375E0"/>
<path d="M257.926 64.4483C262.791 63.0043 265.323 63.1995 268.27 57.2505C268.27 57.2505 271.605 66.8563 262.425 70.8903C261.603 68.3914 260.624 66.392 257.926 64.4483H257.926Z" fill="#A8CFFB"/>
<path d="M262.425 71.7259C262.249 71.7258 262.078 71.6702 261.935 71.567C261.792 71.4638 261.686 71.3184 261.631 71.1513C260.81 68.6577 259.86 66.8725 257.437 65.1259C257.31 65.0347 257.211 64.9097 257.152 64.7651C257.092 64.6206 257.074 64.4623 257.101 64.3082C257.127 64.1542 257.196 64.0106 257.3 63.8937C257.403 63.7768 257.538 63.6914 257.688 63.6471C258.401 63.4354 259.051 63.2621 259.679 63.0947C263.217 62.151 265.167 61.6312 267.52 56.88C267.593 56.7324 267.708 56.6097 267.851 56.5272C267.994 56.4448 268.158 56.4064 268.322 56.4167C268.487 56.427 268.645 56.4857 268.776 56.5853C268.907 56.6849 269.006 56.821 269.06 56.9766C269.096 57.08 272.536 67.3605 262.763 71.6552C262.656 71.7018 262.541 71.7259 262.425 71.7259ZM259.71 64.8162C261.323 66.288 262.212 67.8605 262.907 69.7318C268.046 67.0343 268.289 62.3 267.931 59.5836C265.634 63.2365 263.347 63.8463 260.11 64.7092L259.71 64.8162Z" fill="#3375E0"/>
<path d="M228.111 65.2751C220.53 58.1049 201.474 54.4116 196.67 75.281C203.058 70.5128 212.928 71.1119 221.053 74.8782C222.144 71.6782 224.749 67.6933 228.111 65.2751Z" fill="#A8CFFB"/>
<path d="M196.671 76.1163C196.545 76.1164 196.421 76.088 196.307 76.0335C196.194 75.9789 196.094 75.8995 196.016 75.8012C195.938 75.7029 195.883 75.5883 195.855 75.4657C195.827 75.3432 195.827 75.216 195.855 75.0935C198.263 64.6347 204.012 60.8576 208.411 59.5305C215.799 57.3013 224.204 60.4278 228.687 64.6681C228.776 64.7527 228.846 64.8559 228.891 64.9705C228.936 65.085 228.955 65.208 228.946 65.3307C228.938 65.4534 228.903 65.5728 228.843 65.6804C228.783 65.7879 228.701 65.8809 228.601 65.9528C225.287 68.3367 222.82 72.2882 221.846 75.147C221.808 75.2579 221.747 75.3597 221.667 75.4456C221.587 75.5316 221.49 75.5998 221.383 75.6459C221.275 75.692 221.158 75.7149 221.041 75.7132C220.924 75.7115 220.808 75.6851 220.702 75.6358C212.042 71.6216 202.806 71.7445 197.171 75.9501C197.027 76.058 196.851 76.1163 196.671 76.1163ZM208.141 71.0464C212.129 71.0464 216.413 71.945 220.583 73.7506C221.641 71.1425 223.751 67.7163 226.8 65.2275C222.531 61.6606 215.29 59.2005 208.895 61.13C203.72 62.691 199.992 66.9208 198.029 73.4189C200.911 71.8392 204.395 71.0464 208.141 71.0464ZM241.287 61.179C241.168 61.1792 241.051 61.1542 240.943 61.1057C240.835 61.0573 240.739 60.9865 240.66 60.898C240.581 60.8095 240.522 60.7053 240.487 60.5923C240.452 60.4794 240.441 60.3603 240.455 60.2428C241.262 53.6085 236.192 49.9247 231.141 49.3096C231.032 49.2964 230.926 49.2618 230.831 49.2078C230.735 49.1538 230.651 49.0816 230.583 48.9952C230.516 48.9087 230.466 48.8098 230.436 48.7041C230.407 48.5984 230.398 48.4879 230.412 48.379C230.439 48.1591 230.552 47.9589 230.727 47.8223C230.901 47.6858 231.123 47.624 231.343 47.6506C238.496 48.5219 242.926 53.7829 242.117 60.4442C242.092 60.6467 241.994 60.8332 241.841 60.9686C241.688 61.104 241.491 61.1789 241.287 61.1793L241.287 61.179ZM253.644 62.8155C253.512 62.8155 253.381 62.7842 253.264 62.7242C253.146 62.6642 253.044 62.5772 252.966 62.4703C252.889 62.3634 252.838 62.2397 252.817 62.1093C252.797 61.9789 252.807 61.8455 252.848 61.72C254.645 56.2277 252.889 51.7954 247.902 49.2389C247.804 49.1888 247.717 49.1199 247.646 49.0363C247.575 48.9526 247.521 48.8558 247.488 48.7513C247.454 48.6468 247.441 48.5367 247.45 48.4274C247.459 48.318 247.49 48.2114 247.54 48.1138C247.59 48.0162 247.659 47.9294 247.743 47.8584C247.827 47.7873 247.923 47.7335 248.028 47.6999C248.133 47.6663 248.243 47.6536 248.352 47.6625C248.462 47.6715 248.568 47.7019 248.666 47.752C254.388 50.6848 256.492 55.9654 254.439 62.2392C254.384 62.4066 254.277 62.5525 254.134 62.656C253.992 62.7595 253.82 62.8153 253.644 62.8155Z" fill="#3375E0"/>
<path d="M160.267 147.74C148.119 152.35 133.404 159.812 119.681 177.439C104.33 196.589 98.0396 220.077 102.942 244.1C104.757 252.601 97.9367 260.864 89.2572 260.773C66.7453 260.8 73.4434 214.428 77.0849 200.538C81.0314 186.026 88.0263 172.411 97.8765 160.072C106.997 148.647 118.094 138.87 130.859 131.011C138.082 127.104 151.606 119.343 163.618 116.396" fill="white"/>
<path d="M89.399 261.609C89.3486 261.609 89.2984 261.609 89.2479 261.608H89.2278C84.6954 261.608 80.9981 259.806 78.2485 256.252C72.8984 249.337 72.1586 236.866 72.4798 227.622C72.8348 217.413 74.6416 206.556 76.2749 200.326C80.2538 185.695 87.3008 171.978 97.2216 159.551C106.402 148.05 117.572 138.208 130.419 130.299C130.433 130.291 130.446 130.283 130.46 130.276C131.134 129.911 131.863 129.513 132.64 129.088C140.038 125.046 152.422 118.281 163.418 115.584C163.525 115.558 163.635 115.553 163.744 115.569C163.853 115.586 163.957 115.624 164.051 115.68C164.145 115.737 164.227 115.812 164.292 115.901C164.357 115.989 164.404 116.089 164.43 116.196C164.456 116.303 164.461 116.413 164.444 116.522C164.428 116.63 164.39 116.734 164.333 116.828C164.276 116.922 164.201 117.004 164.113 117.069C164.024 117.134 163.924 117.181 163.817 117.207C153.033 119.852 140.77 126.552 133.443 130.555C132.671 130.976 131.948 131.372 131.278 131.734C118.602 139.54 107.585 149.248 98.5297 160.592C88.7521 172.841 81.8082 186.354 77.8915 200.756C74.5515 213.497 70.5648 243.588 79.572 255.23C81.9884 258.353 85.2406 259.937 89.2376 259.937H89.2554C93.156 259.987 96.8577 258.217 99.4051 255.106C101.941 252.01 102.932 248.061 102.123 244.273C97.269 220.488 103.273 196.57 119.027 176.916C133.149 158.776 148.326 151.376 159.969 146.958C160.072 146.919 160.182 146.901 160.291 146.904C160.401 146.908 160.509 146.932 160.61 146.977C160.71 147.022 160.8 147.087 160.875 147.166C160.951 147.246 161.01 147.34 161.049 147.443C161.088 147.545 161.106 147.655 161.103 147.764C161.1 147.874 161.075 147.982 161.03 148.082C160.985 148.182 160.92 148.272 160.84 148.348C160.76 148.423 160.666 148.482 160.564 148.521C149.125 152.862 134.215 160.13 120.34 177.951C104.895 197.22 99.0094 220.65 103.761 243.932C104.675 248.212 103.559 252.673 100.7 256.165C97.8619 259.63 93.7499 261.609 89.3985 261.609H89.399Z" fill="#3375E0"/>
<path d="M96.9209 251.857C99.2428 255.818 101.065 257.71 103.54 259.097C107.359 261.238 110.513 259.184 109.341 256.016C108.17 252.848 104.378 250.996 102.942 244.1" fill="white"/>
<path d="M106.575 260.818C105.498 260.818 104.31 260.487 103.13 259.826C100.408 258.3 98.5288 256.255 96.1986 252.279C96.1431 252.184 96.1068 252.079 96.0918 251.971C96.0768 251.862 96.0834 251.751 96.1112 251.645C96.139 251.539 96.1874 251.44 96.2538 251.352C96.3201 251.265 96.403 251.191 96.4978 251.136C96.5926 251.08 96.6974 251.044 96.8062 251.029C96.9151 251.014 97.0258 251.021 97.132 251.048C97.2383 251.076 97.3381 251.124 97.4256 251.191C97.5132 251.257 97.5868 251.34 97.6423 251.435C99.8055 255.125 101.515 257.004 103.949 258.369C105.966 259.499 107.486 259.214 108.174 258.627C108.774 258.116 108.912 257.27 108.556 256.306C108.174 255.272 107.441 254.347 106.592 253.276C105.024 251.299 103.074 248.837 102.122 244.27C102.077 244.053 102.12 243.827 102.241 243.641C102.363 243.456 102.553 243.326 102.77 243.281C102.988 243.236 103.214 243.279 103.399 243.401C103.585 243.522 103.714 243.712 103.76 243.929C104.631 248.11 106.369 250.303 107.904 252.239C108.802 253.372 109.651 254.443 110.126 255.726C110.73 257.361 110.407 258.921 109.261 259.898C108.541 260.512 107.609 260.818 106.574 260.818H106.575Z" fill="#3375E0"/>
<path d="M100.837 247.129C100.674 251.205 102.665 255.159 101.966 260.865C101.419 265.331 97.1388 270.635 95.6318 271.944C91.5893 275.456 87.488 270.856 90.5937 265.028C92.4741 261.499 91.4817 253.418 91.4817 253.418" fill="white"/>
<path d="M92.8168 274.004C91.9554 274.005 91.1191 273.714 90.4447 273.179C88.7048 271.796 87.7782 268.533 89.8549 264.635C91.5911 261.377 90.6605 253.599 90.6508 253.52C90.6362 253.411 90.6435 253.3 90.6723 253.193C90.701 253.086 90.7506 252.986 90.8183 252.899C90.8859 252.812 90.9702 252.739 91.0663 252.684C91.1624 252.629 91.2684 252.594 91.3782 252.581C91.4879 252.567 91.5992 252.576 91.7057 252.606C91.8122 252.635 91.9117 252.686 91.9985 252.754C92.0853 252.823 92.1576 252.908 92.2113 253.004C92.265 253.101 92.2991 253.207 92.3114 253.317C92.3533 253.657 93.3134 261.702 91.3318 265.42C89.7765 268.339 90.2322 270.875 91.486 271.871C92.4523 272.639 93.7967 272.431 95.0823 271.314C96.5494 270.039 100.632 264.865 101.135 260.764C101.525 257.577 101.049 254.987 100.588 252.482C100.249 250.639 99.9282 248.898 99.9998 247.096C100.018 246.635 100.406 246.285 100.869 246.294C101.091 246.303 101.3 246.399 101.45 246.562C101.601 246.725 101.68 246.941 101.672 247.162C101.608 248.779 101.911 250.43 102.233 252.18C102.695 254.686 103.217 257.527 102.796 260.967C102.223 265.638 97.8908 271.089 96.1802 272.575C94.9917 273.608 93.8332 274.004 92.8162 274.004H92.8168Z" fill="#3375E0"/>
<path d="M94.4743 249.826C94.534 251.85 94.9146 259.099 92.88 263.752C91.5557 266.78 87.7315 270.788 85.3129 272.109C81.2004 274.355 78.8033 267.164 82.9735 262.68C85.9141 259.518 84.6063 251.337 84.6063 251.337" fill="white"/>
<path d="M83.7951 273.373C82.7803 273.373 81.8497 272.903 81.1363 271.986C79.3842 269.737 79.4581 265.232 82.3611 262.111C84.5419 259.767 84.1253 253.634 83.7806 251.469C83.7471 251.25 83.8014 251.028 83.9317 250.85C84.0619 250.671 84.2575 250.552 84.4758 250.517C84.694 250.482 84.9171 250.535 85.0965 250.664C85.2758 250.793 85.3967 250.988 85.4329 251.205C85.4889 251.556 86.7684 259.828 83.5868 263.249C81.0859 265.937 81.3313 269.515 82.4568 270.96C83.094 271.778 83.92 271.917 84.9117 271.376C87.1262 270.166 90.8326 266.346 92.1134 263.417C93.9531 259.21 93.734 252.709 93.6514 250.261L93.638 249.85C93.6348 249.741 93.6532 249.632 93.6922 249.529C93.7312 249.426 93.79 249.332 93.8654 249.252C93.9408 249.173 94.0311 249.108 94.1314 249.063C94.2316 249.018 94.3397 248.994 94.4495 248.99C94.9116 248.973 95.2967 249.34 95.3104 249.801L95.3235 250.205C95.4094 252.756 95.6378 259.532 93.6467 264.086C92.2155 267.359 88.2076 271.48 85.7145 272.842C85.0637 273.198 84.4136 273.373 83.7951 273.373V273.373Z" fill="#3375E0"/>
<path d="M86.9558 249.39C86.634 251.391 88.2654 256.948 85.615 260.305C83.1387 263.442 76.4171 265.256 74.9282 264.973C70.9708 264.22 71.5157 258.178 75.8647 256.739C78.8304 255.758 75.6491 250.246 75.1683 247.849" fill="white"/>
<path d="M75.2763 265.833C75.08 265.833 74.9107 265.82 74.7719 265.793C72.8446 265.427 71.5649 263.945 71.4316 261.927C71.2838 259.689 72.6689 256.916 75.6018 255.945C75.947 255.831 76.0708 255.652 76.14 255.509C76.623 254.508 75.7666 252.179 75.1411 250.478C74.8037 249.56 74.4846 248.694 74.3483 248.013C74.3263 247.905 74.3259 247.794 74.347 247.686C74.3681 247.578 74.4103 247.476 74.4712 247.384C74.5321 247.293 74.6105 247.214 74.7018 247.153C74.7932 247.091 74.8958 247.049 75.0037 247.027C75.1116 247.005 75.2228 247.005 75.3307 247.027C75.4387 247.048 75.5413 247.09 75.6329 247.152C75.7244 247.213 75.8029 247.291 75.864 247.383C75.9251 247.474 75.9675 247.577 75.9889 247.684C76.0998 248.238 76.3971 249.047 76.7117 249.902C77.5207 252.102 78.4379 254.596 77.647 256.235C77.3483 256.853 76.8229 257.302 76.128 257.532C74.0016 258.235 72.996 260.22 73.1012 261.816C73.1405 262.413 73.4127 263.833 75.085 264.151C76.1785 264.36 82.5983 262.776 84.9584 259.788C86.6397 257.658 86.3753 254.355 86.1821 251.943C86.0956 250.865 86.0211 249.934 86.1302 249.257C86.1475 249.148 86.186 249.045 86.2436 248.951C86.3012 248.857 86.3766 248.776 86.4657 248.712C86.5548 248.648 86.6557 248.601 86.7626 248.576C86.8696 248.551 86.9804 248.547 87.0889 248.564C87.1974 248.582 87.3014 248.62 87.3949 248.678C87.4885 248.735 87.5698 248.811 87.6341 248.9C87.6985 248.989 87.7447 249.089 87.7701 249.196C87.7955 249.303 87.7996 249.414 87.7822 249.522C87.7052 250.001 87.7755 250.88 87.85 251.81C88.0653 254.497 88.36 258.178 86.2721 260.822C83.7969 263.958 77.63 265.833 75.2766 265.833L75.2763 265.833Z" fill="#3375E0"/>
<path d="M163.617 151.644C160.838 152.654 157.945 153.938 154.992 155.477C147.412 159.43 139.787 164.908 132.941 171.319C118.273 185.056 111.496 196.282 107.785 211.377C105.439 220.915 96.4505 228.691 86.8951 228.691C75.1385 228.778 66.6916 220.365 68.4624 208.726C72.0442 183.27 86.7729 161.005 106.238 142.87C116.69 132.224 144.387 113.612 165.647 110.637" fill="white"/>
<path d="M86.7045 229.527C80.4762 229.527 75.0813 227.26 71.5025 223.132C68.1684 219.286 66.795 214.125 67.6357 208.6C69.3575 196.364 73.7449 184.257 80.6754 172.625C86.9661 162.067 95.3698 151.855 105.654 142.271C116.87 130.854 144.633 112.734 165.532 109.809C165.64 109.794 165.751 109.8 165.858 109.827C165.964 109.855 166.064 109.903 166.152 109.969C166.239 110.035 166.313 110.118 166.369 110.213C166.425 110.307 166.461 110.412 166.476 110.52C166.492 110.629 166.485 110.74 166.458 110.846C166.43 110.952 166.382 111.052 166.316 111.14C166.25 111.227 166.167 111.301 166.072 111.357C165.978 111.412 165.873 111.449 165.764 111.464C145.221 114.339 117.88 132.205 106.835 143.455C106.827 143.464 106.818 143.472 106.809 143.481C85.181 163.63 72.5583 185.621 69.2911 208.842C68.5239 213.885 69.759 218.569 72.7672 222.039C76.0565 225.832 81.0769 227.903 86.8888 227.855C95.8533 227.855 104.673 220.529 106.972 211.177C110.808 195.578 117.929 184.232 132.369 170.709C139.27 164.247 146.959 158.724 154.605 154.736C157.574 153.189 160.51 151.884 163.332 150.858C163.54 150.784 163.768 150.796 163.968 150.89C164.168 150.984 164.322 151.153 164.398 151.36C164.473 151.567 164.464 151.796 164.371 151.996C164.279 152.196 164.111 152.352 163.904 152.429C161.151 153.429 158.283 154.704 155.38 156.218C147.866 160.136 140.305 165.568 133.514 171.928C119.334 185.207 112.348 196.323 108.598 211.576C106.122 221.642 96.5895 229.526 86.8955 229.526C86.8319 229.527 86.7681 229.527 86.7045 229.527Z" fill="#3375E0"/>
<path d="M73.5076 223.877C80.7961 227.753 96.9205 227.161 101.531 222.221C101.295 225.12 101.228 228.048 101.363 231.011C95.8084 235.706 83.0828 236.495 73.265 232.986C73.2175 229.97 73.3001 226.933 73.5076 223.877Z" fill="white"/>
<path d="M86.2649 235.997C81.8362 235.997 77.1802 235.273 72.983 233.773C72.8227 233.715 72.6838 233.611 72.5847 233.472C72.4855 233.334 72.431 233.169 72.4283 232.999C72.3827 229.937 72.4642 226.875 72.6726 223.82C72.682 223.681 72.7262 223.547 72.8011 223.429C72.8759 223.311 72.9791 223.214 73.1011 223.146C73.2232 223.079 73.3603 223.042 73.4999 223.041C73.6395 223.04 73.7772 223.074 73.9004 223.139C81.1039 226.97 96.7596 226.108 100.919 221.651C101.037 221.525 101.192 221.438 101.362 221.403C101.533 221.368 101.709 221.387 101.868 221.457C102.027 221.528 102.16 221.645 102.249 221.794C102.338 221.943 102.378 222.116 102.365 222.289C102.126 225.223 102.07 228.144 102.198 230.972C102.204 231.1 102.181 231.228 102.129 231.345C102.078 231.462 102.001 231.566 101.903 231.648C98.5335 234.497 92.6354 235.997 86.2649 235.997ZM74.0937 232.389C83.3976 235.522 95.225 234.733 100.509 230.626C100.426 228.449 100.444 226.269 100.565 224.094C97.9205 225.823 93.6948 226.928 88.5661 227.189C83.1112 227.467 77.8891 226.716 74.2655 225.164C74.1282 227.57 74.0709 229.979 74.0937 232.389Z" fill="#3375E0"/>
</g>
<g clip-path="url(#clip1_5360_20768)">
<path d="M433.154 481.92H377.441C377.219 481.92 377.006 481.832 376.849 481.675C376.692 481.518 376.604 481.305 376.604 481.083V256.762C376.604 256.641 376.63 256.522 376.68 256.412C376.73 256.303 376.803 256.206 376.895 256.127C376.986 256.048 377.093 255.99 377.209 255.957C377.325 255.924 377.446 255.916 377.565 255.934L433.278 264.308C433.477 264.337 433.658 264.437 433.789 264.589C433.919 264.741 433.991 264.935 433.991 265.136V481.083C433.991 481.305 433.903 481.518 433.746 481.675C433.589 481.832 433.376 481.921 433.154 481.921V481.92ZM378.278 480.245H432.317V265.856L378.278 257.734V480.245Z" fill="#3375E0"/>
<path d="M377.441 257.599C377.219 257.599 377.006 257.511 376.849 257.353C376.692 257.196 376.604 256.983 376.604 256.761V248.758C376.604 248.535 376.692 248.322 376.849 248.165C377.006 248.008 377.219 247.92 377.441 247.92C377.663 247.92 377.876 248.008 378.033 248.165C378.19 248.322 378.278 248.535 378.278 248.758V256.761C378.278 256.983 378.19 257.196 378.033 257.353C377.876 257.511 377.663 257.599 377.441 257.599ZM433.154 265.973C432.932 265.973 432.719 265.884 432.562 265.727C432.405 265.57 432.317 265.357 432.317 265.135V256.761C432.317 256.539 432.405 256.326 432.562 256.169C432.719 256.012 432.932 255.924 433.154 255.924C433.376 255.924 433.589 256.012 433.746 256.169C433.903 256.326 433.991 256.539 433.991 256.761V265.135C433.991 265.357 433.903 265.57 433.746 265.727C433.589 265.884 433.376 265.973 433.154 265.973ZM398.665 260.788C398.443 260.788 398.23 260.7 398.073 260.543C397.916 260.386 397.828 260.173 397.828 259.951V242.959C397.828 242.737 397.916 242.524 398.073 242.367C398.23 242.21 398.443 242.122 398.665 242.122C398.887 242.122 399.1 242.21 399.257 242.367C399.414 242.524 399.503 242.737 399.503 242.959V259.951C399.503 260.173 399.414 260.386 399.257 260.543C399.1 260.7 398.887 260.788 398.665 260.788Z" fill="#3375E0"/>
<path d="M433.155 265.973C433.114 265.973 433.072 265.97 433.03 265.963L377.317 257.589C377.208 257.573 377.103 257.536 377.009 257.479C376.915 257.422 376.833 257.347 376.767 257.259C376.702 257.17 376.655 257.07 376.628 256.963C376.602 256.856 376.596 256.746 376.613 256.637C376.629 256.528 376.667 256.424 376.724 256.329C376.78 256.235 376.855 256.153 376.943 256.088C377.032 256.022 377.132 255.975 377.239 255.949C377.346 255.922 377.457 255.917 377.566 255.933L433.279 264.307C433.488 264.338 433.677 264.447 433.809 264.612C433.941 264.778 434.005 264.986 433.99 265.197C433.974 265.408 433.88 265.605 433.725 265.749C433.57 265.893 433.366 265.973 433.155 265.973ZM377.441 265.135L433.154 273.509V295.222L377.441 286.848V265.135Z" fill="#3375E0"/>
<path d="M433.154 296.059C433.113 296.059 433.071 296.056 433.03 296.05L377.317 287.676C377.118 287.646 376.937 287.546 376.806 287.395C376.676 287.243 376.604 287.049 376.604 286.848V265.136C376.604 265.015 376.63 264.896 376.68 264.786C376.73 264.677 376.803 264.58 376.895 264.501C376.986 264.422 377.093 264.364 377.209 264.331C377.325 264.298 377.446 264.29 377.566 264.308L433.279 272.682C433.477 272.711 433.658 272.811 433.789 272.963C433.92 273.115 433.992 273.309 433.992 273.51V295.222C433.992 295.444 433.903 295.657 433.746 295.814C433.589 295.971 433.376 296.06 433.154 296.06V296.059ZM378.279 286.127L432.317 294.25V274.231L378.279 266.108V286.127ZM433.155 301.642C433.114 301.642 433.072 301.639 433.03 301.633L377.317 293.259C377.208 293.243 377.103 293.205 377.009 293.148C376.915 293.092 376.833 293.017 376.767 292.928C376.702 292.84 376.655 292.739 376.628 292.633C376.602 292.526 376.596 292.415 376.613 292.306C376.629 292.197 376.666 292.093 376.723 291.998C376.78 291.904 376.854 291.822 376.943 291.756C377.031 291.691 377.132 291.644 377.239 291.617C377.346 291.591 377.457 291.586 377.566 291.603L433.279 299.976C433.488 300.008 433.677 300.117 433.809 300.282C433.941 300.447 434.005 300.656 433.99 300.867C433.974 301.077 433.88 301.274 433.725 301.418C433.57 301.562 433.367 301.642 433.155 301.642Z" fill="#3375E0"/>
<path d="M480.525 481.083H395.874V324.195L480.525 277.771V481.083Z" fill="white"/>
<path d="M480.525 481.92H395.875C395.652 481.92 395.439 481.832 395.282 481.675C395.125 481.518 395.037 481.305 395.037 481.083V324.195C395.037 323.889 395.204 323.608 395.472 323.461L480.123 277.037C480.25 276.967 480.394 276.931 480.539 276.934C480.685 276.936 480.827 276.976 480.952 277.05C481.077 277.125 481.181 277.23 481.253 277.356C481.325 277.483 481.363 277.626 481.363 277.771V481.083C481.363 481.305 481.275 481.518 481.118 481.675C480.961 481.832 480.748 481.92 480.525 481.92L480.525 481.92ZM396.712 480.245H479.687V279.186L396.712 324.691V480.245Z" fill="#3375E0"/>
<path d="M480.525 481.083H407.255V345.289L480.525 305.106V481.083Z" fill="white"/>
<path d="M480.525 481.92H407.255C407.033 481.92 406.82 481.832 406.663 481.675C406.506 481.518 406.418 481.305 406.418 481.083V345.289C406.418 344.983 406.585 344.702 406.853 344.555L480.123 304.372C480.25 304.302 480.394 304.267 480.539 304.269C480.684 304.272 480.827 304.312 480.952 304.386C481.077 304.46 481.181 304.565 481.253 304.692C481.325 304.818 481.363 304.961 481.363 305.106V481.083C481.363 481.305 481.275 481.518 481.118 481.675C480.96 481.832 480.747 481.92 480.525 481.92H480.525ZM408.093 480.246H479.688V306.521L408.093 345.785V480.246Z" fill="#3375E0"/>
<path d="M480.525 319.94L407.255 360.123V345.289L480.525 305.106V319.94Z" fill="#3375E0"/>
<path d="M407.255 360.96C407.033 360.96 406.82 360.872 406.663 360.715C406.506 360.558 406.417 360.345 406.417 360.123V345.288C406.417 344.982 406.584 344.701 406.852 344.554L480.122 304.372C480.249 304.302 480.393 304.266 480.538 304.269C480.684 304.271 480.826 304.311 480.951 304.385C481.076 304.459 481.18 304.565 481.252 304.691C481.324 304.818 481.362 304.96 481.362 305.106V319.94C481.362 320.09 481.322 320.238 481.245 320.367C481.169 320.496 481.059 320.603 480.927 320.675L407.658 360.857C407.534 360.925 407.395 360.96 407.255 360.96ZM408.092 345.784V358.708L479.687 319.445V306.521L408.092 345.784ZM343.369 247.478H273.142C272.92 247.478 272.707 247.39 272.55 247.233C272.393 247.076 272.305 246.863 272.305 246.641V208.889C272.305 208.667 272.393 208.454 272.55 208.297C272.707 208.139 272.92 208.051 273.142 208.051H343.369C343.591 208.051 343.804 208.139 343.961 208.297C344.119 208.454 344.207 208.667 344.207 208.889V246.641C344.207 246.863 344.119 247.076 343.961 247.233C343.804 247.39 343.591 247.478 343.369 247.478ZM273.98 245.804H342.532V209.726H273.98V245.804Z" fill="#3375E0"/>
<path d="M280.198 214.322H289.966V241.207H280.198V214.322Z" fill="#3375E0"/>
<path d="M289.966 242.045H280.199C279.977 242.045 279.764 241.957 279.607 241.8C279.45 241.643 279.361 241.43 279.361 241.208V214.322C279.361 214.1 279.45 213.887 279.607 213.73C279.764 213.573 279.977 213.485 280.199 213.485H289.966C290.188 213.485 290.401 213.573 290.558 213.73C290.716 213.887 290.804 214.1 290.804 214.322V241.208C290.804 241.43 290.716 241.643 290.558 241.8C290.401 241.957 290.188 242.045 289.966 242.045ZM281.036 240.37H289.129V215.16H281.036V240.37ZM295.648 214.322H305.415V241.208H295.648V214.322Z" fill="#3375E0"/>
<path d="M305.415 242.045H295.648C295.426 242.045 295.213 241.957 295.056 241.8C294.899 241.643 294.811 241.43 294.811 241.208V214.322C294.811 214.1 294.899 213.887 295.056 213.73C295.213 213.573 295.426 213.485 295.648 213.485H305.415C305.638 213.485 305.851 213.573 306.008 213.73C306.165 213.887 306.253 214.1 306.253 214.322V241.208C306.253 241.43 306.165 241.643 306.008 241.8C305.851 241.957 305.638 242.045 305.415 242.045ZM296.485 240.37H304.578V215.16H296.485V240.37ZM311.097 214.322H320.865V241.208H311.097V214.322Z" fill="#3375E0"/>
<path d="M320.865 242.045H311.097C310.875 242.045 310.662 241.957 310.505 241.8C310.348 241.643 310.26 241.43 310.26 241.208V214.322C310.26 214.1 310.348 213.887 310.505 213.73C310.662 213.573 310.875 213.485 311.097 213.485H320.865C321.087 213.485 321.3 213.573 321.457 213.73C321.614 213.887 321.702 214.1 321.702 214.322V241.208C321.702 241.43 321.614 241.643 321.457 241.8C321.3 241.957 321.087 242.045 320.865 242.045ZM311.935 240.37H320.027V215.16H311.935V240.37ZM326.546 214.322H336.314V241.208H326.546V214.322Z" fill="#3375E0"/>
<path d="M336.314 242.045H326.547C326.325 242.045 326.112 241.957 325.955 241.8C325.798 241.643 325.709 241.43 325.709 241.208V214.322C325.709 214.1 325.798 213.887 325.955 213.73C326.112 213.573 326.325 213.485 326.547 213.485H336.314C336.536 213.485 336.749 213.573 336.906 213.73C337.063 213.887 337.152 214.1 337.152 214.322V241.208C337.152 241.43 337.063 241.643 336.906 241.8C336.749 241.957 336.536 242.045 336.314 242.045ZM327.384 240.37H335.477V215.16H327.384V240.37ZM260.483 246.641V481.083H266.002V440.192H350.593V481.083H356.03V246.641H260.483ZM350.593 433.422H266.002V409.061H350.593V433.422ZM350.593 402.292H266.002V377.932H350.593V402.292ZM350.593 371.162H266.002V346.801H350.593V371.162ZM350.593 340.032H266.002V315.671H350.593V340.032ZM350.593 308.902H266.002V284.541H350.593V308.902ZM350.593 277.771H266.002V253.411H350.593V277.771Z" fill="#3375E0"/>
<path d="M356.029 481.92H350.592C350.37 481.92 350.157 481.832 350 481.675C349.843 481.518 349.755 481.305 349.755 481.083V441.029H266.839V481.083C266.839 481.305 266.751 481.518 266.594 481.675C266.437 481.832 266.224 481.92 266.002 481.92H260.483C260.261 481.92 260.048 481.832 259.891 481.675C259.734 481.518 259.646 481.305 259.646 481.083V246.641C259.646 246.419 259.734 246.206 259.891 246.049C260.048 245.892 260.261 245.804 260.483 245.804H356.029C356.251 245.804 356.464 245.892 356.621 246.049C356.778 246.206 356.867 246.419 356.867 246.641V481.083C356.867 481.305 356.778 481.518 356.621 481.675C356.464 481.832 356.251 481.92 356.029 481.92ZM351.43 480.245H355.192V247.478H261.32V480.245H265.165V440.192C265.165 439.97 265.253 439.757 265.41 439.6C265.567 439.443 265.78 439.354 266.002 439.354H350.592C350.815 439.354 351.028 439.443 351.185 439.6C351.342 439.757 351.43 439.97 351.43 440.192V480.245H351.43ZM350.592 434.26H266.002C265.78 434.26 265.567 434.171 265.41 434.014C265.253 433.857 265.164 433.644 265.164 433.422V409.062C265.164 408.84 265.253 408.627 265.41 408.47C265.567 408.313 265.78 408.224 266.002 408.224H350.592C350.814 408.224 351.027 408.313 351.184 408.47C351.341 408.627 351.43 408.84 351.43 409.062V433.422C351.43 433.644 351.341 433.857 351.184 434.014C351.027 434.171 350.814 434.26 350.592 434.26ZM266.839 432.585H349.755V409.899H266.839V432.585ZM350.592 403.13H266.002C265.78 403.13 265.567 403.041 265.41 402.884C265.253 402.727 265.164 402.514 265.164 402.292V377.932C265.164 377.71 265.253 377.497 265.41 377.34C265.567 377.183 265.78 377.094 266.002 377.094H350.592C350.814 377.094 351.027 377.183 351.184 377.34C351.341 377.497 351.43 377.71 351.43 377.932V402.292C351.43 402.514 351.341 402.727 351.184 402.884C351.027 403.041 350.814 403.13 350.592 403.13ZM266.839 401.455H349.755V378.769H266.839V401.455ZM350.592 371.999H266.002C265.78 371.999 265.567 371.911 265.41 371.754C265.253 371.597 265.164 371.384 265.164 371.162V346.801C265.164 346.579 265.253 346.366 265.41 346.209C265.567 346.052 265.78 345.964 266.002 345.964H350.592C350.814 345.964 351.027 346.052 351.184 346.209C351.341 346.366 351.43 346.579 351.43 346.801V371.162C351.43 371.384 351.341 371.597 351.184 371.754C351.027 371.911 350.814 371.999 350.592 371.999ZM266.839 370.325H349.755V347.638H266.839V370.325ZM350.592 340.869H266.002C265.78 340.869 265.567 340.781 265.41 340.624C265.253 340.467 265.164 340.254 265.164 340.032V315.671C265.164 315.449 265.253 315.236 265.41 315.079C265.567 314.922 265.78 314.834 266.002 314.834H350.592C350.814 314.834 351.027 314.922 351.184 315.079C351.341 315.236 351.43 315.449 351.43 315.671V340.032C351.43 340.254 351.341 340.467 351.184 340.624C351.027 340.781 350.814 340.869 350.592 340.869ZM266.839 339.194H349.755V316.508H266.839V339.194ZM350.592 309.739H266.002C265.78 309.739 265.567 309.651 265.41 309.494C265.253 309.337 265.164 309.124 265.164 308.902V284.541C265.164 284.319 265.253 284.106 265.41 283.949C265.567 283.792 265.78 283.704 266.002 283.704H350.592C350.814 283.704 351.027 283.792 351.184 283.949C351.341 284.106 351.43 284.319 351.43 284.541V308.902C351.43 309.124 351.341 309.337 351.184 309.494C351.027 309.651 350.814 309.739 350.592 309.739ZM266.839 308.064H349.755V285.378H266.839V308.064ZM350.592 278.609H266.002C265.78 278.609 265.567 278.52 265.41 278.363C265.253 278.206 265.164 277.993 265.164 277.771V253.411C265.164 253.188 265.253 252.975 265.41 252.818C265.567 252.661 265.78 252.573 266.002 252.573H350.592C350.814 252.573 351.027 252.661 351.184 252.818C351.341 252.975 351.43 253.188 351.43 253.411V277.771C351.43 277.993 351.341 278.206 351.184 278.363C351.027 278.52 350.814 278.609 350.592 278.609ZM266.839 276.934H349.755V254.248H266.839V276.934Z" fill="#3375E0"/>
<path d="M294.792 335.858H363.437V481.083H294.792V335.858Z" fill="white"/>
<path d="M363.437 481.92H294.793C294.57 481.92 294.357 481.832 294.2 481.675C294.043 481.518 293.955 481.305 293.955 481.083V335.858C293.955 335.636 294.043 335.423 294.2 335.266C294.357 335.109 294.57 335.021 294.793 335.021H363.437C363.659 335.021 363.872 335.109 364.029 335.266C364.186 335.423 364.275 335.636 364.275 335.858V481.083C364.275 481.305 364.186 481.518 364.029 481.675C363.872 481.832 363.659 481.92 363.437 481.92ZM295.63 480.245H362.6V336.696H295.63V480.245Z" fill="#3375E0"/>
<path d="M302.199 335.858H356.029L329.114 310.923L302.199 335.858Z" fill="white"/>
<path d="M356.029 336.696H302.2C302.031 336.696 301.867 336.645 301.728 336.55C301.589 336.455 301.482 336.321 301.42 336.164C301.359 336.007 301.346 335.836 301.383 335.672C301.421 335.508 301.507 335.359 301.63 335.244L328.545 310.309C328.7 310.166 328.903 310.086 329.115 310.086C329.326 310.086 329.529 310.166 329.684 310.309L356.598 335.244C356.722 335.359 356.808 335.508 356.845 335.672C356.883 335.836 356.87 336.007 356.809 336.164C356.747 336.321 356.64 336.455 356.501 336.55C356.362 336.645 356.197 336.696 356.029 336.696ZM304.336 335.021H353.893L329.114 312.065L304.335 335.021H304.336Z" fill="#3375E0"/>
<path d="M288.521 354.485H345.524V481.083H288.521V354.485Z" fill="white"/>
<path d="M345.524 481.92H288.521C288.299 481.92 288.086 481.832 287.929 481.675C287.772 481.518 287.684 481.305 287.684 481.083V354.485C287.684 354.263 287.772 354.05 287.929 353.893C288.086 353.736 288.299 353.648 288.521 353.648H345.524C345.746 353.648 345.959 353.736 346.116 353.893C346.274 354.05 346.362 354.263 346.362 354.485V481.083C346.362 481.305 346.274 481.518 346.116 481.675C345.959 481.832 345.746 481.92 345.524 481.92ZM289.359 480.245H344.687V355.323H289.359V480.245Z" fill="#3375E0"/>
<path d="M295.275 361.879H305.841V473.688H295.275V361.879Z" fill="#3375E0"/>
<path d="M305.84 474.526H295.275C295.053 474.526 294.84 474.438 294.683 474.281C294.526 474.124 294.438 473.911 294.438 473.689V361.879C294.438 361.657 294.526 361.444 294.683 361.287C294.84 361.13 295.053 361.042 295.275 361.042H305.84C306.062 361.042 306.275 361.13 306.432 361.287C306.589 361.444 306.678 361.657 306.678 361.879V473.689C306.678 473.911 306.589 474.124 306.432 474.281C306.275 474.438 306.062 474.526 305.84 474.526ZM296.112 472.851H305.003V362.717H296.112V472.851ZM311.739 361.879H322.305V473.689H311.739V361.879Z" fill="#3375E0"/>
<path d="M322.305 474.526H311.74C311.518 474.526 311.305 474.438 311.148 474.281C310.991 474.124 310.902 473.911 310.902 473.689V361.879C310.902 361.657 310.991 361.444 311.148 361.287C311.305 361.13 311.518 361.042 311.74 361.042H322.305C322.527 361.042 322.741 361.13 322.898 361.287C323.055 361.444 323.143 361.657 323.143 361.879V473.689C323.143 473.911 323.055 474.124 322.898 474.281C322.741 474.438 322.527 474.526 322.305 474.526ZM312.578 472.851H321.468V362.717H312.578V472.851ZM328.204 361.879H338.77V473.689H328.204V361.879Z" fill="#3375E0"/>
<path d="M338.769 474.526H328.204C327.982 474.526 327.769 474.438 327.611 474.281C327.454 474.124 327.366 473.911 327.366 473.689V361.879C327.366 361.657 327.454 361.444 327.611 361.287C327.769 361.13 327.982 361.042 328.204 361.042H338.769C338.991 361.042 339.204 361.13 339.361 361.287C339.518 361.444 339.607 361.657 339.607 361.879V473.689C339.607 473.911 339.518 474.124 339.361 474.281C339.204 474.438 338.991 474.526 338.769 474.526ZM329.041 472.851H337.932V362.717H329.041V472.851Z" fill="#3375E0"/>
</g>
<g clip-path="url(#clip2_5360_20768)">
<path d="M349.109 183.183C348.91 183.183 348.718 183.112 348.567 182.983C348.416 182.854 348.316 182.675 348.284 182.478L342.486 146.05C342.451 145.831 342.505 145.607 342.635 145.427C342.764 145.247 342.96 145.126 343.179 145.091L398.025 136.308C398.244 136.274 398.467 136.328 398.646 136.457C398.826 136.588 398.946 136.784 398.981 137.004L406.095 181.701C406.114 181.82 406.107 181.941 406.075 182.057C406.042 182.173 405.985 182.281 405.908 182.373C405.83 182.465 405.734 182.539 405.625 182.591C405.516 182.642 405.398 182.669 405.278 182.67L349.116 183.183H349.109ZM344.266 146.613L349.82 181.502L404.293 181.004L397.464 138.094L344.266 146.613Z" fill="#3375E0"/>
<path d="M387.631 138.821L353.837 144.233L357.346 113.16L374.651 110.389L387.631 138.821Z" fill="#3375E0"/>
<path d="M353.837 145.07C353.719 145.07 353.603 145.045 353.496 144.997C353.388 144.949 353.292 144.878 353.214 144.79C353.136 144.702 353.077 144.599 353.041 144.487C353.006 144.374 352.994 144.256 353.007 144.138L356.516 113.066C356.536 112.884 356.616 112.714 356.742 112.582C356.868 112.45 357.034 112.362 357.214 112.333L374.52 109.562C374.7 109.533 374.884 109.565 375.045 109.651C375.206 109.737 375.334 109.874 375.41 110.041L388.39 138.473C388.444 138.59 388.469 138.718 388.465 138.847C388.461 138.976 388.428 139.103 388.367 139.217C388.306 139.33 388.22 139.429 388.115 139.503C388.01 139.578 387.89 139.628 387.762 139.648L353.968 145.06C353.925 145.067 353.881 145.07 353.837 145.07ZM358.104 113.887L354.79 143.232L386.414 138.168L374.156 111.317L358.104 113.887Z" fill="#3375E0"/>
<path d="M362.366 113.194C362.161 113.194 361.964 113.119 361.811 112.983C361.659 112.847 361.561 112.659 361.536 112.456L350.663 20.7377C350.637 20.5225 350.695 20.3056 350.825 20.1324C350.955 19.9593 351.147 19.8435 351.361 19.8093C351.574 19.7751 351.792 19.8253 351.969 19.9493C352.147 20.0732 352.269 20.2613 352.311 20.4739L370.45 111.028C370.472 111.139 370.471 111.253 370.448 111.363C370.425 111.474 370.38 111.578 370.316 111.671C370.252 111.763 370.17 111.842 370.075 111.902C369.98 111.962 369.873 112.002 369.762 112.02L362.498 113.184C362.454 113.19 362.41 113.194 362.366 113.194ZM354.787 41.339L363.092 111.392L368.641 110.503L354.787 41.339Z" fill="#3375E0"/>
<path d="M351.911 200.8C351.713 200.8 351.521 200.729 351.37 200.6C351.219 200.47 351.119 200.291 351.088 200.095L348.284 182.478C348.257 182.263 348.314 182.044 348.444 181.87C348.574 181.696 348.767 181.579 348.981 181.545C349.195 181.511 349.415 181.561 349.592 181.686C349.77 181.811 349.892 182.001 349.933 182.214L352.737 199.831C352.756 199.951 352.749 200.073 352.716 200.19C352.683 200.306 352.626 200.414 352.547 200.507C352.469 200.599 352.371 200.673 352.261 200.724C352.152 200.774 352.032 200.8 351.911 200.8ZM408.016 199.921C407.817 199.92 407.625 199.849 407.474 199.72C407.323 199.591 407.223 199.412 407.192 199.215L404.446 181.965C404.411 181.745 404.465 181.521 404.595 181.341C404.725 181.161 404.921 181.041 405.139 181.005C405.358 180.971 405.581 181.024 405.761 181.155C405.94 181.285 406.06 181.481 406.095 181.7L408.841 198.951C408.86 199.071 408.853 199.193 408.82 199.31C408.787 199.427 408.73 199.535 408.651 199.627C408.573 199.719 408.475 199.793 408.366 199.844C408.256 199.895 408.136 199.921 408.016 199.921ZM371.894 191.729C371.695 191.729 371.504 191.658 371.353 191.528C371.202 191.399 371.102 191.22 371.07 191.024L369.679 182.283C369.645 182.063 369.698 181.839 369.828 181.659C369.958 181.48 370.154 181.359 370.372 181.324C370.591 181.289 370.814 181.343 370.994 181.473C371.173 181.603 371.293 181.8 371.328 182.019L372.72 190.76C372.739 190.879 372.731 191.002 372.699 191.118C372.666 191.235 372.608 191.343 372.53 191.435C372.451 191.527 372.354 191.601 372.244 191.652C372.134 191.703 372.015 191.729 371.894 191.729Z" fill="#3375E0"/>
</g>
<g clip-path="url(#clip3_5360_20768)">
<path d="M334.107 160.173C336.373 158.218 338.833 156.331 341.291 155.544C345.545 154.184 354.855 153.74 356.61 153.671C364.713 153.353 361.43 160.809 355.497 162.245C351.362 163.246 348.351 163.899 348.351 163.899C348.351 163.899 349.913 168.687 344.047 171.523" fill="white"/>
<path d="M344.048 172.353C343.859 172.354 343.675 172.29 343.528 172.173C343.38 172.056 343.276 171.893 343.233 171.71C343.191 171.526 343.212 171.334 343.294 171.165C343.375 170.995 343.512 170.858 343.683 170.776C348.79 168.308 347.609 164.319 347.556 164.151C347.521 164.04 347.51 163.924 347.523 163.809C347.536 163.695 347.573 163.584 347.631 163.484C347.689 163.384 347.767 163.297 347.861 163.229C347.954 163.161 348.061 163.113 348.174 163.088C348.204 163.081 351.223 162.425 355.299 161.439C358.531 160.657 360.836 157.916 360.59 156.168C360.428 155.016 358.989 154.409 356.642 154.501C355.55 154.544 345.848 154.959 341.547 156.335C339.14 157.105 336.712 159.025 334.655 160.801C334.486 160.938 334.271 161.005 334.054 160.987C333.837 160.969 333.636 160.867 333.494 160.704C333.351 160.54 333.278 160.328 333.29 160.112C333.303 159.896 333.4 159.693 333.56 159.547C335.745 157.661 338.342 155.616 341.036 154.755C345.548 153.311 355.461 152.885 356.576 152.841C361.269 152.654 362.103 154.945 362.243 155.938C362.637 158.736 359.516 162.127 355.694 163.052C353.573 163.566 351.446 164.061 349.315 164.536C349.505 166.223 349.283 169.915 344.412 172.27C344.299 172.325 344.174 172.353 344.048 172.353L344.048 172.353Z" fill="#3375E0"/>
</g>
<g clip-path="url(#clip4_5360_20768)">
<path d="M275.314 84.5383C273.661 83.0471 271.433 82.1737 268.898 82.2192L242.831 82.6856C237.027 82.7894 231.814 87.6696 231.187 93.5857L230.748 97.7194C230.347 101.504 231.919 104.795 234.622 106.649L227.938 101.575C225.711 99.6571 224.471 96.6474 224.833 93.2378L225.271 89.104C225.899 83.188 231.112 78.308 236.915 78.2039L262.982 77.7375C265.159 77.6987 267.109 78.3367 268.663 79.4618L275.314 84.5386V84.5383Z" fill="#3375E0"/>
<path d="M234.622 107.518C234.464 107.518 234.304 107.471 234.163 107.374C233.907 107.199 233.66 107.012 233.421 106.812L227.446 102.277C227.432 102.267 227.419 102.256 227.406 102.245C224.862 100.053 223.621 96.7354 224.002 93.142L224.441 89.0082C225.112 82.682 230.701 77.4451 236.901 77.3341L262.968 76.8677C265.253 76.8251 267.385 77.4767 269.141 78.7473L274.651 82.953C275.077 83.2287 275.482 83.539 275.862 83.8809C276.025 84.028 276.127 84.235 276.146 84.4585C276.166 84.682 276.102 84.9047 275.967 85.0802C275.833 85.2556 275.638 85.3701 275.424 85.3998C275.21 85.4295 274.994 85.372 274.82 85.2393L273.717 84.3975C272.331 83.516 270.664 83.0577 268.913 83.0887L242.845 83.5551C237.457 83.6516 232.6 88.1939 232.018 93.6811L231.579 97.8149C231.257 100.856 232.321 103.647 234.447 105.439L235.116 105.946C235.258 106.054 235.364 106.207 235.418 106.381C235.472 106.556 235.472 106.744 235.417 106.919C235.362 107.093 235.256 107.245 235.113 107.353C234.97 107.46 234.798 107.518 234.622 107.518V107.518ZM228.453 100.888L230.406 102.371C229.915 100.907 229.74 99.2963 229.918 97.6236L230.356 93.4898C231.027 87.1636 236.617 81.9265 242.816 81.8158L268.884 81.3493C269.172 81.3443 269.46 81.3505 269.748 81.3679L268.169 80.1625C266.72 79.1143 264.928 78.576 262.997 78.6067L236.93 79.0731C231.542 79.1697 226.684 83.7119 226.103 89.1989L225.664 93.3327C225.347 96.3243 226.363 99.0768 228.453 100.888Z" fill="#3375E0"/>
<path d="M200.897 77.3351C204.837 79.851 222.806 84.5768 225.779 85.4647C231.762 87.2516 229.637 96.2732 224.738 94.7252C222.083 93.8862 216.016 91.7034 216.016 91.7034C214.411 84.8977 206.026 83.7555 202.212 89.2802C200.646 90.8563 198.814 76.3295 200.897 77.3351Z" fill="#3375E0"/>
<path d="M225.844 95.7743C225.406 95.7743 224.954 95.7027 224.494 95.5575C221.854 94.7232 215.803 92.5476 215.742 92.5256C215.61 92.4781 215.492 92.397 215.398 92.2896C215.304 92.1822 215.237 92.0521 215.204 91.911C214.567 89.213 212.65 87.2931 210.075 86.7748C207.31 86.2176 204.557 87.3731 202.89 89.7879C202.861 89.8301 202.828 89.8695 202.792 89.9056C202.339 90.3621 201.705 90.392 201.213 89.9789C199.593 88.6173 198.421 79.0954 199.626 77.0824C199.998 76.4603 200.636 76.2504 201.248 76.5464C201.278 76.5606 201.306 76.5765 201.334 76.5942C204.506 78.62 217.711 82.3041 223.35 83.8773C224.552 84.2127 225.501 84.4774 226.01 84.6293C228.117 85.2587 229.605 86.8113 230.091 88.8886C230.577 90.9619 229.983 93.2596 228.615 94.6055C227.83 95.3775 226.875 95.7743 225.844 95.7743ZM216.706 91.0312C218.121 91.5376 222.773 93.1955 224.98 93.8932C226.183 94.2733 226.996 93.8031 227.466 93.3416C228.397 92.4253 228.809 90.763 228.466 89.3003C228.121 87.825 227.084 86.7597 225.548 86.3011C225.053 86.1533 224.11 85.8903 222.917 85.5572C216.98 83.9008 204.893 80.5286 200.926 78.3515C200.767 79.0991 200.711 80.8376 201.011 83.3808C201.285 85.706 201.698 87.3467 202.01 88.1384C204.088 85.6016 207.233 84.4307 210.392 85.067C213.475 85.6877 215.806 87.901 216.706 91.0312Z" fill="#3375E0"/>
<path d="M266.186 107.777L240.119 108.243C234.316 108.347 230.12 103.635 230.748 97.7192L231.186 93.5854C231.814 87.6694 237.027 82.7895 242.83 82.6854L268.897 82.219C274.701 82.1152 278.896 86.8267 278.269 92.7427L277.83 96.8765C277.203 102.793 271.99 107.673 266.186 107.777Z" fill="#A8CFFB"/>
<path d="M239.929 109.114C236.933 109.114 234.25 107.932 232.357 105.771C230.457 103.601 229.59 100.708 229.917 97.6235L230.356 93.4897C231.027 87.1635 236.617 81.9264 242.816 81.8157L268.883 81.3493C271.975 81.2901 274.724 82.4813 276.661 84.6917C278.561 86.8609 279.427 89.754 279.1 92.8381L278.661 96.9722C277.991 103.298 272.401 108.535 266.201 108.646L240.134 109.113C240.065 109.114 239.997 109.114 239.929 109.114ZM269.087 83.0866C269.029 83.0866 268.971 83.0871 268.912 83.088L242.845 83.5544C237.457 83.651 232.6 88.1932 232.018 93.6805L231.579 97.8143C231.306 100.395 232.021 102.804 233.593 104.599C235.201 106.434 237.51 107.423 240.106 107.373L266.173 106.907C271.561 106.81 276.418 102.268 277 96.7808L277.439 92.6468C277.712 90.0665 276.997 87.6572 275.425 85.8625C273.853 84.0684 271.608 83.0866 269.087 83.0866Z" fill="#3375E0"/>
<path d="M228.84 106.869C227.065 111.701 233.364 114.667 236.959 111.781L228.84 106.869Z" fill="white"/>
<path d="M233.617 113.778C232.227 113.778 230.828 113.341 229.699 112.468C227.841 111.031 227.228 108.822 228.059 106.558C228.102 106.44 228.169 106.334 228.256 106.246C228.343 106.157 228.447 106.09 228.561 106.048C228.676 106.006 228.797 105.991 228.918 106.002C229.039 106.014 229.155 106.053 229.26 106.116L237.38 111.028C237.498 111.1 237.598 111.201 237.67 111.322C237.742 111.443 237.785 111.581 237.794 111.723C237.803 111.866 237.778 112.008 237.721 112.138C237.665 112.268 237.579 112.381 237.47 112.468C236.384 113.341 235.005 113.777 233.617 113.777V113.778ZM229.38 108.201C229.239 109.675 230.097 110.609 230.697 111.073C231.834 111.952 233.654 112.372 235.271 111.765L229.38 108.201Z" fill="#3375E0"/>
</g>
<defs>
<clipPath id="clip0_5360_20768">
<rect width="365.623" height="436.74" fill="white" transform="translate(10.04 45.1802)"/>
</clipPath>
<clipPath id="clip1_5360_20768">
<rect width="221.717" height="273.869" fill="white" transform="translate(259.646 208.051)"/>
</clipPath>
<clipPath id="clip2_5360_20768">
<rect width="66.3756" height="180.999" fill="white" transform="translate(342.476 19.8013)"/>
</clipPath>
<clipPath id="clip3_5360_20768">
<rect width="29.0044" height="19.5222" fill="white" transform="translate(333.272 152.831)"/>
</clipPath>
<clipPath id="clip4_5360_20768">
<rect width="80.0411" height="37.3711" fill="white" transform="translate(199.127 76.4155)"/>
</clipPath>
</defs>
</svg>
